<?xml version="1.0" encoding="utf-8"?>
<!-- Generator: Adobe Illustrator 23.1.1, SVG Export Plug-In . SVG Version: 6.00 Build 0)  -->
<svg version="1.1" id="Layer_1" xmlns="http://www.w3.org/2000/svg" xmlns:xlink="http://www.w3.org/1999/xlink" x="0px" y="0px"
	 viewBox="0 0 30 30" style="enable-background:new 0 0 30 30;" xml:space="preserve">
<style type="text/css">
	.st0{opacity:0.2;fill:#59CEDC;}
	.st1{fill:#59CEDC;}
</style>
<g>
	<path class="st0" d="M21.57,4.76H8.29c-2.01,0-3.65,1.64-3.65,3.65v13.28c0,2.01,1.64,3.65,3.65,3.65h13.28
		c2.01,0,3.65-1.64,3.65-3.65V8.42C25.23,6.41,23.58,4.76,21.57,4.76z"/>
	<path class="st1" d="M29.16,9.17c0.72-0.72,0.72-1.9,0-2.62l-3.15-3.15c-0.72-0.72-1.9-0.72-2.62,0l-11.3,11.3
		c-0.72,0.72-1.9,0.72-2.62,0l-2.87-2.87c-0.72-0.72-1.9-0.72-2.62,0l-3.15,3.15c-0.72,0.72-0.72,1.9,0,2.62l8.64,8.64
		c0.72,0.72,1.91,0.72,2.63,0L29.16,9.17z"/>
</g>
</svg>
