<?xml version="1.0" encoding="utf-8"?>
<!-- Generator: Adobe Illustrator 24.1.1, SVG Export Plug-In . SVG Version: 6.00 Build 0)  -->
<svg version="1.1"
	 id="svg2" inkscape:version="0.48.4 r9939" sodipodi:docname="Logo SUS.svg" xmlns:cc="http://creativecommons.org/ns#" xmlns:dc="http://purl.org/dc/elements/1.1/" xmlns:inkscape="http://www.inkscape.org/namespaces/inkscape" xmlns:rdf="http://www.w3.org/1999/02/22-rdf-syntax-ns#" xmlns:sodipodi="http://sodipodi.sourceforge.net/DTD/sodipodi-0.dtd" xmlns:svg="http://www.w3.org/2000/svg"
	 xmlns="http://www.w3.org/2000/svg" xmlns:xlink="http://www.w3.org/1999/xlink" x="0px" y="0px" viewBox="0 0 100 52"
	 style="enable-background:new 0 0 100 52;" xml:space="preserve">
<style type="text/css">
	.st0{fill-rule:evenodd;clip-rule:evenodd;fill:#005BAB;}
</style>
<sodipodi:namedview  bordercolor="#666666" borderopacity="1" fit-margin-bottom="0" fit-margin-left="0" fit-margin-right="0" fit-margin-top="0" gridtolerance="10" guidetolerance="10" id="namedview3007" inkscape:current-layer="svg2" inkscape:cx="44.346259" inkscape:cy="85.224046" inkscape:pageopacity="0" inkscape:pageshadow="2" inkscape:window-height="480" inkscape:window-maximized="0" inkscape:window-width="640" inkscape:window-x="0" inkscape:window-y="0" inkscape:zoom="0.5904375" objecttolerance="10" pagecolor="#ffffff" showgrid="false">
	</sodipodi:namedview>
<g id="g10" transform="matrix(2.8249584,0,0,-2.8249584,-606.01855,163.1583)">
	<g id="g12">
		<g>
			<g id="g14">
				<path id="path20" inkscape:connector-curvature="0" class="st0" d="M228,47.6l-1.1,0.3c-0.7,0.2-1.2,0.9-1.2,1.6
					c0,1,0.8,1.7,1.7,1.7h2.2v-0.8h-1.5c-0.3,0-0.5-0.2-0.5-0.5c0-0.2,0.1-0.4,0.4-0.5l1.1-0.4c0.7-0.2,1.1-1,1.1-1.8
					c0-1.1-0.9-1.9-1.9-1.9h-2.3v0.9h2c0.3,0,0.6,0.3,0.6,0.7C228.5,47.2,228.3,47.5,228,47.6 M217.9,47.6l-1.1,0.3
					c-0.7,0.2-1.2,0.9-1.2,1.6c0,1,0.8,1.7,1.7,1.7h2.2v-0.8h-1.5c-0.3,0-0.6-0.2-0.6-0.5c0-0.2,0.1-0.4,0.4-0.5l1.1-0.4
					c0.7-0.2,1.1-1,1.1-1.8c0-1.1-0.8-1.9-1.9-1.9h-2.3v0.9h2c0.3,0,0.6,0.3,0.6,0.7C218.4,47.2,218.2,47.5,217.9,47.6 M222.9,45.2
					c-1.3,0-2.4,0.9-2.4,2.1v4h1.8v-4.1c0-0.5,0.5-0.9,1-0.9c0.5,0,1,0.4,1,0.9v4.1h0.8v-4C225.3,46.1,224.2,45.2,222.9,45.2"/>
				<path id="path22" inkscape:connector-curvature="0" class="st0" d="M243,44.9c0,0-3.1-0.2-5.7,0c0-3.2,0.4-4.8,0.5-5.1h5.7
					C243.3,41.4,243.1,44.1,243,44.9 M233.4,51.5c0.4,0,3.7-0.3,4-0.3c0,0,5.3-5.4,5.3-5.4h6.8v5.7H233.4L233.4,51.5z M237.8,51.8
					h5.7v5.6h-5.7V51.8z M237.8,50.2L237.8,50.2L237,51c-1,0-4.2,0.3-5.2,0.5v-5.7c5.1-0.5,7.8-0.6,10.8-0.5h0L237.8,50.2
					L237.8,50.2z M243,45.4h0.7V41c-0.1,0.5-0.3,3.2-0.3,4C243.3,45.1,243,45.4,243,45.4"/>
			</g>
		</g>
	</g>
</g>
</svg>
