<?xml version="1.0" encoding="utf-8"?>
<!-- Generator: Adobe Illustrator 24.1.1, SVG Export Plug-In . SVG Version: 6.00 Build 0)  -->
<svg version="1.1" id="Layer_1" xmlns="http://www.w3.org/2000/svg" xmlns:xlink="http://www.w3.org/1999/xlink" x="0px" y="0px"
	 viewBox="0 0 81 36" style="enable-background:new 0 0 81 36;" xml:space="preserve">
<style type="text/css">
	.st0{fill-rule:evenodd;clip-rule:evenodd;}
	.st1{clip-path:url(#SVGID_2_);fill-rule:evenodd;clip-rule:evenodd;}
	.st2{clip-path:url(#SVGID_2_);}
</style>
<g>
	<polygon class="st0" points="7.8,13 7.8,18.2 31.4,18.1 31.4,16.9 24.7,10.9 27.9,9.7 34.4,15.6 34.4,21 4.8,21 4.8,15.7 	"/>
	<g>
		<defs>
			<rect id="SVGID_1_" x="4.7" y="2" width="70" height="31.7"/>
		</defs>
		<clipPath id="SVGID_2_">
			<use xlink:href="#SVGID_1_"  style="overflow:visible;"/>
		</clipPath>
		<path class="st1" d="M19.6,2l8.3,7.7l3.4-1.2C31.3,8.5,19.6,2,19.6,2"/>
		<polygon class="st1" points="19.7,6.3 24.8,10.9 7.8,16.9 		"/>
		<rect x="39" y="9.7" class="st2" width="1.6" height="11.3"/>
		<path class="st2" d="M50.8,20.9c-0.7,0.3-1.5,0.4-2.6,0.4c-1.8,0-3.2-0.5-4.3-1.6c-1.1-1.1-1.6-2.5-1.6-4.3c0-1.7,0.6-3.1,1.7-4.2
			c1.1-1.1,2.5-1.6,4.3-1.6c1,0,1.8,0.2,2.5,0.5l-0.1,1.6c-0.7-0.4-1.5-0.6-2.3-0.6c-1.3,0-2.3,0.4-3.1,1.3
			c-0.8,0.8-1.2,1.9-1.2,3.2c0,1.3,0.4,2.4,1.2,3.2c0.8,0.8,1.8,1.2,3,1.2c1,0,1.8-0.2,2.5-0.5L50.8,20.9"/>
		<rect x="52.8" y="9.8" class="st2" width="1.6" height="11.3"/>
		<path class="st2" d="M64.6,20.8c-0.7,0.3-1.5,0.4-2.6,0.4c-1.8,0-3.2-0.5-4.3-1.6c-1.1-1.1-1.6-2.5-1.6-4.3c0-1.7,0.6-3.1,1.7-4.2
			c1.1-1.1,2.5-1.6,4.3-1.6c1,0,1.8,0.2,2.5,0.5l-0.1,1.6C63.8,11.2,63,11,62.2,11c-1.3,0-2.3,0.4-3.1,1.3c-0.8,0.8-1.2,1.9-1.2,3.2
			c0,1.3,0.4,2.4,1.2,3.2c0.8,0.8,1.8,1.2,3,1.2c1,0,1.8-0.2,2.5-0.5L64.6,20.8"/>
		<polygon class="st2" points="74.6,11.2 71.1,11.2 71.1,21 69.5,21 69.5,11.2 66,11.2 66,9.7 74.6,9.7 		"/>
		<path class="st2" d="M5.2,28.3H4.8v-2.7h0.4V28.3z M7.6,28.3H7.2v-1c0-0.2,0-0.4-0.1-0.5c-0.1-0.1-0.2-0.2-0.3-0.2
			c-0.2,0-0.3,0.1-0.4,0.2c-0.1,0.1-0.1,0.3-0.1,0.6v0.9H5.8v-1.9h0.3v0.3h0c0.1-0.1,0.1-0.2,0.3-0.3c0.1-0.1,0.2-0.1,0.4-0.1
			c0.5,0,0.7,0.3,0.7,0.8V28.3z M9.2,27.7c0,0.2-0.1,0.3-0.2,0.5c-0.1,0.1-0.3,0.2-0.5,0.2c-0.2,0-0.4,0-0.5-0.1l0-0.3
			C8.2,28,8.3,28,8.5,28c0.1,0,0.2,0,0.2-0.1c0.1,0,0.1-0.1,0.1-0.2c0-0.1-0.1-0.2-0.2-0.3c-0.1-0.1-0.3-0.1-0.4-0.2
			C8.1,27.2,8,27,8,26.9c0-0.2,0.1-0.3,0.2-0.5c0.1-0.1,0.3-0.1,0.5-0.1c0.1,0,0.3,0,0.4,0.1l0,0.3c0,0-0.1,0-0.2-0.1
			c-0.1,0-0.1,0-0.2,0c-0.1,0-0.2,0-0.2,0.1c-0.1,0-0.1,0.1-0.1,0.2c0,0.1,0.1,0.2,0.2,0.3c0.1,0.1,0.3,0.1,0.4,0.2
			C9.2,27.4,9.2,27.5,9.2,27.7 M10.8,28.3c-0.1,0-0.2,0.1-0.3,0.1c-0.4,0-0.6-0.2-0.6-0.6v-1.1H9.4v-0.3h0.4v-0.5l0.4-0.1v0.6h0.5
			v0.3h-0.5v1.1c0,0.1,0,0.2,0.1,0.3c0.1,0.1,0.1,0.1,0.2,0.1c0.1,0,0.2,0,0.2-0.1V28.3z M11.6,25.9h-0.4v-0.4h0.4V25.9z M11.6,28.3
			h-0.4v-1.9h0.4V28.3z M13.3,28.3c-0.1,0-0.2,0.1-0.3,0.1c-0.4,0-0.6-0.2-0.6-0.6v-1.1H12v-0.3h0.4v-0.5l0.4-0.1v0.6h0.5v0.3h-0.5
			v1.1c0,0.1,0,0.2,0.1,0.3C12.9,28,13,28,13.1,28c0.1,0,0.2,0,0.2-0.1V28.3z M15.5,28.3h-0.3V28h0c-0.1,0.1-0.1,0.2-0.3,0.3
			c-0.1,0.1-0.2,0.1-0.4,0.1c-0.5,0-0.7-0.3-0.7-0.8v-1.2h0.4v1c0,0.2,0,0.4,0.1,0.5c0.1,0.1,0.2,0.2,0.3,0.2c0.2,0,0.3-0.1,0.4-0.2
			c0.1-0.1,0.1-0.3,0.1-0.6v-0.9h0.4V28.3z M17.2,28.3c-0.1,0-0.2,0.1-0.3,0.1c-0.4,0-0.6-0.2-0.6-0.6v-1.1h-0.4v-0.3h0.4v-0.5
			l0.4-0.1v0.6h0.5v0.3h-0.5v1.1c0,0.1,0,0.2,0.1,0.3c0.1,0.1,0.1,0.1,0.2,0.1c0.1,0,0.2,0,0.2-0.1V28.3z M19.5,27.3
			c0,0.3-0.1,0.5-0.3,0.7c-0.2,0.2-0.4,0.3-0.7,0.3c-0.3,0-0.5-0.1-0.7-0.3c-0.2-0.2-0.3-0.4-0.3-0.7c0-0.3,0.1-0.5,0.3-0.7
			c0.2-0.2,0.4-0.3,0.7-0.3s0.5,0.1,0.7,0.3C19.4,26.8,19.5,27,19.5,27.3 M19.1,27.3c0-0.2-0.1-0.4-0.2-0.5
			c-0.1-0.1-0.3-0.2-0.4-0.2c-0.2,0-0.3,0.1-0.5,0.2c-0.1,0.1-0.2,0.3-0.2,0.5c0,0.2,0,0.4,0.1,0.5c0.1,0.2,0.3,0.2,0.5,0.2
			c0.2,0,0.4-0.1,0.5-0.2C19,27.7,19.1,27.5,19.1,27.3 M22.7,28.3h-0.3V28h0c-0.1,0.2-0.4,0.3-0.7,0.3c-0.3,0-0.5-0.1-0.6-0.3
			c-0.1-0.2-0.2-0.4-0.2-0.7c0-0.3,0.1-0.5,0.2-0.7c0.1-0.2,0.4-0.3,0.6-0.3c0.3,0,0.5,0.1,0.6,0.3h0v-1.2h0.4V28.3z M22.4,27.3
			c0-0.2,0-0.4-0.1-0.5c-0.1-0.2-0.3-0.2-0.4-0.2c-0.2,0-0.3,0.1-0.4,0.2c-0.1,0.1-0.1,0.3-0.1,0.5c0,0.2,0,0.3,0.1,0.5
			c0.1,0.2,0.2,0.3,0.4,0.3c0.2,0,0.3-0.1,0.4-0.2C22.3,27.7,22.4,27.5,22.4,27.3 M25,27.4h-1.4c0,0.2,0.1,0.3,0.2,0.5
			c0.1,0.1,0.3,0.2,0.4,0.2c0.1,0,0.2,0,0.4-0.1c0.1,0,0.2-0.1,0.2-0.1v0.4c-0.2,0.1-0.4,0.1-0.6,0.1c-0.3,0-0.6-0.1-0.8-0.3
			c-0.2-0.2-0.2-0.4-0.2-0.8c0-0.3,0.1-0.5,0.3-0.7c0.2-0.2,0.4-0.3,0.7-0.3C24.7,26.3,25,26.7,25,27.4 M24.6,27.1
			c0-0.2,0-0.3-0.1-0.4c-0.1-0.1-0.2-0.2-0.4-0.2c-0.2,0-0.3,0.1-0.4,0.2c-0.1,0.1-0.1,0.2-0.1,0.4H24.6z M28.4,28.2
			c-0.2,0.1-0.4,0.1-0.6,0.1c-0.4,0-0.8-0.1-1-0.4c-0.3-0.3-0.4-0.6-0.4-1c0-0.4,0.1-0.7,0.4-1c0.3-0.2,0.6-0.4,1-0.4
			c0.2,0,0.4,0,0.6,0.1l0,0.4c-0.2-0.1-0.4-0.2-0.6-0.2c-0.3,0-0.5,0.1-0.7,0.3c-0.2,0.2-0.3,0.4-0.3,0.7c0,0.3,0.1,0.6,0.3,0.8
			c0.2,0.2,0.4,0.3,0.7,0.3c0.2,0,0.4,0,0.6-0.1L28.4,28.2z M30.7,27.3c0,0.3-0.1,0.5-0.3,0.7c-0.2,0.2-0.4,0.3-0.7,0.3
			c-0.3,0-0.5-0.1-0.7-0.3c-0.2-0.2-0.3-0.4-0.3-0.7c0-0.3,0.1-0.5,0.3-0.7c0.2-0.2,0.4-0.3,0.7-0.3c0.3,0,0.5,0.1,0.7,0.3
			C30.6,26.8,30.7,27,30.7,27.3 M30.3,27.3c0-0.2-0.1-0.4-0.2-0.5c-0.1-0.1-0.3-0.2-0.4-0.2s-0.3,0.1-0.5,0.2
			c-0.1,0.1-0.2,0.3-0.2,0.5c0,0.2,0.1,0.4,0.1,0.5c0.1,0.2,0.3,0.2,0.5,0.2c0.2,0,0.4-0.1,0.5-0.2C30.3,27.7,30.3,27.5,30.3,27.3
			 M34,28.3h-0.4v-1.2c0-0.4-0.1-0.5-0.3-0.5c-0.2,0-0.3,0.1-0.4,0.2c-0.1,0.1-0.1,0.3-0.1,0.5v1h-0.4v-1.2c0-0.4-0.1-0.5-0.3-0.5
			c-0.2,0-0.3,0.1-0.4,0.2c-0.1,0.1-0.1,0.3-0.1,0.5v1h-0.4v-1.9h0.3v0.3h0c0.1-0.2,0.3-0.3,0.6-0.3c0.3,0,0.5,0.1,0.6,0.4
			c0.1-0.1,0.2-0.2,0.3-0.3c0.1-0.1,0.2-0.1,0.3-0.1c0.5,0,0.7,0.2,0.7,0.7V28.3z M36.3,28.3H36V28h0c-0.1,0.1-0.1,0.2-0.3,0.3
			c-0.1,0.1-0.2,0.1-0.4,0.1c-0.5,0-0.7-0.3-0.7-0.8v-1.2H35v1c0,0.2,0,0.4,0.1,0.5c0.1,0.1,0.2,0.2,0.3,0.2c0.2,0,0.3-0.1,0.4-0.2
			c0.1-0.1,0.1-0.3,0.1-0.6v-0.9h0.4V28.3z M38.7,28.3h-0.4v-1c0-0.2,0-0.4-0.1-0.5c-0.1-0.1-0.2-0.2-0.3-0.2
			c-0.2,0-0.3,0.1-0.4,0.2c-0.1,0.1-0.1,0.3-0.1,0.6v0.9H37v-1.9h0.3v0.3h0c0.1-0.1,0.1-0.2,0.3-0.3c0.1-0.1,0.2-0.1,0.4-0.1
			c0.5,0,0.7,0.3,0.7,0.8V28.3z M39.7,25.9h-0.4v-0.4h0.4V25.9z M39.7,28.3h-0.4v-1.9h0.4V28.3z M41.7,28.2
			c-0.1,0.1-0.3,0.1-0.5,0.1c-0.3,0-0.5-0.1-0.7-0.3c-0.2-0.2-0.3-0.4-0.3-0.7c0-0.3,0.1-0.5,0.3-0.7c0.2-0.2,0.4-0.3,0.7-0.3
			c0.2,0,0.3,0,0.4,0.1l0,0.3c-0.1-0.1-0.3-0.1-0.4-0.1c-0.2,0-0.3,0.1-0.5,0.2c-0.1,0.1-0.2,0.3-0.2,0.5c0,0.2,0,0.4,0.2,0.5
			C40.9,28,41,28,41.3,28c0.1,0,0.3,0,0.4-0.1L41.7,28.2z M43.6,28.3h-0.3V28h0c-0.1,0.2-0.3,0.3-0.6,0.3c-0.2,0-0.4-0.1-0.5-0.1
			C42,28.1,42,27.9,42,27.7c0-0.2,0.1-0.4,0.3-0.5c0.2-0.1,0.4-0.1,0.6-0.1c0.2,0,0.3,0,0.4,0c0-0.2,0-0.3-0.1-0.4
			c-0.1-0.1-0.2-0.1-0.4-0.1c-0.2,0-0.4,0.1-0.6,0.2l0-0.3c0.2-0.1,0.4-0.2,0.6-0.2c0.3,0,0.5,0.1,0.6,0.2c0.1,0.1,0.2,0.3,0.2,0.6
			v0.8C43.6,28.1,43.6,28.2,43.6,28.3 M43.2,27.5v-0.2c0,0-0.1,0-0.1,0c0,0-0.1,0-0.1,0c-0.5,0-0.7,0.1-0.7,0.4c0,0.1,0,0.2,0.1,0.2
			c0.1,0.1,0.2,0.1,0.2,0.1c0.2,0,0.3,0,0.4-0.1C43.2,27.8,43.2,27.7,43.2,27.5 M45.5,28.2c-0.1,0.1-0.3,0.1-0.5,0.1h0l-0.1,0.2l0,0
			c0,0,0.1,0,0.1,0c0.1,0,0.2,0,0.2,0.1c0.1,0.1,0.1,0.1,0.1,0.2c0,0.1-0.1,0.2-0.2,0.3c-0.1,0.1-0.2,0.1-0.3,0.1
			c-0.1,0-0.2,0-0.3-0.1l0.1-0.1c0.1,0,0.2,0.1,0.2,0.1c0.1,0,0.2-0.1,0.2-0.2c0-0.1-0.1-0.1-0.2-0.1c-0.1,0-0.1,0-0.2,0l-0.1-0.1
			l0.2-0.3c-0.2,0-0.4-0.2-0.6-0.3c-0.1-0.2-0.2-0.4-0.2-0.7c0-0.3,0.1-0.5,0.3-0.7c0.2-0.2,0.4-0.3,0.7-0.3c0.2,0,0.3,0,0.4,0.1
			l0,0.3c-0.1-0.1-0.3-0.1-0.4-0.1c-0.2,0-0.3,0.1-0.5,0.2c-0.1,0.1-0.2,0.3-0.2,0.5c0,0.2,0,0.4,0.2,0.5c0.1,0.2,0.3,0.2,0.5,0.2
			c0.1,0,0.3,0,0.4-0.1L45.5,28.2z M47.5,28.3h-0.3V28h0c-0.1,0.2-0.3,0.3-0.6,0.3c-0.2,0-0.4-0.1-0.5-0.1c-0.1-0.1-0.2-0.3-0.2-0.5
			c0-0.2,0.1-0.4,0.3-0.5c0.2-0.1,0.4-0.1,0.6-0.1c0.2,0,0.3,0,0.4,0c0-0.2,0-0.3-0.1-0.4c-0.1-0.1-0.2-0.1-0.4-0.1
			c-0.2,0-0.4,0.1-0.6,0.2l0-0.3c0.2-0.1,0.4-0.2,0.6-0.2c0.3,0,0.5,0.1,0.6,0.2c0.1,0.1,0.2,0.3,0.2,0.6v0.8
			C47.4,28.1,47.4,28.2,47.5,28.3 M47.4,25.6c0,0.3-0.2,0.4-0.4,0.4c-0.1,0-0.2,0-0.3-0.1c-0.1-0.1-0.2-0.1-0.3-0.1
			c-0.1,0-0.2,0-0.2,0.2h-0.2c0-0.3,0.2-0.4,0.4-0.4c0.1,0,0.2,0,0.3,0.1c0.1,0.1,0.2,0.1,0.3,0.1c0.1,0,0.2-0.1,0.2-0.2H47.4z
			 M47.1,27.5v-0.2c0,0-0.1,0-0.1,0c0,0-0.1,0-0.1,0c-0.5,0-0.7,0.1-0.7,0.4c0,0.1,0,0.2,0.1,0.2c0.1,0.1,0.2,0.1,0.2,0.1
			c0.2,0,0.3,0,0.4-0.1C47,27.8,47.1,27.7,47.1,27.5 M49.9,27.3c0,0.3-0.1,0.5-0.3,0.7c-0.2,0.2-0.4,0.3-0.7,0.3
			c-0.3,0-0.5-0.1-0.7-0.3c-0.2-0.2-0.3-0.4-0.3-0.7c0-0.3,0.1-0.5,0.3-0.7c0.2-0.2,0.4-0.3,0.7-0.3c0.3,0,0.5,0.1,0.7,0.3
			C49.8,26.8,49.9,27,49.9,27.3 M49.5,27.3c0-0.2-0.1-0.4-0.2-0.5c-0.1-0.1-0.3-0.2-0.4-0.2s-0.3,0.1-0.5,0.2
			c-0.1,0.1-0.2,0.3-0.2,0.5c0,0.2,0,0.4,0.1,0.5c0.1,0.2,0.3,0.2,0.5,0.2c0.2,0,0.4-0.1,0.5-0.2C49.5,27.7,49.5,27.5,49.5,27.3
			 M53.1,27.4h-1.4c0,0.2,0.1,0.3,0.2,0.5C52,28,52.2,28,52.4,28c0.1,0,0.2,0,0.4-0.1c0.1,0,0.2-0.1,0.2-0.1v0.4
			c-0.2,0.1-0.4,0.1-0.6,0.1c-0.3,0-0.6-0.1-0.8-0.3c-0.2-0.2-0.2-0.4-0.2-0.8c0-0.3,0.1-0.5,0.3-0.7c0.2-0.2,0.4-0.3,0.7-0.3
			C52.8,26.3,53.1,26.7,53.1,27.4 M52.7,27.1c0-0.2,0-0.3-0.1-0.4c-0.1-0.1-0.2-0.2-0.4-0.2c-0.2,0-0.3,0.1-0.4,0.2
			c-0.1,0.1-0.1,0.2-0.1,0.4H52.7z M55.1,28.3h-0.4v-2.7h0.4V28.3z M57.4,28.3h-0.4v-1c0-0.2,0-0.4-0.1-0.5
			c-0.1-0.1-0.2-0.2-0.3-0.2c-0.2,0-0.3,0.1-0.4,0.2c-0.1,0.1-0.1,0.3-0.1,0.6v0.9h-0.4v-1.9h0.3v0.3h0c0.1-0.1,0.1-0.2,0.3-0.3
			c0.1-0.1,0.2-0.1,0.4-0.1c0.5,0,0.7,0.3,0.7,0.8V28.3z M59.2,25.4l0,0.3c0,0-0.1,0-0.2,0c-0.1,0-0.2,0-0.3,0.1
			c0,0.1-0.1,0.2-0.1,0.3v0.2h0.5v0.3h-0.5v1.7h-0.4v-1.7h-0.5v-0.3h0.5v-0.2c0-0.3,0-0.5,0.1-0.6c0.1-0.1,0.3-0.2,0.5-0.2
			C59,25.4,59.1,25.4,59.2,25.4 M61.4,27.3c0,0.3-0.1,0.5-0.3,0.7c-0.2,0.2-0.4,0.3-0.7,0.3c-0.3,0-0.5-0.1-0.7-0.3
			c-0.2-0.2-0.3-0.4-0.3-0.7c0-0.3,0.1-0.5,0.3-0.7c0.2-0.2,0.4-0.3,0.7-0.3c0.3,0,0.5,0.1,0.7,0.3C61.3,26.8,61.4,27,61.4,27.3
			 M61,27.3c0-0.2-0.1-0.4-0.2-0.5c-0.1-0.1-0.3-0.2-0.4-0.2c-0.2,0-0.3,0.1-0.5,0.2c-0.1,0.1-0.2,0.3-0.2,0.5
			c0,0.2,0.1,0.4,0.1,0.5c0.1,0.2,0.3,0.2,0.5,0.2c0.2,0,0.4-0.1,0.5-0.2C61,27.7,61,27.5,61,27.3 M63,26.6c-0.1,0-0.1,0-0.2,0
			c-0.2,0-0.3,0.1-0.4,0.2c-0.1,0.1-0.1,0.3-0.1,0.6v0.9h-0.4v-1.9h0.3v0.3h0c0.1-0.1,0.1-0.2,0.2-0.3c0.1-0.1,0.2-0.1,0.3-0.1
			c0.1,0,0.1,0,0.2,0V26.6z M66.2,28.3h-0.4v-1.2c0-0.4-0.1-0.5-0.3-0.5c-0.2,0-0.3,0.1-0.4,0.2C65,26.9,65,27.1,65,27.3v1h-0.4
			v-1.2c0-0.4-0.1-0.5-0.3-0.5c-0.2,0-0.3,0.1-0.4,0.2c-0.1,0.1-0.1,0.3-0.1,0.5v1h-0.4v-1.9h0.3v0.3h0c0.1-0.2,0.3-0.3,0.6-0.3
			c0.3,0,0.5,0.1,0.6,0.4c0.1-0.1,0.2-0.2,0.3-0.3c0.1-0.1,0.2-0.1,0.3-0.1c0.5,0,0.7,0.2,0.7,0.7V28.3z M68.3,28.3H68V28h0
			c-0.1,0.2-0.3,0.3-0.6,0.3c-0.2,0-0.4-0.1-0.5-0.1c-0.1-0.1-0.2-0.3-0.2-0.5c0-0.2,0.1-0.4,0.3-0.5c0.2-0.1,0.4-0.1,0.6-0.1
			c0.2,0,0.3,0,0.4,0c0-0.2,0-0.3-0.1-0.4c-0.1-0.1-0.2-0.1-0.4-0.1c-0.2,0-0.4,0.1-0.6,0.2l0-0.3c0.2-0.1,0.4-0.2,0.6-0.2
			c0.3,0,0.5,0.1,0.6,0.2c0.1,0.1,0.2,0.3,0.2,0.6v0.8C68.3,28.1,68.3,28.2,68.3,28.3 M68,27.5v-0.2c0,0-0.1,0-0.1,0
			c0,0-0.1,0-0.1,0c-0.5,0-0.7,0.1-0.7,0.4c0,0.1,0,0.2,0.1,0.2c0.1,0.1,0.2,0.1,0.2,0.1c0.2,0,0.3,0,0.4-0.1
			C67.9,27.8,68,27.7,68,27.5 M70.2,28.2c-0.1,0.1-0.3,0.1-0.5,0.1h0l-0.1,0.2l0,0c0,0,0.1,0,0.1,0c0.1,0,0.2,0,0.2,0.1
			c0.1,0.1,0.1,0.1,0.1,0.2c0,0.1-0.1,0.2-0.2,0.3c-0.1,0.1-0.2,0.1-0.3,0.1c-0.1,0-0.2,0-0.3-0.1l0.1-0.1c0.1,0,0.2,0.1,0.2,0.1
			c0.1,0,0.2-0.1,0.2-0.2c0-0.1-0.1-0.1-0.2-0.1c0,0-0.1,0-0.2,0l-0.1-0.1l0.2-0.3c-0.2,0-0.4-0.2-0.6-0.3c-0.1-0.2-0.2-0.4-0.2-0.7
			c0-0.3,0.1-0.5,0.3-0.7c0.2-0.2,0.4-0.3,0.7-0.3c0.2,0,0.3,0,0.4,0.1l0,0.3c-0.1-0.1-0.3-0.1-0.4-0.1c-0.2,0-0.3,0.1-0.5,0.2
			c-0.1,0.1-0.2,0.3-0.2,0.5c0,0.2,0,0.4,0.2,0.5c0.1,0.2,0.3,0.2,0.5,0.2c0.1,0,0.3,0,0.4-0.1L70.2,28.2z M72.2,28.3h-0.3V28h0
			c-0.1,0.2-0.3,0.3-0.6,0.3c-0.2,0-0.4-0.1-0.5-0.1c-0.1-0.1-0.2-0.3-0.2-0.5c0-0.2,0.1-0.4,0.3-0.5c0.2-0.1,0.4-0.1,0.6-0.1
			c0.2,0,0.3,0,0.4,0c0-0.2,0-0.3-0.1-0.4c-0.1-0.1-0.2-0.1-0.4-0.1c-0.2,0-0.4,0.1-0.6,0.2l0-0.3c0.2-0.1,0.4-0.2,0.6-0.2
			c0.3,0,0.5,0.1,0.6,0.2c0.1,0.1,0.2,0.3,0.2,0.6v0.8C72.2,28.1,72.2,28.2,72.2,28.3 M72.1,25.6c0,0.3-0.2,0.4-0.4,0.4
			c-0.1,0-0.2,0-0.3-0.1c-0.1-0.1-0.2-0.1-0.3-0.1c-0.1,0-0.2,0-0.2,0.2h-0.2c0-0.3,0.2-0.4,0.4-0.4c0.1,0,0.2,0,0.3,0.1
			c0.1,0.1,0.2,0.1,0.3,0.1c0.1,0,0.2-0.1,0.2-0.2H72.1z M71.8,27.5v-0.2c0,0-0.1,0-0.1,0c0,0-0.1,0-0.1,0c-0.5,0-0.7,0.1-0.7,0.4
			c0,0.1,0,0.2,0.1,0.2c0.1,0.1,0.2,0.1,0.2,0.1c0.2,0,0.3,0,0.4-0.1C71.8,27.8,71.8,27.7,71.8,27.5 M74.6,27.3
			c0,0.3-0.1,0.5-0.3,0.7c-0.2,0.2-0.4,0.3-0.7,0.3c-0.3,0-0.5-0.1-0.7-0.3c-0.2-0.2-0.3-0.4-0.3-0.7c0-0.3,0.1-0.5,0.3-0.7
			c0.2-0.2,0.4-0.3,0.7-0.3c0.3,0,0.5,0.1,0.7,0.3C74.5,26.8,74.6,27,74.6,27.3 M74.3,27.3c0-0.2-0.1-0.4-0.2-0.5
			c-0.1-0.1-0.3-0.2-0.4-0.2c-0.2,0-0.3,0.1-0.5,0.2c-0.1,0.1-0.2,0.3-0.2,0.5c0,0.2,0.1,0.4,0.1,0.5c0.1,0.2,0.3,0.2,0.5,0.2
			c0.2,0,0.4-0.1,0.5-0.2C74.2,27.7,74.3,27.5,74.3,27.3"/>
		<path class="st2" d="M6.7,32.8c-0.2,0.1-0.4,0.1-0.6,0.1c-0.4,0-0.8-0.1-1-0.4c-0.3-0.3-0.4-0.6-0.4-1c0-0.4,0.1-0.7,0.4-1
			c0.3-0.2,0.6-0.4,1-0.4c0.2,0,0.4,0,0.6,0.1l0,0.4c-0.2-0.1-0.4-0.1-0.6-0.1c-0.3,0-0.5,0.1-0.7,0.3c-0.2,0.2-0.3,0.4-0.3,0.7
			c0,0.3,0.1,0.6,0.3,0.8c0.2,0.2,0.4,0.3,0.7,0.3c0.2,0,0.4,0,0.6-0.1L6.7,32.8z M7.5,30.5H7.1v-0.4h0.4V30.5z M7.5,32.8H7.2v-1.9
			h0.4V32.8z M9.8,32H8.4c0,0.2,0.1,0.3,0.2,0.5c0.1,0.1,0.3,0.2,0.4,0.2c0.1,0,0.2,0,0.4-0.1c0.1,0,0.2-0.1,0.2-0.1v0.4
			c-0.2,0.1-0.4,0.1-0.6,0.1c-0.3,0-0.6-0.1-0.8-0.3c-0.2-0.2-0.2-0.4-0.2-0.8c0-0.3,0.1-0.5,0.3-0.7c0.2-0.2,0.4-0.3,0.7-0.3
			C9.5,30.9,9.8,31.2,9.8,32 M9.5,31.7c0-0.2,0-0.3-0.1-0.4c-0.1-0.1-0.2-0.2-0.4-0.2c-0.2,0-0.3,0.1-0.4,0.2
			c-0.1,0.1-0.1,0.2-0.1,0.4H9.5z M12.1,32.8h-0.4v-1c0-0.2,0-0.4-0.1-0.5c-0.1-0.1-0.2-0.2-0.3-0.2c-0.2,0-0.3,0.1-0.4,0.2
			c-0.1,0.1-0.1,0.3-0.1,0.6v0.9h-0.4v-1.9h0.3v0.3h0c0.1-0.1,0.1-0.2,0.3-0.3c0.1-0.1,0.2-0.1,0.4-0.1c0.5,0,0.7,0.3,0.7,0.8V32.8z
			 M13.7,32.8c-0.1,0-0.2,0.1-0.3,0.1c-0.4,0-0.6-0.2-0.6-0.6v-1.1h-0.4v-0.3h0.4v-0.5l0.4-0.1v0.6h0.5v0.3h-0.5v1.1
			c0,0.1,0,0.2,0.1,0.3c0.1,0.1,0.1,0.1,0.2,0.1c0.1,0,0.2,0,0.2-0.1V32.8z M14.6,32.8h-0.4v-1.9h0.4V32.8z M15,30.1l-0.5,0.5h-0.3
			l0.3-0.5H15z M16.4,30l0,0.3c0,0-0.1,0-0.2,0c-0.1,0-0.2,0-0.3,0.1c0,0.1-0.1,0.2-0.1,0.3v0.2h0.5v0.3h-0.5v1.7h-0.4v-1.7H15v-0.3
			h0.5v-0.2c0-0.3,0-0.5,0.1-0.6c0.1-0.1,0.3-0.2,0.5-0.2C16.2,29.9,16.3,29.9,16.4,30 M17.2,30.5h-0.4v-0.4h0.4V30.5z M17.1,32.8
			h-0.4v-1.9h0.4V32.8z M19.1,32.8c-0.1,0.1-0.3,0.1-0.5,0.1c-0.3,0-0.5-0.1-0.7-0.3c-0.2-0.2-0.3-0.4-0.3-0.7
			c0-0.3,0.1-0.5,0.3-0.7c0.2-0.2,0.4-0.3,0.7-0.3c0.2,0,0.3,0,0.4,0.1l0,0.3c-0.1-0.1-0.3-0.1-0.4-0.1c-0.2,0-0.3,0.1-0.5,0.2
			c-0.1,0.1-0.2,0.3-0.2,0.5c0,0.2,0,0.4,0.2,0.5c0.1,0.2,0.3,0.2,0.5,0.2c0.1,0,0.3,0,0.4-0.1L19.1,32.8z M21,32.8h-0.3v-0.3h0
			c-0.1,0.2-0.3,0.3-0.6,0.3c-0.2,0-0.4,0-0.5-0.1c-0.1-0.1-0.2-0.3-0.2-0.5c0-0.2,0.1-0.4,0.3-0.5c0.2-0.1,0.4-0.1,0.6-0.1
			c0.2,0,0.3,0,0.4,0c0-0.2,0-0.3-0.1-0.4c-0.1-0.1-0.2-0.1-0.4-0.1c-0.2,0-0.4,0.1-0.6,0.2l0-0.3c0.2-0.1,0.4-0.2,0.6-0.2
			c0.3,0,0.5,0.1,0.6,0.2c0.1,0.1,0.2,0.3,0.2,0.6v0.8C21,32.6,21,32.8,21,32.8 M20.7,32.1v-0.2c0,0-0.1,0-0.1,0c-0.1,0-0.1,0-0.1,0
			c-0.5,0-0.7,0.1-0.7,0.4c0,0.1,0,0.2,0.1,0.2c0.1,0.1,0.2,0.1,0.2,0.1c0.2,0,0.3,0,0.4-0.1C20.6,32.4,20.7,32.2,20.7,32.1
			 M24.3,32H23c0,0.2,0.1,0.3,0.2,0.5c0.1,0.1,0.3,0.2,0.4,0.2c0.1,0,0.2,0,0.4-0.1c0.1,0,0.2-0.1,0.2-0.1v0.4
			c-0.2,0.1-0.4,0.1-0.6,0.1c-0.3,0-0.6-0.1-0.8-0.3c-0.2-0.2-0.2-0.4-0.2-0.8c0-0.3,0.1-0.5,0.3-0.7c0.2-0.2,0.4-0.3,0.7-0.3
			C24.1,30.9,24.3,31.2,24.3,32 M24,31.7c0-0.2,0-0.3-0.1-0.4c-0.1-0.1-0.2-0.2-0.4-0.2c-0.2,0-0.3,0.1-0.4,0.2
			C23,31.4,23,31.5,23,31.7H24z M27.7,30.5h-0.8v2.3h-0.4v-2.3h-0.8v-0.3h2V30.5z M29.7,32h-1.4c0,0.2,0.1,0.3,0.2,0.5
			c0.1,0.1,0.3,0.2,0.4,0.2c0.1,0,0.2,0,0.4-0.1c0.1,0,0.2-0.1,0.2-0.1v0.4c-0.2,0.1-0.4,0.1-0.6,0.1c-0.3,0-0.6-0.1-0.8-0.3
			c-0.2-0.2-0.2-0.4-0.2-0.8c0-0.3,0.1-0.5,0.3-0.7c0.2-0.2,0.4-0.3,0.7-0.3C29.4,30.9,29.7,31.2,29.7,32 M29.3,31.7
			c0-0.2,0-0.3-0.1-0.4c-0.1-0.1-0.2-0.2-0.4-0.2c-0.2,0-0.3,0.1-0.4,0.2c-0.1,0.1-0.1,0.2-0.1,0.4H29.3z M31.4,32.8
			c-0.1,0.1-0.3,0.1-0.5,0.1c-0.3,0-0.5-0.1-0.7-0.3c-0.2-0.2-0.3-0.4-0.3-0.7c0-0.3,0.1-0.5,0.3-0.7c0.2-0.2,0.4-0.3,0.7-0.3
			c0.2,0,0.3,0,0.4,0.1l0,0.3c-0.1-0.1-0.3-0.1-0.4-0.1c-0.2,0-0.3,0.1-0.5,0.2c-0.1,0.1-0.2,0.3-0.2,0.5c0,0.2,0.1,0.4,0.2,0.5
			c0.1,0.2,0.3,0.2,0.5,0.2c0.1,0,0.3,0,0.4-0.1L31.4,32.8z M33.6,32.8h-0.4v-1c0-0.2,0-0.4-0.1-0.5c-0.1-0.1-0.2-0.2-0.3-0.2
			c-0.2,0-0.3,0.1-0.4,0.2c-0.1,0.1-0.1,0.3-0.1,0.6v0.9h-0.4v-1.9h0.3v0.3h0c0.1-0.1,0.1-0.2,0.3-0.3c0.1-0.1,0.2-0.1,0.4-0.1
			c0.5,0,0.7,0.3,0.7,0.8V32.8z M36.1,31.9c0,0.3-0.1,0.5-0.3,0.7c-0.2,0.2-0.4,0.3-0.7,0.3c-0.3,0-0.5-0.1-0.7-0.3
			c-0.2-0.2-0.3-0.4-0.3-0.7c0-0.3,0.1-0.5,0.3-0.7c0.2-0.2,0.4-0.3,0.7-0.3c0.3,0,0.5,0.1,0.7,0.3C36,31.3,36.1,31.6,36.1,31.9
			 M35.7,31.9c0-0.2-0.1-0.4-0.2-0.5c-0.1-0.1-0.3-0.2-0.4-0.2c-0.2,0-0.3,0.1-0.5,0.2c-0.1,0.1-0.2,0.3-0.2,0.5
			c0,0.2,0,0.4,0.1,0.5c0.1,0.2,0.3,0.2,0.5,0.2c0.2,0,0.4-0.1,0.5-0.2C35.6,32.2,35.7,32.1,35.7,31.9 M37,32.8h-0.4V30H37V32.8z
			 M39.5,31.9c0,0.3-0.1,0.5-0.3,0.7c-0.2,0.2-0.4,0.3-0.7,0.3c-0.3,0-0.5-0.1-0.7-0.3c-0.2-0.2-0.3-0.4-0.3-0.7
			c0-0.3,0.1-0.5,0.3-0.7c0.2-0.2,0.4-0.3,0.7-0.3c0.3,0,0.5,0.1,0.7,0.3C39.4,31.3,39.5,31.6,39.5,31.9 M39.1,31.9
			c0-0.2-0.1-0.4-0.2-0.5c-0.1-0.1-0.3-0.2-0.4-0.2c-0.2,0-0.3,0.1-0.5,0.2c-0.1,0.1-0.2,0.3-0.2,0.5c0,0.2,0,0.4,0.1,0.5
			c0.1,0.2,0.3,0.2,0.5,0.2c0.2,0,0.4-0.1,0.5-0.2C39,32.2,39.1,32.1,39.1,31.9 M39,30.1l-0.5,0.5h-0.3l0.3-0.5H39z M41.7,32.8
			c0,0.6-0.3,0.9-1,0.9c-0.2,0-0.4,0-0.7-0.1l0-0.3c0.3,0.1,0.5,0.2,0.7,0.2c0.2,0,0.3-0.1,0.4-0.2c0.1-0.1,0.2-0.3,0.2-0.5v-0.2h0
			c-0.2,0.2-0.4,0.3-0.7,0.3c-0.3,0-0.5-0.1-0.6-0.3c-0.1-0.2-0.2-0.4-0.2-0.7c0-0.3,0.1-0.5,0.2-0.7c0.2-0.2,0.4-0.3,0.7-0.3
			c0.3,0,0.5,0.1,0.6,0.3h0v-0.3h0.3V32.8z M41.3,31.9c0-0.2,0-0.4-0.1-0.5c-0.1-0.1-0.2-0.2-0.4-0.2c-0.2,0-0.3,0.1-0.4,0.2
			c-0.1,0.1-0.1,0.3-0.1,0.5c0,0.2,0.1,0.4,0.1,0.5c0.1,0.1,0.2,0.2,0.4,0.2c0.2,0,0.3-0.1,0.4-0.2C41.3,32.2,41.3,32.1,41.3,31.9
			 M42.7,30.5h-0.4v-0.4h0.4V30.5z M42.7,32.8h-0.4v-1.9h0.4V32.8z M44.7,32.8c-0.1,0.1-0.3,0.1-0.5,0.1c-0.3,0-0.5-0.1-0.7-0.3
			c-0.2-0.2-0.3-0.4-0.3-0.7c0-0.3,0.1-0.5,0.3-0.7c0.2-0.2,0.4-0.3,0.7-0.3c0.2,0,0.3,0,0.4,0.1l0,0.3c-0.1-0.1-0.3-0.1-0.4-0.1
			c-0.2,0-0.3,0.1-0.5,0.2c-0.1,0.1-0.2,0.3-0.2,0.5c0,0.2,0,0.4,0.2,0.5c0.1,0.2,0.3,0.2,0.5,0.2c0.1,0,0.3,0,0.4-0.1L44.7,32.8z
			 M46.6,32.8h-0.3v-0.3h0c-0.1,0.2-0.3,0.3-0.6,0.3c-0.2,0-0.4,0-0.5-0.1C45,32.6,45,32.5,45,32.3c0-0.2,0.1-0.4,0.3-0.5
			c0.2-0.1,0.4-0.1,0.6-0.1c0.2,0,0.3,0,0.4,0c0-0.2,0-0.3-0.1-0.4c-0.1-0.1-0.2-0.1-0.4-0.1c-0.2,0-0.4,0.1-0.6,0.2l0-0.3
			c0.2-0.1,0.4-0.2,0.6-0.2c0.3,0,0.5,0.1,0.6,0.2c0.1,0.1,0.2,0.3,0.2,0.6v0.8C46.6,32.6,46.6,32.8,46.6,32.8 M46.3,32.1v-0.2
			c0,0-0.1,0-0.1,0c-0.1,0-0.1,0-0.1,0c-0.5,0-0.7,0.1-0.7,0.4c0,0.1,0,0.2,0.1,0.2c0.1,0.1,0.2,0.1,0.2,0.1c0.2,0,0.3,0,0.4-0.1
			C46.2,32.4,46.3,32.2,46.3,32.1 M49.9,32h-1.4c0,0.2,0.1,0.3,0.2,0.5c0.1,0.1,0.3,0.2,0.4,0.2c0.1,0,0.2,0,0.4-0.1
			c0.1,0,0.2-0.1,0.2-0.1v0.4c-0.2,0.1-0.4,0.1-0.6,0.1c-0.3,0-0.6-0.1-0.8-0.3c-0.2-0.2-0.2-0.4-0.2-0.8c0-0.3,0.1-0.5,0.3-0.7
			c0.2-0.2,0.4-0.3,0.7-0.3C49.6,30.9,49.9,31.2,49.9,32 M49.5,31.7c0-0.2,0-0.3-0.1-0.4c-0.1-0.1-0.2-0.2-0.4-0.2
			c-0.2,0-0.3,0.1-0.4,0.2c-0.1,0.1-0.1,0.2-0.1,0.4H49.5z M53.2,32.8h-0.4v-1.2c0-0.4-0.1-0.5-0.3-0.5c-0.2,0-0.3,0.1-0.4,0.2
			C52,31.5,52,31.7,52,31.9v1h-0.4v-1.2c0-0.4-0.1-0.5-0.3-0.5c-0.2,0-0.3,0.1-0.4,0.2c-0.1,0.1-0.1,0.3-0.1,0.5v1h-0.4v-1.9h0.3
			v0.3h0c0.1-0.2,0.3-0.3,0.6-0.3c0.3,0,0.5,0.1,0.6,0.4c0.1-0.1,0.2-0.2,0.3-0.3c0.1-0.1,0.2-0.1,0.3-0.1c0.5,0,0.7,0.2,0.7,0.7
			V32.8z M56.3,32.1c0,0.3-0.1,0.5-0.3,0.6c-0.2,0.1-0.4,0.2-0.7,0.2c-0.1,0-0.3,0-0.5-0.1l0-0.4c0.2,0.1,0.4,0.1,0.6,0.1
			c0.1,0,0.2,0,0.3-0.1c0.1-0.1,0.2-0.2,0.2-0.3c0-0.2-0.1-0.3-0.3-0.4c-0.2-0.1-0.4-0.2-0.6-0.3c-0.2-0.1-0.3-0.3-0.3-0.6
			c0-0.2,0.1-0.4,0.2-0.5c0.2-0.1,0.4-0.2,0.6-0.2c0.2,0,0.4,0,0.6,0.1l-0.1,0.4c-0.2-0.1-0.4-0.1-0.5-0.1c-0.3,0-0.5,0.1-0.5,0.4
			c0,0.1,0.1,0.3,0.3,0.4c0.3,0.2,0.5,0.3,0.6,0.3C56.2,31.6,56.3,31.8,56.3,32.1 M58.3,32.8H58v-0.3h0c-0.1,0.2-0.3,0.3-0.6,0.3
			c-0.2,0-0.4,0-0.5-0.1c-0.1-0.1-0.2-0.3-0.2-0.5c0-0.2,0.1-0.4,0.3-0.5c0.2-0.1,0.4-0.1,0.6-0.1c0.2,0,0.3,0,0.4,0
			c0-0.2,0-0.3-0.1-0.4c-0.1-0.1-0.2-0.1-0.4-0.1c-0.2,0-0.4,0.1-0.6,0.2l0-0.3c0.2-0.1,0.4-0.2,0.6-0.2c0.3,0,0.5,0.1,0.6,0.2
			c0.1,0.1,0.2,0.3,0.2,0.6v0.8C58.3,32.6,58.3,32.8,58.3,32.8 M58,32.1v-0.2c0,0-0.1,0-0.1,0c0,0-0.1,0-0.1,0
			c-0.5,0-0.7,0.1-0.7,0.4c0,0.1,0,0.2,0.1,0.2c0.1,0.1,0.2,0.1,0.2,0.1c0.2,0,0.3,0,0.4-0.1C57.9,32.4,58,32.2,58,32.1 M60.7,32.8
			h-0.3v-0.3h0c-0.1,0.1-0.1,0.2-0.3,0.3c-0.1,0.1-0.2,0.1-0.4,0.1c-0.5,0-0.7-0.3-0.7-0.8v-1.2h0.4v1c0,0.2,0,0.4,0.1,0.5
			c0.1,0.1,0.2,0.2,0.3,0.2c0.2,0,0.3-0.1,0.4-0.2c0.1-0.1,0.1-0.3,0.1-0.6v-0.9h0.4V32.8z M60.3,30.1l-0.5,0.5h-0.3l0.3-0.5H60.3z
			 M63,32.8h-0.3v-0.3h0c-0.1,0.2-0.4,0.3-0.7,0.3c-0.3,0-0.5-0.1-0.6-0.3c-0.1-0.2-0.2-0.4-0.2-0.7c0-0.3,0.1-0.5,0.2-0.7
			c0.1-0.2,0.4-0.3,0.6-0.3c0.3,0,0.5,0.1,0.6,0.3h0V30H63V32.8z M62.6,31.9c0-0.2,0-0.4-0.1-0.5c-0.1-0.2-0.3-0.2-0.4-0.2
			c-0.2,0-0.3,0.1-0.4,0.2c-0.1,0.1-0.1,0.3-0.1,0.5c0,0.2,0,0.3,0.1,0.5c0.1,0.2,0.2,0.3,0.4,0.3c0.2,0,0.3-0.1,0.4-0.2
			C62.6,32.2,62.6,32.1,62.6,31.9 M65.3,32h-1.4c0,0.2,0.1,0.3,0.2,0.5c0.1,0.1,0.3,0.2,0.4,0.2c0.1,0,0.2,0,0.4-0.1
			c0.1,0,0.2-0.1,0.2-0.1v0.4c-0.2,0.1-0.4,0.1-0.6,0.1c-0.3,0-0.6-0.1-0.8-0.3c-0.2-0.2-0.2-0.4-0.2-0.8c0-0.3,0.1-0.5,0.3-0.7
			c0.2-0.2,0.4-0.3,0.7-0.3C65,30.9,65.3,31.2,65.3,32 M64.9,31.7c0-0.2,0-0.3-0.1-0.4c-0.1-0.1-0.2-0.2-0.4-0.2
			c-0.2,0-0.3,0.1-0.4,0.2c-0.1,0.1-0.1,0.2-0.1,0.4H64.9z"/>
	</g>
</g>
<g>
</g>
<g>
</g>
<g>
</g>
<g>
</g>
<g>
</g>
<g>
</g>
<g>
</g>
<g>
</g>
<g>
</g>
<g>
</g>
<g>
</g>
<g>
</g>
<g>
</g>
<g>
</g>
<g>
</g>
</svg>
