<?xml version="1.0" encoding="utf-8"?>
<!-- Generator: Adobe Illustrator 24.1.1, SVG Export Plug-In . SVG Version: 6.00 Build 0)  -->
<svg version="1.1" id="Calque_1" xmlns="http://www.w3.org/2000/svg" xmlns:xlink="http://www.w3.org/1999/xlink" x="0px" y="0px"
	 viewBox="0 0 595.3 158.4" style="enable-background:new 0 0 595.3 158.4;" xml:space="preserve">
<style type="text/css">
	.st0{fill:#0B72B6;}
</style>
<g>
	<path class="st0" d="M263.2,38.4h-0.1l-6,32.6H249l-7.7-39.8h6.5l5.3,30.7h0.1l5.7-30.7h8.5l5.6,30.7h0.1l5.5-30.7h6.3L277.2,71
		h-8.3L263.2,38.4z"/>
	<path class="st0" d="M296.5,41.2c5.7,0,12.3,3.1,12.3,15.1c0,12.3-6.6,15.2-12.3,15.2c-5.7,0-12.3-2.8-12.3-15.2
		C284.2,44.3,290.8,41.2,296.5,41.2z M296.5,66.4c4.3,0,5.3-5.2,5.3-10.1c0-4.9-1-10.1-5.3-10.1c-4.3,0-5.4,5.2-5.4,10.1
		C291.2,61.2,292.2,66.4,296.5,66.4z"/>
	<path class="st0" d="M313,46.5c0-1.8-0.1-3.5-0.2-4.8h6.1c0.1,1.8,0.2,3.6,0.2,5.4h0.1c0.8-2.3,2.9-5.8,7.1-5.8
		c0.4,0,0.8,0.1,1.1,0.2v6.6c-0.6-0.2-1.2-0.3-1.9-0.3c-2.8,0-5.8,1.8-5.8,7.2V71H313V46.5z"/>
	<path class="st0" d="M331.7,28.2h6.7V71h-6.7V28.2z"/>
	<path class="st0" d="M366.5,28.2v37.7c0,2.1,0.1,3.9,0.2,5h-6.3c-0.1-0.9-0.2-2.6-0.2-4.6H360c-1.1,2.5-3.1,5-7.4,5
		c-6.9,0-9.8-7-9.8-15.1c0-9.6,3.6-15.2,9.7-15.2c4,0,6.2,2.4,7.2,4.7h0.1V28.2H366.5z M354.4,66.2c4,0,5.3-4.5,5.3-10
		c0-5.7-1.5-9.9-5.2-9.9c-3.7,0-5,3.8-5,9.7C349.5,62.8,350.5,66.2,354.4,66.2z"/>
	<path class="st0" d="M388.6,31.2h6.9v16.2h11.2V31.2h6.9V71h-6.9V53.4h-11.2V71h-6.9V31.2z"/>
	<path class="st0" d="M439.5,69.5c-1.4,0.6-4.3,1.9-8.4,1.9c-9,0-12.9-6.8-12.9-14.7c0-8.8,4.4-15.6,11.5-15.6
		c6,0,11.2,3.7,11.2,15.7v1.4h-16.2c0,5,1.9,8,7.1,8c4.1,0,6.1-1.3,7.3-2.3L439.5,69.5z M434.4,53.8c0-5.2-1.6-7.8-4.7-7.8
		c-3.5,0-5,3.9-5,7.8H434.4z"/>
	<path class="st0" d="M447,43.3c1.9-0.9,4.6-2.2,8.8-2.2c8.7,0,10.7,4.4,10.7,11.8v12.8c0,2.1,0.2,4,0.4,5.2h-6.1
		c-0.3-1.1-0.4-2.6-0.4-4h-0.1c-1.7,2.4-3.8,4.4-7.8,4.4c-4.3,0-8.4-3.1-8.4-8.6c0-8,6.2-10,14.7-10h1.4v-1.1c0-2.9-1.4-5.6-5.2-5.6
		c-3.4,0-6.3,1.7-7.7,2.8L447,43.3z M460.2,56.6h-0.6c-5.8,0-9.2,1.3-9.2,5.5c0,2.7,1.7,4.5,4.3,4.5c4,0,5.5-3.1,5.5-8.4V56.6z"/>
	<path class="st0" d="M473.1,28.2h6.7V71h-6.7V28.2z"/>
	<path class="st0" d="M488.3,35.6l6.7-2.2v8.2h5.6v5.2H495V62c0,3.1,1.1,4,3,4c1.2,0,2.1-0.3,2.5-0.6v5c-1,0.5-2.5,1-4.5,1
		c-5,0-7.8-2.4-7.8-8.5V46.8h-4.4v-5.2h4.4V35.6z"/>
	<path class="st0" d="M504.1,28.2h6.7v17.2h0.2c1.2-1.8,2.8-4.2,6.9-4.2c6.4,0,8.3,5,8.3,10.9V71h-6.7V53.4c0-4.5-1.1-6.4-3.9-6.4
		c-3.5,0-4.8,3.1-4.8,6.9V71h-6.7V28.2z"/>
</g>
<g>
	<path class="st0" d="M256.1,81.4c7.9,0,15.1,6.2,15.1,20.5c0,14.3-7.2,20.5-15.1,20.5c-7.9,0-15.1-6.2-15.1-20.5
		C241,87.6,248.2,81.4,256.1,81.4z M256.1,116.8c4.4,0,7.9-3.9,7.9-14.9c0-10.9-3.5-14.9-7.9-14.9c-4.4,0-7.9,3.9-7.9,14.9
		C248.2,112.8,251.7,116.8,256.1,116.8z"/>
	<path class="st0" d="M275.7,97.3c0-1.8-0.1-3.5-0.2-4.8h6.1c0.1,1.8,0.2,3.6,0.2,5.4h0.1c0.8-2.3,2.9-5.8,7.1-5.8
		c0.4,0,0.8,0.1,1.1,0.2v6.6c-0.6-0.2-1.2-0.3-1.9-0.3c-2.8,0-5.8,1.8-5.8,7.2v16.1h-6.7V97.3z"/>
	<path class="st0" d="M294.3,126.3c1.6,0.9,4.7,2.5,8.3,2.5c6.3,0,7.4-4.6,7.4-9.2v-2.8h-0.1c-1.1,2.3-3,5-7.4,5
		c-3.9,0-9.8-2.7-9.8-14.6c0-8.1,2.8-15.2,10.1-15.2c4.1,0,6,2.5,7.4,5h0.2c0-1.5,0.2-3,0.2-4.6h6.1c-0.1,1.5-0.2,3.1-0.2,4.6v21.7
		c0,9.2-2.7,15.7-12.9,15.7c-4.4,0-8-1.2-9.6-1.8L294.3,126.3z M304.8,116.6c4.2,0,5.9-3.2,5.9-9.9c0-6.2-2.2-9.5-5.4-9.4
		c-3.5,0.1-4.9,3.5-4.9,9.5C300.4,113.7,302.5,116.6,304.8,116.6z"/>
	<path class="st0" d="M323.8,94.1c1.9-0.9,4.6-2.2,8.8-2.2c8.7,0,10.7,4.4,10.7,11.8v12.8c0,2.1,0.2,4,0.4,5.2h-6.1
		c-0.3-1.1-0.4-2.6-0.4-4h-0.1c-1.7,2.4-3.8,4.4-7.8,4.4c-4.3,0-8.4-3.1-8.4-8.6c0-8,6.2-10,14.7-10h1.4v-1.1c0-2.9-1.4-5.6-5.2-5.6
		c-3.4,0-6.3,1.7-7.7,2.8L323.8,94.1z M337,107.4h-0.6c-5.8,0-9.2,1.3-9.2,5.5c0,2.7,1.7,4.5,4.3,4.5c4,0,5.5-3.1,5.5-8.4V107.4z"/>
	<path class="st0" d="M350.1,97.3c0-1.8-0.1-3.5-0.2-4.8h6.3c0.1,1.5,0.2,3,0.2,4.5h0.2h-0.1c1-1.8,2.9-5,7.4-5
		c6.3,0,8.2,5,8.2,10.9v18.9h-6.7v-17.6c0-4.5-1.1-6.4-3.9-6.4c-3.5,0-4.8,3.1-4.8,6.9v17.1h-6.7V97.3z"/>
	<path class="st0" d="M378.2,79.9h6.9v7h-6.9V79.9z M378.3,92.4h6.7v29.3h-6.7V92.4z"/>
	<path class="st0" d="M391.3,115.7l11.9-17.9h-11.6v-5.4H410v6l-11.7,17.9h12.1v5.4h-19V115.7z"/>
	<path class="st0" d="M416.8,94.1c1.9-0.9,4.6-2.2,8.8-2.2c8.7,0,10.7,4.4,10.7,11.8v12.8c0,2.1,0.2,4,0.4,5.2h-6.1
		c-0.3-1.1-0.4-2.6-0.4-4h-0.1c-1.7,2.4-3.8,4.4-7.8,4.4c-4.3,0-8.4-3.1-8.4-8.6c0-8,6.2-10,14.7-10h1.4v-1.1c0-2.9-1.4-5.6-5.2-5.6
		c-3.4,0-6.3,1.7-7.6,2.8L416.8,94.1z M430,107.4h-0.6c-5.8,0-9.2,1.3-9.2,5.5c0,2.7,1.7,4.5,4.3,4.5c4,0,5.5-3.1,5.5-8.4V107.4z"/>
	<path class="st0" d="M444,86.4l6.7-2.2v8.2h5.6v5.2h-5.6v15.2c0,3.1,1.1,4,3,4c1.2,0,2.1-0.3,2.6-0.6v5c-1,0.5-2.5,1-4.5,1
		c-5,0-7.8-2.4-7.8-8.5V97.6h-4.4v-5.2h4.4V86.4z"/>
	<path class="st0" d="M461,79.9h6.9v7H461V79.9z M461.8,92.4h6.7v29.3h-6.7V92.4z"/>
	<path class="st0" d="M486,92c5.7,0,12.3,3.1,12.3,15.1c0,12.3-6.6,15.2-12.3,15.2c-5.7,0-12.3-2.8-12.3-15.2
		C473.7,95.1,480.3,92,486,92z M486,117.2c4.3,0,5.3-5.2,5.3-10.1c0-4.9-1-10.1-5.3-10.1c-4.3,0-5.4,5.2-5.4,10.1
		C480.7,112,481.7,117.2,486,117.2z"/>
	<path class="st0" d="M504.2,97.3c0-1.8-0.1-3.5-0.2-4.8h6.3c0.1,1.5,0.2,3,0.2,4.5h0.2h-0.1c1-1.8,2.9-5,7.4-5
		c6.3,0,8.3,5,8.3,10.9v18.9h-6.7v-17.6c0-4.5-1.1-6.4-3.9-6.4c-3.5,0-4.8,3.1-4.8,6.9v17.1h-6.7V97.3z"/>
</g>
<g>
	<path class="st0" d="M160.7,41.5c-2.6-1.1-5.3-1.8-8.2-2.2c0,0.3,0,0.5,0,0.7c2.7,0.4,5.3,1.1,7.8,2.1
		C160.4,41.9,160.6,41.7,160.7,41.5z M153.7,58.6l-1,0l-0.3,0.5h-0.2l0,1.6l1-0.5L153.7,58.6z M157.1,59.2l-0.3,0.2l-0.1-0.2
		l-0.9,1.6l0.8-0.1l0-0.6l0.6-0.6l0.5-0.4l-0.3-0.4L157.1,59.2z M158.3,58.3h0.7l0.1-0.3l-0.6-0.1l-0.2-0.4l-0.8,0.1l0.4,0.5v0.6
		L158.3,58.3z M152.3,81.8l0.1,0.4l0,0.2c1.6-0.8,1.8-1.2,1.8-1.5c-0.1-0.6-1-1.3-2.3-1.9c0,0.5,0,0.9,0,1.3l0.3,0.3
		c-0.1,0-0.2,0.1-0.3,0.1c0,0.3,0,0.6,0,0.8c0.2-0.1,0.3-0.1,0.5-0.2L152.3,81.8z M152.9,80.2L152.9,80.2
		C152.9,80.2,152.9,80.2,152.9,80.2L152.9,80.2z M124,73.3l0.4,1.1l-0.3,0.4l0.1,0.6l-0.2,0.9l-0.3,0.2l0.5,1.4l0.2-0.1l-0.2-1.2
		l0.4-2.1l-0.3-1.1L124,73.3z M124.5,78.1l-0.2,0.2l-0.2,0.2l-0.4-0.8l-0.2,0.2l0.2,0.7l0.2,0.4l-0.2,0.3l0.4,0.5l0.3,0.6l0.2-0.1
		l0.1-0.9l-0.2-0.5L124.5,78.1z M151.5,103.1C151.5,103.1,151.5,103.1,151.5,103.1C151.5,103.1,151.5,103.1,151.5,103.1
		C151.5,103.1,151.5,103.1,151.5,103.1z M143.2,61l0.1,0.3c-0.7,0.3-1.3,0.7-1.8,1.2c0,0.8,0.3,1.6,0.9,2.4c0.3,0.3,0.5,0.6,0.9,0.9
		l1.1-0.5l-0.1-4.5l-0.4,0l0.1-0.5l0.2-0.4l0-0.5l-0.2,0.2l-0.5,0.7L143.2,61z M143.3,62.3l0-0.1c0,0,0,0,0.1,0L143.3,62.3z
		 M122.9,46.7c0-0.3,0.1-0.6,0.2-0.9l-0.4-0.4c-0.3,0.1-0.6,0.1-1,0.1L122.9,46.7z M140.1,74.9c-0.2-0.1-0.4-0.2-0.6-0.3l0.1,0.6
		L140.1,74.9z M139.4,74.6c-0.1-0.1-0.3-0.1-0.4-0.2l-0.1,1L139.4,74.6z M177.2,75.5l-1.4,0.5l0.3,0.5l1,0.1L177.2,75.5z
		 M197.3,50.4c-2.7-6.4-6.5-12.1-11.4-17c-4.9-4.9-10.6-8.8-17-11.4c-5-2.1-10.3-3.4-15.7-4c0,0.3-0.1,0.5-0.1,0.7
		c5.4,0.5,10.6,1.8,15.5,3.9c6.2,2.6,11.8,6.4,16.6,11.2l-6.1,6.1l0-0.4l-0.5,0.1l-0.6-0.3L177,39l1.3-0.2l-0.3-0.4h-0.7l0.2-0.6
		l-0.6-1.5l-1.6-2l-1.6-1l-0.9-0.5l-0.7,0.2v-0.4l-1.5-0.7l-0.6,0.6c1.1,1.9,1.7,3.8,1.8,5.6c0.1,1.3,0,2.6-0.2,3.8l0.5-0.3l1.6,2.9
		l-1.1,0.1l0.8,0.8l-1.9,1.9l-1-1.2l0.1-0.9c-0.3,0.6-0.6,1.2-0.9,1.8l0.1,0.2l1.2,0.1l0.1,0.3l-0.6,0.6c-0.3-0.3-0.7-0.6-1-1
		c-0.1,0.2-0.3,0.4-0.4,0.6c0.3,0.3,0.6,0.6,0.9,0.9l-6.9,6.9c-0.6-0.6-1.2-1.1-1.8-1.6c-0.3,0.1-0.5,0.2-0.8,0.3
		c0.7,0.5,1.4,1.1,2,1.8l-0.9,0.9l0,0l0.1-0.5l-0.7,0.2l-0.7-0.1v-0.6l-0.8,0.5l-0.8,0.8l0.4,0.2l0.8-0.5l0.8,0.3v0.1l0.6-0.1
		l-1.9,1.9l-2.3,0.5l-0.6,0.8l-0.4,0.3l-0.1,0.4l0.3,0l0.3,0.3l-0.1,0.5l-0.2,0.2l-0.6-0.1l-1.3,0.2c-0.3-0.2-0.5-0.4-0.8-0.6
		l-0.1-0.1l-0.4-0.2c-0.5-0.3-0.9-0.5-1.4-0.7l0,2.8c0,0.9,0,1.7,0,2.5l0.3-0.2l0.3,0.3L152,67c0,0.4,0,0.7,0,1.1l1.1-1.1l-0.2,0.8
		l0.3,0.1l0.2,1.2l0.6,0.6l-1.5-0.8l-0.1,0.6c1.9,0.8,4.6,2,6.7,3.6c3.2,2.4,4.9,5.8,4.5,9c-0.3,2.3-1.7,4.3-3.9,5.8l0.1,0.2
		l-0.4,0.5l-0.8,0.1l-0.3,0.5l-1.5,0.6l-1.4,0l-0.4,0.6l0.2,0.4l0,0c-0.2,0.1-0.4,0.1-0.6,0.2l-1,0.1l-0.2-0.4l-1.1,0.1l0,0
		c-0.2,0.1-0.4,0.1-0.6,0.2l0,0.8c0,0.2,0,2-0.1,4.5c3.5,1.8,7.9,4.7,7.7,12.3c0,0-0.1,1.4-0.5,2.4l0,0l1.5,0.4
		c-3,0.9-6.1,1.5-9.2,1.7c0,0.3,0,0.5,0,0.7c3.3-0.2,6.6-0.8,9.8-1.8l0.7,0.2l0.7,0.6l0.8-0.3l1.3-0.3l0.5-0.5l1.5-0.6l1.5-1
		l1.7-1.7l0.1-0.2c3-1.8,5.8-3.9,8.3-6.3l6.9,6.9c-4.7,4.6-10.2,8.3-16.3,10.9c-6.5,2.7-13.4,4.1-20.5,4.1c-7.1,0-14-1.4-20.5-4.1
		c-6.1-2.6-11.6-6.2-16.3-10.9l6.9-6.9c3.8,3.7,8.3,6.7,13.2,8.8c4.4,1.9,9.1,3,13.9,3.3c0-0.2,0-0.5,0-0.7
		c-10-0.7-19.3-4.8-26.5-11.8l1.5-1.5l1.3,1.1l2.6-0.2l1.1-1.1l1.4,0.1l1.3,0.2l0.7-0.5l-0.1-0.6l-0.7-0.9l-0.9-1.8l-0.9-0.4
		l-0.6-1.1l0.3-0.3c5.3,5.1,12,8.2,19.2,8.9c0-0.3,0-0.5,0-0.8c-7-0.7-13.6-3.7-18.7-8.7l6.9-6.9c1.8,1.7,4,3.2,6.3,4.2
		c0.1-0.2,0.1-0.5,0.2-0.7c-2.2-1-4.2-2.3-6-4l7-7c1.1,1,2.4,1.8,3.8,2.2l0-0.8c-1.2-0.5-2.3-1.1-3.3-2l0.5-0.5l0.2,0l0.4-0.4
		l0.9,0.1l0.5-0.3l0.6-0.1l0-1.2l-2.1-0.7l-0.1,0.1l-0.9,0.2l-0.6,0.9l-0.3,1.1l0,0.1c-0.9-1-1.6-2.1-2-3.3l0.1-0.3
		c-0.6-0.3-1.2-0.6-1.8-0.9l-0.5,0.2l-0.5-0.3l-0.8,0.3l-0.4-0.4l0.5-0.5l0.6-0.1c-2.2-1.6-3.5-3.7-4.2-6.5
		c-0.4-1.7-0.5-3.3-0.4-4.8l-1,0.4l-0.6,0.1c0.6-1.3,1.4-2.5,2.3-3.6c0.3-0.9,0.7-1.7,1.2-2.5c0,0,0,0-0.1,0.1l-6.9-6.9
		c4.8-4.8,11-7.8,17.6-8.8c0-0.2,0-0.5,0-0.7c-6.8,1-13.1,4.1-18.1,9l-1.7-1.7c0,0,0,0,0,0c-0.1,0.3-0.2,0.5-0.3,0.7l1.5,1.5
		c-5.8,6-9,13.9-9,22.2H106c0-11,4.3-21.4,11.9-29.3l2.7,2.7c0.2,0,0.4,0,0.6,0c0.1,0,0.3,0,0.4-0.1l-3.2-3.2c2.2-2.1,4.5-4,7-5.6
		c0.1-0.4,0.3-0.8,0.6-1.2c-2.9,1.8-5.7,3.9-8.1,6.3l-6.9-6.9c4.8-4.8,10.4-8.5,16.6-11.2c4.9-2.1,10.1-3.4,15.4-3.9L143,18
		c-5.4,0.5-10.6,1.8-15.6,3.9c-6.4,2.7-12.1,6.5-17,11.4c-4.9,4.9-8.8,10.6-11.4,17c-2.8,6.6-4.2,13.6-4.2,20.8
		c0,7.2,1.4,14.2,4.2,20.8c2.7,6.4,6.5,12.1,11.4,17c4.9,4.9,10.6,8.8,17,11.4c6.6,2.8,13.6,4.2,20.8,4.2c7.2,0,14.2-1.4,20.8-4.2
		c6.4-2.7,12.1-6.5,17-11.4c4.9-4.9,8.8-10.6,11.4-17c2.8-6.6,4.2-13.6,4.2-20.8C201.5,63.9,200.1,56.9,197.3,50.4z M118.2,100.8
		c-0.7-0.7-1.4-1.5-2.1-2.3l0.6,0.3l0.6-0.4l1.8,1.1l0.3,0.1L118.2,100.8z M119.4,77.3l-1.1,0.3l-0.5-0.5l-0.3-0.2l-0.3-0.4
		c-0.3-1.5-0.4-3.1-0.4-4.7h4.2l-0.1,0.2l-0.6,1l-0.4,0.1l-0.7,2.2l0.6,1L119.4,77.3z M122.5,91.3l-0.1-0.3l0.5,0.1
		c0.1,0.1,0.2,0.3,0.3,0.4L122.5,91.3z M125.1,93.9l-0.4-0.8c0.2,0.2,0.4,0.4,0.6,0.6L125.1,93.9z M125.8,93.2
		c-0.6-0.6-1.2-1.3-1.8-1.9l0,0l0.3-1.1l-0.1-1.3l-1-1.8v-1.8l-0.4-1.2l0.3-0.5l-1.1-1.9l0.1-0.7l-0.6-1.1l-0.6-0.2l1-0.2l-0.3-0.4
		l-0.6-1.4l-1.1-0.3l0.3-0.9l-0.4-1.4l0.5-1.2l1.3-0.1l0.4-0.6l-0.1-1.5h0.8l0.5,0.2l0.6,0.3l0-0.5h2.6c0,0.7,0.1,1.3,0.2,2l0,0
		l-0.6-0.1l-0.9,1l0.7,0.2l0.8-0.5c0.7,4.6,2.8,8.7,6,11.9L125.8,93.2z M122.9,70.3l0.3-1.8l1.4-0.7l1.7,0.4l0.4,0.6
		c-0.1,0.7-0.1,1.5-0.1,2.2h-2.6l0-0.2L122.9,70.3z M130.3,75.6l1,0.4l0.7,0.9l0.3-0.2l1.2,0.7l0.4,0.5l-0.8-0.3L133,78l0.7,0.4
		l0.7,0.6v-0.4l-0.2-0.6l0.3-0.5l0.4-0.2l-0.7-0.9l0.9,0.4l0.5,0.7l0.4,1l0.7,0.2l-1.6,0.3l0.6,1.3l0.5,0.1l0.1-0.5l-0.2-0.6
		l0.7-0.1l0.5-0.9l0.2-1.3l0.4-0.2l0.3-0.5c0.5,1,1.2,2,1.9,2.8l-7,7c-3.1-3.1-5.1-7.2-5.8-11.7l0.4,0l1.3,1.3L130.3,75.6z
		 M129,62.8c0.1-0.1,0.1-0.3,0.2-0.4l0.2,0l-0.2,0.4L129,62.8z M125.5,49.3l6.9,6.9c-1.6,1.7-2.9,3.6-3.9,5.8l-0.4-0.1l0.3-0.4
		l-0.8,0.7l-0.6,0.4l-0.2-0.3l-1.1,0.4l0.1,0.4l0.6-0.4l1-0.1l0.9-0.2c0,0.1-0.1,0.2-0.1,0.3l-1.2,0.8l-0.3-0.3l-1.4,1l-1.2-0.2
		l-0.8,1l-1.2,2.7l0.2,0.7l-1,1.3l-0.2,1l0,0.1h-4.4C116.7,62.9,119.8,55.2,125.5,49.3z M116,71.8c0,1.5,0.2,3,0.4,4.5l-0.5-0.3v0.7
		l-0.4-0.2l-0.3-0.5l-0.7,0.3l-0.1,0.6l-1.7,2.6l-0.5,0.1l-0.2,4.4l-1.2,0.6l-0.4-0.2l-0.6,0.3l-1.4-0.1l-0.1-0.1
		c-1.4-4.1-2.1-8.3-2.2-12.7H116z M99.6,50.7c2.6-6.1,6.2-11.6,10.9-16.3l6.9,6.9c-3.7,3.8-6.7,8.3-8.8,13.2
		c-2.2,5.3-3.4,10.8-3.4,16.6h-9.8C95.5,64,96.9,57.1,99.6,50.7z M99.6,91.6c-2.7-6.3-4-13-4.1-19.8h9.8c0.1,4.3,0.8,8.6,2.1,12.6
		l-0.7,0.5l-1.9-1.1l-0.4,0.4l-0.5-0.3l-0.3,0.3l0.2,0.7l-1.1-0.1l-0.6-0.4L102,84l-0.2-0.5h-0.3l0.1,0.5l-0.1,0.3l-0.3-0.1
		l-0.8,0.4L101,85l-0.7-0.2l-0.3,0.4l0.4,0.2h-0.5v0.8l0.2,0.4l0.3,0.2h-0.4l0.2,0.7l0.4,0.2l0.2,0.3l0.3,0.5l0.2,0.4l-1-0.6l0.4,1
		l-0.6-1.4v0.9l0.6,1.4l0.5,1.2l1.5,2.9l-0.2-0.6l-1.2-2.8v-1.1l0.6-1l1.9,2.3l0.3-0.2l-0.3-1.4l0.4,0.3l0.6,1l1,0.3l0.4,0.6
		l0.4,0.1l-0.3-0.8l0.3-0.4l0.3,1.1l0.7,1.1l0.6-0.1l1.7,2.9l1,0.3l0.3-1.2l0.4,0.5l1.4,2.1l1.8,0.5c1,1.3,2.1,2.5,3.2,3.7l-6.9,6.9
		C106,103.4,102.3,97.8,99.6,91.6z M185.7,34.3c4.6,4.7,8.3,10.2,10.9,16.3c2.7,6.5,4.1,13.3,4.1,20.4H191c0-5.8-1.1-11.3-3.4-16.6
		c-0.2-0.5-0.4-1-0.7-1.5l0.3-0.5l0.6,0.4l0.2-0.6l-3.3-5.3l-0.7-0.2l-4.8-5.6l0-0.1L185.7,34.3z M171.3,48.8l0.9,0.9l0.4-1.4
		l-0.7-0.1v-0.1l2.2-2.2l1.4,1.5l1.4-0.1l0.5,0.8l0.2,1.2l2.7,1.6l0.8-0.1l1.8,2.1l0.4,1.1l1.3,1.3l1.5-0.1l0.6-1.4
		c2.4,5.3,3.7,11.2,3.7,17.2h-9.9c0-1.9-0.2-3.7-0.5-5.6l0.5-0.7h0.2l0.5-2.3l-0.4-0.1l0.1-0.4l-1,0l-0.2-0.2l-0.2,0.4l0.6,0.5
		l-0.4,0.1l-0.2,0.4c-0.2-1-0.5-1.9-0.8-2.8l0.6-0.8l-0.1-1l-0.5-0.1l-0.2-1.1l0.3-0.2l-0.5-0.7l-0.9,0.1l-0.3-0.2
		c-0.2-0.4-0.4-0.8-0.6-1.2h1l-0.2-0.5l0.6-0.2V54l-0.4,0l-0.6,0.5l-0.2-0.2l0.5-0.8l-0.4-0.3l-0.5,0.8l-0.7-0.3
		c-0.5-0.8-1.1-1.6-1.7-2.3l0-0.2l-0.1,0.1C172.7,50.3,172,49.6,171.3,48.8L171.3,48.8z M173.7,68.1l1.4-0.9l1.7-0.1l0.4-0.9
		l0.5-0.3l0.7-1.3l0.2-0.7c0.1,0.2,0.1,0.5,0.2,0.7l-0.3,0.8l0.1,0.2l-0.4,0.8l0,0.4l-0.8,1.1l0.1,0.7l0.3,0l0.8-1.2v-0.7l0.4-0.1
		l0-0.1c0.2,1.5,0.3,3.1,0.4,4.6h-7.5l-0.2-0.1l0-0.6l0.6-0.2l0.5-0.7l1.2-0.1v-0.5L173.7,68.1z M175.7,54.4l0,0.1
		c0-0.1-0.1-0.1-0.1-0.2L175.7,54.4z M170.8,49.3c0.7,0.8,1.4,1.6,2.1,2.4l-0.4,0.2L172,52l0.7,0.2L173,52c0.3,0.4,0.6,0.8,0.9,1.2
		h-0.3v0.2l0.3,0.1l1,1.6l0.3,0.1c0.1,0.2,0.2,0.4,0.4,0.6v0.7l-0.7,0.7l-0.2-0.5l-0.6-0.1l0.2,0.6l-0.4,0.4l1.1,0.4l0.4,0.6
		l0.9,0.2l0.1,0.4l0.8,0.2l0.1,1.2l0.5-0.1c0.3,0.8,0.5,1.6,0.7,2.4l0,0l-0.5,0.8l-0.7,0.3l-0.5,1.4l-1.3,0.7l-0.4-0.8l0.4-1.9
		l0.6-0.4l-2-1.5l-1,0.5l-0.9,1.9l-1-0.5l-0.3-0.8l0.5-0.2l0.2,0.3l0.4-0.1l-0.1-0.6l-0.6-0.2l0,0.4h-0.4l-0.5-0.7l-1.1-1.1
		l-1.3-0.9l-1.2-0.1l-0.1,0.2c-0.8-1.3-1.7-2.5-2.8-3.6L170.8,49.3z M162.7,57.3l0.6-0.6c0.2,0.2,0.4,0.4,0.6,0.7l-0.6,0.5l-0.5,0
		l-0.2-0.2l0.4-0.3L162.7,57.3z M162.8,62l0.8-0.3l-0.9-0.6l0.5-0.6l-0.1-0.3l0.9-0.4l-0.8-1l-1,0.9l-0.1,0.6l-0.6-0.3l-0.7,0.1
		l-0.2-0.4l0,0l1.6-1.6l0.1,0.2l1.4,0l0.5-0.6c0.7,0.8,1.3,1.6,1.8,2.5l0,0l-0.7,1.5l-1.1-0.6l-0.3,0l0.3,0.6l0.3,0.2l-0.3,0.8
		l-0.1-0.4L162.8,62z M169,89.9l-1.6,1.3l-0.2,0.2l-0.1-0.2h-0.8l-1.1,0.2L164,91h-0.5l-0.8-0.6l-0.5,0.1l-0.5-0.4l-0.8-0.1
		l-0.4-0.5l-0.3-0.1c0,0,0,0,0.1,0l0.5,0.1V89l1.1,0.2l0.4,0.2l1.2,0.2l0.1,0.3h1l1.3,0.4l0.4,0.6l0.8,0l0.6-0.6l0.5-1l0.7-1.9
		l-0.1-0.3l0.3-0.3l0.3-1.2l-0.2-0.5l0.2-0.4l-0.3-0.4l-0.1-1.2l-0.8,0.2l-0.5,0.7l-0.7,0l0.1,0.9l-0.6,0.7l-0.5-0.2l-0.4,0.4
		l-1.1,0.1l0,0c0.2-0.3,0.5-0.6,0.7-0.8h0.5l0.6-0.1l0.5-0.6l0.1-0.5l0.5,0l1-1.5l0.8-1.8l2.2-1l0-0.6l-0.3-0.3l0.1-0.2l0.7,0.3
		l1.5,0.3l1.2-0.5l1.9-0.4l-0.5-1.4l-0.8-0.8l-1,0l-1.3-3.2l-0.2,0.1l-0.5-0.4l0.4-0.2l0-0.1h7.2c-0.2,8.1-3.4,15.7-9.1,21.5
		l-0.2-0.2l0.1-0.2l0.2-1.2l-0.2-1.9l-0.4-1.1l-0.3,0.3l-0.5,0.8V89.9z M170.2,107L170.2,107l0.4-0.6l-0.3-0.9l1.3-1.1l-0.1-0.7
		l-0.9-0.5l0.9-1.8l1.1-1.8l-1.3-1.6l-0.4,0.1l-0.6-0.1l-0.5-1.2l-0.2,0.1l0.3-1.1l0.2-0.9c0.2-0.2,0.4-0.4,0.6-0.6l4.3,4.3l0,0l0,0
		l2.7,2.7C175.2,103.5,172.8,105.4,170.2,107z M177.1,99.9l0.1-0.4l0.5-0.4l-0.4-2.2l0.1-0.6l-0.5-0.9l-0.3-0.3l0.3,0l-0.4-0.5
		l-0.9,0v0.7l-0.3,0.3l0.2,0.6l-0.4,1.1l-0.3,0.2l0.1,0.2l-3.8-3.8c5.9-5.9,9.1-13.7,9.3-22h9.9c-0.2,10.9-4.5,21.2-12.2,29
		L177.1,99.9z M196.6,91.6c-2.6,6.2-6.4,11.8-11.2,16.6l-6.9-6.9c3.9-3.9,6.9-8.5,9.1-13.5c2.1-5.1,3.3-10.5,3.4-16h9.8
		C200.7,78.7,199.3,85.3,196.6,91.6z M156.2,108.8L156.2,108.8C156.3,108.8,156.3,108.8,156.2,108.8L156.2,108.8z M172.4,31.5
		l0.6,0.4l1.3,0.5l0.5,0.8h0.4l-0.1-0.9l-0.4-0.3l0.1-0.5l-0.8-0.4l-0.3,0.3l-0.4-0.2l0.2-0.5L172.4,31.5z M105.1,96.5l-0.1-0.5
		l-0.5-0.6l-0.3,0.1l0.6,0.7l-0.1,0.2l0.5,0.5l0.3,0.7l0.3-0.1l-0.3-0.6L105.1,96.5z M171,44.9c0,0.1-0.1,0.2-0.1,0.3l0.4,0.3
		l0.4-0.1L171,44.9z M179.5,55.7l0.3,0.1l-0.7-1.5l-0.4-0.1l0.4,0.6L179.5,55.7z M177.3,52.2l0.8,1.2l0.5,0.2l-0.8-1.4L177.3,52.2z
		 M180.2,59.3l0.4,0.8l-0.1,0.3l0.4,1.3l0.3,0.1v-1.4l-0.4-0.5l-0.1-1.5l-0.7-1.8l-0.1,0.3l0.2,1L180.2,59.3z M168.6,59.2l0.2-0.5
		l-1.1,0l-0.5,0.3l0.5,0.2L168.6,59.2z M176.8,50.8l0.5,0.5l0.2,0l0.4,0.2l-0.1-0.3l-1-0.7l-0.6-0.6l0.3,0.9H176.8z M171.9,55.3
		l0.6,0.4l0.7-0.1l-0.5-0.1l-0.1-0.6v-0.4l-0.3-0.5l-0.4,0.1l-0.2-0.1l-0.6,0.5l0.9,0.5L171.9,55.3z M170.6,58l0.2,0.1l0.3-0.4
		l0.4-0.8l-0.2,0l-0.4,0.2l-0.2-1.1l-0.2,0.2l0.2,0.7l-0.2,0.5l-0.3-0.1l-0.4,0.3l0,0.7L170.6,58z M170.8,55.1v-0.6l-0.3,0.4
		l0.1,0.5L170.8,55.1z"/>
	<g>
		<g>
			<path class="st0" d="M130.9,146l3.9,0.4c0,0,5-11,17.6-11.5c8.1-0.3,15.1,3.7,23.7,4.3c10.3,0.7,17.4-1.4,23.3-7.1
				c-6.2,3.4-13.6,2-22.1,0c-5.5-1.3-11.2-1.8-15.4-1.8C142.2,130.6,130.9,146,130.9,146z"/>
			<path class="st0" d="M189.9,109.7c-1.8,1.8-4.3,4.2-6.7,9.3c-2.3,5-2.3,7-4.6,10.6c5.1-1.9,8.9,1.8,21.8-3
				c6-2.2,10.2-7.8,12.2-12.7c-4.6,4.1-8.3,6.2-13.8,7.1c-5.4,0.8-8.8,1.1-13.3,3.8c2.8-3,3.9-4.7,5.4-8.6c1.6-4.3,1.3-7.9,3.2-11.2
				C192.7,106.6,191.7,107.9,189.9,109.7z"/>
			<path class="st0" d="M196.3,103.4c-1.3,7-0.9,12.8-4.5,17.3c4.8-4,9.4-3.9,15.8-6.8c7.6-3.7,11.6-10.3,13.8-19.8
				c-1.7,4.2-6,8.2-10.8,11.2c-4.1,2.6-8.5,3.8-11.5,7.6c1.8-2.1,2.2-3.1,2.6-5.5c1.2-6.5-0.8-10.1,0.2-16.9
				C200.8,93.2,197.2,98.9,196.3,103.4z"/>
			<path class="st0" d="M203.6,82.9c-0.5,10.9,4,13.2,0.8,23.3c2.8-4.1,6.2-5.3,10.5-9.1c5.4-4.8,9.8-12,9.4-21.7
				c-1,2.7-4.2,7.9-7.8,11.6c-3.5,3.7-6.5,8.1-8,11.2c3.5-12.1-2.8-16.7-3.5-23.9C204.8,77,203.8,81,203.6,82.9z"/>
			<path class="st0" d="M205.7,70.4c-1-3.6-0.5-5.7-1.4-9.6c1.5,3.6,9.9,9.9,9,22c0.5-2.2,2.2-9,4.7-13.7c1.9-3.7,3.9-7.4,3.4-12.9
				c2.2,7.2,2.1,11.4,1.1,15c-1,3.6-3.4,6.4-5.5,9.3c-1.4,1.9-4.3,5.6-5.6,9C211.6,82,206.9,75.1,205.7,70.4z"/>
			<path class="st0" d="M203,54.2c-1.6-3-2.2-5.5-4.3-9.4c1.3,1.7,2.4,2.5,5.5,5.2c4.4,3.7,7.7,7.8,9.4,14.8
				c0.1-4.3,0.7-6.9,1.5-11.7c0.8-4.3,0.6-9.3-1.4-14.7c3.9,4.7,7.2,13.8,5.3,20c-1.5,5.9-4,8.8-4.8,13
				C211.7,63.1,205.2,58.4,203,54.2z"/>
			<path class="st0" d="M205.1,46.6c-1.9-1.6-6.8-4.6-9.1-7.3c-2.4-2.8-3.6-5.4-5.2-7.9c3.5,3.2,5.4,4.2,8.9,6.3
				c3.2,1.8,7.6,4.3,9.3,8.2c-1.1-2.9-1.6-6.8-1.9-10.1c-0.5-4.9-2.5-7.8-4-9.6c4.8,3.8,7.6,7,8.9,13.9c1.3,6.9-0.2,12.1,0.3,15.8
				C209.8,51,207,48.1,205.1,46.6z"/>
			<path class="st0" d="M205.9,39.4c-2.1-6.3-4.3-10.1-8.6-13.8c-5.6-4.7-11.6-7-14-8.1c4.6,3.3,4.4,6.2,10.5,11.9
				C198.6,34,202,34.4,205.9,39.4z"/>
		</g>
		<path class="st0" d="M165.4,146l-3.9,0.4c0,0-5-11-17.6-11.5c-8.1-0.3-15.1,3.7-23.7,4.3c-10.3,0.7-17.4-1.4-23.3-7.1
			c6.2,3.4,13.6,2,22.1,0c5.5-1.3,11.2-1.8,15.4-1.8C154,130.6,165.4,146,165.4,146z"/>
		<path class="st0" d="M106.4,109.7c1.8,1.8,4.3,4.2,6.7,9.3c2.3,5,2.3,7,4.6,10.6c-5.1-1.9-8.9,1.8-21.8-3
			c-6-2.2-10.2-7.8-12.2-12.7c4.6,4.1,8.3,6.2,13.8,7.1c5.4,0.8,8.8,1.1,13.3,3.8c-2.8-3-3.9-4.7-5.4-8.6c-1.6-4.3-1.3-7.9-3.2-11.2
			C103.5,106.6,104.6,107.9,106.4,109.7z"/>
		<path class="st0" d="M99.9,103.4c1.3,7,0.9,12.8,4.5,17.3c-4.8-4-9.4-3.9-15.8-6.8C81,110.1,77,103.6,74.9,94
			c1.7,4.2,6,8.2,10.8,11.2c4.1,2.6,8.5,3.8,11.5,7.6c-1.8-2.1-2.2-3.1-2.6-5.5c-1.2-6.5,0.8-10.1-0.2-16.9
			C95.5,93.2,99.1,98.9,99.9,103.4z"/>
		<path class="st0" d="M92.7,82.9c0.5,10.9-4,13.2-0.8,23.3c-2.8-4.1-6.2-5.3-10.5-9.1c-5.4-4.8-9.8-12-9.4-21.7
			c1,2.7,4.2,7.9,7.8,11.6c3.5,3.7,6.5,8.1,8,11.2c-3.5-12.1,2.8-16.7,3.5-23.9C91.5,77,92.5,81,92.7,82.9z"/>
		<path class="st0" d="M90.6,70.4c1-3.6,0.5-5.7,1.4-9.6c-1.5,3.6-9.9,9.9-9,22c-0.5-2.2-2.2-9-4.7-13.7c-1.9-3.7-3.9-7.4-3.4-12.9
			c-2.2,7.2-2.1,11.4-1.1,15c1,3.6,3.4,6.4,5.5,9.3c1.4,1.9,4.3,5.6,5.6,9C84.7,82,89.3,75.1,90.6,70.4z"/>
		<path class="st0" d="M92.5,55.4c2-3,2.9-6.7,5-10.5c-1.3,1.7-2.4,2.5-5.5,5.2c-4.4,3.7-7.7,7.8-9.4,14.8
			c-0.1-4.3-0.7-6.9-1.5-11.7c-0.8-4.3-0.6-9.3,1.4-14.7c-3.9,4.7-7.2,13.8-5.3,20c1.5,5.9,4,8.8,4.8,13
			C84.5,63.1,89.9,59.3,92.5,55.4z"/>
		<path class="st0" d="M91.2,46.6c1.9-1.6,6.8-4.6,9.1-7.3c2.4-2.8,3.6-5.4,5.2-7.9c-3.5,3.2-5.4,4.2-8.9,6.3
			c-3.2,1.8-7.6,4.3-9.3,8.2c1.1-2.9,1.6-6.8,1.9-10.1c0.5-4.9,2.5-7.8,4-9.6c-4.8,3.8-7.6,7-8.9,13.9C83,47.1,84.4,52.3,83.9,56
			C86.5,51,89.3,48.1,91.2,46.6z"/>
		<path class="st0" d="M90.3,39.4c2.1-6.3,4.3-10.1,8.6-13.8c5.6-4.7,11.6-7,14-8.1c-4.6,3.3-4.4,6.2-10.5,11.9
			C97.6,34,94.3,34.4,90.3,39.4z"/>
	</g>
</g>
<g>
	<g>
		<path class="st0" d="M151.6,98c0,1.1-0.1,2.2-0.1,3.4c2.7,1.3,5.1,3.2,6.3,7.1C158,102.2,154.8,99.7,151.6,98z M138.4,35.6
			c1.3-1.9,3.1-3.1,5-3.8c0-2.1-0.1-4.2-0.1-6c-3.5,0.8-5.1,2-5.8,2.3c-2,0.6-4.6,0.5-7.4,3.6c-0.5,0.6-1.7,2.1-2.6,3.4
			c-0.9,1.2-0.9,3.2-1.5,4.3c-0.9,1.5-0.7,2.4-0.7,2.4l0.1,0.2c-0.1,0.4-0.4,0.9-0.9,1.6c-0.9,1.1-2.2,1.6-3.7,1.4
			c1.3,0.6,3.1-0.3,3.1-0.3s-0.4,1.1-0.8,2.7c1.2-2.8,2.4-4.1,3-4.7c0.6,0.2,1.9,0.2,4.4-1.3C133.2,39.7,137.3,37.2,138.4,35.6z
			 M133.4,34.3l-2.2,2.3l-1.1-0.2l0.2-1l2-1.9l1.6-0.1L133.4,34.3z M170.4,38.2c-0.3-5.2-5.4-12.2-17.5-13.1c0,1.7-0.1,3.7-0.1,5.7
			c0.8,0.1,1.4,0.2,1.9,0.3c5.8,1.4,8.3,4.6,8.3,7.9c0,3.2-2.6,7-8.6,8.8c-0.6,0.2-1.2,0.3-2,0.5l0,0l-1.1,0.3
			c-1,0.2-2.3,0.5-3.1,0.7c-0.9,0.2-1.9,0.4-2.5,0.6l-1.8,0.4l0,0c-1.3,0.4-2.5,0.8-3.4,1.2c-6.4,3-8.8,8.3-7.4,14.2
			c0.9,3.5,2.9,6,8.2,7.9c1.1,0.4,2.2,0.7,3.3,1.1l-0.1-6.7c-1.4-0.6-2.5-1.2-3.2-2.2c-2.1-2.7-1.7-6.4,3.1-8.2l0,0l0.2-0.1
			c0.1,0,0.1-0.1,0.2-0.1c2.3-0.8,4.7-1.3,7.1-1.9l0.5-0.1v0c3.4-0.8,6.7-1.6,9.4-3C166.6,49.8,170.8,45.7,170.4,38.2z M158.3,74.2
			c-2-1.5-4.4-2.6-6.3-3.3c0,2.7-0.1,4.8-0.1,6.4c2.2,1,3.8,2.1,3.9,3.5c0.1,1.4-1.5,2.5-4,3.6v0l-0.4,0.2c-0.6,0.2-1.3,0.5-2,0.7
			c-0.5,0.2-1.2,0.4-2.1,0.7c-0.8,0.3-1.6,0.6-2,0.8c-4.3,2.1-4.6,4.8-4.3,7.3c0.2,2.1,1.9,3.5,3.9,4.5c0-2.4-0.1-4.1,0-4.3
			c0.1-1.1,0.7-1.9,1.6-2.6c0.7-0.6,1.9-1.1,3.4-1.7c2-0.8,3.8-1.3,6.8-2.4C163.8,84.9,163.8,78.3,158.3,74.2z M145.3,48.3
			c1.7-0.5,3.9-0.7,5.5-1.3c0-2.1,0.6-26.7,0.7-28c0.2-3.6,3.7-13.5-3.4-13.5c-7,0-3.9,10.4-3.3,13.7
			C145,20.6,145.3,46.2,145.3,48.3z M150.3,83.3c0-0.2,0.3-25.1,0.4-25.9c-0.9,0.1-4.1,1-4.9,1.3c0,0.6,0.4,26.1,0.4,26.1
			s0.9-0.3,1.9-0.6C149,83.8,149.8,83.5,150.3,83.3z M146.4,94.4c-0.1,0.8,0.5,21.6,0.6,23.7c0.4,5.2,2,5.3,2.4,0.3
			c0.1-1.5,0.8-26,0.8-26.8C148,92.3,146.5,93.2,146.4,94.4z"/>
	</g>
</g>
<g>
</g>
<g>
</g>
<g>
</g>
<g>
</g>
<g>
</g>
<g>
</g>
</svg>
