<?xml version="1.0" encoding="utf-8"?>
<!-- Generator: Adobe Illustrator 23.1.1, SVG Export Plug-In . SVG Version: 6.00 Build 0)  -->
<svg version="1.1" id="OBJECTS" xmlns="http://www.w3.org/2000/svg" xmlns:xlink="http://www.w3.org/1999/xlink" x="0px" y="0px"
	 viewBox="0 0 295.8 263.3" style="enable-background:new 0 0 295.8 263.3;" xml:space="preserve">
<style type="text/css">
	.st0{fill:#F0F5F5;}
	.st1{fill:#6CCBD8;}
	.st2{fill:#3F7593;}
	.st3{fill:#17EFFF;}
	.st4{fill:#49CDDA;}
	.st5{fill:#2E7596;}
	.st6{enable-background:new    ;}
	.st7{fill:none;stroke:#49CDDA;stroke-width:3;stroke-miterlimit:10;}
	.st8{fill:#FFFFFF;}
</style>
<g>
	<path class="st0" d="M274,154c0,59.2-55.8,106.3-124.7,105.2C80.4,258,25.2,206,25.9,142.9S82.6,32.8,150.7,37.8S274,94.8,274,154z
		"/>
</g>
<path class="st1" d="M176.4,174.5h-55c-6.7,0-12.2-5.5-12.2-12.2V136c0-6.7,5.5-12.2,12.2-12.2h55c6.7,0,12.2,5.5,12.2,12.2v26.3
	C188.6,169,183.1,174.5,176.4,174.5"/>
<path class="st2" d="M176.4,103.7h-55c-6.7,0-12.2-5.5-12.2-12.2V65.2c0-6.7,5.5-12.2,12.2-12.2h55c6.7,0,12.2,5.5,12.2,12.2v26.3
	C188.6,98.3,183.1,103.7,176.4,103.7"/>
<path class="st2" d="M176.4,245.3h-55c-6.7,0-12.2-5.5-12.2-12.2v-26.3c0-6.7,5.5-12.2,12.2-12.2h55c6.7,0,12.2,5.5,12.2,12.2v26.3
	C188.6,239.8,183.1,245.3,176.4,245.3"/>
<path class="st2" d="M74.5,136h-55c-6.7,0-12.2-5.5-12.2-12.2V97.5c0-6.7,5.5-12.2,12.2-12.2h55c6.7,0,12.2,5.5,12.2,12.2v26.3
	C86.7,130.5,81.2,136,74.5,136"/>
<path class="st2" d="M74.6,206.5h-55c-6.7,0-12.2-5.5-12.2-12.2V168c0-6.7,5.5-12.2,12.2-12.2h55c6.7,0,12.2,5.5,12.2,12.2v26.3
	C86.8,201,81.3,206.5,74.6,206.5"/>
<path class="st2" d="M276.3,136h-55c-6.7,0-12.2-5.5-12.2-12.2V97.5c0-6.7,5.5-12.2,12.2-12.2h55c6.7,0,12.2,5.5,12.2,12.2v26.3
	C288.5,130.5,283,136,276.3,136"/>
<path class="st2" d="M276.4,206.5h-55c-6.7,0-12.2-5.5-12.2-12.2V168c0-6.7,5.5-12.2,12.2-12.2h55c6.7,0,12.2,5.5,12.2,12.2v26.3
	C288.6,201,283.1,206.5,276.4,206.5"/>
<g>
	
		<rect x="189.6" y="97.9" transform="matrix(0.112 -0.9937 0.9937 0.112 62.3483 283.8824)" class="st3" width="0.9" height="18.4"/>
	<path class="st4" d="M181.6,104.9c0.5,0.7,0.4,1.7-0.2,2.2c-0.7,0.5-1.7,0.4-2.2-0.2c-0.5-0.7-0.4-1.7,0.2-2.2
		C180.1,104.1,181,104.2,181.6,104.9z"/>
	<path class="st4" d="M201,107.3c0.5,0.7,0.4,1.7-0.2,2.2c-0.7,0.5-1.7,0.4-2.2-0.2s-0.4-1.7,0.2-2.2
		C199.5,106.5,200.5,106.6,201,107.3z"/>
	
		<rect x="184.3" y="98.7" transform="matrix(0.782 -0.6233 0.6233 0.782 -22.6871 137.3014)" class="st3" width="1.3" height="4.8"/>
	<path class="st4" d="M184.5,97.7c0.6,0.8,0.5,1.9-0.3,2.5s-1.9,0.5-2.5-0.3s-0.5-1.9,0.3-2.5C182.7,96.8,183.8,96.9,184.5,97.7z"/>
	
		<rect x="193.8" y="101.9" transform="matrix(0.782 -0.6233 0.6233 0.782 -21.1277 144.5636)" class="st3" width="4.6" height="1.2"/>
	<path class="st4" d="M199.3,100c0.5,0.6,0.4,1.5-0.2,2c-0.6,0.5-1.5,0.4-2-0.2s-0.4-1.5,0.2-2S198.8,99.4,199.3,100z"/>
	
		<rect x="180.5" y="111.9" transform="matrix(0.782 -0.6233 0.6233 0.782 -30.2567 138.9233)" class="st3" width="5.9" height="1.6"/>
	<path class="st4" d="M182.3,113.5c0.6,0.8,0.5,1.9-0.3,2.5s-1.9,0.5-2.5-0.3s-0.5-1.9,0.3-2.5S181.7,112.8,182.3,113.5z"/>
	
		<rect x="194.1" y="110.9" transform="matrix(0.782 -0.6233 0.6233 0.782 -28.2681 146.1684)" class="st3" width="1.4" height="5.2"/>
	<path class="st4" d="M198.5,115.1c0.7,0.8,0.5,2-0.3,2.7s-2,0.5-2.7-0.3s-0.5-2,0.3-2.7S197.8,114.3,198.5,115.1z"/>
	
		<rect x="180.8" y="106.8" transform="matrix(0.1122 -0.9937 0.9937 0.1122 62.1355 283.9714)" class="st3" width="18.4" height="0.9"/>
	<path class="st4" d="M192.3,96.3c0.5,0.7,0.4,1.7-0.2,2.2c-0.7,0.5-1.7,0.4-2.2-0.2c-0.5-0.7-0.4-1.7,0.2-2.2
		C190.8,95.5,191.7,95.7,192.3,96.3z"/>
	<path class="st4" d="M190.1,116.5c0.5,0.7,0.4,1.7-0.2,2.2c-0.7,0.5-1.7,0.4-2.2-0.2c-0.5-0.7-0.4-1.7,0.2-2.2
		C188.6,115.7,189.6,115.8,190.1,116.5z"/>
	<path class="st5" d="M195,103.4c2.2,2.8,1.8,6.8-1,9.1c-0.8,0.7-1.8,1.1-2.7,1.3c-2.3,0.5-4.8-0.3-6.3-2.3c-2.2-2.8-1.8-6.8,1-9.1
		C188.7,100.2,192.8,100.7,195,103.4z"/>
	<path class="st4" d="M192.8,104.2c0.7,0.9,0.6,2.3-0.3,3c-0.9,0.7-2.3,0.6-3-0.3s-0.6-2.3,0.3-3
		C190.7,103.2,192.1,103.3,192.8,104.2z"/>
	<path class="st4" d="M190.3,109.5c0.5,0.6,0.4,1.5-0.2,2c-0.6,0.5-1.5,0.4-2-0.2s-0.4-1.5,0.2-2S189.8,108.9,190.3,109.5z"/>
	<path class="st4" d="M187.2,106.6c0.4,0.5,0.3,1.3-0.2,1.8c-0.5,0.4-1.3,0.3-1.8-0.2c-0.4-0.5-0.3-1.3,0.2-1.8
		C186,106,186.8,106.1,187.2,106.6z"/>
	<path class="st4" d="M192.9,101.7c0,0,5.9,6.3-1.9,12.1c0,0,0.7-0.1,1.1-0.3c0,0,0.4-0.1,0.8-0.4c0,0,0.9-0.4,1.5-1.1
		c0,0,1.3-1.2,1.7-3.1c0,0,0.6-2.4-0.5-4.3C195.7,104.5,195,102.8,192.9,101.7z"/>
</g>
<g class="st6">
	<path class="st2" d="M75.8,23.3c-0.7-0.4-1.3-0.9-1.7-1.6s-0.6-1.4-0.6-2.3s0.2-1.6,0.6-2.3s1-1.2,1.7-1.6c0.7-0.4,1.5-0.6,2.4-0.6
		c0.8,0,1.5,0.1,2.1,0.4c0.6,0.3,1.1,0.7,1.5,1.2l-1.5,1.4c-0.5-0.7-1.2-1-2-1c-0.5,0-0.9,0.1-1.2,0.3c-0.4,0.2-0.6,0.5-0.8,0.8
		c-0.2,0.4-0.3,0.8-0.3,1.3c0,0.5,0.1,0.9,0.3,1.3c0.2,0.4,0.5,0.6,0.8,0.8c0.4,0.2,0.8,0.3,1.2,0.3c0.8,0,1.4-0.3,2-1l1.5,1.4
		c-0.4,0.5-0.9,0.9-1.5,1.2c-0.6,0.3-1.3,0.4-2.1,0.4C77.3,23.9,76.5,23.7,75.8,23.3z"/>
	<path class="st2" d="M88.3,22.1h-3.6l-0.7,1.6h-2.4l3.7-8.4h2.3l3.7,8.4h-2.5L88.3,22.1z M87.6,20.3l-1.1-2.7l-1.1,2.7H87.6z"/>
	<path class="st2" d="M92.1,15.3h4c0.9,0,1.7,0.2,2.4,0.5c0.7,0.3,1.3,0.8,1.7,1.5s0.6,1.4,0.6,2.2c0,0.8-0.2,1.6-0.6,2.2
		c-0.4,0.6-0.9,1.1-1.7,1.5c-0.7,0.3-1.5,0.5-2.4,0.5h-4V15.3z M96,21.8c0.7,0,1.3-0.2,1.7-0.6c0.4-0.4,0.7-1,0.7-1.7
		s-0.2-1.3-0.7-1.7c-0.4-0.4-1-0.6-1.7-0.6h-1.5v4.6H96z"/>
	<path class="st2" d="M108.7,21.9v1.8H102v-8.4h6.6v1.8h-4.2v1.4h3.7v1.8h-3.7v1.5H108.7z"/>
	<path class="st2" d="M110.1,15.3h2.4v8.4h-2.4V15.3z"/>
	<path class="st2" d="M119.8,22.1h-3.6l-0.7,1.6h-2.4l3.7-8.4h2.3l3.7,8.4h-2.5L119.8,22.1z M119.1,20.3l-1.1-2.7l-1.1,2.7H119.1z"
		/>
	<path class="st2" d="M127.1,15.3h4c0.9,0,1.7,0.2,2.4,0.5c0.7,0.3,1.3,0.8,1.7,1.5s0.6,1.4,0.6,2.2c0,0.8-0.2,1.6-0.6,2.2
		c-0.4,0.6-0.9,1.1-1.7,1.5c-0.7,0.3-1.5,0.5-2.4,0.5h-4V15.3z M130.9,21.8c0.7,0,1.3-0.2,1.7-0.6c0.4-0.4,0.7-1,0.7-1.7
		s-0.2-1.3-0.7-1.7c-0.4-0.4-1-0.6-1.7-0.6h-1.5v4.6H130.9z"/>
	<path class="st2" d="M143.7,21.9v1.8H137v-8.4h6.6v1.8h-4.2v1.4h3.7v1.8h-3.7v1.5H143.7z"/>
	<path class="st2" d="M150.3,17.2h-2.6v-1.9h7.5v1.9h-2.6v6.5h-2.4V17.2z"/>
	<path class="st2" d="M159.8,21.5h-1.3v2.2h-2.4v-8.4h3.8c0.8,0,1.4,0.1,2,0.4c0.6,0.3,1,0.6,1.3,1.1c0.3,0.5,0.5,1,0.5,1.7
		c0,0.6-0.1,1.1-0.4,1.6s-0.7,0.8-1.2,1.1l1.8,2.6h-2.5L159.8,21.5z M160.9,17.5c-0.2-0.2-0.6-0.3-1.1-0.3h-1.3v2.5h1.3
		c0.5,0,0.9-0.1,1.1-0.3c0.2-0.2,0.4-0.5,0.4-0.9S161.2,17.7,160.9,17.5z"/>
	<path class="st2" d="M170.7,22.1h-3.6l-0.7,1.6H164l3.7-8.4h2.3l3.7,8.4h-2.5L170.7,22.1z M170,20.3l-1.1-2.7l-1.1,2.7H170z"/>
	<path class="st2" d="M175.4,23.6c-0.6-0.2-1.2-0.4-1.6-0.7l0.8-1.8c0.4,0.2,0.8,0.4,1.3,0.6c0.5,0.2,1,0.2,1.5,0.2
		c0.9,0,1.4-0.2,1.4-0.7c0-0.2-0.1-0.4-0.4-0.5c-0.3-0.1-0.7-0.2-1.3-0.4c-0.6-0.1-1.2-0.3-1.6-0.4s-0.8-0.4-1.1-0.8
		c-0.3-0.3-0.5-0.8-0.5-1.4c0-0.5,0.1-1,0.4-1.4c0.3-0.4,0.7-0.7,1.3-1c0.6-0.2,1.2-0.4,2-0.4c0.6,0,1.1,0.1,1.6,0.2s1,0.3,1.4,0.5
		l-0.7,1.8c-0.8-0.4-1.6-0.6-2.3-0.6c-0.5,0-0.8,0.1-1,0.2s-0.3,0.3-0.3,0.5s0.1,0.4,0.4,0.5s0.7,0.2,1.2,0.3
		c0.6,0.1,1.2,0.3,1.6,0.4s0.8,0.4,1.1,0.7c0.3,0.3,0.5,0.8,0.5,1.4c0,0.5-0.1,1-0.4,1.4c-0.3,0.4-0.7,0.7-1.3,1
		c-0.6,0.2-1.2,0.4-2,0.4C176.7,23.9,176.1,23.8,175.4,23.6z"/>
	<path class="st2" d="M189.8,23.7l0-4.5l-2.2,3.6h-1.1l-2.1-3.5v4.3h-2.2v-8.4h2l3,4.8l2.9-4.8h2l0,8.4H189.8z"/>
	<path class="st2" d="M193.7,15.3h2.4v8.4h-2.4V15.3z"/>
	<path class="st2" d="M198.7,23.6c-0.6-0.2-1.2-0.4-1.6-0.7l0.8-1.8c0.4,0.2,0.8,0.4,1.3,0.6c0.5,0.2,1,0.2,1.5,0.2
		c0.9,0,1.4-0.2,1.4-0.7c0-0.2-0.1-0.4-0.4-0.5c-0.3-0.1-0.7-0.2-1.3-0.4c-0.6-0.1-1.2-0.3-1.6-0.4c-0.4-0.2-0.8-0.4-1.1-0.8
		s-0.5-0.8-0.5-1.4c0-0.5,0.1-1,0.4-1.4c0.3-0.4,0.7-0.7,1.3-1c0.6-0.2,1.2-0.4,2-0.4c0.6,0,1.1,0.1,1.6,0.2c0.5,0.1,1,0.3,1.4,0.5
		l-0.7,1.8c-0.8-0.4-1.6-0.6-2.3-0.6c-0.5,0-0.8,0.1-1,0.2c-0.2,0.1-0.3,0.3-0.3,0.5s0.1,0.4,0.4,0.5s0.7,0.2,1.2,0.3
		c0.6,0.1,1.2,0.3,1.6,0.4s0.8,0.4,1.1,0.7c0.3,0.3,0.5,0.8,0.5,1.4c0,0.5-0.1,1-0.4,1.4s-0.7,0.7-1.3,1c-0.6,0.2-1.2,0.4-2,0.4
		C200,23.9,199.4,23.8,198.7,23.6z"/>
	<path class="st2" d="M206.5,23.6c-0.6-0.2-1.2-0.4-1.6-0.7l0.8-1.8c0.4,0.2,0.8,0.4,1.3,0.6c0.5,0.2,1,0.2,1.5,0.2
		c0.9,0,1.4-0.2,1.4-0.7c0-0.2-0.1-0.4-0.4-0.5c-0.3-0.1-0.7-0.2-1.3-0.4c-0.6-0.1-1.2-0.3-1.6-0.4c-0.4-0.2-0.8-0.4-1.1-0.8
		s-0.5-0.8-0.5-1.4c0-0.5,0.1-1,0.4-1.4c0.3-0.4,0.7-0.7,1.3-1c0.6-0.2,1.2-0.4,2-0.4c0.6,0,1.1,0.1,1.6,0.2c0.5,0.1,1,0.3,1.4,0.5
		l-0.7,1.8c-0.8-0.4-1.6-0.6-2.3-0.6c-0.5,0-0.8,0.1-1,0.2c-0.2,0.1-0.3,0.3-0.3,0.5s0.1,0.4,0.4,0.5s0.7,0.2,1.2,0.3
		c0.6,0.1,1.2,0.3,1.6,0.4s0.8,0.4,1.1,0.7c0.3,0.3,0.5,0.8,0.5,1.4c0,0.5-0.1,1-0.4,1.4s-0.7,0.7-1.3,1c-0.6,0.2-1.2,0.4-2,0.4
		C207.8,23.9,207.1,23.8,206.5,23.6z"/>
	<path class="st2" d="M218.9,22.1h-3.6l-0.7,1.6h-2.4l3.7-8.4h2.3l3.7,8.4h-2.5L218.9,22.1z M217.5,14.6c-0.2-0.1-0.4-0.2-0.6-0.3
		c-0.2-0.1-0.3-0.2-0.3-0.2s-0.2-0.1-0.2-0.1c-0.2,0-0.3,0.1-0.4,0.2c-0.1,0.1-0.2,0.3-0.2,0.5h-1.1c0-0.6,0.2-1,0.4-1.4
		c0.3-0.3,0.6-0.5,1.1-0.5c0.2,0,0.4,0,0.6,0.1c0.2,0.1,0.4,0.2,0.6,0.3c0.2,0.1,0.3,0.2,0.3,0.2s0.2,0.1,0.2,0.1
		c0.2,0,0.3-0.1,0.4-0.2c0.1-0.1,0.2-0.3,0.2-0.4h1.1c0,0.6-0.2,1-0.4,1.4c-0.3,0.3-0.6,0.5-1.1,0.5
		C217.9,14.7,217.7,14.7,217.5,14.6z M218.2,20.3l-1.1-2.7l-1.1,2.7H218.2z"/>
	<path class="st2" d="M224.4,23.3c-0.7-0.4-1.3-0.9-1.7-1.6s-0.6-1.4-0.6-2.2s0.2-1.6,0.6-2.2s1-1.2,1.7-1.6s1.5-0.6,2.4-0.6
		c0.9,0,1.7,0.2,2.4,0.6s1.3,0.9,1.7,1.6s0.6,1.4,0.6,2.2s-0.2,1.6-0.6,2.2s-1,1.2-1.7,1.6c-0.7,0.4-1.5,0.6-2.4,0.6
		C225.9,23.9,225.1,23.7,224.4,23.3z M228,21.6c0.3-0.2,0.6-0.5,0.8-0.8c0.2-0.4,0.3-0.8,0.3-1.3c0-0.5-0.1-0.9-0.3-1.3
		c-0.2-0.4-0.5-0.6-0.8-0.8s-0.7-0.3-1.2-0.3c-0.4,0-0.8,0.1-1.2,0.3s-0.6,0.5-0.8,0.8s-0.3,0.8-0.3,1.3c0,0.5,0.1,0.9,0.3,1.3
		c0.2,0.4,0.5,0.6,0.8,0.8c0.3,0.2,0.7,0.3,1.2,0.3C227.2,21.9,227.6,21.8,228,21.6z"/>
</g>
<g>
	<g>
		<path class="st7" d="M68.9,82.5C73,69.8,87.2,62.9,101.5,66"/>
		<g>
			<polygon class="st4" points="94.4,69.4 100.6,65.8 97,59.5 101.2,60.6 104.8,66.9 98.6,70.5 			"/>
		</g>
	</g>
</g>
<g>
	<g>
		<path class="st7" d="M191.8,61.2c13.2-2.1,25.8,7.3,29.6,21.5"/>
		<g>
			<polygon class="st4" points="215.1,77.9 221.2,81.8 225.1,75.7 226,79.9 222.1,86 216.1,82.1 			"/>
		</g>
	</g>
</g>
<g>
	<g>
		<path class="st7" d="M240.1,126.6c10.3,8.6,11.5,24.3,3.3,36.4"/>
		<g>
			<polygon class="st4" points="242.8,155.1 243.9,162.3 251,161.2 248.4,164.7 241.3,165.7 240.3,158.6 			"/>
		</g>
	</g>
</g>
<g>
	<g>
		<path class="st7" d="M223.2,209.5c0.6,13.4-10.1,24.9-24.6,27.1"/>
		<g>
			<polygon class="st4" points="204.1,230.9 199.5,236.5 205.1,241 200.9,241.5 195.2,237 199.8,231.3 			"/>
		</g>
	</g>
</g>
<g>
	<g>
		<path class="st7" d="M56.9,127.5c-8.6,9.6-8.3,25.4,1.2,36.8"/>
		<g>
			<polygon class="st4" points="49.1,128.1 56.3,128.1 56.2,135.3 59.3,132.3 59.3,125.1 52.1,125.1 			"/>
		</g>
	</g>
</g>
<g>
	<g>
		<path class="st7" d="M76.9,212.7c1.3,12.9,13.1,23.3,27.9,24"/>
		<g>
			<polygon class="st4" points="72.1,218.9 76.9,213.6 82.2,218.5 82.1,214.2 76.8,209.3 71.9,214.5 			"/>
		</g>
	</g>
</g>
<g class="st6">
	<path class="st8" d="M134.2,74.2h-2.7l-0.5,1.2h-1.8l2.8-6.3h1.8l2.8,6.3h-1.9L134.2,74.2z M133.7,72.9l-0.8-2l-0.8,2H133.7z"/>
	<path class="st8" d="M141.2,72.1h1.6v2.6c-0.4,0.3-0.8,0.5-1.2,0.6c-0.5,0.1-0.9,0.2-1.4,0.2c-0.7,0-1.3-0.1-1.8-0.4
		c-0.5-0.3-0.9-0.7-1.2-1.2c-0.3-0.5-0.4-1.1-0.4-1.7c0-0.6,0.1-1.2,0.4-1.7c0.3-0.5,0.7-0.9,1.3-1.2c0.5-0.3,1.1-0.4,1.8-0.4
		c0.6,0,1.1,0.1,1.6,0.3c0.5,0.2,0.9,0.5,1.2,0.9l-1.1,1c-0.4-0.5-0.9-0.7-1.5-0.7c-0.5,0-1,0.2-1.3,0.5c-0.3,0.3-0.5,0.8-0.5,1.3
		c0,0.3,0.1,0.7,0.2,0.9c0.1,0.3,0.4,0.5,0.6,0.6c0.3,0.2,0.6,0.2,0.9,0.2c0.3,0,0.7-0.1,1-0.2V72.1z"/>
	<path class="st8" d="M149,74v1.4h-5.1v-6.3h4.9v1.4h-3.2v1.1h2.8v1.3h-2.8V74H149z"/>
	<path class="st8" d="M156,69.1v6.3h-1.5l-2.8-3.4v3.4H150v-6.3h1.5l2.8,3.4v-3.4H156z"/>
	<path class="st8" d="M158.6,70.5h-1.9v-1.4h5.6v1.4h-1.9v4.9h-1.8V70.5z"/>
	<path class="st8" d="M168,74v1.4h-5.1v-6.3h4.9v1.4h-3.2v1.1h2.8v1.3h-2.8V74H168z"/>
</g>
<g class="st6">
	<path class="st8" d="M119.8,79.9h1.8v6.3h-1.8V79.9z"/>
	<path class="st8" d="M128.8,79.9v6.3h-1.5l-2.8-3.4v3.4h-1.7v-6.3h1.5l2.8,3.4v-3.4H128.8z"/>
	<path class="st8" d="M131.9,81.3v1.4h2.8V84h-2.8v2.2h-1.8v-6.3h4.9v1.4H131.9z"/>
	<path class="st8" d="M140.9,84.8v1.4h-5.1v-6.3h4.9v1.4h-3.2v1.1h2.8v1.3h-2.8v1.2H140.9z"/>
	<path class="st8" d="M143.3,85.9c-0.5-0.3-0.9-0.7-1.2-1.2c-0.3-0.5-0.4-1.1-0.4-1.7c0-0.6,0.1-1.2,0.4-1.7
		c0.3-0.5,0.7-0.9,1.2-1.2c0.5-0.3,1.1-0.4,1.8-0.4c0.6,0,1.1,0.1,1.6,0.3c0.5,0.2,0.8,0.5,1.2,0.9l-1.1,1c-0.4-0.5-0.9-0.7-1.5-0.7
		c-0.3,0-0.6,0.1-0.9,0.2c-0.3,0.1-0.5,0.4-0.6,0.6c-0.1,0.3-0.2,0.6-0.2,0.9c0,0.4,0.1,0.7,0.2,0.9c0.1,0.3,0.4,0.5,0.6,0.6
		c0.3,0.2,0.6,0.2,0.9,0.2c0.6,0,1.1-0.2,1.5-0.7l1.1,1c-0.3,0.4-0.7,0.7-1.2,0.9c-0.5,0.2-1,0.3-1.6,0.3
		C144.4,86.3,143.8,86.2,143.3,85.9z"/>
	<path class="st8" d="M149.8,85.9c-0.5-0.3-0.9-0.7-1.2-1.2c-0.3-0.5-0.4-1.1-0.4-1.7c0-0.6,0.1-1.2,0.4-1.7
		c0.3-0.5,0.7-0.9,1.2-1.2c0.5-0.3,1.1-0.4,1.8-0.4c0.6,0,1.1,0.1,1.6,0.3s0.8,0.5,1.2,0.9l-1.1,1c-0.4-0.5-0.9-0.7-1.5-0.7
		c-0.3,0-0.6,0.1-0.9,0.2c-0.3,0.1-0.5,0.4-0.6,0.6c-0.1,0.3-0.2,0.6-0.2,0.9c0,0.4,0.1,0.7,0.2,0.9c0.1,0.3,0.4,0.5,0.6,0.6
		c0.3,0.2,0.6,0.2,0.9,0.2c0.6,0,1.1-0.2,1.5-0.7l1.1,1c-0.3,0.4-0.7,0.7-1.2,0.9c-0.5,0.2-1,0.3-1.6,0.3
		C150.9,86.3,150.3,86.2,149.8,85.9z"/>
	<path class="st8" d="M155.1,79.9h1.8v6.3h-1.8V79.9z"/>
	<path class="st8" d="M159.5,85.9c-0.5-0.3-0.9-0.7-1.3-1.2c-0.3-0.5-0.5-1.1-0.5-1.7s0.2-1.2,0.5-1.7c0.3-0.5,0.7-0.9,1.3-1.2
		c0.5-0.3,1.1-0.4,1.8-0.4s1.3,0.1,1.8,0.4c0.5,0.3,0.9,0.7,1.3,1.2c0.3,0.5,0.5,1.1,0.5,1.7s-0.2,1.2-0.5,1.7
		c-0.3,0.5-0.7,0.9-1.3,1.2c-0.5,0.3-1.1,0.4-1.8,0.4S160,86.2,159.5,85.9z M162.2,84.6c0.3-0.1,0.5-0.4,0.6-0.6
		c0.1-0.3,0.2-0.6,0.2-0.9c0-0.4-0.1-0.7-0.2-0.9c-0.2-0.3-0.4-0.5-0.6-0.6c-0.3-0.2-0.5-0.2-0.9-0.2s-0.6,0.1-0.9,0.2
		c-0.3,0.1-0.5,0.4-0.6,0.6c-0.2,0.3-0.2,0.6-0.2,0.9c0,0.4,0.1,0.7,0.2,0.9c0.1,0.3,0.4,0.5,0.6,0.6c0.3,0.2,0.5,0.2,0.9,0.2
		S161.9,84.8,162.2,84.6z"/>
	<path class="st8" d="M166.5,86.1c-0.5-0.1-0.9-0.3-1.2-0.5l0.6-1.3c0.3,0.2,0.6,0.3,1,0.5c0.4,0.1,0.7,0.2,1.1,0.2
		c0.7,0,1-0.2,1-0.5c0-0.2-0.1-0.3-0.3-0.4c-0.2-0.1-0.5-0.2-0.9-0.3c-0.5-0.1-0.9-0.2-1.2-0.3c-0.3-0.1-0.6-0.3-0.8-0.6
		c-0.2-0.3-0.3-0.6-0.3-1c0-0.4,0.1-0.7,0.3-1c0.2-0.3,0.5-0.6,0.9-0.7c0.4-0.2,0.9-0.3,1.5-0.3c0.4,0,0.8,0,1.2,0.1
		c0.4,0.1,0.8,0.2,1.1,0.4l-0.5,1.3c-0.6-0.3-1.2-0.5-1.7-0.5c-0.4,0-0.6,0.1-0.8,0.2c-0.2,0.1-0.2,0.2-0.2,0.4s0.1,0.3,0.3,0.4
		c0.2,0.1,0.5,0.2,0.9,0.3c0.5,0.1,0.9,0.2,1.2,0.3c0.3,0.1,0.6,0.3,0.8,0.6c0.2,0.3,0.3,0.6,0.3,1c0,0.4-0.1,0.7-0.3,1
		c-0.2,0.3-0.5,0.6-0.9,0.7s-0.9,0.3-1.5,0.3C167.4,86.3,166.9,86.3,166.5,86.1z"/>
	<path class="st8" d="M172.9,85.9c-0.5-0.3-0.9-0.7-1.3-1.2c-0.3-0.5-0.5-1.1-0.5-1.7s0.2-1.2,0.5-1.7c0.3-0.5,0.7-0.9,1.3-1.2
		c0.5-0.3,1.1-0.4,1.8-0.4s1.3,0.1,1.8,0.4c0.5,0.3,0.9,0.7,1.3,1.2c0.3,0.5,0.5,1.1,0.5,1.7s-0.2,1.2-0.5,1.7
		c-0.3,0.5-0.7,0.9-1.3,1.2c-0.5,0.3-1.1,0.4-1.8,0.4S173.5,86.2,172.9,85.9z M175.6,84.6c0.3-0.1,0.5-0.4,0.6-0.6
		c0.1-0.3,0.2-0.6,0.2-0.9c0-0.4-0.1-0.7-0.2-0.9c-0.2-0.3-0.4-0.5-0.6-0.6c-0.3-0.2-0.5-0.2-0.9-0.2s-0.6,0.1-0.9,0.2
		c-0.3,0.1-0.5,0.4-0.6,0.6c-0.2,0.3-0.2,0.6-0.2,0.9c0,0.4,0.1,0.7,0.2,0.9c0.1,0.3,0.4,0.5,0.6,0.6c0.3,0.2,0.5,0.2,0.9,0.2
		S175.3,84.8,175.6,84.6z"/>
</g>
<g class="st6">
	<path class="st8" d="M214.2,112.5h-1v1.7h-1.8v-6.3h2.9c0.6,0,1.1,0.1,1.5,0.3c0.4,0.2,0.7,0.5,1,0.8c0.2,0.4,0.3,0.8,0.3,1.2
		c0,0.5-0.1,0.9-0.3,1.2s-0.5,0.6-0.9,0.8l1.4,2h-1.9L214.2,112.5z M215.1,109.5c-0.2-0.2-0.5-0.2-0.8-0.2h-1v1.8h1
		c0.4,0,0.6-0.1,0.8-0.2c0.2-0.2,0.3-0.4,0.3-0.7S215.2,109.7,215.1,109.5z"/>
	<path class="st8" d="M223.2,112.8v1.4h-5.1v-6.3h4.9v1.4h-3.2v1.1h2.8v1.3h-2.8v1.2H223.2z"/>
	<path class="st8" d="M224.9,114.1c-0.5-0.1-0.9-0.3-1.2-0.5l0.6-1.3c0.3,0.2,0.6,0.3,1,0.5c0.4,0.1,0.7,0.2,1.1,0.2
		c0.7,0,1-0.2,1-0.5c0-0.2-0.1-0.3-0.3-0.4c-0.2-0.1-0.5-0.2-0.9-0.3c-0.5-0.1-0.9-0.2-1.2-0.3c-0.3-0.1-0.6-0.3-0.8-0.6
		c-0.2-0.3-0.3-0.6-0.3-1c0-0.4,0.1-0.7,0.3-1c0.2-0.3,0.5-0.6,0.9-0.7c0.4-0.2,0.9-0.3,1.5-0.3c0.4,0,0.8,0,1.2,0.1
		c0.4,0.1,0.8,0.2,1.1,0.4l-0.5,1.3c-0.6-0.3-1.2-0.5-1.7-0.5c-0.4,0-0.6,0.1-0.8,0.2c-0.2,0.1-0.2,0.2-0.2,0.4s0.1,0.3,0.3,0.4
		s0.5,0.2,0.9,0.3c0.5,0.1,0.9,0.2,1.2,0.3c0.3,0.1,0.6,0.3,0.8,0.6c0.2,0.3,0.3,0.6,0.3,1c0,0.4-0.1,0.7-0.3,1
		c-0.2,0.3-0.5,0.6-0.9,0.7s-0.9,0.3-1.5,0.3C225.9,114.3,225.4,114.2,224.9,114.1z"/>
	<path class="st8" d="M235,112.8v1.4H230v-6.3h4.9v1.4h-3.2v1.1h2.8v1.3h-2.8v1.2H235z"/>
	<path class="st8" d="M238.8,112.5h-1v1.7H236v-6.3h2.9c0.6,0,1.1,0.1,1.5,0.3c0.4,0.2,0.7,0.5,1,0.8c0.2,0.4,0.3,0.8,0.3,1.2
		c0,0.5-0.1,0.9-0.3,1.2c-0.2,0.3-0.5,0.6-0.9,0.8l1.4,2h-1.9L238.8,112.5z M239.6,109.5c-0.2-0.2-0.5-0.2-0.8-0.2h-1v1.8h1
		c0.4,0,0.6-0.1,0.8-0.2c0.2-0.2,0.3-0.4,0.3-0.7S239.8,109.7,239.6,109.5z"/>
	<path class="st8" d="M249.1,107.9l-2.7,6.3h-1.8l-2.7-6.3h1.9l1.7,4.1l1.7-4.1H249.1z"/>
	<path class="st8" d="M253.5,112.9h-2.7l-0.5,1.2h-1.8l2.8-6.3h1.8l2.8,6.3H254L253.5,112.9z M252.9,111.6l-0.8-2l-0.8,2H252.9z"/>
	<path class="st8" d="M257.3,109.3h-1.9v-1.4h5.6v1.4h-1.9v4.9h-1.8V109.3z"/>
	<path class="st8" d="M263,113.9c-0.5-0.3-0.9-0.7-1.3-1.2c-0.3-0.5-0.5-1.1-0.5-1.7s0.2-1.2,0.5-1.7c0.3-0.5,0.7-0.9,1.3-1.2
		c0.5-0.3,1.1-0.4,1.8-0.4s1.3,0.1,1.8,0.4c0.5,0.3,0.9,0.7,1.3,1.2c0.3,0.5,0.5,1.1,0.5,1.7s-0.2,1.2-0.5,1.7
		c-0.3,0.5-0.7,0.9-1.3,1.2c-0.5,0.3-1.1,0.4-1.8,0.4S263.5,114.2,263,113.9z M265.7,112.6c0.3-0.1,0.5-0.4,0.6-0.6
		c0.1-0.3,0.2-0.6,0.2-0.9c0-0.4-0.1-0.7-0.2-0.9c-0.2-0.3-0.4-0.5-0.6-0.6c-0.3-0.2-0.5-0.2-0.9-0.2s-0.6,0.1-0.9,0.2
		c-0.3,0.1-0.5,0.4-0.6,0.6c-0.2,0.3-0.2,0.6-0.2,0.9c0,0.4,0.1,0.7,0.2,0.9c0.1,0.3,0.4,0.5,0.6,0.6c0.3,0.2,0.5,0.2,0.9,0.2
		S265.4,112.7,265.7,112.6z M265.1,106h1.7l-1.7,1.4h-1.2L265.1,106z"/>
	<path class="st8" d="M272,112.5h-1v1.7h-1.8v-6.3h2.9c0.6,0,1.1,0.1,1.5,0.3c0.4,0.2,0.7,0.5,1,0.8c0.2,0.4,0.3,0.8,0.3,1.2
		c0,0.5-0.1,0.9-0.3,1.2c-0.2,0.3-0.5,0.6-0.9,0.8l1.4,2h-1.9L272,112.5z M272.8,109.5c-0.2-0.2-0.5-0.2-0.8-0.2h-1v1.8h1
		c0.4,0,0.6-0.1,0.8-0.2c0.2-0.2,0.3-0.4,0.3-0.7S273,109.7,272.8,109.5z"/>
	<path class="st8" d="M275.9,107.9h1.8v6.3h-1.8V107.9z"/>
	<path class="st8" d="M280.3,113.9c-0.5-0.3-0.9-0.7-1.3-1.2s-0.5-1.1-0.5-1.7s0.2-1.2,0.5-1.7s0.7-0.9,1.3-1.2s1.1-0.4,1.8-0.4
		s1.3,0.1,1.8,0.4s0.9,0.7,1.3,1.2s0.5,1.1,0.5,1.7s-0.2,1.2-0.5,1.7s-0.7,0.9-1.3,1.2s-1.1,0.4-1.8,0.4S280.9,114.2,280.3,113.9z
		 M283,112.6c0.3-0.1,0.5-0.4,0.6-0.6c0.2-0.3,0.2-0.6,0.2-0.9c0-0.4-0.1-0.7-0.2-0.9c-0.2-0.3-0.4-0.5-0.6-0.6
		c-0.3-0.2-0.5-0.2-0.9-0.2c-0.3,0-0.6,0.1-0.9,0.2c-0.3,0.1-0.5,0.4-0.6,0.6c-0.1,0.3-0.2,0.6-0.2,0.9c0,0.4,0.1,0.7,0.2,0.9
		c0.2,0.3,0.4,0.5,0.6,0.6c0.3,0.2,0.5,0.2,0.9,0.2C282.4,112.8,282.7,112.7,283,112.6z"/>
</g>
<g class="st6">
	<path class="st8" d="M230.5,175.6c0.4,0.2,0.7,0.5,1,0.8c0.2,0.4,0.3,0.8,0.3,1.2c0,0.5-0.1,0.9-0.3,1.2c-0.2,0.3-0.6,0.6-1,0.8
		c-0.4,0.2-0.9,0.3-1.5,0.3h-1.1v1.6h-1.8v-6.3h2.9C229.6,175.3,230.1,175.4,230.5,175.6z M229.7,178.3c0.2-0.2,0.3-0.4,0.3-0.7
		s-0.1-0.5-0.3-0.7c-0.2-0.2-0.5-0.2-0.8-0.2h-1v1.8h1C229.3,178.6,229.5,178.5,229.7,178.3z"/>
	<path class="st8" d="M234.1,181.3c-0.5-0.3-0.9-0.7-1.3-1.2c-0.3-0.5-0.5-1.1-0.5-1.7s0.2-1.2,0.5-1.7c0.3-0.5,0.7-0.9,1.3-1.2
		c0.5-0.3,1.1-0.4,1.8-0.4s1.3,0.1,1.8,0.4c0.5,0.3,0.9,0.7,1.3,1.2c0.3,0.5,0.5,1.1,0.5,1.7s-0.2,1.2-0.5,1.7
		c-0.3,0.5-0.7,0.9-1.3,1.2c-0.5,0.3-1.1,0.4-1.8,0.4S234.7,181.6,234.1,181.3z M236.8,180c0.3-0.1,0.5-0.4,0.6-0.6
		c0.1-0.3,0.2-0.6,0.2-0.9c0-0.4-0.1-0.7-0.2-0.9c-0.2-0.3-0.4-0.5-0.6-0.6c-0.3-0.2-0.5-0.2-0.9-0.2s-0.6,0.1-0.9,0.2
		c-0.3,0.1-0.5,0.4-0.6,0.6c-0.2,0.3-0.2,0.6-0.2,0.9c0,0.4,0.1,0.7,0.2,0.9c0.1,0.3,0.4,0.5,0.6,0.6c0.3,0.2,0.5,0.2,0.9,0.2
		S236.5,180.2,236.8,180z"/>
	<path class="st8" d="M243.1,179.9h-1v1.7h-1.8v-6.3h2.9c0.6,0,1.1,0.1,1.5,0.3c0.4,0.2,0.7,0.5,1,0.8c0.2,0.4,0.3,0.8,0.3,1.2
		c0,0.5-0.1,0.9-0.3,1.2s-0.5,0.6-0.9,0.8l1.4,2h-1.9L243.1,179.9z M244,177c-0.2-0.2-0.5-0.2-0.8-0.2h-1v1.8h1
		c0.4,0,0.6-0.1,0.8-0.2c0.2-0.2,0.3-0.4,0.3-0.7S244.2,177.1,244,177z"/>
	<path class="st8" d="M248.3,176.7h-1.9v-1.4h5.6v1.4h-1.9v4.9h-1.8V176.7z"/>
	<path class="st8" d="M256.6,180.4h-2.7l-0.5,1.2h-1.8l2.8-6.3h1.8l2.8,6.3h-1.9L256.6,180.4z M256,179.1l-0.8-2l-0.8,2H256z"/>
	<path class="st8" d="M262,175.3h3c0.7,0,1.3,0.1,1.8,0.4s0.9,0.6,1.2,1.1c0.3,0.5,0.4,1,0.4,1.7c0,0.6-0.1,1.2-0.4,1.7
		c-0.3,0.5-0.7,0.8-1.2,1.1s-1.1,0.4-1.8,0.4h-3V175.3z M264.9,180.2c0.5,0,1-0.2,1.3-0.5s0.5-0.7,0.5-1.3s-0.2-1-0.5-1.3
		s-0.8-0.5-1.3-0.5h-1.1v3.5H264.9z"/>
	<path class="st8" d="M274.5,180.2v1.4h-5.1v-6.3h4.9v1.4h-3.2v1.1h2.8v1.3h-2.8v1.2H274.5z"/>
</g>
<g class="st6">
	<path class="st8" d="M237.9,192.3c-0.5-0.1-0.9-0.3-1.2-0.5l0.6-1.3c0.3,0.2,0.6,0.3,1,0.5c0.4,0.1,0.7,0.2,1.1,0.2
		c0.7,0,1-0.2,1-0.5c0-0.2-0.1-0.3-0.3-0.4c-0.2-0.1-0.5-0.2-0.9-0.3c-0.5-0.1-0.9-0.2-1.2-0.3c-0.3-0.1-0.6-0.3-0.8-0.6
		c-0.2-0.3-0.3-0.6-0.3-1c0-0.4,0.1-0.7,0.3-1c0.2-0.3,0.5-0.6,0.9-0.7c0.4-0.2,0.9-0.3,1.5-0.3c0.4,0,0.8,0,1.2,0.1
		c0.4,0.1,0.8,0.2,1.1,0.4l-0.5,1.3c-0.6-0.3-1.2-0.5-1.7-0.5c-0.4,0-0.6,0.1-0.8,0.2c-0.2,0.1-0.2,0.2-0.2,0.4s0.1,0.3,0.3,0.4
		s0.5,0.2,0.9,0.3c0.5,0.1,0.9,0.2,1.2,0.3c0.3,0.1,0.6,0.3,0.8,0.6c0.2,0.3,0.3,0.6,0.3,1c0,0.4-0.1,0.7-0.3,1
		c-0.2,0.3-0.5,0.6-0.9,0.7s-0.9,0.3-1.5,0.3C238.8,192.5,238.3,192.5,237.9,192.3z"/>
	<path class="st8" d="M247.2,191.2h-2.7l-0.5,1.2h-1.8l2.8-6.3h1.8l2.8,6.3h-1.9L247.2,191.2z M246.6,189.9l-0.8-2l-0.8,2H246.6z"/>
	<path class="st8" d="M250,186.1h1.8v6.3H250V186.1z M251.2,184.2h1.7l-1.7,1.4H250L251.2,184.2z"/>
	<path class="st8" d="M253.1,186.1h3c0.7,0,1.3,0.1,1.8,0.4s0.9,0.6,1.2,1.1c0.3,0.5,0.4,1,0.4,1.7c0,0.6-0.1,1.2-0.4,1.7
		c-0.3,0.5-0.7,0.8-1.2,1.1s-1.1,0.4-1.8,0.4h-3V186.1z M256,191c0.5,0,1-0.2,1.3-0.5s0.5-0.7,0.5-1.3s-0.2-1-0.5-1.3
		s-0.8-0.5-1.3-0.5h-1.1v3.5H256z"/>
	<path class="st8" d="M264.6,191.2H262l-0.5,1.2h-1.8l2.8-6.3h1.8l2.8,6.3h-1.9L264.6,191.2z M264.1,189.9l-0.8-2l-0.8,2H264.1z"/>
</g>
<g class="st6">
	<path class="st8" d="M131.5,216.9l0-3.3l-1.6,2.7h-0.8l-1.6-2.6v3.2h-1.6v-6.3h1.5l2.2,3.6l2.2-3.6h1.5l0,6.3H131.5z"/>
	<path class="st8" d="M135.8,216.6c-0.5-0.3-0.9-0.7-1.3-1.2c-0.3-0.5-0.5-1.1-0.5-1.7s0.2-1.2,0.5-1.7c0.3-0.5,0.7-0.9,1.3-1.2
		c0.5-0.3,1.1-0.4,1.8-0.4s1.3,0.1,1.8,0.4c0.5,0.3,0.9,0.7,1.3,1.2c0.3,0.5,0.5,1.1,0.5,1.7s-0.2,1.2-0.5,1.7
		c-0.3,0.5-0.7,0.9-1.3,1.2c-0.5,0.3-1.1,0.4-1.8,0.4S136.4,216.9,135.8,216.6z M138.5,215.3c0.3-0.1,0.5-0.4,0.6-0.6
		c0.1-0.3,0.2-0.6,0.2-0.9c0-0.4-0.1-0.7-0.2-0.9c-0.2-0.3-0.4-0.5-0.6-0.6c-0.3-0.2-0.5-0.2-0.9-0.2c-0.3,0-0.6,0.1-0.9,0.2
		c-0.3,0.1-0.5,0.4-0.6,0.6c-0.1,0.3-0.2,0.6-0.2,0.9c0,0.4,0.1,0.7,0.2,0.9c0.1,0.3,0.4,0.5,0.6,0.6c0.3,0.2,0.5,0.2,0.9,0.2
		C137.9,215.5,138.2,215.5,138.5,215.3z"/>
	<path class="st8" d="M142.1,210.6h3c0.7,0,1.3,0.1,1.8,0.4c0.5,0.3,0.9,0.6,1.2,1.1c0.3,0.5,0.4,1,0.4,1.7c0,0.6-0.1,1.2-0.4,1.7
		c-0.3,0.5-0.7,0.8-1.2,1.1c-0.5,0.3-1.1,0.4-1.8,0.4h-3V210.6z M145,215.5c0.5,0,1-0.2,1.3-0.5s0.5-0.7,0.5-1.3s-0.2-1-0.5-1.3
		s-0.8-0.5-1.3-0.5h-1.1v3.5H145z"/>
	<path class="st8" d="M150.9,216.6c-0.5-0.3-0.9-0.7-1.3-1.2s-0.5-1.1-0.5-1.7s0.2-1.2,0.5-1.7s0.7-0.9,1.3-1.2s1.1-0.4,1.8-0.4
		s1.3,0.1,1.8,0.4s0.9,0.7,1.3,1.2s0.5,1.1,0.5,1.7s-0.2,1.2-0.5,1.7s-0.7,0.9-1.3,1.2s-1.1,0.4-1.8,0.4S151.4,216.9,150.9,216.6z
		 M153.5,215.3c0.3-0.1,0.5-0.4,0.6-0.6c0.2-0.3,0.2-0.6,0.2-0.9c0-0.4-0.1-0.7-0.2-0.9c-0.2-0.3-0.4-0.5-0.6-0.6
		c-0.3-0.2-0.5-0.2-0.9-0.2c-0.3,0-0.6,0.1-0.9,0.2c-0.3,0.1-0.5,0.4-0.6,0.6c-0.1,0.3-0.2,0.6-0.2,0.9c0,0.4,0.1,0.7,0.2,0.9
		c0.2,0.3,0.4,0.5,0.6,0.6c0.3,0.2,0.5,0.2,0.9,0.2C153,215.5,153.3,215.5,153.5,215.3z"/>
	<path class="st8" d="M159.7,210.6h3c0.7,0,1.3,0.1,1.8,0.4c0.5,0.3,0.9,0.6,1.2,1.1c0.3,0.5,0.4,1,0.4,1.7c0,0.6-0.1,1.2-0.4,1.7
		c-0.3,0.5-0.7,0.8-1.2,1.1c-0.5,0.3-1.1,0.4-1.8,0.4h-3V210.6z M162.6,215.5c0.5,0,1-0.2,1.3-0.5s0.5-0.7,0.5-1.3s-0.2-1-0.5-1.3
		s-0.8-0.5-1.3-0.5h-1.1v3.5H162.6z"/>
	<path class="st8" d="M172.2,215.5v1.4h-5.1v-6.3h4.9v1.4h-3.2v1.1h2.8v1.3h-2.8v1.2H172.2z"/>
</g>
<g class="st6">
	<path class="st8" d="M115.6,222.8h-1.9v-1.4h5.6v1.4h-1.9v4.9h-1.8V222.8z"/>
	<path class="st8" d="M122.7,226h-1v1.7H120v-6.3h2.9c0.6,0,1.1,0.1,1.5,0.3c0.4,0.2,0.7,0.5,1,0.8c0.2,0.4,0.3,0.8,0.3,1.2
		c0,0.5-0.1,0.9-0.3,1.2c-0.2,0.3-0.5,0.6-0.9,0.8l1.4,2h-1.9L122.7,226z M123.6,223c-0.2-0.2-0.5-0.2-0.8-0.2h-1v1.8h1
		c0.4,0,0.6-0.1,0.8-0.2c0.2-0.2,0.3-0.4,0.3-0.7S123.8,223.2,123.6,223z"/>
	<path class="st8" d="M130.9,226.5h-2.7l-0.5,1.2h-1.8l2.8-6.3h1.8l2.8,6.3h-1.9L130.9,226.5z M130.3,225.1l-0.8-2l-0.8,2H130.3z"/>
	<path class="st8" d="M139.7,221.4v6.3h-1.5l-2.8-3.4v3.4h-1.7v-6.3h1.5l2.8,3.4v-3.4H139.7z"/>
	<path class="st8" d="M141.7,227.6c-0.5-0.1-0.9-0.3-1.2-0.5l0.6-1.3c0.3,0.2,0.6,0.3,1,0.5c0.4,0.1,0.7,0.2,1.1,0.2
		c0.7,0,1-0.2,1-0.5c0-0.2-0.1-0.3-0.3-0.4s-0.5-0.2-0.9-0.3c-0.5-0.1-0.9-0.2-1.2-0.3s-0.6-0.3-0.8-0.6s-0.3-0.6-0.3-1
		c0-0.4,0.1-0.7,0.3-1c0.2-0.3,0.5-0.6,0.9-0.7c0.4-0.2,0.9-0.3,1.5-0.3c0.4,0,0.8,0,1.2,0.1c0.4,0.1,0.8,0.2,1.1,0.4l-0.5,1.3
		c-0.6-0.3-1.2-0.5-1.7-0.5c-0.4,0-0.6,0.1-0.8,0.2c-0.2,0.1-0.2,0.2-0.2,0.4s0.1,0.3,0.3,0.4c0.2,0.1,0.5,0.2,0.9,0.3
		c0.5,0.1,0.9,0.2,1.2,0.3c0.3,0.1,0.6,0.3,0.8,0.6s0.3,0.6,0.3,1c0,0.4-0.1,0.7-0.3,1c-0.2,0.3-0.5,0.6-0.9,0.7s-0.9,0.3-1.5,0.3
		C142.7,227.8,142.2,227.7,141.7,227.6z"/>
	<path class="st8" d="M152.5,227.7l0-3.3l-1.6,2.7H150l-1.6-2.6v3.2h-1.6v-6.3h1.5l2.2,3.6l2.2-3.6h1.5l0,6.3H152.5z"/>
	<path class="st8" d="M155.4,221.4h1.8v6.3h-1.8V221.4z"/>
	<path class="st8" d="M159.2,227.6c-0.5-0.1-0.9-0.3-1.2-0.5l0.6-1.3c0.3,0.2,0.6,0.3,1,0.5c0.4,0.1,0.7,0.2,1.1,0.2
		c0.7,0,1-0.2,1-0.5c0-0.2-0.1-0.3-0.3-0.4c-0.2-0.1-0.5-0.2-0.9-0.3c-0.5-0.1-0.9-0.2-1.2-0.3c-0.3-0.1-0.6-0.3-0.8-0.6
		c-0.2-0.3-0.3-0.6-0.3-1c0-0.4,0.1-0.7,0.3-1c0.2-0.3,0.5-0.6,0.9-0.7c0.4-0.2,0.9-0.3,1.5-0.3c0.4,0,0.8,0,1.2,0.1
		c0.4,0.1,0.8,0.2,1.1,0.4l-0.5,1.3c-0.6-0.3-1.2-0.5-1.7-0.5c-0.4,0-0.6,0.1-0.8,0.2c-0.2,0.1-0.2,0.2-0.2,0.4s0.1,0.3,0.3,0.4
		c0.2,0.1,0.5,0.2,0.9,0.3c0.5,0.1,0.9,0.2,1.2,0.3c0.3,0.1,0.6,0.3,0.8,0.6c0.2,0.3,0.3,0.6,0.3,1c0,0.4-0.1,0.7-0.3,1
		c-0.2,0.3-0.5,0.6-0.9,0.7s-0.9,0.3-1.5,0.3C160.1,227.8,159.6,227.7,159.2,227.6z"/>
	<path class="st8" d="M165,227.6c-0.5-0.1-0.9-0.3-1.2-0.5l0.6-1.3c0.3,0.2,0.6,0.3,1,0.5c0.4,0.1,0.7,0.2,1.1,0.2
		c0.7,0,1-0.2,1-0.5c0-0.2-0.1-0.3-0.3-0.4c-0.2-0.1-0.5-0.2-0.9-0.3c-0.5-0.1-0.9-0.2-1.2-0.3c-0.3-0.1-0.6-0.3-0.8-0.6
		c-0.2-0.3-0.3-0.6-0.3-1c0-0.4,0.1-0.7,0.3-1c0.2-0.3,0.5-0.6,0.9-0.7c0.4-0.2,0.9-0.3,1.5-0.3c0.4,0,0.8,0,1.2,0.1
		c0.4,0.1,0.8,0.2,1.1,0.4l-0.5,1.3c-0.6-0.3-1.2-0.5-1.7-0.5c-0.4,0-0.6,0.1-0.8,0.2c-0.2,0.1-0.2,0.2-0.2,0.4s0.1,0.3,0.3,0.4
		s0.5,0.2,0.9,0.3c0.5,0.1,0.9,0.2,1.2,0.3c0.3,0.1,0.6,0.3,0.8,0.6c0.2,0.3,0.3,0.6,0.3,1c0,0.4-0.1,0.7-0.3,1
		c-0.2,0.3-0.5,0.6-0.9,0.7s-0.9,0.3-1.5,0.3C166,227.8,165.5,227.7,165,227.6z"/>
	<path class="st8" d="M174.3,226.5h-2.7l-0.5,1.2h-1.8l2.8-6.3h1.8l2.8,6.3h-1.9L174.3,226.5z M173.2,220.8
		c-0.1-0.1-0.3-0.1-0.4-0.3c-0.1-0.1-0.2-0.1-0.3-0.2s-0.1,0-0.2,0c-0.1,0-0.2,0-0.3,0.1c-0.1,0.1-0.1,0.2-0.1,0.4h-0.8
		c0-0.4,0.1-0.8,0.3-1s0.5-0.4,0.8-0.4c0.2,0,0.3,0,0.4,0.1s0.3,0.1,0.4,0.3c0.1,0.1,0.2,0.1,0.3,0.2c0.1,0,0.1,0,0.2,0
		c0.1,0,0.2,0,0.3-0.1c0.1-0.1,0.1-0.2,0.1-0.3h0.8c0,0.4-0.1,0.8-0.3,1s-0.5,0.4-0.8,0.4C173.5,220.9,173.4,220.9,173.2,220.8z
		 M173.8,225.1l-0.8-2l-0.8,2H173.8z"/>
	<path class="st8" d="M178.4,227.4c-0.5-0.3-0.9-0.7-1.3-1.2s-0.5-1.1-0.5-1.7s0.2-1.2,0.5-1.7s0.7-0.9,1.3-1.2s1.1-0.4,1.8-0.4
		s1.3,0.1,1.8,0.4s0.9,0.7,1.3,1.2s0.5,1.1,0.5,1.7s-0.2,1.2-0.5,1.7s-0.7,0.9-1.3,1.2s-1.1,0.4-1.8,0.4S179,227.7,178.4,227.4z
		 M181.1,226.1c0.3-0.1,0.5-0.4,0.6-0.6c0.2-0.3,0.2-0.6,0.2-0.9c0-0.4-0.1-0.7-0.2-0.9c-0.2-0.3-0.4-0.5-0.6-0.6
		c-0.3-0.2-0.5-0.2-0.9-0.2c-0.3,0-0.6,0.1-0.9,0.2c-0.3,0.1-0.5,0.4-0.6,0.6c-0.1,0.3-0.2,0.6-0.2,0.9c0,0.4,0.1,0.7,0.2,0.9
		c0.2,0.3,0.4,0.5,0.6,0.6c0.3,0.2,0.5,0.2,0.9,0.2C180.5,226.3,180.8,226.3,181.1,226.1z"/>
</g>
<g class="st6">
	<path class="st8" d="M27.2,173.5c0.4,0.2,0.7,0.5,1,0.8s0.3,0.8,0.3,1.2c0,0.5-0.1,0.9-0.3,1.2s-0.6,0.6-1,0.8
		c-0.4,0.2-0.9,0.3-1.5,0.3h-1.1v1.6h-1.8v-6.3h2.9C26.3,173.2,26.8,173.3,27.2,173.5z M26.4,176.2c0.2-0.2,0.3-0.4,0.3-0.7
		c0-0.3-0.1-0.5-0.3-0.7s-0.5-0.2-0.8-0.2h-1v1.8h1C26,176.5,26.2,176.4,26.4,176.2z"/>
	<path class="st8" d="M30.9,179.2c-0.5-0.3-0.9-0.7-1.3-1.2c-0.3-0.5-0.5-1.1-0.5-1.7c0-0.6,0.2-1.2,0.5-1.7
		c0.3-0.5,0.7-0.9,1.3-1.2c0.5-0.3,1.1-0.4,1.8-0.4s1.3,0.1,1.8,0.4c0.5,0.3,0.9,0.7,1.3,1.2c0.3,0.5,0.5,1.1,0.5,1.7
		c0,0.6-0.2,1.2-0.5,1.7c-0.3,0.5-0.7,0.9-1.3,1.2c-0.5,0.3-1.1,0.4-1.8,0.4S31.4,179.5,30.9,179.2z M33.5,177.9
		c0.3-0.1,0.5-0.4,0.6-0.6c0.1-0.3,0.2-0.6,0.2-0.9s-0.1-0.7-0.2-0.9c-0.2-0.3-0.4-0.5-0.6-0.6c-0.3-0.2-0.5-0.2-0.9-0.2
		c-0.3,0-0.6,0.1-0.9,0.2c-0.3,0.1-0.5,0.4-0.6,0.6c-0.1,0.3-0.2,0.6-0.2,0.9s0.1,0.7,0.2,0.9c0.1,0.3,0.4,0.5,0.6,0.6
		c0.3,0.2,0.5,0.2,0.9,0.2C33,178.2,33.3,178.1,33.5,177.9z"/>
	<path class="st8" d="M39.8,177.8h-1v1.7h-1.8v-6.3H40c0.6,0,1.1,0.1,1.5,0.3c0.4,0.2,0.7,0.5,1,0.8s0.3,0.8,0.3,1.2
		c0,0.5-0.1,0.9-0.3,1.2c-0.2,0.3-0.5,0.6-0.9,0.8l1.4,2H41L39.8,177.8z M40.7,174.9c-0.2-0.2-0.5-0.2-0.8-0.2h-1v1.8h1
		c0.4,0,0.6-0.1,0.8-0.2c0.2-0.2,0.3-0.4,0.3-0.7C41,175.2,40.9,175,40.7,174.9z"/>
	<path class="st8" d="M45,174.6h-1.9v-1.4h5.6v1.4h-1.9v4.9H45V174.6z"/>
	<path class="st8" d="M53.3,178.3h-2.7l-0.5,1.2h-1.8l2.8-6.3h1.8l2.8,6.3h-1.9L53.3,178.3z M52.8,177l-0.8-2l-0.8,2H52.8z"/>
	<path class="st8" d="M58.7,173.2h3c0.7,0,1.3,0.1,1.8,0.4c0.5,0.3,0.9,0.6,1.2,1.1c0.3,0.5,0.4,1,0.4,1.7s-0.1,1.2-0.4,1.7
		c-0.3,0.5-0.7,0.8-1.2,1.1c-0.5,0.3-1.1,0.4-1.8,0.4h-3V173.2z M61.7,178.1c0.5,0,1-0.2,1.3-0.5c0.3-0.3,0.5-0.7,0.5-1.3
		c0-0.5-0.2-1-0.5-1.3c-0.3-0.3-0.8-0.5-1.3-0.5h-1.1v3.5H61.7z"/>
	<path class="st8" d="M71.2,178.1v1.4h-5.1v-6.3h4.9v1.4h-3.2v1.1h2.8v1.3h-2.8v1.2H71.2z"/>
</g>
<g class="st6">
	<path class="st8" d="M29.2,188.9v1.4h-5.1V184h4.9v1.4h-3.2v1.1h2.8v1.3h-2.8v1.2H29.2z"/>
	<path class="st8" d="M36.2,184v6.3h-1.5l-2.8-3.4v3.4h-1.7V184h1.5l2.8,3.4V184H36.2z"/>
	<path class="st8" d="M38.8,185.4h-1.9V184h5.6v1.4h-1.9v4.9h-1.8V185.4z"/>
	<path class="st8" d="M45.9,188.6h-1v1.7h-1.8V184H46c0.6,0,1.1,0.1,1.5,0.3c0.4,0.2,0.7,0.5,1,0.8c0.2,0.4,0.3,0.8,0.3,1.2
		c0,0.5-0.1,0.9-0.3,1.2s-0.5,0.6-0.9,0.8l1.4,2H47L45.9,188.6z M46.8,185.7c-0.2-0.2-0.5-0.2-0.8-0.2h-1v1.8h1
		c0.4,0,0.6-0.1,0.8-0.2c0.2-0.2,0.3-0.4,0.3-0.7S46.9,185.8,46.8,185.7z"/>
	<path class="st8" d="M54,189.1h-2.7l-0.5,1.2h-1.8l2.8-6.3h1.8l2.8,6.3h-1.9L54,189.1z M53.5,187.8l-0.8-2l-0.8,2H53.5z"/>
	<path class="st8" d="M56.9,184h3c0.7,0,1.3,0.1,1.8,0.4s0.9,0.6,1.2,1.1c0.3,0.5,0.4,1,0.4,1.7c0,0.6-0.1,1.2-0.4,1.7
		c-0.3,0.5-0.7,0.8-1.2,1.1s-1.1,0.4-1.8,0.4h-3V184z M59.8,188.9c0.5,0,1-0.2,1.3-0.5s0.5-0.7,0.5-1.3s-0.2-1-0.5-1.3
		s-0.8-0.5-1.3-0.5h-1.1v3.5H59.8z"/>
	<path class="st8" d="M68.5,189.1h-2.7l-0.5,1.2h-1.8l2.8-6.3H68l2.8,6.3h-1.9L68.5,189.1z M67.9,187.8l-0.8-2l-0.8,2H67.9z"/>
</g>
<g class="st6">
	<path class="st8" d="M21.6,101.4v6.3h-1.8v-2.5h-2.4v2.5h-1.8v-6.3h1.8v2.4h2.4v-2.4H21.6z"/>
	<path class="st8" d="M24.3,107.4c-0.5-0.3-0.9-0.7-1.3-1.2c-0.3-0.5-0.5-1.1-0.5-1.7s0.2-1.2,0.5-1.7c0.3-0.5,0.7-0.9,1.3-1.2
		c0.5-0.3,1.1-0.4,1.8-0.4s1.3,0.1,1.8,0.4c0.5,0.3,0.9,0.7,1.3,1.2c0.3,0.5,0.5,1.1,0.5,1.7s-0.2,1.2-0.5,1.7
		c-0.3,0.5-0.7,0.9-1.3,1.2c-0.5,0.3-1.1,0.4-1.8,0.4S24.8,107.7,24.3,107.4z M26.9,106.1c0.3-0.1,0.5-0.4,0.6-0.6
		c0.1-0.3,0.2-0.6,0.2-0.9c0-0.4-0.1-0.7-0.2-0.9c-0.2-0.3-0.4-0.5-0.6-0.6c-0.3-0.2-0.5-0.2-0.9-0.2c-0.3,0-0.6,0.1-0.9,0.2
		c-0.3,0.1-0.5,0.4-0.6,0.6c-0.1,0.3-0.2,0.6-0.2,0.9c0,0.4,0.1,0.7,0.2,0.9c0.1,0.3,0.4,0.5,0.6,0.6c0.3,0.2,0.5,0.2,0.9,0.2
		C26.4,106.4,26.7,106.3,26.9,106.1z"/>
	<path class="st8" d="M31.2,107.7c-0.5-0.1-0.9-0.3-1.2-0.5l0.6-1.3c0.3,0.2,0.6,0.3,1,0.5c0.4,0.1,0.7,0.2,1.1,0.2
		c0.7,0,1-0.2,1-0.5c0-0.2-0.1-0.3-0.3-0.4s-0.5-0.2-0.9-0.3c-0.5-0.1-0.9-0.2-1.2-0.3s-0.6-0.3-0.8-0.6s-0.3-0.6-0.3-1
		c0-0.4,0.1-0.7,0.3-1c0.2-0.3,0.5-0.6,0.9-0.7c0.4-0.2,0.9-0.3,1.5-0.3c0.4,0,0.8,0,1.2,0.1c0.4,0.1,0.8,0.2,1.1,0.4l-0.5,1.3
		c-0.6-0.3-1.2-0.5-1.7-0.5c-0.4,0-0.6,0.1-0.8,0.2c-0.2,0.1-0.2,0.2-0.2,0.4s0.1,0.3,0.3,0.4c0.2,0.1,0.5,0.2,0.9,0.3
		c0.5,0.1,0.9,0.2,1.2,0.3c0.3,0.1,0.6,0.3,0.8,0.6s0.3,0.6,0.3,1c0,0.4-0.1,0.7-0.3,1c-0.2,0.3-0.5,0.6-0.9,0.7s-0.9,0.3-1.5,0.3
		C32.2,107.8,31.7,107.8,31.2,107.7z"/>
	<path class="st8" d="M40.7,101.7c0.4,0.2,0.7,0.5,1,0.8c0.2,0.4,0.3,0.8,0.3,1.2c0,0.5-0.1,0.9-0.3,1.2c-0.2,0.3-0.6,0.6-1,0.8
		c-0.4,0.2-0.9,0.3-1.5,0.3h-1.1v1.6h-1.8v-6.3h2.9C39.8,101.4,40.3,101.5,40.7,101.7z M39.9,104.4c0.2-0.2,0.3-0.4,0.3-0.7
		s-0.1-0.5-0.3-0.7s-0.5-0.2-0.8-0.2h-1v1.8h1C39.5,104.7,39.8,104.6,39.9,104.4z"/>
	<path class="st8" d="M47.9,106.3v1.4h-5.1v-6.3h4.9v1.4h-3.2v1.1h2.8v1.3h-2.8v1.2H47.9z"/>
	<path class="st8" d="M48.9,101.4h3c0.7,0,1.3,0.1,1.8,0.4c0.5,0.3,0.9,0.6,1.2,1.1c0.3,0.5,0.4,1,0.4,1.7c0,0.6-0.1,1.2-0.4,1.7
		c-0.3,0.5-0.7,0.8-1.2,1.1c-0.5,0.3-1.1,0.4-1.8,0.4h-3V101.4z M51.8,106.3c0.5,0,1-0.2,1.3-0.5s0.5-0.7,0.5-1.3s-0.2-1-0.5-1.3
		s-0.8-0.5-1.3-0.5h-1.1v3.5H51.8z"/>
	<path class="st8" d="M61.4,106.3v1.4h-5.1v-6.3h4.9v1.4h-3.2v1.1h2.8v1.3h-2.8v1.2H61.4z"/>
	<path class="st8" d="M62.4,101.4h1.8v6.3h-1.8V101.4z"/>
	<path class="st8" d="M68.2,106h-1v1.7h-1.8v-6.3h2.9c0.6,0,1.1,0.1,1.5,0.3c0.4,0.2,0.7,0.5,1,0.8c0.2,0.4,0.3,0.8,0.3,1.2
		c0,0.5-0.1,0.9-0.3,1.2c-0.2,0.3-0.5,0.6-0.9,0.8l1.4,2h-1.9L68.2,106z M69.1,103.1c-0.2-0.2-0.5-0.2-0.8-0.2h-1v1.8h1
		c0.4,0,0.6-0.1,0.8-0.2c0.2-0.2,0.3-0.4,0.3-0.7S69.2,103.2,69.1,103.1z"/>
	<path class="st8" d="M73.5,107.4c-0.5-0.3-0.9-0.7-1.3-1.2c-0.3-0.5-0.5-1.1-0.5-1.7s0.2-1.2,0.5-1.7c0.3-0.5,0.7-0.9,1.3-1.2
		c0.5-0.3,1.1-0.4,1.8-0.4s1.3,0.1,1.8,0.4c0.5,0.3,0.9,0.7,1.3,1.2c0.3,0.5,0.5,1.1,0.5,1.7s-0.2,1.2-0.5,1.7
		c-0.3,0.5-0.7,0.9-1.3,1.2c-0.5,0.3-1.1,0.4-1.8,0.4S74,107.7,73.5,107.4z M76.2,106.1c0.3-0.1,0.5-0.4,0.6-0.6
		c0.1-0.3,0.2-0.6,0.2-0.9c0-0.4-0.1-0.7-0.2-0.9c-0.2-0.3-0.4-0.5-0.6-0.6c-0.3-0.2-0.5-0.2-0.9-0.2c-0.3,0-0.6,0.1-0.9,0.2
		c-0.3,0.1-0.5,0.4-0.6,0.6c-0.1,0.3-0.2,0.6-0.2,0.9c0,0.4,0.1,0.7,0.2,0.9c0.1,0.3,0.4,0.5,0.6,0.6c0.3,0.2,0.5,0.2,0.9,0.2
		C75.6,106.4,75.9,106.3,76.2,106.1z"/>
</g>
<g class="st6">
	<path class="st8" d="M19.2,118.5c-0.5-0.1-0.9-0.3-1.2-0.5l0.6-1.3c0.3,0.2,0.6,0.3,1,0.5c0.4,0.1,0.7,0.2,1.1,0.2
		c0.7,0,1-0.2,1-0.5c0-0.2-0.1-0.3-0.3-0.4s-0.5-0.2-0.9-0.3c-0.5-0.1-0.9-0.2-1.2-0.3s-0.6-0.3-0.8-0.6s-0.3-0.6-0.3-1
		c0-0.4,0.1-0.7,0.3-1c0.2-0.3,0.5-0.6,0.9-0.7c0.4-0.2,0.9-0.3,1.5-0.3c0.4,0,0.8,0,1.2,0.1c0.4,0.1,0.8,0.2,1.1,0.4l-0.5,1.3
		c-0.6-0.3-1.2-0.5-1.7-0.5c-0.4,0-0.6,0.1-0.8,0.2c-0.2,0.1-0.2,0.2-0.2,0.4s0.1,0.3,0.3,0.4c0.2,0.1,0.5,0.2,0.9,0.3
		c0.5,0.1,0.9,0.2,1.2,0.3c0.3,0.1,0.6,0.3,0.8,0.6s0.3,0.6,0.3,1c0,0.4-0.1,0.7-0.3,1c-0.2,0.3-0.5,0.6-0.9,0.7s-0.9,0.3-1.5,0.3
		C20.1,118.6,19.7,118.6,19.2,118.5z"/>
	<path class="st8" d="M25,117.9c-0.5-0.5-0.8-1.2-0.8-2.2v-3.5H26v3.4c0,1,0.4,1.5,1.2,1.5c0.8,0,1.2-0.5,1.2-1.5v-3.4h1.8v3.5
		c0,0.9-0.3,1.7-0.8,2.2c-0.5,0.5-1.2,0.8-2.2,0.8S25.5,118.4,25,117.9z"/>
	<path class="st8" d="M32.1,118.5c-0.5-0.1-0.9-0.3-1.2-0.5l0.6-1.3c0.3,0.2,0.6,0.3,1,0.5c0.4,0.1,0.7,0.2,1.1,0.2
		c0.7,0,1-0.2,1-0.5c0-0.2-0.1-0.3-0.3-0.4s-0.5-0.2-0.9-0.3c-0.5-0.1-0.9-0.2-1.2-0.3s-0.6-0.3-0.8-0.6s-0.3-0.6-0.3-1
		c0-0.4,0.1-0.7,0.3-1c0.2-0.3,0.5-0.6,0.9-0.7c0.4-0.2,0.9-0.3,1.5-0.3c0.4,0,0.8,0,1.2,0.1c0.4,0.1,0.8,0.2,1.1,0.4l-0.5,1.3
		c-0.6-0.3-1.2-0.5-1.7-0.5c-0.4,0-0.6,0.1-0.8,0.2c-0.2,0.1-0.2,0.2-0.2,0.4s0.1,0.3,0.3,0.4c0.2,0.1,0.5,0.2,0.9,0.3
		c0.5,0.1,0.9,0.2,1.2,0.3c0.3,0.1,0.6,0.3,0.8,0.6s0.3,0.6,0.3,1c0,0.4-0.1,0.7-0.3,1c-0.2,0.3-0.5,0.6-0.9,0.7s-0.9,0.3-1.5,0.3
		C33,118.6,32.6,118.6,32.1,118.5z"/>
	<path class="st8" d="M38.5,118.2c-0.5-0.3-0.9-0.7-1.2-1.2c-0.3-0.5-0.4-1.1-0.4-1.7c0-0.6,0.1-1.2,0.4-1.7
		c0.3-0.5,0.7-0.9,1.2-1.2c0.5-0.3,1.1-0.4,1.8-0.4c0.6,0,1.1,0.1,1.6,0.3c0.5,0.2,0.8,0.5,1.2,0.9l-1.1,1c-0.4-0.5-0.9-0.7-1.5-0.7
		c-0.3,0-0.6,0.1-0.9,0.2c-0.3,0.1-0.5,0.4-0.6,0.6c-0.1,0.3-0.2,0.6-0.2,0.9c0,0.4,0.1,0.7,0.2,0.9c0.1,0.3,0.4,0.5,0.6,0.6
		c0.3,0.2,0.6,0.2,0.9,0.2c0.6,0,1.1-0.2,1.5-0.7l1.1,1c-0.3,0.4-0.7,0.7-1.2,0.9c-0.5,0.2-1,0.3-1.6,0.3
		C39.6,118.6,39.1,118.5,38.5,118.2z"/>
	<path class="st8" d="M48.9,117.1v1.4h-5.1v-6.3h4.9v1.4h-3.2v1.1h2.8v1.3h-2.8v1.2H48.9z"/>
	<path class="st8" d="M51.2,113.6h-1.9v-1.4h5.6v1.4H53v4.9h-1.8V113.6z"/>
	<path class="st8" d="M55.6,112.2h1.8v6.3h-1.8V112.2z M56.8,110.3h1.7l-1.7,1.4h-1.2L56.8,110.3z"/>
	<path class="st8" d="M65,112.2l-2.7,6.3h-1.8l-2.7-6.3h1.9l1.7,4.1l1.7-4.1H65z"/>
	<path class="st8" d="M70.4,117.1v1.4h-5.1v-6.3h4.9v1.4h-3.2v1.1h2.8v1.3h-2.8v1.2H70.4z"/>
	<path class="st8" d="M71.4,112.2h1.8v4.9h3v1.4h-4.8V112.2z"/>
</g>
<g class="st6">
	<path class="st8" d="M125.2,146.8c-0.5-0.3-0.9-0.7-1.2-1.2c-0.3-0.5-0.4-1.1-0.4-1.7c0-0.6,0.1-1.2,0.4-1.7
		c0.3-0.5,0.7-0.9,1.2-1.2c0.5-0.3,1.1-0.4,1.8-0.4c0.6,0,1.1,0.1,1.6,0.3c0.5,0.2,0.8,0.5,1.2,0.9l-1.1,1c-0.4-0.5-0.9-0.7-1.5-0.7
		c-0.3,0-0.6,0.1-0.9,0.2c-0.3,0.1-0.5,0.4-0.6,0.6c-0.1,0.3-0.2,0.6-0.2,0.9c0,0.4,0.1,0.7,0.2,0.9c0.1,0.3,0.4,0.5,0.6,0.6
		c0.3,0.2,0.6,0.2,0.9,0.2c0.6,0,1.1-0.2,1.5-0.7l1.1,1c-0.3,0.4-0.7,0.7-1.2,0.9c-0.5,0.2-1,0.3-1.6,0.3
		C126.3,147.3,125.7,147.1,125.2,146.8z"/>
	<path class="st8" d="M134.6,145.9h-2.7l-0.5,1.2h-1.8l2.8-6.3h1.8l2.8,6.3h-1.9L134.6,145.9z M134.1,144.6l-0.8-2l-0.8,2H134.1z"/>
	<path class="st8" d="M137.4,140.8h3c0.7,0,1.3,0.1,1.8,0.4c0.5,0.3,0.9,0.6,1.2,1.1c0.3,0.5,0.4,1,0.4,1.7c0,0.6-0.1,1.2-0.4,1.7
		c-0.3,0.5-0.7,0.8-1.2,1.1c-0.5,0.3-1.1,0.4-1.8,0.4h-3V140.8z M140.3,145.7c0.5,0,1-0.2,1.3-0.5s0.5-0.7,0.5-1.3s-0.2-1-0.5-1.3
		s-0.8-0.5-1.3-0.5h-1.1v3.5H140.3z"/>
	<path class="st8" d="M149.9,145.8v1.4h-5.1v-6.3h4.9v1.4h-3.2v1.1h2.8v1.3h-2.8v1.2H149.9z"/>
	<path class="st8" d="M150.9,140.8h1.8v6.3h-1.8V140.8z"/>
	<path class="st8" d="M158.2,145.9h-2.7l-0.5,1.2h-1.8l2.8-6.3h1.8l2.8,6.3h-1.9L158.2,145.9z M157.7,144.6l-0.8-2l-0.8,2H157.7z"/>
	<path class="st8" d="M163.7,140.8h3c0.7,0,1.3,0.1,1.8,0.4s0.9,0.6,1.2,1.1c0.3,0.5,0.4,1,0.4,1.7c0,0.6-0.1,1.2-0.4,1.7
		c-0.3,0.5-0.7,0.8-1.2,1.1s-1.1,0.4-1.8,0.4h-3V140.8z M166.6,145.7c0.5,0,1-0.2,1.3-0.5s0.5-0.7,0.5-1.3s-0.2-1-0.5-1.3
		s-0.8-0.5-1.3-0.5h-1.1v3.5H166.6z"/>
	<path class="st8" d="M176.1,145.8v1.4h-5.1v-6.3h4.9v1.4h-3.2v1.1h2.8v1.3h-2.8v1.2H176.1z"/>
</g>
<g class="st6">
	<path class="st8" d="M125.5,151.6h1.8v6.3h-1.8V151.6z"/>
	<path class="st8" d="M134.6,151.6v6.3h-1.5l-2.8-3.4v3.4h-1.7v-6.3h1.5l2.8,3.4v-3.4H134.6z"/>
	<path class="st8" d="M137.6,153v1.4h2.8v1.4h-2.8v2.2h-1.8v-6.3h4.9v1.4H137.6z"/>
	<path class="st8" d="M146.7,156.6v1.4h-5.1v-6.3h4.9v1.4h-3.2v1.1h2.8v1.3h-2.8v1.2H146.7z"/>
	<path class="st8" d="M149,157.7c-0.5-0.3-0.9-0.7-1.2-1.2c-0.3-0.5-0.4-1.1-0.4-1.7s0.1-1.2,0.4-1.7c0.3-0.5,0.7-0.9,1.2-1.2
		s1.1-0.4,1.8-0.4c0.6,0,1.1,0.1,1.6,0.3c0.5,0.2,0.8,0.5,1.2,0.9l-1.1,1c-0.4-0.5-0.9-0.7-1.5-0.7c-0.3,0-0.6,0.1-0.9,0.2
		c-0.3,0.1-0.5,0.4-0.6,0.6c-0.1,0.3-0.2,0.6-0.2,0.9s0.1,0.7,0.2,0.9c0.1,0.3,0.4,0.5,0.6,0.6c0.3,0.2,0.6,0.2,0.9,0.2
		c0.6,0,1.1-0.2,1.5-0.7l1.1,1c-0.3,0.4-0.7,0.7-1.2,0.9c-0.5,0.2-1,0.3-1.6,0.3C150.1,158.1,149.5,157.9,149,157.7z"/>
	<path class="st8" d="M155.5,157.7c-0.5-0.3-0.9-0.7-1.2-1.2s-0.5-1.1-0.5-1.7s0.2-1.2,0.5-1.7s0.7-0.9,1.2-1.2s1.1-0.4,1.8-0.4
		c0.6,0,1.1,0.1,1.6,0.3c0.5,0.2,0.8,0.5,1.2,0.9l-1.1,1c-0.4-0.5-0.9-0.7-1.5-0.7c-0.3,0-0.6,0.1-0.9,0.2c-0.3,0.1-0.5,0.4-0.6,0.6
		c-0.1,0.3-0.2,0.6-0.2,0.9s0.1,0.7,0.2,0.9c0.1,0.3,0.4,0.5,0.6,0.6c0.3,0.2,0.6,0.2,0.9,0.2c0.6,0,1.1-0.2,1.5-0.7l1.1,1
		c-0.3,0.4-0.7,0.7-1.2,0.9c-0.5,0.2-1,0.3-1.6,0.3C156.6,158.1,156,157.9,155.5,157.7z M156.3,160c-0.2,0-0.3-0.1-0.4-0.1l0.2-0.7
		c0.2,0.1,0.4,0.1,0.6,0.1c0.3,0,0.4-0.1,0.4-0.3c0-0.1-0.1-0.2-0.4-0.2h-0.3l0.2-1h0.9l-0.1,0.5c0.3,0,0.5,0.1,0.6,0.2
		c0.1,0.1,0.2,0.3,0.2,0.5c0,0.3-0.1,0.5-0.4,0.7s-0.6,0.3-1,0.3C156.6,160.1,156.4,160,156.3,160z"/>
	<path class="st8" d="M164.9,156.7h-2.7l-0.5,1.2h-1.8l2.8-6.3h1.8l2.8,6.3h-1.9L164.9,156.7z M163.9,151.1
		c-0.1-0.1-0.3-0.1-0.4-0.3c-0.1-0.1-0.2-0.1-0.3-0.2c-0.1,0-0.1,0-0.2,0c-0.1,0-0.2,0-0.3,0.1c-0.1,0.1-0.1,0.2-0.1,0.3h-0.8
		c0-0.4,0.1-0.8,0.3-1s0.5-0.4,0.8-0.4c0.2,0,0.3,0,0.4,0.1c0.1,0.1,0.3,0.1,0.4,0.3c0.1,0.1,0.2,0.1,0.3,0.2c0.1,0,0.1,0,0.2,0
		c0.1,0,0.2,0,0.3-0.1c0.1-0.1,0.1-0.2,0.1-0.3h0.8c0,0.4-0.1,0.8-0.3,1s-0.5,0.4-0.8,0.4C164.1,151.2,164,151.2,163.9,151.1z
		 M164.4,155.4l-0.8-2l-0.8,2H164.4z"/>
	<path class="st8" d="M169.1,157.6c-0.5-0.3-0.9-0.7-1.3-1.2s-0.5-1.1-0.5-1.7c0-0.6,0.2-1.2,0.5-1.7s0.7-0.9,1.3-1.2
		c0.5-0.3,1.1-0.4,1.8-0.4s1.3,0.1,1.8,0.4c0.5,0.3,0.9,0.7,1.3,1.2s0.5,1.1,0.5,1.7c0,0.6-0.2,1.2-0.5,1.7s-0.7,0.9-1.3,1.2
		c-0.5,0.3-1.1,0.4-1.8,0.4S169.6,157.9,169.1,157.6z M171.7,156.4c0.3-0.1,0.5-0.4,0.6-0.6c0.2-0.3,0.2-0.6,0.2-0.9
		s-0.1-0.7-0.2-0.9c-0.2-0.3-0.4-0.5-0.6-0.6c-0.3-0.2-0.5-0.2-0.9-0.2c-0.3,0-0.6,0.1-0.9,0.2c-0.3,0.1-0.5,0.4-0.6,0.6
		c-0.1,0.3-0.2,0.6-0.2,0.9s0.1,0.7,0.2,0.9c0.2,0.3,0.4,0.5,0.6,0.6c0.3,0.2,0.5,0.2,0.9,0.2C171.2,156.6,171.5,156.5,171.7,156.4z
		"/>
</g>
</svg>
