<svg xmlns="http://www.w3.org/2000/svg" xmlns:xlink="http://www.w3.org/1999/xlink" viewBox="0 0 102.01 300.02"><defs><style>.cls-1,.cls-11,.cls-18,.cls-23,.cls-24,.cls-5{fill:none;}.cls-2{clip-path:url(#clip-path);}.cls-3{fill:#817e7d;}.cls-4{fill:#889fd2;}.cls-5{stroke:#7a8091;stroke-width:0.52px;}.cls-11,.cls-23,.cls-5{stroke-miterlimit:10;}.cls-6{fill:#13110c;}.cls-7{fill:#ffe7a0;}.cls-8{fill:#cdb24e;}.cls-9{fill:#35322f;}.cls-10{fill:#0f4654;}.cls-11{stroke:#cdb24e;}.cls-11,.cls-18{stroke-width:0.78px;}.cls-12{fill:#d5edfa;}.cls-13{fill:#fff;}.cls-14{opacity:0.5;}.cls-15{clip-path:url(#clip-path-2);}.cls-16{clip-path:url(#clip-path-3);}.cls-17{fill:#876ea8;}.cls-18{stroke:#463455;}.cls-18,.cls-24{stroke-linejoin:round;}.cls-19{opacity:0.3;}.cls-20{clip-path:url(#clip-path-4);}.cls-21{clip-path:url(#clip-path-5);}.cls-22{fill:#4c4c9b;}.cls-23,.cls-24{stroke:#2b2523;stroke-width:0.54px;}.cls-23{stroke-linecap:round;}</style><clipPath id="clip-path" transform="translate(-0.29 -0.23)"><rect class="cls-1" width="106.42" height="300.25"/></clipPath><clipPath id="clip-path-2" transform="translate(-0.29 -0.23)"><rect class="cls-1" x="49.2" y="32.04" width="21.08" height="7.82"/></clipPath><clipPath id="clip-path-3" transform="translate(-0.29 -0.23)"><rect class="cls-1" x="49.2" y="32.04" width="21.08" height="7.82"/></clipPath><clipPath id="clip-path-4" transform="translate(-0.29 -0.23)"><rect class="cls-1" x="42.18" y="15.16" width="34.1" height="27.31"/></clipPath><clipPath id="clip-path-5" transform="translate(-0.29 -0.23)"><rect class="cls-1" x="42.18" y="15.16" width="34.1" height="27.31"/></clipPath></defs><g id="Camada_2" data-name="Camada 2"><g id="Camada_1-2" data-name="Camada 1"><g class="cls-2"><path class="cls-3" d="M14.88,273.89c.09,1.15-2.19,3-3,3.93s-.63,1.37-.63,1.37-2.75,2.33-2.57,2.6.23.32.38.24a2,2,0,0,0,.31-.38.34.34,0,0,1,.27.05c.14.09-.27,1-.45,1.37s-1.83,2.56-1.74,3,.28.42.28.42a14,14,0,0,1-.83,1.78,10.39,10.39,0,0,0-2.64,2.6c-1,1.64-.82,1.82-1.56,2.55a4.09,4.09,0,0,0-1.28,2.93s-1.19.54-1.14,1.14-.18,1.69.23,1.69,12.06,1.1,15.12,1.1,4.79-.56,5.16-2,.41-2.57.51-2.74a13,13,0,0,1,2.46-.14A39.42,39.42,0,0,0,28.44,293c.37-.42-.13-2.84-.08-4.44s-.55-1.59-.55-1.59.73-3.66-.73-5.26,0-8.45-4.44-9.41a10.25,10.25,0,0,0-7.76,1.6" transform="translate(-0.29 -0.23)"/><path class="cls-3" d="M53.61,277.13s-1.42,4.25-.14,6.72a1.07,1.07,0,0,0-.92.79c-.12.7,0,3.58,0,4.49s.58,1.44,1.44,1.93,1.81,1,1.81,1l1.36,0a10.1,10.1,0,0,0-.37,2.34c0,1.07.08,1.16.94,1.93s3.21,1.16,5.84,1,12.22-1.19,12.37-1.48a4.51,4.51,0,0,0,0-2.59,3.41,3.41,0,0,0-1.16-1.64,13.24,13.24,0,0,0-2.1-5.76,51.34,51.34,0,0,1-4.1-6.41c-.5-.95,1.27,1-1-3.25s-6.42-6.66-9.58-4.93-4.37,5.89-4.37,5.89" transform="translate(-0.29 -0.23)"/><path class="cls-4" d="M49.18,270.37c0,2.14.62,2.63,1.32,3.86s1.4,1.65,1.64,2.31a9,9,0,0,0,.62,1.39c.41.84.21,1.21,1.52.91s5.75-2.88,7.2-3.12,1.59-.33,2.5-.45a4.41,4.41,0,0,1,2.18.24c.58.21.16.42,1.11,1.07s1.15,1.45,1.64-.53a14.26,14.26,0,0,1,.62-2.51c.5-1.31.37-1.06.75-2.05s.9-1.19.41-2.52a4.58,4.58,0,0,0-1.28-2.17c-.62-.62-.57-.87.37-2.3s2.14-1.32,2.3-4a10.24,10.24,0,0,0-.21-3.75c-.12-.82.25-1.81.3-3.82s.57-2.3.44-3.79a71.23,71.23,0,0,1,.54-9c.33-2.76.58-2.55.74-4.37a52.06,52.06,0,0,1,1-7.23c.82-4.35.9-3.82.74-6.33s-.37-2.92-1.07-3.87A8.88,8.88,0,0,0,73.48,217c-.29-.26.25-.58.25-1.65S77,174.45,70.52,172.6,38.65,174,34.83,178.85,16.7,207.71,16.37,210.06s-.66,2.63,0,3.78,1,1.23.29,2.88a10.63,10.63,0,0,0-1,2.71,7.35,7.35,0,0,1-.49,1.85A4.72,4.72,0,0,0,13.9,224a15.36,15.36,0,0,1-.32,3.65,13.56,13.56,0,0,0-.17,3.58c0,1.19-.2,1.31-.2,2.26a21.23,21.23,0,0,0-.33,2.6A14.43,14.43,0,0,1,13,240a26.77,26.77,0,0,0-.17,4.35c.09.91,0,.46-.24,2.47s-.7,2.1-.46,5.51.46,3.95.46,5.72a8.37,8.37,0,0,0,.57,3.58c.54,1.72.58,2.14.95,3.25s-.08,1.26-.74,2.67a6.16,6.16,0,0,1-.9,1.64c-.54.78-.46.62-.79,2.14s0,1.6.17,3.74-.21,3.17.57,2.84a9.79,9.79,0,0,1,4-.21c1.89.12,2.92,1.2,5.63,2.88s2.55,1.65,3.91,2.09,1.73.58,2.1-.69.74-1.2,1.23-3.17,2.34-7.93,2.64-9.75a77.34,77.34,0,0,0,1.35-9.12c.16-3.45.58-7.49.7-10.48s.82-6.25,1-11.19,0-3.82.2-5.55-.37-2,.17-3.17.66-4,.78-6.37.45-2.75.08-4.15a5.1,5.1,0,0,1,0-2.92c.2-1.32.29-.66,1.23-2.1s9-3,11.39-4.8,6.7,1.89,6.38,4.85-.17,5.54-.5,7.56a9.55,9.55,0,0,0,0,3c0,.71-.37.83-.86,1.81s-.17,1.07-.37,3.34,0,1.88-.17,3.81a28.2,28.2,0,0,0,.12,6.63,5,5,0,0,1,0,3.24c-.33,1.2-.21.78-1.2,3.7s-1.27,3.75-1.27,4.81-1.11,3.58-1.23,5.64-1,4.73-.91,7.52.41,3.82.41,5.22" transform="translate(-0.29 -0.23)"/><path class="cls-5" d="M49.18,270.37c0,2.14.62,2.63,1.32,3.86s1.4,1.65,1.64,2.31a9,9,0,0,0,.62,1.39c.41.84.21,1.21,1.52.91s5.75-2.88,7.2-3.12,1.59-.33,2.5-.45a4.41,4.41,0,0,1,2.18.24c.58.21.16.42,1.11,1.07s1.15,1.45,1.64-.53a14.26,14.26,0,0,1,.62-2.51c.5-1.31.37-1.06.75-2.05s.9-1.19.41-2.52a4.58,4.58,0,0,0-1.28-2.17c-.62-.62-.57-.87.37-2.3s2.14-1.32,2.3-4a10.24,10.24,0,0,0-.21-3.75c-.12-.82.25-1.81.3-3.82s.57-2.3.44-3.79a71.23,71.23,0,0,1,.54-9c.33-2.76.58-2.55.74-4.37a52.06,52.06,0,0,1,1-7.23c.82-4.35.9-3.82.74-6.33s-.37-2.92-1.07-3.87A8.88,8.88,0,0,0,73.48,217c-.29-.26.25-.58.25-1.65S77,174.45,70.52,172.6,38.65,174,34.83,178.85,16.7,207.71,16.37,210.06s-.66,2.63,0,3.78,1,1.23.29,2.88a10.63,10.63,0,0,0-1,2.71,7.35,7.35,0,0,1-.49,1.85A4.72,4.72,0,0,0,13.9,224a15.36,15.36,0,0,1-.32,3.65,13.56,13.56,0,0,0-.17,3.58c0,1.19-.2,1.31-.2,2.26a21.23,21.23,0,0,0-.33,2.6A14.43,14.43,0,0,1,13,240a26.77,26.77,0,0,0-.17,4.35c.09.91,0,.46-.24,2.47s-.7,2.1-.46,5.51.46,3.95.46,5.72a8.37,8.37,0,0,0,.57,3.58c.54,1.72.58,2.14.95,3.25s-.08,1.26-.74,2.67a6.16,6.16,0,0,1-.9,1.64c-.54.78-.46.62-.79,2.14s0,1.6.17,3.74-.21,3.17.57,2.84a9.79,9.79,0,0,1,4-.21c1.89.12,2.92,1.2,5.63,2.88s2.55,1.65,3.91,2.09,1.73.58,2.1-.69.74-1.2,1.23-3.17,2.34-7.93,2.64-9.75a77.34,77.34,0,0,0,1.35-9.12c.16-3.45.58-7.49.7-10.48s.82-6.25,1-11.19,0-3.82.2-5.55-.37-2,.17-3.17.66-4,.78-6.37.45-2.75.08-4.15a5.1,5.1,0,0,1,0-2.92c.2-1.32.29-.66,1.23-2.1s9-3,11.39-4.8,6.7,1.89,6.38,4.85-.17,5.54-.5,7.56a9.55,9.55,0,0,0,0,3c0,.71-.37.83-.86,1.81s-.17,1.07-.37,3.34,0,1.88-.17,3.81a28.2,28.2,0,0,0,.12,6.63,5,5,0,0,1,0,3.24c-.33,1.2-.21.78-1.2,3.7s-1.27,3.75-1.27,4.81-1.11,3.58-1.23,5.64-1,4.73-.91,7.52S49.18,269,49.18,270.37Z" transform="translate(-0.29 -0.23)"/><path class="cls-6" d="M54.73,2.18Z" transform="translate(-0.29 -0.23)"/><path class="cls-7" d="M101.14,132c-.52-4.47-.89-4.33-.7-7.33s.94-7.45,0-10a18.16,18.16,0,0,1-1-3.39,4.55,4.55,0,0,0-.15-1h0s.15-4.44-.72-6.68c-.06-.17-.13-.32-.19-.48a.8.8,0,0,0,0-.15c-.62-3-1.43-11.44-1.75-12.42a3.22,3.22,0,0,1-.22-2,9.16,9.16,0,0,0,0-3,15.1,15.1,0,0,1-.22-3.25c0-1.52.11-1.63.11-2.82s0-11.44-.43-13.88c-.26-1.46-1.52-5.86-2.5-6.94s-1.19-2.5-2.82-3.48-7-5.21-9.43-6.61c-1.78-1-6.73-4.23-7.81-4.45-1.64-.33-1.45-1.41-2.28-2.38-1.3-1.52-2.06-1.52-3-3.91s-12.79-4-15.18-2.71-4.12,1.52-5.2,3.25-4.12,3.58-4.45,4.23-5.86,2.06-7.81,3.26-8.24,3-9.54,3.68c-3.44,1.74-6.37,6.11-7.27,8.25C16.59,62.27,16,76.73,16,78.9s-1.41,5.53-1.52,6.94.11,2.82-.44,3.47a7,7,0,0,0-1.41,3c0,1.28-.43,4.45-.76,4.78a11.91,11.91,0,0,0-1.08,4.12c0,1.08-.33,1.3-.33,2.06,0,0-1.11,9.27-3.18,15.35-.85,2.48-1.6,10.17-1.67,13.34s-.13,4.84-.67,6.47.45,5.24,1.54,5.94c.36.24,7.17.74,8.9.11,1.4-.51,1.86-2.07,2.44-3.81.41-1.25,1.15-2.46,1.11-4.07-.09-3.86,1.52-5.75,2.32-8.24s2-10.67,2-10.67a76,76,0,0,0,3-10.55,3,3,0,0,0,.07-.4,19.28,19.28,0,0,0,.32-2.49,13.29,13.29,0,0,0,.11-3c-.09-.64.48-1.66.68-2.66.28-1.39.29-2.73.73-3,.76-.44,1.3-2.17,1.3-2.17a4.3,4.3,0,0,1,.11,1.19,68.1,68.1,0,0,0,.26,7.41c-.35,2.4-.76,7-.94,7.59a28.66,28.66,0,0,0-.94,5.56c0,1.7.41,5.29.41,7.52s1.77,2.49,2,3.92-3.19,8.93-3.67,10.74-1.11,2-1.86,3.61.21,4.31.21,4.31-.42,1-1.27,3.87-.27,2.77-.58,4.09a20.53,20.53,0,0,1-.8,2.77c-.32.85-.7,1.54-1.17,2.92a7.94,7.94,0,0,0-.43,3.51,74.61,74.61,0,0,1-1.17,11.15c-.79,4.2-1.06,10.84-1.86,15.73s-.37,9.51-.58,10.68a48.55,48.55,0,0,1-1.39,4.78c-1.05,3.62-6.17,40.89-6.38,42.28s.05.84.53.79,0,0,.9.37,4.78.38,11,1.18,24.92,1.22,30.66,1.53,18.43.64,21.52.64,6.43-.42,6.75-.9.21-.75.16-1.7,5.43-36.32,5.43-40.73-.48-7.23,0-11.85a167.58,167.58,0,0,0,.16-18.71c-.21-5.36.42-7.22,0-10.73s.1-3.82-.43-9.56-.26-5.31-.11-7.71-1.06-6.42-1.12-7.38a36.6,36.6,0,0,0-.9-5.85c-.58-2.44-2.13-8-1.6-8.86s.76-4.7.92-6.4A21.37,21.37,0,0,0,82,113.58c-.74-1.49-.35-2.2-.46-3a13,13,0,0,0-.26-2.12h0a56,56,0,0,1-.09-6.22c.3,1.14.72,2.47.85,2.93a12.11,12.11,0,0,1,.4,3.73,12.49,12.49,0,0,0,.8,3.52l.28,1.25a.38.38,0,0,1,0,.1,36.28,36.28,0,0,0,1.12,7.23h0a53.3,53.3,0,0,1,.42,5.47c0,3.54,3,10.68,3.6,14.55a8.54,8.54,0,0,0,3.41,5.66l8.35-.79s1.08-.6,1.41-5.8c.16-2.48-.18-3.69-.71-8.15M81.76,93.31c0-.24.07-.33.07-.17a.25.25,0,0,1-.07.17" transform="translate(-0.29 -0.23)"/><path class="cls-8" d="M77.84,165.65a12.81,12.81,0,0,1-3.88-.39c-.91-.28-2.9-1.25-3.53-2.79a4.35,4.35,0,0,1,0-3.15c.1-.4,1.76-4.37,2-4.93s.84-2.26,1.12-2.94a17,17,0,0,0,.75-3.33c.16-1.18-.87-4.88-1.16-5.67a36.44,36.44,0,0,0-2.61-5c-.75-1.07-.87-.91-.93-1.42a32.55,32.55,0,0,0-.93-5.14s2.91,3.2,4.07,3.81a8.59,8.59,0,0,0,3.8.6,1.64,1.64,0,0,0,1.54-.76,1.12,1.12,0,0,0-.29-1.21,15.55,15.55,0,0,0-1.9-2.27,6.69,6.69,0,0,0-2.87-1.75l-.34-.11s6.84-.29,8.53-.31c.84,0,.93.11,1.15.25s.13-1.26-.13-1.53-1-.14-1-.14l-6.17.23c-1,0-6.47.17-6.47.17l-.09,0h-.11c-.77-.07-2,0-2.1.26h0a3.07,3.07,0,0,0-.84.08l-.12,0a2.18,2.18,0,0,0-.89-.1,1,1,0,0,0-.34.35h0s-.71-.55-3.92-.75-20.07-.85-21.35-.88a36.3,36.3,0,0,1-5.08-.66c-.58-.18-3.54-.42-3.54-.42s-.51,1.14.14,1.33,4.59.63,5.81.76,7.44.38,10,.52,7.22.48,7.48.44,6.3,0,7.31,0a8.89,8.89,0,0,1,2.84.22h0a1.12,1.12,0,0,0-.06.23v0l-.2.23a6.08,6.08,0,0,1-3.65,1.19c-2.28,0-4.22.71-5,1.93a5.73,5.73,0,0,0,0,4.94c.71,1.09-.29,1.69-.31,3.11A2.31,2.31,0,0,0,57,142.72c.84-.06,1.56-1,2.15-2.2a11.76,11.76,0,0,0,.86-2.2,9.37,9.37,0,0,1,.29-2.17c.75-1.87,1.72-5.28,2.21-5.36l-.13,0,.36-.15,0,.11c-.8.73-1.54,3.64-1.72,4.7s-.15,4.64-.22,5.46a32.71,32.71,0,0,0,.23,4.68c.22,2.15.27,2.87.38,3.69s.17,5.57.23,6.78a16.68,16.68,0,0,0,1.16,4,3.46,3.46,0,0,0,1.76,1.62c.52.24,2.32,1.23,2.32,1.23a10,10,0,0,1,2.7,3.53,11.86,11.86,0,0,1,.83,2.9c.14,1.25-2,1.52-2.44,1.77s-4.87,3-4.87,3l1.74.57s4.89-3,5.07-3.19,2-1.91.31-5.43-3.12-3.79-4.41-4.12-2.23-3.87-2.65-4.8a11.75,11.75,0,0,1-.49-3,21.19,21.19,0,0,1,.06-2.6,20.5,20.5,0,0,0-.3-2.85,29.87,29.87,0,0,1,0-3.94s-.6-7.12.39-10.81c.77-2.89,1.37-3.57,1.6-3.73a1.23,1.23,0,0,0,.38-.07,2.59,2.59,0,0,0,1.08-.73c0-.28-.15-.32-.15-.32a1,1,0,0,1,1,.28c.43,1.15,1.14,4.75,1.24,5.21a6.91,6.91,0,0,0,.53,2.26,36.89,36.89,0,0,1,3.85,7.32c.7,2.39,1.15,4.91.91,6.16a15.5,15.5,0,0,1-1.27,4.18,29.42,29.42,0,0,0-2.44,5.77,4.72,4.72,0,0,0,2.34,4.85,12.42,12.42,0,0,0,7.74,1c2.23-.35,3.62-.62,3.62-.62l.38-.86s-4.71.89-5.7,1M61.39,131.18A29.49,29.49,0,0,1,60.21,134a9.22,9.22,0,0,0-1,3.38c0,.82-.83,4.48-2,4.67-1.51.24-2.19-1.55-1.65-2.92.27-.68.67-1,0-2.14a4.12,4.12,0,0,1-.4-3.85c.92-2.12,3.18-1.65,4.86-1.73a5.77,5.77,0,0,0,1.1-.19l.27-.1Zm11.92-.61a4.2,4.2,0,0,0,1.49,1.09c.32,0,1,.65,1.29,1s1.67,1.19,1.63,1.45a.59.59,0,0,1-.6.58,12.67,12.67,0,0,1-3.2-.15c-.94-.25-1.2-.41-2.44-1.58s-2.77-2.67-3.08-3h0q-.14-.3-.27-.54h0l3.35-.17a11,11,0,0,1,1.83,1.33" transform="translate(-0.29 -0.23)"/><path class="cls-8" d="M6.48,144.4v1.39a53.8,53.8,0,0,0,9.07-.1l.54-.14-.1-1.33a31.65,31.65,0,0,1-9.51.18" transform="translate(-0.29 -0.23)"/><path class="cls-8" d="M48.31,41.65s1.14,6.77,10.24,7.09c5.76.2,9.28-1.84,11.36-5.67l.17-2.42s.45.5.9,1.05a12.65,12.65,0,0,1,1,1.69c-2.09,4.86-6.26,7.24-12.6,7.4-6,.16-10.18-2.47-12-5.67a6.65,6.65,0,0,1-.27-6.18,5.26,5.26,0,0,1,1.41-1.68Z" transform="translate(-0.29 -0.23)"/><path class="cls-8" d="M91.62,146.37l-.13,1.16s8.37-.51,9.49-.36l-.06-1.11Z" transform="translate(-0.29 -0.23)"/><path class="cls-9" d="M73.77,12c0-.17-.1-.34-.16-.5a2.51,2.51,0,0,1,.25.32,0,0,0,0,0,0,0s.06.1.09.14A.25.25,0,0,1,74,12a1,1,0,0,0-.08-.21c0-.07-.07-.14-.09-.22A2.79,2.79,0,0,1,74,12a2,2,0,0,0-.32-.61l-.2-.41a4.14,4.14,0,0,1,.48.75,2.71,2.71,0,0,0-.59-1l.1,0a.64.64,0,0,0-.13-.15,1.44,1.44,0,0,0-.53-1.31,2.81,2.81,0,0,0-.48-1.59,2.74,2.74,0,0,1,.27,1.44l-.06-.06c0-.09-.09-.16-.12-.23a2.39,2.39,0,0,0-.28-1.37c-.08-.71-.41-.83-.41-.83a1.17,1.17,0,0,1,.25.6.86.86,0,0,0-.13-.14,2.53,2.53,0,0,0-.41-.75,4.21,4.21,0,0,0-1.08-1.26,2,2,0,0,0-1.48-1.38l-.16-.11-.11-.16s0,.08,0,.12l-.28-.18,0,0a.71.71,0,0,0-.1-.14l0,.09c-.1-.09-.2-.18-.32-.27a1.86,1.86,0,0,0-1.47-1,1.25,1.25,0,0,0-.23-.2l.17.19s0,0-.06,0L66.28,2a2.34,2.34,0,0,0-1.41-.67A1.19,1.19,0,0,0,64.48,1a.12.12,0,0,1,0-.05l0,0A1.64,1.64,0,0,0,64.11,1L64,.9a2.61,2.61,0,0,0-.27-.19,1.47,1.47,0,0,1,.14.14A3.84,3.84,0,0,0,62.15.63.61.61,0,0,1,62,.6a1.65,1.65,0,0,0-2-.06c0-.07,0-.13,0-.18V.55l0,0a1.52,1.52,0,0,0-.56-.25,1.32,1.32,0,0,1,.33.17A2.68,2.68,0,0,0,58.55.33a.7.7,0,0,1-.12,0l.08,0L58.07.4a5.1,5.1,0,0,0-.9.24,3.16,3.16,0,0,0-.7-.21A2.31,2.31,0,0,1,57,.68a4.26,4.26,0,0,0-1.45.09,4.11,4.11,0,0,1,.85.06,2.45,2.45,0,0,0-.37.08,2.14,2.14,0,0,0-1.44.45,3.89,3.89,0,0,1,.56-.12,2.91,2.91,0,0,0-.35.2,3.56,3.56,0,0,0-1.22.44,6,6,0,0,1,1-.28h0a2.06,2.06,0,0,0-1.12.7l-.22.16a1.77,1.77,0,0,0-.36.2,4.36,4.36,0,0,0-.8.16l.12-.13L52,2.87l-.13,0a1.22,1.22,0,0,0-.31.06l0,0,0,0a.74.74,0,0,0-.32.21A1.74,1.74,0,0,0,50,3.76l-.1.05h-.06A1.28,1.28,0,0,1,50,3.63a.76.76,0,0,0-.2.18,1.38,1.38,0,0,0-1.22.9L48.27,5l0-.08L48.22,5l0,0L48,5.18l0-.11-.08.14-.13.1a1.46,1.46,0,0,0-1.21,1.23,3.08,3.08,0,0,0-.85,1.14,2.14,2.14,0,0,0-.3.68,1.13,1.13,0,0,0-.1.13,1.07,1.07,0,0,1,.16-.55s-.28.1-.28.77A2.23,2.23,0,0,0,45.09,10a2.2,2.2,0,0,0-.09.21s0,0,0,.05a2.41,2.41,0,0,1,.09-1.34,2.38,2.38,0,0,0-.27,1.47,1.26,1.26,0,0,0-.35,1.21.56.56,0,0,0-.1.14l.09,0a2.14,2.14,0,0,0-.44.88,3,3,0,0,1,.36-.69c-.05.12-.09.25-.14.38a1.48,1.48,0,0,0-.22.57,1.94,1.94,0,0,1,.13-.33c0,.06,0,.13-.06.2a.49.49,0,0,0,0,.2.78.78,0,0,1,0-.09s0-.08.07-.12,0,0,0,0a1.49,1.49,0,0,1,.2-.29c0,.15-.08.3-.11.46a1.72,1.72,0,0,0-.19.48.69.69,0,0,1,.16-.28,5.4,5.4,0,0,0-.1,1.48,6.51,6.51,0,0,1,.25-1.59l.08,0c0,.14,0,.28-.06.4a3.73,3.73,0,0,0-.1,1.53.06.06,0,0,0,0,0,1.79,1.79,0,0,0,0,.92,3.05,3.05,0,0,1,0-.47l0,.3c0,.52-.07,1-.08,1.34a2.46,2.46,0,0,1,.17-.53,1.94,1.94,0,0,1,0,.24,1.74,1.74,0,0,0-.15.67,1.61,1.61,0,0,1,.13-.33,3.59,3.59,0,0,0,0,1.62,2.45,2.45,0,0,1,0-.82l0,.16a.85.85,0,0,0,0,.16,4.34,4.34,0,0,0,.12,1.34,3.57,3.57,0,0,1,0-1,0,0,0,0,0,0,0,1.66,1.66,0,0,0,0,.22,4.28,4.28,0,0,0,0,.71,1,1,0,0,1,.06-.26c0,.12,0,.24,0,.37a7.68,7.68,0,0,0,.13,1.23c-.38,0-.85.3-.7,1.57.24,2.06-.39,3.88.24,5.58s.76,2.06,1.34,2.54.8.52,1.3.15.56.33.56.33S48,34,48.29,35a23.76,23.76,0,0,1,.22,3.46l-.14,3.14S49.2,49,59.53,49c5.75,0,9.06-2.66,10.79-6.65V41.7l0-1.8a43,43,0,0,1-.12-4.81,17.42,17.42,0,0,0,1.09-4.47c0-1.7.64.64,1.53-1.36s1.22-3,1.09-4.42c-.08-1-.19-1.44-.2-2.2a11,11,0,0,0-.09-1.32,4.56,4.56,0,0,0,.48-2.27c0-.12,0-.26,0-.39a1,1,0,0,1,.09.28,4.82,4.82,0,0,0-.1-.76c0-.08,0-.16,0-.23s0,0,0,0A3.62,3.62,0,0,1,74.15,19a3.68,3.68,0,0,0,0-1.43,1,1,0,0,0,0-.17.91.91,0,0,0,0-.17,2.54,2.54,0,0,1,.16.89,3.94,3.94,0,0,0-.18-1.74,2.07,2.07,0,0,1,.2.37A2,2,0,0,0,74,16a2.44,2.44,0,0,1,0-.27,2.45,2.45,0,0,1,.25.58c0-.36-.14-.87-.25-1.43,0-.11,0-.21,0-.32a2.59,2.59,0,0,1,.06.49,2,2,0,0,0-.09-1,.08.08,0,0,0,0,0,4.36,4.36,0,0,0-.3-1.63c0-.15-.07-.29-.12-.44l.1,0a8,8,0,0,1,.47,1.72,6.7,6.7,0,0,0-.29-1.58.91.91,0,0,1,.21.3,1.63,1.63,0,0,0-.28-.52M47.2,5.9l0-.08L47.15,6a2.5,2.5,0,0,0-.23.39l-.12,0a1.54,1.54,0,0,1,.89-1,3.39,3.39,0,0,0-.49.51m1.88-1.53h0a.33.33,0,0,1,.06-.11L49,4.41a1.29,1.29,0,0,0-.16.09l0,0,0,0a1.22,1.22,0,0,1,.37-.35.82.82,0,0,0-.12.23M49.61,4l-.18.2-.16.06L49.41,4,49.64,4s0,0,0,0m1.55-.76-.36.21a.75.75,0,0,0-.18.07,1.13,1.13,0,0,1,.16-.18.82.82,0,0,0-.28.25l-.08,0-.09,0a2.22,2.22,0,0,1,.45-.31h0a1.14,1.14,0,0,1,.4-.11h0m3-1.26A.49.49,0,0,0,54,2a2.26,2.26,0,0,1,.26-.14s0,.06-.09.08m.12,0a.53.53,0,0,1,.12-.1l.11,0a1.09,1.09,0,0,0-.23.14m7-1.39a2.1,2.1,0,0,0-.76-.11,1.52,1.52,0,0,1,1.06.11h-.3m4.47,1.23-.09-.05a1.72,1.72,0,0,0-.35-.28h0a1.47,1.47,0,0,1,.22.2l-.22-.08-.43-.25h0a1.58,1.58,0,0,1,.45.14,0,0,0,0,1,0,0s0,0,0,0a2.21,2.21,0,0,1,.54.36.29.29,0,0,1-.1,0M67,2.45a2.55,2.55,0,0,0-.24-.23s0,0,0,0a2.5,2.5,0,0,1,.25.09,1.37,1.37,0,0,1,.18.24L67,2.45m.69.35-.2-.11-.15-.15a.8.8,0,0,1,.08.13h0a2.22,2.22,0,0,0-.16-.25,1.51,1.51,0,0,1,.45.4l0,0,0,0M70,4.9a3.41,3.41,0,0,0-.3-.44,1.3,1.3,0,0,1-.1-.15.19.19,0,0,0,0,.09A3.78,3.78,0,0,0,69,3.81,2.13,2.13,0,0,1,70.12,5,.59.59,0,0,0,70,4.9" transform="translate(-0.29 -0.23)"/><path class="cls-10" d="M70.24,40.12a.76.76,0,0,0,0-.15l0,1.81c0-.5,0-1.05,0-1.66" transform="translate(-0.29 -0.23)"/><path class="cls-11" d="M48.15,38.16c-1.09,1.74-4.71,3.75-5,4.4s-5.86,2.06-7.81,3.26-8.24,3-9.54,3.68c-3.44,1.74-6.37,6.11-7.27,8.25C16.59,62.27,16,76.73,16,78.9s-1.41,5.53-1.52,6.94.11,2.82-.44,3.47a7,7,0,0,0-1.41,3c0,1.28-.43,4.45-.76,4.78a11.91,11.91,0,0,0-1.08,4.12c0,1.08-.33,1.3-.33,2.06,0,0-1.11,9.27-3.18,15.35-.85,2.48-1.6,10.17-1.67,13.34s-.13,4.84-.67,6.47.45,5.24,1.54,5.94c.36.24,7.17.74,8.9.11,1.29-.47,1.41-1.55,2-3.09.51-1.33,1.87-4.27,1.83-6-.09-3.86,1.24-4.49,2-7s2-10.67,2-10.67a76,76,0,0,0,3-10.55,3,3,0,0,0,.07-.4,19.2,19.2,0,0,0,.32-2.5,13.18,13.18,0,0,0,.11-3c-.09-.64.48-1.66.68-2.66.28-1.39.29-2.73.73-3,.76-.44,1.3-2.17,1.3-2.17a4.22,4.22,0,0,1,.11,1.19,68.1,68.1,0,0,0,.26,7.41c-.35,2.4-.76,7-.94,7.59a28.66,28.66,0,0,0-.94,5.56c0,1.7.41,5.29.41,7.52s1.77,2.49,2,3.92-3.19,8.93-3.67,10.74-1.11,2-1.86,3.61.21,4.31.21,4.31-.42,1-1.27,3.87-.27,2.77-.58,4.09a20.53,20.53,0,0,1-.8,2.77c-.32.85-.7,1.54-1.17,2.92a7.94,7.94,0,0,0-.43,3.51,74.61,74.61,0,0,1-1.17,11.15c-.79,4.2-1.06,10.84-1.86,15.73s-.37,9.51-.58,10.68-.32,1.17-1.38,4.78-6.18,40.89-6.39,42.28.05.84.53.79,0,0,.9.37,4.78.38,11,1.18,24.92,1.22,30.66,1.53,18.43.64,21.52.64,6.43-.42,6.75-.9.21-.75.16-1.7,5.43-36.32,5.43-40.73-.48-7.23,0-11.85a167.58,167.58,0,0,0,.16-18.71c-.21-5.37.42-7.22,0-10.73s.1-3.82-.43-9.56-.26-5.31-.1-7.71-1.07-6.42-1.12-7.38a39.12,39.12,0,0,0-.9-5.85c-.59-2.44-2.14-8-1.61-8.86s.76-4.7.92-6.4A21.37,21.37,0,0,0,82,113.58c-.74-1.49-.35-2.2-.46-3a13,13,0,0,0-.26-2.12h0a56,56,0,0,1-.09-6.22c.3,1.14.72,2.47.85,2.93a12.11,12.11,0,0,1,.4,3.73,12.49,12.49,0,0,0,.8,3.52l.28,1.25a.38.38,0,0,1,0,.1,35.73,35.73,0,0,0,1.13,7.23c.22,2,.41,4,.41,5.47,0,3.54,3,10.68,3.6,14.55a8.54,8.54,0,0,0,3.41,5.66l8.35-.79s1.08-.6,1.41-5.81c.16-2.47-.18-3.68-.7-8.14s-.9-4.33-.71-7.34.94-7.44,0-10a18,18,0,0,1-1-3.4,4,4,0,0,0-.15-1h0s.15-4.44-.72-6.68c-.06-.17-.13-.32-.19-.48a.8.8,0,0,0,0-.15c-.62-3-1.43-11.44-1.75-12.42a3.22,3.22,0,0,1-.22-2,9.16,9.16,0,0,0,0-3,15.1,15.1,0,0,1-.22-3.25c0-1.52.11-1.63.11-2.82s0-11.44-.43-13.88c-.26-1.46-1.52-5.86-2.5-7s-1.19-2.49-2.82-3.47-7-5.21-9.43-6.61c-1.78-1-6.73-4.23-7.81-4.45-1.64-.33-1.75-1.17-2.58-2.15" transform="translate(-0.29 -0.23)"/><path class="cls-11" d="M29.07,94.38a15.58,15.58,0,0,0,1.34-6.77A15.86,15.86,0,0,1,31.59,81l1.17-5.42" transform="translate(-0.29 -0.23)"/><path class="cls-11" d="M81.2,102.29,81,98.15s-.3-2.05-.59-5.42-.15-2.78-.88-5-.29-2.93,0-5.27.44-6.15.44-6.15" transform="translate(-0.29 -0.23)"/><path class="cls-12" d="M72,30.15c-.68,2-.42,3.92-1.7,6.09a.16.16,0,0,1-.15.09.11.11,0,0,1-.08,0,.18.18,0,0,1-.07-.24c1.19-2,.94-3.92,1.66-6" transform="translate(-0.29 -0.23)"/><path class="cls-12" d="M73.78,20.87c-.09-.12-.36-.1-.47-.08-1.07.13-2.41,2.34-3.77,6.23a.17.17,0,0,0,.1.22.19.19,0,0,0,.23-.11c1-2.81,2.42-5.87,3.48-6a.61.61,0,0,1,.3,0s.24-.11.13-.28" transform="translate(-0.29 -0.23)"/><path class="cls-12" d="M47.31,30.46a17.54,17.54,0,0,0,2.17,5.6.18.18,0,0,1-.06.24.16.16,0,0,1-.09,0,.16.16,0,0,1-.15-.09A18,18,0,0,1,47,30.59s.13-.21.32-.13" transform="translate(-0.29 -0.23)"/><path class="cls-12" d="M44.78,20.71h.15c1,.15,3.9,3.95,4.69,6.42a.16.16,0,0,0,.21.11A.17.17,0,0,0,50,27c-1.09-3.37-3.94-6.51-5-6.65-.09,0-.27-.1-.3,0a.3.3,0,0,0,.1.33" transform="translate(-0.29 -0.23)"/><path class="cls-13" d="M49.2,36.43q10.54,6.85,21.08,0c-1-2.56-1-7,0-10.39l-5.86-1.18a20.54,20.54,0,0,0-9.36,0L49.2,26a22.11,22.11,0,0,1,0,10.39" transform="translate(-0.29 -0.23)"/><path class="cls-12" d="M59.74,39.56h0a18.89,18.89,0,0,1-10.1-3.19l-.11-.06,0-.13a22.67,22.67,0,0,0,0-9.74l0-.18,5.56-1.12a20.44,20.44,0,0,1,9.25,0l5.56,1.12,0,.18a19.92,19.92,0,0,0,0,9.75l.05.12-.12.08a18.89,18.89,0,0,1-10.07,3.17m-9.81-3.41a18.59,18.59,0,0,0,9.81,3.07,18.42,18.42,0,0,0,9.77-3.06,20.42,20.42,0,0,1,0-9.63l-5.2-1.05A21.63,21.63,0,0,0,59.72,25a21.37,21.37,0,0,0-4.54.52L50,26.53a23.07,23.07,0,0,1,0,9.62" transform="translate(-0.29 -0.23)"/><g class="cls-14"><g class="cls-15"><g class="cls-16"><path class="cls-12" d="M49.81,32a17.42,17.42,0,0,1-.61,4.39q10.54,6.85,21.08,0A13.85,13.85,0,0,1,69.57,32a26.52,26.52,0,0,1-19.76,0" transform="translate(-0.29 -0.23)"/></g></g></g><path class="cls-12" d="M67.12,32a19.18,19.18,0,0,1-3.64.9,25.64,25.64,0,0,1-7.49,0A20,20,0,0,1,52.34,32c1.26,0,2.49,0,3.72,0l3.67,0c1.22,0,2.44,0,3.67-.05S65.86,32,67.12,32" transform="translate(-0.29 -0.23)"/><path class="cls-12" d="M67.12,28.22c-1.26,0-2.49,0-3.72-.06s-2.45-.05-3.67-.05-2.44,0-3.67,0-2.46.06-3.72,0A18.49,18.49,0,0,1,56,27.29a25.64,25.64,0,0,1,7.49,0,19.18,19.18,0,0,1,3.64.9" transform="translate(-0.29 -0.23)"/><path class="cls-12" d="M67.12,35a12.26,12.26,0,0,1-3.47,1.83,12.63,12.63,0,0,1-3.91.66,12.38,12.38,0,0,1-7.4-2.44,34.85,34.85,0,0,0,3.69,1,19.37,19.37,0,0,0,3.71.37,17.74,17.74,0,0,0,3.69-.4,36.87,36.87,0,0,0,3.69-1" transform="translate(-0.29 -0.23)"/><path class="cls-17" d="M16.78,142.24c.85.11-.74,1.8-.86,2.71-.24,1.82,1.8,3.71,2.56,6.7s.47,2.23.64,4.86.53,2.87.71,4.68.93,3.05.23,3.52-1.46.64-2.75-.82-1.41-4.63-1.35-5.8-.11-.53-.76-.17-.64,0-.76.7a4,4,0,0,0-.18,1.46c.06.82-.52.94-.11,1.93a9.33,9.33,0,0,1,.52,2.34,2.64,2.64,0,0,1,1.53.06c.76.3.58,1.23.58,1.23,2.52,0,2.11,1.58,2.11,1.58.35.71-.06,1.76-.94,1.47a3.31,3.31,0,0,0-1.75-.06c-.65.47-1.12.29-1.88.23s-1.46-.64-2.92-.76a1.63,1.63,0,0,1-1.64-1.23c-1.41.41-1.76-1.11-1.88-1.52A6.61,6.61,0,0,1,7.3,164C7,162.83,6.71,161.43,6,159.2s-.06-2.75.29-4.56,0-4.34.24-5.68.23-1.41.41-2.52c.12-.75-1.34-2.07-1.25-3.45a38,38,0,0,1,11.14-.75" transform="translate(-0.29 -0.23)"/><path class="cls-18" d="M16.78,142.24c.85.11-.74,1.8-.86,2.71-.24,1.82,1.8,3.71,2.56,6.7s.47,2.23.64,4.86.53,2.87.71,4.68.93,3.05.23,3.52-1.46.64-2.75-.82-1.41-4.63-1.35-5.8-.11-.53-.76-.17-.64,0-.76.7a4,4,0,0,0-.18,1.46c.06.82-.52.94-.11,1.93a9.33,9.33,0,0,1,.52,2.34,2.64,2.64,0,0,1,1.53.06c.76.3.58,1.23.58,1.23,2.52,0,2.11,1.58,2.11,1.58.35.71-.06,1.76-.94,1.47a3.31,3.31,0,0,0-1.75-.06c-.65.47-1.12.29-1.88.23s-1.46-.64-2.92-.76a1.63,1.63,0,0,1-1.64-1.23c-1.41.41-1.76-1.11-1.88-1.52A6.61,6.61,0,0,1,7.3,164C7,162.83,6.71,161.43,6,159.2s-.06-2.75.29-4.56,0-4.34.24-5.68.23-1.41.41-2.52c.12-.75-1.34-2.07-1.25-3.45A38,38,0,0,1,16.78,142.24Z" transform="translate(-0.29 -0.23)"/><path class="cls-17" d="M101.51,142.33c1.33,0-1.11,5.21-.93,6.33s.17,1.17.41,2.51-.12,3.87.23,5.68,1,2.35.29,4.57-1.05,3.63-1.34,4.74a6.58,6.58,0,0,1-.59,1.41c-.12.41-.47,1.93-1.87,1.52a1.64,1.64,0,0,1-1.64,1.23c-1.47.12-2.17.7-2.93.76s-1.23.23-1.87-.23a3.41,3.41,0,0,0-1.76.05c-.88.3-1.29-.76-.93-1.46,0,0-.41-1.58,2.1-1.58,0,0-.17-.94.59-1.23a2.6,2.6,0,0,1,1.52-.06,9.48,9.48,0,0,1,.53-2.34c.41-1-.18-1.11-.12-1.93a3.84,3.84,0,0,0-.18-1.47c-.11-.7-.11-.35-.76-.7s-.82-1-.76.18-.06,4.33-1.34,5.79-2,1.29-2.76.82.06-1.7.24-3.51.53-2,.7-4.68-.12-1.88.64-4.86,2.88-5.07,2.64-6.89c-.15-1.17-1-1-1.87-2.89,0,0,2.73-2,11.76-1.76" transform="translate(-0.29 -0.23)"/><path class="cls-18" d="M101.51,142.33c1.33,0-1.11,5.21-.93,6.33s.17,1.17.41,2.51-.12,3.87.23,5.68,1,2.35.29,4.57-1.05,3.63-1.34,4.74a6.58,6.58,0,0,1-.59,1.41c-.12.41-.47,1.93-1.87,1.52a1.64,1.64,0,0,1-1.64,1.23c-1.47.12-2.17.7-2.93.76s-1.23.23-1.87-.23a3.41,3.41,0,0,0-1.76.05c-.88.3-1.29-.76-.93-1.46,0,0-.41-1.58,2.1-1.58,0,0-.17-.94.59-1.23a2.6,2.6,0,0,1,1.52-.06,9.48,9.48,0,0,1,.53-2.34c.41-1-.18-1.11-.12-1.93a3.84,3.84,0,0,0-.18-1.47c-.11-.7-.11-.35-.76-.7s-.82-1-.76.18-.06,4.33-1.34,5.79-2,1.29-2.76.82.06-1.7.24-3.51.53-2,.7-4.68-.12-1.88.64-4.86,2.88-5.07,2.64-6.89c-.15-1.17-1-1-1.87-2.89C89.75,144.09,92.48,142.11,101.51,142.33Z" transform="translate(-0.29 -0.23)"/><g class="cls-19"><g class="cls-20"><g class="cls-21"><path class="cls-13" d="M44.75,16.71s-4.47,19.16-1.61,22.82,29.26,4,32.15.39c2.74-3.48-1.07-21.23-1.07-21.23l.38,1.45s-1.26-5.34-14.66-5c-16.56.47-15.45,2.87-15.45,2.87Z" transform="translate(-0.29 -0.23)"/></g></g></g><path class="cls-22" d="M44.34,18.27s-1.12-2.4,15.45-2.88c13.4-.38,14.66,5,14.66,5l-.39-1.45a20.17,20.17,0,0,0-2.21-6.19c-4-4.71-22.8-3-24.81-1.22-1.46,1.26-2.6,6.19-2.6,6.19Z" transform="translate(-0.29 -0.23)"/><path class="cls-23" d="M44.48,17.92s0-2.21,15.44-2.56c13.4-.3,14.58,5,14.58,5" transform="translate(-0.29 -0.23)"/><path class="cls-23" d="M44.59,17.43s-4.33,18.62-1.47,22.28,29.26,4,32.15.39C78,36.62,74.2,18.87,74.2,18.87" transform="translate(-0.29 -0.23)"/><path class="cls-24" d="M44.47,17.87s1.24-5.15,2.7-6.41C49.18,9.74,68,8,72,12.69a20.22,20.22,0,0,1,2.22,6.18s-1-4.36-7-5.39-14.85-.26-14.85-.26S46,13.72,44.47,17.87Z" transform="translate(-0.29 -0.23)"/></g></g></g></svg>