<?xml version="1.0" encoding="utf-8"?>
<!-- Generator: Adobe Illustrator 23.1.1, SVG Export Plug-In . SVG Version: 6.00 Build 0)  -->
<svg version="1.1" id="Camada_1" xmlns="http://www.w3.org/2000/svg" xmlns:xlink="http://www.w3.org/1999/xlink" x="0px" y="0px"
	 viewBox="0 0 300 300" style="enable-background:new 0 0 300 300;" xml:space="preserve">
<style type="text/css">
	.st0{fill-rule:evenodd;clip-rule:evenodd;fill:#2E7596;}
	.st1{fill-rule:evenodd;clip-rule:evenodd;fill:#49CDDA;}
	.st2{fill-rule:evenodd;clip-rule:evenodd;fill:#F0F5F5;}
</style>
<circle class="st0" cx="150" cy="150" r="149"/>
<path class="st1" d="M192.88,71.18L192.88,71.18c-4.34,4.34-4.34,11.57,0,15.92c16.65,16.65,26.05,39.08,26.05,62.96
	c0,23.52-9.4,45.6-26.05,62.6c-4.34,4.35-4.34,11.58,0,15.93c2.16,2.17,4.71,3.25,7.6,3.25c2.89,0,5.78-1.09,7.95-3.25
	c20.61-20.63,32.56-48.85,32.56-78.53c0-29.67-11.57-57.53-32.56-78.88c-2.18-2.17-4.72-3.26-7.6-3.26h-0.35
	C197.59,67.92,195.04,69.01,192.88,71.18L192.88,71.18z"/>
<path class="st1" d="M160.66,84.93L160.66,84.93c-3.24,3.62-3.24,9.77,0,13.39c14.49,14.11,22.44,33.29,22.44,53.56
	c0,20.26-7.95,39.07-22.44,53.56c-3.24,3.25-3.24,9.4,0,13.38c2.17,1.81,4.37,2.54,6.88,2.54c2.55,0,4.71-0.72,6.51-2.54
	c18.11-17.73,27.88-41.61,27.88-66.94c0-25.33-9.77-48.86-27.88-66.95c-1.79-1.81-3.96-2.9-6.51-2.9l0,0
	C165.03,82.04,162.83,83.12,160.66,84.93L160.66,84.93z"/>
<path class="st1" d="M150.17,105.92L150.17,105.92c-3.61-3.26-9.74-3.26-13.39,0c-3.61,3.98-3.61,10.13,0,13.75
	c17.76,17.73,17.76,46.32,0,64.05c-3.61,3.62-3.61,9.77,0,13.39c2.2,1.81,4.37,2.53,6.89,2.53c2.17,0,4.71-0.72,6.51-2.53
	C175.5,172.14,175.5,131.25,150.17,105.92L150.17,105.92z"/>
<path class="st2" d="M76.72,114.97L76.72,114.97H53.55c-4.68,0-8.3,3.98-8.3,8.32v56.82c0,4.34,3.62,8.32,8.3,8.32h23.17V114.97z"/>
<path class="st2" d="M110.37,92.89l-26.06,19.54v78.52l26.06,19.54c5.44,3.98,13.02,0.36,13.02-6.52V99.41
	C123.39,92.53,115.82,88.91,110.37,92.89L110.37,92.89z"/>
</svg>
