<?xml version="1.0" encoding="utf-8"?>
<!-- Generator: Adobe Illustrator 23.1.1, SVG Export Plug-In . SVG Version: 6.00 Build 0)  -->
<svg version="1.1" id="OBJECTS" xmlns="http://www.w3.org/2000/svg" xmlns:xlink="http://www.w3.org/1999/xlink" x="0px" y="0px"
	 viewBox="0 0 295.81 239.55" style="enable-background:new 0 0 295.81 239.55;" xml:space="preserve">
<style type="text/css">
	.st0{fill:#F0F5F5;}
	.st1{fill:#49CDDA;}
	.st2{fill:#2E7596;}
	.st3{fill:#DE9182;}
	.st4{fill:#C9736D;}
	.st5{fill:#EFB898;}
	.st6{fill:#F2F6F7;}
	.st7{fill:#022435;}
	.st8{fill:#F4A684;}
	.st9{fill:#FFFFFF;}
	.st10{fill:#FFFFFF;stroke:#D3D3D3;stroke-width:4;stroke-miterlimit:10;}
	.st11{fill:#E5E5E5;}
	.st12{opacity:0.4;fill:#FFFFFF;}
	.st13{fill:none;stroke:#999999;stroke-width:0.5;stroke-miterlimit:10;}
	.st14{fill:#17EFFF;}
</style>
<g>
	<g>
		<path class="st0" d="M248.95,119.86c0.03,54.48-49.61,97.79-110.89,96.74S27.69,167.68,28.39,109.66S78.74,8.34,139.28,12.92
			S248.91,65.38,248.95,119.86z"/>
	</g>
	<g>
		<g>
			<g>
				<g>
					<g>
						<g>
							<path class="st1" d="M165.52,189.82H92.9c-2.19,0-3.97-1.78-3.97-3.97l0,0c0-2.19,1.78-3.97,3.97-3.97h72.62
								c2.19,0,3.97,1.78,3.97,3.97v0C169.49,188.05,167.71,189.82,165.52,189.82z"/>
							<rect x="92.85" y="189.82" class="st2" width="72.72" height="5.94"/>
							<path class="st1" d="M195.41,218.12H63.01v0c0-12.35,10.01-22.36,22.36-22.36h87.69
								C185.4,195.76,195.41,205.77,195.41,218.12L195.41,218.12z"/>
							<path class="st2" d="M101.17,181.89c0,0,23.6,8.79,50.22,0H101.17z"/>
						</g>
						<g>
							<g>
								<g>
									<circle class="st3" cx="92.82" cy="124.81" r="7.4"/>
									<circle class="st3" cx="165.65" cy="124.81" r="7.4"/>
									<circle class="st4" cx="165.94" cy="124.78" r="2.08"/>
									<path class="st4" d="M94.13,124.78c0,1.15-0.93,2.08-2.08,2.08c-1.15,0-2.08-0.93-2.08-2.08c0-1.15,0.93-2.08,2.08-2.08
										C93.2,122.7,94.13,123.63,94.13,124.78z"/>
								</g>
								<path class="st5" d="M165.65,181.89H92.93v-65.36c0-20.08,16.28-36.36,36.36-36.36h0c20.08,0,36.36,16.28,36.36,36.36
									V181.89z"/>
								<g>
									<path class="st6" d="M138.56,157.18c0-5.12-4.15-9.27-9.27-9.27s-9.27,4.15-9.27,9.27H138.56z"/>
									<path class="st3" d="M128.97,145.23L128.97,145.23c-2.46,0-4.48-2.02-4.48-4.48v-6.77c0-2.46,2.02-4.48,4.48-4.48h0
										c2.46,0,4.48,2.02,4.48,4.48v6.77C133.45,143.22,131.44,145.23,128.97,145.23z"/>
								</g>
								<g>
									<path class="st7" d="M109.66,117.95l-4.05,4.05c-0.3,0.3-0.8,0.3-1.1,0l0,0c-0.3-0.3-0.3-0.8,0-1.11l4.05-4.05
										c0.3-0.3,0.8-0.3,1.11,0l0,0C109.97,117.15,109.97,117.65,109.66,117.95z"/>
									<path class="st7" d="M152.86,122l-4.05-4.05c-0.3-0.3-0.3-0.8,0-1.11l0,0c0.3-0.3,0.8-0.3,1.11,0l4.05,4.05
										c0.3,0.3,0.3,0.8,0,1.11l0,0C153.66,122.31,153.16,122.31,152.86,122z"/>
								</g>
								<g>
									<ellipse class="st8" cx="148.45" cy="133.46" rx="8.13" ry="2.34"/>
									<ellipse class="st8" cx="109.3" cy="133.46" rx="8.13" ry="2.34"/>
								</g>
								<g>
									<g>
										<g>
											<path class="st7" d="M113.44,126.89c0,1.44-1.17,2.6-2.6,2.6c-1.44,0-2.6-1.17-2.6-2.6s1.17-2.6,2.6-2.6
												C112.27,124.29,113.44,125.46,113.44,126.89z"/>
											<path class="st9" d="M110.83,125.55c0,0.25-0.42,0.45-0.94,0.45c-0.52,0-0.94-0.2-0.94-0.45c0-0.25,0.42-0.45,0.94-0.45
												C110.41,125.09,110.83,125.3,110.83,125.55z"/>
										</g>
										<polygon class="st5" points="107.73,126.89 112.93,124.08 107.73,123.25 										"/>
									</g>
									<g>
										<g>
											<path class="st7" d="M150.35,126.89c0,1.44-1.17,2.6-2.6,2.6c-1.44,0-2.6-1.17-2.6-2.6s1.17-2.6,2.6-2.6
												C149.18,124.29,150.35,125.46,150.35,126.89z"/>
											<path class="st9" d="M147.74,125.55c0,0.25-0.42,0.45-0.94,0.45c-0.52,0-0.94-0.2-0.94-0.45c0-0.25,0.42-0.45,0.94-0.45
												C147.32,125.09,147.74,125.3,147.74,125.55z"/>
										</g>
										<polygon class="st5" points="146.15,124.5 150.81,127.62 150.16,123.25 										"/>
									</g>
								</g>
								<path class="st7" d="M166.04,117.95c2.56-9.19,0.97-19.44-4.26-27.42s-13.99-13.54-23.43-14.86
									c-3.11-0.44-6.27-0.44-9.41-0.41c-4.9,0.04-9.8,0.13-14.69,0.27c0.59-1.06,0.98-2.23,1.14-3.43
									c-3.23,1.25-6.24,3.08-8.84,5.36c0.23-1.12,0.45-2.24,0.68-3.37c-4.11,2.48-8.33,5.05-11.25,8.86
									c-2.73,3.56-4.14,7.98-4.72,12.42c-0.58,4.44-0.39,8.94-0.2,13.42c0.13,2.95,0.26,5.9,0.39,8.85
									c0.83-0.25,1.39,0.96,1.43,1.83c0.12,2.37-0.04,4.76-0.47,7.1c1.08,0.37,2.25,0.51,3.39,0.38
									c-1.03-10.09,3.57-19.83,8.26-28.83c3.06,2.92,7.49,4.33,11.67,3.72c-0.23-1.76-0.46-3.52-0.69-5.28
									c7.85,6.21,17.84,9.66,27.85,9.63c-0.11-1.33-0.22-2.65-0.33-3.98c3.14,2.26,6.73,3.87,10.49,4.73
									c2.73,0.62,5.75,0.94,7.76,2.89c2.15,2.09,1.47,5.41,1.64,8.4c0.15,2.67,0.31,5.33,0.46,8c0.59,0,2.15-0.02,2.74-0.02
									C165.72,123.35,165.27,120.71,166.04,117.95z"/>
								<g>
									<path class="st10" d="M101.17,142.65c0,0,18-11.19,55.42,0l-2.39,19.37l-24.91,6.46l-25.01-6.02L101.17,142.65z"/>
									<g>
										<path class="st9" d="M102.93,145.52c-0.11,0-0.22-0.07-0.27-0.18l-11.52-28.31c-0.06-0.15,0.01-0.31,0.16-0.37
											c0.15-0.06,0.31,0.01,0.37,0.16l11.52,28.31c0.06,0.15-0.01,0.31-0.16,0.37C103,145.51,102.97,145.52,102.93,145.52z"/>
									</g>
									<g>
										<path class="st9" d="M154.96,145.52c-0.04,0-0.07-0.01-0.11-0.02c-0.15-0.06-0.22-0.23-0.16-0.37l11.22-27.8
											c0.06-0.15,0.23-0.22,0.37-0.16c0.15,0.06,0.22,0.23,0.16,0.37l-11.22,27.8C155.18,145.45,155.07,145.52,154.96,145.52z"
											/>
									</g>
									<g>
										<path class="st11" d="M137.29,148.99c-3.51,0-6.91-0.96-8.82-1.61c-0.3-0.1-0.6-0.21-0.9-0.31
											c-5.27-1.83-10.72-3.71-15.28,0.43l-0.39-0.42c4.82-4.37,10.68-2.34,15.86-0.54c0.3,0.1,0.6,0.21,0.9,0.31
											c10.47,3.59,15.24,0.25,16.81-1.35l0.41,0.4C143.56,148.24,140.38,148.99,137.29,148.99z"/>
									</g>
									<g>
										<path class="st11" d="M137.29,157.34c-3.51,0-6.91-0.96-8.82-1.62c-0.3-0.1-0.6-0.21-0.9-0.31
											c-5.27-1.83-10.72-3.71-15.28,0.43l-0.39-0.42c4.82-4.37,10.68-2.34,15.86-0.54c0.3,0.1,0.6,0.21,0.9,0.31
											c10.47,3.59,15.24,0.25,16.81-1.35l0.41,0.4C143.56,156.59,140.38,157.34,137.29,157.34z"/>
									</g>
								</g>
							</g>
							<g>
								<path class="st12" d="M106.52,108.1c0,1.23-0.99,2.22-2.22,2.22c-1.23,0-2.22-0.99-2.22-2.22c0-1.23,2.22-5.75,2.22-5.75
									S106.52,106.87,106.52,108.1z"/>
								<path class="st12" d="M111,111.2c0,0.61-0.5,1.11-1.11,1.11c-0.61,0-1.11-0.5-1.11-1.11c0-0.61,1.11-2.87,1.11-2.87
									S111,110.59,111,111.2z"/>
							</g>
						</g>
					</g>
					<g>
						<polygon class="st9" points="160.57,149.33 171.57,144.93 175.2,149.33 194.52,143.02 173.96,153.54 169.46,148.75 						"/>
						<polygon class="st9" points="162.59,157.79 169.49,157.98 170.41,161.17 182.2,162.26 168.78,163.13 167.48,159.54 						"/>
						<polygon class="st9" points="98.87,155.62 87.25,153.34 84.49,158.34 64.34,155.71 86.49,162.24 90.03,156.71 						"/>
						<polygon class="st9" points="95.43,148.66 90.2,144.6 87.57,146.4 78.17,140.04 87.59,148.86 90.74,146.98 						"/>
						<g>
							<g>
								<path class="st9" d="M184.89,170.08l-0.26-0.36c4.03-2.9,5.08-9.23,2.2-13.27l0.36-0.26
									C190.2,160.42,189.1,167.04,184.89,170.08z"/>
							</g>
							<g>
								<path class="st9" d="M183.58,166.39l-0.26-0.36c2.39-1.72,3.01-5.47,1.31-7.88l0.36-0.26
									C186.83,160.48,186.16,164.53,183.58,166.39z"/>
							</g>
						</g>
						<g>
							<g>
								<path class="st9" d="M78.92,145.68l0.16,0.22c-2.48,1.79-3.13,5.69-1.36,8.19l-0.22,0.16
									C75.65,151.64,76.32,147.55,78.92,145.68z"/>
							</g>
							<g>
								<path class="st9" d="M79.73,147.96l0.16,0.22c-1.47,1.06-1.86,3.38-0.81,4.86l-0.22,0.16
									C77.72,151.6,78.14,149.1,79.73,147.96z"/>
							</g>
						</g>
					</g>
				</g>
			</g>
			<g>
				<path class="st2" d="M70.39,49.76c-0.25-0.13-0.44-0.31-0.59-0.55c-0.14-0.23-0.21-0.5-0.21-0.79s0.07-0.55,0.21-0.79
					c0.14-0.23,0.34-0.42,0.59-0.55c0.25-0.13,0.53-0.2,0.84-0.2c0.31,0,0.59,0.07,0.84,0.2c0.25,0.13,0.44,0.31,0.59,0.55
					c0.14,0.23,0.21,0.5,0.21,0.79s-0.07,0.55-0.21,0.79c-0.14,0.23-0.34,0.42-0.59,0.55c-0.25,0.13-0.53,0.2-0.84,0.2
					C70.92,49.95,70.64,49.89,70.39,49.76z M71.64,49.16c0.12-0.07,0.22-0.17,0.29-0.3c0.07-0.13,0.11-0.27,0.11-0.44
					s-0.04-0.31-0.11-0.44c-0.07-0.13-0.17-0.23-0.29-0.3c-0.12-0.07-0.26-0.1-0.4-0.1c-0.15,0-0.28,0.04-0.4,0.1
					c-0.12,0.07-0.22,0.17-0.29,0.3c-0.07,0.13-0.11,0.27-0.11,0.44s0.04,0.31,0.11,0.44c0.07,0.13,0.17,0.23,0.29,0.3
					c0.12,0.07,0.26,0.11,0.4,0.11C71.38,49.26,71.52,49.23,71.64,49.16z"/>
			</g>
			<g>
				<polyline class="st13" points="105.38,108.06 86.6,61.36 41.74,61.36 				"/>
				<polyline class="st13" points="96.92,216.7 71.64,195.23 1.83,195.23 				"/>
				<g>
					<path class="st2" d="M42.2,40.64v1.27h2.55v1.26H42.2v1.98h-1.64v-5.79h4.54v1.26H42.2z"/>
					<path class="st2" d="M51.35,43.89v1.26H46.7v-5.79h4.54v1.26h-2.92v0.98h2.57v1.22h-2.57v1.06H51.35z"/>
					<path class="st2" d="M58.3,42.68c0.19,0.24,0.28,0.54,0.28,0.89c0,0.51-0.2,0.9-0.61,1.17c-0.41,0.28-1,0.41-1.77,0.41h-3.12
						v-5.79h2.96c0.74,0,1.3,0.14,1.69,0.41c0.39,0.27,0.58,0.64,0.58,1.1c0,0.28-0.07,0.52-0.2,0.74
						c-0.13,0.22-0.33,0.39-0.57,0.52C57.86,42.26,58.12,42.44,58.3,42.68z M54.7,40.55v1.12h1.12c0.55,0,0.83-0.19,0.83-0.56
						c0-0.37-0.28-0.55-0.83-0.55H54.7z M56.93,43.39c0-0.39-0.29-0.59-0.86-0.59H54.7v1.17h1.37
						C56.65,43.98,56.93,43.78,56.93,43.39z"/>
					<path class="st2" d="M62.79,43.62H61.9v1.54h-1.64v-5.79h2.64c0.52,0,0.98,0.09,1.36,0.26c0.39,0.17,0.68,0.42,0.89,0.74
						c0.21,0.32,0.31,0.7,0.31,1.14c0,0.42-0.1,0.78-0.29,1.1c-0.2,0.31-0.48,0.56-0.84,0.73l1.25,1.82h-1.75L62.79,43.62z
						 M63.57,40.88c-0.17-0.15-0.42-0.22-0.76-0.22H61.9v1.69h0.91c0.34,0,0.59-0.07,0.76-0.22c0.17-0.15,0.26-0.35,0.26-0.62
						C63.82,41.24,63.74,41.03,63.57,40.88z"/>
					<path class="st2" d="M71.85,43.89v1.26h-4.65v-5.79h4.54v1.26h-2.92v0.98h2.57v1.22h-2.57v1.06H71.85z"/>
					<path class="st2" d="M40.76,54.61c-0.18-0.66-0.28-1.37-0.28-2.13c0-0.75,0.09-1.46,0.28-2.13c0.18-0.66,0.45-1.24,0.79-1.74
						h1.5c-0.36,0.63-0.62,1.26-0.79,1.89c-0.17,0.63-0.25,1.29-0.25,1.98c0,0.69,0.08,1.35,0.25,1.98
						c0.17,0.63,0.43,1.25,0.79,1.89h-1.5C41.21,55.85,40.95,55.27,40.76,54.61z"/>
					<path class="st2" d="M48.42,51.21v1.27l-4.07,1.5v-1.21l2.64-0.93l-2.64-0.93v-1.21L48.42,51.21z"/>
					<path class="st2" d="M54.08,51.86c0.26,0.29,0.38,0.65,0.38,1.07c0,0.34-0.09,0.66-0.28,0.95c-0.18,0.29-0.47,0.53-0.84,0.71
						c-0.38,0.18-0.84,0.27-1.4,0.27c-0.41,0-0.81-0.05-1.21-0.15c-0.4-0.1-0.74-0.24-1.04-0.42l0.6-1.23
						c0.23,0.15,0.48,0.27,0.76,0.36c0.28,0.08,0.56,0.12,0.84,0.12c0.28,0,0.5-0.05,0.67-0.16c0.17-0.1,0.25-0.25,0.25-0.45
						c0-0.37-0.29-0.56-0.88-0.56h-0.69v-1.03l1.03-1.12h-2.28v-1.26h4.18v1.02l-1.2,1.29C53.45,51.37,53.82,51.57,54.08,51.86z"/>
					<path class="st2" d="M60.46,48.96v1.02l-2.04,4.76h-1.79l1.95-4.49h-1.52v0.89h-1.4v-2.19H60.46z"/>
					<path class="st2" d="M62.98,53.21c0.18,0.17,0.26,0.39,0.26,0.67c0,0.13-0.02,0.25-0.05,0.38c-0.03,0.13-0.11,0.32-0.22,0.57
						l-0.52,1.21h-0.98l0.39-1.35c-0.15-0.07-0.27-0.18-0.36-0.32c-0.09-0.14-0.13-0.3-0.13-0.49c0-0.28,0.09-0.5,0.26-0.67
						c0.18-0.17,0.4-0.26,0.68-0.26C62.58,52.96,62.81,53.04,62.98,53.21z"/>
					<path class="st2" d="M69.44,52.26c0.14,0.23,0.21,0.48,0.21,0.78c0,0.36-0.1,0.68-0.31,0.96c-0.21,0.28-0.5,0.49-0.88,0.64
						c-0.38,0.15-0.82,0.22-1.31,0.22c-0.5,0-0.93-0.07-1.31-0.22c-0.38-0.15-0.67-0.36-0.88-0.64c-0.21-0.28-0.31-0.6-0.31-0.96
						c0-0.29,0.07-0.55,0.21-0.78c0.14-0.23,0.35-0.42,0.61-0.57c-0.2-0.14-0.35-0.31-0.46-0.5c-0.11-0.2-0.16-0.42-0.16-0.66
						c0-0.34,0.1-0.63,0.29-0.89s0.46-0.45,0.81-0.59c0.35-0.14,0.75-0.21,1.2-0.21c0.45,0,0.85,0.07,1.2,0.21
						c0.35,0.14,0.62,0.33,0.81,0.59c0.19,0.26,0.29,0.55,0.29,0.89c0,0.24-0.05,0.46-0.16,0.66c-0.11,0.2-0.26,0.37-0.46,0.5
						C69.1,51.85,69.3,52.04,69.44,52.26z M67.78,53.52c0.16-0.13,0.24-0.3,0.24-0.52c0-0.22-0.08-0.4-0.24-0.52
						c-0.16-0.13-0.37-0.19-0.63-0.19c-0.26,0-0.48,0.07-0.63,0.19c-0.16,0.13-0.24,0.3-0.24,0.52c0,0.22,0.08,0.4,0.24,0.52
						c0.16,0.13,0.37,0.19,0.63,0.19C67.41,53.71,67.62,53.65,67.78,53.52z M66.65,50.15c-0.13,0.11-0.19,0.26-0.19,0.45
						c0,0.19,0.06,0.33,0.19,0.44s0.29,0.16,0.5,0.16c0.21,0,0.38-0.05,0.5-0.16c0.13-0.11,0.19-0.25,0.19-0.44
						c0-0.19-0.06-0.34-0.19-0.45c-0.13-0.11-0.3-0.16-0.5-0.16C66.94,49.99,66.78,50.04,66.65,50.15z"/>
					<path class="st2" d="M75.8,54.47c-0.48-0.26-0.86-0.61-1.14-1.07c-0.28-0.46-0.41-0.98-0.41-1.55s0.14-1.1,0.41-1.55
						c0.28-0.46,0.65-0.81,1.14-1.07c0.48-0.26,1.03-0.38,1.63-0.38c0.53,0,1.01,0.09,1.43,0.28c0.42,0.19,0.78,0.46,1.06,0.81
						l-1.04,0.94c-0.37-0.45-0.83-0.68-1.36-0.68c-0.31,0-0.59,0.07-0.84,0.21c-0.24,0.14-0.43,0.33-0.57,0.58
						c-0.14,0.25-0.2,0.54-0.2,0.86s0.07,0.61,0.2,0.86c0.14,0.25,0.33,0.45,0.57,0.58c0.25,0.14,0.52,0.21,0.84,0.21
						c0.53,0,0.99-0.23,1.36-0.68l1.04,0.94c-0.28,0.35-0.63,0.62-1.06,0.81c-0.42,0.19-0.9,0.28-1.43,0.28
						C76.83,54.86,76.29,54.73,75.8,54.47z"/>
					<path class="st2" d="M80.88,56.35c0.36-0.63,0.62-1.26,0.79-1.89c0.17-0.63,0.25-1.29,0.25-1.98c0-0.69-0.08-1.35-0.25-1.98
						s-0.43-1.26-0.79-1.89h1.5c0.34,0.5,0.6,1.08,0.79,1.74c0.18,0.66,0.28,1.37,0.28,2.13c0,0.76-0.09,1.46-0.28,2.13
						c-0.18,0.66-0.45,1.24-0.79,1.74H80.88z"/>
				</g>
				<g>
					<path class="st2" d="M180.01,67.18h-1.78v-1.3h5.18v1.3h-1.77v4.49h-1.64V67.18z"/>
					<path class="st2" d="M186.04,71.39c-0.49-0.26-0.87-0.62-1.15-1.07c-0.28-0.46-0.42-0.97-0.42-1.55s0.14-1.09,0.42-1.55
						c0.28-0.46,0.66-0.82,1.15-1.07c0.49-0.26,1.04-0.39,1.65-0.39c0.61,0,1.16,0.13,1.65,0.39c0.49,0.26,0.87,0.62,1.15,1.07
						c0.28,0.46,0.42,0.97,0.42,1.55s-0.14,1.09-0.42,1.55c-0.28,0.46-0.66,0.82-1.15,1.07c-0.49,0.26-1.04,0.39-1.65,0.39
						C187.07,71.78,186.52,71.65,186.04,71.39z M188.48,70.22c0.24-0.14,0.42-0.33,0.56-0.58c0.14-0.25,0.21-0.54,0.21-0.86
						s-0.07-0.61-0.21-0.86c-0.14-0.25-0.33-0.45-0.56-0.58c-0.24-0.14-0.5-0.21-0.79-0.21c-0.29,0-0.56,0.07-0.79,0.21
						c-0.24,0.14-0.42,0.33-0.56,0.58c-0.14,0.25-0.21,0.54-0.21,0.86s0.07,0.61,0.21,0.86c0.14,0.25,0.33,0.45,0.56,0.58
						c0.24,0.14,0.5,0.21,0.79,0.21C187.98,70.43,188.24,70.36,188.48,70.22z"/>
					<path class="st2" d="M193.26,71.61c-0.44-0.12-0.8-0.27-1.07-0.46l0.54-1.21c0.26,0.17,0.56,0.31,0.9,0.41
						c0.34,0.11,0.68,0.16,1.01,0.16c0.63,0,0.94-0.16,0.94-0.47c0-0.17-0.09-0.29-0.27-0.37c-0.18-0.08-0.47-0.16-0.86-0.25
						c-0.44-0.09-0.8-0.19-1.09-0.3c-0.29-0.11-0.54-0.28-0.75-0.52c-0.21-0.24-0.31-0.56-0.31-0.96c0-0.35,0.1-0.67,0.29-0.95
						c0.19-0.28,0.48-0.51,0.86-0.67c0.38-0.17,0.85-0.25,1.41-0.25c0.38,0,0.75,0.04,1.12,0.13c0.37,0.09,0.69,0.21,0.98,0.38
						l-0.5,1.22c-0.55-0.3-1.09-0.45-1.6-0.45c-0.33,0-0.56,0.05-0.71,0.14c-0.15,0.1-0.22,0.22-0.22,0.38
						c0,0.15,0.09,0.27,0.26,0.35c0.18,0.08,0.46,0.16,0.85,0.24c0.44,0.09,0.81,0.19,1.1,0.3c0.29,0.11,0.54,0.28,0.75,0.51
						c0.21,0.23,0.32,0.55,0.32,0.95c0,0.35-0.1,0.66-0.29,0.94c-0.19,0.28-0.48,0.51-0.87,0.67c-0.39,0.17-0.85,0.25-1.41,0.25
						C194.15,71.78,193.7,71.72,193.26,71.61z"/>
					<path class="st2" d="M199.43,71.61c-0.44-0.12-0.8-0.27-1.07-0.46l0.54-1.21c0.26,0.17,0.56,0.31,0.9,0.41
						c0.34,0.11,0.68,0.16,1.01,0.16c0.63,0,0.94-0.16,0.94-0.47c0-0.17-0.09-0.29-0.27-0.37c-0.18-0.08-0.47-0.16-0.86-0.25
						c-0.44-0.09-0.8-0.19-1.09-0.3c-0.29-0.11-0.54-0.28-0.75-0.52c-0.21-0.24-0.31-0.56-0.31-0.96c0-0.35,0.1-0.67,0.29-0.95
						c0.19-0.28,0.48-0.51,0.86-0.67c0.38-0.17,0.85-0.25,1.41-0.25c0.38,0,0.75,0.04,1.12,0.13c0.37,0.09,0.69,0.21,0.98,0.38
						l-0.5,1.22c-0.55-0.3-1.09-0.45-1.6-0.45c-0.33,0-0.56,0.05-0.71,0.14c-0.15,0.1-0.22,0.22-0.22,0.38
						c0,0.15,0.09,0.27,0.26,0.35c0.18,0.08,0.46,0.16,0.85,0.24c0.44,0.09,0.81,0.19,1.1,0.3c0.29,0.11,0.54,0.28,0.75,0.51
						c0.21,0.23,0.32,0.55,0.32,0.95c0,0.35-0.1,0.66-0.29,0.94c-0.19,0.28-0.48,0.51-0.87,0.67c-0.39,0.17-0.85,0.25-1.41,0.25
						C200.33,71.78,199.87,71.72,199.43,71.61z"/>
					<path class="st2" d="M209.58,70.4v1.26h-4.65v-5.79h4.54v1.26h-2.92v0.98h2.57v1.22h-2.57v1.06H209.58z"/>
				</g>
				<polyline class="st13" points="152.74,144.04 171.64,77.53 210.72,77.53 				"/>
				<g>
					<path class="st2" d="M6.34,80.64h2.74c0.63,0,1.2,0.12,1.69,0.36c0.49,0.24,0.87,0.57,1.14,1.01c0.27,0.44,0.41,0.95,0.41,1.53
						s-0.13,1.09-0.41,1.53c-0.27,0.43-0.65,0.77-1.14,1.01c-0.49,0.24-1.05,0.36-1.69,0.36H6.34V80.64z M9.01,85.12
						c0.5,0,0.89-0.14,1.19-0.42c0.3-0.28,0.45-0.67,0.45-1.17s-0.15-0.88-0.45-1.17c-0.3-0.28-0.7-0.42-1.19-0.42H7.98v3.17H9.01z"
						/>
					<path class="st2" d="M15.27,86.15c-0.49-0.26-0.87-0.62-1.15-1.07c-0.28-0.46-0.42-0.97-0.42-1.55s0.14-1.09,0.42-1.55
						c0.28-0.46,0.66-0.82,1.15-1.07c0.49-0.26,1.04-0.39,1.65-0.39c0.61,0,1.16,0.13,1.65,0.39c0.49,0.26,0.87,0.62,1.15,1.07
						c0.28,0.46,0.42,0.97,0.42,1.55s-0.14,1.09-0.42,1.55c-0.28,0.46-0.66,0.82-1.15,1.07c-0.49,0.26-1.04,0.39-1.65,0.39
						C16.3,86.54,15.75,86.41,15.27,86.15z M17.71,84.98c0.24-0.14,0.42-0.33,0.56-0.58c0.14-0.25,0.21-0.54,0.21-0.86
						s-0.07-0.61-0.21-0.86c-0.14-0.25-0.33-0.45-0.56-0.58c-0.24-0.14-0.5-0.21-0.79-0.21c-0.29,0-0.56,0.07-0.79,0.21
						c-0.24,0.14-0.42,0.33-0.56,0.58c-0.14,0.25-0.21,0.54-0.21,0.86s0.07,0.61,0.21,0.86c0.14,0.25,0.33,0.45,0.56,0.58
						c0.24,0.14,0.5,0.21,0.79,0.21C17.21,85.19,17.47,85.12,17.71,84.98z"/>
					<path class="st2" d="M24.35,84.89h-0.89v1.54h-1.64v-5.79h2.64c0.52,0,0.98,0.09,1.36,0.26c0.39,0.17,0.68,0.42,0.89,0.74
						c0.21,0.32,0.31,0.7,0.31,1.14c0,0.42-0.1,0.78-0.29,1.1c-0.2,0.31-0.48,0.56-0.84,0.73l1.25,1.82H25.4L24.35,84.89z
						 M25.12,82.15c-0.17-0.15-0.42-0.22-0.76-0.22h-0.91v1.69h0.91c0.34,0,0.59-0.07,0.76-0.22c0.17-0.15,0.26-0.35,0.26-0.62
						C25.38,82.51,25.29,82.3,25.12,82.15z"/>
					<path class="st2" d="M37.5,80.64v5.79h-1.35l-2.55-3.08v3.08h-1.6v-5.79h1.35l2.55,3.08v-3.08H37.5z"/>
					<path class="st2" d="M40.75,86.15c-0.49-0.26-0.87-0.62-1.15-1.07c-0.28-0.46-0.42-0.97-0.42-1.55s0.14-1.09,0.42-1.55
						c0.28-0.46,0.66-0.82,1.15-1.07c0.49-0.26,1.04-0.39,1.65-0.39c0.61,0,1.16,0.13,1.65,0.39c0.49,0.26,0.87,0.62,1.15,1.07
						c0.28,0.46,0.42,0.97,0.42,1.55s-0.14,1.09-0.42,1.55s-0.66,0.82-1.15,1.07c-0.49,0.26-1.04,0.39-1.65,0.39
						C41.78,86.54,41.24,86.41,40.75,86.15z M43.19,84.98c0.24-0.14,0.42-0.33,0.56-0.58c0.14-0.25,0.21-0.54,0.21-0.86
						s-0.07-0.61-0.21-0.86c-0.14-0.25-0.33-0.45-0.56-0.58c-0.24-0.14-0.5-0.21-0.79-0.21c-0.29,0-0.56,0.07-0.79,0.21
						c-0.24,0.14-0.42,0.33-0.56,0.58c-0.14,0.25-0.21,0.54-0.21,0.86s0.07,0.61,0.21,0.86c0.14,0.25,0.33,0.45,0.56,0.58
						c0.24,0.14,0.5,0.21,0.79,0.21C42.69,85.19,42.95,85.12,43.19,84.98z"/>
					<path class="st2" d="M7.6,95.74c-0.48-0.26-0.86-0.61-1.14-1.07c-0.28-0.46-0.41-0.98-0.41-1.55c0-0.58,0.14-1.1,0.41-1.55
						c0.28-0.46,0.65-0.81,1.14-1.07c0.48-0.26,1.03-0.38,1.63-0.38c0.53,0,1.01,0.09,1.43,0.28c0.42,0.19,0.78,0.46,1.06,0.81
						l-1.04,0.94c-0.37-0.45-0.83-0.68-1.36-0.68c-0.31,0-0.59,0.07-0.84,0.21c-0.24,0.14-0.43,0.33-0.57,0.58
						c-0.14,0.25-0.2,0.54-0.2,0.86s0.07,0.61,0.2,0.86c0.14,0.25,0.33,0.45,0.57,0.58C8.72,94.7,9,94.77,9.31,94.77
						c0.53,0,0.99-0.23,1.36-0.68l1.04,0.94c-0.28,0.35-0.63,0.62-1.06,0.81c-0.42,0.19-0.9,0.28-1.43,0.28
						C8.62,96.13,8.08,96,7.6,95.74z"/>
					<path class="st2" d="M14.42,95.74c-0.49-0.26-0.87-0.62-1.15-1.07c-0.28-0.46-0.42-0.97-0.42-1.55s0.14-1.09,0.42-1.55
						c0.28-0.46,0.66-0.82,1.15-1.07c0.49-0.26,1.04-0.39,1.65-0.39c0.61,0,1.16,0.13,1.65,0.39c0.49,0.26,0.87,0.62,1.15,1.07
						s0.42,0.97,0.42,1.55s-0.14,1.09-0.42,1.55s-0.66,0.82-1.15,1.07c-0.49,0.26-1.04,0.39-1.65,0.39
						C15.45,96.13,14.9,96,14.42,95.74z M16.86,94.57c0.24-0.14,0.42-0.33,0.56-0.58c0.14-0.25,0.21-0.54,0.21-0.86
						s-0.07-0.61-0.21-0.86c-0.14-0.25-0.33-0.45-0.56-0.58c-0.24-0.14-0.5-0.21-0.79-0.21c-0.29,0-0.56,0.07-0.79,0.21
						c-0.24,0.14-0.42,0.33-0.56,0.58c-0.14,0.25-0.21,0.54-0.21,0.86s0.07,0.61,0.21,0.86c0.14,0.25,0.33,0.45,0.56,0.58
						c0.24,0.14,0.5,0.21,0.79,0.21C16.36,94.77,16.62,94.7,16.86,94.57z"/>
					<path class="st2" d="M23.49,94.48H22.6v1.54h-1.64v-5.79h2.64c0.52,0,0.98,0.09,1.36,0.26c0.39,0.17,0.68,0.42,0.89,0.74
						c0.21,0.32,0.31,0.7,0.31,1.14c0,0.42-0.1,0.78-0.29,1.1c-0.2,0.31-0.48,0.56-0.84,0.73l1.25,1.82h-1.75L23.49,94.48z
						 M24.27,91.74c-0.17-0.15-0.42-0.22-0.76-0.22H22.6v1.69h0.91c0.34,0,0.59-0.07,0.76-0.22c0.17-0.15,0.26-0.35,0.26-0.62
						C24.53,92.1,24.44,91.89,24.27,91.74z"/>
					<path class="st2" d="M31.92,90.49c0.39,0.17,0.68,0.42,0.89,0.74c0.21,0.32,0.31,0.7,0.31,1.14c0,0.44-0.1,0.81-0.31,1.13
						c-0.21,0.32-0.51,0.57-0.89,0.74c-0.39,0.17-0.84,0.26-1.36,0.26h-1.01v1.51h-1.64v-5.79h2.64
						C31.08,90.23,31.53,90.31,31.92,90.49z M31.21,92.99c0.17-0.15,0.26-0.35,0.26-0.62c0-0.27-0.09-0.48-0.26-0.63
						c-0.17-0.15-0.42-0.22-0.76-0.22h-0.91v1.69h0.91C30.79,93.21,31.04,93.14,31.21,92.99z"/>
					<path class="st2" d="M36.09,95.74c-0.49-0.26-0.87-0.62-1.15-1.07c-0.28-0.46-0.42-0.97-0.42-1.55s0.14-1.09,0.42-1.55
						c0.28-0.46,0.66-0.82,1.15-1.07c0.49-0.26,1.04-0.39,1.65-0.39c0.61,0,1.16,0.13,1.65,0.39c0.49,0.26,0.87,0.62,1.15,1.07
						c0.28,0.46,0.42,0.97,0.42,1.55s-0.14,1.09-0.42,1.55c-0.28,0.46-0.66,0.82-1.15,1.07s-1.04,0.39-1.65,0.39
						C37.13,96.13,36.58,96,36.09,95.74z M38.54,94.57c0.24-0.14,0.42-0.33,0.56-0.58c0.14-0.25,0.21-0.54,0.21-0.86
						s-0.07-0.61-0.21-0.86c-0.14-0.25-0.33-0.45-0.56-0.58c-0.24-0.14-0.5-0.21-0.79-0.21c-0.29,0-0.56,0.07-0.79,0.21
						c-0.24,0.14-0.42,0.33-0.56,0.58c-0.14,0.25-0.21,0.54-0.21,0.86s0.07,0.61,0.21,0.86c0.14,0.25,0.33,0.45,0.56,0.58
						c0.24,0.14,0.5,0.21,0.79,0.21C38.04,94.77,38.3,94.7,38.54,94.57z"/>
					<path class="st2" d="M50.52,94.75v1.26h-4.65v-5.79h4.54v1.26H47.5v0.98h2.57v1.22H47.5v1.06H50.52z"/>
					<path class="st2" d="M7.6,105.33c-0.48-0.26-0.86-0.61-1.14-1.07c-0.28-0.46-0.41-0.98-0.41-1.55s0.14-1.1,0.41-1.55
						c0.28-0.46,0.65-0.81,1.14-1.07c0.48-0.26,1.03-0.38,1.63-0.38c0.53,0,1.01,0.09,1.43,0.28c0.42,0.19,0.78,0.46,1.06,0.81
						l-1.04,0.94c-0.37-0.45-0.83-0.68-1.36-0.68c-0.31,0-0.59,0.07-0.84,0.21c-0.24,0.14-0.43,0.33-0.57,0.58
						c-0.14,0.25-0.2,0.54-0.2,0.86s0.07,0.61,0.2,0.86c0.14,0.25,0.33,0.45,0.57,0.58c0.25,0.14,0.52,0.21,0.84,0.21
						c0.53,0,0.99-0.23,1.36-0.68l1.04,0.94c-0.28,0.35-0.63,0.62-1.06,0.81c-0.42,0.19-0.9,0.28-1.43,0.28
						C8.62,105.71,8.08,105.59,7.6,105.33z"/>
					<path class="st2" d="M17.05,104.47H14.6l-0.45,1.12h-1.67l2.55-5.79h1.61l2.56,5.79h-1.7L17.05,104.47z M16.57,103.27
						l-0.74-1.85l-0.74,1.85H16.57z"/>
					<path class="st2" d="M26,99.81v5.79h-1.35l-2.55-3.08v3.08h-1.6v-5.79h1.35l2.55,3.08v-3.08H26z"/>
					<path class="st2" d="M28.65,105.54c-0.44-0.12-0.8-0.27-1.07-0.46l0.54-1.21c0.26,0.17,0.56,0.31,0.9,0.41
						c0.34,0.11,0.68,0.16,1.01,0.16c0.63,0,0.94-0.16,0.94-0.47c0-0.17-0.09-0.29-0.27-0.37c-0.18-0.08-0.47-0.16-0.86-0.25
						c-0.44-0.09-0.8-0.19-1.09-0.3c-0.29-0.11-0.54-0.28-0.75-0.52c-0.21-0.24-0.31-0.56-0.31-0.96c0-0.35,0.1-0.67,0.29-0.95
						c0.19-0.28,0.48-0.51,0.86-0.67c0.38-0.17,0.85-0.25,1.41-0.25c0.38,0,0.75,0.04,1.12,0.13c0.37,0.08,0.69,0.21,0.98,0.38
						l-0.5,1.22c-0.55-0.3-1.09-0.45-1.6-0.45c-0.33,0-0.56,0.05-0.71,0.14c-0.15,0.1-0.22,0.22-0.22,0.38s0.09,0.27,0.26,0.35
						c0.18,0.08,0.46,0.16,0.85,0.24c0.44,0.09,0.81,0.19,1.1,0.3c0.29,0.11,0.54,0.28,0.75,0.51c0.21,0.23,0.32,0.55,0.32,0.95
						c0,0.35-0.1,0.66-0.29,0.94c-0.19,0.28-0.48,0.51-0.87,0.67c-0.39,0.17-0.85,0.25-1.41,0.25
						C29.55,105.71,29.09,105.66,28.65,105.54z"/>
					<path class="st2" d="M38.03,104.47h-2.45l-0.45,1.12h-1.67l2.55-5.79h1.61l2.56,5.79h-1.7L38.03,104.47z M37.55,103.27
						l-0.74-1.85l-0.74,1.85H37.55z"/>
					<path class="st2" d="M42.65,105.33c-0.48-0.26-0.86-0.61-1.14-1.07c-0.28-0.46-0.41-0.98-0.41-1.55s0.14-1.1,0.41-1.55
						c0.28-0.46,0.65-0.81,1.14-1.07c0.48-0.26,1.03-0.38,1.63-0.38c0.53,0,1.01,0.09,1.43,0.28c0.42,0.19,0.78,0.46,1.06,0.81
						l-1.04,0.94c-0.37-0.45-0.83-0.68-1.36-0.68c-0.31,0-0.59,0.07-0.84,0.21c-0.24,0.14-0.43,0.33-0.57,0.58
						c-0.14,0.25-0.2,0.54-0.2,0.86s0.07,0.61,0.2,0.86c0.14,0.25,0.33,0.45,0.57,0.58c0.25,0.14,0.52,0.21,0.84,0.21
						c0.53,0,0.99-0.23,1.36-0.68l1.04,0.94c-0.28,0.35-0.63,0.62-1.06,0.81c-0.42,0.19-0.9,0.28-1.43,0.28
						C43.68,105.71,43.13,105.59,42.65,105.33z M43.35,107.5c-0.15-0.03-0.27-0.07-0.36-0.12l0.21-0.62
						c0.17,0.08,0.34,0.12,0.51,0.12c0.28,0,0.41-0.08,0.41-0.23c0-0.14-0.12-0.21-0.37-0.21h-0.31l0.21-0.91h0.82l-0.12,0.5
						c0.24,0.03,0.42,0.1,0.54,0.23c0.12,0.12,0.17,0.27,0.17,0.44c0,0.26-0.12,0.47-0.36,0.63c-0.24,0.15-0.55,0.23-0.95,0.23
						C43.64,107.55,43.5,107.53,43.35,107.5z"/>
					<path class="st2" d="M49.47,105.33c-0.49-0.26-0.87-0.62-1.15-1.07c-0.28-0.46-0.42-0.97-0.42-1.55s0.14-1.09,0.42-1.55
						c0.28-0.46,0.66-0.82,1.15-1.07c0.49-0.26,1.04-0.39,1.65-0.39c0.61,0,1.16,0.13,1.65,0.39c0.49,0.26,0.87,0.62,1.15,1.07
						c0.28,0.46,0.42,0.97,0.42,1.55s-0.14,1.09-0.42,1.55s-0.66,0.82-1.15,1.07c-0.49,0.26-1.04,0.39-1.65,0.39
						C50.5,105.71,49.96,105.59,49.47,105.33z M51.91,104.15c0.24-0.14,0.42-0.33,0.56-0.58c0.14-0.25,0.21-0.54,0.21-0.86
						s-0.07-0.61-0.21-0.86c-0.14-0.25-0.33-0.45-0.56-0.58c-0.24-0.14-0.5-0.21-0.79-0.21c-0.29,0-0.56,0.07-0.79,0.21
						c-0.24,0.14-0.42,0.33-0.56,0.58c-0.14,0.25-0.21,0.54-0.21,0.86s0.07,0.61,0.21,0.86c0.14,0.25,0.33,0.45,0.56,0.58
						c0.24,0.14,0.5,0.21,0.79,0.21C51.41,104.36,51.67,104.29,51.91,104.15z"/>
				</g>
				<polyline class="st13" points="88.64,204.67 55.32,111.6 6.24,111.6 				"/>
				<polyline class="st13" points="154.96,218 191.66,138.33 293.53,138.33 				"/>
				<g>
					<path class="st2" d="M241.23,103.15c-0.44-0.12-0.8-0.27-1.07-0.46l0.54-1.21c0.26,0.17,0.56,0.31,0.9,0.41
						c0.34,0.11,0.68,0.16,1.01,0.16c0.63,0,0.94-0.16,0.94-0.47c0-0.17-0.09-0.29-0.27-0.37c-0.18-0.08-0.47-0.16-0.86-0.25
						c-0.44-0.09-0.8-0.19-1.09-0.3c-0.29-0.11-0.54-0.28-0.75-0.52c-0.21-0.24-0.31-0.56-0.31-0.96c0-0.35,0.1-0.67,0.29-0.95
						c0.19-0.28,0.48-0.51,0.86-0.67c0.38-0.17,0.85-0.25,1.41-0.25c0.38,0,0.75,0.04,1.12,0.13c0.37,0.08,0.69,0.21,0.98,0.38
						l-0.5,1.22c-0.55-0.3-1.09-0.45-1.6-0.45c-0.33,0-0.56,0.05-0.71,0.14c-0.15,0.1-0.22,0.22-0.22,0.38s0.09,0.27,0.26,0.35
						s0.46,0.16,0.85,0.24c0.44,0.09,0.81,0.19,1.1,0.3c0.29,0.11,0.54,0.28,0.75,0.51c0.21,0.23,0.32,0.55,0.32,0.95
						c0,0.35-0.1,0.66-0.29,0.94c-0.19,0.28-0.48,0.51-0.87,0.67c-0.39,0.17-0.85,0.25-1.41,0.25
						C242.13,103.32,241.67,103.27,241.23,103.15z"/>
					<path class="st2" d="M246.73,97.42h1.64v5.79h-1.64V97.42z"/>
					<path class="st2" d="M255.87,97.42v5.79h-1.35l-2.55-3.08v3.08h-1.6v-5.79h1.35l2.55,3.08v-3.08H255.87z"/>
					<path class="st2" d="M259.08,98.72h-1.78v-1.3h5.18v1.3h-1.77v4.49h-1.64V98.72z"/>
					<path class="st2" d="M265.11,102.94c-0.49-0.26-0.87-0.62-1.15-1.07s-0.42-0.97-0.42-1.55s0.14-1.09,0.42-1.55
						s0.66-0.82,1.15-1.07c0.49-0.26,1.04-0.39,1.65-0.39c0.61,0,1.16,0.13,1.65,0.39c0.49,0.26,0.87,0.62,1.15,1.07
						c0.28,0.46,0.42,0.97,0.42,1.55s-0.14,1.09-0.42,1.55c-0.28,0.46-0.66,0.82-1.15,1.07c-0.49,0.26-1.04,0.39-1.65,0.39
						C266.15,103.32,265.6,103.2,265.11,102.94z M267.55,101.76c0.24-0.14,0.42-0.33,0.56-0.58c0.14-0.25,0.21-0.54,0.21-0.86
						s-0.07-0.61-0.21-0.86c-0.14-0.25-0.33-0.45-0.56-0.58c-0.24-0.14-0.5-0.21-0.79-0.21c-0.29,0-0.56,0.07-0.79,0.21
						c-0.24,0.14-0.42,0.33-0.56,0.58c-0.14,0.25-0.21,0.54-0.21,0.86s0.07,0.61,0.21,0.86c0.14,0.25,0.33,0.45,0.56,0.58
						c0.24,0.14,0.5,0.21,0.79,0.21C267.05,101.97,267.32,101.9,267.55,101.76z"/>
					<path class="st2" d="M276.89,103.21l-0.02-3.07l-1.49,2.5h-0.73l-1.48-2.41v2.98h-1.51v-5.79h1.35l2.03,3.34l1.98-3.34h1.35
						l0.02,5.79H276.89z"/>
					<path class="st2" d="M284.25,102.08h-2.45l-0.45,1.12h-1.67l2.55-5.79h1.61l2.56,5.79h-1.7L284.25,102.08z M283.77,100.88
						l-0.74-1.85l-0.74,1.85H283.77z"/>
					<path class="st2" d="M288.37,103.15c-0.44-0.12-0.8-0.27-1.07-0.46l0.54-1.21c0.26,0.17,0.56,0.31,0.9,0.41
						c0.34,0.11,0.68,0.16,1.01,0.16c0.63,0,0.94-0.16,0.94-0.47c0-0.17-0.09-0.29-0.27-0.37c-0.18-0.08-0.47-0.16-0.86-0.25
						c-0.44-0.09-0.8-0.19-1.09-0.3c-0.29-0.11-0.54-0.28-0.75-0.52c-0.21-0.24-0.31-0.56-0.31-0.96c0-0.35,0.1-0.67,0.29-0.95
						c0.19-0.28,0.48-0.51,0.86-0.67c0.38-0.17,0.85-0.25,1.41-0.25c0.38,0,0.75,0.04,1.12,0.13c0.37,0.08,0.69,0.21,0.98,0.38
						l-0.5,1.22c-0.55-0.3-1.09-0.45-1.6-0.45c-0.33,0-0.56,0.05-0.71,0.14c-0.15,0.1-0.22,0.22-0.22,0.38s0.09,0.27,0.26,0.35
						s0.46,0.16,0.85,0.24c0.44,0.09,0.81,0.19,1.1,0.3c0.29,0.11,0.54,0.28,0.75,0.51c0.21,0.23,0.32,0.55,0.32,0.95
						c0,0.35-0.1,0.66-0.29,0.94c-0.19,0.28-0.48,0.51-0.87,0.67c-0.39,0.17-0.85,0.25-1.41,0.25
						C289.26,103.32,288.81,103.27,288.37,103.15z"/>
					<path class="st2" d="M189,109.78h1.45v2.4c-0.33,0.24-0.71,0.42-1.14,0.55c-0.43,0.13-0.86,0.19-1.29,0.19
						c-0.61,0-1.15-0.13-1.64-0.38c-0.49-0.26-0.87-0.61-1.14-1.07c-0.28-0.46-0.41-0.98-0.41-1.55c0-0.58,0.14-1.1,0.41-1.55
						c0.27-0.46,0.66-0.81,1.15-1.07c0.49-0.26,1.04-0.38,1.66-0.38c0.54,0,1.02,0.09,1.45,0.27c0.43,0.18,0.79,0.44,1.07,0.79
						l-1.04,0.94c-0.39-0.43-0.86-0.64-1.41-0.64c-0.5,0-0.9,0.15-1.2,0.45c-0.3,0.3-0.45,0.7-0.45,1.2c0,0.32,0.07,0.61,0.21,0.86
						c0.14,0.25,0.33,0.45,0.58,0.59c0.25,0.14,0.53,0.21,0.85,0.21c0.31,0,0.61-0.06,0.88-0.19V109.78z"/>
					<path class="st2" d="M196.19,111.67h-2.45l-0.45,1.12h-1.67l2.55-5.79h1.61l2.56,5.79h-1.7L196.19,111.67z M195.71,110.46
						l-0.74-1.85l-0.74,1.85H195.71z"/>
					<path class="st2" d="M200.3,112.74c-0.44-0.12-0.8-0.27-1.07-0.46l0.54-1.21c0.26,0.17,0.56,0.31,0.9,0.41
						c0.34,0.11,0.68,0.16,1.01,0.16c0.63,0,0.94-0.16,0.94-0.47c0-0.17-0.09-0.29-0.27-0.37c-0.18-0.08-0.47-0.16-0.86-0.25
						c-0.44-0.09-0.8-0.19-1.09-0.3c-0.29-0.11-0.54-0.28-0.75-0.52c-0.21-0.24-0.31-0.56-0.31-0.96c0-0.35,0.1-0.67,0.29-0.95
						c0.19-0.28,0.48-0.51,0.86-0.67c0.38-0.17,0.85-0.25,1.41-0.25c0.38,0,0.75,0.04,1.12,0.13c0.37,0.08,0.69,0.21,0.98,0.38
						l-0.5,1.22c-0.55-0.3-1.09-0.45-1.6-0.45c-0.33,0-0.56,0.05-0.71,0.14c-0.15,0.1-0.22,0.22-0.22,0.38
						c0,0.15,0.09,0.27,0.26,0.35s0.46,0.16,0.85,0.24c0.44,0.09,0.81,0.19,1.1,0.3c0.29,0.11,0.54,0.28,0.75,0.51
						c0.21,0.23,0.32,0.55,0.32,0.95c0,0.35-0.1,0.66-0.29,0.94c-0.19,0.28-0.48,0.51-0.87,0.67c-0.39,0.17-0.85,0.25-1.41,0.25
						C201.2,112.91,200.74,112.85,200.3,112.74z"/>
					<path class="st2" d="M206.95,108.31h-1.78v-1.3h5.18v1.3h-1.77v4.49h-1.64V108.31z"/>
					<path class="st2" d="M214.33,111.26h-0.89v1.54h-1.64v-5.79h2.64c0.52,0,0.98,0.09,1.36,0.26s0.68,0.42,0.89,0.74
						c0.21,0.32,0.31,0.7,0.31,1.14c0,0.42-0.1,0.78-0.29,1.1c-0.2,0.31-0.48,0.56-0.84,0.73l1.25,1.82h-1.75L214.33,111.26z
						 M215.1,108.52c-0.17-0.15-0.42-0.22-0.76-0.22h-0.91v1.69h0.91c0.34,0,0.59-0.07,0.76-0.22c0.17-0.15,0.26-0.35,0.26-0.62
						C215.36,108.88,215.28,108.67,215.1,108.52z"/>
					<path class="st2" d="M220.01,112.52c-0.49-0.26-0.87-0.62-1.15-1.07s-0.42-0.97-0.42-1.55c0-0.57,0.14-1.09,0.42-1.55
						s0.66-0.82,1.15-1.07s1.04-0.39,1.65-0.39c0.61,0,1.16,0.13,1.65,0.39c0.49,0.26,0.87,0.62,1.15,1.07s0.42,0.97,0.42,1.55
						c0,0.57-0.14,1.09-0.42,1.55s-0.66,0.82-1.15,1.07c-0.49,0.26-1.04,0.39-1.65,0.39C221.05,112.91,220.5,112.78,220.01,112.52z
						 M222.45,111.35c0.24-0.14,0.42-0.33,0.56-0.58c0.14-0.25,0.21-0.54,0.21-0.86s-0.07-0.61-0.21-0.86
						c-0.14-0.25-0.33-0.45-0.56-0.58c-0.24-0.14-0.5-0.21-0.79-0.21c-0.29,0-0.56,0.07-0.79,0.21c-0.24,0.14-0.42,0.33-0.56,0.58
						c-0.14,0.25-0.21,0.54-0.21,0.86s0.07,0.61,0.21,0.86c0.14,0.25,0.33,0.45,0.56,0.58c0.24,0.14,0.5,0.21,0.79,0.21
						C221.95,111.55,222.21,111.49,222.45,111.35z"/>
					<path class="st2" d="M226.56,107.01h1.64v5.79h-1.64V107.01z"/>
					<path class="st2" d="M235.69,107.01v5.79h-1.35l-2.55-3.08v3.08h-1.6v-5.79h1.35l2.55,3.08v-3.08H235.69z"/>
					<path class="st2" d="M238.91,108.31h-1.78v-1.3h5.18v1.3h-1.77v4.49h-1.64V108.31z"/>
					<path class="st2" d="M248.4,111.53v1.26h-4.65v-5.79h4.54v1.26h-2.92v0.98h2.57v1.22h-2.57v1.06H248.4z"/>
					<path class="st2" d="M250.8,112.74c-0.44-0.12-0.8-0.27-1.07-0.46l0.54-1.21c0.26,0.17,0.56,0.31,0.9,0.41
						c0.34,0.11,0.68,0.16,1.01,0.16c0.63,0,0.94-0.16,0.94-0.47c0-0.17-0.09-0.29-0.27-0.37c-0.18-0.08-0.47-0.16-0.86-0.25
						c-0.44-0.09-0.8-0.19-1.09-0.3c-0.29-0.11-0.54-0.28-0.75-0.52c-0.21-0.24-0.31-0.56-0.31-0.96c0-0.35,0.1-0.67,0.29-0.95
						c0.19-0.28,0.48-0.51,0.86-0.67c0.38-0.17,0.85-0.25,1.41-0.25c0.38,0,0.75,0.04,1.12,0.13c0.37,0.08,0.69,0.21,0.98,0.38
						l-0.5,1.22c-0.55-0.3-1.09-0.45-1.6-0.45c-0.33,0-0.56,0.05-0.71,0.14c-0.15,0.1-0.22,0.22-0.22,0.38
						c0,0.15,0.09,0.27,0.26,0.35s0.46,0.16,0.85,0.24c0.44,0.09,0.81,0.19,1.1,0.3c0.29,0.11,0.54,0.28,0.75,0.51
						c0.21,0.23,0.32,0.55,0.32,0.95c0,0.35-0.1,0.66-0.29,0.94c-0.19,0.28-0.48,0.51-0.87,0.67c-0.39,0.17-0.85,0.25-1.41,0.25
						C251.7,112.91,251.24,112.85,250.8,112.74z"/>
					<path class="st2" d="M257.45,108.31h-1.78v-1.3h5.18v1.3h-1.77v4.49h-1.64V108.31z"/>
					<path class="st2" d="M262.3,107.01h1.64v5.79h-1.64V107.01z"/>
					<path class="st2" d="M271.43,107.01v5.79h-1.35l-2.55-3.08v3.08h-1.6v-5.79h1.35l2.55,3.08v-3.08H271.43z"/>
					<path class="st2" d="M277.29,111.67h-2.45l-0.45,1.12h-1.67l2.55-5.79h1.61l2.56,5.79h-1.7L277.29,111.67z M276.81,110.46
						l-0.74-1.85l-0.74,1.85H276.81z"/>
					<path class="st2" d="M280.74,107.01h1.64v5.79h-1.64V107.01z"/>
					<path class="st2" d="M285.04,112.74c-0.44-0.12-0.8-0.27-1.07-0.46l0.54-1.21c0.26,0.17,0.56,0.31,0.9,0.41
						c0.34,0.11,0.68,0.16,1.01,0.16c0.63,0,0.94-0.16,0.94-0.47c0-0.17-0.09-0.29-0.27-0.37c-0.18-0.08-0.47-0.16-0.86-0.25
						c-0.44-0.09-0.8-0.19-1.09-0.3c-0.29-0.11-0.54-0.28-0.75-0.52c-0.21-0.24-0.31-0.56-0.31-0.96c0-0.35,0.1-0.67,0.29-0.95
						c0.19-0.28,0.48-0.51,0.86-0.67c0.38-0.17,0.85-0.25,1.41-0.25c0.38,0,0.75,0.04,1.12,0.13c0.37,0.08,0.69,0.21,0.98,0.38
						l-0.5,1.22c-0.55-0.3-1.09-0.45-1.6-0.45c-0.33,0-0.56,0.05-0.71,0.14c-0.15,0.1-0.22,0.22-0.22,0.38
						c0,0.15,0.09,0.27,0.26,0.35s0.46,0.16,0.85,0.24c0.44,0.09,0.81,0.19,1.1,0.3c0.29,0.11,0.54,0.28,0.75,0.51
						c0.21,0.23,0.32,0.55,0.32,0.95c0,0.35-0.1,0.66-0.29,0.94c-0.19,0.28-0.48,0.51-0.87,0.67c-0.39,0.17-0.85,0.25-1.41,0.25
						C285.93,112.91,285.48,112.85,285.04,112.74z"/>
					<path class="st2" d="M291.97,111.26c0.18,0.17,0.26,0.39,0.26,0.67c0,0.13-0.02,0.25-0.05,0.38c-0.03,0.13-0.11,0.32-0.22,0.57
						l-0.52,1.21h-0.98l0.39-1.35c-0.15-0.07-0.27-0.18-0.36-0.32c-0.09-0.14-0.13-0.3-0.13-0.49c0-0.27,0.09-0.5,0.26-0.67
						c0.18-0.17,0.4-0.26,0.68-0.26C291.57,111.01,291.79,111.1,291.97,111.26z"/>
					<path class="st2" d="M210.92,122.11c-0.48-0.26-0.86-0.61-1.14-1.07c-0.28-0.46-0.41-0.98-0.41-1.55s0.14-1.1,0.41-1.55
						c0.27-0.46,0.65-0.81,1.14-1.07c0.48-0.26,1.03-0.38,1.63-0.38c0.53,0,1.01,0.09,1.43,0.28c0.42,0.19,0.78,0.46,1.06,0.81
						l-1.04,0.94c-0.38-0.45-0.83-0.68-1.36-0.68c-0.31,0-0.59,0.07-0.84,0.21c-0.25,0.14-0.44,0.33-0.57,0.58
						c-0.14,0.25-0.2,0.54-0.2,0.86s0.07,0.61,0.2,0.86c0.13,0.25,0.32,0.45,0.57,0.58c0.24,0.14,0.52,0.21,0.84,0.21
						c0.54,0,0.99-0.23,1.36-0.68l1.04,0.94c-0.28,0.35-0.63,0.62-1.06,0.81c-0.42,0.19-0.9,0.28-1.43,0.28
						C211.94,122.5,211.4,122.37,210.92,122.11z"/>
					<path class="st2" d="M217.74,122.11c-0.49-0.26-0.87-0.62-1.15-1.07c-0.28-0.46-0.42-0.97-0.42-1.55s0.14-1.09,0.42-1.55
						c0.28-0.46,0.66-0.82,1.15-1.07c0.49-0.26,1.04-0.39,1.65-0.39c0.61,0,1.16,0.13,1.65,0.39c0.49,0.26,0.87,0.62,1.15,1.07
						c0.28,0.46,0.42,0.97,0.42,1.55s-0.14,1.09-0.42,1.55c-0.28,0.46-0.66,0.82-1.15,1.07c-0.49,0.26-1.04,0.39-1.65,0.39
						C218.77,122.5,218.22,122.37,217.74,122.11z M220.18,120.93c0.24-0.14,0.42-0.33,0.56-0.58c0.14-0.25,0.21-0.54,0.21-0.86
						s-0.07-0.61-0.21-0.86c-0.14-0.25-0.33-0.45-0.56-0.58c-0.24-0.14-0.5-0.21-0.79-0.21c-0.29,0-0.56,0.07-0.79,0.21
						c-0.24,0.14-0.42,0.33-0.56,0.58c-0.14,0.25-0.21,0.54-0.21,0.86s0.07,0.61,0.21,0.86c0.14,0.25,0.33,0.45,0.56,0.58
						c0.24,0.14,0.5,0.21,0.79,0.21C219.68,121.14,219.94,121.07,220.18,120.93z"/>
					<path class="st2" d="M229.51,122.38l-0.02-3.07l-1.49,2.5h-0.73l-1.48-2.41v2.98h-1.51v-5.79h1.35l2.03,3.34l1.98-3.34H231
						l0.02,5.79H229.51z"/>
					<path class="st2" d="M234.27,122.11c-0.49-0.26-0.87-0.62-1.15-1.07s-0.42-0.97-0.42-1.55s0.14-1.09,0.42-1.55
						s0.66-0.82,1.15-1.07c0.49-0.26,1.04-0.39,1.65-0.39c0.61,0,1.16,0.13,1.65,0.39c0.49,0.26,0.87,0.62,1.15,1.07
						s0.42,0.97,0.42,1.55s-0.14,1.09-0.42,1.55s-0.66,0.82-1.15,1.07c-0.49,0.26-1.04,0.39-1.65,0.39
						C235.3,122.5,234.75,122.37,234.27,122.11z M236.71,120.93c0.24-0.14,0.42-0.33,0.56-0.58c0.14-0.25,0.21-0.54,0.21-0.86
						s-0.07-0.61-0.21-0.86c-0.14-0.25-0.33-0.45-0.56-0.58c-0.24-0.14-0.5-0.21-0.79-0.21c-0.29,0-0.56,0.07-0.79,0.21
						c-0.24,0.14-0.42,0.33-0.56,0.58c-0.14,0.25-0.21,0.54-0.21,0.86s0.07,0.61,0.21,0.86c0.14,0.25,0.33,0.45,0.56,0.58
						c0.24,0.14,0.5,0.21,0.79,0.21C236.21,121.14,236.47,121.07,236.71,120.93z"/>
					<path class="st2" d="M244.05,116.6h2.74c0.63,0,1.19,0.12,1.69,0.36c0.49,0.24,0.87,0.57,1.14,1.01
						c0.27,0.44,0.4,0.95,0.4,1.53c0,0.58-0.13,1.09-0.4,1.53c-0.27,0.43-0.65,0.77-1.14,1.01c-0.49,0.24-1.05,0.36-1.69,0.36h-2.74
						V116.6z M246.72,121.08c0.5,0,0.89-0.14,1.19-0.42c0.3-0.28,0.45-0.67,0.45-1.17c0-0.5-0.15-0.88-0.45-1.17
						c-0.3-0.28-0.7-0.42-1.19-0.42h-1.03v3.17H246.72z"/>
					<path class="st2" d="M251.7,116.6h1.64v5.79h-1.64V116.6z"/>
					<path class="st2" d="M259.21,121.26h-2.45l-0.45,1.12h-1.67l2.55-5.79h1.61l2.56,5.79h-1.7L259.21,121.26z M258.73,120.05
						l-0.74-1.85l-0.74,1.85H258.73z"/>
					<path class="st2" d="M265.18,120.84h-0.89v1.54h-1.64v-5.79h2.64c0.52,0,0.98,0.09,1.36,0.26c0.39,0.17,0.68,0.42,0.89,0.74
						c0.21,0.32,0.31,0.7,0.31,1.14c0,0.42-0.1,0.78-0.29,1.1c-0.2,0.31-0.48,0.56-0.84,0.73l1.25,1.82h-1.75L265.18,120.84z
						 M265.96,118.11c-0.17-0.15-0.42-0.22-0.76-0.22h-0.91v1.69h0.91c0.34,0,0.59-0.07,0.76-0.22c0.17-0.15,0.26-0.35,0.26-0.62
						C266.21,118.47,266.13,118.26,265.96,118.11z"/>
					<path class="st2" d="M272.12,120.84h-0.89v1.54h-1.64v-5.79h2.64c0.52,0,0.98,0.09,1.36,0.26c0.39,0.17,0.68,0.42,0.89,0.74
						c0.21,0.32,0.31,0.7,0.31,1.14c0,0.42-0.1,0.78-0.29,1.1c-0.2,0.31-0.48,0.56-0.84,0.73l1.25,1.82h-1.75L272.12,120.84z
						 M272.9,118.11c-0.17-0.15-0.42-0.22-0.76-0.22h-0.91v1.69h0.91c0.34,0,0.59-0.07,0.76-0.22c0.17-0.15,0.26-0.35,0.26-0.62
						C273.16,118.47,273.07,118.26,272.9,118.11z"/>
					<path class="st2" d="M281.18,121.12v1.26h-4.65v-5.79h4.54v1.26h-2.92v0.98h2.57v1.22h-2.57v1.06H281.18z M279.11,114.87h1.57
						l-1.55,1.26H278L279.11,114.87z"/>
					<path class="st2" d="M282.92,116.6h1.64v5.79h-1.64V116.6z"/>
					<path class="st2" d="M290.42,121.26h-2.45l-0.45,1.12h-1.67l2.55-5.79h1.61l2.56,5.79h-1.7L290.42,121.26z M289.94,120.05
						l-0.74-1.85l-0.74,1.85H289.94z"/>
					<path class="st2" d="M222.04,131.83c-0.18-0.66-0.28-1.37-0.28-2.13c0-0.75,0.09-1.46,0.28-2.13s0.45-1.24,0.79-1.74h1.5
						c-0.36,0.63-0.62,1.26-0.79,1.89c-0.17,0.63-0.25,1.29-0.25,1.98c0,0.69,0.08,1.35,0.25,1.98c0.17,0.63,0.43,1.25,0.79,1.89
						h-1.5C222.49,133.07,222.23,132.49,222.04,131.83z"/>
					<path class="st2" d="M230.95,131.97l-0.02-3.07l-1.49,2.5h-0.73l-1.48-2.41v2.98h-1.51v-5.79h1.35l2.03,3.34l1.98-3.34h1.35
						l0.02,5.79H230.95z"/>
					<path class="st2" d="M238.31,130.84h-2.45l-0.45,1.12h-1.67l2.55-5.79h1.61l2.56,5.79h-1.7L238.31,130.84z M237.83,129.64
						l-0.74-1.85l-0.74,1.85H237.83z"/>
					<path class="st2" d="M241.76,126.18h1.64v5.79h-1.64V126.18z"/>
					<path class="st2" d="M246.06,131.91c-0.44-0.12-0.8-0.27-1.07-0.46l0.54-1.21c0.26,0.17,0.56,0.31,0.9,0.41
						c0.34,0.11,0.68,0.16,1.01,0.16c0.63,0,0.94-0.16,0.94-0.47c0-0.17-0.09-0.29-0.27-0.37c-0.18-0.08-0.47-0.16-0.86-0.25
						c-0.44-0.09-0.8-0.19-1.09-0.3c-0.29-0.11-0.54-0.28-0.75-0.52c-0.21-0.24-0.31-0.56-0.31-0.96c0-0.35,0.1-0.67,0.29-0.95
						c0.19-0.28,0.48-0.51,0.86-0.67c0.38-0.17,0.85-0.25,1.41-0.25c0.38,0,0.75,0.04,1.12,0.13c0.37,0.08,0.69,0.21,0.98,0.38
						l-0.5,1.22c-0.55-0.3-1.09-0.45-1.6-0.45c-0.33,0-0.56,0.05-0.71,0.14c-0.15,0.1-0.22,0.22-0.22,0.38s0.09,0.27,0.26,0.35
						c0.18,0.08,0.46,0.16,0.85,0.24c0.44,0.09,0.81,0.19,1.1,0.3c0.29,0.11,0.54,0.28,0.75,0.51c0.21,0.23,0.32,0.55,0.32,0.95
						c0,0.35-0.1,0.66-0.29,0.94c-0.19,0.28-0.48,0.51-0.87,0.67c-0.39,0.17-0.85,0.25-1.41,0.25
						C246.95,132.08,246.5,132.02,246.06,131.91z"/>
					<path class="st2" d="M257.32,130.43h-0.89v1.54h-1.64v-5.79h2.64c0.52,0,0.98,0.09,1.36,0.26s0.68,0.42,0.89,0.74
						c0.21,0.32,0.31,0.7,0.31,1.14c0,0.42-0.1,0.78-0.29,1.1c-0.2,0.31-0.48,0.56-0.84,0.73l1.25,1.82h-1.75L257.32,130.43z
						 M258.1,127.69c-0.17-0.15-0.42-0.22-0.76-0.22h-0.91v1.69h0.91c0.34,0,0.59-0.07,0.76-0.22c0.17-0.15,0.26-0.35,0.26-0.62
						C258.36,128.05,258.27,127.84,258.1,127.69z"/>
					<path class="st2" d="M265.61,130.84h-2.45l-0.45,1.12h-1.67l2.55-5.79h1.61l2.56,5.79h-1.7L265.61,130.84z M265.13,129.64
						l-0.74-1.85l-0.74,1.85H265.13z"/>
					<path class="st2" d="M271.59,130.43h-0.89v1.54h-1.64v-5.79h2.64c0.52,0,0.98,0.09,1.36,0.26s0.68,0.42,0.89,0.74
						c0.21,0.32,0.31,0.7,0.31,1.14c0,0.42-0.1,0.78-0.29,1.1c-0.2,0.31-0.48,0.56-0.84,0.73l1.25,1.82h-1.75L271.59,130.43z
						 M272.36,127.69c-0.17-0.15-0.42-0.22-0.76-0.22h-0.91v1.69h0.91c0.34,0,0.59-0.07,0.76-0.22s0.26-0.35,0.26-0.62
						C272.62,128.05,272.54,127.84,272.36,127.69z"/>
					<path class="st2" d="M277.27,131.69c-0.49-0.26-0.87-0.62-1.15-1.07c-0.28-0.46-0.42-0.97-0.42-1.55
						c0-0.57,0.14-1.09,0.42-1.55c0.28-0.46,0.66-0.82,1.15-1.07c0.49-0.26,1.04-0.39,1.65-0.39c0.61,0,1.16,0.13,1.65,0.39
						c0.49,0.26,0.87,0.62,1.15,1.07s0.42,0.97,0.42,1.55c0,0.57-0.14,1.09-0.42,1.55s-0.66,0.82-1.15,1.07
						c-0.49,0.26-1.04,0.39-1.65,0.39C278.31,132.08,277.76,131.95,277.27,131.69z M279.71,130.52c0.24-0.14,0.42-0.33,0.56-0.58
						c0.14-0.25,0.21-0.54,0.21-0.86c0-0.32-0.07-0.61-0.21-0.86c-0.14-0.25-0.33-0.45-0.56-0.58c-0.24-0.14-0.5-0.21-0.79-0.21
						c-0.29,0-0.56,0.07-0.79,0.21c-0.24,0.14-0.42,0.33-0.56,0.58c-0.14,0.25-0.21,0.54-0.21,0.86c0,0.32,0.07,0.61,0.21,0.86
						c0.14,0.25,0.33,0.45,0.56,0.58c0.24,0.14,0.5,0.21,0.79,0.21C279.21,130.73,279.47,130.66,279.71,130.52z"/>
					<path class="st2" d="M284.49,131.91c-0.44-0.12-0.8-0.27-1.07-0.46l0.54-1.21c0.26,0.17,0.56,0.31,0.9,0.41
						c0.34,0.11,0.68,0.16,1.01,0.16c0.63,0,0.94-0.16,0.94-0.47c0-0.17-0.09-0.29-0.27-0.37c-0.18-0.08-0.47-0.16-0.86-0.25
						c-0.44-0.09-0.8-0.19-1.09-0.3c-0.29-0.11-0.54-0.28-0.75-0.52c-0.21-0.24-0.31-0.56-0.31-0.96c0-0.35,0.1-0.67,0.29-0.95
						c0.19-0.28,0.48-0.51,0.86-0.67c0.38-0.17,0.85-0.25,1.41-0.25c0.38,0,0.75,0.04,1.12,0.13c0.37,0.08,0.69,0.21,0.98,0.38
						l-0.5,1.22c-0.55-0.3-1.09-0.45-1.6-0.45c-0.33,0-0.56,0.05-0.71,0.14c-0.15,0.1-0.22,0.22-0.22,0.38s0.09,0.27,0.26,0.35
						c0.18,0.08,0.46,0.16,0.85,0.24c0.44,0.09,0.81,0.19,1.1,0.3c0.29,0.11,0.54,0.28,0.75,0.51c0.21,0.23,0.32,0.55,0.32,0.95
						c0,0.35-0.1,0.66-0.29,0.94c-0.19,0.28-0.48,0.51-0.87,0.67c-0.39,0.17-0.85,0.25-1.41,0.25
						C285.38,132.08,284.93,132.02,284.49,131.91z"/>
					<path class="st2" d="M289.4,133.57c0.36-0.63,0.62-1.26,0.79-1.89c0.17-0.63,0.25-1.29,0.25-1.98c0-0.69-0.08-1.35-0.25-1.98
						c-0.17-0.62-0.43-1.25-0.79-1.89h1.5c0.34,0.5,0.61,1.08,0.79,1.74c0.18,0.66,0.28,1.37,0.28,2.13c0,0.76-0.09,1.47-0.28,2.13
						c-0.18,0.66-0.45,1.24-0.79,1.74H289.4z"/>
				</g>
				<g>
					<path class="st2" d="M2.12,174.43h2.74c0.63,0,1.2,0.12,1.69,0.36c0.49,0.24,0.87,0.57,1.14,1.01
						c0.27,0.44,0.41,0.95,0.41,1.53c0,0.58-0.13,1.09-0.41,1.53c-0.27,0.43-0.65,0.77-1.14,1.01c-0.49,0.24-1.05,0.36-1.69,0.36
						H2.12V174.43z M4.79,178.91c0.5,0,0.89-0.14,1.19-0.42s0.45-0.67,0.45-1.17c0-0.5-0.15-0.88-0.45-1.17
						c-0.3-0.28-0.7-0.42-1.19-0.42H3.75v3.17H4.79z"/>
					<path class="st2" d="M9.77,174.43h1.64v5.79H9.77V174.43z"/>
					<path class="st2" d="M15.03,175.69v1.27h2.55v1.26h-2.55v1.98H13.4v-5.79h4.54v1.26H15.03z"/>
					<path class="st2" d="M19.53,174.43h1.64v5.79h-1.64V174.43z"/>
					<path class="st2" d="M24.41,179.94c-0.48-0.26-0.86-0.61-1.14-1.07c-0.28-0.46-0.41-0.98-0.41-1.55s0.14-1.1,0.41-1.55
						c0.28-0.46,0.65-0.81,1.14-1.07c0.48-0.26,1.03-0.38,1.63-0.38c0.53,0,1.01,0.09,1.43,0.28c0.42,0.19,0.78,0.46,1.06,0.81
						l-1.04,0.94c-0.37-0.45-0.83-0.68-1.36-0.68c-0.31,0-0.59,0.07-0.84,0.21c-0.24,0.14-0.43,0.33-0.57,0.58
						c-0.14,0.25-0.2,0.54-0.2,0.86c0,0.32,0.07,0.61,0.2,0.86c0.14,0.25,0.33,0.45,0.57,0.58c0.25,0.14,0.52,0.21,0.84,0.21
						c0.53,0,0.99-0.23,1.36-0.68l1.04,0.94c-0.28,0.35-0.63,0.62-1.06,0.81c-0.42,0.19-0.9,0.28-1.43,0.28
						C25.44,180.33,24.89,180.2,24.41,179.94z"/>
					<path class="st2" d="M30.68,179.62c-0.48-0.47-0.71-1.13-0.71-1.99v-3.21h1.64v3.16c0,0.93,0.37,1.39,1.1,1.39
						c0.73,0,1.09-0.46,1.09-1.39v-3.16h1.61v3.21c0,0.86-0.24,1.52-0.71,1.99c-0.48,0.47-1.14,0.7-2,0.7
						C31.83,180.33,31.16,180.09,30.68,179.62z"/>
					<path class="st2" d="M37.34,174.43h1.64v4.49h2.76v1.3h-4.4V174.43z"/>
					<path class="st2" d="M43.21,174.43h2.74c0.63,0,1.2,0.12,1.69,0.36c0.49,0.24,0.87,0.57,1.14,1.01
						c0.27,0.44,0.41,0.95,0.41,1.53c0,0.58-0.13,1.09-0.41,1.53c-0.27,0.43-0.65,0.77-1.14,1.01c-0.49,0.24-1.05,0.36-1.69,0.36
						h-2.74V174.43z M45.88,178.91c0.5,0,0.89-0.14,1.19-0.42c0.3-0.28,0.45-0.67,0.45-1.17c0-0.5-0.15-0.88-0.45-1.17
						c-0.3-0.28-0.7-0.42-1.19-0.42h-1.03v3.17H45.88z"/>
					<path class="st2" d="M54.66,179.09h-2.45l-0.45,1.12h-1.67l2.55-5.79h1.61l2.56,5.79h-1.7L54.66,179.09z M54.18,177.88
						l-0.74-1.85l-0.74,1.85H54.18z"/>
					<path class="st2" d="M58.1,174.43h2.74c0.63,0,1.2,0.12,1.69,0.36c0.49,0.24,0.87,0.57,1.14,1.01
						c0.27,0.44,0.41,0.95,0.41,1.53c0,0.58-0.13,1.09-0.41,1.53c-0.27,0.43-0.65,0.77-1.14,1.01c-0.49,0.24-1.05,0.36-1.69,0.36
						H58.1V174.43z M60.77,178.91c0.5,0,0.89-0.14,1.19-0.42c0.3-0.28,0.45-0.67,0.45-1.17c0-0.5-0.15-0.88-0.45-1.17
						c-0.3-0.28-0.7-0.42-1.19-0.42h-1.03v3.17H60.77z"/>
					<path class="st2" d="M70.4,178.95v1.26h-4.65v-5.79h4.54v1.26h-2.92v0.98h2.57v1.22h-2.57v1.06H70.4z"/>
					<path class="st2" d="M2.12,184.01h2.74c0.63,0,1.2,0.12,1.69,0.36c0.49,0.24,0.87,0.57,1.14,1.01
						c0.27,0.44,0.41,0.95,0.41,1.53c0,0.58-0.13,1.09-0.41,1.53c-0.27,0.43-0.65,0.77-1.14,1.01c-0.49,0.24-1.05,0.36-1.69,0.36
						H2.12V184.01z M4.79,188.49c0.5,0,0.89-0.14,1.19-0.42s0.45-0.67,0.45-1.17c0-0.5-0.15-0.88-0.45-1.17
						c-0.3-0.28-0.7-0.42-1.19-0.42H3.75v3.17H4.79z"/>
					<path class="st2" d="M14.41,188.53v1.26H9.77v-5.79h4.54v1.26h-2.92v0.98h2.57v1.22h-2.57v1.06H14.41z"/>
					<path class="st2" d="M21.91,188.26h-0.89v1.54h-1.64v-5.79h2.64c0.52,0,0.98,0.09,1.36,0.26c0.39,0.17,0.68,0.42,0.89,0.74
						c0.21,0.32,0.31,0.7,0.31,1.14c0,0.42-0.1,0.78-0.29,1.1c-0.2,0.31-0.48,0.56-0.84,0.73l1.25,1.82h-1.75L21.91,188.26z
						 M22.69,185.52c-0.17-0.15-0.42-0.22-0.76-0.22h-0.91v1.69h0.91c0.34,0,0.59-0.07,0.76-0.22c0.17-0.15,0.26-0.35,0.26-0.62
						C22.94,185.88,22.86,185.67,22.69,185.52z"/>
					<path class="st2" d="M30.97,188.53v1.26h-4.65v-5.79h4.54v1.26h-2.92v0.98h2.57v1.22h-2.57v1.06H30.97z"/>
					<path class="st2" d="M33.37,189.74c-0.44-0.12-0.8-0.27-1.07-0.46l0.54-1.21c0.26,0.17,0.56,0.31,0.9,0.41
						c0.34,0.11,0.68,0.16,1.01,0.16c0.63,0,0.94-0.16,0.94-0.47c0-0.17-0.09-0.29-0.27-0.37c-0.18-0.08-0.47-0.16-0.86-0.25
						c-0.44-0.09-0.8-0.19-1.09-0.3c-0.29-0.11-0.54-0.28-0.75-0.52c-0.21-0.24-0.31-0.56-0.31-0.96c0-0.35,0.1-0.67,0.29-0.95
						c0.19-0.28,0.48-0.51,0.86-0.67c0.38-0.17,0.85-0.25,1.41-0.25c0.38,0,0.75,0.04,1.12,0.13c0.37,0.08,0.69,0.21,0.98,0.38
						l-0.5,1.22c-0.55-0.3-1.09-0.45-1.6-0.45c-0.33,0-0.56,0.05-0.71,0.14c-0.15,0.1-0.22,0.22-0.22,0.38s0.09,0.27,0.26,0.35
						c0.18,0.08,0.46,0.16,0.85,0.24c0.44,0.09,0.81,0.19,1.1,0.3c0.29,0.11,0.54,0.28,0.75,0.51c0.21,0.23,0.32,0.55,0.32,0.95
						c0,0.35-0.1,0.66-0.29,0.94c-0.19,0.28-0.48,0.51-0.87,0.67c-0.39,0.17-0.85,0.25-1.41,0.25
						C34.27,189.91,33.82,189.85,33.37,189.74z"/>
					<path class="st2" d="M42.89,184.27c0.39,0.17,0.68,0.42,0.89,0.74c0.21,0.32,0.31,0.7,0.31,1.14c0,0.44-0.1,0.81-0.31,1.13
						c-0.21,0.32-0.51,0.57-0.89,0.74c-0.39,0.17-0.84,0.26-1.36,0.26h-1.01v1.51h-1.64v-5.79h2.64
						C42.05,184.01,42.5,184.1,42.89,184.27z M42.19,186.78c0.17-0.15,0.26-0.35,0.26-0.62c0-0.27-0.09-0.48-0.26-0.63
						c-0.17-0.15-0.42-0.22-0.76-0.22h-0.91v1.69h0.91C41.76,186.99,42.01,186.92,42.19,186.78z"/>
					<path class="st2" d="M45.71,184.01h1.64v5.79h-1.64V184.01z"/>
					<path class="st2" d="M51.87,188.26h-0.89v1.54h-1.64v-5.79h2.64c0.52,0,0.98,0.09,1.36,0.26c0.39,0.17,0.68,0.42,0.89,0.74
						c0.21,0.32,0.31,0.7,0.31,1.14c0,0.42-0.1,0.78-0.29,1.1s-0.48,0.56-0.84,0.73l1.25,1.82h-1.75L51.87,188.26z M52.65,185.52
						c-0.17-0.15-0.42-0.22-0.76-0.22h-0.91v1.69h0.91c0.34,0,0.59-0.07,0.76-0.22c0.17-0.15,0.26-0.35,0.26-0.62
						C52.9,185.88,52.82,185.67,52.65,185.52z"/>
					<path class="st2" d="M60.16,188.67h-2.45l-0.45,1.12h-1.67l2.55-5.79h1.61l2.56,5.79h-1.7L60.16,188.67z M59.68,187.47
						l-0.74-1.85l-0.74,1.85H59.68z"/>
					<path class="st2" d="M66.14,188.26h-0.89v1.54h-1.64v-5.79h2.64c0.52,0,0.98,0.09,1.36,0.26c0.39,0.17,0.68,0.42,0.89,0.74
						c0.21,0.32,0.31,0.7,0.31,1.14c0,0.42-0.1,0.78-0.29,1.1c-0.2,0.31-0.48,0.56-0.84,0.73l1.25,1.82h-1.75L66.14,188.26z
						 M66.91,185.52c-0.17-0.15-0.42-0.22-0.76-0.22h-0.91v1.69h0.91c0.34,0,0.59-0.07,0.76-0.22c0.17-0.15,0.26-0.35,0.26-0.62
						C67.17,185.88,67.09,185.67,66.91,185.52z"/>
				</g>
			</g>
			<text transform="matrix(1 0 0 1 356.8884 210.1842)"><tspan x="0" y="0" class="st1" style="font-family:'Montserrat-ExtraBold'; font-size:7.1346px;">FEBRE</tspan><tspan x="0" y="8.27" class="st1" style="font-family:'Montserrat-ExtraBold'; font-size:7.1346px;">(&gt;37,8 C)</tspan></text>
			
				<text transform="matrix(1 0 0 1 492.1511 252.2785)" class="st1" style="font-family:'Montserrat-ExtraBold'; font-size:7.1346px;">TOSSE</text>
			<text transform="matrix(1 0 0 1 329.1232 265.8839)"><tspan x="0" y="0" class="st1" style="font-family:'Montserrat-ExtraBold'; font-size:7.1346px;">DOR NO</tspan><tspan x="0" y="8.27" class="st1" style="font-family:'Montserrat-ExtraBold'; font-size:7.1346px;">CORPO E </tspan><tspan x="0" y="16.55" class="st1" style="font-family:'Montserrat-ExtraBold'; font-size:7.1346px;">CANSAO</tspan></text>
			<g>
				
					<text transform="matrix(1 0 0 1 383.1999 215.2775)" style="fill:#15B7FF; font-family:'Montserrat-ExtraBold'; font-size:4.2092px;">O</text>
			</g>
			<text transform="matrix(1 0 0 1 540.2702 281.2336)"><tspan x="0" y="0" class="st1" style="font-family:'Montserrat-ExtraBold'; font-size:7.1346px;">SINTOMAS</tspan><tspan x="-47.79" y="8.27" class="st1" style="font-family:'Montserrat-ExtraBold'; font-size:7.1346px;">GASTROINTESTINAIS,</tspan><tspan x="-26.7" y="16.55" class="st1" style="font-family:'Montserrat-ExtraBold'; font-size:7.1346px;">COMO DIARRIA</tspan><tspan x="-16.08" y="24.82" class="st1" style="font-family:'Montserrat-ExtraBold'; font-size:7.1346px;">(MAIS RAROS)</tspan></text>
			<text transform="matrix(1 0 0 1 317.2477 351.1564)"><tspan x="0" y="0" class="st1" style="font-family:'Montserrat-ExtraBold'; font-size:7.1346px;">DIFICULDADE </tspan><tspan x="0" y="8.27" class="st1" style="font-family:'Montserrat-ExtraBold'; font-size:7.1346px;">DE RESPIRAR</tspan></text>
		</g>
		
			<rect x="227.04" y="166.54" transform="matrix(0.1122 -0.9937 0.9937 0.1122 23.513 385.8289)" class="st14" width="1.28" height="26.43"/>
		<path class="st1" d="M215.55,176.48c0.78,0.97,0.62,2.39-0.36,3.17c-0.97,0.78-2.39,0.62-3.17-0.36
			c-0.78-0.97-0.62-2.39,0.36-3.17C213.35,175.35,214.77,175.51,215.55,176.48z"/>
		<path class="st1" d="M243.46,179.97c0.78,0.97,0.62,2.39-0.36,3.17c-0.97,0.78-2.39,0.62-3.17-0.36
			c-0.78-0.97-0.62-2.39,0.36-3.17C241.26,178.84,242.68,179,243.46,179.97z"/>
		
			<rect x="219.46" y="167.72" transform="matrix(0.782 -0.6233 0.6233 0.782 -58.6581 174.7023)" class="st14" width="1.88" height="6.97"/>
		<path class="st1" d="M219.67,166.16c0.88,1.11,0.7,2.72-0.41,3.61c-1.11,0.88-2.72,0.7-3.61-0.41c-0.88-1.11-0.7-2.72,0.41-3.61
			C217.17,164.87,218.78,165.05,219.67,166.16z"/>
		
			<rect x="235.51" y="169.9" transform="matrix(-0.6233 -0.782 0.782 -0.6233 248.3163 465.9734)" class="st14" width="1.76" height="6.56"/>
		<path class="st1" d="M240.93,169.53c0.69,0.86,0.55,2.12-0.32,2.81c-0.86,0.69-2.12,0.55-2.81-0.32
			c-0.69-0.86-0.55-2.12,0.32-2.81C238.99,168.53,240.24,168.67,240.93,169.53z"/>
		
			<rect x="217.04" y="183.49" transform="matrix(-0.6233 -0.782 0.782 -0.6233 207.3755 475.3139)" class="st14" width="2.27" height="8.45"/>
		<path class="st1" d="M216.57,188.95c0.89,1.11,0.7,2.73-0.41,3.61c-1.11,0.89-2.73,0.7-3.61-0.41c-0.89-1.11-0.7-2.73,0.41-3.61
			C214.07,187.66,215.68,187.84,216.57,188.95z"/>
		
			<rect x="233.49" y="185.16" transform="matrix(0.782 -0.6233 0.6233 0.782 -66.602 187.34)" class="st14" width="2" height="7.42"/>
		<path class="st1" d="M239.83,191.19c0.94,1.18,0.75,2.9-0.43,3.84c-1.18,0.94-2.9,0.75-3.84-0.43s-0.75-2.9,0.43-3.84
			C237.17,189.81,238.89,190,239.83,191.19z"/>
		
			<rect x="227.08" y="166.59" transform="matrix(-0.9937 -0.1121 0.1121 -0.9937 433.8308 384.0068)" class="st14" width="1.28" height="26.43"/>
		<path class="st1" d="M230.91,164.24c0.78,0.97,0.62,2.39-0.36,3.17c-0.97,0.78-2.39,0.62-3.17-0.36
			c-0.78-0.97-0.62-2.39,0.36-3.17C228.72,163.1,230.13,163.26,230.91,164.24z"/>
		<path class="st1" d="M227.78,193.14c0.78,0.97,0.62,2.39-0.36,3.17c-0.97,0.78-2.39,0.62-3.17-0.36
			c-0.78-0.97-0.62-2.39,0.36-3.17C225.58,192.01,227,192.17,227.78,193.14z"/>
		<path class="st2" d="M234.82,174.44c3.19,4,2.53,9.82-1.47,13c-1.18,0.94-2.52,1.55-3.9,1.83c-3.3,0.68-6.85-0.48-9.1-3.3
			c-3.19-4-2.53-9.82,1.47-13C225.81,169.79,231.63,170.45,234.82,174.44z"/>
		<path class="st1" d="M231.66,175.59c1.06,1.33,0.84,3.26-0.49,4.32c-1.33,1.06-3.26,0.84-4.32-0.49
			c-1.06-1.33-0.84-3.26,0.49-4.32C228.67,174.04,230.6,174.26,231.66,175.59z"/>
		<path class="st1" d="M228.03,183.1c0.69,0.87,0.55,2.14-0.32,2.83c-0.87,0.69-2.14,0.55-2.83-0.32c-0.69-0.87-0.55-2.14,0.32-2.83
			C226.07,182.09,227.34,182.23,228.03,183.1z"/>
		<path class="st1" d="M223.67,179.02c0.61,0.77,0.49,1.89-0.28,2.51c-0.77,0.61-1.89,0.49-2.51-0.28
			c-0.61-0.77-0.49-1.89,0.28-2.51C221.94,178.13,223.06,178.25,223.67,179.02z"/>
		<path class="st1" d="M231.8,171.97c0,0,8.53,9.12-2.66,17.37c0,0,0.95-0.17,1.55-0.41c0,0,0.58-0.2,1.21-0.53
			c0,0,1.22-0.64,2.22-1.63c0,0,1.9-1.69,2.5-4.51c0,0,0.87-3.39-0.77-6.23C235.84,176.02,234.82,173.6,231.8,171.97z"/>
		
			<rect x="222.06" y="144.7" transform="matrix(0.112 -0.9937 0.9937 0.112 49.4057 353.0761)" class="st14" width="0.41" height="8.39"/>
		<path class="st1" d="M218.41,147.86c0.25,0.31,0.2,0.76-0.11,1.01c-0.31,0.25-0.76,0.2-1.01-0.11c-0.25-0.31-0.2-0.76,0.11-1.01
			C217.71,147.5,218.16,147.55,218.41,147.86z"/>
		<path class="st1" d="M227.27,148.96c0.25,0.31,0.2,0.76-0.11,1.01c-0.31,0.25-0.76,0.2-1.01-0.11c-0.25-0.31-0.2-0.76,0.11-1.01
			C226.57,148.6,227.02,148.65,227.27,148.96z"/>
		
			<rect x="219.65" y="145.07" transform="matrix(0.782 -0.6233 0.6233 0.782 -43.161 168.9613)" class="st14" width="0.6" height="2.21"/>
		<path class="st1" d="M219.72,144.58c0.28,0.35,0.22,0.86-0.13,1.15c-0.35,0.28-0.86,0.22-1.15-0.13
			c-0.28-0.35-0.22-0.86,0.13-1.15C218.92,144.17,219.44,144.23,219.72,144.58z"/>
		
			<rect x="224.74" y="145.77" transform="matrix(-0.6233 -0.782 0.782 -0.6233 250.474 414.277)" class="st14" width="0.56" height="2.08"/>
		<path class="st1" d="M226.46,145.65c0.22,0.27,0.17,0.67-0.1,0.89c-0.27,0.22-0.67,0.17-0.89-0.1c-0.22-0.27-0.17-0.67,0.1-0.89
			C225.85,145.33,226.25,145.38,226.46,145.65z"/>
		
			<rect x="218.88" y="150.08" transform="matrix(-0.6233 -0.782 0.782 -0.6233 237.502 417.2396)" class="st14" width="0.72" height="2.68"/>
		<path class="st1" d="M218.73,151.81c0.28,0.35,0.22,0.87-0.13,1.15c-0.35,0.28-0.87,0.22-1.15-0.13
			c-0.28-0.35-0.22-0.87,0.13-1.15C217.94,151.4,218.45,151.46,218.73,151.81z"/>
		
			<rect x="224.1" y="150.61" transform="matrix(0.782 -0.6233 0.6233 0.782 -45.6815 172.9763)" class="st14" width="0.63" height="2.35"/>
		<path class="st1" d="M226.12,152.52c0.3,0.37,0.24,0.92-0.14,1.22c-0.37,0.3-0.92,0.24-1.22-0.14c-0.3-0.37-0.24-0.92,0.14-1.22
			C225.27,152.08,225.82,152.15,226.12,152.52z"/>
		
			<rect x="222.07" y="144.72" transform="matrix(-0.9937 -0.1122 0.1122 -0.9937 426.4279 321.8193)" class="st14" width="0.41" height="8.39"/>
		<path class="st1" d="M223.29,143.97c0.25,0.31,0.2,0.76-0.11,1.01c-0.31,0.25-0.76,0.2-1.01-0.11c-0.25-0.31-0.2-0.76,0.11-1.01
			C222.59,143.61,223.04,143.66,223.29,143.97z"/>
		<path class="st1" d="M222.29,153.14c0.25,0.31,0.2,0.76-0.11,1.01c-0.31,0.25-0.76,0.2-1.01-0.11c-0.25-0.31-0.2-0.76,0.11-1.01
			C221.59,152.78,222.04,152.83,222.29,153.14z"/>
		<path class="st2" d="M224.53,147.21c1.01,1.27,0.8,3.12-0.47,4.13c-0.37,0.3-0.8,0.49-1.24,0.58c-1.05,0.21-2.18-0.15-2.89-1.05
			c-1.01-1.27-0.8-3.12,0.47-4.13C221.67,145.73,223.51,145.94,224.53,147.21z"/>
		<path class="st1" d="M223.52,147.57c0.34,0.42,0.27,1.03-0.15,1.37c-0.42,0.34-1.03,0.27-1.37-0.15
			c-0.34-0.42-0.27-1.03,0.15-1.37C222.57,147.08,223.19,147.15,223.52,147.57z"/>
		<path class="st1" d="M222.37,149.96c0.22,0.28,0.17,0.68-0.1,0.9c-0.28,0.22-0.68,0.17-0.9-0.1c-0.22-0.28-0.17-0.68,0.1-0.9
			C221.75,149.63,222.15,149.68,222.37,149.96z"/>
		<path class="st1" d="M220.99,148.66c0.2,0.24,0.15,0.6-0.09,0.8c-0.24,0.2-0.6,0.15-0.8-0.09s-0.15-0.6,0.09-0.8
			C220.44,148.38,220.79,148.42,220.99,148.66z"/>
		<path class="st1" d="M223.57,146.42c0,0,2.71,2.89-0.85,5.51c0,0,0.3-0.05,0.49-0.13c0,0,0.18-0.06,0.38-0.17
			c0,0,0.39-0.2,0.7-0.52c0,0,0.6-0.54,0.79-1.43c0,0,0.28-1.08-0.25-1.98C224.85,147.71,224.53,146.94,223.57,146.42z"/>
	</g>
</g>
</svg>
