<?xml version="1.0" encoding="utf-8"?>
<!-- Generator: Adobe Illustrator 23.1.1, SVG Export Plug-In . SVG Version: 6.00 Build 0)  -->
<svg version="1.1" id="Camada_1" xmlns="http://www.w3.org/2000/svg" xmlns:xlink="http://www.w3.org/1999/xlink" x="0px" y="0px"
	 viewBox="0 0 324.62 1087.87" style="enable-background:new 0 0 324.62 1087.87;" xml:space="preserve">
<style type="text/css">
	.st0{opacity:0.5;fill:#49CDDA;enable-background:new    ;}
	.st1{fill:#E5E6E8;}
	.st2{fill:#2E7596;}
	.st3{fill:#49CDDA;}
	.st4{fill:#FFFFFF;}
	.st5{enable-background:new    ;}
	.st6{fill:#DE9182;}
	.st7{fill:#C9736D;}
	.st8{fill:#EFB898;}
	.st9{fill:#F2F6F7;}
	.st10{fill:#022435;}
	.st11{fill:#F4A684;}
	.st12{fill:#FFFFFF;stroke:#D3D3D3;stroke-width:4;stroke-miterlimit:10;}
	.st13{fill:#E5E5E5;}
	.st14{opacity:0.4;fill:#FFFFFF;enable-background:new    ;}
	.st15{opacity:0.5;}
	.st16{fill:none;stroke:#999999;stroke-width:0.75;stroke-miterlimit:10;}
	.st17{fill:#999999;}
</style>
<rect x="113.82" y="521.74" class="st0" width="90.14" height="43.71"/>
<rect x="113.82" y="568.34" class="st0" width="90.14" height="43.71"/>
<rect x="113.82" y="614.93" class="st0" width="90.14" height="43.71"/>
<rect x="113.82" y="661.53" class="st0" width="90.14" height="43.71"/>
<rect x="113.82" y="708.13" class="st0" width="90.14" height="43.71"/>
<rect x="113.82" y="754.72" class="st0" width="90.14" height="43.71"/>
<rect x="113.82" y="801.32" class="st0" width="90.14" height="43.71"/>
<rect x="113.82" y="848.57" class="st1" width="90.14" height="43.71"/>
<rect x="113.82" y="895.17" class="st1" width="90.14" height="43.71"/>
<rect x="113.82" y="941.77" class="st1" width="90.14" height="43.71"/>
<rect x="113.82" y="988.36" class="st1" width="90.14" height="43.71"/>
<rect x="113.82" y="1034.96" class="st1" width="90.14" height="43.71"/>
<rect x="113.82" y="195.04" class="st2" width="90.14" height="43.71"/>
<rect x="113.82" y="241.64" class="st2" width="90.14" height="43.71"/>
<rect x="113.82" y="288.23" class="st2" width="90.14" height="43.71"/>
<rect x="113.82" y="334.83" class="st2" width="90.14" height="43.71"/>
<rect x="113.82" y="381.42" class="st2" width="90.14" height="43.71"/>
<rect x="113.82" y="428.02" class="st2" width="90.14" height="43.71"/>
<rect x="113.82" y="474.62" class="st2" width="90.14" height="43.71"/>
<g>
	<path class="st3" d="M118.6,547.09c-0.95-0.6-1.7-1.47-2.24-2.61s-0.81-2.5-0.81-4.08s0.27-2.94,0.81-4.08s1.28-2.01,2.24-2.61
		c0.95-0.6,2.04-0.9,3.25-0.9s2.3,0.3,3.25,0.9c0.95,0.6,1.7,1.47,2.24,2.61s0.81,2.5,0.81,4.08s-0.27,2.94-0.81,4.08
		s-1.28,2.01-2.24,2.61c-0.95,0.6-2.04,0.9-3.25,0.9S119.55,547.7,118.6,547.09z M123.96,543.96c0.51-0.77,0.77-1.96,0.77-3.57
		s-0.26-2.8-0.77-3.57c-0.51-0.77-1.21-1.16-2.11-1.16c-0.88,0-1.58,0.39-2.09,1.16c-0.51,0.77-0.77,1.96-0.77,3.57
		s0.26,2.8,0.77,3.57c0.51,0.77,1.21,1.16,2.09,1.16C122.75,545.12,123.45,544.74,123.96,543.96z"/>
	<path class="st3" d="M141.54,541.45c0.38,0.59,0.58,1.27,0.58,2.04c0,0.91-0.26,1.7-0.78,2.38s-1.25,1.21-2.18,1.58
		c-0.94,0.37-2.02,0.56-3.25,0.56s-2.31-0.19-3.25-0.56c-0.93-0.37-1.65-0.9-2.16-1.58c-0.51-0.68-0.77-1.47-0.77-2.38
		c0-0.77,0.19-1.45,0.58-2.04c0.39-0.59,0.93-1.06,1.65-1.43c-0.55-0.34-0.97-0.76-1.26-1.27s-0.44-1.1-0.44-1.75
		c0-0.85,0.24-1.6,0.71-2.23c0.48-0.63,1.14-1.12,2-1.46c0.85-0.34,1.83-0.51,2.94-0.51c1.12,0,2.11,0.17,2.97,0.51
		s1.53,0.83,2,1.46c0.48,0.63,0.71,1.37,0.71,2.23c0,0.66-0.15,1.24-0.44,1.75s-0.72,0.93-1.28,1.27
		C140.6,540.38,141.15,540.86,141.54,541.45z M137.93,544.92c0.5-0.38,0.75-0.9,0.75-1.54s-0.25-1.16-0.75-1.53
		s-1.17-0.57-2.03-0.57c-0.84,0-1.5,0.19-2,0.57s-0.74,0.89-0.74,1.53c0,0.66,0.25,1.18,0.74,1.55c0.49,0.38,1.16,0.57,2,0.57
		C136.75,545.5,137.43,545.31,137.93,544.92z M134.25,535.79c-0.41,0.33-0.62,0.78-0.62,1.35c0,0.56,0.2,1,0.61,1.32
		s0.96,0.48,1.66,0.48s1.26-0.16,1.68-0.48s0.63-0.76,0.63-1.32c0-0.57-0.21-1.03-0.63-1.35c-0.42-0.33-0.98-0.49-1.68-0.49
		C135.21,535.29,134.66,535.46,134.25,535.79z"/>
</g>
<g>
	<path class="st3" d="M118.9,594.67c-0.95-0.6-1.7-1.47-2.24-2.61s-0.81-2.5-0.81-4.08s0.27-2.94,0.81-4.08s1.28-2.01,2.24-2.61
		c0.95-0.6,2.04-0.9,3.25-0.9s2.3,0.3,3.25,0.9s1.7,1.47,2.24,2.61c0.54,1.14,0.81,2.5,0.81,4.08s-0.27,2.94-0.81,4.08
		c-0.54,1.14-1.28,2.01-2.24,2.61c-0.95,0.6-2.04,0.9-3.25,0.9S119.85,595.28,118.9,594.67z M124.27,591.54
		c0.51-0.77,0.77-1.96,0.77-3.57s-0.26-2.8-0.77-3.57s-1.21-1.16-2.11-1.16c-0.88,0-1.58,0.39-2.09,1.16s-0.77,1.96-0.77,3.57
		s0.26,2.8,0.77,3.57s1.21,1.16,2.09,1.16C123.05,592.7,123.76,592.32,124.27,591.54z"/>
	<path class="st3" d="M140.11,582.25c1.16,1.25,1.74,3.06,1.74,5.41c0,1.67-0.31,3.09-0.93,4.28s-1.5,2.09-2.63,2.71
		s-2.44,0.92-3.93,0.92c-0.78,0-1.53-0.09-2.25-0.26c-0.71-0.17-1.32-0.42-1.83-0.75l1.26-2.5c0.71,0.49,1.63,0.74,2.75,0.74
		c1.25,0,2.23-0.37,2.96-1.1c0.73-0.74,1.12-1.8,1.18-3.18c-0.88,0.88-2.1,1.32-3.65,1.32c-0.94,0-1.79-0.19-2.56-0.57
		s-1.38-0.91-1.83-1.61c-0.45-0.69-0.67-1.49-0.67-2.4c0-0.98,0.25-1.84,0.74-2.58s1.16-1.31,2-1.71c0.85-0.4,1.79-0.6,2.83-0.6
		C137.34,580.37,138.95,581,140.11,582.25z M137.35,586.68c0.47-0.41,0.7-0.94,0.7-1.58s-0.23-1.17-0.68-1.58
		c-0.45-0.41-1.08-0.61-1.88-0.61c-0.73,0-1.32,0.2-1.77,0.59c-0.46,0.39-0.68,0.92-0.68,1.6c0,0.67,0.23,1.21,0.68,1.61
		c0.45,0.4,1.06,0.6,1.82,0.6C136.28,587.3,136.88,587.1,137.35,586.68z"/>
</g>
<g>
	<path class="st3" d="M124.43,628.79v14.7h-3.4v-11.97h-2.94v-2.73L124.43,628.79L124.43,628.79z"/>
	<path class="st3" d="M130.04,642.83c-0.95-0.6-1.7-1.47-2.24-2.61s-0.81-2.5-0.81-4.08s0.27-2.94,0.81-4.08s1.28-2.01,2.24-2.61
		c0.95-0.6,2.04-0.9,3.25-0.9s2.3,0.3,3.25,0.9c0.95,0.6,1.7,1.47,2.24,2.61s0.81,2.5,0.81,4.08s-0.27,2.94-0.81,4.08
		s-1.28,2.01-2.24,2.61c-0.95,0.6-2.04,0.9-3.25,0.9S130.99,643.44,130.04,642.83z M135.41,639.7c0.51-0.77,0.77-1.96,0.77-3.57
		s-0.26-2.8-0.77-3.57c-0.51-0.77-1.21-1.16-2.11-1.16c-0.88,0-1.58,0.39-2.09,1.16c-0.51,0.77-0.77,1.96-0.77,3.57
		s0.26,2.8,0.77,3.57c0.51,0.77,1.21,1.16,2.09,1.16C134.19,640.86,134.9,640.48,135.41,639.7z"/>
</g>
<g>
	<path class="st3" d="M127.9,675.67v14.7h-3.4V678.4h-2.94v-2.73L127.9,675.67L127.9,675.67z"/>
	<path class="st3" d="M136.12,675.67v14.7h-3.4V678.4h-2.94v-2.73L136.12,675.67L136.12,675.67z"/>
</g>
<g>
	<path class="st3" d="M125.37,723.72v14.7h-3.4v-11.97h-2.94v-2.73L125.37,723.72L125.37,723.72z"/>
	<path class="st3" d="M138.91,735.64v2.77H127.8v-2.21l5.67-5.35c0.6-0.57,1.01-1.07,1.22-1.48s0.32-0.82,0.32-1.23
		c0-0.59-0.2-1.04-0.6-1.35c-0.4-0.32-0.98-0.47-1.75-0.47c-0.64,0-1.23,0.12-1.74,0.37s-0.95,0.61-1.3,1.1l-2.48-1.6
		c0.57-0.85,1.36-1.52,2.37-2.01c1.01-0.48,2.16-0.72,3.47-0.72c1.09,0,2.05,0.18,2.87,0.54s1.46,0.86,1.91,1.51s0.68,1.42,0.68,2.3
		c0,0.8-0.17,1.55-0.5,2.25c-0.34,0.7-0.99,1.5-1.95,2.39l-3.38,3.19L138.91,735.64L138.91,735.64z"/>
</g>
<g>
	<path class="st3" d="M125.19,770.72v14.7h-3.4v-11.97h-2.94v-2.73L125.19,770.72L125.19,770.72z"/>
	<path class="st3" d="M137.57,778.15c0.69,0.75,1.03,1.68,1.03,2.78c0,0.85-0.22,1.64-0.67,2.36s-1.13,1.3-2.05,1.73
		s-2.04,0.65-3.37,0.65c-1.04,0-2.05-0.14-3.06-0.41c-1-0.27-1.85-0.66-2.55-1.17l1.32-2.6c0.56,0.42,1.21,0.75,1.94,0.98
		c0.74,0.23,1.49,0.35,2.26,0.35c0.85,0,1.53-0.17,2.02-0.49s0.74-0.79,0.74-1.4c0-1.2-0.92-1.81-2.75-1.81h-1.55v-2.25l3.02-3.42
		h-6.26v-2.73h10.29v2.21l-3.32,3.78C135.89,776.92,136.88,777.4,137.57,778.15z"/>
</g>
<g>
	<path class="st3" d="M124,816.45v14.7h-3.4v-11.97h-2.94v-2.73L124,816.45L124,816.45z"/>
	<path class="st3" d="M140.02,828.06h-2.39v3.09h-3.32v-3.09h-7.92v-2.29l6.93-9.32h3.57l-6.43,8.84h3.95v-2.75h3.21v2.75h2.39
		L140.02,828.06L140.02,828.06z"/>
</g>
<g>
	<path class="st4" d="M124.83,863.47v14.7h-3.4V866.2h-2.94v-2.73L124.83,863.47L124.83,863.47z"/>
	<path class="st4" d="M137.02,870.23c0.99,0.83,1.48,1.93,1.48,3.32c0,0.9-0.22,1.71-0.67,2.45s-1.13,1.32-2.05,1.76
		s-2.05,0.66-3.39,0.66c-1.04,0-2.05-0.14-3.06-0.41c-1-0.27-1.85-0.66-2.55-1.17l1.34-2.6c0.56,0.42,1.2,0.75,1.93,0.98
		s1.48,0.35,2.25,0.35c0.85,0,1.53-0.17,2.02-0.5s0.74-0.8,0.74-1.41c0-0.63-0.26-1.11-0.77-1.43s-1.4-0.48-2.66-0.48h-3.76
		l0.76-8.27h8.97v2.73h-6.13l-0.23,2.79h1.2C134.51,868.99,136.04,869.4,137.02,870.23z"/>
</g>
<g>
	<g>
		<path class="st4" d="M124.44,911v14.7h-3.4v-11.97h-2.94V911H124.44z"/>
		<path class="st4" d="M136.64,917.04c0.77,0.38,1.38,0.91,1.83,1.61c0.45,0.69,0.67,1.5,0.67,2.41c0,0.98-0.25,1.84-0.74,2.58
			s-1.16,1.31-2,1.71c-0.85,0.4-1.79,0.6-2.83,0.6c-2.06,0-3.67-0.63-4.83-1.89S127,921,127,918.66c0-1.67,0.31-3.09,0.94-4.28
			c0.63-1.19,1.51-2.09,2.64-2.71s2.43-0.92,3.92-0.92c0.78,0,1.54,0.09,2.26,0.26s1.33,0.42,1.84,0.75l-1.26,2.5
			c-0.73-0.49-1.65-0.73-2.75-0.73c-1.25,0-2.23,0.36-2.96,1.09c-0.73,0.73-1.12,1.79-1.18,3.17c0.87-0.87,2.08-1.3,3.63-1.3
			C135.02,916.48,135.87,916.67,136.64,917.04z M135.16,922.82c0.46-0.39,0.68-0.92,0.68-1.6s-0.23-1.21-0.68-1.61
			c-0.46-0.4-1.06-0.6-1.82-0.6c-0.74,0-1.35,0.21-1.83,0.62s-0.71,0.94-0.71,1.59c0,0.64,0.23,1.17,0.69,1.57
			c0.46,0.41,1.09,0.61,1.89,0.61C134.12,923.41,134.71,923.21,135.16,922.82z"/>
	</g>
</g>
<g>
	<g>
		<path class="st4" d="M124.75,958.2v14.7h-3.4v-11.97h-2.94v-2.73L124.75,958.2L124.75,958.2z"/>
		<path class="st4" d="M138.82,958.2v2.21l-5.46,12.5h-3.7l5.27-11.93h-4.87v2.39h-3.02v-5.17L138.82,958.2L138.82,958.2z"/>
	</g>
</g>
<g>
	<g>
		<path class="st4" d="M124.35,1003.51v14.7h-3.4v-11.97h-2.94v-2.73H124.35z"/>
		<path class="st4" d="M138.64,1011.91c0.38,0.59,0.58,1.27,0.58,2.04c0,0.91-0.26,1.7-0.78,2.38s-1.25,1.21-2.18,1.58
			c-0.94,0.37-2.02,0.56-3.25,0.56s-2.31-0.19-3.25-0.56c-0.93-0.37-1.65-0.9-2.16-1.58c-0.51-0.68-0.77-1.47-0.77-2.38
			c0-0.77,0.19-1.45,0.58-2.04c0.39-0.59,0.93-1.06,1.65-1.43c-0.55-0.34-0.97-0.76-1.26-1.27s-0.44-1.1-0.44-1.75
			c0-0.85,0.24-1.6,0.71-2.23c0.48-0.63,1.14-1.12,2-1.46c0.85-0.34,1.83-0.51,2.94-0.51c1.12,0,2.11,0.17,2.97,0.51
			s1.53,0.83,2,1.46c0.48,0.63,0.71,1.37,0.71,2.23c0,0.66-0.15,1.24-0.44,1.75c-0.29,0.51-0.72,0.93-1.28,1.27
			C137.7,1010.84,138.25,1011.32,138.64,1011.91z M135.03,1015.38c0.5-0.38,0.75-0.9,0.75-1.54s-0.25-1.16-0.75-1.53
			s-1.17-0.57-2.03-0.57c-0.84,0-1.5,0.19-2,0.57s-0.74,0.89-0.74,1.53c0,0.66,0.25,1.18,0.74,1.55c0.49,0.38,1.16,0.57,2,0.57
			C133.85,1015.96,134.53,1015.77,135.03,1015.38z M131.35,1006.25c-0.41,0.33-0.62,0.78-0.62,1.35c0,0.56,0.2,1,0.61,1.32
			s0.96,0.48,1.66,0.48s1.26-0.16,1.68-0.48s0.63-0.76,0.63-1.32c0-0.57-0.21-1.03-0.63-1.35c-0.42-0.33-0.98-0.49-1.68-0.49
			C132.31,1005.75,131.76,1005.92,131.35,1006.25z"/>
	</g>
</g>
<g>
	<g>
		<path class="st4" d="M124.65,1050.81v14.7h-3.4v-11.97h-2.94v-2.73H124.65z"/>
		<path class="st4" d="M137.21,1052.43c1.16,1.25,1.74,3.06,1.74,5.41c0,1.67-0.31,3.09-0.93,4.28c-0.62,1.19-1.5,2.09-2.63,2.71
			s-2.44,0.92-3.93,0.92c-0.78,0-1.53-0.09-2.25-0.26c-0.71-0.17-1.32-0.42-1.83-0.75l1.26-2.5c0.71,0.49,1.63,0.74,2.75,0.74
			c1.25,0,2.23-0.37,2.96-1.1c0.73-0.74,1.12-1.8,1.18-3.18c-0.88,0.88-2.1,1.32-3.65,1.32c-0.94,0-1.79-0.19-2.56-0.57
			s-1.38-0.91-1.83-1.61c-0.45-0.69-0.67-1.49-0.67-2.4c0-0.98,0.25-1.84,0.74-2.58s1.16-1.31,2-1.71c0.85-0.4,1.79-0.6,2.83-0.6
			C134.44,1050.55,136.05,1051.18,137.21,1052.43z M134.45,1056.86c0.47-0.41,0.7-0.94,0.7-1.58s-0.23-1.17-0.68-1.58
			c-0.45-0.41-1.08-0.61-1.88-0.61c-0.73,0-1.32,0.2-1.77,0.59c-0.46,0.39-0.68,0.92-0.68,1.6c0,0.67,0.23,1.21,0.68,1.61
			s1.06,0.6,1.82,0.6C133.37,1057.48,133.98,1057.28,134.45,1056.86z"/>
	</g>
</g>
<g>
	<path class="st4" d="M119.44,500.5c-0.95-0.6-1.7-1.47-2.24-2.61s-0.81-2.5-0.81-4.08s0.27-2.94,0.81-4.08s1.28-2.01,2.24-2.61
		c0.95-0.6,2.04-0.9,3.25-0.9s2.3,0.3,3.25,0.9c0.95,0.6,1.7,1.47,2.24,2.61c0.54,1.14,0.81,2.5,0.81,4.08s-0.27,2.94-0.81,4.08
		c-0.54,1.14-1.28,2.01-2.24,2.61c-0.95,0.6-2.04,0.9-3.25,0.9S120.39,501.11,119.44,500.5z M124.8,497.37
		c0.51-0.77,0.77-1.96,0.77-3.57s-0.26-2.8-0.77-3.57s-1.21-1.16-2.11-1.16c-0.88,0-1.58,0.39-2.09,1.16s-0.77,1.96-0.77,3.57
		s0.26,2.8,0.77,3.57s1.21,1.16,2.09,1.16C123.59,498.53,124.29,498.15,124.8,497.37z"/>
	<path class="st4" d="M142.08,486.45v2.21l-5.46,12.5h-3.7l5.27-11.93h-4.87v2.39h-3.02v-5.17L142.08,486.45L142.08,486.45z"/>
</g>
<g>
	<g>
		<path class="st4" d="M119.74,267.47c-0.95-0.6-1.7-1.47-2.24-2.61c-0.54-1.14-0.81-2.5-0.81-4.08s0.27-2.94,0.81-4.08
			c0.54-1.14,1.28-2.01,2.24-2.61s2.04-0.9,3.26-0.9s2.3,0.3,3.25,0.9s1.7,1.47,2.24,2.61c0.54,1.14,0.81,2.5,0.81,4.08
			s-0.27,2.94-0.81,4.08c-0.54,1.14-1.28,2.01-2.24,2.61c-0.95,0.6-2.04,0.9-3.25,0.9C121.78,268.38,120.69,268.08,119.74,267.47z
			 M125.11,264.34c0.51-0.77,0.77-1.96,0.77-3.57c0-1.61-0.26-2.8-0.77-3.57c-0.51-0.77-1.21-1.16-2.11-1.16
			c-0.88,0-1.58,0.39-2.09,1.16c-0.51,0.77-0.77,1.96-0.77,3.57c0,1.61,0.25,2.8,0.77,3.57c0.51,0.77,1.21,1.16,2.09,1.16
			C123.89,265.5,124.59,265.12,125.11,264.34z"/>
		<path class="st4" d="M141.81,265.35v2.77H130.7v-2.21l5.67-5.35c0.6-0.57,1.01-1.07,1.22-1.48s0.31-0.82,0.31-1.23
			c0-0.59-0.2-1.04-0.6-1.35c-0.4-0.32-0.98-0.47-1.75-0.47c-0.64,0-1.23,0.12-1.74,0.37s-0.95,0.61-1.3,1.1l-2.48-1.6
			c0.57-0.85,1.37-1.52,2.37-2.01s2.16-0.72,3.46-0.72c1.09,0,2.05,0.18,2.87,0.54c0.82,0.36,1.46,0.86,1.91,1.51
			s0.68,1.42,0.68,2.3c0,0.8-0.17,1.55-0.5,2.25c-0.34,0.7-0.99,1.5-1.95,2.39l-3.38,3.19L141.81,265.35L141.81,265.35z"/>
	</g>
</g>
<g>
	<g>
		<path class="st4" d="M120.67,313.99c-0.95-0.6-1.7-1.47-2.24-2.61c-0.54-1.14-0.81-2.5-0.81-4.08s0.27-2.94,0.81-4.08
			c0.54-1.14,1.28-2.01,2.24-2.61s2.04-0.9,3.26-0.9s2.3,0.3,3.25,0.9c0.95,0.6,1.7,1.47,2.24,2.61c0.54,1.14,0.81,2.5,0.81,4.08
			s-0.27,2.94-0.81,4.08c-0.54,1.14-1.28,2.01-2.24,2.61c-0.95,0.6-2.04,0.9-3.25,0.9C122.7,314.9,121.62,314.6,120.67,313.99z
			 M126.03,310.86c0.51-0.77,0.77-1.96,0.77-3.57c0-1.61-0.26-2.8-0.77-3.57c-0.51-0.77-1.21-1.16-2.11-1.16
			c-0.88,0-1.58,0.39-2.09,1.16c-0.51,0.77-0.77,1.96-0.77,3.57c0,1.61,0.25,2.8,0.77,3.57c0.51,0.77,1.21,1.16,2.09,1.16
			C124.82,312.02,125.52,311.64,126.03,310.86z"/>
		<path class="st4" d="M141.5,307.37c0.69,0.75,1.03,1.68,1.03,2.78c0,0.85-0.22,1.64-0.67,2.36s-1.13,1.3-2.05,1.73
			c-0.92,0.43-2.04,0.65-3.37,0.65c-1.04,0-2.05-0.14-3.06-0.41c-1-0.27-1.85-0.66-2.55-1.17l1.32-2.6
			c0.56,0.42,1.21,0.75,1.94,0.98s1.49,0.35,2.26,0.35c0.85,0,1.53-0.17,2.02-0.49c0.49-0.33,0.73-0.79,0.73-1.4
			c0-1.2-0.92-1.81-2.75-1.81h-1.55v-2.25l3.02-3.42h-6.26v-2.73h10.29v2.21l-3.32,3.78C139.83,306.14,140.81,306.62,141.5,307.37z"
			/>
	</g>
</g>
<g>
	<g>
		<path class="st4" d="M118.42,360.89c-0.95-0.6-1.7-1.47-2.24-2.61c-0.54-1.14-0.81-2.5-0.81-4.08s0.27-2.94,0.81-4.08
			c0.54-1.14,1.28-2.01,2.24-2.61s2.04-0.9,3.26-0.9s2.3,0.3,3.25,0.9s1.7,1.47,2.24,2.61c0.54,1.14,0.81,2.5,0.81,4.08
			s-0.27,2.94-0.81,4.08c-0.54,1.14-1.28,2.01-2.24,2.61c-0.95,0.6-2.04,0.9-3.25,0.9C120.46,361.8,119.37,361.5,118.42,360.89z
			 M123.79,357.76c0.51-0.77,0.77-1.96,0.77-3.57c0-1.61-0.26-2.8-0.77-3.57c-0.51-0.77-1.21-1.16-2.11-1.16
			c-0.88,0-1.58,0.39-2.09,1.16c-0.51,0.77-0.77,1.96-0.77,3.57c0,1.61,0.25,2.8,0.77,3.57c0.51,0.77,1.21,1.16,2.09,1.16
			C122.57,358.92,123.28,358.54,123.79,357.76z"/>
		<path class="st4" d="M143.1,358.46h-2.39v3.09h-3.32v-3.09h-7.92v-2.29l6.93-9.32h3.57l-6.43,8.84h3.95v-2.75h3.21v2.75h2.39
			L143.1,358.46L143.1,358.46L143.1,358.46z"/>
	</g>
</g>
<g>
	<g>
		<path class="st4" d="M119.6,407.32c-0.95-0.6-1.7-1.47-2.24-2.61c-0.54-1.14-0.81-2.5-0.81-4.08s0.27-2.94,0.81-4.08
			c0.54-1.14,1.28-2.01,2.24-2.61s2.04-0.9,3.26-0.9s2.3,0.3,3.25,0.9s1.7,1.47,2.24,2.61c0.54,1.14,0.81,2.5,0.81,4.08
			s-0.27,2.94-0.81,4.08c-0.54,1.14-1.28,2.01-2.24,2.61c-0.95,0.6-2.04,0.9-3.25,0.9C121.63,408.23,120.55,407.93,119.6,407.32z
			 M124.96,404.19c0.51-0.77,0.77-1.96,0.77-3.57c0-1.61-0.26-2.8-0.77-3.57c-0.51-0.77-1.21-1.16-2.11-1.16
			c-0.88,0-1.58,0.39-2.09,1.16c-0.51,0.77-0.77,1.96-0.77,3.57c0,1.61,0.25,2.8,0.77,3.57c0.51,0.77,1.21,1.16,2.09,1.16
			C123.75,405.35,124.45,404.97,124.96,404.19z"/>
		<path class="st4" d="M140.44,400.04c0.99,0.83,1.48,1.93,1.48,3.32c0,0.9-0.22,1.71-0.67,2.45s-1.13,1.32-2.05,1.76
			s-2.05,0.66-3.39,0.66c-1.04,0-2.05-0.14-3.06-0.41c-1-0.27-1.85-0.66-2.55-1.17l1.34-2.6c0.56,0.42,1.2,0.75,1.93,0.98
			s1.48,0.35,2.25,0.35c0.85,0,1.53-0.17,2.02-0.5c0.49-0.34,0.73-0.8,0.73-1.41c0-0.63-0.26-1.11-0.77-1.43
			c-0.51-0.32-1.4-0.48-2.66-0.48h-3.76l0.76-8.27h8.97v2.73h-6.13l-0.23,2.79h1.2C137.92,398.8,139.45,399.21,140.44,400.04z"/>
	</g>
</g>
<g>
	<path class="st4" d="M119.09,454.01c-0.95-0.6-1.7-1.47-2.24-2.61c-0.54-1.14-0.81-2.5-0.81-4.08s0.27-2.94,0.81-4.08
		c0.54-1.14,1.28-2.01,2.24-2.61s2.04-0.9,3.26-0.9s2.3,0.3,3.25,0.9s1.7,1.47,2.24,2.61c0.54,1.14,0.81,2.5,0.81,4.08
		s-0.27,2.94-0.81,4.08c-0.54,1.14-1.28,2.01-2.24,2.61c-0.95,0.6-2.04,0.9-3.25,0.9C121.13,454.92,120.04,454.62,119.09,454.01z
		 M124.46,450.88c0.51-0.77,0.77-1.96,0.77-3.57c0-1.61-0.26-2.8-0.77-3.57c-0.51-0.77-1.21-1.16-2.11-1.16
		c-0.88,0-1.58,0.39-2.09,1.16c-0.51,0.77-0.77,1.96-0.77,3.57c0,1.61,0.25,2.8,0.77,3.57c0.51,0.77,1.21,1.16,2.09,1.16
		C123.24,452.04,123.95,451.66,124.46,450.88z"/>
	<path class="st4" d="M139.94,446.01c0.77,0.38,1.38,0.91,1.83,1.61c0.45,0.69,0.67,1.5,0.67,2.41c0,0.98-0.25,1.84-0.73,2.58
		c-0.49,0.74-1.16,1.31-2.01,1.71s-1.79,0.6-2.82,0.6c-2.06,0-3.67-0.63-4.83-1.89s-1.74-3.06-1.74-5.4c0-1.67,0.31-3.09,0.95-4.28
		c0.63-1.19,1.51-2.09,2.64-2.71s2.43-0.92,3.92-0.92c0.78,0,1.54,0.09,2.26,0.26s1.33,0.42,1.84,0.75l-1.26,2.5
		c-0.73-0.49-1.65-0.73-2.75-0.73c-1.25,0-2.23,0.36-2.96,1.09c-0.73,0.73-1.12,1.79-1.18,3.17c0.87-0.87,2.08-1.3,3.63-1.3
		C138.32,445.45,139.17,445.63,139.94,446.01z M138.46,451.79c0.45-0.39,0.68-0.92,0.68-1.6s-0.23-1.21-0.68-1.61
		c-0.46-0.4-1.06-0.6-1.82-0.6c-0.74,0-1.35,0.21-1.83,0.62s-0.71,0.94-0.71,1.59c0,0.64,0.23,1.17,0.69,1.57
		c0.46,0.41,1.09,0.61,1.89,0.61C137.42,452.38,138.01,452.18,138.46,451.79z"/>
</g>
<g>
	<g>
		<path class="st4" d="M122.38,220.26c-0.95-0.6-1.7-1.47-2.24-2.61c-0.54-1.14-0.81-2.5-0.81-4.08s0.27-2.94,0.81-4.08
			s1.28-2.01,2.24-2.61s2.04-0.9,3.26-0.9s2.3,0.3,3.25,0.9c0.95,0.6,1.7,1.47,2.24,2.61c0.54,1.14,0.81,2.5,0.81,4.08
			s-0.27,2.94-0.81,4.08c-0.54,1.14-1.28,2.01-2.24,2.61c-0.95,0.6-2.04,0.9-3.25,0.9C124.42,221.17,123.33,220.87,122.38,220.26z
			 M127.75,217.13c0.51-0.77,0.77-1.96,0.77-3.57c0-1.61-0.26-2.8-0.77-3.57c-0.51-0.77-1.21-1.16-2.11-1.16
			c-0.88,0-1.58,0.39-2.09,1.16s-0.77,1.96-0.77,3.57c0,1.61,0.25,2.8,0.77,3.57c0.51,0.77,1.21,1.16,2.09,1.16
			C126.53,218.29,127.24,217.91,127.75,217.13z"/>
		<path class="st4" d="M139.14,206.21v14.7h-3.4v-11.97h-2.94v-2.73H139.14z"/>
	</g>
</g>
<g class="st5">
	<path class="st2" d="M105.09,13.51h3.59V26.2h-3.59V13.51z"/>
	<path class="st2" d="M123.31,13.51V26.2h-2.95l-5.6-6.76v6.76h-3.52V13.51h2.95l5.6,6.76v-6.76
		C119.79,13.51,123.31,13.51,123.31,13.51z"/>
	<path class="st2" d="M125.85,13.51h3.59V26.2h-3.59C125.85,26.2,125.85,13.51,125.85,13.51z M128.29,9.72h3.44l-3.41,2.76h-2.47
		L128.29,9.72z"/>
	<path class="st2" d="M134.74,25.61c-1.06-0.56-1.89-1.34-2.49-2.35c-0.6-1-0.91-2.14-0.91-3.41c0-1.27,0.3-2.4,0.91-3.41
		c0.6-1,1.44-1.79,2.49-2.35c1.06-0.56,2.25-0.84,3.58-0.84c1.16,0,2.21,0.21,3.14,0.62s1.7,1,2.32,1.78l-2.28,2.07
		c-0.82-0.99-1.82-1.49-2.99-1.49c-0.69,0-1.3,0.15-1.84,0.45s-0.95,0.73-1.25,1.28s-0.44,1.18-0.44,1.89s0.15,1.34,0.44,1.89
		c0.3,0.55,0.71,0.98,1.25,1.28c0.54,0.3,1.15,0.45,1.84,0.45c1.17,0,2.17-0.5,2.99-1.49l2.28,2.07c-0.62,0.77-1.39,1.37-2.32,1.78
		c-0.93,0.41-1.98,0.62-3.14,0.62C136.99,26.45,135.8,26.17,134.74,25.61z"/>
	<path class="st2" d="M145.37,13.51h3.59V26.2h-3.59V13.51z"/>
	<path class="st2" d="M154.3,25.6c-1.07-0.57-1.91-1.35-2.52-2.36c-0.61-1-0.92-2.13-0.92-3.39c0-1.26,0.31-2.39,0.92-3.39
		s1.45-1.79,2.52-2.36s2.27-0.85,3.62-0.85s2.55,0.28,3.62,0.85c1.07,0.57,1.91,1.35,2.52,2.36c0.61,1,0.92,2.13,0.92,3.39
		c0,1.26-0.31,2.39-0.92,3.39s-1.45,1.79-2.52,2.36s-2.27,0.85-3.62,0.85S155.37,26.17,154.3,25.6z M159.65,23.03
		c0.52-0.3,0.93-0.73,1.23-1.28s0.45-1.18,0.45-1.89s-0.15-1.34-0.45-1.89s-0.71-0.98-1.23-1.28c-0.52-0.3-1.1-0.45-1.74-0.45
		s-1.22,0.15-1.74,0.45s-0.93,0.73-1.23,1.28s-0.45,1.18-0.45,1.89s0.15,1.34,0.45,1.89s0.71,0.98,1.23,1.28s1.1,0.45,1.74,0.45
		S159.13,23.33,159.65,23.03z"/>
	<path class="st2" d="M172.12,13.51h6c1.39,0,2.62,0.26,3.7,0.78s1.91,1.26,2.5,2.21s0.89,2.07,0.89,3.35c0,1.28-0.3,2.4-0.89,3.35
		c-0.59,0.96-1.43,1.69-2.5,2.21c-1.08,0.52-2.31,0.78-3.7,0.78h-6V13.51z M177.98,23.33c1.09,0,1.96-0.31,2.62-0.92
		c0.66-0.62,0.99-1.47,0.99-2.56c0-1.09-0.33-1.94-0.99-2.56c-0.66-0.62-1.53-0.92-2.62-0.92h-2.27v6.96
		C175.71,23.33,177.98,23.33,177.98,23.33z"/>
	<path class="st2" d="M189.88,25.6c-1.07-0.57-1.91-1.35-2.52-2.36c-0.61-1-0.92-2.13-0.92-3.39c0-1.26,0.31-2.39,0.92-3.39
		s1.45-1.79,2.52-2.36s2.27-0.85,3.62-0.85s2.55,0.28,3.62,0.85c1.07,0.57,1.91,1.35,2.52,2.36c0.61,1,0.92,2.13,0.92,3.39
		c0,1.26-0.31,2.39-0.92,3.39s-1.45,1.79-2.52,2.36s-2.27,0.85-3.62,0.85S190.95,26.17,189.88,25.6z M195.24,23.03
		c0.52-0.3,0.93-0.73,1.23-1.28s0.45-1.18,0.45-1.89s-0.15-1.34-0.45-1.89s-0.71-0.98-1.23-1.28c-0.52-0.3-1.1-0.45-1.74-0.45
		s-1.22,0.15-1.74,0.45s-0.93,0.73-1.23,1.28s-0.45,1.18-0.45,1.89s0.15,1.34,0.45,1.89s0.71,0.98,1.23,1.28s1.1,0.45,1.74,0.45
		S194.72,23.33,195.24,23.03z"/>
	<path class="st2" d="M203.9,26.07c-0.97-0.25-1.75-0.59-2.36-1.01l1.18-2.65c0.57,0.37,1.23,0.68,1.98,0.91s1.49,0.34,2.21,0.34
		c1.38,0,2.07-0.34,2.07-1.03c0-0.36-0.2-0.63-0.59-0.81c-0.39-0.17-1.02-0.36-1.89-0.55c-0.95-0.21-1.75-0.43-2.39-0.66
		c-0.64-0.24-1.19-0.61-1.65-1.13c-0.46-0.52-0.69-1.22-0.69-2.1c0-0.77,0.21-1.47,0.63-2.09s1.05-1.12,1.89-1.48
		s1.87-0.54,3.09-0.54c0.83,0,1.66,0.09,2.47,0.28s1.52,0.46,2.14,0.82l-1.11,2.67c-1.21-0.65-2.38-0.98-3.52-0.98
		c-0.71,0-1.23,0.11-1.56,0.32s-0.49,0.49-0.49,0.83s0.19,0.59,0.58,0.76s1.01,0.34,1.87,0.53c0.97,0.21,1.77,0.43,2.4,0.66
		c0.63,0.24,1.18,0.61,1.65,1.12c0.46,0.51,0.7,1.21,0.7,2.09c0,0.76-0.21,1.45-0.63,2.07s-1.06,1.11-1.9,1.48
		c-0.85,0.37-1.87,0.55-3.08,0.55C205.86,26.45,204.87,26.33,203.9,26.07z"/>
	<path class="st2" d="M109.89,47.82c-0.97-0.25-1.75-0.59-2.36-1.01l1.18-2.65c0.57,0.37,1.23,0.68,1.98,0.91s1.49,0.34,2.21,0.34
		c1.38,0,2.07-0.34,2.07-1.03c0-0.36-0.2-0.63-0.59-0.81c-0.39-0.17-1.02-0.36-1.89-0.55c-0.95-0.21-1.75-0.43-2.39-0.66
		c-0.64-0.24-1.19-0.61-1.65-1.13s-0.69-1.22-0.69-2.1c0-0.77,0.21-1.47,0.63-2.09c0.42-0.62,1.05-1.12,1.89-1.48
		s1.87-0.54,3.09-0.54c0.83,0,1.66,0.09,2.47,0.28s1.52,0.46,2.14,0.82l-1.11,2.67c-1.21-0.65-2.38-0.98-3.52-0.98
		c-0.71,0-1.23,0.11-1.56,0.32c-0.33,0.21-0.49,0.49-0.49,0.83s0.19,0.59,0.58,0.76c0.39,0.17,1.01,0.34,1.87,0.53
		c0.97,0.21,1.77,0.43,2.4,0.66c0.63,0.24,1.18,0.61,1.65,1.12c0.46,0.51,0.7,1.21,0.7,2.09c0,0.76-0.21,1.45-0.63,2.07
		s-1.06,1.11-1.9,1.48c-0.85,0.37-1.87,0.55-3.08,0.55C111.85,48.2,110.85,48.08,109.89,47.82z"/>
	<path class="st2" d="M120.15,35.26h3.59v12.69h-3.59V35.26z"/>
	<path class="st2" d="M138.36,35.26v12.69h-2.95l-5.6-6.76v6.76h-3.52V35.26h2.95l5.6,6.76v-6.76H138.36z"/>
	<path class="st2" d="M143.6,38.11h-3.9v-2.85h11.37v2.85h-3.88v9.84h-3.59V38.11z"/>
	<path class="st2" d="M155.01,47.35c-1.07-0.57-1.91-1.35-2.52-2.36c-0.61-1-0.92-2.13-0.92-3.39s0.31-2.39,0.92-3.39
		s1.45-1.79,2.52-2.36s2.27-0.85,3.62-0.85s2.55,0.28,3.62,0.85c1.07,0.57,1.91,1.35,2.52,2.36c0.61,1,0.92,2.13,0.92,3.39
		s-0.31,2.39-0.92,3.39s-1.45,1.79-2.52,2.36s-2.27,0.85-3.62,0.85S156.08,47.92,155.01,47.35z M160.37,44.78
		c0.52-0.3,0.93-0.73,1.23-1.28s0.45-1.18,0.45-1.89s-0.15-1.34-0.45-1.89s-0.71-0.98-1.23-1.28c-0.52-0.3-1.1-0.45-1.74-0.45
		s-1.22,0.15-1.74,0.45c-0.52,0.3-0.93,0.73-1.23,1.28c-0.3,0.55-0.45,1.18-0.45,1.89s0.15,1.34,0.45,1.89s0.71,0.98,1.23,1.28
		s1.1,0.45,1.74,0.45S159.85,45.08,160.37,44.78z"/>
	<path class="st2" d="M179.02,47.95l-0.04-6.72l-3.26,5.47h-1.6l-3.24-5.29v6.54h-3.32V35.26h2.95l4.46,7.32l4.35-7.32h2.95
		l0.04,12.69C182.31,47.95,179.02,47.95,179.02,47.95z"/>
	<path class="st2" d="M193.36,45.49h-5.37l-1,2.46h-3.66l5.6-12.69h3.53l5.62,12.69h-3.73L193.36,45.49z M192.31,42.84l-1.63-4.06
		l-1.63,4.06H192.31z"/>
	<path class="st2" d="M200.57,47.82c-0.97-0.25-1.75-0.59-2.36-1.01l1.18-2.65c0.57,0.37,1.23,0.68,1.98,0.91s1.49,0.34,2.21,0.34
		c1.38,0,2.07-0.34,2.07-1.03c0-0.36-0.2-0.63-0.59-0.81c-0.39-0.17-1.02-0.36-1.89-0.55c-0.95-0.21-1.75-0.43-2.39-0.66
		c-0.64-0.24-1.19-0.61-1.65-1.13c-0.46-0.52-0.69-1.22-0.69-2.1c0-0.77,0.21-1.47,0.63-2.09c0.42-0.62,1.05-1.12,1.89-1.48
		s1.87-0.54,3.09-0.54c0.83,0,1.66,0.09,2.47,0.28s1.52,0.46,2.14,0.82l-1.11,2.67c-1.21-0.65-2.38-0.98-3.52-0.98
		c-0.71,0-1.23,0.11-1.56,0.32s-0.49,0.49-0.49,0.83s0.19,0.59,0.58,0.76c0.39,0.17,1.01,0.34,1.87,0.53
		c0.97,0.21,1.77,0.43,2.4,0.66c0.63,0.24,1.18,0.61,1.65,1.12c0.46,0.51,0.7,1.21,0.7,2.09c0,0.76-0.21,1.45-0.63,2.07
		s-1.06,1.11-1.9,1.48c-0.85,0.37-1.87,0.55-3.08,0.55C202.54,48.2,201.54,48.08,200.57,47.82z"/>
</g>
<g>
	
		<rect x="86.01" y="96.97" transform="matrix(0.1122 -0.9937 0.9937 0.1122 -39.1029 190.36)" class="st2" width="1.95" height="40.18"/>
	<path class="st3" d="M68.54,112.1c1.19,1.47,0.94,3.63-0.55,4.82c-1.47,1.19-3.63,0.94-4.82-0.55c-1.19-1.47-0.94-3.63,0.55-4.82
		C65.19,110.38,67.35,110.62,68.54,112.1z"/>
	<path class="st3" d="M110.96,117.4c1.19,1.47,0.94,3.63-0.55,4.82c-1.47,1.19-3.63,0.94-4.82-0.55c-1.19-1.47-0.94-3.63,0.55-4.82
		C107.62,115.68,109.78,115.93,110.96,117.4z"/>
	
		<rect x="74.49" y="98.79" transform="matrix(0.782 -0.6233 0.6233 0.782 -48.3275 70.016)" class="st2" width="2.86" height="10.6"/>
	<path class="st3" d="M74.8,96.41c1.34,1.69,1.06,4.13-0.62,5.49c-1.69,1.34-4.13,1.06-5.49-0.62c-1.34-1.69-1.06-4.13,0.62-5.49
		C71,94.45,73.45,94.72,74.8,96.41z"/>
	
		<rect x="95.25" y="105.73" transform="matrix(0.782 -0.6233 0.6233 0.782 -44.8827 85.82)" class="st2" width="9.97" height="2.68"/>
	<path class="st3" d="M107.12,101.53c1.05,1.31,0.84,3.22-0.49,4.27c-1.31,1.05-3.22,0.84-4.27-0.49c-1.05-1.31-0.84-3.22,0.49-4.27
		C104.17,100.01,106.07,100.22,107.12,101.53z"/>
	
		<rect x="66.11" y="127.42" transform="matrix(0.782 -0.6233 0.6233 0.782 -64.6808 73.3659)" class="st2" width="12.85" height="3.45"/>
	<path class="st3" d="M70.09,131.05c1.35,1.69,1.06,4.15-0.62,5.49c-1.69,1.35-4.15,1.06-5.49-0.62c-1.35-1.69-1.06-4.15,0.62-5.49
		C66.29,129.09,68.73,129.37,70.09,131.05z"/>
	
		<rect x="95.81" y="125.3" transform="matrix(0.782 -0.6233 0.6233 0.782 -60.3942 89.212)" class="st2" width="3.04" height="11.28"/>
	<path class="st3" d="M105.45,134.46c1.43,1.79,1.14,4.41-0.65,5.84s-4.41,1.14-5.84-0.65s-1.14-4.41,0.65-5.84
		C101.4,132.36,104.02,132.65,105.45,134.46z"/>
	
		<rect x="66.92" y="116.17" transform="matrix(0.1121 -0.9937 0.9937 0.1121 -39.1522 190.4808)" class="st2" width="40.18" height="1.95"/>
	<path class="st3" d="M91.89,93.49c1.19,1.47,0.94,3.63-0.55,4.82c-1.47,1.19-3.63,0.94-4.82-0.55c-1.19-1.47-0.94-3.63,0.55-4.82
		C88.56,91.76,90.7,92,91.89,93.49z"/>
	<path class="st3" d="M87.13,137.42c1.19,1.47,0.94,3.63-0.55,4.82c-1.47,1.19-3.63,0.94-4.82-0.55c-1.19-1.47-0.94-3.63,0.55-4.82
		C83.78,135.7,85.94,135.95,87.13,137.42z"/>
	<path class="st2" d="M97.83,109c4.85,6.08,3.85,14.93-2.23,19.76c-1.79,1.43-3.83,2.36-5.93,2.78c-5.02,1.03-10.41-0.73-13.83-5.02
		c-4.85-6.08-3.85-14.93,2.23-19.76C84.13,101.93,92.98,102.93,97.83,109z"/>
	<path class="st4" d="M93.03,110.74c1.61,2.02,1.28,4.96-0.74,6.57s-4.96,1.28-6.57-0.74s-1.28-4.96,0.74-6.57
		C88.48,108.39,91.42,108.72,93.03,110.74z"/>
	<path class="st4" d="M87.51,122.16c1.05,1.32,0.84,3.25-0.49,4.3c-1.32,1.05-3.25,0.84-4.3-0.49c-1.05-1.32-0.84-3.25,0.49-4.3
		C84.53,120.62,86.46,120.84,87.51,122.16z"/>
	<path class="st4" d="M80.88,115.96c0.93,1.17,0.74,2.87-0.43,3.82c-1.17,0.93-2.87,0.74-3.82-0.43c-0.93-1.17-0.74-2.87,0.43-3.82
		C78.25,114.6,79.95,114.79,80.88,115.96z"/>
	<path class="st0" d="M93.24,105.24c0,0,12.97,13.86-4.04,26.4c0,0,1.44-0.26,2.36-0.62c0,0,0.88-0.3,1.84-0.81
		c0,0,1.85-0.97,3.37-2.48c0,0,2.89-2.57,3.8-6.86c0,0,1.32-5.15-1.17-9.47C99.38,111.4,97.83,107.72,93.24,105.24z"/>
</g>
<g>
	<g>
		<g>
			<g>
				<path class="st3" d="M183.02,137.03h-48.08c-1.45,0-2.63-1.18-2.63-2.63l0,0c0-1.45,1.18-2.63,2.63-2.63h48.09
					c1.45,0,2.63,1.18,2.63,2.63l0,0C185.65,135.86,184.47,137.03,183.02,137.03z"/>
				<rect x="134.9" y="137.03" class="st2" width="48.15" height="3.93"/>
				<path class="st3" d="M202.82,155.77h-87.67l0,0c0-8.18,6.63-14.81,14.81-14.81h58.06C196.19,140.97,202.82,147.59,202.82,155.77
					L202.82,155.77z"/>
				<path class="st2" d="M140.41,131.78c0,0,15.63,5.82,33.25,0H140.41z"/>
			</g>
			<g>
				<g>
					<g>
						<circle class="st6" cx="134.88" cy="93.99" r="4.9"/>
						<circle class="st6" cx="183.11" cy="93.99" r="4.9"/>
						<circle class="st7" cx="183.3" cy="93.97" r="1.38"/>
						<path class="st7" d="M135.75,93.97c0,0.76-0.62,1.38-1.38,1.38s-1.38-0.62-1.38-1.38s0.62-1.38,1.38-1.38
							S135.75,93.2,135.75,93.97z"/>
					</g>
					<path class="st8" d="M183.11,131.78h-48.15V88.5c0-13.3,10.78-24.08,24.08-24.08l0,0c13.3,0,24.08,10.78,24.08,24.08
						L183.11,131.78L183.11,131.78z"/>
					<g>
						<path class="st9" d="M165.17,115.42c0-3.39-2.75-6.14-6.14-6.14s-6.14,2.75-6.14,6.14H165.17z"/>
						<path class="st6" d="M158.82,107.51L158.82,107.51c-1.63,0-2.97-1.34-2.97-2.97v-4.48c0-1.63,1.34-2.97,2.97-2.97l0,0
							c1.63,0,2.97,1.34,2.97,2.97v4.48C161.79,106.18,160.46,107.51,158.82,107.51z"/>
					</g>
					<g>
						<path class="st10" d="M146.04,89.44l-2.68,2.68c-0.2,0.2-0.53,0.2-0.73,0l0,0c-0.2-0.2-0.2-0.53,0-0.74l2.68-2.68
							c0.2-0.2,0.53-0.2,0.73,0l0,0C146.24,88.91,146.24,89.24,146.04,89.44z"/>
						<path class="st10" d="M174.64,92.13l-2.68-2.68c-0.2-0.2-0.2-0.53,0-0.74l0,0c0.2-0.2,0.53-0.2,0.74,0l2.68,2.68
							c0.2,0.2,0.2,0.53,0,0.74l0,0C175.17,92.33,174.84,92.33,174.64,92.13z"/>
					</g>
					<g>
						<ellipse class="st11" cx="171.72" cy="99.71" rx="5.38" ry="1.55"/>
						<ellipse class="st11" cx="145.8" cy="99.71" rx="5.38" ry="1.55"/>
					</g>
					<g>
						<g>
							<g>
								<path class="st10" d="M148.54,95.36c0,0.95-0.77,1.72-1.72,1.72s-1.72-0.77-1.72-1.72s0.77-1.72,1.72-1.72
									C147.76,93.64,148.54,94.42,148.54,95.36z"/>
								<path class="st4" d="M146.81,94.48c0,0.17-0.28,0.3-0.62,0.3s-0.62-0.13-0.62-0.3s0.28-0.3,0.62-0.3
									C146.53,94.17,146.81,94.31,146.81,94.48z"/>
							</g>
							<polygon class="st8" points="144.76,95.36 148.2,93.5 144.76,92.95 							"/>
						</g>
						<g>
							<g>
								<path class="st10" d="M172.98,95.36c0,0.95-0.77,1.72-1.72,1.72s-1.72-0.77-1.72-1.72s0.77-1.72,1.72-1.72
									C172.2,93.64,172.98,94.42,172.98,95.36z"/>
								<path class="st4" d="M171.25,94.48c0,0.17-0.28,0.3-0.62,0.3s-0.62-0.13-0.62-0.3s0.28-0.3,0.62-0.3
									C170.97,94.17,171.25,94.31,171.25,94.48z"/>
							</g>
							<polygon class="st8" points="170.2,93.78 173.28,95.85 172.85,92.95 							"/>
						</g>
					</g>
					<path class="st10" d="M183.37,89.44c1.7-6.09,0.64-12.87-2.82-18.16c-3.46-5.28-9.26-8.97-15.51-9.84
						c-2.06-0.29-4.15-0.29-6.23-0.27c-3.24,0.03-6.49,0.09-9.73,0.18c0.39-0.7,0.65-1.48,0.75-2.27c-2.14,0.83-4.13,2.04-5.85,3.55
						c0.15-0.74,0.3-1.48,0.45-2.23c-2.72,1.64-5.52,3.34-7.45,5.87c-1.81,2.36-2.74,5.28-3.13,8.22s-0.26,5.92-0.13,8.89
						c0.09,1.95,0.17,3.91,0.26,5.86c0.55-0.17,0.92,0.64,0.95,1.21c0.08,1.57-0.03,3.15-0.31,4.7c0.72,0.24,1.49,0.34,2.24,0.25
						c-0.68-6.68,2.36-13.13,5.47-19.09c2.03,1.93,4.96,2.87,7.73,2.46c-0.15-1.17-0.3-2.33-0.46-3.5c5.2,4.11,11.81,6.4,18.44,6.38
						c-0.07-0.88-0.15-1.75-0.22-2.64c2.08,1.5,4.46,2.56,6.95,3.13c1.81,0.41,3.81,0.62,5.14,1.91c1.42,1.38,0.97,3.58,1.09,5.56
						c0.1,1.77,0.21,3.53,0.3,5.3c0.39,0,1.42-0.01,1.81-0.01C183.16,93.02,182.86,91.27,183.37,89.44z"/>
					<g>
						<path class="st12" d="M140.41,105.8c0,0,11.92-7.41,36.7,0l-1.58,12.83l-16.49,4.28l-16.56-3.99L140.41,105.8z"/>
						<g>
							<path class="st4" d="M141.58,107.7c-0.07,0-0.15-0.05-0.18-0.12l-7.63-18.75c-0.04-0.1,0.01-0.21,0.11-0.25
								s0.21,0.01,0.24,0.11l7.63,18.75c0.04,0.1-0.01,0.21-0.11,0.24C141.63,107.69,141.61,107.7,141.58,107.7z"/>
						</g>
						<g>
							<path class="st4" d="M176.03,107.7c-0.03,0-0.05-0.01-0.07-0.01c-0.1-0.04-0.15-0.15-0.11-0.24l7.43-18.41
								c0.04-0.1,0.15-0.15,0.24-0.11c0.1,0.04,0.15,0.15,0.11,0.25l-7.43,18.41C176.18,107.65,176.1,107.7,176.03,107.7z"/>
						</g>
						<g>
							<path class="st13" d="M164.33,110c-2.32,0-4.58-0.64-5.84-1.07c-0.2-0.07-0.4-0.14-0.6-0.21c-3.49-1.21-7.1-2.46-10.12,0.28
								l-0.26-0.28c3.19-2.89,7.07-1.55,10.5-0.36c0.2,0.07,0.4,0.14,0.6,0.21c6.93,2.38,10.09,0.17,11.13-0.89l0.27,0.26
								C168.48,109.5,166.38,110,164.33,110z"/>
						</g>
						<g>
							<path class="st13" d="M164.33,115.53c-2.32,0-4.58-0.64-5.84-1.07c-0.2-0.07-0.4-0.14-0.6-0.21
								c-3.49-1.21-7.1-2.46-10.12,0.28l-0.26-0.28c3.19-2.89,7.07-1.55,10.5-0.36c0.2,0.07,0.4,0.14,0.6,0.21
								c6.93,2.38,10.09,0.17,11.13-0.89l0.27,0.26C168.48,115.03,166.38,115.53,164.33,115.53z"/>
						</g>
					</g>
				</g>
				<g>
					<path class="st14" d="M143.96,82.92c0,0.81-0.66,1.47-1.47,1.47s-1.47-0.66-1.47-1.47s1.47-3.81,1.47-3.81
						S143.96,82.11,143.96,82.92z"/>
					<path class="st14" d="M146.92,84.97c0,0.4-0.33,0.74-0.73,0.74s-0.74-0.33-0.74-0.74s0.74-1.9,0.74-1.9
						S146.92,84.57,146.92,84.97z"/>
				</g>
			</g>
		</g>
		<g class="st15">
			<g>
				<polygon class="st3" points="179.75,110.22 187.03,107.31 189.43,110.22 202.23,106.04 188.61,113.01 185.63,109.84 				"/>
				<polygon class="st3" points="181.08,115.82 185.65,115.95 186.26,118.06 194.07,118.78 185.18,119.36 184.32,116.98 				"/>
				<polygon class="st3" points="138.89,114.39 131.2,112.88 129.37,116.19 116.03,114.45 130.69,118.77 133.04,115.11 				"/>
				<polygon class="st3" points="136.61,109.78 133.15,107.09 131.41,108.28 125.18,104.07 131.42,109.91 133.51,108.67 				"/>
				<g>
					<g>
						<path class="st3" d="M195.85,123.96l-0.17-0.24c2.67-1.92,3.36-6.11,1.46-8.79l0.24-0.17
							C199.37,117.57,198.64,121.95,195.85,123.96z"/>
					</g>
					<g>
						<path class="st3" d="M194.98,121.52l-0.17-0.24c1.58-1.14,1.99-3.62,0.87-5.22l0.24-0.17
							C197.13,117.61,196.69,120.29,194.98,121.52z"/>
					</g>
				</g>
				<g>
					<g>
						<path class="st3" d="M125.68,107.81l0.11,0.15c-1.64,1.19-2.07,3.77-0.9,5.42l-0.15,0.11
							C123.52,111.75,123.96,109.04,125.68,107.81z"/>
					</g>
					<g>
						<path class="st3" d="M126.22,109.31l0.11,0.15c-0.97,0.7-1.23,2.24-0.54,3.22l-0.15,0.11
							C124.89,111.73,125.16,110.07,126.22,109.31z"/>
					</g>
				</g>
			</g>
		</g>
	</g>
</g>
<g>
	
		<rect x="228.43" y="59.87" transform="matrix(0.1122 -0.9937 0.9937 0.1122 127.202 295.9935)" class="st2" width="1.64" height="33.88"/>
	<path class="st3" d="M213.7,72.63c1,1.24,0.79,3.06-0.46,4.06c-1.24,1-3.06,0.79-4.06-0.46c-1-1.24-0.79-3.06,0.46-4.06
		C210.88,71.18,212.7,71.38,213.7,72.63z"/>
	<path class="st3" d="M249.47,77.1c1,1.24,0.79,3.06-0.46,4.06c-1.24,1-3.06,0.79-4.06-0.46c-1-1.24-0.79-3.06,0.46-4.06
		C246.65,75.65,248.47,75.86,249.47,77.1z"/>
	
		<rect x="218.72" y="61.4" transform="matrix(0.782 -0.6233 0.6233 0.782 6.8952 151.4382)" class="st2" width="2.41" height="8.93"/>
	<path class="st3" d="M218.98,59.4c1.13,1.42,0.9,3.49-0.53,4.63c-1.42,1.13-3.49,0.9-4.63-0.53c-1.13-1.42-0.9-3.49,0.53-4.63
		C215.78,57.74,217.84,57.98,218.98,59.4z"/>
	
		<rect x="236.23" y="67.26" transform="matrix(0.782 -0.6233 0.6233 0.782 9.7894 164.7682)" class="st2" width="8.41" height="2.26"/>
	<path class="st3" d="M246.23,63.72c0.88,1.1,0.7,2.72-0.41,3.6c-1.1,0.88-2.72,0.7-3.6-0.41c-0.88-1.1-0.7-2.72,0.41-3.6
		C243.74,62.44,245.35,62.62,246.23,63.72z"/>
	
		<rect x="211.67" y="85.55" transform="matrix(0.782 -0.6233 0.6233 0.782 -6.9026 154.2727)" class="st2" width="10.83" height="2.91"/>
	<path class="st3" d="M215.01,88.61c1.14,1.42,0.9,3.5-0.53,4.63c-1.42,1.14-3.5,0.9-4.63-0.53c-1.14-1.42-0.9-3.5,0.53-4.63
		S213.87,87.19,215.01,88.61z"/>
	
		<rect x="236.71" y="83.76" transform="matrix(0.782 -0.6233 0.6233 0.782 -3.2863 167.631)" class="st2" width="2.56" height="9.51"/>
	<path class="st3" d="M244.82,91.48c1.2,1.51,0.96,3.72-0.55,4.92c-1.51,1.2-3.72,0.96-4.92-0.55c-1.2-1.51-0.96-3.72,0.55-4.92
		C241.41,89.71,243.62,89.95,244.82,91.48z"/>
	
		<rect x="212.33" y="76.07" transform="matrix(0.1121 -0.9937 0.9937 0.1121 127.1693 296.093)" class="st2" width="33.88" height="1.64"/>
	<path class="st3" d="M233.39,56.94c1,1.24,0.79,3.06-0.46,4.06c-1.24,1-3.06,0.79-4.06-0.46c-1-1.24-0.79-3.06,0.46-4.06
		S232.39,55.68,233.39,56.94z"/>
	<path class="st3" d="M229.38,93.98c1,1.24,0.79,3.06-0.46,4.06c-1.24,1-3.06,0.79-4.06-0.46c-1-1.24-0.79-3.06,0.46-4.06
		C226.56,92.53,228.38,92.74,229.38,93.98z"/>
	<path class="st2" d="M238.4,70.01c4.09,5.13,3.24,12.59-1.88,16.66c-1.51,1.2-3.23,1.99-5,2.35c-4.23,0.87-8.78-0.62-11.66-4.23
		c-4.09-5.13-3.24-12.59,1.88-16.66C226.85,64.05,234.31,64.9,238.4,70.01z"/>
	<path class="st4" d="M234.35,71.48c1.36,1.7,1.08,4.18-0.63,5.54c-1.7,1.36-4.18,1.08-5.54-0.63c-1.36-1.7-1.08-4.18,0.63-5.54
		C230.52,69.5,232.99,69.78,234.35,71.48z"/>
	<path class="st4" d="M229.7,81.11c0.88,1.12,0.7,2.74-0.41,3.63c-1.12,0.88-2.74,0.7-3.63-0.41c-0.88-1.12-0.7-2.74,0.41-3.63
		C227.18,79.82,228.81,80,229.7,81.11z"/>
	<path class="st4" d="M224.11,75.88c0.78,0.99,0.63,2.42-0.36,3.22c-0.99,0.78-2.42,0.63-3.22-0.36c-0.78-0.99-0.63-2.42,0.36-3.22
		C221.89,74.74,223.33,74.89,224.11,75.88z"/>
	<path class="st0" d="M234.53,66.84c0,0,10.93,11.69-3.41,22.26c0,0,1.22-0.22,1.99-0.53c0,0,0.74-0.26,1.55-0.68
		c0,0,1.56-0.82,2.85-2.09c0,0,2.44-2.17,3.2-5.78c0,0,1.12-4.35-0.99-7.99C239.71,72.04,238.4,68.93,234.53,66.84z"/>
</g>
<g>
	
		<rect x="243.77" y="152.63" transform="matrix(0.1122 -0.9937 0.9937 0.1122 52.7001 389.6093)" class="st2" width="1.23" height="25.37"/>
	<path class="st3" d="M232.74,162.18c0.75,0.93,0.6,2.29-0.35,3.04c-0.93,0.75-2.29,0.6-3.04-0.35c-0.75-0.93-0.6-2.29,0.35-3.04
		C230.63,161.09,231.99,161.25,232.74,162.18z"/>
	<path class="st3" d="M259.53,165.53c0.75,0.93,0.6,2.29-0.35,3.04c-0.93,0.75-2.29,0.6-3.04-0.35c-0.75-0.93-0.6-2.29,0.35-3.04
		C257.42,164.44,258.78,164.6,259.53,165.53z"/>
	
		<rect x="236.5" y="153.77" transform="matrix(0.782 -0.6233 0.6233 0.782 -46.1726 182.2241)" class="st2" width="1.8" height="6.69"/>
	<path class="st3" d="M236.7,152.27c0.84,1.07,0.67,2.61-0.39,3.46c-1.07,0.84-2.61,0.67-3.46-0.39c-0.84-1.07-0.67-2.61,0.39-3.46
		C234.3,151.03,235.84,151.21,236.7,152.27z"/>
	
		<rect x="249.62" y="158.16" transform="matrix(0.782 -0.6233 0.6233 0.782 -44.0006 192.2125)" class="st2" width="6.3" height="1.69"/>
	<path class="st3" d="M257.1,155.51c0.66,0.83,0.53,2.03-0.31,2.7c-0.83,0.66-2.03,0.53-2.7-0.31c-0.66-0.83-0.53-2.03,0.31-2.7
		C255.24,154.55,256.44,154.68,257.1,155.51z"/>
	
		<rect x="231.22" y="171.86" transform="matrix(0.782 -0.6233 0.6233 0.782 -56.5088 184.348)" class="st2" width="8.11" height="2.18"/>
	<path class="st3" d="M233.72,174.15c0.85,1.07,0.67,2.62-0.39,3.46c-1.07,0.85-2.62,0.67-3.46-0.39c-0.85-1.07-0.67-2.62,0.39-3.46
		C231.32,172.91,232.87,173.08,233.72,174.15z"/>
	
		<rect x="249.96" y="170.52" transform="matrix(0.782 -0.6233 0.6233 0.782 -53.7999 194.3512)" class="st2" width="1.92" height="7.12"/>
	<path class="st3" d="M256.05,176.3c0.9,1.13,0.72,2.78-0.41,3.69c-1.13,0.9-2.78,0.72-3.69-0.41c-0.9-1.13-0.72-2.78,0.41-3.69
		C253.49,174.97,255.15,175.15,256.05,176.3z"/>
	
		<rect x="231.73" y="164.76" transform="matrix(0.1121 -0.9937 0.9937 0.1121 52.6831 389.7084)" class="st2" width="25.37" height="1.23"/>
	<path class="st3" d="M247.49,150.43c0.75,0.93,0.6,2.29-0.35,3.04c-0.93,0.75-2.29,0.6-3.04-0.35c-0.75-0.93-0.6-2.29,0.35-3.04
		C245.38,149.34,246.74,149.49,247.49,150.43z"/>
	<path class="st3" d="M244.48,178.17c0.75,0.93,0.6,2.29-0.35,3.04c-0.93,0.75-2.29,0.6-3.04-0.35c-0.75-0.93-0.6-2.29,0.35-3.04
		C242.37,177.08,243.73,177.24,244.48,178.17z"/>
	<path class="st2" d="M251.24,160.22c3.06,3.84,2.43,9.43-1.41,12.48c-1.13,0.9-2.42,1.49-3.74,1.76c-3.17,0.65-6.57-0.46-8.73-3.17
		c-3.06-3.84-2.43-9.43,1.41-12.48C242.59,155.76,248.18,156.39,251.24,160.22z"/>
	<path class="st4" d="M248.21,161.32c1.02,1.28,0.81,3.13-0.47,4.15c-1.28,1.02-3.13,0.81-4.15-0.47c-1.02-1.28-0.81-3.13,0.47-4.15
		C245.34,159.84,247.19,160.05,248.21,161.32z"/>
	<path class="st4" d="M244.72,168.53c0.66,0.84,0.53,2.05-0.31,2.72c-0.84,0.66-2.05,0.53-2.72-0.31c-0.66-0.84-0.53-2.05,0.31-2.72
		C242.84,167.56,244.06,167.7,244.72,168.53z"/>
	<path class="st4" d="M240.54,164.62c0.59,0.74,0.47,1.81-0.27,2.41c-0.74,0.59-1.81,0.47-2.41-0.27c-0.59-0.74-0.47-1.81,0.27-2.41
		C238.88,163.76,239.95,163.88,240.54,164.62z"/>
	<path class="st0" d="M248.34,157.85c0,0,8.19,8.75-2.55,16.67c0,0,0.91-0.16,1.49-0.39c0,0,0.56-0.19,1.16-0.51
		c0,0,1.17-0.61,2.13-1.56c0,0,1.82-1.62,2.4-4.33c0,0,0.84-3.25-0.74-5.98C252.22,161.74,251.24,159.41,248.34,157.85z"/>
</g>
<polyline class="st16" points="213.72,196.66 248.44,196.66 248.44,518.96 212.63,518.96 "/>
<rect x="237.17" y="255.19" class="st4" width="20.17" height="205.23"/>
<g class="st5">
	<path class="st3" d="M229.78,427.52c0.3-0.67,0.73-1.18,1.29-1.55s1.22-0.54,1.97-0.54s1.41,0.18,1.96,0.54
		c0.55,0.36,0.98,0.88,1.28,1.55c0.3,0.67,0.45,1.46,0.45,2.36v1.75h2.62v2.84h-10.02v-4.58
		C229.33,428.98,229.48,428.19,229.78,427.52z M234.12,428.74c-0.25-0.3-0.61-0.44-1.08-0.44s-0.83,0.15-1.09,0.44
		c-0.26,0.3-0.39,0.74-0.39,1.32v1.58h2.94v-1.58C234.5,429.48,234.37,429.04,234.12,428.74z"/>
	<path class="st3" d="M238.88,421.71c-0.45,0.85-1.07,1.51-1.86,1.99c-0.79,0.48-1.69,0.72-2.68,0.72c-0.99,0-1.89-0.24-2.68-0.72
		s-1.41-1.15-1.86-1.99s-0.67-1.8-0.67-2.86s0.22-2.01,0.67-2.86s1.07-1.51,1.86-1.99c0.79-0.48,1.69-0.72,2.68-0.72
		c0.99,0,1.89,0.24,2.68,0.72s1.41,1.15,1.86,1.99c0.45,0.85,0.67,1.8,0.67,2.86S239.33,420.87,238.88,421.71z M236.85,417.48
		c-0.24-0.41-0.58-0.73-1.01-0.97s-0.93-0.36-1.5-0.36s-1.06,0.12-1.5,0.36c-0.43,0.24-0.77,0.56-1.01,0.97
		c-0.24,0.41-0.36,0.87-0.36,1.38s0.12,0.96,0.36,1.38c0.24,0.41,0.58,0.74,1.01,0.97c0.43,0.24,0.93,0.36,1.5,0.36
		s1.06-0.12,1.5-0.36c0.43-0.24,0.77-0.56,1.01-0.97s0.36-0.87,0.36-1.38S237.09,417.89,236.85,417.48z"/>
	<path class="st3" d="M231.58,409.8v3.08h-2.25v-8.98h2.25v3.07h7.78v2.84L231.58,409.8L231.58,409.8z"/>
	<path class="st3" d="M237.16,394.79h2.19v8.05h-10.02v-7.86h2.19v5.06h1.69v-4.46h2.12v4.46h1.83V394.79z"/>
	<path class="st3" d="M229.33,383.67h10.03V386l-5.34,4.43h5.34v2.78h-10.03v-2.33l5.34-4.43h-5.34V383.67z"/>
	<path class="st3" d="M238.89,379.5c-0.44,0.84-1.06,1.49-1.86,1.97s-1.69,0.72-2.69,0.72s-1.9-0.24-2.69-0.72
		c-0.79-0.48-1.41-1.13-1.85-1.97s-0.67-1.78-0.67-2.83c0-0.92,0.16-1.74,0.49-2.48c0.33-0.74,0.79-1.35,1.4-1.83l1.63,1.8
		c-0.78,0.65-1.17,1.44-1.17,2.36c0,0.54,0.12,1.03,0.36,1.45s0.58,0.75,1.01,0.99c0.43,0.23,0.93,0.35,1.5,0.35s1.06-0.12,1.5-0.35
		c0.43-0.23,0.77-0.56,1.01-0.99c0.24-0.42,0.36-0.91,0.36-1.45c0-0.93-0.39-1.71-1.17-2.36l1.63-1.8c0.61,0.49,1.08,1.1,1.4,1.83
		c0.32,0.73,0.49,1.56,0.49,2.48C239.56,377.72,239.33,378.66,238.89,379.5z"/>
	<path class="st3" d="M229.33,371.1v-2.84h10.03v2.84H229.33z"/>
	<path class="st3" d="M237.41,359.52v4.24l1.95,0.79v2.89l-10.03-4.43v-2.79l10.03-4.44v2.95L237.41,359.52z M235.32,360.35
		l-3.21,1.29l3.21,1.29V360.35z"/>
	<path class="st3" d="M229.33,354.98v-2.84h7.78v-4.78h2.25v7.62H229.33z"/>
	<path class="st3" d="M229.33,342.07v-4.74c0-1.1,0.21-2.07,0.62-2.92c0.41-0.85,0.99-1.51,1.75-1.98c0.75-0.47,1.64-0.7,2.65-0.7
		s1.9,0.23,2.65,0.7s1.34,1.13,1.75,1.98s0.62,1.82,0.62,2.92v4.74H229.33z M237.09,337.45c0-0.86-0.24-1.55-0.73-2.07
		c-0.49-0.52-1.16-0.78-2.02-0.78s-1.53,0.26-2.02,0.78s-0.73,1.21-0.73,2.07v1.79h5.5V337.45z"/>
	<path class="st3" d="M237.16,322.19h2.19v8.05h-10.02v-7.86h2.19v5.06h1.69v-4.46h2.12v4.46h1.83V322.19z"/>
	<path class="st3" d="M239.35,307.39l-5.31,0.03l4.33,2.58v1.26l-4.18,2.56h5.17v2.62h-10.03v-2.33l5.79-3.52l-5.79-3.44v-2.33
		l10.02-0.03L239.35,307.39L239.35,307.39z"/>
	<path class="st3" d="M237.41,296.06v4.24l1.95,0.79v2.89l-10.03-4.43v-2.79l10.03-4.44v2.95L237.41,296.06z M235.32,296.89
		l-3.21,1.29l3.21,1.29V296.89z"/>
	<path class="st3" d="M229.33,291.52v-2.84h10.03v2.84H229.33z"/>
	<path class="st3" d="M238.88,284.47c-0.45,0.85-1.07,1.51-1.86,1.99c-0.79,0.48-1.69,0.72-2.68,0.72c-0.99,0-1.89-0.24-2.68-0.72
		s-1.41-1.15-1.86-1.99s-0.67-1.8-0.67-2.86s0.22-2.01,0.67-2.86s1.07-1.51,1.86-1.99c0.79-0.48,1.69-0.72,2.68-0.72
		c0.99,0,1.89,0.24,2.68,0.72s1.41,1.15,1.86,1.99c0.45,0.85,0.67,1.8,0.67,2.86S239.33,283.62,238.88,284.47z M236.85,280.23
		c-0.24-0.41-0.58-0.73-1.01-0.97s-0.93-0.36-1.5-0.36s-1.06,0.12-1.5,0.36c-0.43,0.24-0.77,0.56-1.01,0.97
		c-0.24,0.41-0.36,0.87-0.36,1.38s0.12,0.96,0.36,1.38c0.24,0.41,0.58,0.74,1.01,0.97c0.43,0.24,0.93,0.36,1.5,0.36
		s1.06-0.12,1.5-0.36c0.43-0.24,0.77-0.56,1.01-0.97s0.36-0.87,0.36-1.38S237.09,280.64,236.85,280.23z"/>
	<path class="st3" d="M236.69,270.16v1.55h2.66v2.84h-10.02v-4.58c0-0.91,0.15-1.69,0.45-2.36c0.3-0.67,0.73-1.18,1.29-1.55
		s1.22-0.54,1.97-0.54c0.73,0,1.36,0.17,1.9,0.51s0.96,0.82,1.27,1.45l3.15-2.16v3.04L236.69,270.16z M231.95,268.82
		c-0.26,0.3-0.39,0.74-0.39,1.32v1.58h2.94v-1.58c0-0.58-0.13-1.02-0.38-1.32c-0.25-0.3-0.61-0.44-1.08-0.44
		C232.57,268.37,232.21,268.52,231.95,268.82z"/>
	<path class="st3" d="M246.52,395.06l10.03,4.3v2.79l-10.03,4.28v-3.07l6.53-2.72l-6.53-2.78V395.06z"/>
	<path class="st3" d="M246.52,394.47v-2.84h10.03v2.84H246.52z"/>
	<path class="st3" d="M253.88,385.23v1.55h2.66v2.84h-10.02v-4.58c0-0.91,0.15-1.69,0.45-2.36c0.3-0.67,0.73-1.18,1.29-1.55
		s1.22-0.54,1.97-0.54c0.73,0,1.36,0.17,1.9,0.51s0.96,0.82,1.27,1.45l3.15-2.16v3.04L253.88,385.23z M249.14,383.88
		c-0.26,0.3-0.39,0.74-0.39,1.32v1.58h2.94v-1.58c0-0.58-0.13-1.02-0.38-1.32c-0.25-0.3-0.61-0.44-1.08-0.44
		S249.4,383.59,249.14,383.88z"/>
	<path class="st3" d="M255.53,377.86c-0.81,0.83-1.96,1.24-3.45,1.24h-5.56v-2.84h5.47c1.6,0,2.41-0.63,2.41-1.91
		c0-1.26-0.8-1.89-2.41-1.89h-5.47v-2.79h5.56c1.49,0,2.64,0.41,3.45,1.24s1.22,1.98,1.22,3.47S256.34,377.03,255.53,377.86z"/>
	<path class="st3" d="M246.52,367.75v-2.84h7.78v-4.78h2.25v7.62H246.52z"/>
	<path class="st3" d="M254.35,350.96h2.19v8.05h-10.02v-7.86h2.19v5.06h1.69v-4.46h2.12v4.46h1.83V350.96z M245.7,353.84l-1.09,1.23
		l1.09,1.23v1.81l-2.18-1.86v-2.35l2.18-1.86V353.84z"/>
	<path class="st3" d="M246.52,339.85h10.03v2.33l-5.34,4.43h5.34v2.78h-10.03v-2.33l5.34-4.43h-5.34V339.85z"/>
	<path class="st3" d="M256.08,335.67c-0.44,0.84-1.06,1.49-1.86,1.97s-1.69,0.72-2.69,0.72s-1.9-0.24-2.69-0.72
		s-1.41-1.13-1.85-1.97s-0.67-1.78-0.67-2.83c0-0.92,0.16-1.74,0.49-2.48c0.33-0.74,0.79-1.35,1.4-1.83l1.63,1.8
		c-0.78,0.65-1.17,1.44-1.17,2.36c0,0.54,0.12,1.03,0.36,1.45s0.58,0.75,1.01,0.99c0.43,0.23,0.93,0.35,1.5,0.35s1.06-0.12,1.5-0.35
		c0.43-0.23,0.77-0.56,1.01-0.99c0.24-0.42,0.36-0.91,0.36-1.45c0-0.93-0.39-1.71-1.17-2.36l1.63-1.8c0.61,0.49,1.08,1.1,1.4,1.83
		c0.32,0.73,0.49,1.56,0.49,2.48C256.75,333.89,256.52,334.83,256.08,335.67z"/>
	<path class="st3" d="M246.52,327.27v-2.84h10.03v2.84H246.52z"/>
	<path class="st3" d="M254.6,315.69v4.24l1.95,0.79v2.89l-10.03-4.43v-2.79l10.03-4.44v2.95L254.6,315.69z M252.51,316.52
		l-3.21,1.29l3.21,1.29V316.52z"/>
	<path class="st3" d="M254.35,298.93h2.19v8.05h-10.02v-7.86h2.19v5.06h1.69v-4.46h2.12v4.46h1.83V298.93z"/>
	<path class="st3" d="M265.96,430.85v3.08h-2.25v-8.98h2.25v3.07h7.78v2.84L265.96,430.85L265.96,430.85z"/>
	<path class="st3" d="M271.07,419.51v1.55h2.66v2.84h-10.02v-4.58c0-0.91,0.15-1.69,0.45-2.36c0.3-0.67,0.73-1.18,1.29-1.55
		s1.22-0.54,1.97-0.54c0.73,0,1.36,0.17,1.9,0.51s0.96,0.82,1.27,1.45l3.15-2.16v3.04L271.07,419.51z M266.33,418.16
		c-0.26,0.3-0.39,0.74-0.39,1.32v1.58h2.94v-1.58c0-0.58-0.13-1.02-0.38-1.32c-0.25-0.3-0.61-0.44-1.08-0.44
		S266.59,417.87,266.33,418.16z"/>
	<path class="st3" d="M271.79,406.57v4.24l1.95,0.79v2.89l-10.03-4.43v-2.79l10.03-4.44v2.95L271.79,406.57z M269.7,407.4
		l-3.21,1.29l3.21,1.29V407.4z"/>
	<path class="st3" d="M263.71,392.49h10.03v2.33l-5.34,4.43h5.34v2.78h-10.03v-2.33l5.34-4.43h-5.34V392.49z"/>
	<path class="st3" d="M273.64,389.33c-0.2,0.76-0.47,1.38-0.8,1.86l-2.09-0.93c0.3-0.45,0.54-0.97,0.72-1.56s0.27-1.17,0.27-1.75
		c0-1.09-0.27-1.63-0.82-1.63c-0.29,0-0.5,0.16-0.64,0.47s-0.28,0.81-0.44,1.5c-0.16,0.75-0.34,1.38-0.52,1.89
		c-0.19,0.51-0.48,0.94-0.9,1.3c-0.41,0.36-0.96,0.54-1.66,0.54c-0.61,0-1.16-0.17-1.65-0.5s-0.88-0.83-1.17-1.5
		c-0.29-0.66-0.43-1.48-0.43-2.44c0-0.66,0.07-1.31,0.22-1.95s0.37-1.2,0.65-1.69l2.11,0.87c-0.52,0.96-0.77,1.88-0.77,2.78
		c0,0.56,0.08,0.97,0.25,1.23s0.38,0.39,0.65,0.39s0.47-0.15,0.6-0.46s0.27-0.8,0.42-1.48c0.16-0.76,0.34-1.4,0.52-1.9
		c0.19-0.5,0.48-0.94,0.89-1.3c0.41-0.37,0.96-0.55,1.65-0.55c0.6,0,1.15,0.17,1.63,0.5c0.49,0.33,0.88,0.84,1.17,1.5
		s0.44,1.48,0.44,2.44C273.94,387.77,273.84,388.56,273.64,389.33z"/>
	<path class="st3" d="M273.74,372.16l-5.31,0.03l4.33,2.58v1.26l-4.18,2.56h5.17v2.62h-10.04v-2.33l5.79-3.52l-5.79-3.44v-2.33
		l10.03-0.03V372.16z"/>
	<path class="st3" d="M263.71,367.55v-2.84h10.03v2.84H263.71z"/>
	<path class="st3" d="M273.64,361.53c-0.2,0.76-0.47,1.38-0.8,1.86l-2.09-0.93c0.3-0.45,0.54-0.97,0.72-1.56s0.27-1.17,0.27-1.75
		c0-1.09-0.27-1.63-0.82-1.63c-0.29,0-0.5,0.16-0.64,0.47s-0.28,0.81-0.44,1.5c-0.16,0.75-0.34,1.38-0.52,1.89
		c-0.19,0.51-0.48,0.94-0.9,1.3c-0.41,0.36-0.96,0.54-1.66,0.54c-0.61,0-1.16-0.17-1.65-0.5s-0.88-0.83-1.17-1.5
		c-0.29-0.66-0.43-1.48-0.43-2.44c0-0.66,0.07-1.31,0.22-1.95s0.37-1.2,0.65-1.69l2.11,0.87c-0.52,0.96-0.77,1.88-0.77,2.78
		c0,0.56,0.08,0.97,0.25,1.23s0.38,0.39,0.65,0.39s0.47-0.15,0.6-0.46s0.27-0.8,0.42-1.48c0.16-0.76,0.34-1.4,0.52-1.9
		c0.19-0.5,0.48-0.94,0.89-1.3c0.41-0.37,0.96-0.55,1.65-0.55c0.6,0,1.15,0.17,1.63,0.5c0.49,0.33,0.88,0.84,1.17,1.5
		s0.44,1.48,0.44,2.44C273.94,359.98,273.84,360.77,273.64,361.53z"/>
	<path class="st3" d="M273.64,352.27c-0.2,0.76-0.47,1.38-0.8,1.86l-2.09-0.93c0.3-0.45,0.54-0.97,0.72-1.56s0.27-1.17,0.27-1.75
		c0-1.09-0.27-1.63-0.82-1.63c-0.29,0-0.5,0.16-0.64,0.47s-0.28,0.81-0.44,1.5c-0.16,0.75-0.34,1.38-0.52,1.89
		c-0.19,0.51-0.48,0.94-0.9,1.3c-0.41,0.36-0.96,0.54-1.66,0.54c-0.61,0-1.16-0.17-1.65-0.5s-0.88-0.83-1.17-1.5
		c-0.29-0.66-0.43-1.48-0.43-2.44c0-0.66,0.07-1.31,0.22-1.95s0.37-1.2,0.65-1.69l2.11,0.87c-0.52,0.96-0.77,1.88-0.77,2.78
		c0,0.56,0.08,0.97,0.25,1.23s0.38,0.39,0.65,0.39s0.47-0.15,0.6-0.46s0.27-0.8,0.42-1.48c0.16-0.76,0.34-1.4,0.52-1.9
		c0.19-0.5,0.48-0.94,0.89-1.3c0.41-0.37,0.96-0.55,1.65-0.55c0.6,0,1.15,0.17,1.63,0.5c0.49,0.33,0.88,0.84,1.17,1.5
		s0.44,1.48,0.44,2.44C273.94,350.71,273.84,351.5,273.64,352.27z"/>
	<path class="st3" d="M263.71,344.16v-2.84h10.03v2.84H263.71z"/>
	<path class="st3" d="M269.45,330.25c0.42-0.32,0.94-0.49,1.54-0.49c0.88,0,1.56,0.35,2.03,1.06c0.48,0.71,0.72,1.73,0.72,3.07v5.41
		h-10.03v-5.13c0-1.28,0.24-2.25,0.71-2.92s1.11-1,1.91-1c0.48,0,0.91,0.12,1.28,0.35c0.38,0.23,0.68,0.57,0.9,1
		C268.71,331.02,269.02,330.57,269.45,330.25z M265.76,336.49h1.93v-1.95c0-0.96-0.32-1.43-0.97-1.43c-0.64,0-0.96,0.48-0.96,1.43
		V336.49z M270.67,332.63c-0.68,0-1.02,0.5-1.02,1.49v2.38h2.03v-2.38C271.69,333.12,271.35,332.63,270.67,332.63z"/>
	<path class="st3" d="M263.71,328.29v-2.84h10.03v2.84H263.71z"/>
	<path class="st3" d="M263.71,323.43v-2.84h7.78v-4.78h2.25v7.62H263.71z"/>
	<path class="st3" d="M263.71,314.69v-2.84h10.03v2.84H263.71z"/>
	<path class="st3" d="M263.71,309.84v-4.74c0-1.1,0.21-2.07,0.62-2.92s0.99-1.51,1.75-1.98c0.75-0.47,1.64-0.7,2.65-0.7
		s1.9,0.23,2.65,0.7s1.34,1.13,1.75,1.98s0.62,1.82,0.62,2.92v4.74H263.71z M271.47,305.21c0-0.86-0.24-1.55-0.73-2.07
		c-0.49-0.52-1.16-0.78-2.02-0.78s-1.53,0.26-2.02,0.78s-0.73,1.21-0.73,2.07V307h5.5V305.21z"/>
	<path class="st3" d="M271.79,291.43v4.24l1.95,0.79v2.89l-10.03-4.43v-2.79l10.03-4.44v2.95L271.79,291.43z M269.7,292.26
		l-3.21,1.29l3.21,1.29V292.26z"/>
	<path class="st3" d="M263.71,286.89v-4.74c0-1.1,0.21-2.07,0.62-2.92s0.99-1.51,1.75-1.98c0.75-0.47,1.64-0.7,2.65-0.7
		s1.9,0.23,2.65,0.7s1.34,1.13,1.75,1.98s0.62,1.82,0.62,2.92v4.74H263.71z M271.47,282.26c0-0.86-0.24-1.55-0.73-2.07
		c-0.49-0.52-1.16-0.78-2.02-0.78s-1.53,0.26-2.02,0.78s-0.73,1.21-0.73,2.07v1.79h5.5V282.26z"/>
	<path class="st3" d="M271.54,267h2.19v8.05h-10.02v-7.86h2.19v5.06h1.69v-4.46h2.12v4.46h1.83V267L271.54,267z"/>
</g>
<polyline class="st16" points="104.05,845.51 69.34,845.51 69.34,196.01 105.14,196.01 "/>
<rect x="62.85" y="401.64" class="st4" width="20.17" height="238.25"/>
<g class="st5">
	<path class="st3" d="M61.97,620.12c0.3-0.67,0.73-1.18,1.29-1.55s1.22-0.54,1.97-0.54s1.41,0.18,1.96,0.54
		c0.55,0.36,0.98,0.88,1.28,1.55s0.45,1.46,0.45,2.36v1.75h2.62v2.84H61.51v-4.58C61.52,621.58,61.67,620.79,61.97,620.12z
		 M66.31,621.34c-0.25-0.3-0.61-0.44-1.08-0.44s-0.83,0.15-1.09,0.44c-0.26,0.3-0.39,0.74-0.39,1.32v1.58h2.94v-1.58
		C66.69,622.08,66.57,621.64,66.31,621.34z"/>
	<path class="st3" d="M69.36,608.6h2.19v8.05H61.52v-7.86h2.19v5.06h1.69v-4.46h2.12v4.46h1.83L69.36,608.6L69.36,608.6z"/>
	<path class="st3" d="M68.88,602.65v1.55h2.66v2.84H61.51v-4.58c0-0.91,0.15-1.69,0.45-2.36s0.73-1.18,1.29-1.55
		s1.22-0.54,1.97-0.54c0.73,0,1.36,0.17,1.9,0.51s0.96,0.82,1.27,1.45l3.15-2.16v3.04L68.88,602.65z M64.14,601.3
		c-0.26,0.3-0.39,0.74-0.39,1.32v1.58h2.94v-1.58c0-0.58-0.13-1.02-0.38-1.32s-0.61-0.44-1.08-0.44
		C64.76,600.86,64.4,601,64.14,601.3z"/>
	<path class="st3" d="M61.52,596.43v-2.84h10.03v2.84H61.52z M58.53,594.5v-2.72l2.18,2.69v1.95L58.53,594.5z"/>
	<path class="st3" d="M71.08,589.37c-0.45,0.85-1.07,1.51-1.86,1.99s-1.69,0.72-2.68,0.72s-1.89-0.24-2.68-0.72
		s-1.41-1.15-1.86-1.99c-0.45-0.84-0.67-1.8-0.67-2.86s0.22-2.01,0.67-2.86s1.07-1.51,1.86-1.99s1.69-0.72,2.68-0.72
		s1.89,0.24,2.68,0.72s1.41,1.15,1.86,1.99c0.45,0.85,0.67,1.8,0.67,2.86S71.52,588.53,71.08,589.37z M69.04,585.14
		c-0.24-0.41-0.58-0.73-1.01-0.97s-0.93-0.36-1.5-0.36s-1.06,0.12-1.5,0.36s-0.77,0.56-1.01,0.97c-0.24,0.41-0.36,0.87-0.36,1.38
		s0.12,0.96,0.36,1.38c0.24,0.41,0.58,0.74,1.01,0.97c0.43,0.24,0.93,0.36,1.5,0.36s1.06-0.12,1.5-0.36
		c0.43-0.24,0.77-0.56,1.01-0.97c0.24-0.41,0.36-0.87,0.36-1.38S69.28,585.55,69.04,585.14z"/>
	<path class="st3" d="M61.52,579.45v-4.74c0-1.1,0.21-2.07,0.62-2.92s0.99-1.51,1.75-1.98c0.75-0.47,1.64-0.7,2.65-0.7
		s1.9,0.23,2.65,0.7s1.34,1.13,1.75,1.98s0.62,1.82,0.62,2.92v4.74H61.52z M69.29,574.83c0-0.86-0.24-1.55-0.73-2.07
		c-0.49-0.52-1.16-0.78-2.02-0.78s-1.53,0.26-2.02,0.78c-0.49,0.52-0.73,1.21-0.73,2.07v1.79h5.5V574.83z"/>
	<path class="st3" d="M71.08,565.42c-0.45,0.85-1.07,1.51-1.86,1.99s-1.69,0.72-2.68,0.72s-1.89-0.24-2.68-0.72
		s-1.41-1.15-1.86-1.99s-0.67-1.8-0.67-2.86s0.22-2.01,0.67-2.86s1.07-1.51,1.86-1.99s1.69-0.72,2.68-0.72s1.89,0.24,2.68,0.72
		s1.41,1.15,1.86,1.99c0.45,0.85,0.67,1.8,0.67,2.86S71.52,564.58,71.08,565.42z M69.04,561.19c-0.24-0.41-0.58-0.73-1.01-0.97
		s-0.93-0.36-1.5-0.36s-1.06,0.12-1.5,0.36s-0.77,0.56-1.01,0.97c-0.24,0.41-0.36,0.87-0.36,1.38s0.12,0.96,0.36,1.38
		c0.24,0.41,0.58,0.74,1.01,0.97c0.43,0.24,0.93,0.36,1.5,0.36s1.06-0.12,1.5-0.36c0.43-0.24,0.77-0.56,1.01-0.97
		c0.24-0.41,0.36-0.87,0.36-1.38S69.28,561.6,69.04,561.19z"/>
	<path class="st3" d="M61.52,551.33v-4.74c0-1.1,0.21-2.07,0.62-2.92s0.99-1.51,1.75-1.98c0.75-0.47,1.64-0.7,2.65-0.7
		s1.9,0.23,2.65,0.7s1.34,1.13,1.75,1.98s0.62,1.82,0.62,2.92v4.74H61.52z M69.29,546.71c0-0.86-0.24-1.55-0.73-2.07
		c-0.49-0.52-1.16-0.78-2.02-0.78s-1.53,0.26-2.02,0.78c-0.49,0.52-0.73,1.21-0.73,2.07v1.79h5.5V546.71z"/>
	<path class="st3" d="M69.36,531.45h2.19v8.05H61.52v-7.86h2.19v5.06h1.69v-4.46h2.12v4.46h1.83L69.36,531.45L69.36,531.45z"/>
	<path class="st3" d="M61.52,525.71v-2.84h10.03v2.84H61.52z"/>
	<path class="st3" d="M71.45,519.69c-0.2,0.76-0.47,1.38-0.8,1.86l-2.09-0.93c0.3-0.45,0.54-0.97,0.72-1.56s0.27-1.17,0.27-1.75
		c0-1.09-0.27-1.63-0.82-1.63c-0.29,0-0.5,0.16-0.64,0.47s-0.28,0.81-0.44,1.5c-0.16,0.75-0.34,1.38-0.52,1.89
		c-0.19,0.51-0.48,0.94-0.9,1.3c-0.41,0.36-0.96,0.54-1.66,0.54c-0.61,0-1.16-0.17-1.65-0.5s-0.88-0.83-1.17-1.5
		c-0.29-0.66-0.43-1.48-0.43-2.44c0-0.66,0.07-1.31,0.22-1.95s0.37-1.2,0.65-1.69l2.11,0.87c-0.52,0.96-0.77,1.88-0.77,2.78
		c0,0.56,0.08,0.97,0.25,1.23s0.38,0.39,0.65,0.39s0.47-0.15,0.6-0.46s0.27-0.8,0.42-1.48c0.16-0.76,0.34-1.4,0.52-1.9
		c0.19-0.5,0.48-0.94,0.89-1.3c0.41-0.37,0.96-0.55,1.65-0.55c0.6,0,1.15,0.17,1.63,0.5c0.49,0.33,0.88,0.84,1.17,1.5
		s0.44,1.48,0.44,2.44C71.75,518.14,71.65,518.93,71.45,519.69z"/>
	<path class="st3" d="M71.08,509.38c-0.45,0.85-1.07,1.51-1.86,1.99s-1.69,0.72-2.68,0.72s-1.89-0.24-2.68-0.72
		s-1.41-1.15-1.86-1.99s-0.67-1.8-0.67-2.86s0.22-2.01,0.67-2.86s1.07-1.51,1.86-1.99s1.69-0.72,2.68-0.72s1.89,0.24,2.68,0.72
		s1.41,1.15,1.86,1.99c0.45,0.85,0.67,1.8,0.67,2.86S71.52,508.54,71.08,509.38z M69.04,505.15c-0.24-0.41-0.58-0.73-1.01-0.97
		s-0.93-0.36-1.5-0.36s-1.06,0.12-1.5,0.36s-0.77,0.56-1.01,0.97c-0.24,0.41-0.36,0.87-0.36,1.38s0.12,0.96,0.36,1.38
		c0.24,0.41,0.58,0.74,1.01,0.97c0.43,0.24,0.93,0.36,1.5,0.36s1.06-0.12,1.5-0.36c0.43-0.24,0.77-0.56,1.01-0.97
		c0.24-0.41,0.36-0.87,0.36-1.38S69.28,505.56,69.04,505.15z"/>
	<path class="st3" d="M61.52,499.46v-2.84h7.78v-4.78h2.25v7.62L61.52,499.46L61.52,499.46z"/>
	<path class="st3" d="M69.6,483.89v4.24l1.95,0.79v2.89l-10.03-4.43v-2.79l10.03-4.44v2.95L69.6,483.89z M67.51,484.72l-3.21,1.29
		l3.21,1.29V484.72z"/>
	<path class="st3" d="M71.55,470.3l-5.31,0.03l4.33,2.58v1.26l-4.18,2.56h5.17v2.62H61.53v-2.33l5.79-3.52l-5.79-3.44v-2.33
		l10.03-0.03L71.55,470.3L71.55,470.3L71.55,470.3z"/>
	<path class="st3" d="M69.36,457.63h2.19v8.05H61.52v-7.86h2.19v5.06h1.69v-4.46h2.12v4.46h1.83L69.36,457.63L69.36,457.63z"/>
	<path class="st3" d="M61.52,446.52h10.03v2.33l-5.34,4.43h5.34v2.78H61.52v-2.33l5.34-4.43h-5.34V446.52z"/>
	<path class="st3" d="M63.77,442.38v3.08h-2.25v-8.98h2.25v3.07h7.78v2.84L63.77,442.38C63.77,442.39,63.77,442.38,63.77,442.38z"/>
	<path class="st3" d="M71.08,433.36c-0.45,0.85-1.07,1.51-1.86,1.99c-0.79,0.48-1.69,0.72-2.68,0.72s-1.89-0.24-2.68-0.72
		s-1.41-1.15-1.86-1.99s-0.67-1.8-0.67-2.86s0.22-2.01,0.67-2.86s1.07-1.51,1.86-1.99c0.79-0.48,1.69-0.72,2.68-0.72
		s1.89,0.24,2.68,0.72s1.41,1.15,1.86,1.99c0.45,0.85,0.67,1.8,0.67,2.86S71.52,432.51,71.08,433.36z M69.04,429.13
		c-0.24-0.41-0.58-0.73-1.01-0.97s-0.93-0.36-1.5-0.36s-1.06,0.12-1.5,0.36s-0.77,0.56-1.01,0.97c-0.24,0.41-0.36,0.87-0.36,1.38
		s0.12,0.96,0.36,1.38c0.24,0.41,0.58,0.74,1.01,0.97c0.43,0.24,0.93,0.36,1.5,0.36s1.06-0.12,1.5-0.36
		c0.43-0.24,0.77-0.56,1.01-0.97c0.24-0.41,0.36-0.87,0.36-1.38S69.28,429.54,69.04,429.13z"/>
</g>
<g>
	<g>
		<line class="st16" x1="260.26" y1="112.52" x2="208.4" y2="112.66"/>
		<g>
			
				<rect x="259.88" y="110.08" transform="matrix(1 -2.726207e-03 2.726207e-03 1 -0.3058 0.7099)" class="st17" width="0.75" height="4.88"/>
		</g>
	</g>
</g>
<g>
	<path class="st17" d="M21.68,257.91v-6.68c0-1.6,0.3-3.01,0.91-4.23c0.61-1.23,1.47-2.18,2.57-2.86c1.11-0.68,2.39-1.02,3.86-1.02
		s2.76,0.34,3.86,1.02c1.11,0.68,1.96,1.63,2.57,2.86c0.61,1.23,0.91,2.64,0.91,4.23v6.68H21.68z M33.59,251.4
		c0-1.47-0.41-2.64-1.23-3.52s-1.93-1.31-3.33-1.31s-2.51,0.44-3.33,1.31c-0.82,0.88-1.23,2.05-1.23,3.52v3.11h9.11L33.59,251.4
		L33.59,251.4z"/>
	<path class="st17" d="M21.68,240.56v-3.4h14.7v3.4H21.68z"/>
	<path class="st17" d="M33.23,224v6.82l3.15,1.3v3.49l-14.7-6.55v-3.36l14.7-6.57v3.57L33.23,224z M30.65,225.07l-5.63,2.33
		l5.63,2.33C30.65,229.73,30.65,225.07,30.65,225.07z"/>
	<path class="st17" d="M36.16,216.13c-0.31,1.09-0.72,1.96-1.23,2.61l-2.56-1.16c0.46-0.63,0.83-1.38,1.11-2.25s0.42-1.74,0.42-2.6
		c0-0.97-0.14-1.68-0.43-2.14s-0.67-0.69-1.14-0.69c-0.35,0-0.64,0.14-0.87,0.41s-0.42,0.62-0.56,1.05c-0.14,0.43-0.29,1-0.46,1.73
		c-0.27,1.12-0.53,2.04-0.8,2.75c-0.27,0.71-0.69,1.33-1.28,1.84s-1.37,0.77-2.35,0.77c-0.85,0-1.63-0.23-2.32-0.69
		s-1.24-1.16-1.65-2.09s-0.61-2.07-0.61-3.41c0-0.94,0.11-1.85,0.34-2.75c0.22-0.9,0.55-1.68,0.97-2.35l2.58,1.05
		c-0.77,1.36-1.16,2.72-1.16,4.07c0,0.95,0.15,1.66,0.46,2.11c0.31,0.46,0.71,0.68,1.22,0.68s0.88-0.26,1.12-0.79
		c0.25-0.53,0.49-1.33,0.72-2.4c0.27-1.12,0.53-2.04,0.8-2.75s0.69-1.33,1.26-1.84s1.35-0.77,2.33-0.77c0.84,0,1.61,0.23,2.3,0.7
		s1.24,1.17,1.65,2.11s0.61,2.08,0.61,3.42C36.63,213.92,36.48,215.05,36.16,216.13z"/>
</g>
<line class="st16" x1="97.23" y1="196.01" x2="29.03" y2="196.01"/>
</svg>
