<?xml version="1.0" encoding="utf-8"?>
<!-- Generator: Adobe Illustrator 23.1.1, SVG Export Plug-In . SVG Version: 6.00 Build 0)  -->
<svg version="1.1" id="Camada_1" xmlns="http://www.w3.org/2000/svg" xmlns:xlink="http://www.w3.org/1999/xlink" x="0px" y="0px"
	 viewBox="0 0 1185.49 293.02" style="enable-background:new 0 0 1185.49 293.02;" xml:space="preserve">
<style type="text/css">
	.st0{opacity:0.5;fill:#49CDDA;enable-background:new    ;}
	.st1{fill:#E5E6E8;}
	.st2{fill:#2E7596;}
	.st3{fill:#49CDDA;}
	.st4{fill:#FFFFFF;}
	.st5{enable-background:new    ;}
	.st6{fill:#DE9182;}
	.st7{fill:#C9736D;}
	.st8{fill:#EFB898;}
	.st9{fill:#F2F6F7;}
	.st10{fill:#022435;}
	.st11{fill:#F4A684;}
	.st12{fill:#FFFFFF;stroke:#D3D3D3;stroke-width:4;stroke-miterlimit:10;}
	.st13{fill:#E5E5E5;}
	.st14{opacity:0.4;fill:#FFFFFF;enable-background:new    ;}
	.st15{opacity:0.5;}
	.st16{fill:none;stroke:#999999;stroke-width:0.75;stroke-miterlimit:10;}
	.st17{fill:#999999;}
</style>
<g>
	<rect x="584.22" y="126.83" class="st0" width="46.44" height="95.77"/>
	<rect x="633.73" y="126.83" class="st0" width="46.44" height="95.77"/>
	<rect x="683.23" y="126.83" class="st0" width="46.44" height="95.77"/>
	<rect x="732.74" y="126.83" class="st0" width="46.44" height="95.77"/>
	<rect x="782.25" y="126.83" class="st0" width="46.44" height="95.77"/>
	<rect x="831.75" y="126.83" class="st0" width="46.44" height="95.77"/>
	<rect x="881.26" y="126.83" class="st0" width="46.44" height="95.77"/>
	<rect x="931.47" y="126.83" class="st1" width="46.44" height="95.77"/>
	<rect x="980.98" y="126.83" class="st1" width="46.44" height="95.77"/>
	<rect x="1030.49" y="126.83" class="st1" width="46.44" height="95.77"/>
	<rect x="1079.99" y="126.83" class="st1" width="46.44" height="95.77"/>
	<rect x="1129.5" y="126.83" class="st1" width="46.44" height="95.77"/>
	<rect x="237.12" y="126.83" class="st2" width="46.44" height="95.77"/>
	<rect x="286.63" y="126.83" class="st2" width="46.44" height="95.77"/>
	<rect x="336.13" y="126.83" class="st2" width="46.44" height="95.77"/>
	<rect x="385.64" y="126.83" class="st2" width="46.44" height="95.77"/>
	<rect x="435.14" y="126.83" class="st2" width="46.44" height="95.77"/>
	<rect x="484.65" y="126.83" class="st2" width="46.44" height="95.77"/>
	<rect x="534.16" y="126.83" class="st2" width="46.44" height="95.77"/>
	<g>
		<path class="st3" d="M593.18,213.75c-1.01-0.64-1.81-1.56-2.38-2.77c-0.57-1.21-0.86-2.66-0.86-4.33c0-1.68,0.29-3.12,0.86-4.33
			c0.57-1.21,1.36-2.14,2.38-2.77c1.01-0.64,2.17-0.96,3.45-0.96c1.29,0,2.44,0.32,3.45,0.96s1.81,1.56,2.38,2.77
			c0.57,1.21,0.86,2.66,0.86,4.33c0,1.68-0.29,3.12-0.86,4.33c-0.57,1.21-1.36,2.14-2.38,2.77c-1.01,0.64-2.17,0.96-3.45,0.96
			C595.35,214.7,594.19,214.4,593.18,213.75z M598.88,210.42c0.54-0.82,0.82-2.08,0.82-3.79c0-1.71-0.28-2.97-0.82-3.79
			c-0.54-0.82-1.29-1.23-2.24-1.23c-0.93,0-1.68,0.41-2.22,1.23c-0.54,0.82-0.82,2.08-0.82,3.79c0,1.71,0.28,2.97,0.82,3.79
			c0.54,0.82,1.29,1.23,2.22,1.23C597.59,211.65,598.33,211.25,598.88,210.42z"/>
		<path class="st3" d="M617.55,207.76c0.4,0.63,0.62,1.35,0.62,2.17c0,0.97-0.28,1.81-0.83,2.53c-0.55,0.72-1.33,1.29-2.32,1.68
			c-1,0.39-2.15,0.59-3.45,0.59c-1.31,0-2.45-0.2-3.45-0.59c-0.99-0.39-1.75-0.96-2.29-1.68c-0.54-0.72-0.82-1.56-0.82-2.53
			c0-0.82,0.2-1.54,0.62-2.17s0.99-1.13,1.75-1.52c-0.58-0.36-1.03-0.81-1.34-1.35c-0.31-0.54-0.47-1.17-0.47-1.86
			c0-0.9,0.25-1.7,0.75-2.37c0.51-0.67,1.21-1.19,2.12-1.55c0.9-0.36,1.94-0.54,3.12-0.54c1.19,0,2.24,0.18,3.16,0.54
			s1.63,0.88,2.12,1.55c0.51,0.67,0.75,1.46,0.75,2.37c0,0.7-0.16,1.32-0.47,1.86c-0.31,0.54-0.76,0.99-1.36,1.35
			C616.55,206.62,617.14,207.13,617.55,207.76z M613.72,211.44c0.53-0.4,0.8-0.96,0.8-1.64c0-0.68-0.27-1.23-0.8-1.63
			c-0.53-0.39-1.24-0.61-2.16-0.61c-0.89,0-1.59,0.2-2.12,0.61c-0.53,0.4-0.79,0.95-0.79,1.63c0,0.7,0.27,1.25,0.79,1.65
			c0.52,0.4,1.23,0.61,2.12,0.61C612.46,212.06,613.19,211.86,613.72,211.44z M609.81,201.74c-0.44,0.35-0.66,0.83-0.66,1.43
			c0,0.59,0.21,1.06,0.65,1.4c0.44,0.34,1.02,0.51,1.76,0.51c0.74,0,1.34-0.17,1.78-0.51c0.45-0.34,0.67-0.81,0.67-1.4
			c0-0.61-0.22-1.09-0.67-1.43c-0.45-0.35-1.04-0.52-1.78-0.52C610.83,201.21,610.24,201.39,609.81,201.74z"/>
	</g>
	<g>
		<path class="st3" d="M644.02,213.75c-1.01-0.64-1.81-1.56-2.38-2.77c-0.57-1.21-0.86-2.66-0.86-4.33c0-1.68,0.29-3.12,0.86-4.33
			c0.57-1.21,1.36-2.14,2.38-2.77c1.01-0.64,2.17-0.96,3.45-0.96s2.44,0.32,3.45,0.96s1.81,1.56,2.38,2.77
			c0.57,1.21,0.86,2.66,0.86,4.33c0,1.68-0.29,3.12-0.86,4.33c-0.57,1.21-1.36,2.14-2.38,2.77c-1.01,0.64-2.17,0.96-3.45,0.96
			S645.03,214.4,644.02,213.75z M649.72,210.42c0.54-0.82,0.82-2.08,0.82-3.79c0-1.71-0.28-2.97-0.82-3.79
			c-0.54-0.82-1.29-1.23-2.24-1.23c-0.93,0-1.68,0.41-2.22,1.23c-0.54,0.82-0.82,2.08-0.82,3.79c0,1.71,0.28,2.97,0.82,3.79
			c0.54,0.82,1.29,1.23,2.22,1.23C648.43,211.65,649.18,211.25,649.72,210.42z"/>
		<path class="st3" d="M666.55,200.55c1.23,1.33,1.85,3.25,1.85,5.75c0,1.77-0.33,3.28-0.99,4.55c-0.66,1.26-1.59,2.22-2.79,2.88
			c-1.2,0.66-2.59,0.98-4.18,0.98c-0.83,0-1.63-0.1-2.39-0.28c-0.75-0.18-1.4-0.45-1.94-0.8l1.34-2.66
			c0.75,0.52,1.73,0.79,2.92,0.79c1.33,0,2.37-0.39,3.14-1.17c0.78-0.79,1.19-1.91,1.25-3.38c-0.93,0.93-2.23,1.4-3.88,1.4
			c-1,0-1.9-0.2-2.72-0.61c-0.82-0.4-1.47-0.97-1.94-1.71c-0.48-0.73-0.71-1.58-0.71-2.55c0-1.04,0.27-1.95,0.79-2.74
			c0.52-0.79,1.23-1.39,2.12-1.82c0.9-0.42,1.9-0.64,3.01-0.64C663.61,198.55,665.32,199.22,666.55,200.55z M663.62,205.26
			c0.5-0.44,0.74-1,0.74-1.68c0-0.68-0.24-1.24-0.72-1.68c-0.48-0.44-1.15-0.65-2-0.65c-0.78,0-1.4,0.21-1.88,0.63
			c-0.49,0.41-0.72,0.98-0.72,1.7c0,0.71,0.24,1.29,0.72,1.71c0.48,0.42,1.13,0.64,1.93,0.64
			C662.48,205.92,663.12,205.7,663.62,205.26z"/>
	</g>
	<g>
		<path class="st3" d="M701.08,198.83v15.62h-3.61v-12.72h-3.12v-2.9H701.08z"/>
		<path class="st3" d="M707.04,213.75c-1.01-0.64-1.81-1.56-2.38-2.77c-0.57-1.21-0.86-2.66-0.86-4.33c0-1.68,0.29-3.12,0.86-4.33
			c0.57-1.21,1.36-2.14,2.38-2.77c1.01-0.64,2.17-0.96,3.45-0.96c1.29,0,2.44,0.32,3.45,0.96s1.81,1.56,2.38,2.77
			c0.57,1.21,0.86,2.66,0.86,4.33c0,1.68-0.29,3.12-0.86,4.33c-0.57,1.21-1.36,2.14-2.38,2.77c-1.01,0.64-2.17,0.96-3.45,0.96
			C709.21,214.7,708.05,214.4,707.04,213.75z M712.75,210.42c0.54-0.82,0.82-2.08,0.82-3.79c0-1.71-0.28-2.97-0.82-3.79
			c-0.54-0.82-1.29-1.23-2.24-1.23c-0.93,0-1.68,0.41-2.22,1.23c-0.54,0.82-0.82,2.08-0.82,3.79c0,1.71,0.28,2.97,0.82,3.79
			c0.54,0.82,1.29,1.23,2.22,1.23C711.45,211.65,712.21,211.25,712.75,210.42z"/>
	</g>
	<g>
		<path class="st3" d="M754.58,198.83v15.62h-3.61v-12.72h-3.12v-2.9H754.58z"/>
		<path class="st3" d="M763.32,198.83v15.62h-3.61v-12.72h-3.12v-2.9H763.32z"/>
	</g>
	<g>
		<path class="st3" d="M802.65,198.83v15.62h-3.61v-12.72h-3.12v-2.9H802.65z"/>
		<path class="st3" d="M817.05,211.49v2.94h-11.8v-2.35l6.02-5.68c0.64-0.61,1.07-1.14,1.3-1.57c0.22-0.44,0.34-0.87,0.34-1.31
			c0-0.63-0.21-1.1-0.64-1.43c-0.42-0.34-1.04-0.5-1.86-0.5c-0.68,0-1.31,0.13-1.85,0.39c-0.54,0.27-1.01,0.65-1.38,1.17l-2.63-1.7
			c0.61-0.9,1.44-1.61,2.52-2.14c1.07-0.51,2.29-0.76,3.69-0.76c1.16,0,2.18,0.19,3.05,0.57c0.87,0.38,1.55,0.91,2.03,1.6
			s0.72,1.51,0.72,2.44c0,0.85-0.18,1.65-0.53,2.39c-0.36,0.74-1.05,1.59-2.07,2.54l-3.59,3.39L817.05,211.49L817.05,211.49z"/>
	</g>
	<g>
		<path class="st3" d="M852.93,198.83v15.62h-3.61v-12.72h-3.12v-2.9H852.93z"/>
		<path class="st3" d="M866.09,206.71c0.73,0.8,1.09,1.78,1.09,2.95c0,0.9-0.23,1.74-0.71,2.51c-0.48,0.76-1.2,1.38-2.18,1.84
			s-2.17,0.69-3.58,0.69c-1.1,0-2.18-0.15-3.25-0.44c-1.06-0.29-1.97-0.7-2.71-1.24l1.4-2.76c0.59,0.45,1.29,0.8,2.06,1.04
			c0.79,0.24,1.58,0.37,2.4,0.37c0.9,0,1.63-0.18,2.15-0.52c0.52-0.34,0.79-0.84,0.79-1.49c0-1.27-0.98-1.92-2.92-1.92h-1.65v-2.39
			l3.21-3.63h-6.65v-2.9h10.93v2.35l-3.53,4.02C864.31,205.41,865.36,205.92,866.09,206.71z"/>
	</g>
	<g>
		<path class="st3" d="M900.01,198.83v15.62h-3.61v-12.72h-3.12v-2.9H900.01z"/>
		<path class="st3" d="M917.03,211.17h-2.54v3.28h-3.53v-3.28h-8.41v-2.43l7.36-9.9h3.79l-6.83,9.39h4.2v-2.92h3.41v2.92h2.54v2.94
			H917.03z"/>
	</g>
	<g>
		<path class="st4" d="M951.34,199.06v15.62h-3.61v-12.72h-3.12v-2.9H951.34z"/>
		<path class="st4" d="M964.3,206.25c1.05,0.88,1.57,2.05,1.57,3.53c0,0.96-0.23,1.82-0.71,2.6c-0.48,0.79-1.2,1.4-2.18,1.87
			c-0.98,0.47-2.18,0.7-3.6,0.7c-1.1,0-2.18-0.15-3.25-0.44c-1.06-0.29-1.97-0.7-2.71-1.24l1.42-2.76c0.59,0.45,1.27,0.8,2.05,1.04
			c0.78,0.24,1.57,0.37,2.39,0.37c0.9,0,1.63-0.18,2.15-0.53c0.52-0.35,0.79-0.85,0.79-1.5c0-0.67-0.28-1.18-0.82-1.52
			c-0.54-0.34-1.49-0.51-2.83-0.51h-3.99l0.81-8.79h9.53v2.9h-6.51l-0.24,2.96h1.27C961.63,204.93,963.25,205.36,964.3,206.25z"/>
	</g>
	<g>
		<g>
			<path class="st4" d="M1001.16,199.06v15.62h-3.61v-12.72h-3.12v-2.9H1001.16z"/>
			<path class="st4" d="M1014.12,205.48c0.82,0.4,1.47,0.97,1.94,1.71c0.48,0.73,0.71,1.59,0.71,2.56c0,1.04-0.27,1.95-0.79,2.74
				c-0.52,0.79-1.23,1.39-2.12,1.82c-0.9,0.42-1.9,0.64-3.01,0.64c-2.19,0-3.9-0.67-5.13-2.01c-1.23-1.34-1.85-3.25-1.85-5.74
				c0-1.77,0.33-3.28,1-4.55c0.67-1.26,1.6-2.22,2.8-2.88s2.58-0.98,4.16-0.98c0.83,0,1.64,0.1,2.4,0.28
				c0.76,0.18,1.41,0.45,1.95,0.8l-1.34,2.66c-0.78-0.52-1.75-0.78-2.92-0.78c-1.33,0-2.37,0.38-3.14,1.16
				c-0.78,0.78-1.19,1.9-1.25,3.37c0.92-0.92,2.21-1.38,3.86-1.38C1012.4,204.89,1013.31,205.09,1014.12,205.48z M1012.55,211.62
				c0.49-0.41,0.72-0.98,0.72-1.7s-0.24-1.29-0.72-1.71c-0.49-0.42-1.13-0.64-1.93-0.64c-0.79,0-1.43,0.22-1.94,0.66
				c-0.51,0.44-0.75,1-0.75,1.69c0,0.68,0.24,1.24,0.73,1.67c0.49,0.44,1.16,0.65,2.01,0.65
				C1011.45,212.25,1012.07,212.04,1012.55,211.62z"/>
		</g>
	</g>
	<g>
		<g>
			<path class="st4" d="M1051.65,199.06v15.62h-3.61v-12.72h-3.12v-2.9H1051.65z"/>
			<path class="st4" d="M1066.6,199.06v2.35l-5.8,13.28h-3.93l5.6-12.68h-5.17v2.54h-3.21v-5.49H1066.6z"/>
		</g>
	</g>
	<g>
		<g>
			<path class="st4" d="M1099.36,199.06v15.62h-3.61v-12.72h-3.12v-2.9H1099.36z"/>
			<path class="st4" d="M1114.55,207.99c0.4,0.63,0.62,1.35,0.62,2.17c0,0.97-0.28,1.81-0.83,2.53c-0.55,0.72-1.33,1.29-2.32,1.68
				c-1,0.39-2.15,0.59-3.45,0.59s-2.45-0.2-3.45-0.59c-0.99-0.39-1.75-0.96-2.29-1.68c-0.54-0.72-0.82-1.56-0.82-2.53
				c0-0.82,0.2-1.54,0.62-2.17c0.41-0.63,0.99-1.13,1.75-1.52c-0.58-0.36-1.03-0.81-1.34-1.35c-0.31-0.54-0.47-1.17-0.47-1.86
				c0-0.9,0.25-1.7,0.75-2.37c0.51-0.67,1.21-1.19,2.12-1.55c0.9-0.36,1.94-0.54,3.12-0.54c1.19,0,2.24,0.18,3.16,0.54
				c0.91,0.36,1.63,0.88,2.12,1.55c0.51,0.67,0.75,1.46,0.75,2.37c0,0.7-0.16,1.32-0.47,1.86c-0.31,0.54-0.76,0.99-1.36,1.35
				C1113.55,206.85,1114.13,207.36,1114.55,207.99z M1110.71,211.68c0.53-0.4,0.8-0.96,0.8-1.64c0-0.68-0.27-1.23-0.8-1.63
				c-0.53-0.39-1.24-0.61-2.16-0.61c-0.89,0-1.59,0.2-2.12,0.61c-0.53,0.4-0.79,0.95-0.79,1.63c0,0.7,0.27,1.25,0.79,1.65
				c0.52,0.4,1.23,0.61,2.12,0.61C1109.46,212.29,1110.18,212.09,1110.71,211.68z M1106.8,201.98c-0.44,0.35-0.66,0.83-0.66,1.43
				c0,0.59,0.21,1.06,0.65,1.4c0.44,0.34,1.02,0.51,1.76,0.51s1.34-0.17,1.79-0.51c0.45-0.34,0.67-0.81,0.67-1.4
				c0-0.61-0.22-1.09-0.67-1.43c-0.45-0.35-1.04-0.52-1.79-0.52C1107.82,201.44,1107.24,201.62,1106.8,201.98z"/>
		</g>
	</g>
	<g>
		<g>
			<path class="st4" d="M1149.91,199.06v15.62h-3.61v-12.72h-3.12v-2.9H1149.91z"/>
			<path class="st4" d="M1163.25,200.79c1.23,1.33,1.85,3.25,1.85,5.75c0,1.77-0.33,3.28-0.99,4.55c-0.66,1.26-1.59,2.22-2.79,2.88
				c-1.2,0.66-2.59,0.98-4.18,0.98c-0.83,0-1.63-0.1-2.39-0.28c-0.75-0.18-1.4-0.45-1.94-0.8l1.34-2.66
				c0.75,0.52,1.73,0.79,2.92,0.79c1.33,0,2.37-0.39,3.14-1.17c0.78-0.79,1.19-1.91,1.25-3.38c-0.93,0.93-2.23,1.4-3.88,1.4
				c-1,0-1.9-0.2-2.72-0.61c-0.82-0.4-1.47-0.97-1.94-1.71c-0.48-0.73-0.71-1.58-0.71-2.55c0-1.04,0.27-1.95,0.79-2.74
				c0.52-0.79,1.23-1.39,2.12-1.82c0.9-0.42,1.9-0.64,3.01-0.64C1160.31,198.79,1162.02,199.46,1163.25,200.79z M1160.32,205.49
				c0.5-0.44,0.74-1,0.74-1.68c0-0.68-0.24-1.24-0.72-1.68c-0.48-0.44-1.15-0.65-2-0.65c-0.78,0-1.4,0.21-1.88,0.63
				c-0.49,0.41-0.72,0.98-0.72,1.7c0,0.71,0.24,1.29,0.72,1.71s1.13,0.64,1.93,0.64C1159.17,206.15,1159.82,205.94,1160.32,205.49z"
				/>
		</g>
	</g>
	<g>
		<path class="st4" d="M544.14,213.32c-1.01-0.64-1.81-1.56-2.38-2.77c-0.57-1.21-0.86-2.66-0.86-4.33s0.29-3.12,0.86-4.33
			c0.57-1.21,1.36-2.14,2.38-2.77c1.01-0.64,2.17-0.96,3.45-0.96s2.44,0.32,3.45,0.96s1.81,1.56,2.38,2.77
			c0.57,1.21,0.86,2.66,0.86,4.33s-0.29,3.12-0.86,4.33c-0.57,1.21-1.36,2.14-2.38,2.77c-1.01,0.64-2.17,0.96-3.45,0.96
			S545.15,213.97,544.14,213.32z M549.83,210c0.54-0.82,0.82-2.08,0.82-3.79c0-1.71-0.28-2.97-0.82-3.79
			c-0.54-0.82-1.29-1.23-2.24-1.23c-0.93,0-1.68,0.41-2.22,1.23c-0.54,0.82-0.82,2.08-0.82,3.79c0,1.71,0.28,2.97,0.82,3.79
			c0.54,0.82,1.29,1.23,2.22,1.23C548.55,211.23,549.29,210.83,549.83,210z"/>
		<path class="st4" d="M568.19,198.39v2.35l-5.8,13.28h-3.93l5.6-12.68h-5.17v2.54h-3.21v-5.49L568.19,198.39L568.19,198.39z"/>
	</g>
	<g>
		<g>
			<path class="st4" d="M296.85,213.32c-1.01-0.64-1.81-1.56-2.38-2.77c-0.57-1.21-0.86-2.66-0.86-4.33s0.29-3.12,0.86-4.33
				s1.36-2.14,2.38-2.77c1.02-0.64,2.17-0.96,3.46-0.96c1.3,0,2.44,0.32,3.45,0.96c1.01,0.64,1.81,1.56,2.38,2.77
				c0.57,1.21,0.86,2.66,0.86,4.33s-0.29,3.12-0.86,4.33c-0.57,1.21-1.36,2.14-2.38,2.77c-1.01,0.64-2.17,0.96-3.45,0.96
				C299.02,214.29,297.86,213.97,296.85,213.32z M302.56,210c0.54-0.82,0.82-2.08,0.82-3.79c0-1.71-0.28-2.97-0.82-3.79
				c-0.54-0.82-1.29-1.23-2.24-1.23c-0.93,0-1.68,0.41-2.22,1.23c-0.54,0.82-0.82,2.08-0.82,3.79c0,1.71,0.27,2.97,0.82,3.79
				c0.54,0.82,1.29,1.23,2.22,1.23C301.26,211.23,302.01,210.83,302.56,210z"/>
			<path class="st4" d="M320.3,211.07v2.94h-11.8v-2.35l6.02-5.68c0.64-0.61,1.07-1.14,1.3-1.57s0.33-0.87,0.33-1.31
				c0-0.63-0.21-1.1-0.64-1.43c-0.42-0.34-1.04-0.5-1.86-0.5c-0.68,0-1.31,0.13-1.85,0.39c-0.54,0.27-1.01,0.65-1.38,1.17l-2.63-1.7
				c0.61-0.9,1.46-1.61,2.52-2.14c1.06-0.52,2.29-0.76,3.68-0.76c1.16,0,2.18,0.19,3.05,0.57c0.87,0.38,1.55,0.91,2.03,1.6
				c0.48,0.69,0.72,1.51,0.72,2.44c0,0.85-0.18,1.65-0.53,2.39c-0.36,0.74-1.05,1.59-2.07,2.54l-3.59,3.39L320.3,211.07
				L320.3,211.07z"/>
		</g>
	</g>
	<g>
		<g>
			<path class="st4" d="M346.41,212.43c-1.01-0.64-1.81-1.56-2.38-2.77c-0.57-1.21-0.86-2.66-0.86-4.33s0.29-3.12,0.86-4.33
				s1.36-2.14,2.38-2.77c1.02-0.64,2.17-0.96,3.46-0.96s2.44,0.32,3.45,0.96c1.01,0.64,1.81,1.56,2.38,2.77
				c0.57,1.21,0.86,2.66,0.86,4.33s-0.29,3.12-0.86,4.33s-1.36,2.14-2.38,2.77c-1.01,0.64-2.17,0.96-3.45,0.96
				C348.56,213.4,347.41,213.08,346.41,212.43z M352.1,209.1c0.54-0.82,0.82-2.08,0.82-3.79c0-1.71-0.28-2.97-0.82-3.79
				c-0.54-0.82-1.29-1.23-2.24-1.23c-0.93,0-1.68,0.41-2.22,1.23c-0.54,0.82-0.82,2.08-0.82,3.79c0,1.71,0.27,2.97,0.82,3.79
				c0.54,0.82,1.29,1.23,2.22,1.23C350.81,210.34,351.56,209.93,352.1,209.1z"/>
			<path class="st4" d="M368.54,205.4c0.73,0.8,1.09,1.78,1.09,2.95c0,0.9-0.23,1.74-0.71,2.51c-0.48,0.76-1.2,1.38-2.18,1.84
				s-2.17,0.69-3.58,0.69c-1.1,0-2.18-0.15-3.25-0.44c-1.06-0.29-1.97-0.7-2.71-1.24l1.4-2.76c0.59,0.45,1.29,0.8,2.06,1.04
				c0.78,0.24,1.58,0.37,2.4,0.37c0.9,0,1.63-0.18,2.15-0.52c0.52-0.35,0.78-0.84,0.78-1.49c0-1.27-0.98-1.92-2.92-1.92h-1.65v-2.39
				l3.21-3.63h-6.65v-2.9h10.93v2.35l-3.53,4.02C366.76,204.09,367.8,204.6,368.54,205.4z"/>
		</g>
	</g>
	<g>
		<g>
			<path class="st4" d="M394.74,213.32c-1.01-0.64-1.81-1.56-2.38-2.77c-0.57-1.21-0.86-2.66-0.86-4.33s0.29-3.12,0.86-4.33
				s1.36-2.14,2.38-2.77c1.02-0.64,2.17-0.96,3.46-0.96c1.3,0,2.44,0.32,3.45,0.96c1.01,0.64,1.81,1.56,2.38,2.77
				c0.57,1.21,0.86,2.66,0.86,4.33s-0.29,3.12-0.86,4.33s-1.36,2.14-2.38,2.77c-1.01,0.64-2.17,0.96-3.45,0.96
				C396.9,214.29,395.75,213.97,394.74,213.32z M400.44,210c0.54-0.82,0.82-2.08,0.82-3.79c0-1.71-0.28-2.97-0.82-3.79
				c-0.54-0.82-1.29-1.23-2.24-1.23c-0.93,0-1.68,0.41-2.22,1.23c-0.54,0.82-0.82,2.08-0.82,3.79c0,1.71,0.27,2.97,0.82,3.79
				c0.54,0.82,1.29,1.23,2.22,1.23C399.15,211.23,399.9,210.83,400.44,210z"/>
			<path class="st4" d="M420.96,210.74h-2.54v3.28h-3.53v-3.28h-8.41v-2.43l7.36-9.9h3.79l-6.83,9.39h4.2v-2.92h3.41v2.92h2.54v2.94
				H420.96z"/>
		</g>
	</g>
	<g>
		<g>
			<path class="st4" d="M445.32,213.32c-1.01-0.64-1.81-1.56-2.38-2.77c-0.57-1.21-0.86-2.66-0.86-4.33s0.29-3.12,0.86-4.33
				s1.36-2.14,2.38-2.77c1.02-0.64,2.17-0.96,3.46-0.96c1.3,0,2.44,0.32,3.45,0.96c1.01,0.64,1.81,1.56,2.38,2.77
				c0.57,1.21,0.86,2.66,0.86,4.33s-0.29,3.12-0.86,4.33c-0.57,1.21-1.36,2.14-2.38,2.77c-1.01,0.64-2.17,0.96-3.45,0.96
				C447.48,214.29,446.33,213.97,445.32,213.32z M451.01,210c0.54-0.82,0.82-2.08,0.82-3.79c0-1.71-0.28-2.97-0.82-3.79
				c-0.54-0.82-1.29-1.23-2.24-1.23c-0.93,0-1.68,0.41-2.22,1.23c-0.54,0.82-0.82,2.08-0.82,3.79c0,1.71,0.27,2.97,0.82,3.79
				c0.54,0.82,1.29,1.23,2.22,1.23C449.73,211.23,450.47,210.83,451.01,210z"/>
			<path class="st4" d="M467.46,205.59c1.05,0.88,1.57,2.05,1.57,3.53c0,0.96-0.23,1.82-0.71,2.6c-0.48,0.79-1.2,1.4-2.18,1.87
				s-2.18,0.7-3.6,0.7c-1.1,0-2.18-0.15-3.25-0.44c-1.06-0.29-1.97-0.7-2.71-1.24l1.42-2.76c0.59,0.45,1.27,0.8,2.05,1.04
				c0.78,0.24,1.57,0.37,2.39,0.37c0.9,0,1.63-0.18,2.15-0.53c0.52-0.36,0.78-0.85,0.78-1.5c0-0.67-0.28-1.18-0.82-1.52
				c-0.54-0.34-1.49-0.51-2.83-0.51h-3.99l0.81-8.79h9.53v2.9h-6.51l-0.24,2.96h1.27C464.78,204.27,466.41,204.71,467.46,205.59z"/>
		</g>
	</g>
	<g>
		<path class="st4" d="M494.37,213.32c-1.01-0.64-1.81-1.56-2.38-2.77c-0.57-1.21-0.86-2.66-0.86-4.33s0.29-3.12,0.86-4.33
			s1.36-2.14,2.38-2.77s2.17-0.96,3.46-0.96c1.3,0,2.44,0.32,3.45,0.96c1.01,0.64,1.81,1.56,2.38,2.77
			c0.57,1.21,0.86,2.66,0.86,4.33s-0.29,3.12-0.86,4.33s-1.36,2.14-2.38,2.77c-1.01,0.64-2.17,0.96-3.45,0.96
			C496.54,214.29,495.38,213.97,494.37,213.32z M500.08,210c0.54-0.82,0.82-2.08,0.82-3.79c0-1.71-0.28-2.97-0.82-3.79
			c-0.54-0.82-1.29-1.23-2.24-1.23c-0.93,0-1.68,0.41-2.22,1.23c-0.54,0.82-0.82,2.08-0.82,3.79c0,1.71,0.27,2.97,0.82,3.79
			c0.54,0.82,1.29,1.23,2.22,1.23C498.78,211.23,499.54,210.83,500.08,210z"/>
		<path class="st4" d="M516.53,204.82c0.82,0.4,1.47,0.97,1.94,1.71c0.48,0.73,0.71,1.59,0.71,2.56c0,1.04-0.27,1.95-0.78,2.74
			c-0.52,0.79-1.23,1.39-2.14,1.82c-0.9,0.42-1.9,0.64-3,0.64c-2.19,0-3.9-0.67-5.13-2.01c-1.23-1.34-1.85-3.25-1.85-5.74
			c0-1.77,0.33-3.28,1.01-4.55c0.67-1.26,1.6-2.22,2.8-2.88c1.2-0.66,2.58-0.98,4.16-0.98c0.83,0,1.64,0.1,2.4,0.28
			c0.77,0.18,1.41,0.45,1.95,0.8l-1.34,2.66c-0.78-0.52-1.75-0.78-2.92-0.78c-1.33,0-2.37,0.38-3.14,1.16
			c-0.78,0.78-1.19,1.9-1.25,3.37c0.92-0.92,2.21-1.38,3.86-1.38C514.8,204.23,515.71,204.42,516.53,204.82z M514.95,210.96
			c0.48-0.41,0.72-0.98,0.72-1.7s-0.24-1.29-0.72-1.71c-0.49-0.42-1.13-0.64-1.93-0.64c-0.79,0-1.43,0.22-1.94,0.66
			c-0.51,0.44-0.75,1-0.75,1.69c0,0.68,0.24,1.24,0.73,1.67c0.49,0.44,1.16,0.65,2.01,0.65
			C513.85,211.59,514.47,211.38,514.95,210.96z"/>
	</g>
	<g>
		<g>
			<path class="st4" d="M249.53,213.32c-1.01-0.64-1.81-1.56-2.38-2.77c-0.57-1.21-0.86-2.66-0.86-4.33s0.29-3.12,0.86-4.33
				c0.57-1.21,1.36-2.14,2.38-2.77c1.02-0.64,2.17-0.96,3.46-0.96s2.44,0.32,3.45,0.96c1.01,0.64,1.81,1.56,2.38,2.77
				s0.86,2.66,0.86,4.33s-0.29,3.12-0.86,4.33c-0.57,1.21-1.36,2.14-2.38,2.77c-1.01,0.64-2.17,0.96-3.45,0.96
				C251.7,214.29,250.54,213.97,249.53,213.32z M255.24,210c0.54-0.82,0.82-2.08,0.82-3.79c0-1.71-0.28-2.97-0.82-3.79
				c-0.54-0.82-1.29-1.23-2.24-1.23c-0.93,0-1.68,0.41-2.22,1.23c-0.54,0.82-0.82,2.08-0.82,3.79c0,1.71,0.27,2.97,0.82,3.79
				c0.54,0.82,1.29,1.23,2.22,1.23C253.94,211.23,254.69,210.83,255.24,210z"/>
			<path class="st4" d="M267.34,198.39v15.62h-3.61V201.3h-3.12v-2.9H267.34z"/>
		</g>
	</g>
	<g class="st5">
		<path class="st2" d="M59.91,70.18h3.81v13.48h-3.81C59.91,83.66,59.91,70.18,59.91,70.18z"/>
		<path class="st2" d="M79.27,70.18v13.48h-3.13l-5.95-7.18v7.18h-3.74V70.18h3.13l5.95,7.18v-7.18H79.27z"/>
		<path class="st2" d="M81.97,70.18h3.81v13.48h-3.81V70.18z M84.56,66.15h3.65l-3.62,2.93h-2.62L84.56,66.15z"/>
		<path class="st2" d="M91.42,83.03c-1.13-0.59-2.01-1.42-2.65-2.5c-0.64-1.06-0.97-2.27-0.97-3.62c0-1.35,0.32-2.55,0.97-3.62
			c0.64-1.06,1.53-1.9,2.65-2.5c1.13-0.59,2.39-0.89,3.8-0.89c1.23,0,2.35,0.22,3.34,0.66s1.81,1.06,2.46,1.89l-2.42,2.2
			c-0.87-1.05-1.93-1.58-3.18-1.58c-0.73,0-1.38,0.16-1.95,0.48c-0.57,0.32-1.01,0.78-1.33,1.36c-0.32,0.58-0.47,1.25-0.47,2.01
			s0.16,1.42,0.47,2.01c0.32,0.58,0.75,1.04,1.33,1.36c0.57,0.32,1.22,0.48,1.95,0.48c1.24,0,2.31-0.53,3.18-1.58l2.42,2.2
			c-0.66,0.82-1.48,1.46-2.46,1.89c-0.99,0.44-2.1,0.66-3.34,0.66C93.81,83.93,92.54,83.63,91.42,83.03z"/>
		<path class="st2" d="M102.71,70.18h3.81v13.48h-3.81V70.18z"/>
		<path class="st2" d="M112.2,83.02c-1.14-0.61-2.03-1.43-2.68-2.51c-0.65-1.06-0.98-2.26-0.98-3.6s0.33-2.54,0.98-3.6
			c0.65-1.06,1.54-1.9,2.68-2.51c1.14-0.61,2.41-0.9,3.85-0.9s2.71,0.3,3.85,0.9c1.14,0.61,2.03,1.43,2.68,2.51
			c0.65,1.06,0.98,2.26,0.98,3.6s-0.33,2.54-0.98,3.6c-0.65,1.06-1.54,1.9-2.68,2.51c-1.14,0.61-2.41,0.9-3.85,0.9
			S113.34,83.63,112.2,83.02z M117.88,80.29c0.55-0.32,0.99-0.78,1.31-1.36s0.48-1.25,0.48-2.01s-0.16-1.42-0.48-2.01
			c-0.32-0.58-0.75-1.04-1.31-1.36c-0.55-0.32-1.17-0.48-1.85-0.48s-1.3,0.16-1.85,0.48c-0.55,0.32-0.99,0.78-1.31,1.36
			c-0.32,0.58-0.48,1.25-0.48,2.01s0.16,1.42,0.48,2.01s0.75,1.04,1.31,1.36s1.17,0.48,1.85,0.48S117.33,80.61,117.88,80.29z"/>
		<path class="st2" d="M131.13,70.18h6.37c1.48,0,2.78,0.28,3.93,0.83c1.15,0.55,2.03,1.34,2.66,2.35c0.63,1.01,0.95,2.2,0.95,3.56
			c0,1.36-0.32,2.55-0.95,3.56c-0.63,1.02-1.52,1.8-2.66,2.35c-1.15,0.55-2.45,0.83-3.93,0.83h-6.37V70.18z M137.36,80.61
			c1.16,0,2.08-0.33,2.78-0.98c0.7-0.66,1.05-1.56,1.05-2.72c0-1.16-0.35-2.06-1.05-2.72c-0.7-0.66-1.63-0.98-2.78-0.98h-2.41v7.39
			C134.95,80.61,137.36,80.61,137.36,80.61z"/>
		<path class="st2" d="M150,83.02c-1.14-0.61-2.03-1.43-2.68-2.51c-0.65-1.06-0.98-2.26-0.98-3.6s0.33-2.54,0.98-3.6
			c0.65-1.06,1.54-1.9,2.68-2.51c1.14-0.61,2.41-0.9,3.85-0.9c1.43,0,2.71,0.3,3.85,0.9c1.14,0.61,2.03,1.43,2.68,2.51
			c0.65,1.06,0.98,2.26,0.98,3.6s-0.33,2.54-0.98,3.6c-0.65,1.06-1.54,1.9-2.68,2.51c-1.14,0.61-2.41,0.9-3.85,0.9
			C152.41,83.93,151.14,83.63,150,83.02z M155.7,80.29c0.55-0.32,0.99-0.78,1.31-1.36s0.48-1.25,0.48-2.01s-0.16-1.42-0.48-2.01
			s-0.75-1.04-1.31-1.36c-0.55-0.32-1.17-0.48-1.85-0.48c-0.68,0-1.3,0.16-1.85,0.48s-0.99,0.78-1.31,1.36
			c-0.32,0.58-0.48,1.25-0.48,2.01s0.16,1.42,0.48,2.01s0.75,1.04,1.31,1.36s1.17,0.48,1.85,0.48
			C154.53,80.77,155.14,80.61,155.7,80.29z"/>
		<path class="st2" d="M164.9,83.52c-1.03-0.27-1.86-0.63-2.51-1.07l1.25-2.82c0.61,0.39,1.31,0.72,2.1,0.97
			c0.8,0.24,1.58,0.36,2.35,0.36c1.47,0,2.2-0.36,2.2-1.09c0-0.38-0.21-0.67-0.63-0.86c-0.41-0.18-1.08-0.38-2.01-0.58
			c-1.01-0.22-1.86-0.46-2.54-0.7c-0.68-0.25-1.26-0.65-1.75-1.2c-0.49-0.55-0.73-1.3-0.73-2.23c0-0.82,0.22-1.56,0.67-2.22
			s1.12-1.19,2.01-1.57c0.89-0.38,1.99-0.57,3.28-0.57c0.88,0,1.76,0.1,2.62,0.3c0.86,0.2,1.61,0.49,2.27,0.87l-1.18,2.84
			c-1.29-0.69-2.53-1.04-3.74-1.04c-0.75,0-1.31,0.12-1.66,0.34c-0.35,0.22-0.52,0.52-0.52,0.88s0.2,0.63,0.62,0.81
			s1.07,0.36,1.99,0.56c1.03,0.22,1.88,0.46,2.55,0.7c0.67,0.25,1.25,0.65,1.75,1.19c0.49,0.54,0.74,1.29,0.74,2.22
			c0,0.81-0.22,1.54-0.67,2.2s-1.13,1.18-2.02,1.57c-0.9,0.39-1.99,0.58-3.27,0.58C166.98,83.93,165.93,83.8,164.9,83.52z"/>
		<path class="st2" d="M65.01,106.63c-1.03-0.27-1.86-0.63-2.51-1.07l1.25-2.82c0.61,0.39,1.31,0.72,2.1,0.97
			c0.8,0.24,1.58,0.36,2.35,0.36c1.47,0,2.2-0.36,2.2-1.09c0-0.38-0.21-0.67-0.63-0.86c-0.41-0.18-1.08-0.38-2.01-0.58
			c-1.01-0.22-1.86-0.46-2.54-0.7c-0.68-0.25-1.26-0.65-1.75-1.2s-0.73-1.3-0.73-2.23c0-0.82,0.22-1.56,0.67-2.22
			c0.45-0.66,1.12-1.19,2.01-1.57s1.99-0.57,3.28-0.57c0.88,0,1.76,0.1,2.62,0.3c0.86,0.2,1.61,0.49,2.27,0.87l-1.18,2.84
			C71.15,96.35,69.9,96,68.69,96c-0.75,0-1.31,0.12-1.66,0.34c-0.35,0.22-0.52,0.52-0.52,0.88c0,0.36,0.2,0.63,0.62,0.81
			c0.41,0.18,1.07,0.36,1.99,0.56c1.03,0.22,1.88,0.46,2.55,0.7c0.67,0.25,1.25,0.65,1.75,1.19c0.49,0.54,0.74,1.29,0.74,2.22
			c0,0.81-0.22,1.54-0.67,2.2s-1.13,1.18-2.02,1.57c-0.9,0.39-1.99,0.58-3.27,0.58C67.1,107.03,66.03,106.91,65.01,106.63z"/>
		<path class="st2" d="M75.92,93.29h3.81v13.48h-3.81V93.29z"/>
		<path class="st2" d="M95.26,93.29v13.48h-3.13l-5.95-7.18v7.18h-3.74V93.29h3.13l5.95,7.18v-7.18H95.26z"/>
		<path class="st2" d="M100.83,96.31h-4.14v-3.03h12.08v3.03h-4.12v10.45h-3.81C100.83,106.77,100.83,96.31,100.83,96.31z"/>
		<path class="st2" d="M112.95,106.13c-1.14-0.61-2.03-1.43-2.68-2.51c-0.65-1.06-0.98-2.26-0.98-3.6s0.33-2.54,0.98-3.6
			c0.65-1.06,1.54-1.9,2.68-2.51c1.14-0.61,2.41-0.9,3.85-0.9s2.71,0.3,3.85,0.9c1.14,0.61,2.03,1.43,2.68,2.51
			c0.65,1.06,0.98,2.26,0.98,3.6s-0.33,2.54-0.98,3.6c-0.65,1.06-1.54,1.9-2.68,2.51c-1.14,0.61-2.41,0.9-3.85,0.9
			S114.09,106.74,112.95,106.13z M118.65,103.4c0.55-0.32,0.99-0.78,1.31-1.36c0.32-0.58,0.48-1.25,0.48-2.01
			c0-0.75-0.16-1.42-0.48-2.01c-0.32-0.58-0.75-1.04-1.31-1.36c-0.55-0.32-1.17-0.48-1.85-0.48s-1.3,0.16-1.85,0.48
			c-0.55,0.32-0.99,0.78-1.31,1.36c-0.32,0.58-0.48,1.25-0.48,2.01c0,0.75,0.16,1.42,0.48,2.01c0.32,0.58,0.75,1.04,1.31,1.36
			c0.55,0.32,1.17,0.48,1.85,0.48S118.09,103.72,118.65,103.4z"/>
		<path class="st2" d="M138.46,106.77l-0.04-7.14l-3.46,5.81h-1.7l-3.44-5.62v6.95h-3.53V93.29h3.13l4.74,7.78l4.62-7.78h3.13
			l0.04,13.48H138.46z"/>
		<path class="st2" d="M153.7,104.16h-5.71l-1.06,2.61h-3.89l5.95-13.48h3.75l5.97,13.48h-3.96L153.7,104.16z M152.58,101.34
			l-1.73-4.31l-1.73,4.31H152.58z"/>
		<path class="st2" d="M161.36,106.63c-1.03-0.27-1.86-0.63-2.51-1.07l1.25-2.82c0.61,0.39,1.31,0.72,2.1,0.97
			c0.8,0.24,1.58,0.36,2.35,0.36c1.47,0,2.2-0.36,2.2-1.09c0-0.38-0.21-0.67-0.63-0.86c-0.41-0.18-1.08-0.38-2.01-0.58
			c-1.01-0.22-1.86-0.46-2.54-0.7c-0.68-0.25-1.26-0.65-1.75-1.2s-0.73-1.3-0.73-2.23c0-0.82,0.22-1.56,0.67-2.22
			c0.45-0.66,1.12-1.19,2.01-1.57s1.99-0.57,3.28-0.57c0.88,0,1.76,0.1,2.62,0.3c0.86,0.2,1.61,0.49,2.27,0.87l-1.18,2.84
			c-1.29-0.69-2.53-1.04-3.74-1.04c-0.75,0-1.31,0.12-1.66,0.34c-0.35,0.22-0.52,0.52-0.52,0.88c0,0.36,0.2,0.63,0.62,0.81
			c0.41,0.18,1.07,0.36,1.99,0.56c1.03,0.22,1.88,0.46,2.55,0.7c0.67,0.25,1.25,0.65,1.75,1.19c0.49,0.54,0.74,1.29,0.74,2.22
			c0,0.81-0.22,1.54-0.67,2.2s-1.13,1.18-2.02,1.57c-0.9,0.39-1.99,0.58-3.27,0.58C163.45,107.03,162.39,106.91,161.36,106.63z"/>
	</g>
	<g>
		
			<rect x="39.64" y="158.85" transform="matrix(0.1122 -0.9937 0.9937 0.1122 -142.9488 200.3989)" class="st2" width="2.07" height="42.69"/>
		<path class="st3" d="M21.08,174.93c1.26,1.56,1,3.86-0.58,5.12c-1.56,1.26-3.86,1-5.12-0.58c-1.26-1.56-1-3.86,0.58-5.12
			C17.52,173.1,19.82,173.35,21.08,174.93z"/>
		<path class="st3" d="M66.15,180.56c1.26,1.56,1,3.86-0.58,5.12c-1.56,1.26-3.86,1-5.12-0.58c-1.26-1.56-1-3.86,0.58-5.12
			C62.6,178.73,64.9,178.99,66.15,180.56z"/>
		
			<rect x="27.41" y="160.78" transform="matrix(0.782 -0.6233 0.6233 0.782 -97.4185 54.3114)" class="st2" width="3.04" height="11.26"/>
		<path class="st3" d="M27.73,158.26c1.42,1.8,1.13,4.39-0.66,5.83c-1.8,1.42-4.39,1.13-5.83-0.66c-1.42-1.8-1.13-4.39,0.66-5.83
			C23.7,156.17,26.3,156.46,27.73,158.26z"/>
		
			<rect x="49.46" y="168.16" transform="matrix(0.782 -0.6233 0.6233 0.782 -93.7609 71.1012)" class="st2" width="10.59" height="2.85"/>
		<path class="st3" d="M62.07,163.7c1.12,1.39,0.89,3.42-0.52,4.54c-1.39,1.12-3.42,0.89-4.54-0.52c-1.12-1.39-0.89-3.42,0.52-4.54
			C58.94,162.08,60.96,162.3,62.07,163.7z"/>
		
			<rect x="18.5" y="191.21" transform="matrix(0.782 -0.6233 0.6233 0.782 -114.7977 57.8696)" class="st2" width="13.65" height="3.67"/>
		<path class="st3" d="M22.73,195.06c1.43,1.8,1.13,4.41-0.66,5.83c-1.8,1.43-4.41,1.13-5.83-0.66c-1.43-1.8-1.13-4.41,0.66-5.83
			C18.69,192.98,21.28,193.27,22.73,195.06z"/>
		
			<rect x="50.06" y="188.95" transform="matrix(0.782 -0.6233 0.6233 0.782 -110.2433 74.7057)" class="st2" width="3.23" height="11.98"/>
		<path class="st3" d="M60.3,198.68c1.52,1.9,1.21,4.69-0.69,6.2s-4.69,1.21-6.2-0.69s-1.21-4.69,0.69-6.2
			C55.99,196.45,58.78,196.76,60.3,198.68z"/>
		
			<rect x="19.36" y="179.26" transform="matrix(0.1121 -0.9937 0.9937 0.1121 -143.0149 200.5331)" class="st2" width="42.69" height="2.07"/>
		<path class="st3" d="M45.89,155.15c1.26,1.56,1,3.86-0.58,5.12c-1.56,1.26-3.86,1-5.12-0.58c-1.26-1.56-1-3.86,0.58-5.12
			C42.35,153.32,44.63,153.57,45.89,155.15z"/>
		<path class="st3" d="M40.83,201.83c1.26,1.56,1,3.86-0.58,5.12c-1.56,1.26-3.86,1-5.12-0.58c-1.26-1.56-1-3.86,0.58-5.12
			C37.27,200,39.57,200.26,40.83,201.83z"/>
		<path class="st2" d="M52.2,171.63c5.15,6.46,4.09,15.86-2.37,20.99c-1.9,1.52-4.07,2.51-6.3,2.95
			c-5.33,1.09-11.06-0.78-14.69-5.33c-5.15-6.46-4.09-15.86,2.37-20.99C37.65,164.12,47.05,165.18,52.2,171.63z"/>
		<path class="st4" d="M47.1,173.48c1.71,2.15,1.36,5.27-0.79,6.98c-2.15,1.71-5.27,1.36-6.98-0.79c-1.71-2.15-1.36-5.27,0.79-6.98
			C42.27,170.98,45.39,171.33,47.1,173.48z"/>
		<path class="st4" d="M41.24,185.61c1.12,1.4,0.89,3.45-0.52,4.57c-1.4,1.12-3.45,0.89-4.57-0.52c-1.12-1.4-0.89-3.45,0.52-4.57
			C38.07,183.98,40.12,184.21,41.24,185.61z"/>
		<path class="st4" d="M34.19,179.03c0.99,1.24,0.79,3.05-0.46,4.06c-1.24,0.99-3.05,0.79-4.06-0.46c-0.99-1.24-0.79-3.05,0.46-4.06
			C31.4,177.58,33.2,177.78,34.19,179.03z"/>
		<path class="st0" d="M47.32,167.64c0,0,13.78,14.73-4.29,28.05c0,0,1.53-0.28,2.51-0.66c0,0,0.93-0.32,1.95-0.86
			c0,0,1.97-1.03,3.58-2.63c0,0,3.07-2.73,4.04-7.29c0,0,1.4-5.47-1.24-10.06C53.85,174.18,52.2,170.27,47.32,167.64z"/>
	</g>
	<g>
		<g>
			<g>
				<g>
					<path class="st3" d="M142.71,201.41H91.63c-1.54,0-2.79-1.25-2.79-2.79l0,0c0-1.54,1.25-2.79,2.79-2.79h51.09
						c1.54,0,2.79,1.25,2.79,2.79l0,0C145.51,200.17,144.25,201.41,142.71,201.41z"/>
					<rect x="91.59" y="201.41" class="st2" width="51.16" height="4.18"/>
					<path class="st3" d="M163.75,221.32H70.6l0,0c0-8.69,7.04-15.73,15.73-15.73h61.69C156.7,205.6,163.75,212.63,163.75,221.32
						L163.75,221.32z"/>
					<path class="st2" d="M97.44,195.83c0,0,16.61,6.18,35.33,0H97.44z"/>
				</g>
				<g>
					<g>
						<g>
							<circle class="st6" cx="91.57" cy="155.68" r="5.21"/>
							<circle class="st6" cx="142.81" cy="155.68" r="5.21"/>
							<circle class="st7" cx="143.01" cy="155.66" r="1.47"/>
							<path class="st7" d="M92.49,155.66c0,0.81-0.66,1.47-1.47,1.47c-0.81,0-1.47-0.66-1.47-1.47s0.66-1.47,1.47-1.47
								C91.83,154.2,92.49,154.84,92.49,155.66z"/>
						</g>
						<path class="st8" d="M142.81,195.83H91.65v-45.98c0-14.13,11.45-25.58,25.58-25.58l0,0c14.13,0,25.58,11.45,25.58,25.58v45.98
							H142.81z"/>
						<g>
							<path class="st9" d="M123.75,178.45c0-3.6-2.92-6.52-6.52-6.52c-3.6,0-6.52,2.92-6.52,6.52H123.75z"/>
							<path class="st6" d="M117,170.05L117,170.05c-1.73,0-3.16-1.42-3.16-3.16v-4.76c0-1.73,1.42-3.16,3.16-3.16l0,0
								c1.73,0,3.16,1.42,3.16,3.16v4.76C120.16,168.64,118.74,170.05,117,170.05z"/>
						</g>
						<g>
							<path class="st10" d="M103.42,150.85l-2.85,2.85c-0.21,0.21-0.56,0.21-0.78,0l0,0c-0.21-0.21-0.21-0.56,0-0.79l2.85-2.85
								c0.21-0.21,0.56-0.21,0.78,0l0,0C103.63,150.29,103.63,150.64,103.42,150.85z"/>
							<path class="st10" d="M133.81,153.71l-2.85-2.85c-0.21-0.21-0.21-0.56,0-0.79l0,0c0.21-0.21,0.56-0.21,0.79,0l2.85,2.85
								c0.21,0.21,0.21,0.56,0,0.79l0,0C134.37,153.92,134.02,153.92,133.81,153.71z"/>
						</g>
						<g>
							<ellipse class="st11" cx="130.71" cy="161.76" rx="5.72" ry="1.65"/>
							<ellipse class="st11" cx="103.17" cy="161.76" rx="5.72" ry="1.65"/>
						</g>
						<g>
							<g>
								<g>
									<path class="st10" d="M106.08,157.14c0,1.01-0.82,1.83-1.83,1.83s-1.83-0.82-1.83-1.83s0.82-1.83,1.83-1.83
										C105.25,155.31,106.08,156.14,106.08,157.14z"/>
									<path class="st4" d="M104.24,156.2c0,0.18-0.3,0.32-0.66,0.32c-0.36,0-0.66-0.14-0.66-0.32c0-0.18,0.3-0.32,0.66-0.32
										C103.94,155.88,104.24,156.02,104.24,156.2z"/>
								</g>
								<polygon class="st8" points="102.06,157.14 105.72,155.16 102.06,154.58 								"/>
							</g>
							<g>
								<g>
									<path class="st10" d="M132.04,157.14c0,1.01-0.82,1.83-1.83,1.83s-1.83-0.82-1.83-1.83s0.82-1.83,1.83-1.83
										C131.22,155.31,132.04,156.14,132.04,157.14z"/>
									<path class="st4" d="M130.21,156.2c0,0.18-0.3,0.32-0.66,0.32c-0.36,0-0.66-0.14-0.66-0.32c0-0.18,0.3-0.32,0.66-0.32
										C129.91,155.88,130.21,156.02,130.21,156.2z"/>
								</g>
								<polygon class="st8" points="129.09,155.46 132.36,157.66 131.91,154.58 								"/>
							</g>
						</g>
						<path class="st10" d="M143.08,150.85c1.81-6.47,0.68-13.67-3-19.29c-3.68-5.61-9.84-9.53-16.48-10.45
							c-2.19-0.31-4.41-0.31-6.62-0.29c-3.44,0.03-6.9,0.1-10.34,0.19c0.41-0.74,0.69-1.57,0.8-2.41c-2.27,0.88-4.39,2.17-6.22,3.77
							c0.16-0.79,0.32-1.57,0.48-2.37c-2.89,1.74-5.86,3.55-7.92,6.24c-1.92,2.51-2.91,5.61-3.33,8.73
							c-0.41,3.12-0.28,6.29-0.14,9.45c0.1,2.07,0.18,4.15,0.28,6.23c0.58-0.18,0.98,0.68,1.01,1.29c0.08,1.67-0.03,3.35-0.33,4.99
							c0.76,0.25,1.58,0.36,2.38,0.27c-0.72-7.1,2.51-13.95,5.81-20.28c2.16,2.05,5.27,3.05,8.21,2.61
							c-0.16-1.24-0.32-2.48-0.49-3.72c5.52,4.37,12.55,6.8,19.59,6.78c-0.07-0.93-0.16-1.86-0.23-2.8
							c2.21,1.59,4.74,2.72,7.38,3.33c1.92,0.44,4.05,0.66,5.46,2.03c1.51,1.47,1.03,3.8,1.16,5.91c0.11,1.88,0.22,3.75,0.32,5.63
							c0.41,0,1.51-0.01,1.92-0.01C142.86,154.65,142.54,152.79,143.08,150.85z"/>
						<g>
							<path class="st12" d="M97.44,168.23c0,0,12.66-7.87,38.99,0l-1.68,13.63l-17.52,4.55l-17.59-4.24L97.44,168.23z"/>
							<g>
								<path class="st4" d="M98.68,170.25c-0.07,0-0.16-0.05-0.19-0.13l-8.11-19.92c-0.04-0.11,0.01-0.22,0.12-0.27
									c0.11-0.04,0.22,0.01,0.25,0.12l8.11,19.92c0.04,0.11-0.01,0.22-0.12,0.25C98.74,170.24,98.72,170.25,98.68,170.25z"/>
							</g>
							<g>
								<path class="st4" d="M135.29,170.25c-0.03,0-0.05-0.01-0.07-0.01c-0.11-0.04-0.16-0.16-0.12-0.25l7.89-19.56
									c0.04-0.11,0.16-0.16,0.26-0.12c0.11,0.04,0.16,0.16,0.12,0.27l-7.89,19.56C135.44,170.2,135.36,170.25,135.29,170.25z"/>
							</g>
							<g>
								<path class="st13" d="M122.85,172.69c-2.46,0-4.87-0.68-6.2-1.14c-0.21-0.07-0.42-0.15-0.64-0.22
									c-3.71-1.29-7.54-2.61-10.75,0.3l-0.28-0.3c3.39-3.07,7.51-1.65,11.16-0.38c0.21,0.07,0.42,0.15,0.64,0.22
									c7.36,2.53,10.72,0.18,11.83-0.95l0.29,0.28C127.26,172.16,125.03,172.69,122.85,172.69z"/>
							</g>
							<g>
								<path class="st13" d="M122.85,178.57c-2.46,0-4.87-0.68-6.2-1.14c-0.21-0.07-0.42-0.15-0.64-0.22
									c-3.71-1.29-7.54-2.61-10.75,0.3l-0.28-0.3c3.39-3.07,7.51-1.65,11.16-0.38c0.21,0.07,0.42,0.15,0.64,0.22
									c7.36,2.53,10.72,0.18,11.83-0.95l0.29,0.28C127.26,178.04,125.03,178.57,122.85,178.57z"/>
							</g>
						</g>
					</g>
					<g>
						<path class="st14" d="M101.21,143.92c0,0.86-0.7,1.56-1.56,1.56c-0.86,0-1.56-0.7-1.56-1.56s1.56-4.05,1.56-4.05
							S101.21,143.06,101.21,143.92z"/>
						<path class="st14" d="M104.36,146.1c0,0.42-0.35,0.79-0.78,0.79c-0.42,0-0.79-0.35-0.79-0.79s0.79-2.02,0.79-2.02
							S104.36,145.68,104.36,146.1z"/>
					</g>
				</g>
			</g>
			<g class="st15">
				<g>
					<polygon class="st3" points="139.24,172.93 146.97,169.84 149.52,172.93 163.12,168.49 148.65,175.89 145.48,172.52 					"/>
					<polygon class="st3" points="140.65,178.88 145.51,179.02 146.15,181.26 154.45,182.02 145.01,182.64 144.09,180.11 					"/>
					<polygon class="st3" points="95.83,177.36 87.66,175.75 85.71,179.27 71.54,177.42 87.11,182.01 89.61,178.12 					"/>
					<polygon class="st3" points="93.4,172.46 89.73,169.6 87.88,170.87 81.26,166.39 87.89,172.6 90.11,171.28 					"/>
					<g>
						<g>
							<path class="st3" d="M156.34,187.53l-0.18-0.26c2.84-2.04,3.57-6.49,1.55-9.34l0.25-0.18
								C160.08,180.74,159.31,185.39,156.34,187.53z"/>
						</g>
						<g>
							<path class="st3" d="M155.42,184.93l-0.18-0.25c1.68-1.21,2.11-3.85,0.92-5.55l0.25-0.18
								C157.7,180.78,157.24,183.63,155.42,184.93z"/>
						</g>
					</g>
					<g>
						<g>
							<path class="st3" d="M81.79,170.37l0.12,0.16c-1.74,1.26-2.2,4.01-0.96,5.76l-0.16,0.12
								C79.5,174.55,79.96,171.67,81.79,170.37z"/>
						</g>
						<g>
							<path class="st3" d="M82.36,171.96l0.12,0.16c-1.03,0.74-1.31,2.38-0.57,3.42l-0.16,0.12
								C80.95,174.53,81.24,172.77,82.36,171.96z"/>
						</g>
					</g>
				</g>
			</g>
		</g>
	</g>
	<g>
		
			<rect x="190.96" y="119.44" transform="matrix(0.1122 -0.9937 0.9937 0.1122 33.7386 312.6383)" class="st2" width="1.74" height="36"/>
		<path class="st3" d="M175.31,132.99c1.06,1.32,0.84,3.25-0.49,4.31c-1.32,1.06-3.25,0.84-4.31-0.49
			c-1.06-1.32-0.84-3.25,0.49-4.31C172.31,131.45,174.25,131.66,175.31,132.99z"/>
		<path class="st3" d="M213.31,137.74c1.06,1.32,0.84,3.25-0.49,4.31c-1.32,1.06-3.25,0.84-4.31-0.49
			c-1.06-1.32-0.84-3.25,0.49-4.31C210.32,136.2,212.25,136.42,213.31,137.74z"/>
		
			<rect x="180.64" y="121.06" transform="matrix(0.782 -0.6233 0.6233 0.782 -38.7519 140.8169)" class="st2" width="2.56" height="9.49"/>
		<path class="st3" d="M180.92,118.93c1.2,1.51,0.96,3.71-0.56,4.92c-1.51,1.2-3.71,0.96-4.92-0.56c-1.2-1.51-0.96-3.71,0.56-4.92
			C177.52,117.17,179.71,117.43,180.92,118.93z"/>
		
			<rect x="199.24" y="127.28" transform="matrix(0.782 -0.6233 0.6233 0.782 -35.6734 154.9803)" class="st2" width="8.94" height="2.4"/>
		<path class="st3" d="M209.87,123.52c0.93,1.17,0.74,2.89-0.44,3.82c-1.17,0.93-2.89,0.74-3.82-0.44
			c-0.93-1.17-0.74-2.89,0.44-3.82C207.22,122.16,208.93,122.36,209.87,123.52z"/>
		
			<rect x="173.14" y="146.71" transform="matrix(0.782 -0.6233 0.6233 0.782 -53.4084 143.8272)" class="st2" width="11.51" height="3.09"/>
		<path class="st3" d="M176.7,149.97c1.21,1.51,0.96,3.72-0.56,4.92c-1.51,1.21-3.72,0.96-4.92-0.56c-1.21-1.51-0.96-3.72,0.56-4.92
			S175.49,148.46,176.7,149.97z"/>
		
			<rect x="199.75" y="144.82" transform="matrix(0.782 -0.6233 0.6233 0.782 -49.5676 158.0203)" class="st2" width="2.72" height="10.1"/>
		<path class="st3" d="M208.37,153.02c1.27,1.6,1.02,3.95-0.58,5.23c-1.6,1.27-3.95,1.02-5.23-0.58c-1.27-1.6-1.02-3.95,0.58-5.23
			C204.75,151.14,207.1,151.39,208.37,153.02z"/>
		
			<rect x="173.86" y="136.64" transform="matrix(0.1121 -0.9937 0.9937 0.1121 33.7057 312.7441)" class="st2" width="36" height="1.74"/>
		<path class="st3" d="M196.23,116.32c1.06,1.32,0.84,3.25-0.49,4.31c-1.32,1.06-3.25,0.84-4.31-0.49
			c-1.06-1.32-0.84-3.25,0.49-4.31C193.24,114.77,195.17,114.98,196.23,116.32z"/>
		<path class="st3" d="M191.97,155.67c1.06,1.32,0.84,3.25-0.49,4.31c-1.32,1.06-3.25,0.84-4.31-0.49
			c-1.06-1.32-0.84-3.25,0.49-4.31C188.97,154.13,190.9,154.36,191.97,155.67z"/>
		<path class="st2" d="M201.55,130.21c4.35,5.45,3.44,13.38-2,17.7c-1.6,1.27-3.43,2.11-5.31,2.5c-4.49,0.92-9.33-0.66-12.39-4.49
			c-4.35-5.45-3.44-13.38,2-17.7C189.28,123.87,197.21,124.78,201.55,130.21z"/>
		<path class="st4" d="M197.25,131.77c1.44,1.81,1.15,4.44-0.67,5.89c-1.81,1.44-4.44,1.15-5.89-0.67
			c-1.44-1.81-1.15-4.44,0.67-5.89C193.18,129.66,195.8,129.96,197.25,131.77z"/>
		<path class="st4" d="M192.31,142c0.93,1.19,0.74,2.91-0.44,3.86c-1.19,0.93-2.91,0.74-3.86-0.44c-0.93-1.19-0.74-2.91,0.44-3.86
			C189.63,140.63,191.36,140.82,192.31,142z"/>
		<path class="st4" d="M186.37,136.44c0.83,1.05,0.67,2.57-0.38,3.42c-1.05,0.83-2.57,0.67-3.42-0.38
			c-0.83-1.05-0.67-2.57,0.38-3.42C184.01,135.23,185.54,135.39,186.37,136.44z"/>
		<path class="st0" d="M197.44,126.84c0,0,11.61,12.42-3.62,23.65c0,0,1.3-0.23,2.11-0.56c0,0,0.79-0.28,1.65-0.72
			c0,0,1.66-0.87,3.03-2.22c0,0,2.59-2.31,3.4-6.14c0,0,1.19-4.62-1.05-8.49C202.94,132.36,201.55,129.06,197.44,126.84z"/>
	</g>
	<g>
		
			<rect x="207.26" y="217.99" transform="matrix(0.1122 -0.9937 0.9937 0.1122 -45.4204 412.0955)" class="st2" width="1.31" height="26.95"/>
		<path class="st3" d="M195.54,228.13c0.8,0.99,0.64,2.43-0.37,3.23c-0.99,0.8-2.43,0.64-3.23-0.37c-0.8-0.99-0.64-2.43,0.37-3.23
			C193.3,226.97,194.74,227.14,195.54,228.13z"/>
		<path class="st3" d="M224,231.69c0.8,0.99,0.64,2.43-0.37,3.23c-0.99,0.8-2.43,0.64-3.23-0.37c-0.8-0.99-0.64-2.43,0.37-3.23
			C221.76,230.53,223.2,230.7,224,231.69z"/>
		
			<rect x="199.53" y="219.2" transform="matrix(0.782 -0.6233 0.6233 0.782 -95.1332 173.5276)" class="st2" width="1.91" height="7.11"/>
		<path class="st3" d="M199.74,217.6c0.89,1.14,0.71,2.77-0.41,3.68c-1.14,0.89-2.77,0.71-3.68-0.41c-0.89-1.14-0.71-2.77,0.41-3.68
			C197.19,216.29,198.83,216.48,199.74,217.6z"/>
		
			<rect x="213.46" y="223.86" transform="matrix(0.782 -0.6233 0.6233 0.782 -92.8226 184.1365)" class="st2" width="6.69" height="1.8"/>
		<path class="st3" d="M221.42,221.05c0.7,0.88,0.56,2.16-0.33,2.87c-0.88,0.7-2.16,0.56-2.87-0.33c-0.7-0.88-0.56-2.16,0.33-2.87
			C219.44,220.03,220.72,220.16,221.42,221.05z"/>
		
			<rect x="193.92" y="238.42" transform="matrix(0.782 -0.6233 0.6233 0.782 -106.1108 175.7841)" class="st2" width="8.62" height="2.32"/>
		<path class="st3" d="M196.58,240.85c0.9,1.14,0.71,2.78-0.41,3.68c-1.14,0.9-2.78,0.71-3.68-0.41c-0.9-1.14-0.71-2.78,0.41-3.68
			C194.03,239.53,195.68,239.71,196.58,240.85z"/>
		
			<rect x="213.84" y="237" transform="matrix(0.782 -0.6233 0.6233 0.782 -103.2343 186.4122)" class="st2" width="2.04" height="7.56"/>
		<path class="st3" d="M220.3,243.13c0.96,1.2,0.76,2.95-0.44,3.92c-1.2,0.96-2.95,0.76-3.92-0.44c-0.96-1.2-0.76-2.95,0.44-3.92
			C217.58,241.72,219.35,241.91,220.3,243.13z"/>
		
			<rect x="194.46" y="230.87" transform="matrix(0.1121 -0.9937 0.9937 0.1121 -45.4387 412.1979)" class="st2" width="26.95" height="1.31"/>
		<path class="st3" d="M211.21,215.65c0.8,0.99,0.64,2.43-0.37,3.23c-0.99,0.8-2.43,0.64-3.23-0.37c-0.8-0.99-0.64-2.43,0.37-3.23
			C208.97,214.49,210.41,214.65,211.21,215.65z"/>
		<path class="st3" d="M208.01,245.12c0.8,0.99,0.64,2.43-0.37,3.23c-0.99,0.8-2.43,0.64-3.23-0.37c-0.8-0.99-0.64-2.43,0.37-3.23
			C205.77,243.96,207.21,244.13,208.01,245.12z"/>
		<path class="st2" d="M215.19,226.05c3.25,4.08,2.58,10.02-1.5,13.26c-1.2,0.96-2.57,1.58-3.97,1.87
			c-3.37,0.69-6.98-0.49-9.28-3.37c-3.25-4.08-2.58-10.02,1.5-13.26C206,221.31,211.94,221.98,215.19,226.05z"/>
		<path class="st4" d="M211.97,227.22c1.08,1.36,0.86,3.33-0.5,4.41c-1.36,1.08-3.33,0.86-4.41-0.5c-1.08-1.36-0.86-3.33,0.5-4.41
			C208.92,225.65,210.89,225.87,211.97,227.22z"/>
		<path class="st4" d="M208.27,234.88c0.7,0.89,0.56,2.18-0.33,2.89c-0.89,0.7-2.18,0.56-2.89-0.33c-0.7-0.89-0.56-2.18,0.33-2.89
			C206.27,233.85,207.56,234,208.27,234.88z"/>
		<path class="st4" d="M203.82,230.73c0.63,0.79,0.5,1.92-0.29,2.56c-0.79,0.63-1.92,0.5-2.56-0.29c-0.63-0.79-0.5-1.92,0.29-2.56
			C202.06,229.81,203.2,229.94,203.82,230.73z"/>
		<path class="st0" d="M212.11,223.53c0,0,8.7,9.3-2.71,17.71c0,0,0.97-0.17,1.58-0.41c0,0,0.59-0.2,1.23-0.54
			c0,0,1.24-0.65,2.26-1.66c0,0,1.93-1.72,2.55-4.6c0,0,0.89-3.45-0.79-6.35C216.23,227.67,215.19,225.19,212.11,223.53z"/>
	</g>
	<polyline class="st16" points="238.84,116.46 238.84,79.57 581.27,79.57 581.27,117.62 	"/>
	<rect x="301.03" y="70.11" class="st4" width="218.05" height="21.43"/>
	<g class="st5">
		<path class="st3" d="M319.17,53.17c0.71,0.32,1.25,0.78,1.65,1.37c0.39,0.59,0.57,1.3,0.57,2.09s-0.19,1.5-0.57,2.08
			c-0.38,0.58-0.93,1.04-1.65,1.36c-0.71,0.32-1.55,0.48-2.51,0.48h-1.86v2.78h-3.02V52.69h4.87
			C317.62,52.69,318.46,52.85,319.17,53.17z M317.88,57.78c0.32-0.27,0.47-0.65,0.47-1.15c0-0.5-0.16-0.88-0.47-1.16
			c-0.32-0.28-0.79-0.41-1.4-0.41h-1.68v3.12h1.68C317.09,58.18,317.56,58.04,317.88,57.78z"/>
		<path class="st3" d="M325.35,62.84c-0.9-0.48-1.6-1.14-2.11-1.98c-0.51-0.84-0.76-1.8-0.76-2.85c0-1.05,0.25-2.01,0.76-2.85
			c0.51-0.84,1.22-1.5,2.11-1.98c0.89-0.48,1.91-0.71,3.04-0.71s2.14,0.23,3.04,0.71c0.9,0.48,1.6,1.14,2.11,1.98
			c0.51,0.84,0.76,1.8,0.76,2.85c0,1.05-0.25,2.01-0.76,2.85c-0.51,0.84-1.22,1.5-2.11,1.98c-0.9,0.48-1.91,0.71-3.04,0.71
			S326.24,63.31,325.35,62.84z M329.84,60.68c0.44-0.25,0.78-0.62,1.03-1.07s0.38-0.99,0.38-1.59c0-0.61-0.13-1.13-0.38-1.59
			c-0.25-0.46-0.59-0.82-1.03-1.07s-0.92-0.38-1.47-0.38c-0.54,0-1.02,0.13-1.47,0.38c-0.44,0.25-0.79,0.62-1.03,1.07
			c-0.25,0.46-0.38,0.99-0.38,1.59c0,0.61,0.13,1.13,0.38,1.59c0.25,0.46,0.59,0.82,1.03,1.07c0.44,0.25,0.92,0.38,1.47,0.38
			C328.92,61.06,329.41,60.93,329.84,60.68z"/>
		<path class="st3" d="M338,55.08h-3.27v-2.39h9.54v2.39h-3.26v8.27h-3.02v-8.27H338z"/>
		<path class="st3" d="M353.95,61.01v2.33h-8.55V52.69h8.35v2.33h-5.38v1.8h4.74v2.25h-4.74v1.94H353.95z"/>
		<path class="st3" d="M365.76,52.69v10.66h-2.48l-4.71-5.67v5.67h-2.95V52.69h2.48l4.71,5.67v-5.67
			C362.81,52.69,365.76,52.69,365.76,52.69z"/>
		<path class="st3" d="M370.19,62.85c-0.89-0.47-1.58-1.13-2.09-1.98c-0.51-0.85-0.76-1.8-0.76-2.86c0-1.06,0.25-2.02,0.76-2.86
			c0.51-0.84,1.2-1.5,2.09-1.97c0.89-0.47,1.89-0.71,3.01-0.71c0.98,0,1.85,0.17,2.63,0.52c0.79,0.35,1.43,0.84,1.94,1.49
			l-1.91,1.73c-0.69-0.83-1.53-1.24-2.51-1.24c-0.57,0-1.09,0.13-1.54,0.38c-0.45,0.25-0.8,0.62-1.05,1.07
			c-0.24,0.46-0.37,0.99-0.37,1.59c0,0.61,0.13,1.13,0.37,1.59c0.24,0.46,0.59,0.82,1.05,1.07c0.45,0.25,0.97,0.38,1.54,0.38
			c0.99,0,1.82-0.41,2.51-1.24l1.91,1.73c-0.52,0.65-1.17,1.15-1.94,1.49c-0.78,0.34-1.66,0.52-2.63,0.52
			C372.08,63.56,371.09,63.31,370.19,62.85z"/>
		<path class="st3" d="M379.12,52.69h3.02v10.66h-3.02V52.69z"/>
		<path class="st3" d="M391.42,61.27h-4.5l-0.84,2.07h-3.07l4.71-10.66h2.96l4.72,10.66h-3.13L391.42,61.27z M390.54,59.05
			l-1.37-3.41l-1.37,3.41H390.54z"/>
		<path class="st3" d="M396.24,52.69h3.02v8.27h5.08v2.39h-8.1V52.69z"/>
		<path class="st3" d="M409.96,52.69H415c1.17,0,2.2,0.22,3.1,0.66c0.9,0.44,1.6,1.05,2.1,1.86c0.5,0.8,0.74,1.74,0.74,2.82
			c0,1.07-0.24,2.02-0.74,2.82c-0.5,0.8-1.2,1.42-2.1,1.86c-0.9,0.44-1.93,0.66-3.1,0.66h-5.04V52.69z M414.87,60.93
			c0.91,0,1.65-0.25,2.2-0.78c0.55-0.52,0.83-1.23,0.83-2.15c0-0.91-0.28-1.63-0.83-2.15s-1.29-0.78-2.2-0.78h-1.9v5.84H414.87z"/>
		<path class="st3" d="M431.08,61.01v2.33h-8.55V52.69h8.35v2.33h-5.38v1.8h4.74v2.25h-4.74v1.94H431.08z"/>
		<path class="st3" d="M446.81,63.34l-0.03-5.64l-2.74,4.6h-1.34l-2.72-4.44v5.49h-2.78V52.69h2.48l3.74,6.15l3.65-6.15h2.48
			l0.03,10.65H446.81z"/>
		<path class="st3" d="M458.84,61.27h-4.5l-0.84,2.07h-3.07l4.71-10.66h2.96l4.72,10.66h-3.13L458.84,61.27z M457.96,59.05
			l-1.37-3.41l-1.37,3.41H457.96z"/>
		<path class="st3" d="M463.67,52.69h3.02v10.66h-3.02V52.69z"/>
		<path class="st3" d="M471.16,62.84c-0.9-0.48-1.6-1.14-2.11-1.98c-0.51-0.84-0.76-1.8-0.76-2.85c0-1.05,0.25-2.01,0.76-2.85
			c0.51-0.84,1.22-1.5,2.11-1.98c0.89-0.48,1.91-0.71,3.04-0.71s2.14,0.23,3.04,0.71c0.9,0.48,1.6,1.14,2.11,1.98
			c0.51,0.84,0.76,1.8,0.76,2.85c0,1.05-0.25,2.01-0.76,2.85c-0.51,0.84-1.22,1.5-2.11,1.98c-0.9,0.48-1.91,0.71-3.04,0.71
			S472.06,63.31,471.16,62.84z M475.66,60.68c0.44-0.25,0.78-0.62,1.03-1.07c0.26-0.46,0.38-0.99,0.38-1.59
			c0-0.61-0.13-1.13-0.38-1.59c-0.25-0.46-0.59-0.82-1.03-1.07s-0.92-0.38-1.47-0.38c-0.54,0-1.02,0.13-1.47,0.38
			c-0.44,0.25-0.79,0.62-1.03,1.07c-0.25,0.46-0.38,0.99-0.38,1.59c0,0.61,0.13,1.13,0.38,1.59c0.25,0.46,0.59,0.82,1.03,1.07
			c0.44,0.25,0.92,0.38,1.47,0.38C474.74,61.06,475.23,60.93,475.66,60.68z"/>
		<path class="st3" d="M486.36,60.51h-1.65v2.83h-3.02V52.69h4.87c0.97,0,1.8,0.16,2.51,0.48c0.71,0.32,1.25,0.78,1.65,1.37
			s0.57,1.3,0.57,2.09c0,0.78-0.18,1.44-0.54,2.02c-0.36,0.57-0.87,1.02-1.54,1.35l2.29,3.35h-3.23L486.36,60.51z M487.79,55.47
			c-0.32-0.28-0.79-0.41-1.4-0.41h-1.68v3.12h1.68c0.62,0,1.08-0.14,1.4-0.4c0.32-0.27,0.47-0.65,0.47-1.15
			C488.26,56.13,488.1,55.75,487.79,55.47z"/>
		<path class="st3" d="M353.66,70.95l-4.57,10.66h-2.96l-4.55-10.66h3.26l2.89,6.94l2.95-6.94H353.66z"/>
		<path class="st3" d="M354.29,70.95h3.02v10.66h-3.02V70.95z"/>
		<path class="st3" d="M364.11,78.77h-1.65v2.83h-3.02V70.95h4.87c0.97,0,1.8,0.16,2.51,0.48c0.71,0.32,1.25,0.78,1.65,1.37
			c0.39,0.59,0.57,1.3,0.57,2.09c0,0.78-0.18,1.44-0.54,2.02c-0.36,0.57-0.87,1.02-1.54,1.35l2.29,3.35h-3.23L364.11,78.77z
			 M365.54,73.74c-0.32-0.28-0.79-0.41-1.4-0.41h-1.68v3.12h1.68c0.62,0,1.08-0.14,1.4-0.4c0.32-0.27,0.47-0.65,0.47-1.15
			C366.01,74.4,365.85,74.01,365.54,73.74z"/>
		<path class="st3" d="M371.94,80.53c-0.88-0.86-1.32-2.08-1.32-3.67v-5.91h3.02v5.81c0,1.7,0.67,2.56,2.03,2.56
			c1.34,0,2.01-0.85,2.01-2.56v-5.81h2.96v5.91c0,1.58-0.44,2.8-1.32,3.67c-0.88,0.86-2.1,1.3-3.69,1.3S372.82,81.39,371.94,80.53z"
			/>
		<path class="st3" d="M382.68,70.95h3.02v8.27h5.08v2.39h-8.1V70.95z"/>
		<path class="st3" d="M400.52,79.27v2.33h-8.55V70.95h8.35v2.33h-5.38v1.8h4.74v2.25h-4.74v1.94
			C394.94,79.27,400.52,79.27,400.52,79.27z M397.46,70.08l-1.31-1.16l-1.31,1.16h-1.92l1.98-2.32h2.5l1.98,2.32H397.46z"/>
		<path class="st3" d="M412.32,70.95v10.66h-2.48l-4.71-5.67v5.67h-2.95V70.95h2.48l4.71,5.67v-5.67
			C409.37,70.95,412.32,70.95,412.32,70.95z"/>
		<path class="st3" d="M416.76,81.11c-0.89-0.47-1.58-1.13-2.09-1.98c-0.51-0.85-0.76-1.8-0.76-2.86s0.25-2.02,0.76-2.86
			c0.51-0.84,1.2-1.5,2.09-1.97c0.89-0.47,1.89-0.71,3.01-0.71c0.98,0,1.85,0.17,2.63,0.52c0.79,0.35,1.43,0.84,1.94,1.49
			l-1.91,1.73c-0.69-0.83-1.53-1.24-2.51-1.24c-0.57,0-1.09,0.13-1.54,0.38c-0.45,0.25-0.8,0.62-1.05,1.07
			c-0.24,0.46-0.37,0.99-0.37,1.59s0.13,1.13,0.37,1.59c0.24,0.46,0.59,0.82,1.05,1.07c0.45,0.25,0.97,0.38,1.54,0.38
			c0.99,0,1.82-0.41,2.51-1.24l1.91,1.73c-0.52,0.65-1.17,1.15-1.94,1.49c-0.78,0.34-1.66,0.52-2.63,0.52
			C418.65,81.82,417.65,81.58,416.76,81.11z"/>
		<path class="st3" d="M425.69,70.95h3.02v10.66h-3.02V70.95z"/>
		<path class="st3" d="M437.99,79.54h-4.5l-0.84,2.07h-3.07l4.71-10.66h2.96l4.72,10.66h-3.13L437.99,79.54z M437.11,77.32
			l-1.37-3.41l-1.37,3.41H437.11z"/>
		<path class="st3" d="M455.8,79.27v2.33h-8.55V70.95h8.35v2.33h-5.38v1.8h4.74v2.25h-4.74v1.94
			C450.22,79.27,455.8,79.27,455.8,79.27z"/>
		<path class="st3" d="M315.64,91.61h-3.27v-2.39h9.54v2.39h-3.26v8.27h-3.02v-8.27H315.64z"/>
		<path class="st3" d="M327.68,97.04h-1.65v2.83h-3.02V89.22h4.87c0.97,0,1.8,0.16,2.51,0.48c0.71,0.32,1.25,0.78,1.65,1.37
			s0.57,1.3,0.57,2.09c0,0.78-0.18,1.44-0.54,2.02c-0.36,0.57-0.87,1.02-1.54,1.35l2.29,3.35h-3.23L327.68,97.04z M329.12,92
			c-0.32-0.28-0.79-0.41-1.4-0.41h-1.68v3.12h1.68c0.62,0,1.08-0.14,1.4-0.4c0.32-0.27,0.47-0.65,0.47-1.15S329.43,92.28,329.12,92z
			"/>
		<path class="st3" d="M341.43,97.8h-4.5l-0.84,2.07h-3.07l4.71-10.66h2.96l4.72,10.66h-3.13L341.43,97.8z M340.55,95.58l-1.37-3.41
			l-1.37,3.41H340.55z"/>
		<path class="st3" d="M356.39,89.22v10.66h-2.48l-4.71-5.67v5.67h-2.95V89.22h2.48l4.71,5.67v-5.67
			C353.44,89.22,356.39,89.22,356.39,89.22z"/>
		<path class="st3" d="M359.75,99.77c-0.81-0.21-1.47-0.5-1.98-0.85l0.99-2.22c0.48,0.32,1.03,0.57,1.66,0.76
			c0.63,0.19,1.24,0.29,1.86,0.29c1.16,0,1.73-0.29,1.73-0.87c0-0.31-0.17-0.53-0.5-0.68c-0.33-0.15-0.86-0.3-1.59-0.47
			c-0.8-0.17-1.47-0.36-2.01-0.55c-0.54-0.2-1-0.51-1.38-0.96c-0.38-0.44-0.57-1.02-0.57-1.76c0-0.65,0.18-1.23,0.53-1.75
			c0.35-0.52,0.88-0.93,1.59-1.24c0.7-0.31,1.57-0.46,2.59-0.46c0.7,0,1.39,0.07,2.07,0.23s1.27,0.39,1.8,0.69l-0.92,2.24
			c-1.02-0.55-2-0.82-2.95-0.82c-0.59,0-1.03,0.08-1.31,0.27c-0.28,0.18-0.41,0.4-0.41,0.69c0,0.29,0.16,0.5,0.49,0.64
			c0.33,0.14,0.85,0.29,1.57,0.45c0.81,0.17,1.49,0.36,2.02,0.55c0.53,0.2,1,0.51,1.38,0.95c0.39,0.44,0.58,1.02,0.58,1.75
			c0,0.64-0.18,1.22-0.53,1.73c-0.35,0.52-0.89,0.93-1.59,1.24s-1.57,0.47-2.59,0.47C361.41,100.09,360.57,99.98,359.75,99.77z"/>
		<path class="st3" d="M377.99,99.87l-0.03-5.64l-2.74,4.6h-1.34l-2.72-4.44v5.49h-2.78V89.22h2.48l3.74,6.15l3.65-6.15h2.48
			l0.03,10.66H377.99z"/>
		<path class="st3" d="M382.89,89.22h3.02v10.66h-3.02V89.22z"/>
		<path class="st3" d="M389.29,99.77c-0.81-0.21-1.47-0.5-1.98-0.85l0.99-2.22c0.48,0.32,1.03,0.57,1.66,0.76
			c0.63,0.19,1.24,0.29,1.86,0.29c1.16,0,1.73-0.29,1.73-0.87c0-0.31-0.17-0.53-0.5-0.68s-0.86-0.3-1.59-0.47
			c-0.8-0.17-1.47-0.36-2.01-0.55c-0.54-0.2-1-0.51-1.38-0.96c-0.38-0.44-0.57-1.02-0.57-1.76c0-0.65,0.18-1.23,0.53-1.75
			c0.35-0.52,0.88-0.93,1.59-1.24c0.7-0.31,1.57-0.46,2.59-0.46c0.7,0,1.39,0.07,2.07,0.23s1.27,0.39,1.8,0.69l-0.92,2.24
			c-1.02-0.55-2-0.82-2.95-0.82c-0.59,0-1.03,0.08-1.31,0.27c-0.28,0.18-0.41,0.4-0.41,0.69c0,0.29,0.16,0.5,0.49,0.64
			s0.85,0.29,1.57,0.45c0.81,0.17,1.49,0.36,2.02,0.55c0.53,0.2,1,0.51,1.38,0.95c0.39,0.44,0.58,1.02,0.58,1.75
			c0,0.64-0.18,1.22-0.53,1.73c-0.35,0.52-0.89,0.93-1.59,1.24s-1.57,0.47-2.59,0.47C390.93,100.09,390.09,99.98,389.29,99.77z"/>
		<path class="st3" d="M399.12,99.77c-0.81-0.21-1.47-0.5-1.98-0.85l0.99-2.22c0.48,0.32,1.03,0.57,1.66,0.76
			c0.63,0.19,1.24,0.29,1.86,0.29c1.16,0,1.73-0.29,1.73-0.87c0-0.31-0.17-0.53-0.5-0.68s-0.86-0.3-1.59-0.47
			c-0.8-0.17-1.47-0.36-2.01-0.55c-0.54-0.2-1-0.51-1.38-0.96c-0.38-0.44-0.57-1.02-0.57-1.76c0-0.65,0.18-1.23,0.53-1.75
			c0.35-0.52,0.88-0.93,1.59-1.24c0.7-0.31,1.57-0.46,2.59-0.46c0.7,0,1.39,0.07,2.07,0.23s1.27,0.39,1.8,0.69l-0.92,2.24
			c-1.02-0.55-2-0.82-2.95-0.82c-0.59,0-1.03,0.08-1.31,0.27c-0.28,0.18-0.41,0.4-0.41,0.69c0,0.29,0.16,0.5,0.49,0.64
			c0.33,0.14,0.85,0.29,1.57,0.45c0.81,0.17,1.49,0.36,2.02,0.55c0.53,0.2,1,0.51,1.38,0.95c0.39,0.44,0.58,1.02,0.58,1.75
			c0,0.64-0.18,1.22-0.53,1.73c-0.35,0.52-0.89,0.93-1.59,1.24c-0.7,0.31-1.57,0.47-2.59,0.47
			C400.78,100.09,399.94,99.98,399.12,99.77z"/>
		<path class="st3" d="M407.74,89.22h3.02v10.66h-3.02V89.22z"/>
		<path class="st3" d="M422.52,95.32c0.34,0.45,0.52,1,0.52,1.64c0,0.93-0.37,1.66-1.13,2.16c-0.75,0.51-1.84,0.76-3.26,0.76h-5.75
			V89.22h5.45c1.36,0,2.39,0.25,3.1,0.75c0.71,0.5,1.06,1.18,1.06,2.03c0,0.51-0.13,0.97-0.37,1.36c-0.24,0.4-0.61,0.72-1.06,0.96
			C421.7,94.53,422.18,94.86,422.52,95.32z M415.89,91.4v2.05h2.07c1.02,0,1.52-0.34,1.52-1.03c0-0.68-0.51-1.02-1.52-1.02H415.89z
			 M419.99,96.61c0-0.72-0.53-1.08-1.58-1.08h-2.53v2.16h2.53C419.47,97.7,419.99,97.33,419.99,96.61z"/>
		<path class="st3" d="M424.6,89.22h3.02v10.66h-3.02V89.22z"/>
		<path class="st3" d="M429.77,89.22h3.02v8.27h5.08v2.39h-8.1V89.22z"/>
		<path class="st3" d="M439.05,89.22h3.02v10.66h-3.02V89.22z"/>
		<path class="st3" d="M444.2,89.22h5.04c1.17,0,2.2,0.22,3.1,0.66c0.9,0.44,1.6,1.05,2.1,1.86c0.5,0.8,0.74,1.74,0.74,2.82
			c0,1.07-0.24,2.02-0.74,2.82c-0.5,0.8-1.2,1.42-2.1,1.86c-0.9,0.44-1.93,0.66-3.1,0.66h-5.04V89.22z M449.12,97.46
			c0.91,0,1.65-0.25,2.2-0.78c0.55-0.52,0.83-1.23,0.83-2.15c0-0.91-0.28-1.63-0.83-2.15s-1.29-0.78-2.2-0.78h-1.9v5.84H449.12z"/>
		<path class="st3" d="M463.76,97.8h-4.5l-0.84,2.07h-3.07l4.71-10.66h2.96l4.72,10.66h-3.13L463.76,97.8z M462.88,95.58l-1.37-3.41
			l-1.37,3.41H462.88z"/>
		<path class="st3" d="M468.59,89.22h5.04c1.17,0,2.2,0.22,3.1,0.66c0.9,0.44,1.6,1.05,2.1,1.86c0.5,0.8,0.74,1.74,0.74,2.82
			c0,1.07-0.24,2.02-0.74,2.82c-0.5,0.8-1.2,1.42-2.1,1.86c-0.9,0.44-1.93,0.66-3.1,0.66h-5.04V89.22z M473.51,97.46
			c0.91,0,1.65-0.25,2.2-0.78c0.55-0.52,0.83-1.23,0.83-2.15c0-0.91-0.28-1.63-0.83-2.15s-1.29-0.78-2.2-0.78h-1.9v5.84H473.51z"/>
		<path class="st3" d="M489.72,97.54v2.33h-8.55V89.22h8.35v2.33h-5.38v1.8h4.74v2.25h-4.74v1.94L489.72,97.54L489.72,97.54z"/>
	</g>
	<polyline class="st16" points="928.21,232.98 928.21,269.86 238.15,269.86 238.15,231.82 	"/>
	<rect x="456.62" y="255.32" class="st4" width="253.13" height="21.43"/>
	<g class="st5">
		<path class="st3" d="M488.75,261.39c0.71,0.32,1.25,0.78,1.65,1.37s0.57,1.3,0.57,2.09s-0.19,1.5-0.57,2.08
			c-0.38,0.58-0.93,1.04-1.65,1.36c-0.71,0.32-1.55,0.48-2.51,0.48h-1.86v2.78h-3.02V260.9h4.87
			C487.2,260.91,488.04,261.07,488.75,261.39z M487.46,266c0.32-0.27,0.47-0.65,0.47-1.15s-0.16-0.88-0.47-1.16
			c-0.32-0.28-0.79-0.41-1.4-0.41h-1.68v3.12h1.68C486.67,266.4,487.14,266.27,487.46,266z"/>
		<path class="st3" d="M500.99,269.24v2.33h-8.55v-10.66h8.35v2.33h-5.38v1.8h4.74v2.25h-4.74v1.94h5.58V269.24z"/>
		<path class="st3" d="M507.31,268.73h-1.65v2.83h-3.02V260.9h4.87c0.97,0,1.8,0.16,2.51,0.48c0.71,0.32,1.25,0.78,1.65,1.37
			s0.57,1.3,0.57,2.09c0,0.78-0.18,1.44-0.54,2.02s-0.87,1.02-1.54,1.35l2.29,3.35h-3.23L507.31,268.73z M508.75,263.69
			c-0.32-0.28-0.79-0.41-1.4-0.41h-1.68v3.12h1.68c0.62,0,1.08-0.14,1.4-0.4c0.32-0.27,0.47-0.65,0.47-1.15
			S509.07,263.97,508.75,263.69z"/>
		<path class="st3" d="M513.92,260.91h3.02v10.66h-3.02V260.91z M515.97,257.73h2.89l-2.86,2.32h-2.07L515.97,257.73z"/>
		<path class="st3" d="M521.42,271.07c-0.9-0.48-1.6-1.14-2.11-1.98c-0.51-0.84-0.76-1.8-0.76-2.85s0.25-2.01,0.76-2.85
			c0.51-0.84,1.22-1.5,2.11-1.98s1.91-0.71,3.04-0.71c1.13,0,2.14,0.23,3.04,0.71s1.6,1.14,2.11,1.98c0.51,0.84,0.76,1.8,0.76,2.85
			s-0.25,2.01-0.76,2.85c-0.51,0.84-1.22,1.5-2.11,1.98c-0.9,0.48-1.91,0.71-3.04,0.71C523.34,271.78,522.32,271.53,521.42,271.07z
			 M525.92,268.9c0.44-0.25,0.78-0.62,1.03-1.07c0.26-0.46,0.38-0.99,0.38-1.59c0-0.61-0.13-1.13-0.38-1.59
			c-0.25-0.47-0.59-0.82-1.03-1.07c-0.44-0.25-0.92-0.38-1.47-0.38s-1.02,0.13-1.47,0.38c-0.44,0.25-0.79,0.62-1.03,1.07
			c-0.25,0.46-0.38,0.99-0.38,1.59c0,0.61,0.13,1.13,0.38,1.59c0.26,0.46,0.59,0.82,1.03,1.07c0.44,0.25,0.92,0.38,1.47,0.38
			S525.48,269.15,525.92,268.9z"/>
		<path class="st3" d="M531.96,260.91H537c1.17,0,2.2,0.22,3.1,0.66s1.6,1.05,2.1,1.86c0.5,0.8,0.74,1.74,0.74,2.82
			c0,1.07-0.24,2.02-0.74,2.82s-1.2,1.42-2.1,1.86s-1.93,0.66-3.1,0.66h-5.04V260.91z M536.87,269.16c0.91,0,1.65-0.26,2.2-0.78
			s0.83-1.23,0.83-2.15s-0.28-1.63-0.83-2.15s-1.29-0.78-2.2-0.78h-1.9v5.84H536.87z"/>
		<path class="st3" d="M546.87,271.07c-0.9-0.48-1.6-1.14-2.11-1.98s-0.76-1.8-0.76-2.85s0.26-2.01,0.76-2.85
			c0.51-0.84,1.22-1.5,2.11-1.98c0.89-0.48,1.91-0.71,3.04-0.71c1.13,0,2.14,0.23,3.04,0.71s1.6,1.14,2.11,1.98s0.76,1.8,0.76,2.85
			s-0.26,2.01-0.76,2.85c-0.51,0.84-1.22,1.5-2.11,1.98c-0.9,0.48-1.91,0.71-3.04,0.71C548.78,271.78,547.76,271.53,546.87,271.07z
			 M551.36,268.9c0.44-0.25,0.78-0.62,1.03-1.07c0.25-0.46,0.38-0.99,0.38-1.59c0-0.61-0.13-1.13-0.38-1.59
			c-0.26-0.47-0.59-0.82-1.03-1.07c-0.44-0.25-0.92-0.38-1.47-0.38s-1.02,0.13-1.47,0.38c-0.44,0.25-0.79,0.62-1.03,1.07
			c-0.26,0.46-0.38,0.99-0.38,1.59c0,0.61,0.13,1.13,0.38,1.59c0.25,0.46,0.59,0.82,1.03,1.07c0.44,0.25,0.92,0.38,1.47,0.38
			S550.93,269.15,551.36,268.9z"/>
		<path class="st3" d="M561.84,260.91h5.04c1.17,0,2.2,0.22,3.1,0.66s1.6,1.05,2.1,1.86c0.5,0.8,0.74,1.74,0.74,2.82
			c0,1.07-0.24,2.02-0.74,2.82s-1.2,1.42-2.1,1.86s-1.93,0.66-3.1,0.66h-5.04V260.91z M566.75,269.16c0.91,0,1.65-0.26,2.2-0.78
			c0.55-0.52,0.83-1.23,0.83-2.15s-0.28-1.63-0.83-2.15c-0.55-0.52-1.29-0.78-2.2-0.78h-1.9v5.84H566.75z"/>
		<path class="st3" d="M582.96,269.24v2.33h-8.55v-10.66h8.35v2.33h-5.38v1.8h4.74v2.25h-4.74v1.94h5.58V269.24z"/>
		<path class="st3" d="M589.06,260.91h3.02v10.66h-3.02V260.91z"/>
		<path class="st3" d="M595.45,271.46c-0.81-0.21-1.47-0.5-1.98-0.85l0.99-2.22c0.48,0.32,1.03,0.57,1.66,0.76
			c0.63,0.19,1.24,0.29,1.86,0.29c1.16,0,1.73-0.29,1.73-0.87c0-0.31-0.17-0.53-0.5-0.68c-0.33-0.15-0.86-0.3-1.59-0.47
			c-0.8-0.17-1.47-0.36-2.01-0.55c-0.54-0.2-1-0.51-1.38-0.96c-0.38-0.44-0.57-1.02-0.57-1.76c0-0.65,0.18-1.23,0.53-1.75
			s0.88-0.93,1.59-1.24c0.7-0.31,1.57-0.46,2.59-0.46c0.7,0,1.39,0.07,2.07,0.23s1.27,0.39,1.8,0.69l-0.92,2.24
			c-1.02-0.55-2-0.82-2.95-0.82c-0.59,0-1.03,0.08-1.31,0.27s-0.41,0.4-0.41,0.69c0,0.29,0.16,0.5,0.49,0.64
			c0.33,0.14,0.85,0.29,1.57,0.45c0.81,0.17,1.49,0.36,2.02,0.55c0.53,0.2,1,0.51,1.38,0.95c0.39,0.44,0.58,1.02,0.58,1.75
			c0,0.64-0.18,1.22-0.53,1.73c-0.35,0.52-0.89,0.93-1.59,1.24c-0.7,0.31-1.57,0.47-2.59,0.47
			C597.1,271.78,596.26,271.67,595.45,271.46z"/>
		<path class="st3" d="M606.41,271.07c-0.9-0.48-1.6-1.14-2.11-1.98s-0.76-1.8-0.76-2.85s0.26-2.01,0.76-2.85
			c0.51-0.84,1.22-1.5,2.11-1.98s1.91-0.71,3.04-0.71c1.13,0,2.14,0.23,3.04,0.71c0.9,0.48,1.6,1.14,2.11,1.98s0.76,1.8,0.76,2.85
			s-0.26,2.01-0.76,2.85c-0.51,0.84-1.22,1.5-2.11,1.98c-0.9,0.48-1.91,0.71-3.04,0.71C608.32,271.78,607.3,271.53,606.41,271.07z
			 M610.9,268.9c0.44-0.25,0.78-0.62,1.03-1.07c0.25-0.46,0.38-0.99,0.38-1.59c0-0.61-0.13-1.13-0.38-1.59
			c-0.26-0.47-0.59-0.82-1.03-1.07c-0.44-0.25-0.92-0.38-1.47-0.38s-1.02,0.13-1.47,0.38c-0.44,0.25-0.79,0.62-1.03,1.07
			c-0.26,0.46-0.38,0.99-0.38,1.59c0,0.61,0.13,1.13,0.38,1.59c0.25,0.46,0.59,0.82,1.03,1.07c0.44,0.25,0.92,0.38,1.47,0.38
			S610.47,269.15,610.9,268.9z"/>
		<path class="st3" d="M616.95,260.91h3.02v8.27h5.08v2.39h-8.1L616.95,260.91L616.95,260.91z"/>
		<path class="st3" d="M633.49,269.49h-4.5l-0.84,2.07h-3.07l4.71-10.66h2.96l4.72,10.66h-3.13L633.49,269.49z M632.61,267.27
			l-1.37-3.41l-1.37,3.41H632.61z"/>
		<path class="st3" d="M647.93,271.57l-0.03-5.64l-2.74,4.6h-1.34l-2.72-4.44v5.49h-2.78v-10.66h2.48l3.74,6.15l3.65-6.15h2.48
			l0.03,10.66h-2.76V271.57z"/>
		<path class="st3" d="M661.39,269.24v2.33h-8.55v-10.66h8.35v2.33h-5.38v1.8h4.74v2.25h-4.74v1.94h5.58V269.24z"/>
		<path class="st3" d="M673.19,260.91v10.66h-2.48l-4.71-5.67v5.67h-2.95v-10.66h2.48l4.71,5.67v-5.67H673.19z"/>
		<path class="st3" d="M677.59,263.3h-3.27v-2.39h9.54v2.39h-3.26v8.27h-3.02v-8.27H677.59z"/>
		<path class="st3" d="M687.18,271.07c-0.9-0.48-1.6-1.14-2.11-1.98s-0.76-1.8-0.76-2.85s0.26-2.01,0.76-2.85
			c0.51-0.84,1.22-1.5,2.11-1.98c0.89-0.48,1.91-0.71,3.04-0.71c1.13,0,2.14,0.23,3.04,0.71c0.9,0.48,1.6,1.14,2.11,1.98
			s0.76,1.8,0.76,2.85s-0.25,2.01-0.76,2.85c-0.51,0.84-1.22,1.5-2.11,1.98c-0.9,0.48-1.91,0.71-3.04,0.71
			C689.09,271.78,688.08,271.53,687.18,271.07z M691.67,268.9c0.44-0.25,0.78-0.62,1.03-1.07c0.26-0.46,0.38-0.99,0.38-1.59
			c0-0.61-0.13-1.13-0.38-1.59c-0.25-0.47-0.59-0.82-1.03-1.07c-0.44-0.25-0.92-0.38-1.47-0.38s-1.02,0.13-1.47,0.38
			c-0.44,0.25-0.79,0.62-1.03,1.07c-0.25,0.46-0.38,0.99-0.38,1.59c0,0.61,0.13,1.13,0.38,1.59c0.26,0.46,0.59,0.82,1.03,1.07
			c0.44,0.25,0.92,0.38,1.47,0.38S691.23,269.15,691.67,268.9z"/>
	</g>
	<g>
		<g>
			<line class="st16" x1="224.78" y1="175.37" x2="169.68" y2="175.52"/>
			<g>
				
					<rect x="224.37" y="172.78" transform="matrix(1 -2.726217e-03 2.726217e-03 1 -0.4773 0.6134)" class="st17" width="0.8" height="5.18"/>
			</g>
		</g>
	</g>
	<g>
		<path class="st17" d="M240.45,12.54h7.1c1.7,0,3.2,0.32,4.49,0.97c1.31,0.65,2.32,1.56,3.04,2.73c0.72,1.18,1.08,2.54,1.08,4.1
			s-0.36,2.93-1.08,4.1c-0.72,1.18-1.73,2.08-3.04,2.73c-1.31,0.65-2.8,0.97-4.49,0.97h-7.1V12.54z M247.36,25.19
			c1.56,0,2.8-0.44,3.74-1.31s1.39-2.05,1.39-3.54s-0.47-2.67-1.39-3.54c-0.93-0.87-2.18-1.31-3.74-1.31h-3.3v9.68h3.3V25.19z"/>
		<path class="st17" d="M258.88,12.54h3.61v15.62h-3.61V12.54z"/>
		<path class="st17" d="M276.47,24.81h-7.25l-1.38,3.35h-3.71l6.96-15.62h3.57l6.98,15.62h-3.79L276.47,24.81z M275.34,22.07
			l-2.48-5.98l-2.48,5.98C270.39,22.07,275.34,22.07,275.34,22.07z"/>
		<path class="st17" d="M284.84,27.92c-1.16-0.33-2.08-0.76-2.77-1.31l1.23-2.72c0.67,0.49,1.47,0.88,2.39,1.18
			c0.92,0.3,1.85,0.45,2.76,0.45c1.03,0,1.78-0.15,2.27-0.46c0.49-0.31,0.73-0.71,0.73-1.21c0-0.37-0.15-0.68-0.44-0.92
			c-0.29-0.24-0.66-0.45-1.12-0.59s-1.06-0.31-1.84-0.49c-1.19-0.29-2.17-0.56-2.92-0.85c-0.75-0.29-1.41-0.73-1.95-1.36
			c-0.54-0.63-0.82-1.46-0.82-2.5c0-0.9,0.24-1.73,0.73-2.46c0.49-0.73,1.23-1.32,2.22-1.75c0.99-0.44,2.2-0.65,3.62-0.65
			c1,0,1.97,0.12,2.92,0.36c0.96,0.23,1.78,0.58,2.5,1.03l-1.12,2.74c-1.44-0.82-2.89-1.23-4.32-1.23c-1.01,0-1.76,0.16-2.24,0.49
			c-0.49,0.33-0.72,0.75-0.72,1.3s0.28,0.93,0.84,1.19c0.56,0.27,1.41,0.52,2.55,0.76c1.19,0.29,2.17,0.56,2.92,0.85
			c0.75,0.29,1.41,0.73,1.95,1.34c0.54,0.61,0.82,1.43,0.82,2.48c0,0.89-0.24,1.71-0.74,2.44c-0.5,0.73-1.24,1.32-2.24,1.75
			c-1,0.44-2.21,0.65-3.63,0.65C287.18,28.42,285.98,28.26,284.84,27.92z"/>
	</g>
	<line class="st16" x1="238.84" y1="43.34" x2="238.84" y2="115.8"/>
</g>
</svg>
