<?xml version="1.0" encoding="utf-8"?>
<!-- Generator: Adobe Illustrator 23.1.1, SVG Export Plug-In . SVG Version: 6.00 Build 0)  -->
<svg version="1.1" id="OBJECTS" xmlns="http://www.w3.org/2000/svg" xmlns:xlink="http://www.w3.org/1999/xlink" x="0px" y="0px"
	 viewBox="0 0 352.7 228.9" style="enable-background:new 0 0 352.7 228.9;" xml:space="preserve">
<style type="text/css">
	.st0{enable-background:new    ;}
	.st1{fill:#3F7593;}
	.st2{fill:#17EFFF;}
	.st3{fill:#FFFFFF;}
	.st4{clip-path:url(#SVGID_2_);}
	.st5{fill:#49CDDA;}
</style>
<g class="st0">
	<path class="st1" d="M62.4,12.6c0.6,0.3,1,0.6,1.3,1.1s0.5,1,0.5,1.7S64,16.5,63.7,17s-0.7,0.8-1.3,1.1c-0.6,0.3-1.2,0.4-2,0.4H59
		v2.2h-2.4v-8.4h3.8C61.2,12.2,61.9,12.4,62.4,12.6z M61.4,16.3c0.2-0.2,0.4-0.5,0.4-0.9s-0.1-0.7-0.4-0.9c-0.2-0.2-0.6-0.3-1.1-0.3
		H59v2.5h1.3C60.8,16.6,61.2,16.5,61.4,16.3z"/>
	<path class="st1" d="M69,18.4h-1.3v2.2h-2.4v-8.4h3.8c0.8,0,1.4,0.1,2,0.4c0.6,0.3,1,0.6,1.3,1.1s0.5,1,0.5,1.7
		c0,0.6-0.1,1.1-0.4,1.6s-0.7,0.8-1.2,1.1l1.8,2.6h-2.5L69,18.4z M70.1,14.4c-0.2-0.2-0.6-0.3-1.1-0.3h-1.3v2.5H69
		c0.5,0,0.9-0.1,1.1-0.3c0.2-0.2,0.4-0.5,0.4-0.9S70.4,14.6,70.1,14.4z"/>
	<path class="st1" d="M76.1,20.2c-0.7-0.4-1.3-0.9-1.7-1.6c-0.4-0.7-0.6-1.4-0.6-2.2s0.2-1.6,0.6-2.2c0.4-0.7,1-1.2,1.7-1.6
		s1.5-0.6,2.4-0.6s1.7,0.2,2.4,0.6s1.3,0.9,1.7,1.6c0.4,0.7,0.6,1.4,0.6,2.2c0,0.8-0.2,1.6-0.6,2.2c-0.4,0.7-1,1.2-1.7,1.6
		s-1.5,0.6-2.4,0.6C77.6,20.8,76.8,20.6,76.1,20.2z M79.6,18.5c0.3-0.2,0.6-0.5,0.8-0.8c0.2-0.4,0.3-0.8,0.3-1.3s-0.1-0.9-0.3-1.3
		c-0.2-0.4-0.5-0.6-0.8-0.8S78.9,14,78.4,14c-0.4,0-0.8,0.1-1.2,0.3c-0.3,0.2-0.6,0.5-0.8,0.8s-0.3,0.8-0.3,1.3s0.1,0.9,0.3,1.3
		c0.2,0.4,0.5,0.6,0.8,0.8c0.3,0.2,0.7,0.3,1.2,0.3S79.3,18.7,79.6,18.5z"/>
	<path class="st1" d="M86.2,20.2c-0.7-0.4-1.3-0.9-1.7-1.6s-0.6-1.4-0.6-2.3s0.2-1.6,0.6-2.3s1-1.2,1.7-1.6c0.7-0.4,1.5-0.6,2.4-0.6
		c0.8,0,1.5,0.1,2.1,0.4c0.6,0.3,1.1,0.7,1.5,1.2L90.6,15c-0.5-0.7-1.2-1-2-1c-0.5,0-0.9,0.1-1.2,0.3c-0.4,0.2-0.6,0.5-0.8,0.8
		c-0.2,0.4-0.3,0.8-0.3,1.3c0,0.5,0.1,0.9,0.3,1.3c0.2,0.4,0.5,0.6,0.8,0.8c0.4,0.2,0.8,0.3,1.2,0.3c0.8,0,1.4-0.3,2-1l1.5,1.4
		c-0.4,0.5-0.9,0.9-1.5,1.2c-0.6,0.3-1.3,0.4-2.1,0.4C87.7,20.8,86.9,20.6,86.2,20.2z"/>
	<path class="st1" d="M100,18.8v1.8h-6.7v-8.4h6.6V14h-4.2v1.4h3.7v1.8h-3.7v1.5h4.3V18.8z"/>
	<path class="st1" d="M102.3,20.6c-0.6-0.2-1.2-0.4-1.6-0.7l0.8-1.8c0.4,0.2,0.8,0.4,1.3,0.6s1,0.2,1.5,0.2c0.9,0,1.4-0.2,1.4-0.7
		c0-0.2-0.1-0.4-0.4-0.5s-0.7-0.2-1.3-0.4c-0.6-0.1-1.2-0.3-1.6-0.4c-0.4-0.2-0.8-0.4-1.1-0.8c-0.3-0.3-0.5-0.8-0.5-1.4
		c0-0.5,0.1-1,0.4-1.4s0.7-0.7,1.3-1s1.2-0.4,2-0.4c0.6,0,1.1,0.1,1.6,0.2c0.5,0.1,1,0.3,1.4,0.5l-0.7,1.8c-0.8-0.4-1.6-0.6-2.3-0.6
		c-0.5,0-0.8,0.1-1,0.2c-0.2,0.1-0.3,0.3-0.3,0.5s0.1,0.4,0.4,0.5s0.7,0.2,1.2,0.3c0.6,0.1,1.2,0.3,1.6,0.4s0.8,0.4,1.1,0.7
		s0.5,0.8,0.5,1.4c0,0.5-0.1,1-0.4,1.4s-0.7,0.7-1.3,1s-1.2,0.4-2,0.4C103.6,20.8,102.9,20.7,102.3,20.6z"/>
	<path class="st1" d="M110,20.6c-0.6-0.2-1.2-0.4-1.6-0.7l0.8-1.8c0.4,0.2,0.8,0.4,1.3,0.6s1,0.2,1.5,0.2c0.9,0,1.4-0.2,1.4-0.7
		c0-0.2-0.1-0.4-0.4-0.5s-0.7-0.2-1.3-0.4c-0.6-0.1-1.2-0.3-1.6-0.4c-0.4-0.2-0.8-0.4-1.1-0.8c-0.3-0.3-0.5-0.8-0.5-1.4
		c0-0.5,0.1-1,0.4-1.4s0.7-0.7,1.3-1s1.2-0.4,2-0.4c0.6,0,1.1,0.1,1.6,0.2c0.5,0.1,1,0.3,1.4,0.5l-0.7,1.8c-0.8-0.4-1.6-0.6-2.3-0.6
		c-0.5,0-0.8,0.1-1,0.2c-0.2,0.1-0.3,0.3-0.3,0.5s0.1,0.4,0.4,0.5s0.7,0.2,1.2,0.3c0.6,0.1,1.2,0.3,1.6,0.4s0.8,0.4,1.1,0.7
		s0.5,0.8,0.5,1.4c0,0.5-0.1,1-0.4,1.4s-0.7,0.7-1.3,1s-1.2,0.4-2,0.4C111.3,20.8,110.7,20.7,110,20.6z"/>
	<path class="st1" d="M118.7,20.2c-0.7-0.4-1.3-0.9-1.7-1.6c-0.4-0.7-0.6-1.4-0.6-2.2s0.2-1.6,0.6-2.2c0.4-0.7,1-1.2,1.7-1.6
		s1.5-0.6,2.4-0.6s1.7,0.2,2.4,0.6s1.3,0.9,1.7,1.6c0.4,0.7,0.6,1.4,0.6,2.2c0,0.8-0.2,1.6-0.6,2.2c-0.4,0.7-1,1.2-1.7,1.6
		s-1.5,0.6-2.4,0.6C120.2,20.8,119.4,20.6,118.7,20.2z M122.2,18.5c0.3-0.2,0.6-0.5,0.8-0.8c0.2-0.4,0.3-0.8,0.3-1.3
		s-0.1-0.9-0.3-1.3c-0.2-0.4-0.5-0.6-0.8-0.8S121.5,14,121,14c-0.4,0-0.8,0.1-1.2,0.3c-0.3,0.2-0.6,0.5-0.8,0.8s-0.3,0.8-0.3,1.3
		s0.1,0.9,0.3,1.3c0.2,0.4,0.5,0.6,0.8,0.8c0.3,0.2,0.7,0.3,1.2,0.3S121.9,18.7,122.2,18.5z"/>
	<path class="st1" d="M130.5,12.2h4c0.9,0,1.7,0.2,2.4,0.5s1.3,0.8,1.7,1.5s0.6,1.4,0.6,2.2c0,0.8-0.2,1.6-0.6,2.2
		c-0.4,0.6-0.9,1.1-1.7,1.5c-0.7,0.3-1.5,0.5-2.4,0.5h-4V12.2z M134.3,18.7c0.7,0,1.3-0.2,1.7-0.6s0.7-1,0.7-1.7s-0.2-1.3-0.7-1.7
		c-0.4-0.4-1-0.6-1.7-0.6h-1.5v4.6C132.8,18.7,134.3,18.7,134.3,18.7z"/>
	<path class="st1" d="M147.1,18.8v1.8h-6.7v-8.4h6.6V14h-4.2v1.4h3.7v1.8h-3.7v1.5h4.3V18.8z"/>
	<path class="st1" d="M157.5,16.3h2.1v3.5c-0.5,0.3-1,0.6-1.7,0.8c-0.6,0.2-1.2,0.3-1.9,0.3c-0.9,0-1.7-0.2-2.4-0.6
		s-1.3-0.9-1.7-1.6s-0.6-1.4-0.6-2.3s0.2-1.6,0.6-2.3s1-1.2,1.7-1.6s1.5-0.6,2.4-0.6c0.8,0,1.5,0.1,2.1,0.4s1.1,0.6,1.6,1.1
		l-1.5,1.4c-0.6-0.6-1.2-0.9-2-0.9c-0.7,0-1.3,0.2-1.7,0.7c-0.4,0.4-0.7,1-0.7,1.7c0,0.5,0.1,0.9,0.3,1.2s0.5,0.6,0.8,0.9
		c0.4,0.2,0.8,0.3,1.2,0.3c0.5,0,0.9-0.1,1.3-0.3L157.5,16.3L157.5,16.3z"/>
	<path class="st1" d="M167.9,18.8v1.8h-6.7v-8.4h6.6V14h-4.2v1.4h3.7v1.8h-3.7v1.5h4.3V18.8z"/>
	<path class="st1" d="M170.2,20.6c-0.6-0.2-1.2-0.4-1.6-0.7l0.8-1.8c0.4,0.2,0.8,0.4,1.3,0.6s1,0.2,1.5,0.2c0.9,0,1.4-0.2,1.4-0.7
		c0-0.2-0.1-0.4-0.4-0.5c-0.3-0.1-0.7-0.2-1.3-0.4c-0.6-0.1-1.2-0.3-1.6-0.4c-0.4-0.2-0.8-0.4-1.1-0.8c-0.3-0.3-0.5-0.8-0.5-1.4
		c0-0.5,0.1-1,0.4-1.4c0.3-0.4,0.7-0.7,1.3-1s1.2-0.4,2-0.4c0.6,0,1.1,0.1,1.6,0.2c0.5,0.1,1,0.3,1.4,0.5l-0.7,1.8
		c-0.8-0.4-1.6-0.6-2.3-0.6c-0.5,0-0.8,0.1-1,0.2c-0.2,0.1-0.3,0.3-0.3,0.5s0.1,0.4,0.4,0.5s0.7,0.2,1.2,0.3
		c0.6,0.1,1.2,0.3,1.6,0.4s0.8,0.4,1.1,0.7s0.5,0.8,0.5,1.4c0,0.5-0.1,1-0.4,1.4c-0.3,0.4-0.7,0.7-1.3,1s-1.2,0.4-2,0.4
		C171.5,20.8,170.8,20.7,170.2,20.6z"/>
	<path class="st1" d="M178.7,14.1h-2.6v-1.9h7.5v1.9H181v6.5h-2.4L178.7,14.1L178.7,14.1z"/>
	<path class="st1" d="M189.7,19h-3.6l-0.7,1.6H183l3.7-8.4h2.3l3.7,8.4h-2.5L189.7,19z M188.3,11.5c-0.2-0.1-0.4-0.2-0.6-0.3
		c-0.2-0.1-0.3-0.2-0.3-0.2l-0.2-0.1c-0.2,0-0.3,0.1-0.4,0.2c-0.1,0.1-0.2,0.3-0.2,0.5h-1.1c0-0.6,0.2-1,0.4-1.4
		c0.3-0.3,0.6-0.5,1.1-0.5c0.2,0,0.4,0,0.6,0.1c0.2,0.1,0.4,0.2,0.6,0.3c0.2,0.1,0.3,0.2,0.3,0.2l0.2,0.1c0.2,0,0.3-0.1,0.4-0.2
		c0.1-0.1,0.2-0.3,0.2-0.4h1.1c0,0.6-0.2,1-0.4,1.4c-0.3,0.3-0.6,0.5-1.1,0.5C188.7,11.6,188.5,11.6,188.3,11.5z M189,17.3l-1.1-2.7
		l-1.1,2.7H189z"/>
	<path class="st1" d="M195.2,20.2c-0.7-0.4-1.3-0.9-1.7-1.6s-0.6-1.4-0.6-2.2s0.2-1.6,0.6-2.2c0.4-0.7,1-1.2,1.7-1.6
		s1.5-0.6,2.4-0.6s1.7,0.2,2.4,0.6s1.3,0.9,1.7,1.6c0.4,0.7,0.6,1.4,0.6,2.2c0,0.8-0.2,1.6-0.6,2.2c-0.4,0.7-1,1.2-1.7,1.6
		s-1.5,0.6-2.4,0.6S195.9,20.6,195.2,20.2z M198.8,18.5c0.3-0.2,0.6-0.5,0.8-0.8c0.2-0.4,0.3-0.8,0.3-1.3s-0.1-0.9-0.3-1.3
		s-0.5-0.6-0.8-0.8s-0.7-0.3-1.2-0.3s-0.8,0.1-1.2,0.3c-0.3,0.2-0.6,0.5-0.8,0.8s-0.3,0.8-0.3,1.3s0.1,0.9,0.3,1.3s0.5,0.6,0.8,0.8
		c0.3,0.2,0.7,0.3,1.2,0.3S198.4,18.7,198.8,18.5z"/>
	<path class="st1" d="M207,12.2h4c0.9,0,1.7,0.2,2.4,0.5s1.3,0.8,1.7,1.5c0.4,0.6,0.6,1.4,0.6,2.2c0,0.8-0.2,1.6-0.6,2.2
		c-0.4,0.6-0.9,1.1-1.7,1.5c-0.7,0.3-1.5,0.5-2.4,0.5h-4V12.2z M210.9,18.7c0.7,0,1.3-0.2,1.7-0.6s0.7-1,0.7-1.7s-0.2-1.3-0.7-1.7
		c-0.4-0.4-1-0.6-1.7-0.6h-1.5v4.6C209.4,18.7,210.9,18.7,210.9,18.7z"/>
	<path class="st1" d="M223.7,18.8v1.8H217v-8.4h6.6V14h-4.2v1.4h3.7v1.8h-3.7v1.5h4.3V18.8z"/>
	<path class="st1" d="M232.2,18.4h-1.3v2.2h-2.4v-8.4h3.8c0.8,0,1.4,0.1,2,0.4c0.6,0.3,1,0.6,1.3,1.1s0.5,1,0.5,1.7
		c0,0.6-0.1,1.1-0.4,1.6c-0.3,0.5-0.7,0.8-1.2,1.1l1.8,2.6h-2.5L232.2,18.4z M233.3,14.4c-0.2-0.2-0.6-0.3-1.1-0.3h-1.3v2.5h1.3
		c0.5,0,0.9-0.1,1.1-0.3s0.4-0.5,0.4-0.9S233.5,14.6,233.3,14.4z"/>
	<path class="st1" d="M244.1,18.8v1.8h-6.7v-8.4h6.6V14h-4.2v1.4h3.7v1.8h-3.7v1.5h4.3V18.8z"/>
	<path class="st1" d="M246.4,20.6c-0.6-0.2-1.2-0.4-1.6-0.7l0.8-1.8c0.4,0.2,0.8,0.4,1.3,0.6s1,0.2,1.5,0.2c0.9,0,1.4-0.2,1.4-0.7
		c0-0.2-0.1-0.4-0.4-0.5c-0.3-0.1-0.7-0.2-1.3-0.4c-0.6-0.1-1.2-0.3-1.6-0.4s-0.8-0.4-1.1-0.8c-0.3-0.3-0.5-0.8-0.5-1.4
		c0-0.5,0.1-1,0.4-1.4c0.3-0.4,0.7-0.7,1.3-1c0.6-0.2,1.2-0.4,2-0.4c0.6,0,1.1,0.1,1.6,0.2s1,0.3,1.4,0.5l-0.7,1.8
		c-0.8-0.4-1.6-0.6-2.3-0.6c-0.5,0-0.8,0.1-1,0.2s-0.3,0.3-0.3,0.5s0.1,0.4,0.4,0.5s0.7,0.2,1.2,0.3c0.6,0.1,1.2,0.3,1.6,0.4
		s0.8,0.4,1.1,0.7c0.3,0.3,0.5,0.8,0.5,1.4c0,0.5-0.1,1-0.4,1.4c-0.3,0.4-0.7,0.7-1.3,1c-0.6,0.2-1.2,0.4-2,0.4
		C247.7,20.8,247,20.7,246.4,20.6z"/>
	<path class="st1" d="M253.2,12.2h2.4v8.4h-2.4V12.2z M254.8,9.7h2.3l-2.3,1.8h-1.6L254.8,9.7z"/>
	<path class="st1" d="M257.3,12.2h4c0.9,0,1.7,0.2,2.4,0.5s1.3,0.8,1.7,1.5c0.4,0.6,0.6,1.4,0.6,2.2c0,0.8-0.2,1.6-0.6,2.2
		s-0.9,1.1-1.7,1.5c-0.7,0.3-1.5,0.5-2.4,0.5h-4V12.2z M261.1,18.7c0.7,0,1.3-0.2,1.7-0.6c0.4-0.4,0.7-1,0.7-1.7s-0.2-1.3-0.7-1.7
		c-0.4-0.4-1-0.6-1.7-0.6h-1.5v4.6C259.6,18.7,261.1,18.7,261.1,18.7z"/>
	<path class="st1" d="M268.1,19.8c-0.7-0.7-1-1.6-1-2.9v-4.7h2.4v4.6c0,1.3,0.5,2,1.6,2s1.6-0.7,1.6-2v-4.6h2.3v4.7
		c0,1.2-0.3,2.2-1,2.9c-0.7,0.7-1.7,1-2.9,1S268.8,20.5,268.1,19.8z"/>
	<path class="st1" d="M278.5,20.2c-0.7-0.4-1.3-0.9-1.7-1.6s-0.6-1.4-0.6-2.2s0.2-1.6,0.6-2.2s1-1.2,1.7-1.6s1.5-0.6,2.4-0.6
		s1.7,0.2,2.4,0.6s1.3,0.9,1.7,1.6s0.6,1.4,0.6,2.2c0,0.8-0.2,1.6-0.6,2.2s-1,1.2-1.7,1.6s-1.5,0.6-2.4,0.6
		C280,20.8,279.2,20.6,278.5,20.2z M282,18.5c0.3-0.2,0.6-0.5,0.8-0.8c0.2-0.4,0.3-0.8,0.3-1.3s-0.1-0.9-0.3-1.3
		c-0.2-0.4-0.5-0.6-0.8-0.8s-0.7-0.3-1.2-0.3c-0.4,0-0.8,0.1-1.2,0.3s-0.6,0.5-0.8,0.8s-0.3,0.8-0.3,1.3s0.1,0.9,0.3,1.3
		c0.2,0.4,0.5,0.6,0.8,0.8c0.3,0.2,0.7,0.3,1.2,0.3S281.7,18.7,282,18.5z"/>
	<path class="st1" d="M287.7,20.6c-0.6-0.2-1.2-0.4-1.6-0.7l0.8-1.8c0.4,0.2,0.8,0.4,1.3,0.6s1,0.2,1.5,0.2c0.9,0,1.4-0.2,1.4-0.7
		c0-0.2-0.1-0.4-0.4-0.5s-0.7-0.2-1.3-0.4c-0.6-0.1-1.2-0.3-1.6-0.4s-0.8-0.4-1.1-0.8c-0.3-0.3-0.5-0.8-0.5-1.4c0-0.5,0.1-1,0.4-1.4
		s0.7-0.7,1.3-1c0.6-0.2,1.2-0.4,2-0.4c0.6,0,1.1,0.1,1.6,0.2s1,0.3,1.4,0.5l-0.7,1.8c-0.8-0.4-1.6-0.6-2.3-0.6
		c-0.5,0-0.8,0.1-1,0.2s-0.3,0.3-0.3,0.5s0.1,0.4,0.4,0.5s0.7,0.2,1.2,0.3c0.6,0.1,1.2,0.3,1.6,0.4s0.8,0.4,1.1,0.7
		c0.3,0.3,0.5,0.8,0.5,1.4c0,0.5-0.1,1-0.4,1.4s-0.7,0.7-1.3,1c-0.6,0.2-1.2,0.4-2,0.4C289,20.8,288.4,20.7,287.7,20.6z"/>
</g>
<g>
	<g>
		<path class="st1" d="M73.4,110.4H21.3c-2.7,0-4.9-2.2-4.9-4.9v-52c0-2.7,2.2-4.9,4.9-4.9h52.1c2.7,0,4.9,2.2,4.9,4.9v52.1
			C78.3,108.2,76.1,110.4,73.4,110.4z"/>
		<path class="st1" d="M75.5,111H19.2c-1.8,0-3.3-1.5-3.3-3.3V51.3c0-1.8,1.5-3.3,3.3-3.3h56.3c1.8,0,3.3,1.5,3.3,3.3v56.3
			C78.9,109.5,77.4,111,75.5,111z M19.2,49.2c-1.2,0-2.1,0.9-2.1,2.1v56.3c0,1.2,0.9,2.1,2.1,2.1h56.3c1.2,0,2.1-0.9,2.1-2.1V51.3
			c0-1.2-0.9-2.1-2.1-2.1H19.2z"/>
	</g>
</g>
<g>
	<g>
		<path class="st2" d="M92.8,80.1h-9.6V48.5c0-1.3-0.5-2.5-1.4-3.4s-2.1-1.4-3.4-1.4h-62c-1.3,0-2.5,0.5-3.4,1.4s-1.4,2.1-1.4,3.4
			v31h-1.2v-31c0-1.6,0.6-3.1,1.8-4.3c1.1-1.1,2.6-1.8,4.3-1.8h61.9c1.6,0,3.1,0.6,4.3,1.8c1.1,1.1,1.8,2.6,1.8,4.3v30.4h8.4v1.2
			H92.8z"/>
	</g>
	<g>
		<polygon class="st2" points="91.9,82.5 97.1,79.5 91.9,76.5 		"/>
	</g>
</g>
<g>
	<path class="st1" d="M332.9,109.6h-52.1c-2.7,0-4.9-2.2-4.9-4.9V52.8c0-2.7,2.2-4.9,4.9-4.9h52.1c2.7,0,4.9,2.2,4.9,4.9v51.9
		C337.8,107.4,335.6,109.6,332.9,109.6z"/>
	<path class="st3" d="M335.1,110.2h-56.3c-1.8,0-3.3-1.5-3.3-3.3V50.6c0-1.8,1.5-3.3,3.3-3.3h56.3c1.8,0,3.3,1.5,3.3,3.3v56.2
		C338.4,108.7,336.9,110.2,335.1,110.2z M278.7,48.5c-1.2,0-2.1,0.9-2.1,2.1v56.2c0,1.2,0.9,2.1,2.1,2.1H335c1.2,0,2.1-0.9,2.1-2.1
		V50.6c0-1.2-0.9-2.1-2.1-2.1H278.7z"/>
</g>
<g>
	<path class="st2" d="M343.9,78.7h-1.2V47.8c0-1.3-0.5-2.5-1.4-3.4s-2.1-1.4-3.4-1.4H276c-1.3,0-2.5,0.5-3.4,1.4s-1.4,2.1-1.4,3.4
		v30.9H270V47.8c0-1.6,0.6-3.1,1.8-4.2c1.1-1.1,2.6-1.8,4.3-1.8H338c1.6,0,3.1,0.6,4.3,1.8c1.1,1.1,1.8,2.6,1.8,4.2v30.9H343.9z"/>
</g>
<g>
	<path class="st1" d="M158.8,110.4h-52.1c-2.7,0-4.9-2.2-4.9-4.9v-52c0-2.7,2.2-4.9,4.9-4.9h52.1c2.7,0,4.9,2.2,4.9,4.9v52.1
		C163.7,108.2,161.5,110.4,158.8,110.4z"/>
	<path class="st3" d="M161,111h-56.3c-1.8,0-3.3-1.5-3.3-3.3V51.3c0-1.8,1.5-3.3,3.3-3.3H161c1.8,0,3.3,1.5,3.3,3.3v56.3
		C164.3,109.5,162.8,111,161,111z M104.6,49.2c-1.2,0-2.1,0.9-2.1,2.1v56.3c0,1.2,0.9,2.1,2.1,2.1H161c1.2,0,2.1-0.9,2.1-2.1V51.3
		c0-1.2-0.9-2.1-2.1-2.1H104.6z"/>
</g>
<g>
	<g>
		<path class="st2" d="M163.8,41.5h-61.9c-1.6,0-3.1,0.6-4.3,1.8c-1.1,1.1-1.8,2.6-1.8,4.3v30H97v-30c0-1.3,0.5-2.5,1.4-3.4
			s2.1-1.4,3.4-1.4h61.9c1.3,0,2.5,0.5,3.4,1.4s1.4,2.1,1.4,3.4v31.6h9.6V78h-8.4V47.5c0-1.6-0.6-3.1-1.8-4.3
			C166.9,42.1,165.4,41.5,163.8,41.5z"/>
	</g>
	<g>
		<polygon class="st2" points="177.3,75.4 182.6,78.5 177.3,81.5 		"/>
	</g>
</g>
<g>
	<path class="st1" d="M245.3,110.1h-52.1c-2.7,0-4.9-2.2-4.9-4.9V53.1c0-2.7,2.2-4.9,4.9-4.9h52.1c2.7,0,4.9,2.2,4.9,4.9v52.1
		C250.1,107.9,248,110.1,245.3,110.1z"/>
	<path class="st3" d="M247.4,110.7h-56.3c-1.8,0-3.3-1.5-3.3-3.3V51c0-1.8,1.5-3.3,3.3-3.3h56.3c1.8,0,3.3,1.5,3.3,3.3v56.3
		C250.7,109.2,249.2,110.7,247.4,110.7z M191.1,48.9c-1.2,0-2.1,0.9-2.1,2.1v56.3c0,1.2,0.9,2.1,2.1,2.1h56.3c1.2,0,2.1-0.9,2.1-2.1
		V51c0-1.2-0.9-2.1-2.1-2.1H191.1z"/>
</g>
<g>
	<g>
		<path class="st2" d="M264.7,79.8H255V48.2c0-1.3-0.5-2.5-1.4-3.4s-2.1-1.4-3.4-1.4h-61.9c-1.3,0-2.5,0.5-3.4,1.4s-1.4,2.1-1.4,3.4
			v29h-1.2v-29c0-1.6,0.6-3.1,1.8-4.3c1.1-1.1,2.6-1.8,4.3-1.8h61.9c1.6,0,3.1,0.6,4.3,1.8c1.1,1.1,1.8,2.6,1.8,4.3v30.4h8.4v1.2
			C264.8,79.8,264.7,79.8,264.7,79.8z"/>
	</g>
	<g>
		<polygon class="st2" points="263.8,82.2 269,79.2 263.8,76.1 		"/>
	</g>
</g>
<g>
	<g class="st0">
		<path class="st3" d="M33.7,62.9H33v1.3h-1.3v-4.8h2.2c0.4,0,0.8,0.1,1.1,0.2s0.6,0.3,0.7,0.6c0.2,0.3,0.3,0.6,0.3,0.9
			c0,0.3-0.1,0.6-0.2,0.9c-0.2,0.3-0.4,0.5-0.7,0.6l1,1.5h-1.4L33.7,62.9z M34.3,60.7c-0.1-0.1-0.3-0.2-0.6-0.2H33v1.4h0.7
			c0.3,0,0.5-0.1,0.6-0.2c0.1-0.1,0.2-0.3,0.2-0.5S34.4,60.8,34.3,60.7z"/>
		<path class="st3" d="M40.4,63.1v1h-3.8v-4.8h3.7v1h-2.4v0.8H40v1h-2.1V63L40.4,63.1L40.4,63.1z"/>
		<path class="st3" d="M41.2,59.4h2.3c0.5,0,1,0.1,1.4,0.3s0.7,0.5,0.9,0.8c0.2,0.4,0.3,0.8,0.3,1.3s-0.1,0.9-0.3,1.3
			s-0.5,0.6-0.9,0.8s-0.9,0.3-1.4,0.3h-2.3V59.4z M43.4,63.1c0.4,0,0.7-0.1,1-0.3c0.2-0.2,0.4-0.6,0.4-1s-0.1-0.7-0.4-1
			s-0.6-0.3-1-0.3h-0.9v2.6H43.4z"/>
		<path class="st3" d="M47.3,63.7c-0.4-0.4-0.6-0.9-0.6-1.6v-2.6H48V62c0,0.8,0.3,1.1,0.9,1.1c0.6,0,0.9-0.4,0.9-1.1v-2.6h1.3V62
			c0,0.7-0.2,1.3-0.6,1.6c-0.4,0.4-0.9,0.6-1.6,0.6S47.7,64.1,47.3,63.7z"/>
		<path class="st3" d="M56.2,63.1v1.1h-4.3v-0.8l2.4-2.8H52v-1.1h4.1v0.8l-2.4,2.8H56.2z"/>
		<path class="st3" d="M56.8,59.4h1.3v4.8h-1.3V59.4z"/>
		<path class="st3" d="M61.1,62.9h-0.7v1.3h-1.3v-4.8h2.2c0.4,0,0.8,0.1,1.1,0.2s0.6,0.3,0.7,0.6c0.2,0.3,0.3,0.6,0.3,0.9
			c0,0.3-0.1,0.6-0.2,0.9c-0.2,0.3-0.4,0.5-0.7,0.6l1,1.5H62L61.1,62.9z M61.8,60.7c-0.1-0.1-0.3-0.2-0.6-0.2h-0.7v1.4h0.7
			c0.3,0,0.5-0.1,0.6-0.2c0.1-0.1,0.2-0.3,0.2-0.5S61.9,60.8,61.8,60.7z"/>
	</g>
</g>
<g>
	<g class="st0">
		<path class="st3" d="M117,64.1c-0.4-0.1-0.7-0.2-0.9-0.4l0.4-1c0.2,0.1,0.5,0.3,0.7,0.3c0.3,0.1,0.6,0.1,0.8,0.1
			c0.5,0,0.8-0.1,0.8-0.4c0-0.1-0.1-0.2-0.2-0.3s-0.4-0.1-0.7-0.2c-0.4-0.1-0.7-0.2-0.9-0.2c-0.2-0.1-0.4-0.2-0.6-0.4
			s-0.3-0.5-0.3-0.8s0.1-0.6,0.2-0.8s0.4-0.4,0.7-0.6s0.7-0.2,1.2-0.2c0.3,0,0.6,0,0.9,0.1s0.6,0.2,0.8,0.3l-0.4,1
			c-0.5-0.2-0.9-0.4-1.3-0.4c-0.3,0-0.5,0-0.6,0.1s-0.2,0.2-0.2,0.3s0.1,0.2,0.2,0.3s0.4,0.1,0.7,0.2c0.4,0.1,0.7,0.2,0.9,0.2
			c0.2,0.1,0.4,0.2,0.6,0.4s0.3,0.5,0.3,0.8s-0.1,0.5-0.2,0.8c-0.2,0.2-0.4,0.4-0.7,0.6c-0.3,0.1-0.7,0.2-1.2,0.2
			C117.8,64.3,117.4,64.2,117,64.1z"/>
		<path class="st3" d="M124.7,63.1v1h-3.8v-4.8h3.7v1h-2.4v0.8h2.1v1h-2.1V63L124.7,63.1L124.7,63.1z"/>
		<path class="st3" d="M128.8,59.6c0.3,0.1,0.6,0.3,0.7,0.6c0.2,0.3,0.3,0.6,0.3,0.9c0,0.4-0.1,0.7-0.3,0.9s-0.4,0.5-0.7,0.6
			s-0.7,0.2-1.1,0.2h-0.8V64h-1.3v-4.8h2.2C128.1,59.4,128.4,59.5,128.8,59.6z M128.2,61.7c0.1-0.1,0.2-0.3,0.2-0.5
			s-0.1-0.4-0.2-0.5c-0.1-0.1-0.3-0.2-0.6-0.2h-0.7v1.4h0.7C127.8,61.9,128,61.8,128.2,61.7z"/>
		<path class="st3" d="M133.4,63.3h-2l-0.4,0.9h-1.4l2.1-4.8h1.3l2.1,4.8h-1.4L133.4,63.3z M133,62.3l-0.6-1.5l-0.6,1.5H133z"/>
		<path class="st3" d="M137.6,62.9h-0.7v1.3h-1.3v-4.8h2.2c0.4,0,0.8,0.1,1.1,0.2s0.6,0.3,0.7,0.6c0.2,0.3,0.3,0.6,0.3,0.9
			c0,0.3-0.1,0.6-0.2,0.9c-0.2,0.3-0.4,0.5-0.7,0.6l1,1.5h-1.4L137.6,62.9z M138.2,60.7c-0.1-0.1-0.3-0.2-0.6-0.2h-0.7v1.4h0.7
			c0.3,0,0.5-0.1,0.6-0.2c0.1-0.1,0.2-0.3,0.2-0.5S138.4,60.8,138.2,60.7z"/>
		<path class="st3" d="M143.7,63.3h-2l-0.4,0.9H140l2.1-4.8h1.3l2.1,4.8h-1.4L143.7,63.3z M143.3,62.3l-0.6-1.5l-0.6,1.5H143.3z"/>
		<path class="st3" d="M148,62.9h-0.7v1.3H146v-4.8h2.2c0.4,0,0.8,0.1,1.1,0.2s0.6,0.3,0.7,0.6c0.2,0.3,0.3,0.6,0.3,0.9
			c0,0.3-0.1,0.6-0.2,0.9c-0.2,0.3-0.4,0.5-0.7,0.6l1,1.5H149L148,62.9z M148.6,60.7c-0.1-0.1-0.3-0.2-0.6-0.2h-0.7v1.4h0.7
			c0.3,0,0.5-0.1,0.6-0.2c0.1-0.1,0.2-0.3,0.2-0.5S148.7,60.8,148.6,60.7z"/>
	</g>
</g>
<g>
	<g class="st0">
		<path class="st3" d="M203.5,64c-0.4-0.2-0.7-0.5-0.9-0.9s-0.3-0.8-0.3-1.3s0.1-0.9,0.3-1.3c0.2-0.4,0.5-0.7,0.9-0.9
			s0.8-0.3,1.3-0.3c0.4,0,0.8,0.1,1.2,0.2c0.3,0.2,0.6,0.4,0.9,0.7L206,61c-0.3-0.4-0.7-0.6-1.1-0.6c-0.3,0-0.5,0.1-0.7,0.2
			c-0.2,0.1-0.4,0.3-0.5,0.5s-0.2,0.4-0.2,0.7s0.1,0.5,0.2,0.7c0.1,0.2,0.3,0.4,0.5,0.5s0.4,0.2,0.7,0.2c0.4,0,0.8-0.2,1.1-0.6
			l0.9,0.8c-0.2,0.3-0.5,0.5-0.9,0.7c-0.3,0.2-0.7,0.2-1.2,0.2C204.4,64.3,203.9,64.2,203.5,64z"/>
		<path class="st3" d="M208.5,64c-0.4-0.2-0.7-0.5-0.9-0.9s-0.3-0.8-0.3-1.3s0.1-0.9,0.3-1.3c0.2-0.4,0.5-0.7,0.9-0.9
			s0.9-0.3,1.4-0.3s1,0.1,1.4,0.3s0.7,0.5,0.9,0.9s0.3,0.8,0.3,1.3s-0.1,0.9-0.3,1.3c-0.2,0.4-0.5,0.7-0.9,0.9
			c-0.4,0.2-0.9,0.3-1.4,0.3C209.3,64.3,208.9,64.2,208.5,64z M210.5,63c0.2-0.1,0.3-0.3,0.5-0.5c0.1-0.2,0.2-0.4,0.2-0.7
			s-0.1-0.5-0.2-0.7c-0.1-0.2-0.3-0.4-0.5-0.5s-0.4-0.2-0.7-0.2s-0.5,0.1-0.7,0.2c-0.2,0.1-0.3,0.3-0.5,0.5
			c-0.1,0.2-0.2,0.4-0.2,0.7s0.1,0.5,0.2,0.7c0.1,0.2,0.3,0.4,0.5,0.5s0.4,0.2,0.7,0.2S210.3,63.1,210.5,63z"/>
		<path class="st3" d="M213.2,59.4h1.3v3.7h2.3v1.1h-3.6V59.4z"/>
		<path class="st3" d="M221.1,63.1v1h-3.8v-4.8h3.7v1h-2.4v0.8h2.1v1h-2.1V63L221.1,63.1L221.1,63.1z"/>
		<path class="st3" d="M222.9,60.5h-1.5v-1.1h4.3v1.1h-1.5v3.7h-1.3V60.5z"/>
		<path class="st3" d="M229.2,63.3h-2l-0.4,0.9h-1.4l2.1-4.8h1.3l2.1,4.8h-1.4L229.2,63.3z M228.8,62.3l-0.6-1.5l-0.6,1.5H228.8z"/>
		<path class="st3" d="M233.4,62.9h-0.7v1.3h-1.3v-4.8h2.2c0.4,0,0.8,0.1,1.1,0.2s0.6,0.3,0.7,0.6c0.2,0.3,0.3,0.6,0.3,0.9
			c0,0.3-0.1,0.6-0.2,0.9c-0.2,0.3-0.4,0.5-0.7,0.6l1,1.5h-1.4L233.4,62.9z M234,60.7c-0.1-0.1-0.3-0.2-0.6-0.2h-0.7v1.4h0.7
			c0.3,0,0.5-0.1,0.6-0.2c0.1-0.1,0.2-0.3,0.2-0.5S234.2,60.8,234,60.7z"/>
	</g>
</g>
<g>
	<g class="st0">
		<path class="st3" d="M281.7,60.5h-1.5v-1.1h4.3v1.1H283v3.7h-1.3V60.5z"/>
		<path class="st3" d="M287.1,62.9h-0.7v1.3H285v-4.8h2.2c0.4,0,0.8,0.1,1.1,0.2s0.6,0.3,0.7,0.6c0.2,0.3,0.3,0.6,0.3,0.9
			c0,0.3-0.1,0.6-0.2,0.9c-0.2,0.3-0.4,0.5-0.7,0.6l1,1.5H288L287.1,62.9z M287.7,60.7c-0.1-0.1-0.3-0.2-0.6-0.2h-0.7v1.4h0.7
			c0.3,0,0.5-0.1,0.6-0.2c0.1-0.1,0.2-0.3,0.2-0.5C288,61,287.9,60.8,287.7,60.7z"/>
		<path class="st3" d="M293.2,63.3h-2l-0.4,0.9h-1.4l2.1-4.8h1.3l2.1,4.8h-1.4L293.2,63.3z M292.9,62.3l-0.6-1.5l-0.6,1.5H292.9z"/>
		<path class="st3" d="M299.9,59.4v4.8h-1.1l-2.1-2.5v2.5h-1.3v-4.8h1.1l2.1,2.5v-2.5C298.6,59.4,299.9,59.4,299.9,59.4z"/>
		<path class="st3" d="M301.4,64.1c-0.4-0.1-0.7-0.2-0.9-0.4l0.4-1c0.2,0.1,0.5,0.3,0.7,0.3c0.3,0.1,0.6,0.1,0.8,0.1
			c0.5,0,0.8-0.1,0.8-0.4c0-0.1-0.1-0.2-0.2-0.3s-0.4-0.1-0.7-0.2c-0.4-0.1-0.7-0.2-0.9-0.2c-0.2-0.1-0.4-0.2-0.6-0.4
			s-0.3-0.5-0.3-0.8s0.1-0.6,0.2-0.8c0.2-0.2,0.4-0.4,0.7-0.6c0.3-0.1,0.7-0.2,1.2-0.2c0.3,0,0.6,0,0.9,0.1s0.6,0.2,0.8,0.3l-0.4,1
			c-0.5-0.2-0.9-0.4-1.3-0.4c-0.3,0-0.5,0-0.6,0.1s-0.2,0.2-0.2,0.3s0.1,0.2,0.2,0.3s0.4,0.1,0.7,0.2c0.4,0.1,0.7,0.2,0.9,0.2
			c0.2,0.1,0.4,0.2,0.6,0.4s0.3,0.5,0.3,0.8s-0.1,0.5-0.2,0.8c-0.2,0.2-0.4,0.4-0.7,0.6c-0.3,0.1-0.7,0.2-1.2,0.2
			C302.2,64.3,301.8,64.2,301.4,64.1z"/>
		<path class="st3" d="M308.6,59.6c0.3,0.1,0.6,0.3,0.7,0.6c0.2,0.3,0.3,0.6,0.3,0.9c0,0.4-0.1,0.7-0.3,0.9
			c-0.2,0.3-0.4,0.5-0.7,0.6c-0.3,0.1-0.7,0.2-1.1,0.2h-0.8V64h-1.3v-4.8h2.2C307.9,59.4,308.3,59.5,308.6,59.6z M308,61.7
			c0.1-0.1,0.2-0.3,0.2-0.5s-0.1-0.4-0.2-0.5s-0.3-0.2-0.6-0.2h-0.7v1.4h0.7C307.7,61.9,307.9,61.8,308,61.7z"/>
		<path class="st3" d="M311.3,64c-0.4-0.2-0.7-0.5-0.9-0.9s-0.3-0.8-0.3-1.3s0.1-0.9,0.3-1.3s0.5-0.7,0.9-0.9s0.9-0.3,1.4-0.3
			s1,0.1,1.4,0.3s0.7,0.5,0.9,0.9c0.2,0.4,0.3,0.8,0.3,1.3s-0.1,0.9-0.3,1.3c-0.2,0.4-0.5,0.7-0.9,0.9c-0.4,0.2-0.9,0.3-1.4,0.3
			S311.7,64.2,311.3,64z M313.3,63c0.2-0.1,0.3-0.3,0.5-0.5c0.1-0.2,0.2-0.4,0.2-0.7s-0.1-0.5-0.2-0.7s-0.3-0.4-0.5-0.5
			s-0.4-0.2-0.7-0.2s-0.5,0.1-0.7,0.2c-0.2,0.1-0.3,0.3-0.5,0.5c-0.1,0.2-0.2,0.4-0.2,0.7s0.1,0.5,0.2,0.7s0.3,0.4,0.5,0.5
			s0.4,0.2,0.7,0.2S313.2,63.1,313.3,63z"/>
		<path class="st3" d="M318.1,62.9h-0.7v1.3H316v-4.8h2.2c0.4,0,0.8,0.1,1.1,0.2s0.6,0.3,0.7,0.6c0.2,0.3,0.3,0.6,0.3,0.9
			c0,0.3-0.1,0.6-0.2,0.9c-0.2,0.3-0.4,0.5-0.7,0.6l1,1.5H319L318.1,62.9z M318.8,60.7c-0.1-0.1-0.3-0.2-0.6-0.2h-0.7v1.4h0.7
			c0.3,0,0.5-0.1,0.6-0.2c0.1-0.1,0.2-0.3,0.2-0.5S318.9,60.8,318.8,60.7z"/>
		<path class="st3" d="M322,60.5h-1.5v-1.1h4.3v1.1h-1.5v3.7H322V60.5z"/>
		<path class="st3" d="M328.3,63.3h-2l-0.4,0.9h-1.4l2.1-4.8h1.3l2.1,4.8h-1.4L328.3,63.3z M327.9,62.3l-0.6-1.5l-0.6,1.5H327.9z"/>
		<path class="st3" d="M332.5,62.9h-0.7v1.3h-1.3v-4.8h2.2c0.4,0,0.8,0.1,1.1,0.2s0.6,0.3,0.7,0.6c0.2,0.3,0.3,0.6,0.3,0.9
			c0,0.3-0.1,0.6-0.2,0.9c-0.2,0.3-0.4,0.5-0.7,0.6l1,1.5h-1.4L332.5,62.9z M333.2,60.7c-0.1-0.1-0.3-0.2-0.6-0.2h-0.7v1.4h0.7
			c0.3,0,0.5-0.1,0.6-0.2c0.1-0.1,0.2-0.3,0.2-0.5C333.4,61,333.3,60.8,333.2,60.7z"/>
	</g>
</g>
<g>
	<g>
		<g>
			<g>
				<path class="st3" d="M135.2,77.7c0,3.3,2.7,6,6,6c3.2,0,5.8-2.5,6-5.6c0,0.3,0.1,0.7,0.1,1c0,4.1-3,7.5-7,8
					c0.4,0.9,0.6,1.9,0.6,3c0,4.2-3.2,7.6-7.2,8.1c2.8-0.5,5-3,5-6c0-3.3-2.7-6-6-6s-6,2.7-6,6c0,2.6,1.7,4.9,4,5.7
					c-3.4-1-5.9-4.1-5.9-7.8c0-1.1,0.2-2.1,0.6-3c-3.4-0.7-6-3.5-6.4-7c0.9,2.3,3.1,3.9,5.7,3.9c3.3,0,6-2.7,6-6s-2.7-6-6-6
					c-0.6,0-1.1,0.1-1.7,0.2c1.2-0.7,2.6-1.1,4-1.1c2.5,0,4.7,1.1,6.2,2.8c1.5-1.7,3.7-2.8,6.2-2.8c1.2,0,2.3,0.3,3.4,0.7
					c-0.4-0.1-0.9-0.2-1.4-0.2C137.9,71.7,135.2,74.4,135.2,77.7z M133,80.5c-1.2,0-2.1,0.9-2.1,2.1s0.9,2.1,2.1,2.1
					c1.2,0,2.1-0.9,2.1-2.1C135.2,81.4,134.2,80.5,133,80.5z"/>
			</g>
		</g>
		<g>
			<path class="st3" d="M135.3,89.1c-2.7,1-5.8,0.1-7.6-2.1c-0.9-1.1-1.5-2.5-1.6-3.9s0.2-2.8,1-4c1.5-2.5,4.5-3.8,7.3-3.2
				c2.7,0.5,5,2.9,5.4,5.6c0.1,0.4,0.1,0.8,0.1,1.1C139.9,85.5,138,88.1,135.3,89.1z M138.5,83.4L138.5,83.4L138.5,83.4z
				 M135.1,87.8C135.2,87.7,135.2,87.7,135.1,87.8L135.1,87.8z M130.8,87.8C130.8,87.7,130.7,87.7,130.8,87.8L130.8,87.8z M128.5,86
				L128.5,86C128.6,86.1,128.6,86,128.5,86z M127.4,81.8L127.4,81.8L127.4,81.8z M130.8,77.4C130.8,77.5,130.7,77.5,130.8,77.4
				L130.8,77.4z M132.2,77.1C132.2,77.1,132.1,77.1,132.2,77.1L132.2,77.1z M133.7,77C133.8,77.1,133.7,77.1,133.7,77L133.7,77z
				 M138.1,80.4C138.1,80.3,138.1,80.4,138.1,80.4L138.1,80.4z M138.5,82.1c0-0.1,0-0.2,0-0.2s0,0,0-0.1v-0.1
				c-0.1-0.3-0.1-0.6-0.2-0.9c0-0.1-0.1-0.3-0.1-0.4l0,0v-0.1c0-0.1-0.1-0.1-0.1-0.2c-0.1-0.3-0.3-0.5-0.5-0.8
				c0-0.1-0.1-0.1-0.1-0.2l-0.1-0.1c-0.1-0.1-0.2-0.2-0.3-0.3c-0.1-0.1-0.2-0.2-0.3-0.3c-0.1-0.1-0.1-0.1-0.2-0.2c0,0-0.1,0-0.1-0.1
				l0,0l0,0c-0.2-0.2-0.5-0.3-0.7-0.5c-0.1-0.1-0.3-0.1-0.4-0.2h-0.1l0,0c-0.1,0-0.2-0.1-0.2-0.1c-0.3-0.1-0.6-0.2-0.9-0.2
				c-0.1,0-0.1,0-0.2,0h-0.1l0,0c-0.2,0-0.3,0-0.5,0c-0.3,0-0.7,0-1,0l0,0c0,0,0,0-0.1,0s-0.2,0-0.2,0c-0.2,0-0.3,0.1-0.5,0.1
				c-0.1,0-0.3,0.1-0.4,0.1c-0.1,0-0.1,0.1-0.2,0.1l0,0c0,0-0.1,0-0.1,0.1c-0.3,0.1-0.5,0.3-0.8,0.4c-0.1,0.1-0.2,0.2-0.3,0.2l0,0
				c0,0-0.1,0-0.1,0.1c-0.1,0.1-0.1,0.1-0.2,0.2c-0.2,0.2-0.4,0.4-0.6,0.6l-0.1,0.1c0,0.1-0.1,0.1-0.1,0.2c-0.1,0.1-0.2,0.3-0.3,0.4
				s-0.2,0.3-0.2,0.4s-0.1,0.1-0.1,0.2v0.1l0,0l0,0c-0.1,0.3-0.2,0.6-0.3,0.9c0,0.1-0.1,0.3-0.1,0.4v0.1l0,0c0,0.1,0,0.2,0,0.2
				c0,0.3,0,0.7,0,1c0,0.1,0,0.2,0,0.2l0,0v0.1c0,0.2,0.1,0.3,0.1,0.5c0.1,0.3,0.2,0.6,0.3,0.9v0.1c0,0.1,0.1,0.1,0.1,0.2
				c0.1,0.1,0.1,0.3,0.2,0.4c0.1,0.1,0.2,0.2,0.2,0.4c0,0.1,0.1,0.1,0.1,0.2l0.1,0.1c0.2,0.2,0.4,0.4,0.6,0.6c0,0,0.1,0.1,0.2,0.1
				l0.1,0.1c0.1,0.1,0.2,0.2,0.3,0.2c0.3,0.2,0.5,0.3,0.8,0.4h0.1l0,0c0.1,0,0.1,0,0.2,0.1c0.1,0.1,0.3,0.1,0.4,0.1
				c0.1,0,0.3,0.1,0.4,0.1c0.1,0,0.2,0,0.2,0h0.1c0,0,0,0,0.1,0c0.3,0,0.6,0,0.9,0c0.2,0,0.3,0,0.5,0c0,0,0,0,0.1,0c0,0,0,0,0.1,0
				s0.2,0,0.3,0c0.3-0.1,0.6-0.1,0.9-0.3c0.1,0,0.1,0,0.2-0.1l0,0h0.1c0.1-0.1,0.3-0.1,0.4-0.2c0.3-0.1,0.5-0.3,0.7-0.5l0.1-0.1
				c0.1,0,0.1-0.1,0.2-0.2c0.1-0.1,0.2-0.2,0.3-0.3c0.1-0.1,0.2-0.2,0.3-0.3l0.1-0.1c0-0.1,0.1-0.1,0.1-0.2c0.2-0.3,0.3-0.5,0.5-0.8
				c0-0.1,0.1-0.1,0.1-0.2v-0.1l0,0c0.1-0.2,0.1-0.3,0.2-0.5c0.1-0.3,0.2-0.6,0.2-0.9c0,0,0,0,0-0.1l0,0c0-0.1,0-0.2,0-0.2
				C138.6,82.5,138.6,82.4,138.5,82.1C138.5,82.4,138.5,82.3,138.5,82.1z"/>
		</g>
	</g>
</g>
<g>
	<g>
		<g>
			<g>
				<g>
					<defs>
						<rect id="SVGID_1_" x="-6.1" y="303.9" width="377.4" height="208.2"/>
					</defs>
					<clipPath id="SVGID_2_">
						<use xlink:href="#SVGID_1_"  style="overflow:visible;"/>
					</clipPath>
					<g id="zSJnti.tif" class="st4">
					</g>
				</g>
			</g>
		</g>
	</g>
</g>
<g>
	<path class="st3" d="M24.5,79.7h1v22.4c0,0.8,0.6,1.4,1.4,1.4h16.3c0.8,0,1.4-0.6,1.4-1.4V79.7h1v-1.9H24.5V79.7z M28.3,101.7
		c0,0.3-0.2,0.5-0.4,0.5h-0.2c-0.2,0-0.4-0.2-0.4-0.5V80.9c0-0.3,0.2-0.5,0.4-0.5h0.2c0.2,0,0.4,0.2,0.4,0.5V101.7z M30.8,101.7
		c0,0.3-0.2,0.5-0.4,0.5h-0.2c-0.2,0-0.4-0.2-0.4-0.5V80.9c0-0.3,0.2-0.5,0.4-0.5h0.2c0.2,0,0.4,0.2,0.4,0.5V101.7z M33.2,101.7
		c0,0.3-0.2,0.5-0.4,0.5h-0.2c-0.2,0-0.4-0.2-0.4-0.5V80.9c0-0.3,0.2-0.5,0.4-0.5h0.2c0.2,0,0.4,0.2,0.4,0.5V101.7z M35.7,101.7
		c0,0.3-0.2,0.5-0.4,0.5h-0.2c-0.2,0-0.4-0.2-0.4-0.5V80.9c0-0.3,0.2-0.5,0.4-0.5h0.2c0.2,0,0.4,0.2,0.4,0.5V101.7z M38.2,101.7
		c0,0.3-0.2,0.5-0.4,0.5h-0.2c-0.2,0-0.4-0.2-0.4-0.5V80.9c0-0.3,0.2-0.5,0.4-0.5h0.2c0.2,0,0.4,0.2,0.4,0.5V101.7z M40.7,101.7
		c0,0.3-0.2,0.5-0.4,0.5H40c-0.2,0-0.4-0.2-0.4-0.5V80.9c0-0.3,0.2-0.5,0.4-0.5h0.2c0.2,0,0.4,0.2,0.4,0.5L40.7,101.7L40.7,101.7z
		 M43.2,101.7c0,0.3-0.2,0.5-0.4,0.5h-0.2c-0.2,0-0.4-0.2-0.4-0.5V80.9c0-0.3,0.2-0.5,0.4-0.5h0.2c0.2,0,0.4,0.2,0.4,0.5V101.7z"/>
	<path class="st5" d="M24.6,77.7l21.1-1.8L45.5,74l-6.4,0.5L39,73.7c-0.1-1.2-1.1-2-2.3-1.9l-4.1,0.3c-1.2,0.1-2,1.1-1.9,2.3
		l0.1,0.8l-6.4,0.5L24.6,77.7z M32.2,74.3c0-0.4,0.3-0.7,0.6-0.8l4.1-0.3c0.4,0,0.7,0.3,0.8,0.6l0.1,0.8l-5.5,0.5L32.2,74.3z"/>
</g>
<g>
	<path class="st3" d="M231.4,91.7c0-2.6-2.2-17.9-11.6-17.9l0,0c-9.4,0-11.6,15.3-11.6,17.9s-1.6,12.4,11.6,12.4l0,0
		C233,104.1,231.4,94.3,231.4,91.7z M228.7,86.3c-0.1-0.4-0.3-1-0.6-1.7c-0.1-0.4-0.3-0.7-0.4-1.1c-0.2-0.4-0.4-0.8-0.5-1.2
		c-0.2-0.4-0.4-0.9-0.6-1.3c-0.2-0.4-0.5-0.9-0.7-1.3s-0.5-0.8-0.8-1.2c-0.3-0.4-0.6-0.8-0.9-1.1c-0.3-0.4-0.6-0.7-1-0.9
		c-0.2-0.2-0.3-0.2-0.5-0.4c-0.2-0.1-0.3-0.2-0.5-0.3c-0.3-0.2-0.6-0.4-0.9-0.4c-0.3-0.1-0.5-0.2-0.8-0.2c-0.4-0.1-0.7-0.1-0.7-0.1
		s0.3,0,0.7,0c0.2,0,0.5,0.1,0.8,0.1s0.6,0.2,1,0.4c0.2,0.1,0.3,0.2,0.5,0.3c0.2,0.1,0.4,0.2,0.5,0.4c0.4,0.3,0.7,0.6,1.1,0.9
		c0.4,0.3,0.7,0.7,1,1.1s0.6,0.8,0.9,1.3c0.3,0.4,0.5,0.9,0.7,1.3c0.2,0.5,0.4,0.9,0.6,1.4c0.4,0.9,0.6,1.7,0.8,2.5
		c0.1,0.4,0.2,0.7,0.2,1c0.1,0.3,0.1,0.6,0.2,0.8c0.1,0.4,0.1,0.7,0.1,0.7S228.9,86.7,228.7,86.3z"/>
	<g>
		<path class="st3" d="M219.8,69.3c-0.8,0-0.8,0.4-1.1,0.5c-0.3,0.2-0.8-0.1-1.4-0.5c-0.6-0.3-1.8,1-1.8,1l1.2,3.5
			c0.9-0.4,2-0.6,3.1-0.6V69.3z"/>
		<path class="st3" d="M219.8,74.1v-0.3l0,0c-0.7,0-1.4,0.1-2,0.3H219.8z"/>
		<path class="st3" d="M224,70.3c0,0-1.2-1.3-1.8-1s-1,0.6-1.4,0.5c-0.3-0.1-0.3-0.5-1.1-0.5v4c1.1,0,2.1,0.2,3.1,0.6L224,70.3z"/>
		<path class="st3" d="M221.8,74.1c-0.6-0.2-1.3-0.3-2-0.3v0.3H221.8z"/>
	</g>
</g>
<g>
	<path class="st3" d="M298.4,79.5h-5.1c-0.6,0-1.1,0.4-1.4,0.9l-3.9,9l-2.4,2.5c-0.3,0.3-0.4,0.7-0.4,1.1v3.5h-0.9V98h0.9h3.8h0.6
		c0-2,1.6-3.7,3.7-3.7c2,0,3.7,1.6,3.7,3.7h2.5V80.5C299.4,80,299,79.5,298.4,79.5z M285.5,93.6h2.9v1.7h-2.9V93.6z M298,87
		c0,0.6-0.4,1-1,1h-6c-0.2,0-0.3-0.1-0.4-0.2s-0.1-0.3,0-0.5l2.4-5.8c0.2-0.4,0.5-0.6,0.9-0.6h3.1c0.5,0,1,0.5,1,1V87z"/>
	<g>
		<polygon class="st5" points="323.7,77.9 317.7,77.9 326.9,96.7 331.2,93.6 		"/>
		<rect x="308.4" y="79.8" class="st5" width="2.2" height="12.2"/>
		<rect x="313.6" y="79.8" class="st5" width="2.2" height="12.2"/>
		<rect x="303.2" y="79.8" class="st5" width="2.2" height="12.2"/>
		<path class="st5" d="M301.9,77.9c-0.6,0-1,0.4-1,1V98h3c0-2,1.6-3.7,3.7-3.7c2,0,3.7,1.6,3.7,3.7h4c0-2,1.6-3.7,3.7-3.7
			c2,0,3.7,1.6,3.7,3.7h2.5l1.4-1l-9.3-19.1H301.9z M306,92.5h-3.2V79.3h3.2V92.5z M311.1,92.5h-3.2V79.3h3.2V92.5z M316.3,92.5
			h-3.2V79.3h3.2V92.5z"/>
	</g>
	<path class="st3" d="M307.5,94.9c-1.7,0-3.2,1.4-3.2,3.2c0,1.7,1.4,3.2,3.2,3.2c1.7,0,3.2-1.4,3.2-3.2S309.3,94.9,307.5,94.9z
		 M307.5,99.7c-0.9,0-1.6-0.7-1.6-1.6s0.7-1.6,1.6-1.6s1.6,0.7,1.6,1.6C309.2,98.9,308.4,99.7,307.5,99.7z"/>
	<path class="st3" d="M318.9,94.9c-1.7,0-3.2,1.4-3.2,3.2c0,1.7,1.4,3.2,3.2,3.2c1.7,0,3.2-1.4,3.2-3.2S320.6,94.9,318.9,94.9z
		 M318.9,99.7c-0.9,0-1.6-0.7-1.6-1.6s0.7-1.6,1.6-1.6s1.6,0.7,1.6,1.6C320.5,98.9,319.8,99.7,318.9,99.7z"/>
	<path class="st3" d="M293.3,94.9c-1.7,0-3.2,1.4-3.2,3.2c0,1.7,1.4,3.2,3.2,3.2c1.7,0,3.2-1.4,3.2-3.2
		C296.4,96.3,295,94.9,293.3,94.9z M293.3,99.7c-0.9,0-1.6-0.7-1.6-1.6s0.7-1.6,1.6-1.6s1.6,0.7,1.6,1.6
		C294.9,98.9,294.2,99.7,293.3,99.7z"/>
</g>
<g>
	<path class="st3" d="M55.4,88.7H56v14c0,0.5,0.4,0.9,0.9,0.9h10.2c0.5,0,0.9-0.4,0.9-0.9v-14h0.6v-1.2H55.4V88.7z M57.8,102.4
		c0,0.2-0.1,0.3-0.3,0.3h-0.1c-0.2,0-0.3-0.1-0.3-0.3v-13c0-0.2,0.1-0.3,0.3-0.3h0.1c0.2,0,0.3,0.1,0.3,0.3V102.4z M59.3,102.4
		c0,0.2-0.1,0.3-0.3,0.3h-0.1c-0.2,0-0.3-0.1-0.3-0.3v-13c0-0.2,0.1-0.3,0.3-0.3H59c0.2,0,0.3,0.1,0.3,0.3V102.4z M60.9,102.4
		c0,0.2-0.1,0.3-0.3,0.3h-0.1c-0.2,0-0.3-0.1-0.3-0.3v-13c0-0.2,0.1-0.3,0.3-0.3h0.1c0.2,0,0.3,0.1,0.3,0.3V102.4z M62.4,102.4
		c0,0.2-0.1,0.3-0.3,0.3H62c-0.2,0-0.3-0.1-0.3-0.3v-13c0-0.2,0.1-0.3,0.3-0.3h0.1c0.2,0,0.3,0.1,0.3,0.3L62.4,102.4z M64,102.4
		c0,0.2-0.1,0.3-0.3,0.3h-0.1c-0.2,0-0.3-0.1-0.3-0.3v-13c0-0.2,0.1-0.3,0.3-0.3h0.1c0.2,0,0.3,0.1,0.3,0.3V102.4z M65.5,102.4
		c0,0.2-0.1,0.3-0.3,0.3h-0.1c-0.2,0-0.3-0.1-0.3-0.3v-13c0-0.2,0.1-0.3,0.3-0.3h0.1c0.2,0,0.3,0.1,0.3,0.3V102.4z M67.1,102.4
		c0,0.2-0.1,0.3-0.3,0.3h-0.1c-0.2,0-0.3-0.1-0.3-0.3v-13c0-0.2,0.1-0.3,0.3-0.3h0.1c0.2,0,0.3,0.1,0.3,0.3V102.4z"/>
	<path class="st5" d="M55.5,87.4l13.2-1.1l-0.1-1.2l-4,0.3v-0.5c-0.1-0.7-0.7-1.3-1.4-1.2L60.6,84c-0.7,0.1-1.3,0.7-1.2,1.4v0.5
		l-4,0.3L55.5,87.4z M60.3,85.3c0-0.2,0.2-0.5,0.4-0.5l2.5-0.2c0.2,0,0.5,0.2,0.5,0.4v0.5l-3.4,0.3V85.3z"/>
</g>
<path class="st2" d="M54.9,78.2c-1.9-0.7-3.9-0.4-5.5,0.9l-1-1.4c2-1.6,4.7-2,7.1-1.1c1.1,0.4,2.1,1,2.8,1.8l1.2-1.3
	c-0.3,1.4-0.3,3.5-0.1,5c-1.2-1-2.8-2.2-4.2-2.8l1.4-0.2C56.2,78.8,55.6,78.4,54.9,78.2z"/>
<circle class="st2" cx="11.1" cy="80.4" r="2.8"/>
<g>
	<g>
		<g>
			<g>
				<g>
					<path class="st1" d="M221.1,87.5c0,2.2,1.8,3.9,3.9,3.9c2.1,0,3.8-1.6,3.9-3.6c0,0.2,0,0.4,0,0.7c0,2.7-2,4.8-4.5,5.2
						c0.2,0.6,0.4,1.2,0.4,1.9c0,2.7-2.1,4.9-4.7,5.2c1.8-0.3,3.2-1.9,3.2-3.9c0-2.2-1.8-3.9-3.9-3.9s-3.9,1.8-3.9,3.9
						c0,1.7,1.1,3.2,2.6,3.7c-2.2-0.6-3.8-2.6-3.8-5.1c0-0.7,0.1-1.4,0.4-2c-2.2-0.4-3.9-2.3-4.2-4.6c0.6,1.5,2,2.5,3.7,2.5
						c2.2,0,3.9-1.8,3.9-3.9c0-2.2-1.8-3.9-3.9-3.9c-0.4,0-0.7,0.1-1.1,0.1c0.8-0.4,1.7-0.7,2.6-0.7c1.6,0,3,0.7,4,1.8
						c1-1.1,2.4-1.8,4-1.8c0.8,0,1.5,0.2,2.2,0.5c-0.3-0.1-0.6-0.1-0.9-0.1C222.9,83.6,221.1,85.3,221.1,87.5z M219.7,89.3
						c-0.8,0-1.4,0.6-1.4,1.4s0.6,1.4,1.4,1.4c0.8,0,1.4-0.6,1.4-1.4C221.1,89.9,220.5,89.3,219.7,89.3z"/>
				</g>
			</g>
			<g>
				<path class="st1" d="M221.2,94.9c-1.7,0.6-3.8,0.1-5-1.3c-0.6-0.7-1-1.6-1-2.6c-0.1-0.9,0.2-1.8,0.6-2.6c1-1.6,2.9-2.4,4.7-2.1
					s3.2,1.9,3.5,3.6c0,0.2,0.1,0.5,0.1,0.7C224.2,92.5,223,94.2,221.2,94.9z M223.3,91.2L223.3,91.2L223.3,91.2z M221.1,94
					C221.2,94,221.1,94,221.1,94L221.1,94z M218.3,94C218.3,94,218.2,94,218.3,94L218.3,94z M216.8,92.9L216.8,92.9
					C216.9,92.9,216.8,92.9,216.8,92.9z M216.1,90.2C216.1,90.1,216.1,90.1,216.1,90.2L216.1,90.2z M218.3,87.3
					C218.3,87.3,218.2,87.3,218.3,87.3L218.3,87.3z M219.2,87.1L219.2,87.1L219.2,87.1z M220.2,87.1L220.2,87.1L220.2,87.1z
					 M223,89.2L223,89.2L223,89.2z M223.3,90.4c0-0.1,0-0.1,0-0.2l0,0v-0.1c0-0.2-0.1-0.4-0.1-0.6c0-0.1-0.1-0.2-0.1-0.3l0,0
					c0,0,0,0,0-0.1c0,0,0-0.1-0.1-0.1c-0.1-0.2-0.2-0.4-0.3-0.5c0,0,0-0.1-0.1-0.1c0,0,0-0.1-0.1-0.1c-0.1-0.1-0.1-0.2-0.2-0.2
					c-0.1-0.1-0.1-0.1-0.2-0.2l-0.1-0.1c0,0,0,0-0.1,0l0,0l0,0c-0.2-0.1-0.3-0.2-0.5-0.3c-0.1,0-0.2-0.1-0.3-0.1c0,0,0,0-0.1,0l0,0
					c-0.1,0-0.1,0-0.2-0.1c-0.2-0.1-0.4-0.1-0.6-0.2h-0.1c0,0,0,0-0.1,0l0,0c-0.1,0-0.2,0-0.3,0c-0.2,0-0.4,0-0.6,0l0,0l0,0
					c-0.1,0-0.1,0-0.2,0c-0.1,0-0.2,0-0.3,0.1c-0.1,0-0.2,0.1-0.3,0.1c0,0-0.1,0-0.1,0.1l0,0h-0.1c-0.2,0.1-0.3,0.2-0.5,0.3
					c-0.1,0.1-0.2,0.1-0.2,0.2l0,0c0,0,0,0-0.1,0l-0.1,0.1c-0.1,0.1-0.3,0.3-0.4,0.4c0,0,0,0.1-0.1,0.1l-0.1,0.1
					c-0.1,0.1-0.1,0.2-0.2,0.3c-0.1,0.1-0.1,0.2-0.1,0.3c0,0,0,0.1-0.1,0.1c0,0,0,0,0,0.1l0,0l0,0c-0.1,0.2-0.1,0.4-0.2,0.6
					c0,0.1,0,0.2-0.1,0.3c0,0,0,0,0,0.1l0,0c0,0.1,0,0.1,0,0.2c0,0.2,0,0.4,0,0.6c0,0.1,0,0.1,0,0.2l0,0l0,0c0,0.1,0,0.2,0.1,0.3
					c0,0.2,0.1,0.4,0.2,0.6c0,0,0,0,0,0.1c0,0,0,0.1,0.1,0.1c0,0.1,0.1,0.2,0.1,0.3c0,0.1,0.1,0.2,0.2,0.2l0.1,0.1
					c0,0,0,0.1,0.1,0.1c0.1,0.1,0.3,0.3,0.4,0.4l0.1,0.1l0.1,0.1c0.1,0.1,0.1,0.1,0.2,0.2c0.2,0.1,0.3,0.2,0.5,0.3c0,0,0,0,0.1,0
					l0,0h0.1c0.1,0,0.2,0.1,0.3,0.1s0.2,0,0.3,0.1c0.1,0,0.1,0,0.2,0c0,0,0,0,0.1,0l0,0c0.2,0,0.4,0,0.6,0c0.1,0,0.2,0,0.3,0l0,0
					l0,0c0.1,0,0.1,0,0.2,0c0.2,0,0.4-0.1,0.6-0.2h0.1l0,0c0,0,0,0,0.1,0s0.2-0.1,0.3-0.1c0.2-0.1,0.3-0.2,0.5-0.3
					c0,0,0.1,0,0.1-0.1l0.1-0.1c0.1-0.1,0.1-0.1,0.2-0.2c0.1-0.1,0.1-0.1,0.2-0.2l0.1-0.1c0,0,0-0.1,0.1-0.1
					c0.1-0.2,0.2-0.3,0.3-0.5c0,0,0-0.1,0.1-0.1c0,0,0,0,0-0.1l0,0c0-0.1,0.1-0.2,0.1-0.3c0.1-0.2,0.1-0.4,0.1-0.6l0,0l0,0
					c0-0.1,0-0.1,0-0.2s0-0.2,0-0.3C223.3,90.6,223.3,90.5,223.3,90.4z"/>
			</g>
		</g>
	</g>
</g>
</svg>
