<?xml version="1.0" encoding="utf-8"?>
<!-- Generator: Adobe Illustrator 24.1.1, SVG Export Plug-In . SVG Version: 6.00 Build 0)  -->
<svg version="1.1" id="Layer_1" xmlns="http://www.w3.org/2000/svg" xmlns:xlink="http://www.w3.org/1999/xlink" x="0px" y="0px"
	 viewBox="0 0 316 69" style="enable-background:new 0 0 316 69;" xml:space="preserve">
<style type="text/css">
	.st0{fill:#FFFFFF;}
	.st1{fill:#006D97;}
</style>
<g>
	<g>
		<path class="st0" d="M10,46.4l0.7-9.6c0.2,0,0.4,0,0.7,0c0.3,0,0.5,0,0.7,0l1.6,5c0.1,0.2,0.2,0.6,0.3,1.1
			c0.1,0.5,0.2,0.8,0.2,0.9h0.1c0.1-0.6,0.3-1.3,0.6-2.1l1.6-5c0.2,0,0.4,0,0.7,0c0.3,0,0.5,0,0.7,0l0.7,9.6c-0.2,0-0.3,0.1-0.5,0.1
			c-0.2,0-0.4,0-0.5,0l-0.4-5.9c0-0.4-0.1-1.3-0.1-2.7h-0.1l-2.2,7c-0.2,0-0.4,0.1-0.6,0.1c-0.2,0-0.3,0-0.5-0.1l-2.2-7h-0.1
			c0,0.2,0,0.7,0,1.3c0,0.7,0,1.1-0.1,1.3l-0.4,5.9c-0.2,0-0.4,0-0.5,0C10.3,46.4,10.2,46.4,10,46.4"/>
		<path class="st0" d="M20.9,46.4v-9.7c0.1,0,0.3,0,0.5,0c0.2,0,0.4,0,0.6,0v9.7c-0.2,0-0.3,0-0.6,0C21.2,46.4,21.1,46.4,20.9,46.4"
			/>
		<path class="st0" d="M30.9,36.7L30.9,36.7l0.1,9.7c-0.2,0-0.4,0-0.7,0c-0.3,0-0.5,0-0.7,0L26.2,40c-0.3-0.5-0.6-1.2-1-2h0
			c0.1,1.8,0.1,2.8,0.1,3.1v5.3c-0.2,0-0.4,0-0.5,0c-0.1,0-0.3,0-0.5,0v-9.7c0.2,0,0.4,0,0.6,0c0.3,0,0.5,0,0.7,0l3.4,6.4
			c0.2,0.4,0.6,1.1,1,2h0C30,43.9,30,42.8,30,41.9v-4.5c0-0.3,0-0.4,0.1-0.5c0.1-0.1,0.2-0.2,0.5-0.2H30.9z"/>
		<path class="st0" d="M33.3,46.4v-9.7c0.1,0,0.3,0,0.5,0c0.2,0,0.4,0,0.6,0v9.7c-0.2,0-0.3,0-0.6,0C33.6,46.4,33.4,46.4,33.3,46.4"
			/>
		<path class="st0" d="M35.8,45.5c0-0.3,0.2-0.6,0.5-0.9c1,0.7,1.9,1,2.8,1c0.7,0,1.2-0.1,1.6-0.4c0.4-0.3,0.6-0.7,0.6-1.2
			c0-0.7-0.5-1.3-1.5-1.8l-1.7-0.7c-1.3-0.5-1.9-1.3-1.9-2.4c0-0.4,0.1-0.7,0.2-1c0.2-0.3,0.4-0.6,0.6-0.8c0.3-0.2,0.6-0.4,1-0.6
			c0.4-0.1,0.8-0.2,1.3-0.2c0.9,0,1.8,0.2,2.8,0.7c0,0.4-0.1,0.7-0.4,0.9c-0.5-0.2-0.9-0.4-1.3-0.5c-0.4-0.1-0.8-0.2-1.1-0.2
			c-0.3,0-0.6,0-0.8,0.1c-0.2,0.1-0.4,0.2-0.6,0.3c-0.2,0.1-0.3,0.3-0.4,0.5c-0.1,0.2-0.1,0.4-0.1,0.6c0,0.4,0.1,0.7,0.4,1
			c0.2,0.2,0.6,0.4,1,0.6l1.6,0.7c1.4,0.6,2.1,1.5,2.1,2.6c0,0.8-0.3,1.5-0.8,2c-0.6,0.5-1.4,0.7-2.6,0.7
			C37.9,46.6,36.8,46.2,35.8,45.5"/>
		<path class="st0" d="M47.3,37.7l-0.8,0v8.7c-0.1,0-0.3,0-0.5,0c-0.2,0-0.4,0-0.5,0v-8.7l-0.8,0h-1.8c0-0.2,0-0.3,0-0.5
			c0-0.1,0-0.3,0-0.5h6.2c0.1,0.1,0.1,0.3,0.1,0.5c0,0.3-0.2,0.5-0.7,0.5H47.3z"/>
		<path class="st0" d="M51.3,44.9l0,0.5c0.3,0,0.6,0,0.9,0H56c0,0.2,0,0.3,0,0.5c-0.1,0.3-0.3,0.5-0.7,0.5h-4.5
			c-0.2,0-0.3-0.1-0.4-0.2c-0.1-0.1-0.2-0.3-0.2-0.5v-8.9l0.1-0.1h5.5c0,0.1,0,0.3,0,0.4c0,0.2,0,0.3-0.1,0.5h-4.5l0,0.9V41l0.8,0
			h2.9c0,0.2,0,0.3,0,0.5c0,0.1,0,0.3,0,0.5h-2.9c-0.4,0-0.6,0-0.8,0V44.9z M51.8,35.5l2.7-1.6c0.3,0.2,0.5,0.5,0.5,0.9l-2.9,1.2
			C52,35.9,51.9,35.7,51.8,35.5"/>
		<path class="st0" d="M57.8,36.7l2.9,0c1,0,1.7,0.2,2.3,0.7c0.5,0.5,0.8,1.2,0.8,2.1c0,0.6-0.2,1.2-0.5,1.6
			c-0.3,0.5-0.8,0.8-1.4,0.9c0.4,0.1,0.7,0.5,0.9,1.1l0.7,1.9c0.1,0.3,0.2,0.5,0.3,0.6c0.1,0.2,0.2,0.3,0.3,0.4
			c-0.1,0.2-0.4,0.4-0.7,0.4c-0.2,0-0.4-0.1-0.5-0.2c-0.1-0.1-0.2-0.3-0.3-0.6l-0.8-2.2c-0.2-0.4-0.4-0.7-0.6-1
			c-0.2-0.2-0.5-0.3-1-0.3h-1.5v4.1c-0.2,0-0.4,0-0.6,0c-0.2,0-0.4,0-0.5,0L57.8,36.7L57.8,36.7z M58.7,37.6v3.9c0.2,0,0.4,0,0.7,0
			c0.3,0,0.6,0,1,0c0.4,0,0.7-0.1,1-0.2c0.3-0.1,0.5-0.2,0.6-0.4c0.2-0.2,0.3-0.4,0.3-0.6c0.1-0.2,0.1-0.5,0.1-0.7
			c0-0.3,0-0.5-0.1-0.7c-0.1-0.2-0.2-0.4-0.3-0.6c-0.2-0.2-0.4-0.3-0.6-0.4c-0.3-0.1-0.6-0.1-1-0.1h-1
			C59.2,37.6,58.9,37.6,58.7,37.6"/>
		<path class="st0" d="M65.5,46.4v-9.7c0.1,0,0.3,0,0.5,0c0.2,0,0.4,0,0.6,0v9.7c-0.2,0-0.3,0-0.6,0C65.9,46.4,65.7,46.4,65.5,46.4"
			/>
		<path class="st0" d="M69.8,45.7c-1-0.9-1.5-2.3-1.5-4.2c0-0.7,0.1-1.4,0.2-2c0.2-0.6,0.4-1.1,0.7-1.6c0.3-0.4,0.7-0.8,1.2-1
			c0.5-0.2,1-0.4,1.6-0.4c0.6,0,1.2,0.1,1.7,0.4c0.5,0.3,0.9,0.6,1.2,1.1c0.3,0.5,0.5,1,0.7,1.6c0.1,0.6,0.2,1.2,0.2,1.9
			c0,0.7-0.1,1.4-0.2,2c-0.2,0.6-0.4,1.1-0.7,1.6c-0.3,0.4-0.7,0.8-1.2,1c-0.5,0.2-1,0.4-1.6,0.4C71.2,46.6,70.4,46.3,69.8,45.7
			 M69.6,40.1c0,0.2-0.1,0.5-0.1,0.7c0,0.2,0,0.5,0,0.7c0,0.4,0,0.9,0.1,1.4c0.1,0.5,0.2,0.9,0.4,1.3c0.2,0.4,0.5,0.7,0.8,1
			c0.3,0.3,0.8,0.4,1.4,0.4c0.4,0,0.7-0.1,1-0.2c0.3-0.1,0.5-0.3,0.7-0.5c0.2-0.2,0.4-0.5,0.5-0.7c0.1-0.3,0.2-0.6,0.3-0.9
			c0.1-0.3,0.1-0.6,0.1-0.9c0-0.3,0-0.6,0-0.9c0-0.4,0-0.9-0.1-1.3c-0.1-0.5-0.2-0.9-0.4-1.3c-0.2-0.4-0.5-0.7-0.8-1
			c-0.3-0.3-0.8-0.4-1.4-0.4c-0.4,0-0.8,0.1-1.1,0.2c-0.3,0.2-0.5,0.4-0.7,0.6c-0.2,0.3-0.3,0.5-0.5,0.9
			C69.7,39.5,69.7,39.8,69.6,40.1"/>
		<path class="st0" d="M85.5,45.7c-0.1,0.1-0.3,0.2-0.5,0.3c-0.2,0.1-0.4,0.2-0.6,0.2c-0.2,0.1-0.4,0.1-0.6,0.1c-0.2,0-0.4,0-0.6,0
			c-0.2,0-0.5,0-1,0c-0.5,0-1.1,0-2,0l-0.1-0.1v-9.5l0.1-0.1c0.8,0,1.8,0,2.9,0c0.7,0,1.3,0.1,1.8,0.4c0.5,0.3,0.9,0.6,1.2,1
			c0.3,0.4,0.5,1,0.6,1.6c0.1,0.6,0.2,1.2,0.2,1.9c0,0.5,0,0.9-0.1,1.3c0,0.4-0.1,0.8-0.2,1.1s-0.3,0.7-0.5,0.9
			C86,45.2,85.8,45.5,85.5,45.7 M81.2,45.5l1.9,0c0.5,0,1-0.1,1.3-0.3c0.3-0.2,0.6-0.5,0.8-0.8c0.2-0.3,0.3-0.7,0.4-1.2
			c0.1-0.4,0.1-0.9,0.1-1.3c0-0.6,0-1.2-0.1-1.7c-0.1-0.5-0.2-1-0.4-1.4c-0.2-0.4-0.5-0.7-0.9-0.9c-0.4-0.2-0.8-0.3-1.3-0.3l-1.9,0
			V45.5z"/>
		<path class="st0" d="M93.3,43.9l-1,0h-1.9l-1,0l-0.8,2.5c-0.1,0-0.3,0-0.5,0c-0.2,0-0.4,0-0.6-0.1l0,0l3.2-9.6c0.2,0,0.4,0,0.6,0
			c0.3,0,0.5,0,0.6,0l3.2,9.6c-0.2,0.1-0.3,0.1-0.6,0.1c-0.2,0-0.4,0-0.5-0.1c-0.1-0.1-0.2-0.2-0.2-0.5L93.3,43.9z M89.8,43l0.8,0
			h1.6c0,0,0.1,0,0.3,0c0.2,0,0.4,0,0.5,0l-0.9-2.7c-0.4-1.1-0.6-1.9-0.7-2.4h-0.1c-0.2,0.7-0.3,1.3-0.5,1.7L89.8,43z"/>
		<g>
			<path class="st0" d="M54,58.6c0-0.3,0.1-0.5,0.3-0.8c0.1-0.3,0.3-0.5,0.5-0.6c1,0.6,1.9,0.9,2.9,0.9c0.5,0,0.8-0.1,1.1-0.3
				c0.3-0.2,0.4-0.5,0.4-0.8c0-0.5-0.4-1-1.1-1.3L56.3,55c-0.7-0.3-1.2-0.6-1.5-1.1c-0.3-0.4-0.5-0.9-0.5-1.5c0-0.4,0.1-0.8,0.2-1.2
				c0.2-0.3,0.4-0.6,0.7-0.9c0.3-0.2,0.7-0.4,1.1-0.6c0.4-0.1,0.9-0.2,1.4-0.2c1,0,2.1,0.3,3.1,0.8c0,0.6-0.2,1.1-0.7,1.4
				c-1-0.4-1.8-0.7-2.5-0.7c-0.5,0-0.8,0.1-1,0.3c-0.2,0.2-0.4,0.5-0.4,0.8c0,0.4,0.3,0.8,1,1.1L59,54c0.7,0.3,1.2,0.7,1.6,1.1
				c0.4,0.5,0.6,1,0.6,1.6c0,0.4-0.1,0.8-0.2,1.2c-0.1,0.4-0.4,0.7-0.7,0.9c-0.3,0.3-0.7,0.5-1.1,0.6c-0.5,0.1-1,0.2-1.6,0.2
				C56.2,59.7,55.1,59.3,54,58.6"/>
			<path class="st0" d="M67,57.3l-0.7,0h-2l-0.7,0L63,59.5c-0.2,0-0.5,0.1-0.8,0.1c-0.4,0-0.7,0-0.9-0.1l-0.1-0.1l3.2-9.5
				c0.3,0,0.7-0.1,1.1-0.1s0.8,0,1.1,0.1l3.1,9.5c-0.3,0.2-0.6,0.2-1,0.2c-0.4,0-0.7-0.1-0.8-0.2c-0.2-0.1-0.3-0.4-0.4-0.8L67,57.3z
				 M64.1,55.8l0.6,0H66l0.6,0l-0.4-1.4c-0.3-1.1-0.6-2-0.8-2.7h-0.1C65.2,52,65,52.8,64.7,54L64.1,55.8z"/>
			<path class="st0" d="M77.7,49.8V56c0,1.2-0.3,2.1-1,2.7c-0.6,0.6-1.6,1-2.7,1c-1.2,0-2.1-0.3-2.7-1c-0.6-0.6-1-1.5-1-2.7v-6.2
				l0.1-0.1h0.7c0.4,0,0.7,0.1,0.8,0.3c0.2,0.2,0.3,0.5,0.3,0.9V56c0,1.4,0.6,2.2,1.8,2.2c1.2,0,1.8-0.7,1.8-2.2v-6.2
				c0.3,0,0.6-0.1,1-0.1C77.1,49.7,77.5,49.8,77.7,49.8 M72.4,48.3l3-1.8c0.2,0.1,0.3,0.3,0.5,0.6c0.2,0.3,0.2,0.5,0.3,0.8L73,49.2
				c-0.1-0.1-0.2-0.2-0.4-0.4C72.5,48.6,72.4,48.4,72.4,48.3"/>
			<path class="st0" d="M85.4,58.8c-0.3,0.2-0.7,0.4-1.2,0.5c-0.5,0.1-1,0.2-1.5,0.2c-0.3,0-0.6,0-1.2,0c-0.5,0-1.2,0-2,0l-0.1-0.1
				v-9.5l0.1-0.1c0.5,0,1.1,0,1.6,0c0.6,0,1.1,0,1.7,0c0.8,0,1.4,0.1,2,0.4c0.5,0.3,0.9,0.6,1.3,1.1c0.3,0.4,0.5,1,0.7,1.6
				c0.1,0.6,0.2,1.2,0.2,1.9c0,0.9-0.1,1.8-0.3,2.4C86.4,57.8,86,58.3,85.4,58.8 M84.6,52.4c-0.3-0.8-0.9-1.1-1.7-1.1H82
				c-0.3,0-0.5,0-0.7,0V58c0.2,0,0.4,0,0.6,0s0.5,0,0.7,0c0.2,0,0.5,0,0.7-0.1c0.2,0,0.4-0.1,0.5-0.1c0.2-0.1,0.4-0.3,0.6-0.5
				c0.2-0.2,0.3-0.5,0.4-0.8c0.1-0.3,0.1-0.6,0.2-0.9c0-0.3,0-0.7,0-1c0-0.4,0-0.8-0.1-1.1C84.8,53.1,84.7,52.7,84.6,52.4"/>
			<path class="st0" d="M90,57l0,0.9l1,0h3.5c0,0.3,0,0.5,0,0.7c-0.1,0.6-0.5,0.9-1.2,0.9h-4c-0.3,0-0.6-0.1-0.8-0.3
				c-0.2-0.2-0.3-0.5-0.3-0.8v-8.5l0.1-0.1h5.9c0,0.2,0.1,0.5,0.1,0.8c0,0.3-0.1,0.5-0.2,0.8h-4l0,1v1.5l0.9,0h2.4
				c0.1,0.2,0.1,0.5,0.1,0.8c0,0.3,0,0.6-0.1,0.8H90V57z"/>
		</g>
	</g>
	<g>
		<g>
			<path class="st0" d="M202.1,26.7c5.5,0,8.2,2.3,8.2,6.1c0,2.1-1.4,4-3.5,4.7c2.5,0.7,4.7,3,4.7,5.9c0,3.7-2.7,6.6-8.9,6.6
				c-3,0-5.5-0.1-8.3-0.1l-0.2-0.2V27l0.2-0.2C197.1,26.7,199.7,26.7,202.1,26.7z M198.1,36.3h3.9c3.5,0,4.3-1.9,4.3-3.5
				c0-1.6-0.7-3.5-4.2-3.5c-1,0-2.8,0-4,0V36.3z M198.1,39.1v8.1c1.6,0,3.1,0,4.5,0c4,0,4.9-2.3,4.9-4c0-1.7-1.1-4.1-5.1-4.1H198.1z
				"/>
			<path class="st0" d="M226.5,39.7c1.2,0.4,2.1,1.5,2.7,2.9l1.6,3.9c0.4,0.9,0.8,1.8,1.7,2.4c-0.5,0.7-1.7,1.1-2.7,1.1
				c-1.5,0-2-0.7-2.6-2.2l-1.9-4.5c-0.6-1.5-1.5-2.8-3.8-2.8h-3.1v9.2c-0.6,0.1-1.3,0.1-2,0.1c-0.6,0-1.4,0-1.9-0.1V27l0.2-0.2
				c2.8,0,5.5-0.1,8-0.1c5.2,0,8.5,2.4,8.5,6.9C231.3,36.6,229.2,38.9,226.5,39.7z M218.4,37.6c1.5,0,3.1-0.1,4.1-0.1
				c3.7,0,4.6-2.1,4.6-4c0-2-0.9-4.1-4.6-4.1c-1.1,0-2.9,0-4.1,0V37.6z"/>
			<path class="st0" d="M240.3,44.2l-2,5.6c-0.5,0.1-1.1,0.1-1.7,0.1c-0.7,0-1.4-0.1-1.9-0.2l-0.1-0.2l8.4-22.7
				c0.6-0.1,1.6-0.1,2.3-0.1s1.7,0,2.2,0.1l8.4,22.7c-0.6,0.3-1.5,0.5-2.3,0.5c-1.2,0-1.9-0.4-2.4-1.9l-1.4-3.9c-0.6,0-1.9,0-2.2,0
				h-5.1C242.1,44.2,240.9,44.2,240.3,44.2z M241.3,41.3c0.6,0,1.6,0,1.9,0h3.7c0.3,0,1.3,0,1.9,0l-1.7-4.9c-0.7-1.9-1.5-4.3-2-6.1
				h-0.2c-0.4,1.5-1,3.6-1.5,4.9L241.3,41.3z"/>
			<path class="st0" d="M259.4,44.9c2.2,1.3,4.9,2.3,7.5,2.3c3,0,4.7-1.3,4.8-3.2c0-1.6-1.2-2.8-3.4-3.6l-4.4-1.7
				c-3.1-1.2-5.1-3-5.1-5.8c0-3.7,3.4-6.5,8.4-6.5c3.1,0,6,0.9,7.9,1.7c0,1-0.6,2.1-1.5,2.8c-1.9-0.9-4.5-1.6-6.4-1.6
				c-2.8,0-4.5,1.4-4.5,3.2c0,1.5,1.3,2.3,3.1,3l4.3,1.7c3.2,1.2,5.6,3.3,5.6,6.2c0,3.9-3,6.8-9.2,6.8c-3.1,0-6.5-0.9-9-2.5
				C257.8,46.6,258.6,45.5,259.4,44.9z"/>
			<g>
				<path class="st0" d="M280.5,26.8c0.6-0.1,1.4-0.1,2-0.1c0.6,0,1.4,0,2,0.1v22.9c-0.6,0.1-1.4,0.1-2,0.1c-0.6,0-1.4,0-2-0.1V26.8
					z"/>
				<path class="st0" d="M305.7,46.7c0,0.4,0,1-0.1,1.4c-0.2,1.1-1.2,1.7-2.6,1.7h-9.8c-1.3,0-2.3-0.8-2.3-2.2V26.9l0.3-0.2h1.5
					c1.6,0,2.2,0.7,2.2,2.3v17.8c1.2-0.1,2.3-0.1,3.3-0.1H305.7z"/>
				<g>
					<path class="st0" d="M198,19.1h-1.6v3.8c-0.4,0.1-0.8,0.1-1.1,0.1c-0.3,0-0.8,0-1.1-0.1V11.4l0.1-0.1c1.4,0,2.5-0.1,3.7-0.1
						c2.3,0,4,1.3,4,3.9C202,17.7,200.3,19.1,198,19.1z M196.4,17.4c0.6,0,1.2,0,1.4,0c1.5,0,1.8-1.2,1.8-2.1c0-0.9-0.3-2.1-1.8-2.1
						c-0.4,0-0.9,0-1.4,0V17.4z"/>
					<path class="st0" d="M204.7,20.3l-0.8,2.6c-0.3,0.1-0.6,0.1-1,0.1c-0.4,0-0.8-0.1-1.1-0.2l-0.1-0.1l3.8-11.4
						c0.4-0.1,0.9-0.1,1.3-0.1c0.4,0,0.9,0,1.3,0.1l3.7,11.4c-0.3,0.2-0.9,0.3-1.3,0.3c-0.7,0-1.1-0.3-1.4-1.2l-0.5-1.5
						c-0.3,0-0.7,0-0.8,0h-2.4C205.4,20.3,205,20.3,204.7,20.3z M205.3,18.5c0.2,0,0.6,0,0.8,0h1.5c0.2,0,0.5,0,0.7,0l-0.5-1.7
						c-0.3-1-0.7-2.3-0.9-3.3h-0.1c-0.2,0.9-0.5,2.1-0.7,2.9L205.3,18.5z"/>
					<path class="st0" d="M214.2,14.5c0-0.5,0-0.8,0-1.3h0c-0.2,0-0.8,0-1,0h-1.9c-0.1-0.3-0.1-0.7-0.1-0.9c0-0.3,0-0.6,0.1-0.9h8.1
						c0.1,0.2,0.1,0.6,0.1,0.9c0,0.7-0.4,1-1.2,1h-0.8c-0.2,0-0.8,0-1,0h0c0,0.5,0,0.8,0,1.3v8.4c-0.4,0.1-0.8,0.1-1.2,0.1
						c-0.3,0-0.7,0-1.1-0.1V14.5z"/>
					<path class="st0" d="M226.8,18c0.6,0.2,1,0.8,1.3,1.5l0.6,1.7c0.2,0.5,0.4,0.9,0.8,1.2c-0.3,0.4-0.9,0.7-1.5,0.7
						c-0.8,0-1.1-0.5-1.4-1.3l-0.7-2c-0.3-0.7-0.6-1.2-1.6-1.2h-1v4.4c-0.4,0.1-0.8,0.1-1.1,0.1c-0.3,0-0.8,0-1.1-0.1V11.4l0.1-0.1
						c1.4,0,2.6-0.1,3.9-0.1c2.4,0,4,1.2,4,3.6C228.9,16.5,227.9,17.6,226.8,18z M223.2,16.7c0.6,0,1.2-0.1,1.6-0.1
						c1.5,0,1.8-0.9,1.8-1.8c0-0.9-0.3-1.8-1.8-1.8c-0.4,0-1,0-1.6,0V16.7z"/>
					<path class="st0" d="M231.3,11.4c0.3-0.1,0.8-0.1,1.1-0.1c0.3,0,0.8,0,1.1,0.1v11.6c-0.4,0.1-0.8,0.1-1.1,0.1
						c-0.3,0-0.8,0-1.1-0.1V11.4z"/>
					<path class="st0" d="M238.2,20.3l-0.8,2.6c-0.3,0.1-0.6,0.1-1,0.1c-0.4,0-0.8-0.1-1.1-0.2l-0.1-0.1l3.8-11.4
						c0.4-0.1,0.9-0.1,1.3-0.1c0.4,0,0.9,0,1.3,0.1l3.7,11.4c-0.3,0.2-0.9,0.3-1.3,0.3c-0.7,0-1.1-0.3-1.4-1.2l-0.5-1.5
						c-0.3,0-0.7,0-0.8,0h-2.4C238.9,20.3,238.5,20.3,238.2,20.3z M238.8,18.5c0.2,0,0.6,0,0.8,0h1.5c0.2,0,0.5,0,0.7,0l-0.5-1.7
						c-0.3-1-0.7-2.3-0.9-3.3h-0.1c-0.2,0.9-0.5,2.1-0.7,2.9L238.8,18.5z"/>
					<path class="st0" d="M252.5,20.3l-0.8,2.6c-0.3,0.1-0.6,0.1-1,0.1c-0.4,0-0.8-0.1-1.1-0.2l-0.1-0.1l3.8-11.4
						c0.4-0.1,0.9-0.1,1.3-0.1c0.4,0,0.9,0,1.3,0.1l3.7,11.4c-0.3,0.2-0.9,0.3-1.3,0.3c-0.7,0-1.1-0.3-1.4-1.2l-0.5-1.5
						c-0.3,0-0.7,0-0.8,0h-2.4C253.2,20.3,252.8,20.3,252.5,20.3z M253.1,18.5c0.2,0,0.6,0,0.8,0h1.5c0.2,0,0.5,0,0.7,0l-0.5-1.7
						c-0.3-1-0.7-2.3-0.9-3.3h-0.1c-0.2,0.9-0.5,2.1-0.7,2.9L253.1,18.5z"/>
					<path class="st0" d="M261.9,11.4c0.5-0.1,1.1-0.1,1.5-0.1c0.4,0,1,0,1.4,0.1l1.3,4.7c0.1,0.5,0.5,2.2,0.6,2.9h0.1
						c0.1-0.7,0.5-2.4,0.6-2.9l1.3-4.7c0.5-0.1,1.1-0.1,1.4-0.1c0.4,0,1,0,1.5,0.1l0.9,11.5c-0.3,0.1-0.8,0.1-1.2,0.1
						c-0.4,0-0.7,0-1-0.1l-0.3-5.4c-0.1-1.1-0.1-2.6-0.1-3.7H270l-2,7.4c-0.3,0.1-0.8,0.1-1.2,0.1c-0.3,0-0.8,0-1.2-0.1l-2-7.4h-0.1
						c0,1.1-0.1,2.6-0.1,3.7l-0.3,5.4c-0.3,0.1-0.7,0.1-1,0.1c-0.4,0-0.8,0-1.1-0.1L261.9,11.4z"/>
					<path class="st0" d="M277,20.3l-0.8,2.6c-0.3,0.1-0.6,0.1-1,0.1c-0.4,0-0.8-0.1-1.1-0.2l-0.1-0.1l3.8-11.4
						c0.4-0.1,0.9-0.1,1.3-0.1c0.4,0,0.9,0,1.3,0.1l3.7,11.4c-0.3,0.2-0.9,0.3-1.3,0.3c-0.7,0-1.1-0.3-1.4-1.2l-0.5-1.5
						c-0.3,0-0.7,0-0.8,0h-2.4C277.7,20.3,277.3,20.3,277,20.3z M277.6,18.5c0.2,0,0.6,0,0.8,0h1.5c0.2,0,0.5,0,0.7,0l-0.5-1.7
						c-0.3-1-0.7-2.3-0.9-3.3H279c-0.2,0.9-0.5,2.1-0.7,2.9L277.6,18.5z"/>
					<path class="st0" d="M293,22.2c-0.7,0.6-2.1,0.8-3,0.8c-1.4,0-2.5,0-4-0.1l-0.1-0.1V11.4l0.1-0.1c1.5-0.1,2.6-0.1,4-0.1
						c0.9,0,2.3,0.2,3,0.8c1.6,1.3,1.8,3,1.8,5C294.8,19.1,294.5,20.9,293,22.2z M289.9,13.1c-0.6,0-1.2,0-1.8,0v8.2
						c0.7,0,1.2,0,1.8,0c2.2,0,2.5-2.2,2.5-4.1C292.5,15.3,292.1,13.1,289.9,13.1z"/>
					<path class="st0" d="M298.5,20.3l-0.8,2.6c-0.3,0.1-0.6,0.1-1,0.1s-0.8-0.1-1.1-0.2l-0.1-0.1l3.8-11.4c0.4-0.1,0.9-0.1,1.3-0.1
						c0.4,0,0.9,0,1.3,0.1l3.7,11.4c-0.3,0.2-0.9,0.3-1.3,0.3c-0.7,0-1.1-0.3-1.4-1.2l-0.5-1.5c-0.3,0-0.7,0-0.8,0h-2.4
						C299.2,20.3,298.8,20.3,298.5,20.3z M299.1,18.5c0.2,0,0.6,0,0.8,0h1.5c0.2,0,0.5,0,0.7,0l-0.5-1.7c-0.3-1-0.7-2.3-0.9-3.3
						h-0.1c-0.2,0.9-0.5,2.1-0.7,2.9L299.1,18.5z"/>
					<path class="st0" d="M208.9,7.4c0.3,0.2,0.8,0.7,0.9,1.2l-2.8,1.7c-0.3-0.1-0.5-0.5-0.6-0.8L208.9,7.4z"/>
				</g>
				<g>
					<path class="st0" d="M196.9,56.8l1.3,0c0.6,0,0.9,0.3,0.9,0.8v2.2c-0.7,0.2-1.5,0.3-2.2,0.3c-0.4,0-0.7-0.1-1-0.2
						c-0.3-0.1-0.6-0.3-0.8-0.6c-0.2-0.2-0.4-0.6-0.5-0.9c-0.1-0.4-0.2-0.8-0.2-1.2c0-0.5,0.1-0.9,0.2-1.3c0.1-0.4,0.3-0.7,0.6-0.9
						c0.2-0.2,0.5-0.4,0.8-0.6c0.3-0.1,0.6-0.2,1-0.2c0.7,0,1.4,0.2,2,0.6c0,0.1,0,0.2-0.1,0.3c0,0.1-0.1,0.2-0.1,0.3
						c-0.1,0.1-0.1,0.2-0.2,0.2c-0.1,0.1-0.1,0.1-0.2,0.2c-0.5-0.3-0.9-0.4-1.4-0.4c-0.9,0-1.3,0.6-1.3,1.9c0,1.2,0.5,1.9,1.4,1.9
						c0.1,0,0.2,0,0.4,0c0.1,0,0.2,0,0.3,0v-0.6c0-0.1,0-0.2,0-0.3c0-0.1,0-0.2,0-0.2h-0.4c-0.2,0-0.4,0-0.5-0.1
						c-0.1-0.1-0.1-0.2-0.1-0.4C196.9,57.1,196.9,57,196.9,56.8z"/>
					<path class="st0" d="M203.5,59.6c-0.6-0.5-0.9-1.3-0.9-2.4c0-0.5,0.1-0.9,0.2-1.3c0.1-0.4,0.3-0.7,0.5-0.9
						c0.2-0.2,0.5-0.4,0.8-0.6c0.3-0.1,0.6-0.2,1-0.2c0.4,0,0.7,0.1,1,0.2c0.3,0.1,0.6,0.3,0.8,0.6c0.2,0.2,0.4,0.6,0.5,0.9
						c0.1,0.4,0.2,0.8,0.2,1.3s-0.1,0.9-0.2,1.3c-0.1,0.4-0.3,0.7-0.5,0.9c-0.2,0.2-0.5,0.4-0.8,0.6c-0.3,0.1-0.6,0.2-1,0.2
						C204.5,60.1,203.9,59.9,203.5,59.6z M204.2,58.4c0.1,0.4,0.4,0.6,0.9,0.6c0.2,0,0.4-0.1,0.5-0.2c0.1-0.1,0.2-0.3,0.3-0.4
						c0.1-0.2,0.1-0.4,0.2-0.6c0-0.2,0-0.4,0-0.6c0-0.2,0-0.4,0-0.6c0-0.2-0.1-0.5-0.1-0.7c-0.1-0.2-0.2-0.4-0.3-0.5
						c-0.1-0.1-0.4-0.2-0.6-0.2c-0.3,0-0.5,0.1-0.6,0.2c-0.1,0.1-0.2,0.3-0.3,0.5c-0.1,0.2-0.1,0.4-0.1,0.6c0,0.2,0,0.4,0,0.6
						c0,0.3,0,0.5,0,0.7C204.1,58,204.1,58.2,204.2,58.4z"/>
					<path class="st0" d="M213.2,58.9l1.1-4.5c0.1,0,0.3,0,0.5,0c0.3,0,0.5,0,0.7,0.1l0,0.1L214,60c-0.3,0-0.6,0-0.9,0
						c-0.3,0-0.5,0-0.7-0.1c-0.1-0.1-0.2-0.2-0.3-0.5l-1.4-5c0.3-0.1,0.5-0.2,0.7-0.2c0.2,0,0.4,0.1,0.5,0.2
						c0.1,0.1,0.2,0.3,0.3,0.5l0.6,2.3C212.9,57.6,213,58.1,213.2,58.9C213.1,58.8,213.1,58.9,213.2,58.9z"/>
					<path class="st0" d="M220.3,58.3l0,0.6v0c0.3,0,0.5,0,0.6,0h1.9c0,0.2,0,0.4,0,0.5c-0.1,0.4-0.3,0.6-0.8,0.6h-2.2
						c-0.2,0-0.4-0.1-0.6-0.2c-0.1-0.1-0.2-0.3-0.2-0.6v-4.8l0.1-0.1h3.5c0,0.2,0,0.3,0,0.5c0,0.2,0,0.4-0.1,0.6h-2.2l0,0.6v0.6
						c0.1,0,0.3,0,0.6,0h1.3c0,0.2,0.1,0.3,0.1,0.5c0,0.2,0,0.4-0.1,0.5h-1.8V58.3z"/>
					<path class="st0" d="M230.6,56.1c0,0.2,0,0.4-0.1,0.5c-0.1,0.2-0.1,0.3-0.2,0.4c-0.1,0.1-0.2,0.2-0.3,0.3
						c-0.1,0.1-0.3,0.2-0.4,0.2c0.3,0.1,0.5,0.4,0.6,0.8l0.2,0.7c0.1,0.3,0.2,0.5,0.4,0.6c-0.1,0.1-0.2,0.2-0.4,0.3
						c-0.2,0.1-0.3,0.1-0.5,0.1c-0.2,0-0.4-0.1-0.5-0.2s-0.2-0.3-0.3-0.6l-0.3-0.9c-0.1-0.2-0.1-0.3-0.2-0.4
						c-0.1-0.1-0.3-0.1-0.5-0.1h-0.3V60c-0.2,0-0.4,0-0.7,0s-0.5,0-0.6,0v-5.6l0.1-0.1c0.5,0,0.9,0,1.2,0c0.3,0,0.6,0,0.8,0
						c0.3,0,0.6,0,0.8,0.1c0.2,0.1,0.5,0.2,0.6,0.3c0.2,0.1,0.3,0.3,0.4,0.6C230.5,55.5,230.6,55.8,230.6,56.1z M227.9,55.3v1.6
						c0.2,0,0.5,0,0.6,0c0.2,0,0.3,0,0.4-0.1c0.1-0.1,0.2-0.1,0.2-0.2c0.1-0.1,0.1-0.3,0.1-0.5c0-0.5-0.3-0.8-0.8-0.8
						c-0.1,0-0.2,0-0.3,0C228,55.3,227.9,55.3,227.9,55.3z"/>
					<path class="st0" d="M238.9,54.3L238.9,54.3l0.1,5.7c-0.2,0-0.5,0.1-0.8,0.1s-0.6,0-0.8,0l-1.3-2.9c-0.2-0.3-0.3-0.7-0.5-1.2
						l0,0c0.1,0.8,0.1,1.6,0.1,2.5V60c-0.2,0-0.4,0-0.6,0c-0.2,0-0.4,0-0.6,0v-5.6c0.2,0,0.5-0.1,0.8-0.1c0.3,0,0.6,0,0.8,0l1.3,2.9
						c0.2,0.5,0.4,1,0.5,1.3l0,0c-0.1-0.8-0.1-1.6-0.1-2.4v-1c0-0.3,0.1-0.5,0.2-0.6c0.1-0.1,0.3-0.2,0.6-0.2H238.9z"/>
					<path class="st0" d="M243.5,59.6c-0.6-0.5-0.9-1.3-0.9-2.4c0-0.5,0.1-0.9,0.2-1.3c0.1-0.4,0.3-0.7,0.5-0.9
						c0.2-0.2,0.5-0.4,0.8-0.6c0.3-0.1,0.6-0.2,1-0.2c0.4,0,0.7,0.1,1,0.2c0.3,0.1,0.6,0.3,0.8,0.6c0.2,0.2,0.4,0.6,0.5,0.9
						c0.1,0.4,0.2,0.8,0.2,1.3s-0.1,0.9-0.2,1.3c-0.1,0.4-0.3,0.7-0.5,0.9c-0.2,0.2-0.5,0.4-0.8,0.6c-0.3,0.1-0.6,0.2-1,0.2
						C244.5,60.1,244,59.9,243.5,59.6z M244.2,58.4c0.1,0.4,0.4,0.6,0.9,0.6c0.2,0,0.4-0.1,0.5-0.2c0.1-0.1,0.2-0.3,0.3-0.4
						c0.1-0.2,0.1-0.4,0.2-0.6c0-0.2,0-0.4,0-0.6c0-0.2,0-0.4,0-0.6c0-0.2-0.1-0.5-0.1-0.7c-0.1-0.2-0.2-0.4-0.3-0.5
						s-0.4-0.2-0.6-0.2c-0.3,0-0.5,0.1-0.6,0.2c-0.1,0.1-0.2,0.3-0.3,0.5c-0.1,0.2-0.1,0.4-0.1,0.6c0,0.2,0,0.4,0,0.6
						c0,0.3,0,0.5,0,0.7C244.1,58,244.1,58.2,244.2,58.4z"/>
					<path class="st0" d="M257.2,55.5l0,0.6v0.5h1.8c0,0.2,0.1,0.3,0.1,0.5s0,0.4-0.1,0.5h-1.8V60c-0.2,0-0.4,0-0.7,0
						c-0.3,0-0.5,0-0.7,0v-5.6l0.1,0h3.5c0,0.1,0,0.3,0,0.5s-0.1,0.4-0.2,0.5c-0.1,0.1-0.3,0.1-0.5,0.1H257.2z"/>
					<path class="st0" d="M264.5,58.3l0,0.6v0c0.3,0,0.5,0,0.6,0h1.9c0,0.2,0,0.4,0,0.5c-0.1,0.4-0.3,0.6-0.8,0.6h-2.2
						c-0.2,0-0.4-0.1-0.6-0.2c-0.1-0.1-0.2-0.3-0.2-0.6v-4.8l0.1-0.1h3.5c0,0.2,0,0.3,0,0.5c0,0.2,0,0.4-0.1,0.6h-2.2l0,0.6v0.6
						c0.1,0,0.3,0,0.6,0h1.3c0,0.2,0.1,0.3,0.1,0.5c0,0.2,0,0.4-0.1,0.5h-1.8V58.3z"/>
					<path class="st0" d="M274.3,59.6c-0.2,0.1-0.4,0.2-0.7,0.3c-0.3,0.1-0.6,0.1-0.9,0.1c-0.2,0-0.4,0-0.7,0c-0.3,0-0.7,0-1.2,0
						l-0.1-0.1v-5.5l0.1-0.1c0.3,0,0.6,0,1,0c0.3,0,0.7,0,1.1,0c0.5,0,0.9,0.1,1.2,0.2s0.6,0.4,0.7,0.6c0.2,0.3,0.3,0.6,0.4,0.9
						c0.1,0.3,0.1,0.7,0.1,1.1c0,0.5-0.1,1-0.2,1.4C274.9,59,274.7,59.3,274.3,59.6z M272.8,59c0.7,0,1.1-0.6,1.1-1.8
						c0-1.2-0.4-1.8-1.1-1.8c-0.2,0-0.3,0-0.5,0c-0.1,0-0.3,0-0.3,0V59c0.1,0,0.2,0,0.3,0C272.5,59,272.6,59,272.8,59z"/>
					<path class="st0" d="M280.3,58.3l0,0.6v0c0.3,0,0.5,0,0.6,0h1.9c0,0.2,0,0.4,0,0.5c-0.1,0.4-0.3,0.6-0.8,0.6h-2.2
						c-0.2,0-0.4-0.1-0.6-0.2c-0.1-0.1-0.2-0.3-0.2-0.6v-4.8l0.1-0.1h3.5c0,0.2,0,0.3,0,0.5c0,0.2,0,0.4-0.1,0.6h-2.2l0,0.6v0.6
						c0.1,0,0.3,0,0.6,0h1.3c0,0.2,0.1,0.3,0.1,0.5c0,0.2,0,0.4-0.1,0.5h-1.8V58.3z"/>
					<path class="st0" d="M290.6,56.1c0,0.2,0,0.4-0.1,0.5c-0.1,0.2-0.1,0.3-0.2,0.4c-0.1,0.1-0.2,0.2-0.3,0.3
						c-0.1,0.1-0.3,0.2-0.4,0.2c0.3,0.1,0.5,0.4,0.6,0.8l0.2,0.7c0.1,0.3,0.2,0.5,0.4,0.6c-0.1,0.1-0.2,0.2-0.4,0.3
						c-0.2,0.1-0.3,0.1-0.5,0.1c-0.2,0-0.4-0.1-0.5-0.2c-0.1-0.1-0.2-0.3-0.3-0.6l-0.3-0.9c-0.1-0.2-0.1-0.3-0.2-0.4
						c-0.1-0.1-0.3-0.1-0.5-0.1h-0.3V60c-0.2,0-0.4,0-0.7,0s-0.5,0-0.6,0v-5.6l0.1-0.1c0.5,0,0.9,0,1.2,0c0.3,0,0.6,0,0.8,0
						c0.3,0,0.6,0,0.8,0.1c0.2,0.1,0.5,0.2,0.6,0.3c0.2,0.1,0.3,0.3,0.4,0.6C290.5,55.5,290.6,55.8,290.6,56.1z M287.8,55.3v1.6
						c0.2,0,0.5,0,0.6,0c0.2,0,0.3,0,0.4-0.1c0.1-0.1,0.2-0.1,0.2-0.2c0.1-0.1,0.1-0.3,0.1-0.5c0-0.5-0.3-0.8-0.8-0.8
						c-0.1,0-0.2,0-0.3,0C288,55.3,287.9,55.3,287.8,55.3z"/>
					<path class="st0" d="M295.8,58.8c-0.1,0-0.3,0-0.3,0l-0.4,1.2c-0.1,0-0.3,0-0.6,0c-0.3,0-0.5,0-0.6-0.1l0-0.1l1.8-5.5
						c0.2,0,0.5,0,0.7,0c0.3,0,0.6,0,0.8,0.1l1.8,5.5c-0.2,0.1-0.4,0.2-0.6,0.2c-0.3,0-0.5,0-0.6-0.1c-0.1-0.1-0.2-0.3-0.3-0.6
						l-0.2-0.5c-0.1,0-0.2,0-0.3,0H295.8z M295.8,57.8l0.3,0h0.6c0,0,0.1,0,0.1,0c0.1,0,0.1,0,0.2,0l-0.1-0.5
						c-0.1-0.5-0.3-1-0.5-1.7h0c0,0.2-0.2,0.8-0.4,1.6L295.8,57.8z"/>
					<path class="st0" d="M304.6,58.9h1.4c0,0.2,0,0.4,0,0.6c0,0.2-0.1,0.3-0.3,0.4c-0.1,0.1-0.3,0.2-0.6,0.2h-1.9
						c-0.2,0-0.4-0.1-0.6-0.2c-0.1-0.1-0.2-0.3-0.2-0.6v-4.9l0.1-0.1h0.5c0.5,0,0.8,0.3,0.8,0.8v3.8C304,58.9,304.3,58.9,304.6,58.9
						z"/>
				</g>
			</g>
		</g>
		<g>
			<rect x="117.4" y="9.9" class="st1" width="71.7" height="51.6"/>
			<rect x="118.6" y="11.3" class="st0" width="68.9" height="48.7"/>
			<polygon class="st0" points="118.6,11.3 118.6,37.8 146,15.7 187.4,34 187.4,11.3 			"/>
			<g>
				<path class="st0" d="M118.6,57.1c-0.1,0-0.2,0-0.2,0c-0.2-0.1-0.3-0.3-0.3-0.5V37.8c0-0.2,0.1-0.3,0.2-0.4l27.4-22.1
					c0.1-0.1,0.2-0.1,0.3-0.1c0.1,0,0.1,0,0.2,0l41.5,18.3c0.2,0.1,0.4,0.4,0.3,0.6c-0.1,0.2-0.3,0.4-0.5,0.4c0,0,0,0,0,0
					c-1,0-2,0-3,0c-6.4,0-12.8,0.6-19.1,1.7c0,0-0.1,0-0.1,0c-0.1,0-0.2,0-0.3-0.1c-4.3-3.3-9.5-5-15-5c-12.3,0-22.6,8.8-24.6,20.9
					c0,0.1-0.1,0.3-0.2,0.4c-4,2.7-6.2,4.6-6.2,4.6C118.8,57.1,118.7,57.1,118.6,57.1z"/>
				<g>
					<path class="st1" d="M146,15.7L187.4,34c-1,0-2,0-3,0c-6.8,0-13.2,0.7-19.2,1.8c-4.3-3.2-9.6-5.1-15.3-5.1
						c-12.7,0-23.2,9.3-25.1,21.4c-4.1,2.7-6.3,4.6-6.3,4.6V37.8L146,15.7 M146,14.6c-0.2,0-0.5,0.1-0.7,0.2l-27.4,22.1
						c-0.3,0.2-0.4,0.5-0.4,0.8v18.8c0,0.4,0.2,0.8,0.6,1c0.1,0.1,0.3,0.1,0.4,0.1c0.3,0,0.5-0.1,0.7-0.3c0,0,2.2-1.9,6.2-4.5
						c0.3-0.2,0.4-0.4,0.5-0.7c1.9-11.9,12-20.5,24.1-20.5c5.3,0,10.4,1.7,14.6,4.9c0.2,0.1,0.4,0.2,0.6,0.2c0.1,0,0.1,0,0.2,0
						c6.3-1.2,12.7-1.7,19-1.7c1,0,2,0,3,0c0,0,0,0,0,0c0.5,0,0.9-0.3,1.1-0.8c0.1-0.5-0.1-1-0.6-1.2l-41.5-18.3
						C146.3,14.6,146.1,14.6,146,14.6L146,14.6z"/>
				</g>
			</g>
			<g>
				<defs>
					<path id="SVGID_1_" d="M118.6,37.8v18.8c0,0,2.2-1.9,6.3-4.6c1.9-12.1,12.5-21.4,25.1-21.4c5.7,0,11,1.9,15.3,5.1
						c6.8-1.3,14.2-1.9,22.2-1.7L146,15.7L118.6,37.8z"/>
				</defs>
				<clipPath id="SVGID_2_">
					<use xlink:href="#SVGID_1_"  style="overflow:visible;"/>
				</clipPath>
			</g>
			<path class="st1" d="M165.3,35.7c-18.8,3.5-32.9,11.2-40.5,16.3c-4.1,2.7-6.3,4.6-6.3,4.6V60c0,0,2-1.7,6-4
				c8-4.7,24-12.1,47.2-13.4c5-0.3,10.2-0.3,15.9,0V34C179.5,33.7,172.1,34.4,165.3,35.7z"/>
		</g>
	</g>
</g>
<g>
</g>
<g>
</g>
<g>
</g>
<g>
</g>
<g>
</g>
<g>
</g>
<g>
</g>
<g>
</g>
<g>
</g>
<g>
</g>
<g>
</g>
<g>
</g>
<g>
</g>
<g>
</g>
<g>
</g>
</svg>
