<?xml version="1.0" encoding="utf-8"?>
<!-- Generator: Adobe Illustrator 24.1.1, SVG Export Plug-In . SVG Version: 6.00 Build 0)  -->
<svg version="1.1"
	 id="svg2" inkscape:version="0.48.4 r9939" sodipodi:docname="Logo SUS.svg" xmlns:cc="http://creativecommons.org/ns#" xmlns:dc="http://purl.org/dc/elements/1.1/" xmlns:inkscape="http://www.inkscape.org/namespaces/inkscape" xmlns:rdf="http://www.w3.org/1999/02/22-rdf-syntax-ns#" xmlns:sodipodi="http://sodipodi.sourceforge.net/DTD/sodipodi-0.dtd" xmlns:svg="http://www.w3.org/2000/svg"
	 xmlns="http://www.w3.org/2000/svg" xmlns:xlink="http://www.w3.org/1999/xlink" x="0px" y="0px" viewBox="0 0 221.8 52"
	 style="enable-background:new 0 0 221.8 52;" xml:space="preserve">
<style type="text/css">
	.st0{fill:#575756;}
	.st1{fill:#FFFFFF;}
	.st2{clip-path:url(#SVGID_2_);fill:url(#SVGID_3_);}
	.st3{clip-path:url(#SVGID_5_);fill:url(#SVGID_6_);}
	.st4{filter:url(#Adobe_OpacityMaskFilter);}
	.st5{clip-path:url(#SVGID_8_);fill:url(#SVGID_10_);}
	.st6{clip-path:url(#SVGID_8_);mask:url(#SVGID_9_);fill:url(#SVGID_11_);}
	.st7{clip-path:url(#SVGID_13_);fill:url(#SVGID_14_);}
	.st8{clip-path:url(#SVGID_16_);fill:url(#SVGID_17_);}
	.st9{clip-path:url(#SVGID_19_);fill:#005321;}
	.st10{clip-path:url(#SVGID_19_);fill:#868686;}
</style>
<g>
	<path class="st0" d="M10,30.3l0.5-6.6c0.1,0,0.3,0,0.5,0c0.2,0,0.4,0,0.5,0l1.1,3.4c0.1,0.2,0.1,0.4,0.2,0.8
		c0.1,0.4,0.1,0.6,0.2,0.6h0c0.1-0.4,0.2-0.9,0.4-1.4l1.1-3.4c0.1,0,0.3,0,0.5,0c0.2,0,0.4,0,0.5,0l0.5,6.6c-0.1,0-0.2,0-0.4,0
		c-0.1,0-0.2,0-0.4,0l-0.3-4c0-0.3,0-0.9-0.1-1.8h0l-1.5,4.8c-0.2,0-0.3,0-0.4,0c-0.1,0-0.2,0-0.3,0l-1.5-4.8h0c0,0.2,0,0.5,0,0.9
		c0,0.4,0,0.8,0,0.9l-0.3,4c-0.1,0-0.2,0-0.4,0C10.2,30.3,10.1,30.3,10,30.3z"/>
	<path class="st0" d="M17.4,30.3v-6.6c0.1,0,0.2,0,0.4,0s0.3,0,0.4,0v6.6c-0.1,0-0.2,0-0.4,0S17.5,30.3,17.4,30.3z"/>
	<path class="st0" d="M24.3,23.6L24.3,23.6l0.1,6.6c-0.1,0-0.3,0-0.5,0c-0.2,0-0.3,0-0.5,0L21,25.9c-0.2-0.4-0.4-0.8-0.7-1.3h0
		c0,1.2,0.1,1.9,0.1,2.1v3.6c-0.1,0-0.3,0-0.4,0c-0.1,0-0.2,0-0.3,0v-6.6c0.1,0,0.3,0,0.4,0c0.2,0,0.3,0,0.5,0L23,28
		c0.2,0.3,0.4,0.7,0.7,1.4h0c0-0.8-0.1-1.6-0.1-2.2v-3.1c0-0.2,0-0.3,0.1-0.4c0.1-0.1,0.2-0.1,0.3-0.1H24.3z"/>
	<path class="st0" d="M25.9,30.3v-6.6c0.1,0,0.2,0,0.4,0s0.3,0,0.4,0v6.6c-0.1,0-0.2,0-0.4,0S26,30.3,25.9,30.3z"/>
	<path class="st0" d="M27.6,29.7c0-0.2,0.1-0.4,0.3-0.6c0.7,0.4,1.3,0.7,1.9,0.7c0.5,0,0.8-0.1,1.1-0.3c0.3-0.2,0.4-0.5,0.4-0.8
		c0-0.5-0.3-0.9-1-1.2L29.2,27c-0.9-0.4-1.3-0.9-1.3-1.6c0-0.2,0.1-0.5,0.2-0.7c0.1-0.2,0.2-0.4,0.4-0.6s0.4-0.3,0.7-0.4
		c0.3-0.1,0.5-0.1,0.9-0.1c0.6,0,1.3,0.2,1.9,0.5c0,0.3-0.1,0.5-0.3,0.6c-0.3-0.2-0.6-0.3-0.9-0.3c-0.3-0.1-0.5-0.1-0.7-0.1
		c-0.2,0-0.4,0-0.6,0.1c-0.2,0.1-0.3,0.1-0.4,0.2c-0.1,0.1-0.2,0.2-0.3,0.3c-0.1,0.1-0.1,0.3-0.1,0.4c0,0.3,0.1,0.5,0.2,0.7
		c0.2,0.2,0.4,0.3,0.7,0.4l1.1,0.5c1,0.4,1.4,1,1.4,1.7c0,0.6-0.2,1-0.6,1.4c-0.4,0.3-1,0.5-1.8,0.5C29,30.4,28.3,30.1,27.6,29.7z"
		/>
	<path class="st0" d="M35.5,24.3l-0.5,0v6c-0.1,0-0.2,0-0.4,0s-0.3,0-0.4,0v-6l-0.5,0h-1.2c0-0.1,0-0.2,0-0.3s0-0.2,0-0.3h4.2
		c0,0.1,0.1,0.2,0.1,0.3c0,0.2-0.2,0.3-0.5,0.3H35.5z"/>
	<path class="st0" d="M38.2,29.3l0,0.4c0.2,0,0.4,0,0.6,0h2.6c0,0.1,0,0.2,0,0.3c0,0.2-0.2,0.3-0.5,0.3h-3c-0.1,0-0.2,0-0.3-0.1
		c-0.1-0.1-0.1-0.2-0.1-0.4v-6.1l0.1-0.1h3.7c0,0.1,0,0.2,0,0.3c0,0.1,0,0.2,0,0.3h-3.1l0,0.6v1.7l0.6,0h2c0,0.1,0,0.2,0,0.3
		c0,0.1,0,0.2,0,0.3h-2c-0.2,0-0.4,0-0.6,0V29.3z M38.6,22.8l1.8-1.1c0.2,0.1,0.3,0.3,0.4,0.6l-2,0.8C38.7,23.1,38.6,23,38.6,22.8z"
		/>
	<path class="st0" d="M42.6,23.7l2,0c0.7,0,1.2,0.2,1.5,0.5s0.6,0.8,0.6,1.4c0,0.4-0.1,0.8-0.3,1.1c-0.2,0.3-0.5,0.5-0.9,0.6
		c0.3,0.1,0.5,0.3,0.6,0.8l0.5,1.3c0.1,0.2,0.1,0.3,0.2,0.4c0.1,0.1,0.1,0.2,0.2,0.2c-0.1,0.2-0.3,0.2-0.5,0.2c-0.1,0-0.2,0-0.3-0.1
		c-0.1-0.1-0.1-0.2-0.2-0.4l-0.6-1.5c-0.1-0.3-0.2-0.5-0.4-0.7c-0.2-0.2-0.4-0.2-0.7-0.2h-1v2.8c-0.1,0-0.2,0-0.4,0
		c-0.1,0-0.3,0-0.4,0L42.6,23.7L42.6,23.7z M43.3,24.2v2.6c0.1,0,0.3,0,0.5,0s0.4,0,0.7,0s0.5,0,0.7-0.1s0.3-0.2,0.4-0.3
		c0.1-0.1,0.2-0.3,0.2-0.4c0-0.2,0.1-0.3,0.1-0.5c0-0.2,0-0.4-0.1-0.5c0-0.2-0.1-0.3-0.2-0.4c-0.1-0.1-0.3-0.2-0.4-0.3
		c-0.2-0.1-0.4-0.1-0.7-0.1c-0.3,0-0.5,0-0.7,0C43.6,24.2,43.4,24.2,43.3,24.2z"/>
	<path class="st0" d="M47.9,30.3v-6.6c0.1,0,0.2,0,0.4,0s0.3,0,0.4,0v6.6c-0.1,0-0.2,0-0.4,0S48,30.3,47.9,30.3z"/>
	<path class="st0" d="M50.9,29.8c-0.7-0.6-1-1.6-1-2.8c0-0.5,0.1-1,0.2-1.4c0.1-0.4,0.3-0.8,0.5-1.1c0.2-0.3,0.5-0.5,0.8-0.7
		s0.7-0.2,1.1-0.2c0.4,0,0.8,0.1,1.2,0.3c0.3,0.2,0.6,0.4,0.8,0.7s0.4,0.7,0.5,1.1C55,26.1,55,26.5,55,27c0,0.5-0.1,1-0.2,1.4
		c-0.1,0.4-0.3,0.8-0.5,1.1c-0.2,0.3-0.5,0.5-0.8,0.7c-0.3,0.2-0.7,0.2-1.1,0.2C51.8,30.4,51.3,30.2,50.9,29.8z M50.7,26
		c0,0.2-0.1,0.3-0.1,0.5s0,0.3,0,0.5c0,0.3,0,0.6,0.1,0.9c0,0.3,0.1,0.6,0.3,0.9c0.1,0.3,0.3,0.5,0.6,0.7c0.2,0.2,0.6,0.3,0.9,0.3
		c0.3,0,0.5,0,0.7-0.1s0.4-0.2,0.5-0.4c0.1-0.1,0.2-0.3,0.3-0.5c0.1-0.2,0.1-0.4,0.2-0.6c0-0.2,0.1-0.4,0.1-0.6s0-0.4,0-0.6
		c0-0.3,0-0.6-0.1-0.9c0-0.3-0.1-0.6-0.3-0.9c-0.1-0.3-0.3-0.5-0.6-0.7c-0.2-0.2-0.5-0.3-0.9-0.3c-0.3,0-0.5,0.1-0.7,0.2
		c-0.2,0.1-0.4,0.2-0.5,0.4s-0.2,0.4-0.3,0.6C50.8,25.5,50.7,25.8,50.7,26z"/>
	<path class="st0" d="M61.6,29.8c-0.1,0.1-0.2,0.1-0.3,0.2s-0.3,0.1-0.4,0.2c-0.1,0-0.3,0.1-0.4,0.1c-0.1,0-0.3,0-0.4,0
		c-0.1,0-0.3,0-0.7,0c-0.3,0-0.8,0-1.4,0l-0.1-0.1v-6.5l0.1-0.1c0.6,0,1.2,0,2,0c0.5,0,0.9,0.1,1.3,0.3c0.3,0.2,0.6,0.4,0.8,0.7
		c0.2,0.3,0.3,0.7,0.4,1.1c0.1,0.4,0.1,0.8,0.1,1.3c0,0.3,0,0.6,0,0.9c0,0.3-0.1,0.5-0.2,0.8s-0.2,0.4-0.3,0.6S61.8,29.6,61.6,29.8z
		 M58.7,29.7l1.3,0c0.4,0,0.7-0.1,0.9-0.2c0.2-0.1,0.4-0.3,0.6-0.6c0.1-0.2,0.2-0.5,0.3-0.8c0.1-0.3,0.1-0.6,0.1-0.9
		c0-0.4,0-0.8-0.1-1.2c0-0.4-0.1-0.7-0.3-0.9c-0.1-0.3-0.3-0.5-0.6-0.6c-0.3-0.1-0.6-0.2-0.9-0.2l-1.3,0V29.7z"/>
	<path class="st0" d="M66.9,28.5l-0.7,0H65l-0.7,0l-0.6,1.7c-0.1,0-0.2,0-0.3,0c-0.1,0-0.2,0-0.4,0l0,0l2.2-6.6c0.1,0,0.3,0,0.4,0
		c0.2,0,0.3,0,0.4,0l2.2,6.6c-0.1,0.1-0.2,0.1-0.4,0.1s-0.3,0-0.3-0.1c-0.1-0.1-0.1-0.2-0.2-0.3L66.9,28.5z M64.5,27.9l0.6,0h1.1
		c0,0,0.1,0,0.2,0c0.2,0,0.3,0,0.3,0l-0.6-1.8c-0.2-0.8-0.4-1.3-0.5-1.6h0c-0.1,0.5-0.2,0.9-0.3,1.1L64.5,27.9z"/>
</g>
<g>
	<path class="st0" d="M40.4,39.3c0-0.2,0.1-0.4,0.2-0.5c0.1-0.2,0.2-0.3,0.3-0.4c0.7,0.4,1.3,0.6,2,0.6c0.3,0,0.6-0.1,0.7-0.2
		c0.2-0.1,0.3-0.3,0.3-0.5c0-0.4-0.3-0.7-0.7-0.9L42,36.8c-0.5-0.2-0.8-0.4-1-0.7c-0.2-0.3-0.3-0.6-0.3-1c0-0.3,0.1-0.6,0.2-0.8
		c0.1-0.2,0.3-0.4,0.5-0.6c0.2-0.2,0.5-0.3,0.7-0.4c0.3-0.1,0.6-0.1,1-0.1c0.7,0,1.4,0.2,2.1,0.5c0,0.4-0.2,0.7-0.5,1
		c-0.7-0.3-1.2-0.5-1.7-0.5c-0.3,0-0.5,0.1-0.7,0.2S42,34.7,42,34.9c0,0.3,0.2,0.5,0.7,0.7l1.1,0.5c0.5,0.2,0.8,0.4,1.1,0.8
		s0.4,0.7,0.4,1.1c0,0.3-0.1,0.6-0.2,0.8c-0.1,0.2-0.3,0.5-0.5,0.6s-0.5,0.3-0.8,0.4S43.2,40,42.8,40C41.9,40,41.2,39.8,40.4,39.3z"
		/>
	<path class="st0" d="M49.3,38.4l-0.5,0h-1.4l-0.5,0l-0.5,1.5c-0.1,0-0.3,0-0.6,0c-0.2,0-0.4,0-0.6-0.1l0-0.1l2.2-6.5
		c0.2,0,0.5,0,0.8,0s0.5,0,0.7,0.1l2.1,6.5c-0.2,0.1-0.4,0.2-0.7,0.2c-0.3,0-0.4,0-0.6-0.1s-0.2-0.3-0.3-0.6L49.3,38.4z M47.3,37.3
		l0.4,0h0.8l0.4,0l-0.3-1c-0.2-0.7-0.4-1.4-0.5-1.9h-0.1c-0.1,0.3-0.2,0.8-0.4,1.6L47.3,37.3z"/>
	<path class="st0" d="M56.6,33.3v4.2c0,0.8-0.2,1.4-0.7,1.9c-0.4,0.4-1.1,0.7-1.9,0.7c-0.8,0-1.4-0.2-1.9-0.7
		c-0.4-0.4-0.7-1.1-0.7-1.9v-4.2l0.1-0.1h0.5c0.3,0,0.5,0.1,0.6,0.2s0.2,0.3,0.2,0.6v3.5c0,1,0.4,1.5,1.2,1.5c0.8,0,1.2-0.5,1.2-1.5
		v-4.2c0.2,0,0.4,0,0.7,0S56.5,33.2,56.6,33.3z M53,32.2l2.1-1.2c0.1,0.1,0.2,0.2,0.3,0.4c0.1,0.2,0.2,0.4,0.2,0.6l-2.2,0.9
		c-0.1-0.1-0.2-0.1-0.2-0.3C53.1,32.5,53,32.3,53,32.2z"/>
	<path class="st0" d="M61.9,39.4c-0.2,0.2-0.5,0.3-0.8,0.4c-0.3,0.1-0.7,0.1-1,0.1c-0.2,0-0.4,0-0.8,0c-0.4,0-0.8,0-1.4,0l-0.1-0.1
		v-6.5l0.1-0.1c0.4,0,0.7,0,1.1,0c0.4,0,0.8,0,1.2,0c0.5,0,1,0.1,1.3,0.3s0.6,0.4,0.9,0.7c0.2,0.3,0.4,0.7,0.4,1.1s0.1,0.8,0.1,1.3
		c0,0.6-0.1,1.2-0.2,1.7S62.3,39.1,61.9,39.4z M61.3,35c-0.2-0.5-0.6-0.8-1.2-0.8c-0.2,0-0.4,0-0.6,0s-0.3,0-0.5,0v4.7
		c0.1,0,0.3,0,0.4,0c0.2,0,0.3,0,0.5,0c0.2,0,0.3,0,0.4,0s0.3-0.1,0.3-0.1c0.2-0.1,0.3-0.2,0.4-0.4c0.1-0.2,0.2-0.3,0.2-0.5
		s0.1-0.4,0.1-0.6c0-0.2,0-0.5,0-0.7c0-0.3,0-0.5-0.1-0.8C61.5,35.5,61.4,35.3,61.3,35z"/>
	<path class="st0" d="M65,38.2l0,0.6l0.7,0h2.4c0,0.2,0,0.4,0,0.5c-0.1,0.4-0.3,0.6-0.8,0.6h-2.7c-0.2,0-0.4-0.1-0.5-0.2
		c-0.1-0.1-0.2-0.3-0.2-0.6v-5.8l0.1-0.1h4c0,0.2,0,0.3,0,0.5c0,0.2,0,0.4-0.1,0.6H65l0,0.7v1l0.6,0h1.6c0.1,0.1,0.1,0.3,0.1,0.5
		s0,0.4-0.1,0.5H65V38.2z"/>
</g>
<rect x="84" y="8.8" class="st1" width="46.8" height="33.1"/>
<g>
	<defs>
		<polygon id="SVGID_1_" points="84,8.8 84,26.8 102.6,11.7 130.8,24.2 130.8,8.8 		"/>
	</defs>
	<clipPath id="SVGID_2_">
		<use xlink:href="#SVGID_1_"  style="overflow:visible;"/>
	</clipPath>
	
		<linearGradient id="SVGID_3_" gradientUnits="userSpaceOnUse" x1="-357.9824" y1="324.9756" x2="-357.6401" y2="324.9756" gradientTransform="matrix(11.8313 67.0987 67.0987 -11.8313 -17464.8906 27870.0469)">
		<stop  offset="0" style="stop-color:#005F27"/>
		<stop  offset="7.890022e-02" style="stop-color:#096426"/>
		<stop  offset="0.2077" style="stop-color:#217122"/>
		<stop  offset="0.3703" style="stop-color:#49871C"/>
		<stop  offset="0.5605" style="stop-color:#80A613"/>
		<stop  offset="0.7712" style="stop-color:#C6CC09"/>
		<stop  offset="0.9294" style="stop-color:#FFEC00"/>
		<stop  offset="1" style="stop-color:#FFEC00"/>
	</linearGradient>
	<polygon class="st2" points="129.4,0.7 133.9,26.2 85.4,34.8 80.9,9.3 	"/>
</g>
<g>
	<defs>
		<path id="SVGID_4_" d="M84,26.8v12.8c0,0,1.5-1.3,4.3-3.2c1.3-8.2,8.5-14.5,17.1-14.5c3.9,0,7.5,1.3,10.4,3.5
			c4.6-0.9,9.7-1.3,15.1-1.2l-28.2-12.4L84,26.8z"/>
	</defs>
	<clipPath id="SVGID_5_">
		<use xlink:href="#SVGID_4_"  style="overflow:visible;"/>
	</clipPath>
	
		<linearGradient id="SVGID_6_" gradientUnits="userSpaceOnUse" x1="-358.6177" y1="325.1175" x2="-358.2754" y2="325.1175" gradientTransform="matrix(0 81.2694 81.2694 0 -26314.7031 29156.3691)">
		<stop  offset="0" style="stop-color:#FFEA00"/>
		<stop  offset="1" style="stop-color:#F49A00"/>
	</linearGradient>
	<rect x="84" y="11.7" class="st3" width="46.8" height="27.8"/>
</g>
<g>
	<defs>
		<path id="SVGID_7_" d="M84.4,38.9c0,0.1,0,0.2,0,0.3c0.6-0.5,1.9-1.5,3.8-2.8c1.3-8.2,8.5-14.5,17.1-14.5c3.9,0,7.5,1.3,10.4,3.5
			c1.5-0.3,3.1-0.5,4.7-0.7c-3.8-4.5-9.3-7.3-15.4-7.3C93.7,17.3,84.4,27,84.4,38.9"/>
	</defs>
	<clipPath id="SVGID_8_">
		<use xlink:href="#SVGID_7_"  style="overflow:visible;"/>
	</clipPath>
	<defs>
		<filter id="Adobe_OpacityMaskFilter" filterUnits="userSpaceOnUse" x="84.4" y="17.3" width="36" height="21.8">
			<feColorMatrix  type="matrix" values="1 0 0 0 0  0 1 0 0 0  0 0 1 0 0  0 0 0 1 0"/>
		</filter>
	</defs>
	<mask maskUnits="userSpaceOnUse" x="84.4" y="17.3" width="36" height="21.8" id="SVGID_9_">
		<g class="st4">
			
				<radialGradient id="SVGID_10_" cx="-358.9508" cy="323.1516" r="0.3422" gradientTransform="matrix(60.1793 0 0 -62.9934 21706.4473 20395.3281)" gradientUnits="userSpaceOnUse">
				<stop  offset="0" style="stop-color:#FFFFFF"/>
				<stop  offset="0.8324" style="stop-color:#FFFFFF"/>
				<stop  offset="1" style="stop-color:#000000"/>
			</radialGradient>
			<rect x="84.4" y="17.3" class="st5" width="36" height="21.8"/>
		</g>
	</mask>
	
		<radialGradient id="SVGID_11_" cx="-358.9508" cy="323.1516" r="0.3422" gradientTransform="matrix(60.1793 0 0 -62.9934 21706.4492 20395.3281)" gradientUnits="userSpaceOnUse">
		<stop  offset="0" style="stop-color:#FFF8C7"/>
		<stop  offset="0.8324" style="stop-color:#FFF8C7"/>
		<stop  offset="1" style="stop-color:#FFFFFF"/>
	</radialGradient>
	<rect x="84.4" y="17.3" class="st6" width="36" height="21.8"/>
</g>
<g>
	<defs>
		<path id="SVGID_12_" d="M88.2,36.4L88.2,36.4c5.2-3.4,14.7-8.7,27.5-11.1c-2.9-2.2-6.5-3.5-10.4-3.5
			C96.7,21.9,89.6,28.2,88.2,36.4"/>
	</defs>
	<clipPath id="SVGID_13_">
		<use xlink:href="#SVGID_12_"  style="overflow:visible;"/>
	</clipPath>
	
		<linearGradient id="SVGID_14_" gradientUnits="userSpaceOnUse" x1="-357.2486" y1="326.1217" x2="-356.9063" y2="326.1217" gradientTransform="matrix(3.3248 38.0027 38.0027 -3.3248 -11104.3506 14682.8535)">
		<stop  offset="0" style="stop-color:#39AAE1"/>
		<stop  offset="1" style="stop-color:#1B3A6B"/>
	</linearGradient>
	<polygon class="st7" points="115.5,19.5 117,36.3 88.5,38.8 87,22 	"/>
</g>
<g>
	<defs>
		<path id="SVGID_15_" d="M120,30.1C104.3,31,93.5,36,88,39.2c-2.7,1.6-4,2.7-4,2.7h46.8V30.1c-2-0.1-3.8-0.2-5.7-0.2
			C123.4,29.9,121.7,30,120,30.1"/>
	</defs>
	<clipPath id="SVGID_16_">
		<use xlink:href="#SVGID_15_"  style="overflow:visible;"/>
	</clipPath>
	
		<linearGradient id="SVGID_17_" gradientUnits="userSpaceOnUse" x1="-357.6019" y1="326.2094" x2="-357.2596" y2="326.2094" gradientTransform="matrix(0 35.028 35.028 0 -11319.0723 12556.002)">
		<stop  offset="0" style="stop-color:#FFEC00"/>
		<stop  offset="0.8515" style="stop-color:#007C34"/>
		<stop  offset="1" style="stop-color:#007C34"/>
	</linearGradient>
	<rect x="84" y="29.9" class="st8" width="46.8" height="12"/>
</g>
<g>
	<defs>
		<rect id="SVGID_18_" x="84" y="6.3" width="127.2" height="35.8"/>
	</defs>
	<clipPath id="SVGID_19_">
		<use xlink:href="#SVGID_18_"  style="overflow:visible;"/>
	</clipPath>
	<path class="st9" d="M140.7,19.4c3.7,0,5.5,1.6,5.5,4.1c0,1.4-1,2.7-2.4,3.2c1.7,0.5,3.2,2,3.2,4c0,2.5-1.8,4.4-6,4.4
		c-2.1,0-3.7,0-5.6-0.1l-0.2-0.2V19.6l0.2-0.2C137.3,19.4,139,19.4,140.7,19.4 M137.9,25.9h2.7c2.4,0,2.9-1.3,2.9-2.3
		c0-1.1-0.5-2.3-2.9-2.3c-0.7,0-1.9,0-2.7,0V25.9z M137.9,27.8v5.5c1.1,0,2.1,0,3.1,0c2.7,0,3.3-1.6,3.3-2.7c0-1.1-0.7-2.8-3.5-2.8
		H137.9z"/>
	<path class="st9" d="M157.2,28.2c0.8,0.3,1.4,1,1.8,1.9l1.1,2.7c0.3,0.6,0.6,1.2,1.1,1.6c-0.4,0.5-1.1,0.8-1.8,0.8
		c-1,0-1.4-0.5-1.8-1.5l-1.3-3.1c-0.4-1-1-1.9-2.6-1.9h-2.1V35c-0.4,0.1-0.9,0.1-1.3,0.1c-0.4,0-0.9,0-1.3-0.1V19.6l0.2-0.2
		c1.9,0,3.7-0.1,5.5-0.1c3.5,0,5.8,1.6,5.8,4.7C160.5,26.1,159.1,27.7,157.2,28.2 M151.8,26.8c1,0,2.1,0,2.8,0
		c2.5,0,3.1-1.4,3.1-2.7c0-1.4-0.6-2.8-3.1-2.8c-0.7,0-2,0-2.8,0V26.8z"/>
	<path class="st9" d="M166.6,31.2l-1.3,3.8c-0.3,0.1-0.8,0.1-1.2,0.1c-0.5,0-1-0.1-1.3-0.2l-0.1-0.1l5.7-15.4
		c0.4-0.1,1.1-0.1,1.5-0.1c0.4,0,1.1,0,1.5,0.1l5.7,15.4c-0.4,0.2-1,0.3-1.6,0.3c-0.8,0-1.3-0.3-1.6-1.3l-0.9-2.7
		c-0.4,0-1.3,0-1.5,0H168C167.8,31.3,167,31.2,166.6,31.2 M167.2,29.3c0.4,0,1.1,0,1.3,0h2.5c0.2,0,0.9,0,1.3,0l-1.2-3.3
		c-0.5-1.3-1-2.9-1.3-4.1h-0.1c-0.3,1-0.7,2.5-1,3.3L167.2,29.3z"/>
	<path class="st9" d="M179.6,31.7c1.5,0.9,3.3,1.6,5.1,1.6c2.1,0,3.2-0.9,3.2-2.1c0-1.1-0.8-1.9-2.3-2.5l-3-1.2
		c-2.1-0.8-3.5-2-3.5-3.9c0-2.5,2.3-4.4,5.7-4.4c2.1,0,4.1,0.6,5.4,1.2c0,0.7-0.4,1.4-1,1.9c-1.3-0.6-3-1.1-4.3-1.1
		c-1.9,0-3,0.9-3,2.1c0,1,0.9,1.6,2.1,2.1l2.9,1.1c2.2,0.8,3.8,2.2,3.8,4.2c0,2.6-2,4.6-6.2,4.6c-2.1,0-4.4-0.6-6.1-1.7
		C178.5,32.9,179,32.2,179.6,31.7"/>
	<path class="st9" d="M193.9,19.5c0.4-0.1,0.9-0.1,1.3-0.1c0.4,0,0.9,0,1.3,0.1V35c-0.4,0.1-0.9,0.1-1.3,0.1c-0.4,0-1,0-1.3-0.1
		V19.5z"/>
	<path class="st9" d="M211,32.9c0,0.3,0,0.7-0.1,1c-0.2,0.8-0.8,1.2-1.8,1.2h-6.6c-0.9,0-1.6-0.5-1.6-1.5v-14l0.2-0.1h1
		c1.1,0,1.5,0.5,1.5,1.6V33c0.8-0.1,1.6-0.1,2.3-0.1H211z"/>
	<path class="st9" d="M137.9,14.2h-1.1v2.6c-0.2,0-0.6,0.1-0.8,0.1c-0.2,0-0.5,0-0.8-0.1V9l0.1-0.1c0.9,0,1.7,0,2.5,0
		c1.6,0,2.7,0.9,2.7,2.7C140.6,13.3,139.4,14.2,137.9,14.2 M136.8,13c0.4,0,0.8,0,1,0c1,0,1.2-0.8,1.2-1.4c0-0.6-0.2-1.4-1.2-1.4
		c-0.3,0-0.6,0-1,0V13z"/>
	<path class="st9" d="M142.4,15l-0.5,1.8c-0.2,0-0.4,0.1-0.7,0.1c-0.2,0-0.6,0-0.7-0.1l-0.1-0.1L143,9c0.3,0,0.6-0.1,0.9-0.1
		c0.2,0,0.6,0,0.9,0.1l2.5,7.7c-0.2,0.1-0.6,0.2-0.9,0.2c-0.5,0-0.7-0.2-0.9-0.8l-0.3-1c-0.2,0-0.4,0-0.6,0H143
		C142.9,15.1,142.6,15.1,142.4,15 M142.8,13.8c0.2,0,0.4,0,0.5,0h1c0.1,0,0.3,0,0.5,0l-0.3-1.2c-0.2-0.7-0.4-1.5-0.6-2.2h-0.1
		c-0.1,0.6-0.4,1.4-0.5,1.9L142.8,13.8z"/>
	<path class="st9" d="M148.9,11.1c0-0.3,0-0.5,0-0.9h0c-0.2,0-0.5,0-0.7,0h-1.3c0-0.2-0.1-0.5-0.1-0.6c0-0.2,0-0.4,0.1-0.6h5.5
		c0,0.2,0.1,0.4,0.1,0.6c0,0.5-0.3,0.7-0.8,0.7h-0.5c-0.2,0-0.5,0-0.7,0h0c0,0.3,0,0.5,0,0.9v5.7c-0.3,0-0.6,0.1-0.8,0.1
		c-0.2,0-0.5,0-0.8-0.1V11.1z"/>
	<path class="st9" d="M157.4,13.5c0.4,0.1,0.7,0.5,0.9,1l0.4,1.2c0.1,0.3,0.3,0.6,0.5,0.8c-0.2,0.3-0.6,0.5-1,0.5
		c-0.6,0-0.8-0.3-1-0.9l-0.5-1.4c-0.2-0.5-0.4-0.8-1.1-0.8H155v3c-0.3,0-0.6,0.1-0.8,0.1c-0.2,0-0.5,0-0.8-0.1V9l0.1-0.1
		c0.9,0,1.8,0,2.6,0c1.6,0,2.7,0.8,2.7,2.4C158.9,12.4,158.2,13.2,157.4,13.5 M155,12.6c0.4,0,0.8,0,1.1,0c1,0,1.2-0.6,1.2-1.2
		c0-0.6-0.2-1.2-1.2-1.2c-0.3,0-0.7,0-1.1,0V12.6z"/>
	<path class="st9" d="M160.5,9c0.2,0,0.6-0.1,0.8-0.1c0.2,0,0.5,0,0.8,0.1v7.8c-0.3,0-0.6,0.1-0.8,0.1c-0.2,0-0.5,0-0.8-0.1V9z"/>
	<path class="st9" d="M165.2,15l-0.5,1.8c-0.2,0-0.4,0.1-0.7,0.1c-0.2,0-0.6,0-0.7-0.1l-0.1-0.1l2.6-7.7c0.3,0,0.6-0.1,0.9-0.1
		c0.2,0,0.6,0,0.9,0.1l2.5,7.7c-0.2,0.1-0.6,0.2-0.9,0.2c-0.5,0-0.7-0.2-0.9-0.8l-0.3-1c-0.2,0-0.4,0-0.6,0h-1.6
		C165.6,15.1,165.4,15.1,165.2,15 M165.6,13.8c0.2,0,0.4,0,0.5,0h1c0.1,0,0.3,0,0.5,0l-0.3-1.2c-0.2-0.7-0.4-1.5-0.6-2.2h-0.1
		c-0.1,0.6-0.4,1.4-0.5,1.9L165.6,13.8z"/>
	<path class="st9" d="M174.9,15l-0.5,1.8c-0.2,0-0.4,0.1-0.7,0.1c-0.2,0-0.6,0-0.7-0.1l-0.1-0.1l2.6-7.7c0.3,0,0.6-0.1,0.9-0.1
		c0.2,0,0.6,0,0.9,0.1l2.5,7.7c-0.2,0.1-0.6,0.2-0.9,0.2c-0.5,0-0.7-0.2-0.9-0.8l-0.3-1c-0.2,0-0.4,0-0.6,0h-1.6
		C175.3,15.1,175.1,15.1,174.9,15 M175.3,13.8c0.2,0,0.4,0,0.5,0h1c0.1,0,0.3,0,0.5,0l-0.3-1.2c-0.2-0.7-0.4-1.5-0.6-2.2h-0.1
		c-0.1,0.6-0.4,1.4-0.5,1.9L175.3,13.8z"/>
	<path class="st9" d="M181.3,9c0.3-0.1,0.8-0.1,1-0.1c0.3,0,0.7,0,1,0.1l0.9,3.2c0.1,0.3,0.4,1.5,0.4,2h0.1c0.1-0.5,0.4-1.6,0.4-2
		L186,9c0.3-0.1,0.7-0.1,1-0.1c0.3,0,0.7,0,1,0.1l0.6,7.8c-0.2,0.1-0.5,0.1-0.8,0.1c-0.2,0-0.5,0-0.7,0l-0.2-3.7
		c0-0.7-0.1-1.8-0.1-2.5h-0.1l-1.3,5c-0.2,0-0.6,0.1-0.8,0.1c-0.2,0-0.6,0-0.8-0.1l-1.3-5h-0.1c0,0.7,0,1.8-0.1,2.5l-0.2,3.7
		c-0.2,0-0.4,0-0.7,0c-0.2,0-0.6,0-0.8-0.1L181.3,9z"/>
	<path class="st9" d="M191.5,15l-0.5,1.8c-0.2,0-0.4,0.1-0.7,0.1c-0.2,0-0.6,0-0.7-0.1l-0.1-0.1l2.6-7.7c0.3,0,0.6-0.1,0.9-0.1
		c0.2,0,0.6,0,0.9,0.1l2.5,7.7c-0.2,0.1-0.6,0.2-0.9,0.2c-0.5,0-0.7-0.2-0.9-0.8l-0.3-1c-0.2,0-0.4,0-0.6,0h-1.6
		C192,15.1,191.7,15.1,191.5,15 M191.9,13.8c0.2,0,0.4,0,0.5,0h1c0.1,0,0.3,0,0.5,0l-0.3-1.2c-0.2-0.7-0.4-1.5-0.6-2.2h-0.1
		c-0.1,0.6-0.4,1.4-0.5,1.9L191.9,13.8z"/>
	<path class="st9" d="M202.3,16.3c-0.5,0.4-1.4,0.6-2.1,0.6c-1,0-1.7,0-2.7,0l-0.1-0.1V9l0.1-0.1c1,0,1.7,0,2.7,0
		c0.6,0,1.6,0.2,2.1,0.6c1.1,0.9,1.3,2.1,1.3,3.4C203.6,14.2,203.4,15.5,202.3,16.3 M200.3,10.1c-0.4,0-0.8,0-1.3,0v5.5
		c0.5,0,0.8,0,1.3,0c1.5,0,1.7-1.5,1.7-2.8C202,11.6,201.8,10.1,200.3,10.1"/>
	<path class="st9" d="M206.1,15l-0.5,1.8c-0.2,0-0.4,0.1-0.7,0.1c-0.2,0-0.6,0-0.7-0.1l-0.1-0.1l2.6-7.7c0.3,0,0.6-0.1,0.9-0.1
		c0.2,0,0.6,0,0.9,0.1l2.5,7.7c-0.2,0.1-0.6,0.2-0.9,0.2c-0.5,0-0.7-0.2-0.9-0.8l-0.3-1c-0.2,0-0.4,0-0.6,0h-1.6
		C206.6,15.1,206.3,15.1,206.1,15 M206.5,13.8c0.2,0,0.4,0,0.5,0h1c0.1,0,0.3,0,0.5,0l-0.3-1.2c-0.2-0.7-0.4-1.5-0.6-2.2h-0.1
		c-0.1,0.6-0.4,1.4-0.5,1.9L206.5,13.8z"/>
	<path class="st9" d="M145.2,6.3c0.2,0.1,0.5,0.5,0.6,0.8L144,8.2c-0.2-0.1-0.4-0.3-0.4-0.5L145.2,6.3z"/>
	<path class="st10" d="M137.2,39.8l0.9,0c0.4,0,0.6,0.2,0.6,0.6v1.5c-0.5,0.2-1,0.2-1.5,0.2c-0.3,0-0.5,0-0.7-0.1
		c-0.2-0.1-0.4-0.2-0.5-0.4c-0.1-0.2-0.2-0.4-0.3-0.6c-0.1-0.2-0.1-0.5-0.1-0.8c0-0.3,0-0.6,0.1-0.9c0.1-0.3,0.2-0.5,0.4-0.6
		c0.2-0.2,0.4-0.3,0.6-0.4c0.2-0.1,0.4-0.1,0.7-0.1c0.5,0,0.9,0.1,1.4,0.4c0,0.1,0,0.1,0,0.2c0,0.1-0.1,0.1-0.1,0.2
		c0,0.1-0.1,0.1-0.1,0.2c0,0-0.1,0.1-0.1,0.1c-0.3-0.2-0.6-0.3-0.9-0.3c-0.6,0-0.9,0.4-0.9,1.3c0,0.8,0.3,1.3,0.9,1.3
		c0.1,0,0.2,0,0.2,0c0.1,0,0.2,0,0.2,0v-0.4c0-0.1,0-0.2,0-0.2c0-0.1,0-0.1,0-0.2h-0.3c-0.2,0-0.3,0-0.3-0.1
		c-0.1-0.1-0.1-0.2-0.1-0.3C137.1,40.1,137.1,39.9,137.2,39.8"/>
	<path class="st10" d="M141.6,41.7c-0.4-0.3-0.6-0.9-0.6-1.6c0-0.3,0-0.6,0.1-0.9c0.1-0.2,0.2-0.5,0.3-0.6c0.1-0.2,0.3-0.3,0.5-0.4
		c0.2-0.1,0.4-0.1,0.7-0.1s0.5,0,0.7,0.1c0.2,0.1,0.4,0.2,0.5,0.4c0.1,0.2,0.3,0.4,0.3,0.6c0.1,0.2,0.1,0.5,0.1,0.9
		c0,0.3,0,0.6-0.1,0.9c-0.1,0.2-0.2,0.5-0.3,0.6c-0.1,0.2-0.3,0.3-0.5,0.4c-0.2,0.1-0.4,0.1-0.7,0.1
		C142.3,42.1,141.9,41.9,141.6,41.7 M142.1,40.9c0.1,0.3,0.3,0.4,0.6,0.4c0.2,0,0.3,0,0.4-0.1c0.1-0.1,0.2-0.2,0.2-0.3
		c0.1-0.1,0.1-0.2,0.1-0.4c0-0.1,0-0.3,0-0.4c0-0.1,0-0.3,0-0.4c0-0.2,0-0.3-0.1-0.4c0-0.1-0.1-0.3-0.2-0.4
		c-0.1-0.1-0.2-0.1-0.4-0.1c-0.2,0-0.3,0-0.4,0.1c-0.1,0.1-0.2,0.2-0.2,0.3c0,0.1-0.1,0.3-0.1,0.4c0,0.2,0,0.3,0,0.4
		c0,0.2,0,0.3,0,0.5C142,40.7,142,40.8,142.1,40.9"/>
	<path class="st10" d="M148.2,41.2l0.7-3.1c0.1,0,0.2,0,0.3,0c0.2,0,0.3,0,0.5,0.1l0,0l-1,3.7c-0.2,0-0.4,0-0.6,0
		c-0.2,0-0.4,0-0.5-0.1c-0.1-0.1-0.2-0.2-0.2-0.3l-0.9-3.4c0.2-0.1,0.4-0.1,0.5-0.1c0.2,0,0.3,0,0.3,0.1c0.1,0.1,0.1,0.2,0.2,0.3
		l0.4,1.6C148,40.4,148.1,40.7,148.2,41.2C148.1,41.2,148.2,41.2,148.2,41.2"/>
	<path class="st10" d="M153,40.8l0,0.4v0c0.2,0,0.3,0,0.4,0h1.3c0,0.1,0,0.2,0,0.3c0,0.3-0.2,0.4-0.6,0.4h-1.5c-0.2,0-0.3,0-0.4-0.1
		c-0.1-0.1-0.1-0.2-0.1-0.4v-3.3l0,0h2.4c0,0.1,0,0.2,0,0.4s0,0.3-0.1,0.4H153l0,0.4v0.4c0.1,0,0.2,0,0.4,0h0.9
		c0,0.1,0.1,0.2,0.1,0.4c0,0.1,0,0.3-0.1,0.4H153V40.8z"/>
	<path class="st10" d="M160,39.3c0,0.1,0,0.2-0.1,0.3c0,0.1-0.1,0.2-0.1,0.3c-0.1,0.1-0.1,0.2-0.2,0.2c-0.1,0.1-0.2,0.1-0.3,0.1
		c0.2,0.1,0.3,0.2,0.4,0.5l0.2,0.5c0.1,0.2,0.2,0.3,0.3,0.4c-0.1,0.1-0.1,0.1-0.3,0.2c-0.1,0.1-0.2,0.1-0.4,0.1
		c-0.1,0-0.2,0-0.3-0.1c-0.1-0.1-0.1-0.2-0.2-0.4l-0.2-0.6c0-0.1-0.1-0.2-0.2-0.3c-0.1-0.1-0.2-0.1-0.3-0.1h-0.2V42
		c-0.1,0-0.3,0-0.4,0c-0.2,0-0.3,0-0.4,0v-3.8l0,0c0.3,0,0.6,0,0.8,0c0.2,0,0.4,0,0.5,0c0.2,0,0.4,0,0.6,0.1
		c0.2,0.1,0.3,0.1,0.4,0.2c0.1,0.1,0.2,0.2,0.3,0.4C160,39,160,39.1,160,39.3 M158.1,38.8v1.1c0.2,0,0.3,0,0.4,0
		c0.1,0,0.2,0,0.3-0.1c0.1,0,0.1-0.1,0.2-0.2c0-0.1,0.1-0.2,0.1-0.3c0-0.4-0.2-0.5-0.5-0.5h-0.2C158.3,38.8,158.2,38.8,158.1,38.8"
		/>
	<path class="st10" d="M165.6,38.1L165.6,38.1l0,3.8c-0.1,0-0.3,0.1-0.5,0.1c-0.2,0-0.4,0-0.5,0l-0.9-2c-0.1-0.2-0.2-0.5-0.3-0.8
		l0,0c0,0.5,0.1,1.1,0.1,1.7V42c-0.1,0-0.3,0-0.4,0c-0.2,0-0.3,0-0.4,0v-3.8c0.1,0,0.3-0.1,0.5-0.1c0.2,0,0.4,0,0.5,0l0.9,2
		c0.2,0.4,0.3,0.7,0.3,0.8l0,0c0-0.5-0.1-1.1-0.1-1.6v-0.7c0-0.2,0-0.3,0.1-0.4c0.1-0.1,0.2-0.1,0.4-0.1H165.6z"/>
	<path class="st10" d="M168.8,41.7c-0.4-0.3-0.6-0.9-0.6-1.6c0-0.3,0-0.6,0.1-0.9c0.1-0.2,0.2-0.5,0.3-0.6c0.1-0.2,0.3-0.3,0.5-0.4
		c0.2-0.1,0.4-0.1,0.7-0.1c0.3,0,0.5,0,0.7,0.1c0.2,0.1,0.4,0.2,0.5,0.4c0.1,0.2,0.3,0.4,0.3,0.6c0.1,0.2,0.1,0.5,0.1,0.9
		c0,0.3,0,0.6-0.1,0.9c-0.1,0.2-0.2,0.5-0.3,0.6c-0.1,0.2-0.3,0.3-0.5,0.4c-0.2,0.1-0.4,0.1-0.7,0.1
		C169.4,42.1,169.1,41.9,168.8,41.7 M169.2,40.9c0.1,0.3,0.3,0.4,0.6,0.4c0.2,0,0.3,0,0.4-0.1c0.1-0.1,0.2-0.2,0.2-0.3
		c0.1-0.1,0.1-0.2,0.1-0.4c0-0.1,0-0.3,0-0.4c0-0.1,0-0.3,0-0.4c0-0.2,0-0.3-0.1-0.4c0-0.1-0.1-0.3-0.2-0.4
		c-0.1-0.1-0.2-0.1-0.4-0.1c-0.2,0-0.3,0-0.4,0.1c-0.1,0.1-0.2,0.2-0.2,0.3c0,0.1-0.1,0.3-0.1,0.4c0,0.2,0,0.3,0,0.4
		c0,0.2,0,0.3,0,0.5C169.2,40.7,169.2,40.8,169.2,40.9"/>
	<path class="st10" d="M178.1,38.9l0,0.4v0.4h1.2c0,0.1,0,0.2,0,0.4c0,0.1,0,0.3,0,0.4h-1.2V42c-0.1,0-0.3,0-0.4,0
		c-0.2,0-0.3,0-0.4,0v-3.8l0,0h2.4c0,0.1,0,0.2,0,0.3c0,0.1,0,0.2-0.1,0.3c-0.1,0.1-0.2,0.1-0.4,0.1H178.1z"/>
	<path class="st10" d="M183,40.8l0,0.4v0c0.2,0,0.3,0,0.4,0h1.3c0,0.1,0,0.2,0,0.3c0,0.3-0.2,0.4-0.6,0.4h-1.5c-0.2,0-0.3,0-0.4-0.1
		c-0.1-0.1-0.1-0.2-0.1-0.4v-3.3l0,0h2.4c0,0.1,0,0.2,0,0.4s0,0.3-0.1,0.4H183l0,0.4v0.4c0.1,0,0.2,0,0.4,0h0.9
		c0,0.1,0.1,0.2,0.1,0.4c0,0.1,0,0.3-0.1,0.4H183V40.8z"/>
	<path class="st10" d="M189.7,41.7c-0.1,0.1-0.3,0.2-0.5,0.2c-0.2,0-0.4,0.1-0.6,0.1c-0.1,0-0.3,0-0.5,0c-0.2,0-0.5,0-0.8,0l0,0
		v-3.8l0,0c0.2,0,0.4,0,0.7,0c0.2,0,0.5,0,0.7,0c0.3,0,0.6,0.1,0.8,0.2c0.2,0.1,0.4,0.2,0.5,0.4c0.1,0.2,0.2,0.4,0.3,0.6
		c0.1,0.2,0.1,0.5,0.1,0.8c0,0.4,0,0.7-0.1,1C190.1,41.3,189.9,41.5,189.7,41.7 M188.7,41.3c0.5,0,0.7-0.4,0.7-1.2
		c0-0.8-0.2-1.2-0.7-1.2h-0.3c-0.1,0-0.2,0-0.2,0v2.5c0.1,0,0.1,0,0.2,0H188.7z"/>
	<path class="st10" d="M193.7,40.8l0,0.4v0c0.2,0,0.3,0,0.4,0h1.3c0,0.1,0,0.2,0,0.3c0,0.3-0.2,0.4-0.6,0.4h-1.5
		c-0.2,0-0.3,0-0.4-0.1c-0.1-0.1-0.1-0.2-0.1-0.4v-3.3l0,0h2.4c0,0.1,0,0.2,0,0.4s0,0.3-0.1,0.4h-1.5l0,0.4v0.4c0.1,0,0.2,0,0.4,0
		h0.9c0,0.1,0.1,0.2,0.1,0.4c0,0.1,0,0.3-0.1,0.4h-1.2V40.8z"/>
	<path class="st10" d="M200.7,39.3c0,0.1,0,0.2-0.1,0.3c0,0.1-0.1,0.2-0.1,0.3c-0.1,0.1-0.1,0.2-0.2,0.2c-0.1,0.1-0.2,0.1-0.3,0.1
		c0.2,0.1,0.3,0.2,0.4,0.5l0.2,0.5c0.1,0.2,0.2,0.3,0.3,0.4c-0.1,0.1-0.1,0.1-0.3,0.2c-0.1,0.1-0.2,0.1-0.4,0.1
		c-0.1,0-0.2,0-0.3-0.1c-0.1-0.1-0.1-0.2-0.2-0.4l-0.2-0.6c0-0.1-0.1-0.2-0.2-0.3c-0.1-0.1-0.2-0.1-0.3-0.1h-0.2V42
		c-0.1,0-0.3,0-0.4,0c-0.2,0-0.3,0-0.4,0v-3.8l0,0c0.3,0,0.6,0,0.8,0c0.2,0,0.4,0,0.5,0c0.2,0,0.4,0,0.6,0.1
		c0.2,0.1,0.3,0.1,0.4,0.2c0.1,0.1,0.2,0.2,0.3,0.4C200.7,39,200.7,39.1,200.7,39.3 M198.9,38.8v1.1c0.2,0,0.3,0,0.4,0
		c0.1,0,0.2,0,0.3-0.1c0.1,0,0.1-0.1,0.2-0.2c0-0.1,0.1-0.2,0.1-0.3c0-0.4-0.2-0.5-0.5-0.5H199C199,38.8,198.9,38.8,198.9,38.8"/>
	<path class="st10" d="M204.2,41.2c-0.1,0-0.2,0-0.2,0l-0.2,0.8c-0.1,0-0.2,0-0.4,0c-0.2,0-0.3,0-0.4-0.1l0,0l1.2-3.7
		c0.1,0,0.3,0,0.5,0c0.2,0,0.4,0,0.5,0l1.2,3.8c-0.1,0.1-0.3,0.1-0.4,0.1c-0.2,0-0.3,0-0.4-0.1c-0.1-0.1-0.1-0.2-0.2-0.4l-0.1-0.4
		c0,0-0.1,0-0.2,0H204.2z M204.2,40.5l0.2,0h0.4c0,0,0.1,0,0.1,0c0,0,0.1,0,0.1,0l-0.1-0.3c-0.1-0.3-0.2-0.7-0.3-1.2h0
		c0,0.2-0.1,0.5-0.3,1.1L204.2,40.5z"/>
	<path class="st10" d="M210.2,41.2h1c0,0.1,0,0.3,0,0.4c0,0.1-0.1,0.2-0.2,0.3c-0.1,0.1-0.2,0.1-0.4,0.1h-1.3c-0.2,0-0.3,0-0.4-0.1
		c-0.1-0.1-0.1-0.2-0.1-0.4v-3.3l0,0h0.3c0.3,0,0.5,0.2,0.5,0.6v2.6C209.8,41.2,210,41.2,210.2,41.2"/>
</g>
</svg>
