<?xml version="1.0" encoding="utf-8"?>
<!-- Generator: Adobe Illustrator 24.1.1, SVG Export Plug-In . SVG Version: 6.00 Build 0)  -->
<svg version="1.1" id="Layer_1" xmlns="http://www.w3.org/2000/svg" xmlns:xlink="http://www.w3.org/1999/xlink" x="0px" y="0px"
	 viewBox="0 0 190.5 162.8" style="enable-background:new 0 0 190.5 162.8;" xml:space="preserve">
<style type="text/css">
	.st0{fill-rule:evenodd;clip-rule:evenodd;fill:#000200;}
</style>
<g>
	<path class="st0" d="M85.4,62.9l0.1-0.8l0.2-0.9l0.2-0.9l0.2-0.9l0.3-0.9l0.3-0.9l0.3-1l0.3-0.9l0.4-0.9l0.4-0.9l0.4-0.9l0.5-0.9
		l0.5-0.9l0.5-0.8l0.5-0.8l0.5-0.8l0.5-0.7l0.5-0.7l0.5-0.6l0.5-0.5l0.5-0.5l0.5-0.4l0.5-0.3l0.5-0.2l0.5-0.2l0.5-0.1h0.5l0.5,0.1
		l0.5,0.2l0.4,0.3l0.5,0.4l0.4,0.5l-0.1,0.9L99,47.9l-0.2,0.9l-0.1,0.9l-0.2,0.9l-0.2,0.9l-0.2,0.9L98,53.2L97.8,54l-0.2,0.8
		l-0.2,0.9l-0.2,0.8l-0.2,0.9l-0.2,0.8L96.4,59l-0.3,0.8l-0.3,0.8l-0.3,0.8l-0.3,0.8l-0.3,0.8l-0.3,0.8l-0.3,0.8l-0.3,0.7l-0.4,0.7
		l-0.4,0.7l-0.4,0.7l-0.4,0.7L92,68.5l-0.4,0.7l-0.4,0.6l-0.4,0.6l-0.5,0.6l-0.3-0.2l-0.3-0.3L89.3,70l-0.4-0.4L88.5,69l-0.4-0.5
		l-0.8-1.2L87,66.8l-0.3-0.6l-0.3-0.6L86,65l-0.2-0.5l-0.2-0.5l-0.1-0.5L85.4,62.9z M46.7,67.5l0.2-1.2l0.3-1.2l0.4-1.3l0.5-1.3
		l0.5-1.2l0.6-1.2l0.6-1.1l0.7-1l0.7-0.9l0.8-0.8l0.8-0.6l0.8-0.4l0.7-0.2l0.7,0.1l0.6,0.3l0.6,0.6L56,57.2l-0.2,1.2l-0.2,1.2
		l-0.3,1.2L55,61.9L54.7,63l-0.3,1.1l-0.4,1.1l-0.4,1.1l-0.4,1l-0.5,1l-0.5,1l-0.5,0.9L51,71.1L50.5,72l-0.6,0.8l-0.4-0.5l-0.4-0.7
		L48.5,71l-0.5-0.8l-0.5-0.8l-0.4-0.8L46.9,68L46.7,67.5z M120.2,93.8l0-0.8l0.1-0.8l0.1-0.8l0.1-0.8l0.1-0.7l0.1-0.8l0.2-1.4
		l0.1-0.7l0.1-0.7l0.1-0.7l0.1-0.7l0.2-0.7l0.1-0.7l0.2-0.7l0.2-0.7l0.2-0.7l0.2-0.7l0.2-0.7l0.2-0.7l0.2-0.7l0.2-0.7l0.2-0.7
		l0.2-0.6l0.2-0.7l0.2-0.7l0.2-0.7l0.2-0.7l0.3-0.6l0.2-0.7l0.3-0.7l0.3-0.7l0.3,0.6l0.3,0.7l0.3,0.6l0.4,0.7l0.4,0.7l0.5,0.6
		l0.5,0.6l0.7,0.6l0.4-0.1l0.3-0.1l0.4-0.1l0.3-0.1l0.3-0.1l0.3-0.1l0.3-0.1L132,76l0.3-0.1l0.3-0.1l0.3-0.1l0.3-0.1l0.3-0.1
		l0.3-0.1l0.4-0.1l0.3-0.1l0.1-1l0.2-1l0.2-1l0.3-0.9l0.3-0.9l0.7-1.8l0.4-0.9l0.4-1l0.4-1l0.4-1.1l0.4-1.2l0.4-1.2l0.4-1.3l0.4-1.4
		l0.4-1.6l0.5,0.9l0.4,1l0.4,1l0.4,1l0.4,1l0.4,1l0.3,1l0.3,1.1l0.3,1.1l0.3,1.1l0.3,1.1l0.3,1.1l0.3,1.1l0.2,1.1l0.2,1.1l0.2,1.1
		l0.2,1.1l0.2,1.1l0.2,1.1l0.2,1.1l0.2,1.2l0.2,1.1l0.1,1.1l0.2,1.2l0.1,1.1l0.1,1.1l0.1,1.1l0.1,1.1l0.1,1.1l0.1,1.1l0.1,1.1
		l0.1,1.1l0.2,1.2l0.5,0.9l0.8,0.5l0.9,0.2l0.9-0.1l0.8-0.4l0.5-0.6l0.2-0.9l-0.1-1.3l-0.2-1.3l-0.3-2.5l-0.2-1.3l-0.2-1.3l-0.2-1.3
		l-0.2-1.3l-0.2-1.3l-0.2-1.3l-0.3-1.3l-0.2-1.3l-0.3-1.3l-0.3-1.3l-0.3-1.3l-0.3-1.2l-0.3-1.3l-0.3-1.2l-0.3-1.2l-0.4-1.2l-0.4-1.2
		l-0.4-1.2l-0.4-1.2l-0.4-1.2l-0.4-1.2l-0.4-1.2l-0.5-1.2l-1-2.3l-0.5-1.2l-0.5-1.1l-0.5-1.1v-1.3l0.1-1.3l0.1-1.4l0.1-1.4l0.1-1.4
		l0.2-1.4l0.2-1.4l0.2-1.4l0.2-1.4l0.2-1.4l0.2-1.3l0.2-1.3l0.2-1.2l0.2-1.1l0.3-1.1l0.2-1l0.1-0.3l0-0.3l0-0.3v-0.7l0-0.3l0-0.3
		l0-0.2l-2.5,7.8l-0.6-0.7l0.6-2.1l1.1-7.3l-0.2,0.8l-0.2,0.8l-0.2,0.7l-0.2,0.8l-0.2,0.8l-0.2,0.8l-0.2,0.8l-0.2,0.8l-0.2,0.8
		l-0.2,0.8l-0.2,0.8l-0.2,0.8l-0.2,0.8l-0.2,0.8l-0.2,0.8l-0.1,0.8l-0.2,0.8l-0.2,0.8l-0.1,0.8L140,44l-0.1,0.8l-0.2,0.8l-0.1,0.8
		l-0.1,0.8l-0.2,0.8l-0.1,0.8l-0.1,0.8l-0.3,1.6l-0.2,0.8l-0.1,0.8l-0.1,0.8l-0.7-0.4l-0.7-0.3l-0.7-0.1l-0.7,0l-0.7,0.1l-0.7,0.2
		l-0.8,0.3l-0.8,0.4l-0.8,0.4l-0.8,0.5l-0.8,0.6l-0.8,0.6l-0.8,0.8l-0.9,0.8l-0.9,0.9L126,59l-0.3-0.8l-0.5-1.5l-0.2-0.7l-0.2-0.7
		l-0.2-0.7l-0.2-0.7l-0.2-0.7l-0.2-0.7l-0.2-0.8l-0.2-0.8l-0.3-0.8l-0.2-0.9l-0.3-0.9l-0.3-1l-0.3-1.1l-0.5-0.5l-0.5-0.3l-0.6-0.1
		l-0.5,0.1l-0.5,0.2l-0.4,0.3l-0.3,0.4l-0.2,0.5l0.2,1.2l0.2,1.3l0.2,1.3l0.5,2.7l0.3,1.4L120,56l0.3,1.3l0.3,1.3l0.4,1.3l0.3,1.2
		l0.4,1.2l0.4,1.1l0.3,1l0.4,0.9l0.3,0.8l-0.4,0.9l-0.4,0.9l-0.4,0.9l-0.4,0.9l-0.8,1.8l-0.3,0.9l-0.4,0.9l-0.4,0.9l-0.3,0.9
		l-0.3,0.9l-0.3,0.9l-0.7,1.7l-0.6,1.7l-0.2-1.2l-0.3-1.2l-0.2-1.2l-0.8-3.5l-0.3-1.2l-0.3-1.2l-0.3-1.2l-0.3-1.2l-0.3-1.2L114,66
		l-0.3-1.2l-0.3-1.2l-0.3-1.1l-0.4-1.2l-0.4-1.2l-0.4-1.1l-0.4-1.1l-0.4-1.2l-0.8-2.3l-0.4-1.1l-0.4-1.1l-0.4-1.1l-0.4-1.1l-0.5-1.1
		l-0.5-1.1l-0.4-1.1l-0.5-1.1l-0.5-1.1l-0.5-1.1v-2.7l0-1l0-1l0.1-1l0-1l0.1-1l0.1-1.1l0.1-1.1l0.1-1.1l0.1-1.1l0.1-1.1l0.1-1.1
		l0.1-1.1l0.1-1.1l0.1-1.1l0.2-1.1l0.3-2.1l0.2-1l0.2-1l0.1-1l0.2-0.9l0.2-0.9l0.2-0.9l0.2-0.9l0.1-0.8l0.2-0.8l0.2-0.7l0.1-0.7
		l0.2-0.7l0.2-0.7l0.1-0.6l0-0.5l0-0.5l0-0.4V9.4l0.1-0.3L106,20.3l-0.7-1.1l0.4-3.1l2.2-10.6l-0.3,1.1l-0.3,1.1l-0.3,1.1l-0.3,1.1
		l-0.3,1.1l-0.6,2.3l-0.3,1.1l-0.3,1.1l-0.3,1.1l-0.3,1.1l-0.2,1.2l-0.3,1.1l-0.2,1.1l-0.2,1.2l-0.5,2.3l-0.2,1.2l-0.2,1.1l-0.2,1.2
		l-0.2,1.2l-0.2,1.1l-0.2,1.2l-0.2,1.2l-0.4,2.3l-0.2,1.2l-0.2,1.2l-0.2,1.2l-0.2,1.2L99.9,41l-0.2,1.2l-1.1-0.6l-1.1-0.4L96.4,41
		l-1.1,0l-1.1,0.1l-1.1,0.3l-1.1,0.4L91,42.4l-1.1,0.7L88.7,44l-1.2,0.9l-1.2,1L85.1,47l-1.3,1.2l-1.4,1.2L81,50.7l-0.4-1.2
		l-0.4-1.1l-0.3-1.1l-0.4-1.1l-0.3-1.1l-0.3-1.1L78.5,43l-0.3-1.1l-0.3-1.1l-0.3-1.2l-0.4-1.2l-0.4-1.3l-0.4-1.3l-0.4-1.4l-0.4-1.5
		L75,31.3l-0.7-0.8l-0.8-0.4L72.7,30l-0.8,0.1l-0.8,0.3L70.5,31L70,31.7l-0.4,0.8l0.1,0.9l0.1,0.9l0.1,0.9l0.2,0.9l0.1,1l0.2,1
		l0.2,1l0.2,1l0.2,1l0.2,1l0.2,1l0.2,1l0.5,2l0.3,1l0.2,1l0.3,1l0.2,1l0.3,0.9l0.3,0.9l0.3,0.9l0.3,0.9l0.3,0.9l0.3,0.8l0.3,0.8
		l0.3,0.8l0.3,0.8l0.3,0.7l0.3,0.7l0.3,0.7l0.3,0.6l0.3,0.6l-0.6,1.3L76,63.7l-0.5,1.3l-0.6,1.3l-0.5,1.3L73.8,69l-0.5,1.3l-0.5,1.3
		l-0.5,1.3l-0.5,1.3l-0.5,1.3l-0.5,1.3l-0.5,1.3l-0.5,1.3l-0.4,1.3l-0.4,1.3l-0.2-0.9l-0.2-0.9l-0.2-0.9l-0.2-0.9L68,77.6l-0.2-0.9
		l-0.2-0.9l-0.2-0.9L67.2,74L67,73.1l-0.2-0.9l-0.2-0.9l-0.3-0.9l-0.5-1.8l-0.3-0.9l-0.3-0.9L64.9,66l-0.3-0.9l-0.3-0.9l-0.3-0.9
		l-0.3-0.9l-0.3-0.9l-0.3-0.9L62.8,60l-0.3-0.9l-0.3-0.9l-0.4-0.8l-0.3-0.9L61,55.8L60.6,55l-0.4-0.8v-1.3l0.1-1.3l0.1-1.3l0.1-1.4
		l0.1-1.4l0.2-1.4l0.1-1.4L61,43l0.2-1.4l0.2-1.4l0.2-1.3l0.2-1.3l0.2-1.2l0.2-1.1l0.2-1l0.2-0.9l0.1-0.3l0.1-0.3l0-0.3l0-0.3l0-0.3
		v-0.3l0-0.3V31l-2.3,7.8L60,38.1l0.4-2.1l1.6-7.3l-0.3,0.8l-0.2,0.8L61.2,31l-0.2,0.8l-0.2,0.8l-0.2,0.8L60.3,34l-0.2,0.8l-0.2,0.8
		l-0.2,0.8L59.4,37l-0.2,0.8l-0.2,0.8l-0.2,0.8l-0.2,0.8l-0.2,0.8l-0.2,0.8l-0.1,0.8l-0.2,0.8L58,44l-0.2,0.8l-0.1,0.8l-0.2,0.8
		l-0.1,0.8l-0.1,0.8l-0.1,0.8l-0.2,0.8l-0.1,0.8L56.6,51l-0.1,0.8l-0.1,0.8l-0.2,0.8L55.4,53l-0.7-0.3L54,52.6l-0.7,0l-0.7,0.1
		l-0.7,0.2l-0.7,0.3l-0.7,0.4l-0.8,0.4l-0.8,0.5l-0.8,0.6l-0.8,0.6l-0.8,0.8l-0.9,0.8l-0.9,0.9L44,59l-0.3-0.8l-0.3-0.8l-0.3-0.8
		L42.8,56l-0.2-0.7l-0.3-0.7l-0.2-0.7l-0.2-0.7l-0.2-0.7l-0.2-0.8l-0.3-0.8L40.9,50l-0.3-0.9l-0.3-0.9l-0.3-1l-0.3-1.1l-0.5-0.5
		l-0.5-0.3l-0.5-0.1l-0.5,0.1l-0.5,0.2l-0.4,0.3l-0.3,0.4l-0.3,0.5l0.1,1.2l0.2,1.3l0.2,1.3l0.2,1.3l0.3,1.3l0.3,1.4l0.7,2.7
		l0.4,1.3l0.4,1.3l0.4,1.2l0.4,1.2l0.4,1.1l0.4,1l0.4,0.9l0.4,0.8L41,66.9l-0.4,0.8l-0.3,0.8l-0.4,0.9l-0.3,0.8L39.2,71l-0.3,0.8
		l-0.3,0.8l-0.3,0.8l-0.3,0.8l-0.3,0.8l-0.3,0.8l-0.3,0.8l-0.3,0.8l-0.3,0.8L35.8,80l-0.3,0.8l-0.2,0.9L35,82.5l-0.2,0.9l-0.2,0.9
		l-0.2,0.9l-0.2,0.9L34,86.8l-0.2,0.9l-0.1,0.9l-0.1,0.9l-0.1,0.9l-0.1,1l-0.1,1l-0.1,1l0.2,1.2l0.3,1l0.5,0.6l0.6,0.4l0.7,0.1
		l0.8-0.2l0.9-0.6l0.9-0.9l0-0.8l0.1-0.8l0-0.8l0.1-0.8l0.1-0.8l0.3-2.3l0.1-0.8l0.3-1.5l0.2-0.7l0.1-0.8l0.2-0.7l0.2-0.8l0.2-0.7
		l0.2-0.7l0.2-0.7l0.2-0.7l0.4-1.4l0.2-0.7l0.2-0.7l0.2-0.7l0.2-0.7l0.2-0.7l0.2-0.7l0.2-0.7l0.2-0.7l0.3-0.7l0.2-0.7l0.3-0.7
		l0.3,0.6l0.3,0.7l0.3,0.6l0.4,0.7l0.4,0.7l0.5,0.6l0.5,0.6l0.5,0.6l0.4-0.1l0.4-0.1l0.4-0.1l0.4-0.1l0.4-0.1l0.4-0.1l0.4-0.1L50,76
		l0.3-0.1l0.4-0.1l0.3-0.1l0.4-0.1l0.3-0.1l0.4-0.1l0.4-0.1l0.4-0.1l0.1-1l0.1-1l0.2-1l0.2-0.9l0.3-0.9l0.3-0.9l0.3-0.9l0.4-0.9
		l0.4-1l0.4-1l0.4-1.1l0.4-1.2l0.4-1.2l0.4-1.3l0.4-1.4l0.3-1.6l0.5,0.9l0.5,1l0.4,1l0.8,2l0.4,1l0.3,1l0.3,1.1l0.3,1.1l0.3,1.1
		l0.3,1.1l0.3,1.1l0.2,1.1l0.7,3.4l0.2,1.1l0.2,1.1l0.2,1.1l0.2,1.1l0.2,1.2l0.1,1.1l0.2,1.1l0.1,1.2l0.1,1.1l0.1,1.1l0.1,1.1
		l0.1,1.1l0.1,1.1l0.1,1.1l0.1,1.1l0.1,1.1v0.5l0,0.1l0,0.2l0.1,0.1L66,94l0.1,0.1L66,94.6l-0.1,0.5l-0.1,0.5l-0.1,0.5l-0.1,0.5
		L65.6,97l-0.1,0.5l0,0.5l-0.1,0.5l0,0.5l0,0.5l0,0.5l0,0.5l0,0.5v1.1l0.1,0.9l0.2,0.8l0.2,0.7l0.3,0.6l0.4,0.5l0.4,0.4l0.4,0.3
		l0.5,0.2l0.5,0.1l0.5,0l0.6-0.1l0.6-0.2l0.6-0.3l0.6-0.5l0.6-0.6l0.6-0.8l0.1-1.2l0.1-1.2l0.1-1.2l0.1-1.2l0.4-3.5l0.2-1.1l0.2-1.1
		l0.2-1.1l0.2-1.1l0.2-1.1l0.2-1.1l0.2-1.1l0.2-1.1l0.3-1.1l0.3-1.1l0.3-1.1l0.3-1.1l0.3-1.1l0.3-1l0.3-1.1l0.3-1l0.3-1l0.4-1l0.3-1
		l0.4-1l0.4-1l0.4-1l0.4-1l0.4-1l0.4-1l0.2,0.4l0.3,0.4l0.2,0.4l0.5,1l0.3,0.5l0.3,0.5l0.3,0.5l0.3,0.5l0.3,0.5l0.4,0.5l0.8,1
		l0.9,0.9L86,77l0.6-0.1l0.6-0.1l0.5-0.1l0.6-0.1l0.5-0.1l1.1-0.3l0.5-0.1l0.5-0.1l0.5-0.1l0.5-0.1l0.5-0.1l0.5-0.1l0.5-0.1l0.5-0.1
		l0.5-0.1l0.1-0.8l0.1-0.8l0.1-0.7l0.1-0.7l0.1-0.7l0.2-0.7l0.2-0.6l0.2-0.7l0.2-0.6l0.2-0.7l0.2-0.7l0.2-0.7l0.2-0.7l0.3-0.7
		l0.3-0.7l0.3-0.7l0.3-0.7l0.3-0.8l0.3-0.8l0.3-0.8l0.3-0.8l0.3-0.8l0.3-0.9l0.3-0.9l0.3-1l0.3-1l0.3-1l0.3-1.1l0.3-1.1l0.3-1.1
		l0.3-1.2l0.3-1.2l0.7,1.4l0.7,1.4l0.6,1.5l0.6,1.5l0.6,1.5l0.5,1.6l1,3.2l0.5,1.6l0.4,1.6l0.4,1.6l0.4,1.6l0.4,1.7l0.4,1.7l0.3,1.7
		l0.3,1.7l0.3,1.7l0.3,1.7l0.3,1.7l0.3,1.7l0.5,3.4l0.2,1.7l0.2,1.7l0.2,1.7l0.2,1.7l0.2,1.7l0.2,1.7l0.2,1.6l0.2,1.7l0.2,1.6
		l0.2,1.6l0,1l0.2,0.8l0.3,0.7l0.4,0.5l0.5,0.5l0.6,0.3l0.7,0.2l0.7,0.1h0.7l0.7-0.1l0.6-0.3l0.6-0.3l0.5-0.4l0.4-0.5l0.2-0.7
		l0.1-0.7l-0.1-0.5l-0.1-0.5l-0.1-0.6l-0.1-0.5l-0.1-0.5l-0.1-0.5l-0.1-0.5l-0.1-0.5l-0.1-0.5l-0.1-0.5l-0.1-0.5l-0.1-0.5l-0.1-0.5
		l-0.1-0.6l-0.1-0.5L120.2,93.8z M128.8,67.5l0.1-1.2l0.3-1.2l0.3-1.3l0.4-1.3l0.5-1.2l0.6-1.2l0.6-1.1l0.7-1l0.7-0.9l0.8-0.8
		l0.7-0.6l0.7-0.4l0.7-0.2l0.7,0.1l0.6,0.3l0.5,0.6l-0.1,1.2l-0.2,1.2l-0.2,1.2l-0.2,1.2l-0.3,1.1l-0.3,1.1l-0.3,1.1l-0.3,1.1
		l-0.4,1.1l-0.4,1l-0.4,1l-0.5,1l-0.5,0.9l-0.5,0.9l-0.6,0.9l-0.6,0.8l-0.4-0.5l-0.4-0.7l-0.5-0.7l-0.5-0.8l-0.5-0.8l-0.4-0.8
		L129,68L128.8,67.5z M48.2,31.8l0.9,0.2l0.9,0.4l0.8,0.4l0.6,0.6l0.5,0.7l0.3,0.7l0.2,0.8v0.8l-0.2,0.7l-0.3,0.6l-0.5,0.6l-0.6,0.4
		L50,39.1l-0.8,0.3l-0.9,0.2l-1,0l-0.9-0.2l-0.8-0.3l-0.8-0.4L44.1,38l-0.5-0.6l-0.3-0.7l-0.2-0.8v-0.8l0.2-0.7l0.3-0.7l0.5-0.6
		l0.6-0.5l0.8-0.4l0.8-0.3l0.9-0.1L48.2,31.8z M87.6,10.1l0.7,0.1l0.7,0.2l0.6,0.2l0.6,0.3l0.6,0.3l0.5,0.4l0.5,0.4l0.4,0.4l0.4,0.5
		l0.3,0.5l0.3,0.5l0.2,0.6l0.2,0.5l0.1,0.5l0,0.6l0,0.6l-0.1,0.5l-0.2,0.5l-0.2,0.5L93,18.7l-0.4,0.4l-0.4,0.4l-0.4,0.4l-0.5,0.3
		l-0.5,0.3l-0.6,0.3L89.5,21l-0.7,0.2l-0.7,0.1l-0.7,0.1h-0.7l-0.7,0l-0.7-0.1l-0.6-0.2l-0.6-0.2l-0.6-0.3l-0.5-0.3L82.4,20
		l-0.5-0.4l-0.4-0.4l-0.8-0.9l-0.3-0.5l-0.2-0.5L80,16.7l-0.1-0.5l0-0.6l0.1-0.6l0.1-0.5l0.2-0.5l0.2-0.5l0.3-0.5l0.3-0.4l0.4-0.4
		l0.4-0.4l0.5-0.3l0.5-0.3l0.6-0.3l0.6-0.2l0.6-0.2l0.7-0.1l0.7-0.1l0.8-0.1H87.6z M130.2,31.8l0.9,0.2l0.9,0.4l0.8,0.4l0.7,0.6
		l0.5,0.7l0.4,0.7l0.2,0.8l0,0.8l-0.2,0.7l-0.4,0.6l-0.5,0.6l-0.7,0.4l-0.8,0.4l-0.9,0.3l-0.9,0.2l-1,0l-0.9-0.2l-0.9-0.3l-0.8-0.4
		L126,38l-0.5-0.6l-0.3-0.7l-0.2-0.8l0-0.8l0.2-0.7l0.4-0.7l0.5-0.6l0.6-0.5l0.8-0.4l0.8-0.3l0.9-0.1L130.2,31.8z M130.2,31.8"/>
	<path class="st0" d="M6.5,118.9c0.1,0,0.2,0,0.2-0.1c0-0.1,0.1-0.2,0.1-0.4h0.1v3.2H6.8c0-0.2,0-0.4-0.1-0.4c0-0.1-0.1-0.1-0.2-0.1
		H2v-0.3c0.1-0.1,0.2-0.1,0.2-0.2c0-0.1,0-0.2,0-0.4v-9.8c0-0.2,0-0.4,0-0.5c0-0.1-0.1-0.2-0.2-0.2v-0.3h4.4c0.1,0,0.2,0,0.2-0.1
		c0-0.1,0.1-0.2,0.1-0.4h0.1v3.2H6.7c0-0.2,0-0.4-0.1-0.4c0-0.1-0.1-0.1-0.2-0.1H3.3v2.6h2c0.1,0,0.2,0,0.2-0.1
		c0-0.1,0.1-0.2,0.1-0.4h0.1v3H5.6c0-0.2,0-0.4-0.1-0.4c0-0.1-0.1-0.1-0.2-0.1h-2v3H6.5z M8.2,120.1l0.5-2.8l0.2,0.2c0,0,0,0,0,0.1
		c0,0.1,0,0.1,0,0.2c0,0.3,0.2,0.6,0.6,1c0.4,0.3,0.8,0.5,1.2,0.5c0.4,0,0.7-0.2,0.9-0.5c0.2-0.3,0.4-0.7,0.4-1.1
		c0-0.7-0.4-1.1-1.2-1.2c-0.3,0-0.5-0.1-0.7-0.1c-0.6-0.1-1-0.5-1.3-1c-0.3-0.5-0.4-1.3-0.4-2.2c0-1.2,0.2-2.1,0.6-2.8
		c0.4-0.7,1-1.1,1.7-1.1c0.6,0,1.2,0.3,1.9,1.1c0.2,0.2,0.3,0.3,0.3,0.3c0,0,0,0,0.1,0c0,0,0.1-0.1,0.1-0.2l0.1,0.1l-0.6,2.8
		l-0.2-0.2c0,0,0,0,0,0c0,0,0,0,0-0.1c0-0.3-0.2-0.7-0.6-1.1c-0.4-0.4-0.8-0.6-1.2-0.6c-0.4,0-0.7,0.1-0.9,0.4
		c-0.2,0.3-0.3,0.6-0.3,1c0,0.6,0.4,1,1.1,1.1c0.4,0.1,0.7,0.1,0.9,0.2c0.6,0.2,1.1,0.6,1.4,1.2c0.3,0.6,0.5,1.4,0.5,2.3
		c0,1.1-0.2,2-0.7,2.8c-0.5,0.7-1.1,1.1-1.8,1.1c-0.7,0-1.3-0.3-2-1c-0.1-0.1-0.2-0.2-0.2-0.2c0,0-0.1,0-0.1,0c0,0,0,0.1,0,0.2
		L8.2,120.1z M19,117l0.1-0.2l0.7,2.5l-0.1,0.2c0-0.1-0.1-0.1-0.1-0.1c0,0,0,0-0.1,0c0,0-0.1,0.1-0.3,0.3c-0.8,1-1.5,1.6-2.2,1.6
		c-0.8,0-1.5-0.6-2-1.7c-0.5-1.2-0.8-2.6-0.8-4.3c0-1.8,0.3-3.2,0.8-4.4c0.6-1.1,1.3-1.7,2.2-1.7c0.5,0,0.9,0.2,1.4,0.5
		c0.5,0.3,0.7,0.5,0.7,0.5c0,0,0.1,0,0.1,0c0,0,0.1,0,0.1,0l0.1,0.2l-0.7,2.6l-0.1-0.2c0,0,0,0,0,0c0,0,0,0,0-0.1
		c0-0.3-0.2-0.7-0.5-1c-0.4-0.3-0.7-0.5-1.1-0.5c-0.6,0-1,0.4-1.4,1.1c-0.4,0.8-0.5,1.7-0.5,2.8c0,1.2,0.2,2.2,0.5,2.9
		c0.4,0.7,0.8,1.1,1.4,1.1c0.4,0,0.8-0.2,1.2-0.6c0.4-0.4,0.6-0.8,0.6-1c0-0.1,0-0.1,0-0.2C19.1,117.2,19,117.1,19,117L19,117z
		 M23.5,109.2c0.8,0,1.5,0.6,2.1,1.7c0.5,1.1,0.8,2.6,0.8,4.3c0,1.7-0.3,3.2-0.8,4.3c-0.5,1.1-1.2,1.7-2.1,1.7c-0.8,0-1.5-0.6-2-1.7
		c-0.5-1.2-0.8-2.6-0.8-4.3c0-1.7,0.3-3.2,0.8-4.3C22,109.7,22.7,109.2,23.5,109.2L23.5,109.2z M21.7,115.1c0,1.2,0.2,2.1,0.5,2.9
		c0.3,0.7,0.8,1.1,1.3,1.1c0.5,0,1-0.4,1.3-1.1c0.3-0.7,0.5-1.7,0.5-2.9c0-1.2-0.2-2.1-0.5-2.9c-0.3-0.7-0.8-1.1-1.3-1.1
		c-0.5,0-1,0.4-1.3,1.1C21.9,113,21.7,113.9,21.7,115.1L21.7,115.1z M32.1,118.9c0.1,0,0.2,0,0.2-0.1c0-0.1,0.1-0.2,0.1-0.4l0.1,0
		v3.2h-0.1c0-0.2,0-0.4-0.1-0.4c0-0.1-0.1-0.1-0.2-0.1h-4.4v-0.3c0.1-0.1,0.2-0.1,0.2-0.2c0-0.1,0-0.2,0-0.4v-9.8c0-0.2,0-0.4,0-0.5
		c0-0.1-0.1-0.2-0.2-0.2v-0.3h1.6v0.3c-0.1,0.1-0.2,0.1-0.2,0.2c0,0.1,0,0.2,0,0.5v8.6H32.1z M33.3,121v-0.3c0.2-0.1,0.3-0.4,0.4-1
		c0-0.1,0-0.1,0-0.1l1.8-9.1c0-0.1,0-0.2,0-0.2c0,0,0-0.1,0-0.1c0-0.1,0-0.2-0.1-0.3c0-0.1-0.1-0.2-0.2-0.2v-0.3h1.7v0.3
		c-0.1,0.1-0.2,0.1-0.2,0.2c0,0.1,0,0.2,0,0.3c0,0.1,0,0.1,0,0.2c0,0.1,0,0.1,0,0.2l1.9,9.1c0.1,0.4,0.2,0.7,0.2,0.8
		c0.1,0.2,0.1,0.3,0.2,0.3v0.3h-1.8v-0.3c0.1-0.1,0.1-0.1,0.2-0.2c0-0.1,0.1-0.2,0.1-0.3c0,0,0-0.1,0-0.2c0-0.1,0-0.1,0-0.2
		l-0.4-1.8H35l-0.3,1.8c0,0.1,0,0.2,0,0.2c0,0.1,0,0.1,0,0.2c0,0.1,0,0.2,0.1,0.3c0,0.1,0.1,0.1,0.2,0.2v0.3H33.3z M36.2,112.3
		l-0.8,4.1H37L36.2,112.3z M44.3,113.1v7c0,0.2,0,0.4,0,0.5c0,0.1,0.1,0.1,0.2,0.2v0.3h-1.4v-0.3c0.1-0.1,0.2-0.1,0.2-0.2
		c0-0.1,0-0.2,0-0.4v-9.8c0-0.2,0-0.4,0-0.5c0-0.1-0.1-0.2-0.2-0.2v-0.3h1.8v0.3c0,0-0.1,0.1-0.1,0.1c0,0.1,0,0.1,0,0.2
		c0,0.1,0,0.2,0,0.2c0,0.1,0.1,0.2,0.1,0.3l2.7,6.4v-6.7c0-0.2,0-0.4,0-0.5c0-0.1-0.1-0.1-0.2-0.2v-0.3h1.4v0.3
		c-0.1,0.1-0.2,0.1-0.2,0.2c0,0.1,0,0.2,0,0.4v9.8c0,0.2,0,0.4,0,0.5c0,0.1,0.1,0.1,0.2,0.2v0.3h-1.6v-0.3c0.1,0,0.1-0.1,0.1-0.1
		c0-0.1,0-0.1,0-0.2c0-0.1,0-0.2,0-0.2c0-0.1-0.1-0.2-0.1-0.3L44.3,113.1z M49.6,121v-0.3c0.2-0.1,0.3-0.4,0.4-1c0-0.1,0-0.1,0-0.1
		l1.8-9.1c0-0.1,0-0.2,0-0.2c0,0,0-0.1,0-0.1c0-0.1,0-0.2-0.1-0.3c0-0.1-0.1-0.2-0.2-0.2v-0.3h1.7v0.3c-0.1,0.1-0.2,0.1-0.2,0.2
		c0,0.1,0,0.2,0,0.3c0,0.1,0,0.1,0,0.2c0,0.1,0,0.1,0,0.2l1.9,9.1c0.1,0.4,0.2,0.7,0.2,0.8c0.1,0.2,0.1,0.3,0.2,0.3v0.3h-1.8v-0.3
		c0.1-0.1,0.1-0.1,0.2-0.2c0-0.1,0.1-0.2,0.1-0.3c0,0,0-0.1,0-0.2c0-0.1,0-0.1,0-0.2l-0.4-1.8h-2.3l-0.3,1.8c0,0.1,0,0.2,0,0.2
		c0,0.1,0,0.1,0,0.2c0,0.1,0,0.2,0.1,0.3c0,0.1,0.1,0.1,0.2,0.2v0.3H49.6z M52.5,112.3l-0.8,4.1h1.6L52.5,112.3z M60.9,117l0.1-0.2
		l0.7,2.5l-0.1,0.2c0-0.1-0.1-0.1-0.1-0.1c0,0,0,0-0.1,0c0,0-0.1,0.1-0.3,0.3c-0.8,1-1.5,1.6-2.2,1.6c-0.8,0-1.5-0.6-2-1.7
		c-0.5-1.2-0.8-2.6-0.8-4.3c0-1.8,0.3-3.2,0.8-4.4c0.6-1.1,1.3-1.7,2.2-1.7c0.5,0,0.9,0.2,1.4,0.5c0.5,0.3,0.7,0.5,0.7,0.5
		c0,0,0.1,0,0.1,0c0,0,0.1,0,0.1,0l0.1,0.2l-0.7,2.6l-0.1-0.2c0,0,0,0,0,0c0,0,0,0,0-0.1c0-0.3-0.2-0.7-0.5-1
		c-0.4-0.3-0.7-0.5-1.1-0.5c-0.6,0-1,0.4-1.4,1.1c-0.4,0.8-0.5,1.7-0.5,2.8c0,1.2,0.2,2.2,0.5,2.9c0.4,0.7,0.8,1.1,1.4,1.1
		c0.4,0,0.8-0.2,1.2-0.6c0.4-0.4,0.6-0.8,0.6-1c0-0.1,0-0.1,0-0.2C60.9,117.2,60.9,117.1,60.9,117L60.9,117z M64.2,120.1
		c0,0.2,0,0.4,0,0.5c0,0.1,0.1,0.1,0.2,0.2v0.3h-1.6v-0.3c0.1-0.1,0.2-0.1,0.2-0.2c0-0.1,0-0.2,0-0.4v-9.8c0-0.2,0-0.4,0-0.5
		c0-0.1-0.1-0.1-0.2-0.2v-0.3h1.6v0.3c-0.1,0-0.2,0.1-0.2,0.2c0,0.1,0,0.2,0,0.5V120.1z M68.6,109.2c0.8,0,1.5,0.6,2.1,1.7
		c0.5,1.1,0.8,2.6,0.8,4.3c0,1.7-0.3,3.2-0.8,4.3c-0.5,1.1-1.2,1.7-2.1,1.7c-0.8,0-1.5-0.6-2-1.7c-0.5-1.2-0.8-2.6-0.8-4.3
		c0-1.7,0.3-3.2,0.8-4.3C67,109.7,67.7,109.2,68.6,109.2L68.6,109.2z M66.8,115.1c0,1.2,0.2,2.1,0.5,2.9c0.3,0.7,0.8,1.1,1.3,1.1
		c0.5,0,1-0.4,1.3-1.1c0.3-0.7,0.5-1.7,0.5-2.9c0-1.2-0.2-2.1-0.5-2.9c-0.3-0.7-0.8-1.1-1.3-1.1c-0.5,0-1,0.4-1.3,1.1
		C66.9,113,66.8,113.9,66.8,115.1L66.8,115.1z M73.9,113.1v7c0,0.2,0,0.4,0,0.5c0,0.1,0.1,0.1,0.2,0.2v0.3h-1.4v-0.3
		c0.1-0.1,0.2-0.1,0.2-0.2c0-0.1,0-0.2,0-0.4v-9.8c0-0.2,0-0.4,0-0.5s-0.1-0.2-0.2-0.2v-0.3h1.8v0.3c0,0-0.1,0.1-0.1,0.1
		c0,0.1,0,0.1,0,0.2c0,0.1,0,0.2,0,0.2c0,0.1,0.1,0.2,0.1,0.3l2.7,6.4v-6.7c0-0.2,0-0.4,0-0.5c0-0.1-0.1-0.1-0.2-0.2v-0.3h1.4v0.3
		c-0.1,0.1-0.2,0.1-0.2,0.2c0,0.1,0,0.2,0,0.4v9.8c0,0.2,0,0.4,0,0.5c0,0.1,0.1,0.1,0.2,0.2v0.3h-1.6v-0.3c0.1,0,0.1-0.1,0.1-0.1
		c0-0.1,0-0.1,0-0.2c0-0.1,0-0.2,0-0.2c0-0.1-0.1-0.2-0.1-0.3L73.9,113.1z M79.2,121v-0.3c0.2-0.1,0.3-0.4,0.4-1c0-0.1,0-0.1,0-0.1
		l1.8-9.1c0-0.1,0-0.2,0-0.2c0,0,0-0.1,0-0.1c0-0.1,0-0.2-0.1-0.3c0-0.1-0.1-0.2-0.2-0.2v-0.3H83v0.3c-0.1,0.1-0.2,0.1-0.2,0.2
		c0,0.1,0,0.2,0,0.3c0,0.1,0,0.1,0,0.2c0,0.1,0,0.1,0,0.2l1.9,9.1c0.1,0.4,0.2,0.7,0.2,0.8c0.1,0.2,0.1,0.3,0.2,0.3v0.3h-1.8v-0.3
		c0.1-0.1,0.1-0.1,0.2-0.2c0-0.1,0.1-0.2,0.1-0.3c0,0,0-0.1,0-0.2c0-0.1,0-0.1,0-0.2l-0.4-1.8h-2.3l-0.3,1.8c0,0.1,0,0.2,0,0.2
		c0,0.1,0,0.1,0,0.2c0,0.1,0,0.2,0.1,0.3c0,0.1,0.1,0.1,0.2,0.2v0.3H79.2z M82.1,112.3l-0.8,4.1h1.6L82.1,112.3z M90.5,118.9
		c0.1,0,0.2,0,0.2-0.1c0-0.1,0.1-0.2,0.1-0.4l0.1,0v3.2h-0.1c0-0.2,0-0.4-0.1-0.4c0-0.1-0.1-0.1-0.2-0.1H86v-0.3
		c0.1-0.1,0.2-0.1,0.2-0.2c0-0.1,0-0.2,0-0.4v-9.8c0-0.2,0-0.4,0-0.5c0-0.1-0.1-0.2-0.2-0.2v-0.3h1.6v0.3c-0.1,0.1-0.2,0.1-0.2,0.2
		c0,0.1,0,0.2,0,0.5v8.6H90.5z M96.5,111.3v7.8h1.3c0.6,0,1-0.3,1.3-1c0.3-0.7,0.4-1.6,0.4-2.9c0-1.3-0.1-2.2-0.4-2.9
		c-0.3-0.7-0.7-1-1.3-1H96.5z M97.6,109.4c0.6,0,1.1,0.1,1.4,0.3c0.3,0.2,0.6,0.5,0.9,1c0.3,0.5,0.5,1.1,0.6,1.9
		c0.1,0.8,0.2,1.6,0.2,2.6c0,1-0.1,1.8-0.2,2.6c-0.1,0.8-0.3,1.4-0.6,1.9c-0.2,0.5-0.5,0.8-0.9,1c-0.3,0.2-0.8,0.3-1.4,0.3h-2.4
		v-0.3c0.1-0.1,0.2-0.1,0.2-0.2c0-0.1,0-0.2,0-0.4v-9.8c0-0.2,0-0.4,0-0.5c0-0.1-0.1-0.2-0.2-0.2v-0.3H97.6z M106.4,118.9
		c0.1,0,0.2,0,0.2-0.1c0-0.1,0.1-0.2,0.1-0.4h0.1v3.2h-0.1c0-0.2-0.1-0.4-0.1-0.4c0-0.1-0.1-0.1-0.2-0.1h-4.5v-0.3
		c0.1-0.1,0.2-0.1,0.2-0.2c0-0.1,0-0.2,0-0.4v-9.8c0-0.2,0-0.4,0-0.5c0-0.1-0.1-0.2-0.2-0.2v-0.3h4.4c0.1,0,0.2,0,0.2-0.1
		c0-0.1,0.1-0.2,0.1-0.4h0.1v3.2h-0.1c0-0.2,0-0.4-0.1-0.4c0-0.1-0.1-0.1-0.2-0.1h-3.2v2.6h2c0.1,0,0.2,0,0.2-0.1
		c0-0.1,0.1-0.2,0.1-0.4h0.1v3h-0.1c0-0.2,0-0.4-0.1-0.4c0-0.1-0.1-0.1-0.2-0.1h-2v3H106.4z M111.1,120.1l0.5-2.8l0.2,0.2
		c0,0,0,0,0,0.1c0,0.1,0,0.1,0,0.2c0,0.3,0.2,0.6,0.6,1c0.4,0.3,0.8,0.5,1.2,0.5c0.4,0,0.7-0.2,0.9-0.5c0.2-0.3,0.4-0.7,0.4-1.1
		c0-0.7-0.4-1.1-1.2-1.2c-0.3,0-0.5-0.1-0.7-0.1c-0.6-0.1-1-0.5-1.3-1c-0.3-0.5-0.4-1.3-0.4-2.2c0-1.2,0.2-2.1,0.6-2.8
		c0.4-0.7,1-1.1,1.7-1.1c0.6,0,1.2,0.3,1.9,1.1c0.2,0.2,0.3,0.3,0.3,0.3c0,0,0,0,0.1,0c0,0,0.1-0.1,0.1-0.2l0.1,0.1l-0.6,2.8
		l-0.2-0.2c0,0,0,0,0,0c0,0,0,0,0-0.1c0-0.3-0.2-0.7-0.6-1.1c-0.4-0.4-0.8-0.6-1.2-0.6c-0.4,0-0.7,0.1-0.9,0.4
		c-0.2,0.3-0.3,0.6-0.3,1c0,0.6,0.4,1,1.1,1.1c0.4,0.1,0.7,0.1,0.9,0.2c0.6,0.2,1.1,0.6,1.4,1.2c0.3,0.6,0.5,1.4,0.5,2.3
		c0,1.1-0.2,2-0.7,2.8c-0.5,0.7-1.1,1.1-1.8,1.1c-0.7,0-1.4-0.3-2-1c-0.1-0.1-0.2-0.2-0.2-0.2c0,0-0.1,0-0.1,0c0,0,0,0.1,0,0.2
		L111.1,120.1z M116.7,121v-0.3c0.2-0.1,0.3-0.4,0.4-1c0-0.1,0-0.1,0-0.1l1.8-9.1c0-0.1,0-0.2,0-0.2c0,0,0-0.1,0-0.1
		c0-0.1,0-0.2-0.1-0.3c0-0.1-0.1-0.2-0.2-0.2v-0.3h1.7v0.3c-0.1,0.1-0.2,0.1-0.2,0.2c0,0.1,0,0.2,0,0.3c0,0.1,0,0.1,0,0.2
		c0,0.1,0,0.1,0,0.2l1.9,9.1c0.1,0.4,0.2,0.7,0.2,0.8c0.1,0.2,0.1,0.3,0.2,0.3v0.3h-1.8v-0.3c0.1-0.1,0.1-0.1,0.2-0.2
		c0-0.1,0.1-0.2,0.1-0.3c0,0,0-0.1,0-0.2c0-0.1,0-0.1,0-0.2l-0.4-1.8h-2.3l-0.3,1.8c0,0.1,0,0.2,0,0.2c0,0.1,0,0.1,0,0.2
		c0,0.1,0,0.2,0.1,0.3c0,0.1,0.1,0.1,0.2,0.2v0.3H116.7z M119.5,112.3l-0.8,4.1h1.6L119.5,112.3z M124.8,116.4
		c0,1.1,0.1,1.8,0.3,2.2c0.2,0.4,0.6,0.6,1.1,0.6c0.5,0,0.9-0.2,1.1-0.7c0.2-0.5,0.3-1.2,0.3-2.2v-6.1c0-0.2,0-0.4,0-0.5
		c0-0.1-0.1-0.1-0.2-0.2v-0.3h1.6v0.3c-0.1,0.1-0.2,0.1-0.2,0.2c0,0.1,0,0.2,0,0.5v6.3c0,1.7-0.2,2.9-0.6,3.6
		c-0.4,0.7-1,1.1-1.9,1.1c-0.9,0-1.5-0.4-1.9-1.1c-0.4-0.7-0.6-1.9-0.6-3.6v-6.3c0-0.2,0-0.4,0-0.5c0-0.1-0.1-0.1-0.2-0.2v-0.3h1.5
		v0.3c-0.1,0-0.1,0.1-0.2,0.2c0,0.1,0,0.2,0,0.5V116.4z M125.4,108l1.3-3.3c0.1-0.2,0.2-0.4,0.2-0.5c0.1-0.1,0.2-0.2,0.2-0.2
		c0.1,0,0.2,0.1,0.2,0.2c0.1,0.2,0.1,0.4,0.1,0.6c0,0.2,0,0.4-0.1,0.5c-0.1,0.2-0.2,0.3-0.3,0.6l-1.4,2H125.4z M131.9,111.3v7.8h1.3
		c0.6,0,1-0.3,1.3-1c0.3-0.7,0.4-1.6,0.4-2.9c0-1.3-0.1-2.2-0.4-2.9c-0.3-0.7-0.7-1-1.3-1H131.9z M133.1,109.4
		c0.6,0,1.1,0.1,1.4,0.3c0.3,0.2,0.6,0.5,0.9,1c0.3,0.5,0.5,1.1,0.6,1.9c0.1,0.8,0.2,1.6,0.2,2.6c0,1-0.1,1.8-0.2,2.6
		c-0.1,0.8-0.3,1.4-0.6,1.9c-0.2,0.5-0.5,0.8-0.9,1c-0.3,0.2-0.8,0.3-1.4,0.3h-2.4v-0.3c0.1-0.1,0.2-0.1,0.2-0.2c0-0.1,0-0.2,0-0.4
		v-9.8c0-0.2,0-0.4,0-0.5c0-0.1-0.1-0.2-0.2-0.2v-0.3H133.1z M141.9,118.9c0.1,0,0.2,0,0.2-0.1c0-0.1,0.1-0.2,0.1-0.4h0.1v3.2h-0.1
		c0-0.2-0.1-0.4-0.1-0.4c0-0.1-0.1-0.1-0.2-0.1h-4.5v-0.3c0.1-0.1,0.2-0.1,0.2-0.2c0-0.1,0-0.2,0-0.4v-9.8c0-0.2,0-0.4,0-0.5
		c0-0.1-0.1-0.2-0.2-0.2v-0.3h4.4c0.1,0,0.2,0,0.2-0.1c0-0.1,0.1-0.2,0.1-0.4h0.1v3.2h-0.1c0-0.2,0-0.4-0.1-0.4
		c0-0.1-0.1-0.1-0.2-0.1h-3.2v2.6h2c0.1,0,0.2,0,0.2-0.1c0-0.1,0.1-0.2,0.1-0.4h0.1v3H141c0-0.2,0-0.4-0.1-0.4
		c0-0.1-0.1-0.1-0.2-0.1h-2v3H141.9z M146.8,121v-0.3c0.1,0,0.2-0.1,0.2-0.2c0-0.1,0-0.2,0-0.4v-9.8c0-0.2,0-0.3,0-0.4
		c0-0.1-0.1-0.2-0.2-0.2v-0.3h3c0.6,0,1.1,0.3,1.5,0.9c0.4,0.6,0.5,1.4,0.5,2.5c0,1.1-0.2,1.9-0.5,2.6c-0.3,0.6-0.8,0.9-1.4,0.9
		h-1.9v3.8c0,0.2,0,0.4,0,0.4c0,0.1,0.1,0.1,0.2,0.2v0.3H146.8z M149.6,111.3h-1.4v3h1.5c0.4,0,0.8-0.1,1-0.4
		c0.2-0.2,0.3-0.6,0.3-1.1s-0.1-0.9-0.3-1.1C150.4,111.4,150,111.3,149.6,111.3L149.6,111.3z M154.6,116.4c0,1.1,0.1,1.8,0.3,2.2
		c0.2,0.4,0.6,0.6,1.1,0.6c0.5,0,0.9-0.2,1.1-0.7c0.2-0.5,0.3-1.2,0.3-2.2v-6.1c0-0.2,0-0.4,0-0.5c0-0.1-0.1-0.1-0.2-0.2v-0.3h1.6
		v0.3c-0.1,0.1-0.2,0.1-0.2,0.2c0,0.1,0,0.2,0,0.5v6.3c0,1.7-0.2,2.9-0.6,3.6c-0.4,0.7-1,1.1-1.9,1.1c-0.9,0-1.5-0.4-1.9-1.1
		c-0.4-0.7-0.6-1.9-0.6-3.6v-6.3c0-0.2,0-0.4,0-0.5c0-0.1-0.1-0.1-0.2-0.2v-0.3h1.6v0.3c-0.1,0-0.1,0.1-0.2,0.2c0,0.1,0,0.2,0,0.5
		V116.4z M155.2,108l1.3-3.3c0.1-0.2,0.2-0.4,0.2-0.5c0.1-0.1,0.2-0.2,0.2-0.2c0.1,0,0.2,0.1,0.2,0.2c0.1,0.2,0.1,0.4,0.1,0.6
		c0,0.2,0,0.4-0.1,0.5c-0.1,0.2-0.2,0.3-0.3,0.6l-1.4,2H155.2z M160.5,121v-0.3c0.1-0.1,0.2-0.1,0.2-0.2c0-0.1,0-0.2,0-0.4v-9.8
		c0-0.2,0-0.4,0-0.5c0-0.1-0.1-0.2-0.2-0.2v-0.3h3.3c0.6,0,1,0.3,1.3,0.8c0.3,0.5,0.5,1.3,0.5,2.2c0,0.5-0.1,1-0.2,1.4
		c-0.1,0.4-0.3,0.7-0.5,1c0.3,0.3,0.5,0.7,0.6,1.2c0.1,0.5,0.2,1,0.2,1.7c0,1.1-0.2,1.9-0.5,2.5c-0.4,0.6-0.9,0.9-1.5,0.9H160.5z
		 M163.4,115.9h-1.6v3.2h1.6c0.5,0,0.8-0.1,1-0.4c0.2-0.2,0.3-0.6,0.3-1.2c0-0.6-0.1-1-0.3-1.2C164.2,116,163.8,115.9,163.4,115.9
		L163.4,115.9z M163.5,111.3h-1.7v2.5h1.9c0.3,0,0.5-0.1,0.7-0.3c0.1-0.2,0.2-0.5,0.2-1c0-0.5-0.1-0.8-0.2-1
		C164.2,111.4,163.9,111.3,163.5,111.3L163.5,111.3z M171.6,118.9c0.1,0,0.2,0,0.2-0.1c0-0.1,0.1-0.2,0.1-0.4l0.1,0v3.2h-0.1
		c0-0.2,0-0.4-0.1-0.4c0-0.1-0.1-0.1-0.2-0.1h-4.4v-0.3c0.1-0.1,0.2-0.1,0.2-0.2c0-0.1,0-0.2,0-0.4v-9.8c0-0.2,0-0.4,0-0.5
		c0-0.1-0.1-0.2-0.2-0.2v-0.3h1.6v0.3c-0.1,0.1-0.2,0.1-0.2,0.2c0,0.1,0,0.2,0,0.5v8.6H171.6z M174.6,120.1c0,0.2,0,0.4,0,0.5
		c0,0.1,0.1,0.1,0.2,0.2v0.3h-1.5v-0.3c0.1-0.1,0.2-0.1,0.2-0.2c0-0.1,0-0.2,0-0.4v-9.8c0-0.2,0-0.4,0-0.5c0-0.1-0.1-0.1-0.2-0.2
		v-0.3h1.5v0.3c-0.1,0-0.1,0.1-0.2,0.2c0,0.1,0,0.2,0,0.5V120.1z M174.6,120.1"/>
	<path class="st0" d="M181,117l0.1-0.2l0.7,2.5l-0.1,0.2c0-0.1-0.1-0.1-0.1-0.1c0,0,0,0-0.1,0c0,0-0.1,0.1-0.3,0.3
		c-0.8,1-1.5,1.6-2.2,1.6c-0.8,0-1.5-0.6-2-1.7c-0.5-1.2-0.8-2.6-0.8-4.3c0-1.8,0.3-3.2,0.8-4.4c0.6-1.1,1.3-1.7,2.2-1.7
		c0.5,0,0.9,0.2,1.4,0.5c0.5,0.3,0.7,0.5,0.7,0.5c0,0,0.1,0,0.1,0c0,0,0.1,0,0.1,0l0.1,0.2l-0.7,2.6l-0.1-0.2c0,0,0,0,0,0
		c0,0,0,0,0-0.1c0-0.3-0.2-0.7-0.5-1c-0.4-0.3-0.7-0.5-1.1-0.5c-0.6,0-1,0.4-1.4,1.1c-0.4,0.8-0.5,1.7-0.5,2.8
		c0,1.2,0.2,2.2,0.5,2.9c0.4,0.7,0.8,1.1,1.4,1.1c0.4,0,0.8-0.2,1.2-0.6c0.4-0.4,0.6-0.8,0.6-1c0-0.1,0-0.1,0-0.2
		C181,117.2,181,117.1,181,117L181,117z M182.6,121v-0.3c0.2-0.1,0.3-0.4,0.4-1c0-0.1,0-0.1,0-0.1l1.8-9.1c0-0.1,0-0.2,0-0.2
		c0,0,0-0.1,0-0.1c0-0.1,0-0.2-0.1-0.3c0-0.1-0.1-0.2-0.2-0.2v-0.3h1.7v0.3c-0.1,0.1-0.2,0.1-0.2,0.2c0,0.1,0,0.2,0,0.3
		c0,0.1,0,0.1,0,0.2c0,0.1,0,0.1,0,0.2l1.9,9.1c0.1,0.4,0.2,0.7,0.2,0.8c0.1,0.2,0.1,0.3,0.2,0.3v0.3h-1.8v-0.3
		c0.1-0.1,0.1-0.1,0.2-0.2c0-0.1,0.1-0.2,0.1-0.3c0,0,0-0.1,0-0.2c0-0.1,0-0.1,0-0.2l-0.4-1.8h-2.3l-0.3,1.8c0,0.1,0,0.2,0,0.2
		c0,0.1,0,0.1,0,0.2c0,0.1,0,0.2,0.1,0.3c0,0.1,0.1,0.1,0.2,0.2v0.3H182.6z M185.4,112.3l-0.8,4.1h1.6L185.4,112.3z M185.4,112.3"/>
	<path class="st0" d="M82.1,154.5c0.2,0,0.3,0,0.4-0.1c0.1-0.1,0.1-0.2,0.2-0.5h0.2v3.4h-0.2c0-0.2-0.1-0.4-0.2-0.5
		c-0.1-0.1-0.2-0.1-0.4-0.1H73v-0.3c0.2-0.1,0.3-0.1,0.4-0.2c0.1-0.1,0.1-0.2,0.1-0.5v-10.5c0-0.2,0-0.4-0.1-0.5
		c-0.1-0.1-0.2-0.2-0.4-0.2v-0.3H82c0.2,0,0.3,0,0.4-0.1c0.1-0.1,0.1-0.2,0.2-0.5h0.3v3.4h-0.3c0-0.2-0.1-0.4-0.2-0.5
		c-0.1-0.1-0.2-0.1-0.3-0.1h-6.4v2.7h4.1c0.2,0,0.3,0,0.4-0.1c0.1-0.1,0.1-0.2,0.2-0.5h0.2v3.2h-0.2c0-0.2-0.1-0.4-0.2-0.5
		c-0.1-0.1-0.2-0.1-0.4-0.1h-4.1v3.3H82.1z M88.5,148.3v7.5c0,0.2,0,0.4,0.1,0.5c0.1,0.1,0.2,0.1,0.4,0.2v0.3h-2.9v-0.3
		c0.2-0.1,0.3-0.1,0.4-0.2c0.1-0.1,0.1-0.2,0.1-0.5v-10.5c0-0.2,0-0.4-0.1-0.5c-0.1-0.1-0.2-0.2-0.4-0.2v-0.3h3.6v0.3
		c-0.1,0-0.2,0.1-0.2,0.1c-0.1,0.1-0.1,0.1-0.1,0.2c0,0.1,0,0.2,0.1,0.3c0,0.1,0.1,0.2,0.2,0.3l5.5,6.9v-7.1c0-0.2,0-0.4-0.1-0.5
		c-0.1-0.1-0.2-0.2-0.4-0.2v-0.3h2.9v0.3c-0.2,0.1-0.3,0.1-0.4,0.2c-0.1,0.1-0.1,0.2-0.1,0.5v10.5c0,0.2,0,0.4,0.1,0.5
		c0.1,0.1,0.2,0.2,0.4,0.2v0.3h-3.3v-0.3c0.1,0,0.2-0.1,0.2-0.1c0.1-0.1,0.1-0.1,0.1-0.2c0-0.1,0-0.2-0.1-0.3c0-0.1-0.1-0.2-0.2-0.3
		L88.5,148.3z M100.5,155.8l1.1-3l0.3,0.2c0,0,0,0,0,0.1c0,0.1,0,0.1,0,0.2c0,0.3,0.4,0.6,1.2,1c0.8,0.4,1.7,0.6,2.5,0.6
		c0.8,0,1.4-0.2,1.9-0.5c0.5-0.3,0.8-0.7,0.8-1.2c0-0.8-0.8-1.2-2.5-1.3c-0.6,0-1.1-0.1-1.5-0.1c-1.2-0.1-2.1-0.5-2.7-1.1
		c-0.6-0.6-0.9-1.4-0.9-2.4c0-1.2,0.4-2.2,1.3-3c0.9-0.8,2-1.1,3.4-1.1c1.2,0,2.4,0.4,3.8,1.1c0.3,0.2,0.6,0.3,0.6,0.3
		c0,0,0.1,0,0.1,0c0,0,0.1-0.1,0.2-0.2l0.2,0.1l-1.2,3l-0.3-0.2c0,0,0,0,0-0.1c0,0,0,0,0-0.1c0-0.4-0.4-0.8-1.1-1.2
		c-0.8-0.4-1.6-0.6-2.4-0.6c-0.7,0-1.3,0.1-1.8,0.4c-0.5,0.3-0.7,0.7-0.7,1.1c0,0.7,0.7,1.1,2.2,1.2c0.8,0.1,1.4,0.1,1.8,0.2
		c1.2,0.2,2.1,0.6,2.8,1.2c0.6,0.6,1,1.5,1,2.5c0,1.2-0.5,2.2-1.4,3c-0.9,0.8-2.1,1.2-3.6,1.2c-1.4,0-2.8-0.4-4-1.1
		c-0.2-0.1-0.4-0.2-0.4-0.2c-0.1,0-0.1,0-0.2,0.1c0,0-0.1,0.1-0.1,0.2L100.5,155.8z M113.5,156.8v-0.3c0.2,0,0.3-0.1,0.4-0.2
		c0.1-0.1,0.1-0.3,0.1-0.5v-10.5c0-0.2,0-0.4-0.1-0.5c-0.1-0.1-0.2-0.2-0.4-0.2v-0.3h6.2c1.3,0,2.3,0.3,3.1,1
		c0.7,0.6,1.1,1.5,1.1,2.7c0,1.2-0.3,2.1-1,2.8c-0.7,0.7-1.6,1-2.8,1h-3.8v4.1c0,0.2,0,0.4,0.1,0.5c0.1,0.1,0.2,0.2,0.4,0.2v0.3
		H113.5z M119.1,146.4h-2.9v3.2h3c0.9,0,1.5-0.1,1.9-0.4c0.4-0.3,0.6-0.7,0.6-1.2c0-0.5-0.2-0.9-0.6-1.2
		C120.7,146.5,120,146.4,119.1,146.4L119.1,146.4z M119.1,146.4"/>
	<path class="st0" d="M47.9,137l0.7-2.6l0.2,0.1c0,0,0,0,0,0.1c0,0.1,0,0.1,0,0.2c0,0.3,0.3,0.6,0.8,0.9c0.5,0.3,1.1,0.5,1.6,0.5
		c0.5,0,0.9-0.1,1.2-0.4c0.3-0.3,0.5-0.6,0.5-1c0-0.7-0.5-1.1-1.6-1.1c-0.4,0-0.7-0.1-0.9-0.1c-0.8-0.1-1.3-0.4-1.7-0.9
		c-0.4-0.5-0.6-1.2-0.6-2.1c0-1.1,0.3-1.9,0.8-2.6c0.5-0.7,1.3-1,2.1-1c0.7,0,1.5,0.3,2.4,1c0.2,0.2,0.3,0.2,0.4,0.2
		c0,0,0.1,0,0.1,0c0,0,0.1-0.1,0.1-0.2l0.2,0.1l-0.8,2.5l-0.2-0.2c0,0,0,0,0,0c0,0,0,0,0-0.1c0-0.3-0.2-0.7-0.7-1
		c-0.5-0.4-1-0.5-1.5-0.5c-0.5,0-0.8,0.1-1.1,0.4c-0.3,0.2-0.4,0.6-0.4,1c0,0.6,0.5,0.9,1.4,1c0.5,0.1,0.9,0.1,1.1,0.2
		c0.8,0.2,1.4,0.5,1.8,1.1c0.4,0.5,0.6,1.3,0.6,2.1c0,1-0.3,1.9-0.9,2.5c-0.6,0.7-1.4,1-2.3,1c-0.9,0-1.7-0.3-2.5-1
		c-0.2-0.1-0.2-0.2-0.3-0.2c0,0-0.1,0-0.1,0c0,0,0,0.1-0.1,0.2L47.9,137z M61.9,135.9c0.1,0,0.2,0,0.3-0.1c0-0.1,0.1-0.2,0.1-0.4
		h0.2v2.9h-0.2c0-0.2-0.1-0.3-0.1-0.4c0-0.1-0.1-0.1-0.2-0.1h-5.8v-0.3c0.1-0.1,0.2-0.1,0.2-0.2c0-0.1,0.1-0.2,0.1-0.4v-9
		c0-0.2,0-0.3-0.1-0.4c0-0.1-0.1-0.1-0.2-0.2v-0.3h5.7c0.1,0,0.2,0,0.2-0.1c0-0.1,0.1-0.2,0.1-0.4h0.2v2.9h-0.2
		c0-0.2-0.1-0.3-0.1-0.4c0-0.1-0.1-0.1-0.2-0.1h-4.1v2.4h2.6c0.1,0,0.2,0,0.2-0.1c0-0.1,0.1-0.2,0.1-0.4h0.2v2.7h-0.2
		c0-0.2-0.1-0.3-0.1-0.4c0-0.1-0.1-0.1-0.3-0.1h-2.6v2.8H61.9z M64.3,137.9v-0.3c0.1,0,0.2-0.1,0.2-0.2c0-0.1,0.1-0.2,0.1-0.4v-9
		c0-0.2,0-0.3-0.1-0.4c0-0.1-0.1-0.1-0.2-0.2v-0.3h4c0.8,0,1.5,0.3,1.9,0.8c0.5,0.5,0.7,1.3,0.7,2.3c0,0.8-0.1,1.5-0.4,2
		c-0.3,0.5-0.7,0.9-1.3,1.2l1.3,3.2c0.1,0.2,0.2,0.4,0.3,0.5c0.1,0.1,0.3,0.3,0.5,0.5v0.3H69v-0.3c0.1,0,0.2-0.1,0.2-0.1
		c0-0.1,0.1-0.1,0.1-0.2c0,0,0-0.1,0-0.2c0-0.1-0.1-0.2-0.1-0.3l-1.3-3.3H66v3.5c0,0.2,0,0.3,0.1,0.4c0,0.1,0.1,0.1,0.2,0.2v0.3
		H64.3z M68,129H66v2.9h2c0.6,0,1-0.1,1.2-0.4c0.2-0.2,0.4-0.6,0.4-1.2c0-0.5-0.1-0.9-0.4-1.1C69,129.1,68.6,129,68,129L68,129z
		 M79.4,135.5c0,0.2,0,0.3,0.1,0.4c0,0.1,0.1,0.1,0.2,0.2v0.3c-0.6,0.6-1.2,1-1.8,1.3c-0.6,0.3-1.2,0.5-1.8,0.5
		c-1.1,0-1.9-0.5-2.6-1.6c-0.7-1.1-1.1-2.4-1.1-4c0-1.6,0.4-3,1.1-4c0.7-1.1,1.6-1.6,2.8-1.6c0.6,0,1.1,0.1,1.7,0.4
		c0.6,0.3,0.8,0.4,0.9,0.4c0,0,0.1,0,0.3-0.1c0,0,0.1,0,0.1,0l0.1,0.1l-0.8,2.6l-0.1-0.1c0,0,0,0,0,0c0,0,0,0,0-0.1
		c0-0.3-0.2-0.6-0.7-0.9c-0.5-0.3-1-0.5-1.5-0.5c-0.7,0-1.3,0.3-1.8,1.1c-0.5,0.7-0.7,1.6-0.7,2.7c0,1,0.3,1.9,0.8,2.6
		c0.5,0.7,1.1,1.1,1.9,1.1c0.3,0,0.6-0.1,0.9-0.2c0.3-0.1,0.7-0.3,1-0.5V134h-1.6c-0.1,0-0.2,0-0.2,0.1c0,0.1-0.1,0.2-0.1,0.4h-0.2
		V132h0.2c0,0.2,0.1,0.3,0.1,0.4c0,0.1,0.1,0.1,0.2,0.1h3v0.3c-0.1,0-0.2,0.1-0.2,0.2c0,0.1-0.1,0.2-0.1,0.4V135.5z M83.1,137
		c0,0.2,0,0.3,0.1,0.4c0,0.1,0.1,0.1,0.2,0.2v0.3h-2v-0.3c0.1,0,0.2-0.1,0.2-0.2c0-0.1,0.1-0.2,0.1-0.4v-9c0-0.2,0-0.3-0.1-0.4
		c0-0.1-0.1-0.1-0.2-0.2v-0.3h2v0.3c-0.1,0-0.2,0.1-0.2,0.2c0,0.1-0.1,0.2-0.1,0.4V137z M88.8,127c1.1,0,2,0.5,2.7,1.6
		c0.7,1.1,1,2.4,1,4c0,1.6-0.3,2.9-1,4c-0.7,1.1-1.6,1.6-2.6,1.6c-1.1,0-1.9-0.5-2.6-1.6c-0.7-1.1-1-2.4-1-4c0-1.6,0.3-2.9,1-4
		C86.9,127.5,87.7,127,88.8,127L88.8,127z M86.5,132.4c0,1.1,0.2,2,0.6,2.6c0.4,0.7,1,1,1.7,1c0.7,0,1.3-0.3,1.7-1
		c0.4-0.7,0.6-1.5,0.6-2.6c0-1.1-0.2-2-0.6-2.6c-0.4-0.7-1-1-1.7-1c-0.7,0-1.3,0.3-1.7,1C86.7,130.5,86.5,131.3,86.5,132.4
		L86.5,132.4z M97,137.9v-0.3c0.2-0.1,0.4-0.4,0.5-0.9c0,0,0-0.1,0-0.1l2.4-8.3c0-0.1,0-0.2,0-0.2c0,0,0-0.1,0-0.1
		c0-0.1,0-0.2-0.1-0.3c-0.1-0.1-0.1-0.2-0.3-0.2v-0.3h2.2v0.3c-0.1,0.1-0.2,0.1-0.2,0.2c0,0.1-0.1,0.2-0.1,0.3c0,0,0,0.1,0,0.2
		c0,0.1,0,0.1,0,0.2l2.4,8.3c0.1,0.4,0.2,0.6,0.3,0.8c0.1,0.1,0.2,0.2,0.3,0.3v0.3h-2.3v-0.3c0.1-0.1,0.2-0.1,0.2-0.2
		c0-0.1,0.1-0.2,0.1-0.3c0,0,0-0.1,0-0.2c0,0,0-0.1,0-0.2l-0.5-1.6h-2.9l-0.4,1.6c0,0.1,0,0.2,0,0.2c0,0.1,0,0.1,0,0.2
		c0,0.1,0,0.2,0.1,0.3c0,0.1,0.1,0.1,0.2,0.2v0.3H97z M100.7,129.9l-1.1,3.8h2.1L100.7,129.9z M105.8,137.9v-0.3
		c0.1,0,0.2-0.1,0.2-0.2c0-0.1,0.1-0.2,0.1-0.4v-9c0-0.2,0-0.3-0.1-0.4c0-0.1-0.1-0.1-0.2-0.2v-0.3h4c0.8,0,1.5,0.3,1.9,0.8
		c0.5,0.5,0.7,1.3,0.7,2.3c0,0.8-0.1,1.5-0.4,2c-0.3,0.5-0.7,0.9-1.3,1.2l1.3,3.2c0.1,0.2,0.2,0.4,0.3,0.5c0.1,0.1,0.3,0.3,0.5,0.5
		v0.3h-2.3v-0.3c0.1,0,0.2-0.1,0.2-0.1c0-0.1,0.1-0.1,0.1-0.2c0,0,0-0.1,0-0.2c0-0.1-0.1-0.2-0.1-0.3l-1.3-3.3h-1.7v3.5
		c0,0.2,0,0.3,0.1,0.4c0,0.1,0.1,0.1,0.2,0.2v0.3H105.8z M109.4,129h-1.9v2.9h2c0.6,0,1-0.1,1.2-0.4c0.2-0.2,0.4-0.6,0.4-1.2
		c0-0.5-0.1-0.9-0.4-1.1C110.4,129.1,110,129,109.4,129L109.4,129z M117.5,127c1.1,0,2,0.5,2.7,1.6c0.7,1.1,1,2.4,1,4
		c0,1.6-0.3,2.9-1,4c-0.7,1.1-1.6,1.6-2.7,1.6c-1.1,0-1.9-0.5-2.6-1.6c-0.7-1.1-1-2.4-1-4c0-1.6,0.3-2.9,1-4
		C115.5,127.5,116.4,127,117.5,127L117.5,127z M115.2,132.4c0,1.1,0.2,2,0.6,2.6c0.4,0.7,1,1,1.7,1c0.7,0,1.3-0.3,1.7-1
		c0.4-0.7,0.6-1.5,0.6-2.6c0-1.1-0.2-2-0.6-2.6c-0.4-0.7-1-1-1.7-1c-0.7,0-1.3,0.3-1.7,1C115.4,130.5,115.2,131.3,115.2,132.4
		L115.2,132.4z M124.6,133.6c0,1,0.1,1.6,0.4,2c0.3,0.4,0.7,0.6,1.4,0.6c0.6,0,1.1-0.2,1.4-0.6c0.3-0.4,0.4-1.1,0.4-2.1V128
		c0-0.2,0-0.3-0.1-0.4c0-0.1-0.1-0.1-0.2-0.2v-0.3h2v0.3c-0.1,0-0.2,0.1-0.2,0.2c0,0.1-0.1,0.2-0.1,0.4v5.8c0,1.5-0.2,2.6-0.7,3.3
		c-0.5,0.7-1.3,1-2.5,1c-1.1,0-2-0.3-2.5-1c-0.5-0.7-0.8-1.8-0.8-3.3V128c0-0.2,0-0.3-0.1-0.4c0-0.1-0.1-0.1-0.2-0.2v-0.3h2v0.3
		c-0.1,0-0.2,0.1-0.2,0.2c0,0.1-0.1,0.2-0.1,0.4V133.6z M137.8,134.2l0.1-0.1l0.9,2.3l-0.1,0.2c0-0.1-0.1-0.1-0.1-0.1c0,0,0,0-0.1,0
		c0,0-0.2,0.1-0.4,0.3c-1,1-1.9,1.4-2.8,1.4c-1.1,0-1.9-0.5-2.6-1.6c-0.7-1.1-1.1-2.4-1.1-4c0-1.6,0.4-3,1.1-4
		c0.7-1,1.6-1.6,2.8-1.6c0.6,0,1.2,0.2,1.8,0.5c0.6,0.3,0.9,0.5,0.9,0.5c0,0,0.1,0,0.2,0c0.1,0,0.1,0,0.2,0l0.1,0.1l-0.9,2.4
		l-0.2-0.1c0,0,0,0,0,0c0,0,0,0,0-0.1c0-0.3-0.2-0.6-0.7-0.9c-0.5-0.3-1-0.5-1.5-0.5c-0.7,0-1.3,0.3-1.8,1c-0.5,0.7-0.7,1.6-0.7,2.6
		c0,1.1,0.2,2,0.7,2.7c0.5,0.7,1.1,1,1.8,1c0.5,0,1.1-0.2,1.6-0.6c0.5-0.4,0.8-0.7,0.8-1c0,0,0-0.1,0-0.2
		C137.8,134.3,137.8,134.2,137.8,134.2L137.8,134.2z M139.8,137.9v-0.3c0.2-0.1,0.4-0.4,0.5-0.9c0,0,0-0.1,0-0.1l2.4-8.3
		c0-0.1,0-0.2,0-0.2c0,0,0-0.1,0-0.1c0-0.1,0-0.2-0.1-0.3c-0.1-0.1-0.1-0.2-0.3-0.2v-0.3h2.2v0.3c-0.1,0.1-0.2,0.1-0.2,0.2
		c0,0.1-0.1,0.2-0.1,0.3c0,0,0,0.1,0,0.2c0,0.1,0,0.1,0,0.2l2.4,8.3c0.1,0.4,0.2,0.6,0.3,0.8c0.1,0.1,0.2,0.2,0.3,0.3v0.3h-2.3v-0.3
		c0.1-0.1,0.2-0.1,0.2-0.2c0-0.1,0.1-0.2,0.1-0.3c0,0,0-0.1,0-0.2c0,0,0-0.1,0-0.2l-0.5-1.6H142l-0.4,1.6c0,0.1,0,0.2,0,0.2
		c0,0.1,0,0.1,0,0.2c0,0.1,0,0.2,0.1,0.3c0,0.1,0.1,0.1,0.2,0.2v0.3H139.8z M143.5,129.9l-1.1,3.8h2.1L143.5,129.9z M143.5,129.9"/>
</g>
</svg>
