<?xml version="1.0" encoding="utf-8"?>
<!-- Generator: Adobe Illustrator 24.1.1, SVG Export Plug-In . SVG Version: 6.00 Build 0)  -->
<svg version="1.1" id="Camada_1" xmlns="http://www.w3.org/2000/svg" xmlns:xlink="http://www.w3.org/1999/xlink" x="0px" y="0px"
	 viewBox="0 0 497 163.5" style="enable-background:new 0 0 497 163.5;" xml:space="preserve">
<style type="text/css">
	.st0{fill-rule:evenodd;clip-rule:evenodd;}
</style>
<g>
	<g>
		<g>
			<path class="st0" d="M23.4,139.5l-2.9,5L23.4,139.5L23.4,139.5z M23.3,70.4l0,69.1h0l-2.9,5l0,3.6l125.7,0v-3.6l-2.8-5.2h0v0l0,0
				h0v0l0-69l-3.8,0.1V42.7H137l0-8.2c1.3-1.1,1.9-2.8,1.9-4.5c0-3.7-3.2-6.9-7.1-6.9c-3.8,0-7.1,3.1-7.1,6.9c0,1.7,0.6,3.1,1.9,4.7
				l0.1,8.1l-2.6,0l0,27.7H120v0h-7.2v0h-4.1l0-24.3l0.7-1.6H57.8l0.7,1.6l0,20.1h0l0,4.1h0v0h-4.1v0H42.7v0h-0.1l0-27.7l-2.5,0
				l0.1-8.2c1.3-1.1,1.9-2.8,1.9-4.5c0-3.7-3.2-6.9-7.1-6.9c-3.8,0-7.1,3.1-7.1,6.9c0,1.7,0.6,3.1,1.9,4.7l0.1,8.1l-2.4,0l0,27.7
				L23.3,70.4L23.3,70.4L23.3,70.4L23.3,70.4z M19.2,72.7l-2.6-2.3h-0.3l0-4.1l7.1,0V42.6h0l0-4.1l2.3,0l0-1.9
				c-0.9-1.9-1.9-4.2-1.9-6.5c0-5.5,4.1-10.2,9.3-11.1l0.1-1.1c-0.5-0.5-0.7-1.1-0.7-1.8c0-0.9,0.4-1.6,1.1-2.1l0.7-7.6
				c-0.1-0.1-0.1-0.3-0.1-0.4c0-0.5,0.4-0.9,0.9-0.9c0.5,0,0.9,0.4,0.9,0.9c0,0.1,0,0.3-0.1,0.4l0.7,7.6c0.7,0.5,1.1,1.2,1.1,2.1
				c0,0.7-0.3,1.4-0.8,1.8L37,19c5.2,1,9.2,5.6,9.2,11.1c0,2.3-0.9,4.7-1.9,6.5l0,1.9h2.4v4.1l0,0l0,23.6l7.7,0l0-19.4l-2.3-2.1
				v-3.2l2.3-1.1v0l1.3-2.5h3.2l2.4,2.5l12,0l2.2-2.3h3.2l2.2,2.3l5.2,0l2.1-2.3h3.2l2.2,2.3l12.5,0l2.3-2.5h3.2l1.1,2.4l2.4,1.1
				v3.2l-2.3,2.1v19.4l7.2,0l0-27.6h2.5l0-2c-0.9-1.9-1.9-4.2-1.9-6.5c0-5.4,4-10.1,9.2-11.1l0.1-1.1c-0.5-0.5-0.8-1.1-0.8-1.8
				c0-0.9,0.5-1.7,1.2-2.1l0.8-7.6c-0.1-0.1-0.1-0.3-0.1-0.4c0-0.5,0.4-0.9,0.9-0.9c0.5,0,0.9,0.4,0.9,0.9c0,0.1,0,0.3-0.1,0.4
				l0.6,7.6c0.6,0.5,1.1,1.2,1.1,2.1c0,0.7-0.3,1.3-0.7,1.8l0.1,1.1c5.3,0.9,9.4,5.6,9.4,11.1c0,2.3-0.9,4.7-1.9,6.5l0,1.9h2.5
				l0,27.5l6.7,0l0,4.1h-0.3l-2.6,2.3v23.3l1.4,0h1.3l0,3.9l-2.8,2.4v16.1l1.4,0l1.3,0l0,3.9l-2.8,2.4v14.6h0l2.8,2.6v6.2h0.1l0,4.2
				l-134.1,0l0-4.1h0.2v-6.2l2.8-2.4h-0.1v-14.6l-2.8-2.4l0-3.9l1.3,0l1.4,0l0-16.1l-2.8-2.4l0-3.9l2.8,0V72.7z"/>
		</g>
		<path class="st0" d="M179.1,100.4v17.7h2.9v-7.8h8v-2.6h-8V103h9.2v-2.6H179.1L179.1,100.4z M193.7,100.4v17.7h3v-17.7H193.7
			L193.7,100.4z M208.2,100c-5.2,0-8.5,3.5-8.5,9.3c0,5.8,3.2,9.3,8.5,9.3c5.2,0,8.5-3.5,8.5-9.3C216.7,103.5,213.5,100,208.2,100
			L208.2,100z M208.2,102.5c3.4,0,5.5,2.4,5.5,6.8c0,4.3-2.1,6.8-5.5,6.8c-3.4,0-5.5-2.5-5.5-6.8C202.7,105,204.9,102.5,208.2,102.5
			L208.2,102.5z M234.6,106c-0.3-3.7-3-6-7.3-6c-5.2,0-8.4,3.4-8.4,9.3c0,5.8,3.1,9.3,8.1,9.3c4.4,0,7.5-2.8,7.6-6.8h-2.9
			c-0.2,2.5-2,4.2-4.6,4.2c-3.2,0-5.3-2.5-5.3-6.8c0-4.2,1.9-6.6,5.3-6.6c2.5,0,4.2,1.2,4.5,3.4H234.6L234.6,106z M237.5,100.4v17.7
			h2.9v-7.3h4.5c2.3,0,2.7,1,2.8,2.8l0.1,2.1c0,0.9,0.1,1.7,0.4,2.3h3.3v-0.5c-0.7-0.4-0.7-1-0.7-2l-0.1-2.5c-0.1-1.9-0.4-3-2.1-3.5
			c1.6-0.6,2.5-2.1,2.5-4.1c0-3.1-1.9-4.9-5-4.9c-0.1,0-0.4,0-0.9,0H237.5L237.5,100.4z M240.4,102.9h4.3c2.2,0,3.4,0.6,3.4,2.7
			c0,2.1-1.2,2.8-3.5,2.8h-4.2V102.9L240.4,102.9z M254.3,100.4v11.2c0,4.6,2.4,7,7,7c4.4,0,7-2.5,7-7v-11.2h-3v11
			c0,3-1.3,4.5-4.1,4.5c-2.8,0-4-1.5-4-4.5v-11H254.3L254.3,100.4z M271.2,100.4v2.6h9.8l-10.3,12.7v2.5h13.7v-2.6h-10.1l10.2-12.5
			v-2.6H271.2z"/>
		<path class="st0" d="M181,21.6c0.1,0.5,0.2,1.1,0.4,1.6l4.5,13.6h2.3l4.6-13.6c0.1-0.4,0.3-1,0.4-1.6v15.2h2.3V19h-3.5l-4.6,13.6
			c-0.1,0.4-0.3,0.9-0.4,1.5c-0.1-0.4-0.2-0.9-0.4-1.5L182.3,19h-3.5v17.8h2.2V21.6L181,21.6z M199.1,36.8h2.2V23.9h-2.2V36.8
			L199.1,36.8z M199.1,21.5h2.2V19h-2.2V21.5L199.1,21.5z M213.2,36.8h2.2v-8.4c0-1.3,0-2.3-0.6-3.1c-0.7-1.2-2.1-1.8-4-1.8
			c-1.8,0-3.2,0.7-4.2,2.2v-1.9h-2.1v12.9h2.2v-7.4c0-2.5,1.4-4,3.8-4c2.1,0,2.6,1.1,2.6,3.4V36.8L213.2,36.8z M218.6,36.8h2.2V23.9
			h-2.2V36.8L218.6,36.8z M218.6,21.5h2.2V19h-2.2V21.5L218.6,21.5z M223.2,32.6c0,3,1.9,4.6,5.2,4.6c3.5,0,5.4-1.6,5.4-4.3
			c0-2.3-1.3-3.1-3.9-3.7l-2.1-0.5c-1.4-0.3-2-0.7-2-1.6c0-1.2,0.9-1.8,2.7-1.8c1.8,0,2.8,0.8,2.9,2.2h2.1v0c0-2.4-2-4-5-4
			c-3.1,0-4.8,1.5-4.8,3.7c0,2.2,1.1,3,3.7,3.6l2.4,0.6c1.3,0.3,2,0.7,2,1.8c0,1.2-1.1,2.1-3,2.1c-2,0-3.1-0.9-3.3-2.7H223.2
			L223.2,32.6z M238.9,33.5v-7.9h2.3v-1.7h-2.3v-3.6h-2.2v3.6h-1.9v1.7h1.9v8.7c0,2,0.7,2.7,2.8,2.7c0.5,0,1.1-0.1,1.7-0.2v-1.9
			c-0.5,0-0.9,0.1-1.2,0.1C239.1,35,238.9,34.6,238.9,33.5L238.9,33.5z M246.9,22.1h1.5l3.4-4.2h-2.4L246.9,22.1L246.9,22.1z
			 M252,32.6c-0.3,1.7-1.5,2.6-3.3,2.6c-2.3,0-3.7-1.5-3.7-4.3h9.3c0-0.3,0-0.6,0-1c0-4.2-2.2-6.6-5.8-6.6c-3.6,0-5.8,2.5-5.8,7
			c0,4.2,2.2,6.8,5.8,6.8c3,0,5.2-1.7,5.7-4.6H252L252,32.6z M245,29.2c0.2-2.5,1.5-3.8,3.6-3.8c2.2,0,3.5,1.3,3.5,3.8H245L245,29.2
			z M256.9,36.8h2.2v-7.2c0-2.4,1.2-3.7,3.6-3.7c0.2,0,0.3,0,0.5,0v-2.3c-0.2,0-0.4,0-0.6,0c-1.7,0-2.9,0.8-3.6,2.6v-2.3h-2.1V36.8
			L256.9,36.8z M265.1,36.8h2.2V23.9h-2.2V36.8L265.1,36.8z M265.1,21.5h2.2V19h-2.2V21.5L265.1,21.5z M269.9,30.3
			c0,4.4,2.3,6.9,6.2,6.9c3.9,0,6.2-2.5,6.2-6.9c0-4.4-2.3-6.9-6.2-6.9C272.2,23.4,269.9,25.9,269.9,30.3L269.9,30.3z M272.1,30.3
			c0-3.2,1.4-4.9,4-4.9c2.5,0,3.9,1.7,3.9,4.9c0,3.2-1.4,4.9-3.9,4.9C273.6,35.3,272.1,33.5,272.1,30.3L272.1,30.3z M303,19h-2.1
			v6.4c-1-1.3-2.4-2-4.2-2c-3.4,0-5.7,2.6-5.7,6.9c0,4.2,2.3,6.8,5.7,6.8c1.7,0,3.1-0.7,4.2-2v1.6h2.1V19L303,19z M301,30.2
			c0,3.3-1.4,5-3.8,5c-2.4,0-3.9-1.8-3.9-4.7c0-3.3,1.4-5.1,3.8-5.1C299.7,25.4,301,27,301,30.2L301,30.2z M314.2,30.2v1.9
			c0,1.8-1.6,3.1-4,3.1c-1.5,0-2.3-0.7-2.3-2c0-1.3,0.7-1.9,2.2-2.2C311.6,30.9,313,30.8,314.2,30.2L314.2,30.2z M314.4,35.1
			L314.4,35.1c0,1.3,0.7,2,2.2,2c0.4,0,0.8-0.1,1.3-0.2v-1.7c-0.2,0-0.4,0.1-0.6,0.1c-0.8,0-0.8-0.4-0.8-1.3v-6.5c0-2.7-1.6-4-5-4
			c-3.2,0-5.2,1.6-5.2,4.2v0.1h2.1c0-1.6,1-2.4,3-2.4c2,0,2.9,0.7,2.9,2c0,0.9,0,1.2-0.6,1.4c-0.5,0.2-1.8,0.3-3.6,0.5
			c-3,0.4-4.4,1.7-4.4,4.1c0,2.4,1.5,3.9,4.2,3.9C311.5,37.2,313,36.5,314.4,35.1L314.4,35.1z M326,30.9c0.2,4.1,2.7,6.3,7,6.3
			c4.3,0,6.8-2.2,6.8-5.6c0-1.4-0.5-2.6-1.5-3.4c-1-0.8-2.3-1.1-4.1-1.6c-3.7-0.9-5.4-1-5.4-3.3c0-1.7,1.5-2.8,3.9-2.8
			c2.5,0,4,1.3,4.2,3.7h2.3c0-3.5-2.4-5.7-6.4-5.7c-3.9,0-6.4,2.2-6.4,5.3c0,3.1,2,4,6,4.9c3.2,0.8,4.9,1.1,4.9,3.2
			c0,2-1.6,3.2-4.5,3.2c-2.8,0-4.6-1.6-4.6-4.2H326L326,30.9z M350.4,30.2v1.9c0,1.8-1.6,3.1-4,3.1c-1.5,0-2.3-0.7-2.3-2
			c0-1.3,0.7-1.9,2.2-2.2C347.8,30.9,349.2,30.8,350.4,30.2L350.4,30.2z M350.6,35.1L350.6,35.1c0,1.3,0.7,2,2.2,2
			c0.4,0,0.8-0.1,1.3-0.2v-1.7c-0.2,0-0.4,0.1-0.6,0.1c-0.8,0-0.8-0.4-0.8-1.3v-6.5c0-2.7-1.6-4-5-4c-3.2,0-5.2,1.6-5.2,4.2v0.1h2.1
			c0-1.6,1-2.4,3-2.4c2,0,2.9,0.7,2.9,2c0,0.9,0,1.2-0.6,1.4c-0.5,0.2-1.8,0.3-3.6,0.5c-3,0.4-4.4,1.7-4.4,4.1
			c0,2.4,1.5,3.9,4.2,3.9C347.7,37.2,349.2,36.5,350.6,35.1L350.6,35.1z M359.7,22.1h1.5l3.4-4.2h-2.4L359.7,22.1L359.7,22.1z
			 M358.1,23.9h-2.2v8.4c0,1.3,0,2.3,0.6,3.1c0.7,1.1,2.1,1.8,3.9,1.8c2,0,3.4-0.8,4.3-2.3v1.9h2.1V23.9h-2.2v7
			c0,2.9-1.3,4.4-3.8,4.4c-2.1,0-2.6-1.1-2.6-3.4V23.9L358.1,23.9z M381.4,19h-2.1v6.4c-1-1.3-2.4-2-4.2-2c-3.4,0-5.7,2.6-5.7,6.9
			c0,4.2,2.3,6.8,5.7,6.8c1.7,0,3.1-0.7,4.2-2v1.6h2.1V19L381.4,19z M379.3,30.2c0,3.3-1.4,5-3.8,5c-2.4,0-3.9-1.8-3.9-4.7
			c0-3.3,1.4-5.1,3.8-5.1C378,25.4,379.3,27,379.3,30.2L379.3,30.2z M393.5,32.6c-0.3,1.7-1.5,2.6-3.3,2.6c-2.3,0-3.7-1.5-3.7-4.3
			h9.3c0-0.3,0-0.6,0-1c0-4.2-2.2-6.6-5.8-6.6c-3.6,0-5.8,2.5-5.8,7c0,4.2,2.2,6.8,5.8,6.8c3,0,5.2-1.7,5.7-4.6H393.5L393.5,32.6z
			 M386.4,29.2c0.2-2.5,1.5-3.8,3.6-3.8c2.2,0,3.5,1.3,3.5,3.8H386.4z"/>
		<path class="st0" d="M179.4,151.3h4.5v-6.7h7.1v-3.7h-7.1v-3.7h8.2v-3.7h-12.7V151.3L179.4,151.3z M206.1,138.2h-4.3v7
			c0,2.1-0.6,3.2-2.1,3.2c-1.5,0-1.8-0.9-1.8-2.8v-7.3h-4.3v9c0,2.9,1.5,4.4,4.4,4.4c1.7,0,2.9-0.7,4-2.1v1.8h4.2V138.2L206.1,138.2
			z M209.1,151.3h4.3v-7c0-2.1,0.6-3.2,2.2-3.2c1.7,0,1.8,1.2,1.8,3.6v6.6h4.3v-8.5c0-3.4-1.2-4.9-4.4-4.9c-1.8,0-3.1,0.7-4,2.1
			v-1.8h-4.2V151.3L209.1,151.3z M228.3,144.6c0-2.2,1-3.5,2.5-3.5c1.6,0,2.5,1.2,2.5,3.5c0,2.4-0.9,3.6-2.5,3.6
			C229.2,148.2,228.3,147,228.3,144.6L228.3,144.6z M237.5,133.5h-4.3v6.3c-0.9-1.3-2.2-2.1-4-2.1c-3.1,0-5.5,2.8-5.5,7
			c0,4.2,2.3,6.9,5.5,6.9c1.7,0,2.9-0.7,3.9-2.1v1.8h4.3V133.5L237.5,133.5z M252.7,151.3v-0.5c-0.4-0.2-0.6-0.9-0.6-2.1v-5
			c0-1.8,0-3.1-0.9-4.2c-0.9-1.2-2.5-1.7-4.8-1.7c-3.7,0-5.8,1.4-6.2,4.4h4c0.2-1,0.9-1.5,2.1-1.5c1.1,0,1.7,0.4,1.7,1.2v0.3
			c0,1-1.6,0.8-4.7,1.5c-2.3,0.5-3.5,1.9-3.5,4.1c0,2.3,1.5,3.9,4.1,3.9c1.6,0,3-0.6,4.2-1.8c0,0.5,0.1,0.9,0.2,1.4H252.7
			L252.7,151.3z M248,145.1v1.5c0,1.4-1,2.3-2.5,2.3c-1,0-1.6-0.6-1.6-1.6c0-0.8,0.4-1.2,1.4-1.5C246.3,145.6,247.2,145.6,248,145.1
			L248,145.1z M257.8,156.6c1.4,0.4,2.5,0.6,3.5,0.6c2,0,3.1-0.9,3.1-2.5c0-1.5-1-2.3-2.8-2.3h-0.2v-1H260v2.6c0.2,0,0.5,0,0.7,0
			c1,0,1.4,0.2,1.4,0.8c0,0.6-0.3,0.9-1,0.9c-0.7,0-1.8-0.1-3.3-0.5V156.6L257.8,156.6z M267.1,146.4c-0.4,3.3-2.8,5.3-6.4,5.3
			c-3.9,0-6.5-2.7-6.5-6.8c0-4.5,2.6-7.2,6.7-7.2c3.6,0,5.9,1.9,6.2,5.1h-4.3c-0.2-1.2-0.9-1.8-1.9-1.8c-1.5,0-2.3,1.3-2.3,3.8
			c0,2.4,0.7,3.6,2.2,3.6c1.1,0,1.8-0.6,2-1.9H267.1L267.1,146.4z M278.9,132.7h-1.4c-0.2,0.7-0.5,1-1.1,1c-0.2,0-0.5,0-0.7-0.1
			l-1.1-0.3c-0.4-0.1-0.8-0.2-1.1-0.2c-1.3,0-2.1,1-2.6,3h1.4c0.2-0.6,0.5-0.9,1.1-0.9c0.2,0,0.4,0,0.8,0.1l1.1,0.3
			c0.3,0.1,0.6,0.1,0.9,0.1C277.7,135.7,278.5,134.8,278.9,132.7L278.9,132.7z M281.4,151.3v-0.5c-0.4-0.2-0.6-0.9-0.6-2.1v-5
			c0-1.8,0-3.1-0.9-4.2c-0.9-1.2-2.5-1.7-4.8-1.7c-3.7,0-5.8,1.4-6.2,4.4h4c0.2-1,0.9-1.5,2.1-1.5c1.1,0,1.7,0.4,1.7,1.2v0.3
			c0,1-1.6,0.8-4.7,1.5c-2.3,0.5-3.5,1.9-3.5,4.1c0,2.3,1.5,3.9,4.1,3.9c1.6,0,3-0.6,4.2-1.8c0,0.5,0.1,0.9,0.2,1.4H281.4
			L281.4,151.3z M276.7,145.1v1.5c0,1.4-1,2.3-2.5,2.3c-1,0-1.6-0.6-1.6-1.6c0-0.8,0.4-1.2,1.4-1.5
			C275,145.6,275.9,145.6,276.7,145.1L276.7,145.1z M282.9,144.7c0,4.4,2.6,7,6.9,7c4.4,0,7-2.6,7-7c0-4.4-2.6-7-7-7
			C285.5,137.7,282.9,140.3,282.9,144.7L282.9,144.7z M287.3,144.7c0-2.4,0.9-3.7,2.5-3.7c1.6,0,2.6,1.3,2.6,3.7
			c0,2.4-1,3.7-2.6,3.7C288.2,148.5,287.3,147.2,287.3,144.7L287.3,144.7z M305.9,142.4c0,5.8,3.4,9.4,8.9,9.4
			c5.5,0,8.9-3.6,8.9-9.4c0-5.8-3.5-9.4-8.9-9.4C309.3,133.1,305.9,136.7,305.9,142.4L305.9,142.4z M310.5,142.4
			c0-3.7,1.6-5.6,4.3-5.6c2.7,0,4.3,2,4.3,5.6c0,3.7-1.6,5.6-4.3,5.6C312,148,310.5,146.1,310.5,142.4L310.5,142.4z M325.6,147.3
			c0.2,2.8,2.5,4.4,6.5,4.4c4.1,0,6.3-1.8,6.3-4.6c0-1.2-0.4-2.1-1.4-2.8c-0.6-0.4-1.9-0.8-3.8-1.4c-1.8-0.5-2.9-0.6-2.9-1.6
			c0-0.7,0.6-1.1,1.6-1.1c1.1,0,1.7,0.4,1.9,1.3h4.1c-0.2-2.6-2.3-3.9-6.1-3.9c-3.6,0-5.7,1.7-5.7,4.3c0,2.1,1.3,3,4.3,4
			c2.3,0.8,3.8,0.7,3.8,1.8c0,0.8-0.7,1.3-2,1.3c-1.4,0-2.2-0.6-2.3-1.7H325.6L325.6,147.3z M343.1,151.3h4.3l1.9-8.6l1.8,8.6h4.4
			l3.9-13.1H355l-1.9,9l-1.6-9h-4.4l-1.6,9l-1.9-9h-4.4L343.1,151.3L343.1,151.3z M373.2,151.3v-0.5c-0.4-0.2-0.6-0.9-0.6-2.1v-5
			c0-1.8,0-3.1-0.9-4.2c-0.9-1.2-2.5-1.7-4.8-1.7c-3.7,0-5.8,1.4-6.2,4.4h4c0.2-1,0.9-1.5,2.1-1.5c1.1,0,1.7,0.4,1.7,1.2v0.3
			c0,1-1.6,0.8-4.7,1.5c-2.3,0.5-3.5,1.9-3.5,4.1c0,2.3,1.5,3.9,4.1,3.9c1.6,0,3-0.6,4.2-1.8c0,0.5,0.1,0.9,0.2,1.4H373.2
			L373.2,151.3z M368.5,145.1v1.5c0,1.4-1,2.3-2.5,2.3c-1,0-1.6-0.6-1.6-1.6c0-0.8,0.4-1.2,1.4-1.5
			C366.8,145.6,367.7,145.6,368.5,145.1L368.5,145.1z M375.4,151.3h4.3v-17.8h-4.3V151.3L375.4,151.3z M386.4,144.6
			c0-2.2,1-3.5,2.5-3.5c1.6,0,2.5,1.2,2.5,3.5c0,2.4-0.9,3.6-2.5,3.6C387.4,148.2,386.4,147,386.4,144.6L386.4,144.6z M395.7,133.5
			h-4.3v6.3c-0.9-1.3-2.2-2.1-4-2.1c-3.1,0-5.5,2.8-5.5,7c0,4.2,2.3,6.9,5.5,6.9c1.7,0,2.9-0.7,3.9-2.1v1.8h4.3V133.5L395.7,133.5z
			 M398,144.7c0,4.4,2.6,7,6.9,7c4.4,0,7-2.6,7-7c0-4.4-2.6-7-7-7C400.6,137.7,398,140.3,398,144.7L398,144.7z M402.4,144.7
			c0-2.4,0.9-3.7,2.5-3.7c1.6,0,2.6,1.3,2.6,3.7c0,2.4-1,3.7-2.6,3.7C403.3,148.5,402.4,147.2,402.4,144.7L402.4,144.7z
			 M437.4,145.1h-4.2c-0.3,1.9-1.6,2.9-3.6,2.9c-2.5,0-4-1.9-4-5.5c0-3.6,1.7-5.6,4.1-5.6c1.9,0,3.1,0.9,3.5,2.6h4.3
			c-0.4-3.9-3.3-6.3-7.6-6.3c-5.4,0-8.9,3.7-8.9,9.5c0,5.6,3.5,9.2,8.7,9.2C434,151.8,436.8,149.4,437.4,145.1L437.4,145.1z
			 M439.8,151.3h4.3v-4.4c0-1.8,0-3,0.4-3.7c0.5-0.8,1.4-1.2,2.7-1.2c0.3,0,0.7,0,1.1,0.1v-4.2c-2.1,0-3.4,0.8-4.3,2.6v-2.3h-4.1
			V151.3L439.8,151.3z M462.7,138.2h-4.3v7c0,2.1-0.6,3.2-2.1,3.2c-1.5,0-1.8-0.9-1.8-2.8v-7.3h-4.3v9c0,2.9,1.5,4.4,4.4,4.4
			c1.7,0,2.9-0.7,4-2.1v1.8h4.2V138.2L462.7,138.2z M464.7,151.3h12.1v-3.2h-6.7l6.5-6.9v-3.1h-11.5v3.1h6.1l-6.5,6.9V151.3z"/>
	</g>
</g>
</svg>
