<?xml version="1.0" encoding="utf-8"?>
<!-- Generator: Adobe Illustrator 24.1.1, SVG Export Plug-In . SVG Version: 6.00 Build 0)  -->
<svg version="1.1" id="Layer_1" xmlns="http://www.w3.org/2000/svg" xmlns:xlink="http://www.w3.org/1999/xlink" x="0px" y="0px"
	 viewBox="0 0 275 55" style="enable-background:new 0 0 275 55;" xml:space="preserve">
<style type="text/css">
	.st0{fill:#398AB4;}
	.st1{fill:none;}
</style>
<g>
	<path class="st0" d="M209.3,43.4c0-0.7-0.3-0.9-0.6-0.9c-0.5,0-0.7,0.4-0.7,0.8V47h-1.6v-3.6c0-0.7-0.3-0.9-0.6-0.9
		c-0.5,0-0.7,0.5-0.7,1.3V47h-1.6v-4.7c0-0.6,0-0.9,0-1.2h1.5c0,0.3,0,0.6,0,1h0c0.2-0.6,0.6-1.1,1.5-1.1c0.8,0,1.1,0.4,1.4,1
		c0.2-0.6,0.6-1,1.4-1c1.2,0,1.5,1,1.5,2.1V47h-1.6"/>
	<path class="st0" d="M216.5,44.5h-3.1c0,0.7,0.4,1.3,1.3,1.3c0.5,0,1.1-0.2,1.5-0.5l0,1.3c-0.5,0.2-1.1,0.3-1.7,0.3
		c-1.8,0-2.7-1.3-2.7-3.1c0-1.6,0.8-3,2.3-3c0.5,0,2.3,0,2.3,3.1 M215.1,43.5c0-0.7-0.2-1.4-0.8-1.4c-0.8,0-0.8,1.1-0.8,1.4H215.1z"
		/>
	<path class="st0" d="M217.4,42.3c0-0.6,0-0.9,0-1.2h1.5c0,0.4,0,0.7,0,1.1h0c0.3-0.6,0.5-1.2,1.5-1.2h0.2v1.7
		c-0.2,0-0.3-0.1-0.5-0.1c-0.9,0-1,0.9-1,1.8V47h-1.6"/>
	<path class="st0" d="M221.4,38.5h1.6v1.6h-1.6 M221.4,41.1h1.6V47h-1.6V41.1z"/>
	<path class="st0" d="M227.9,46.8c-0.5,0.1-0.9,0.2-1.4,0.2c-2,0-2.5-1.9-2.5-3c0-1.8,0.9-3.1,2.6-3.1c0.5,0,0.8,0.1,1.3,0.3
		l-0.1,1.3c-0.3-0.1-0.6-0.2-0.9-0.2c-1.2,0-1.2,1.5-1.2,1.7c0,1.2,0.7,1.6,1.3,1.6c0.3,0,0.6-0.1,0.9-0.3"/>
	<path class="st0" d="M229,41.4c0.4-0.1,1.1-0.4,1.7-0.4c1.8,0,2.3,0.9,2.3,2.2v2.2c0,0.9,0,1.3,0,1.7h-1.5l0-0.8h0
		c-0.1,0.4-0.7,0.9-1.4,0.9c-1,0-1.6-0.7-1.6-1.8c0-2,2-2,2.6-2h0.5c0-1.1-0.7-1.1-1-1.1c-0.4,0-0.8,0.1-1.5,0.5 M231.5,44.1
		c-0.6,0-1.6,0-1.6,1c0,0.8,0.6,0.8,0.7,0.8c0.1,0,0.9,0,0.9-1.5L231.5,44.1L231.5,44.1z"/>
	<path class="st0" d="M237.2,42.6c-0.4-0.2-0.8-0.3-1.3-0.3c-0.4,0-0.6,0.2-0.6,0.4c0,0.4,0.2,0.5,1.1,0.8c0.5,0.2,1.1,0.6,1.1,1.7
		c0,1.3-0.9,1.8-1.9,1.8c-0.5,0-1.2-0.1-1.7-0.3l0-1.4c0.4,0.3,0.9,0.4,1.3,0.4c0.7,0,0.8-0.3,0.8-0.6c0-0.3-0.4-0.4-1.1-0.7
		c-0.6-0.3-1.1-0.8-1.1-1.8c0-0.6,0.4-1.8,2-1.8c0.7,0,1.2,0.1,1.5,0.2"/>
	<line class="st1" x1="271.2" y1="35.9" x2="186.3" y2="35.9"/>
	<rect x="186.3" y="35.5" class="st0" width="84.9" height="0.7"/>
	<path class="st0" d="M175.1,13.3c0.8,0.9,2.1,1.4,2.9,2.3c-0.6-2.6-2.7-4.8-5.2-5.3C174.1,11.2,174.4,12.4,175.1,13.3 M145.2,19.9
		c1.7-3.6,4.3-2.8,5.4-6.2c-0.6,1-3.4,1.5-4.7,4.2c0.7-1.6,0.3-4,1.4-5.4C144,14.9,145.4,18.7,145.2,19.9 M148.3,28.5
		c0.3,1.4-0.6,3.4,0.8,5.3c-1.5-1.6-4.6-2-5.9-4.4c1.6,6,5.8,4.7,7.7,6C149.4,33.3,150.6,31.9,148.3,28.5 M147.8,32.3
		c-0.9-3.3,0.7-4.5-0.5-7.7c-0.1,1.8-1.4,2.7-0.5,6c-1.5-2.8-3.8-3.8-4.4-5.7C142.4,30.1,146.7,30.8,147.8,32.3 M154.6,37.9
		c-1.3-1.7-0.4-2.7-4-5.8c0.8,1.1,0,2.6,2.4,4.8c-2.4-1.4-5.7-0.8-7.3-2.6C148.4,39.3,153.2,37.2,154.6,37.9 M172,36.8
		c2.4-2.2,1.6-3.6,2.4-4.8c-3.6,3.1-2.7,4.1-4,5.8c1.4-0.6,6.1,1.4,8.9-3.6C177.7,36.1,174.4,35.5,172,36.8 M175.8,33.9
		c1.4-1.9,0.5-3.9,0.8-5.3c-2.3,3.3-1,4.8-2.6,6.9c1.9-1.3,6.1-0.1,7.7-6C180.4,31.9,177.3,32.3,175.8,33.9 M170,38.1
		c-1.4-0.4-2.9-0.5-4-0.6c-1.4,0-2.6,0.2-3.6,0.6c-1-0.4-2.3-0.6-3.6-0.6c-1.1,0-2.5,0.2-3.9,0.6c-2.2,0.6-4.1,1-5.7,0.2
		c1.6,1.3,3.4,1.8,6,1.5c2.2-0.2,4-1.3,6.1-1.3c0,0,0.1,0,0.1,0c-2.2,1.1-4.8,2.6-4.8,2.6l1,0.1c0,0,2.4-2,4.9-2.6
		c2.4,0.5,2.1,2.6,2.1,2.6l1-0.1c0,0,0.1-1.5-2-2.6c0,0,0.1,0,0.1,0c2.1,0,3.9,1,6.1,1.3c2.6,0.3,4.5-0.2,6-1.5
		C174.1,39.1,172.2,38.6,170,38.1 M147.5,21c-0.9,1.7-2.3,2-2.1,5.4c-0.8-3-2.5-4.2-2.5-6.1c-1.2,5.1,2.1,5.7,2.9,7.8
		C145.6,25.1,147.6,24.5,147.5,21 M148.7,17.1c-0.3,0.4-0.5,0.6-1.4,1.3c-1.1,0.9-2,2.1-2.4,3.8c0.1-1.9-1.1-4.5-0.3-6.5
		c-3.1,4.2,0.2,6.7,0.3,8.2C145.7,21,147.5,20.9,148.7,17.1 M180,22.2c-0.4-1.7-1.3-2.9-2.4-3.8c-0.8-0.7-1.1-0.8-1.4-1.3
		c1.2,3.8,3,3.9,3.8,6.8c0.1-1.5,3.4-4,0.3-8.2C181.2,17.6,180,20.3,180,22.2 M182.6,24.8c-0.7,1.9-3,2.9-4.5,5.7
		c0.8-3.3-0.4-4.2-0.5-6c-1.3,3.2,0.4,4.3-0.5,7.7C178.2,30.8,182.6,30.1,182.6,24.8 M177.5,21c-0.2,3.5,1.8,4.1,1.7,7.1
		c0.9-2.1,4.2-2.7,2.9-7.8c0,1.9-1.8,3.1-2.5,6.1C179.8,23,178.4,22.7,177.5,21 M149.9,13.3c0.8-0.9,1-2.1,2.2-3
		c-2.5,0.5-4.6,2.6-5.2,5.3C147.7,14.7,149.1,14.2,149.9,13.3 M174.4,13.7c1.1,3.4,3.6,2.7,5.4,6.2c-0.2-1.2,1.2-5-2.1-7.4
		c1.1,1.3,0.8,3.8,1.5,5.4C177.8,15.2,175,14.8,174.4,13.7 M165.7,15.6c-0.6-0.3-1.3-0.4-2-0.5c0,0.1,0,0.3,0,0.4
		c0.7,0.1,1.3,0.3,1.9,0.5C165.6,15.9,165.7,15.8,165.7,15.6 M165.2,11.4l0.1-0.1l-0.3-0.1l-0.7,0l-0.2,0.1l-0.4,0l0,0.1
		c0.3,0,0.5,0,0.7,0.1l0.3,0L165.2,11.4z M163.9,25.6c0-0.1-0.2-0.2-0.4-0.3h0c0,0.1,0,0.5,0,0.8C163.7,25.9,163.9,25.8,163.9,25.6
		 M156,17.2c0-0.1,0-0.2,0.1-0.2c-0.1,0-0.2,0-0.3,0L156,17.2z M162.5,36.6c7.7,0,13.9-6,13.9-13.4c0-6.9-5.5-12.7-12.5-13.3
		c0,0,0,0.1,0,0.1c0,0.1-0.1,0.2-0.1,0.4c3.1,0.3,6,1.6,8.1,3.7l-1.5,1.5l0.1-0.3l-0.2-0.1l-0.3,0l0.1-0.2l-0.2-0.6l-0.4-0.4
		l-1.2-0.6l-0.1,0.1l-0.2,0.1c0.4,0.6,0.6,1.3,0.6,1.9c0,0.1,0,0.2,0,0.3l0.6,0.7l-0.3,0.1l0.2,0.3l-0.5,0.5l-0.2-0.4
		c-0.1,0.3-0.2,0.5-0.4,0.8c0,0,0.1,0.1,0.1,0.1l-1.6,1.6c-0.1-0.1-0.2-0.2-0.3-0.3c-0.2,0.1-0.3,0.1-0.5,0.2c0,0,0.1,0.1,0.1,0.1
		l-0.1,0.1l-0.2,0.1l-0.1,0.2l-0.1-0.1l-0.3,0.1l0.1,0.1l0.2-0.1l0.2,0l0-0.1l0.1-0.1l0-0.1l0.2-0.1l0.2,0c0,0,0.1,0.1,0.1,0.1
		l-0.6,0.6l0-0.1l-0.7,0.1l-0.1,0.1l-0.1,0l0.4-0.4l-0.1-0.1l-0.4,0.5l0.1,0l0,0.2l0.1,0.1l0,0.2l-0.2,0l-0.2,0l-0.6-0.3
		c0,0,0,1.5,0,2.3c1.4,0.5,2.9,1.1,2.9,2.8c0,0.8-0.3,1.4-1,1.8l0,0c0,0,0,0,0,0l0,0c0,0,0,0,0,0c-0.6,0.4-1.3,0.5-1.9,0.7
		c0,0,0,1.2,0,1.2c1,0.5,2.2,1.2,2.1,3.2c0,0.5-0.2,0.6-0.4,0.7c-0.6,0.1-1.2,0.2-1.8,0.3c0,0.2,0,0.3,0,0.4c2.7-0.2,5.1-1.3,7-3
		l1.6,1.6c-2.4,2.2-5.7,3.6-9.3,3.6c-3.6,0-6.9-1.4-9.3-3.6l1.6-1.6c1.8,1.7,4.2,2.7,6.9,2.9c0-0.1,0-0.3,0-0.4
		c-2.5-0.2-4.8-1.2-6.5-2.8l0.4-0.4l0.6,0.1l0.3-0.3l0.8,0l0.1-0.3l0-0.1c1.2,0.9,2.6,1.5,4.2,1.6c0-0.2,0-0.3,0-0.4
		c-1.7-0.2-3.3-0.9-4.5-2l1.6-1.6c0.4,0.3,0.8,0.6,1.3,0.8c0-0.1,0.1-0.3,0.2-0.4c-0.4-0.2-0.8-0.4-1.2-0.7l1.6-1.6
		c0.3,0.2,0.5,0.4,0.9,0.5c0-0.2,0-0.3,0-0.5c-0.2-0.1-0.4-0.2-0.5-0.3l0.5-0.4c-0.2,0-0.3-0.1-0.5-0.1l-0.3,0.3
		c-0.2-0.2-0.3-0.4-0.4-0.6c-0.3-0.1-0.6-0.3-0.8-0.4c-1-0.6-1.5-1.5-1.5-2.6c0-0.9,0.3-1.5,0.7-2l-1.6-1.6c1.2-1.1,2.7-1.8,4.3-2
		c0-0.2,0-0.3,0-0.4c-1.8,0.2-3.4,1-4.6,2.2l-0.3-0.3c-0.1,0.1-0.1,0.2-0.2,0.4l0.2,0.2c-1.4,1.4-2.3,3.3-2.3,5.4h-2.3
		c0-2.7,1.2-5.2,3-7l0.7,0.7c0,0,0.1,0,0.1,0c0.1,0,0.3,0,0.4-0.1l-0.9-0.9c0.5-0.5,1-0.9,1.6-1.2c0-0.1,0.1-0.3,0.1-0.3
		c0-0.1,0.2-0.2,0.3-0.5c-0.9,0.5-1.7,1-2.4,1.7l-1.6-1.6c2.1-2,4.9-3.3,8-3.6c0-0.1,0-0.1,0-0.1c0-0.1,0-0.2-0.1-0.3
		c-7,0.7-12.5,6.4-12.5,13.3C148.6,30.6,154.8,36.6,162.5,36.6 M165.5,27.3L165.5,27.3L165.5,27.3C165.5,27.3,165.5,27.3,165.5,27.3
		 M172.3,14.2c2.3,2.3,3.7,5.4,3.7,8.8h-2.3c0-1.7-0.5-3.3-1.2-4.7l0,0l0.2,0.1l0-0.1l-0.4-0.7l-0.5-0.6l-0.6-0.5
		c-0.2-0.2-0.4-0.5-0.6-0.7L172.3,14.2z M169.3,17l0.6,0l0.1,0.2l-0.1,0.2l0.8,0.5l0.2,0l1,1.1l0.4-0.1c0.6,1.3,1,2.7,1,4.2H171
		c0-0.6-0.1-1.1-0.2-1.7l0.1-0.1l0.1-0.7l-0.1-0.7l-0.3-0.9L170,18l0.2,0.1l0.1-0.1l-0.5-0.3l0,0.1l0.5,0.7l0.3,0.6l0.2,0.6l0.1,0.4
		l0.1,0.7l-0.2,0c0,0-0.2-0.4-0.3-0.6l0.1-0.1l-0.2-0.3v-0.3l-0.1-0.2l-0.2,0c-0.1-0.1-0.1-0.2-0.2-0.3l0.1,0.1l0,0l-0.1-0.1
		l0.2-0.1l-0.1-0.1l-0.2,0.1l0.1-0.3l-0.1-0.1l-0.1,0.3c-0.3-0.4-0.5-0.7-0.8-1L169.3,17z M168.9,22.2l0.4-0.2l0.4-0.1l0.1-0.2
		l0.2-0.1l0.1-0.2l0.1-0.3c0,0.1,0.1,0.2,0.1,0.3l-0.2,0.6l0,0.2l0.3-0.4c0.1,0.4,0.1,0.8,0.1,1.2h-2l0-0.2l0.2-0.2l0-0.1l0.1-0.1
		l0.3,0l0-0.1L168.9,22.2z M166.1,20.7l0.2,0l0,0l-0.2-0.1l0.1-0.4l0.2-0.2c0.2,0.2,0.3,0.3,0.4,0.5l-0.1,0.3l-0.2-0.2l-0.2,0
		l0.1,0.2h0.1l-0.1,0.2l-0.1-0.1L166.1,20.7z M167,28l-0.5-0.1l-0.1,0.1l-0.3-0.2l-0.3-0.1c0.1-0.1,0.3-0.2,0.4-0.3l0.4,0.3l0.3,0.2
		L167,28L167,28z M166.8,19.5l1.6-1.6c0.4,0.4,0.7,0.8,1,1.3l-0.2,0.1l0,0.3l0.6,0.4c0.2,0.3,0.3,0.6,0.4,1l-0.1,0.1l-0.2,0.1
		l-0.1,0.3l-0.1,0.1l-0.1,0.1l-0.1,0l-0.2,0l0.1-0.2l0.1-0.4l0.1-0.1l-0.4-0.4l-0.3,0.1l-0.1,0.3l-0.2,0.2l-0.2-0.2l-0.1-0.2
		l0.1-0.1l0.1,0.1l0.1,0l0-0.2l-0.1,0l0,0.1l-0.1,0l-0.5-0.6l-0.2-0.1l0.1-0.1l0.2-0.1l-0.1-0.1c0,0-0.2,0-0.2,0l0.1,0.1l-0.3,0
		C167.1,19.9,166.9,19.7,166.8,19.5 M167.6,27.8l-0.2-0.2l0.2-0.2l0.2-0.4l-0.1-0.1l0.1-0.3l0-0.3l-0.1-0.3l-0.2-0.1l-0.1,0.2
		l-0.1,0c0.2-0.3,0.4-0.5,0.5-0.8l0.2-0.1l0.1-0.1l0.1,0.1l0.1-0.2l-0.1-0.1l0.1,0l0.2,0.1l0.4,0l0.2-0.1l0.6-0.1l-0.1-0.2l0-0.2
		l0.3,0.1l0.1-0.1l-0.1-0.2l-0.4,0.1l-0.4-0.1l-0.3-0.6h1.8c-0.1,1.9-0.9,3.7-2.2,5l-0.2-0.2l0.1-0.3l-0.2-0.7L167.6,27.8z
		 M167.9,32.1l0.2-0.4l-0.1-0.2l0.3-0.3V31l-0.3-0.2l0.2-0.4l0.3-0.4l-0.3-0.3h-0.3l-0.2-0.2c0.1-0.1,0.3-0.2,0.4-0.3l1.6,1.6
		C169.3,31.2,168.6,31.7,167.9,32.1 M169.9,30l0.2-0.2l-0.2-0.9l-0.1,0l0.1-0.1l-0.4-0.1l-0.1,0.3l0,0.4l-0.1,0.1l-0.7-0.7
		c1.4-1.4,2.3-3.3,2.3-5.3h2.3c-0.1,2.7-1.2,5.1-3,6.9L169.9,30z M170.6,30.6c1.9-1.9,3.1-4.4,3.2-7.2h2.3c-0.1,3.4-1.5,6.5-3.8,8.7
		L170.6,30.6z M156.8,28.5c-0.2-0.2-0.3-0.3-0.5-0.5l0.1-0.6l-0.2-0.5l-0.1-0.8l-0.3-0.5l0.1-0.3l-0.3-0.6l-0.3-0.1l0.1-0.3
		l-0.1-0.3l0.1-0.3h0.3l0.1-0.2h0.5l0.1,0.1l-0.1,0.5l-0.1,0.1l0.2,0.4l-0.1,0.1l-0.1-0.1l0,0l0.1,0.2l0.2,0.3l0.1,0l0-0.3l-0.1-0.1
		l0-0.2l0-0.4l0.1-0.6l-0.1-0.2h0.4c0.1,1.3,0.7,2.6,1.6,3.5L156.8,28.5z M155.2,24.2l-0.2,0.3h-0.4l0,0c-0.1-0.3-0.1-0.7-0.1-1h0.7
		L155,24L155.2,24.2z M156,22.7l0-0.4l0.3-0.2l0.5,0.1l0.1,0.1c0,0.2-0.1,0.5-0.1,0.8h-0.5L156,22.7z M158.3,24.3l0.1-0.1l0.3,0.2
		l-0.1,0.1l0.3,0.2l0-0.2l0.2-0.3l0.2,0.2l0.2,0.3l-0.3,0.1l0.2,0.3l0.2-0.1l0-0.1l0.2-0.1l0.1-0.5c0.1,0.3,0.3,0.5,0.5,0.8
		l-1.6,1.6c-0.8-0.8-1.3-1.8-1.4-2.9l0.3,0.3l0.3,0L158.3,24.3z M156.7,17.9l1.6,1.6c-0.3,0.4-0.6,0.8-0.9,1.2l-0.1,0l-0.2,0.1
		l-0.1,0l-0.2,0.2l0.3,0l0.3-0.1c0,0,0,0.1,0,0.1l-0.2,0.1h-0.1l-0.4,0.3l-0.3,0l-0.5,0.9l0.1,0.2l-0.3,0.3l0,0.4h-1
		C154.5,21,155.3,19.3,156.7,17.9 M154.6,29.7l0.5,0.3l0.1,0.1l-0.4,0.4c-0.2-0.2-0.3-0.4-0.5-0.5L154.6,29.7z M154.1,23.5
		c0,0.2,0,0.4,0.1,0.6l-0.3,0.1l-0.1,0.3l-0.6,0.7l0,1l-0.6,0.2l-0.3,0c-0.3-0.9-0.5-1.9-0.5-2.9H154.1z M151.8,26.3l-0.1,0
		l-0.1-0.1l-0.6-0.1l0.2,0.3l-0.6-0.1l0.2-0.1l-0.1-0.1l-0.4,0.2l-0.2,0.3L150,27l0.5,1.1l0.2,0.4l0.1,0l-0.4-0.7l-0.1-0.3l0.1-0.1
		l0-0.2l0.2,0l0.3,0.5l0.1,0l0-0.4l0.1,0.1l0,0.2l0.4,0.1l0.2-0.1l0.1,0l0,0.3l0.2,0.2l0.2,0l0.4,0.7l0.3,0.1l0.1-0.3
		c0.4,0.7,1,1.4,1.6,2l-1.6,1.6c-2.3-2.3-3.8-5.4-3.9-8.8h2.3C151.3,24.4,151.5,25.4,151.8,26.3 M152.8,14.2l1.6,1.6
		c-1.9,1.9-3.1,4.5-3.1,7.3H149C149,19.6,150.5,16.5,152.8,14.2 M169.4,13.4l-0.1-0.2l-0.3-0.1l-0.2,0.2l0.3,0.2l0.3,0.2L169.4,13.4
		z M168,19.6l0,0.2l0.4-0.1l0.1-0.2l-0.3-0.3l0.1-0.2l0.4,0.3l0.1-0.1l-0.1-0.1l-0.1-0.2l0.2-0.1l-0.1-0.2l-0.3,0.2l-0.1,0.2
		l-0.1,0.2l0.2,0.2l-0.1,0.1L168,19.6z M151.4,29.5L151.4,29.5l-0.2-0.5l-0.2-0.1L151.4,29.5z M160.8,21.2c0,0.4,0.2,0.6,0.7,0.9
		c0,0,0-0.1,0-0.2l-0.3-0.3l0.1-0.3l0.1,0c0-0.4,0-0.9,0-1l0,0C161,20.6,160.8,20.8,160.8,21.2"/>
	<path class="st0" d="M163.3,30.7c0.7,0.3,1.4,0.8,1.7,1.7c0.1-1.5-0.8-2.2-1.6-2.6C163.4,29.9,163.3,30.7,163.3,30.7"/>
	<path class="st0" d="M168.1,15.3c0-1.4-1-2.9-3.6-3.4c-0.2,0-0.5-0.1-0.8-0.1c0,0.2,0,0.7,0,0.7c0,0.2,0,0.7,0,0.8
		c0.2,0,0.4,0,0.5,0.1c1.5,0.3,2,1.2,2,2c0,1.3-1.2,1.8-2.6,2.2c-0.2,0-0.3,0.1-0.5,0.1c-0.4,0.1-0.9,0.2-1.3,0.3
		c-0.2,0-0.3,0.1-0.5,0.1c-1.6,0.5-2.9,1.2-2.9,3.1c0,1.9,1.6,2.6,3.1,3c0-0.5,0-1.1,0-1.6c-0.7-0.3-1.1-0.7-1.1-1.4
		c0-0.7,0.4-1,1.1-1.3c0.1-0.1,0.3-0.1,0.5-0.2c0.4-0.1,0.8-0.2,1.2-0.3c0.2,0,0.3-0.1,0.5-0.1C165.7,18.7,168.1,18.1,168.1,15.3"/>
	<path class="st0" d="M160.4,28.5c0,0.8,0.6,1.2,1.2,1.5c0-0.1,0-1.3,0-1.3c0-0.2,0.2-0.4,0.4-0.5c0.3-0.1,0.6-0.2,0.9-0.3
		c0.2-0.1,0.3-0.1,0.5-0.2c1.2-0.3,2.5-0.8,2.5-2.1c0-1.4-1.2-1.9-2.4-2.3c0,0.4,0,1.1,0,1.5c0.5,0.2,0.9,0.4,0.9,0.8
		c0,0.5-0.5,0.8-0.9,0.9c-0.2,0.1-0.4,0.1-0.5,0.2c-0.3,0.1-0.6,0.2-0.9,0.3c-0.2,0.1-0.3,0.1-0.5,0.2
		C161,27.4,160.4,27.8,160.4,28.5"/>
	<path class="st0" d="M161.2,12c-0.8,0.2-1.2,0.5-1.4,0.5c-0.5,0.2-1.2,0.2-1.9,0.9c-0.1,0.1-0.4,0.5-0.7,0.8
		c-0.2,0.3-0.2,0.8-0.4,1.1c-0.2,0.4-0.2,0.6-0.2,0.6l0,0c0,0-0.1,0.2-0.3,0.5c-0.2,0.3-0.6,0.4-0.9,0.3c0.3,0.2,0.8-0.1,0.8-0.1
		s-0.1,0.2-0.2,0.6c0.4-0.8,0.7-1.1,0.8-1.2c0.2,0,0.5,0,1.1-0.3c0.7-0.4,1.7-1,2-1.4c0.3-0.4,0.8-0.7,1.2-0.9
		C161.2,13,161.2,12.5,161.2,12 M158.3,14.6l-0.4,0.1l0.4-0.7l0.5,0L158.3,14.6z"/>
	<path class="st0" d="M162.7,28.4c-0.1,0-0.2,0.1-0.4,0.1c-0.1,0-0.3,0.1-0.3,0.1c0,0,0.1,5.8,0.1,6c0,1.2,0.6,1.2,0.6,0
		c0-0.1,0.1-6.3,0.1-6.3S162.8,28.4,162.7,28.4"/>
	<path class="st0" d="M162,26.5c0.2-0.1,0.4-0.1,0.6-0.2c0.1,0,0.3-0.1,0.4-0.1c0-0.4,0.1-5.4,0.1-6.4c-0.5,0.1-0.9,0.2-1.2,0.3
		C161.9,20.9,162,25.9,162,26.5"/>
	<path class="st0" d="M162.5,7c-1.8,0-1,2.5-0.9,3.4c0,0,0.1,5.8,0.2,7.1c0.3-0.1,0.5-0.1,0.8-0.2c0.2,0,0.4-0.1,0.5-0.1
		c0-1.3,0.2-6.7,0.2-6.8C163.4,9.5,164.4,7,162.5,7"/>
	<path class="st0" d="M188.8,10.2c1.7,0,3.3,1.4,3.3,4.7s-1.6,4.7-3.3,4.7c-1.7,0-3.3-1.4-3.3-4.7S187,10.2,188.8,10.2 M188.8,18.3
		c1,0,1.7-0.9,1.7-3.4s-0.8-3.4-1.7-3.4s-1.7,0.9-1.7,3.4S187.8,18.3,188.8,18.3"/>
	<path class="st0" d="M193,13.8c0-0.4,0-0.8,0-1.1h1.3c0,0.4,0,0.8,0,1.2h0c0.2-0.5,0.6-1.3,1.5-1.3c0.1,0,0.2,0,0.2,0v1.5
		c-0.1,0-0.3-0.1-0.4-0.1c-0.6,0-1.3,0.4-1.3,1.7v3.7H193"/>
	<path class="st0" d="M196.9,20.6c0.3,0.2,1,0.6,1.8,0.6c1.4,0,1.6-1.1,1.6-2.1v-0.6h0c-0.2,0.5-0.6,1.1-1.6,1.1
		c-0.8,0-2.1-0.6-2.1-3.4c0-1.9,0.6-3.5,2.2-3.5c0.9,0,1.3,0.6,1.6,1.2h0c0-0.4,0-0.7,0-1.1h1.3c0,0.4,0,0.7,0,1.1v5
		c0,2.1-0.6,3.6-2.8,3.6c-1,0-1.7-0.3-2.1-0.4 M199,18.3c0.9,0,1.3-0.7,1.3-2.3c0-1.4-0.5-2.2-1.2-2.2c-0.8,0-1.1,0.8-1.1,2.2
		C198.1,17.6,198.5,18.3,199,18.3"/>
	<path class="st0" d="M203.1,13.1c0.4-0.2,1-0.5,1.9-0.5c1.9,0,2.3,1,2.3,2.7v3c0,0.5,0,0.9,0.1,1.2h-1.3c-0.1-0.3-0.1-0.6-0.1-0.9
		h0c-0.4,0.6-0.8,1-1.7,1c-0.9,0-1.8-0.7-1.8-2c0-1.8,1.3-2.3,3.2-2.3h0.3v-0.3c0-0.7-0.3-1.3-1.1-1.3c-0.7,0-1.4,0.4-1.7,0.7
		 M206,16.2h-0.1c-1.2,0-2,0.3-2,1.3c0,0.6,0.4,1,0.9,1c0.9,0,1.2-0.7,1.2-1.9V16.2z"/>
	<path class="st0" d="M208.5,13.8c0-0.4,0-0.8,0-1.1h1.4c0,0.3,0,0.7,0,1h0h0c0.2-0.4,0.6-1.1,1.6-1.1c1.4,0,1.8,1.1,1.8,2.5v4.4
		h-1.5v-4.1c0-1-0.2-1.5-0.8-1.5c-0.8,0-1,0.7-1,1.6v4h-1.5"/>
	<path class="st0" d="M214.5,9.8h1.5v1.6h-1.5 M214.5,12.7h1.5v6.8h-1.5V12.7z"/>
	<polyline class="st0" points="217.1,18.1 219.7,14 217.2,14 217.2,12.7 221.1,12.7 221.1,14.1 218.6,18.3 221.2,18.3 221.2,19.5 
		217.1,19.5 	"/>
	<path class="st0" d="M222.4,13.1c0.4-0.2,1-0.5,1.9-0.5c1.9,0,2.3,1,2.3,2.7v3c0,0.5,0,0.9,0.1,1.2h-1.3c-0.1-0.3-0.1-0.6-0.1-0.9
		h0c-0.4,0.6-0.8,1-1.7,1c-0.9,0-1.8-0.7-1.8-2c0-1.8,1.3-2.3,3.2-2.3h0.3v-0.3c0-0.7-0.3-1.3-1.1-1.3c-0.7,0-1.4,0.4-1.7,0.7
		 M225.3,16.2h-0.1c-1.2,0-2,0.3-2,1.3c0,0.6,0.4,1,0.9,1c0.9,0,1.2-0.7,1.2-1.9V16.2z"/>
	<path class="st0" d="M231.6,19.3c-0.3,0.1-0.8,0.3-1.4,0.3h-0.1l-0.2,0.7c0.1,0,0.3-0.1,0.5-0.1c0.6,0,1,0.4,1,1
		c0,0.8-0.7,1.2-1.3,1.2c-0.5,0-1-0.1-1.2-0.3l0.2-0.5c0.2,0.1,0.5,0.2,0.8,0.2c0.4,0,0.6-0.2,0.6-0.5c0-0.3-0.2-0.5-0.5-0.5
		c-0.2,0-0.4,0-0.5,0.1l-0.2-0.2l0.4-1.1c-1.6-0.3-2.3-1.7-2.3-3.4c0-1.9,0.9-3.5,2.9-3.5c0.5,0,1,0.2,1.3,0.3l-0.1,1.3
		c-0.3-0.1-0.6-0.3-1-0.3c-1.1,0-1.6,0.8-1.6,2.3c0,1.3,0.5,2.2,1.7,2.2c0.4,0,0.8-0.2,1-0.3"/>
	<path class="st0" d="M232.9,13.1c0.4-0.2,1-0.5,1.9-0.5c1.9,0,2.3,1,2.3,2.7v3c0,0.5,0,0.9,0.1,1.2h-1.3c-0.1-0.3-0.1-0.6-0.1-0.9
		h0c-0.4,0.6-0.8,1-1.7,1c-0.9,0-1.8-0.7-1.8-2c0-1.8,1.3-2.3,3.2-2.3h0.3v-0.3c0-0.7-0.3-1.3-1.1-1.3c-0.7,0-1.4,0.4-1.7,0.7
		 M233.2,11.8c0-0.5,0.2-1.5,1.1-1.5c0.5,0,1,0.4,1.4,0.4c0.2,0,0.3-0.3,0.3-0.5h0.7c0,0.4-0.2,1.5-1.1,1.5c-0.5,0-0.9-0.4-1.3-0.4
		c-0.3,0-0.4,0.2-0.4,0.5C233.8,11.8,233.2,11.8,233.2,11.8z M235.8,16.2h-0.1c-1.2,0-2,0.3-2,1.3c0,0.6,0.4,1,0.9,1
		c0.9,0,1.2-0.7,1.2-1.9V16.2z"/>
	<path class="st0" d="M240.8,12.6c1.2,0,2.7,0.7,2.7,3.5c0,2.8-1.4,3.5-2.7,3.5c-1.2,0-2.7-0.7-2.7-3.5
		C238.2,13.3,239.6,12.6,240.8,12.6 M240.8,18.5c0.9,0,1.1-1.2,1.1-2.3c0-1.1-0.2-2.3-1.1-2.3c-0.9,0-1.2,1.2-1.2,2.3
		C239.7,17.2,239.9,18.5,240.8,18.5"/>
	<polyline class="st0" points="192.7,24.5 192.6,24.5 190.6,32.2 189.5,32.2 187.6,24.5 187.5,24.5 187.5,32.2 186.2,32.2 186.2,23 
		188.4,23 190.1,29.8 190.1,29.8 191.8,23 194,23 194,32.2 192.7,32.2 	"/>
	<path class="st0" d="M200,31c0,0.4,0,0.8,0,1.1h-1.4c0-0.3,0-0.7,0-1l0,0l0,0c-0.3,0.5-0.7,1.1-1.6,1.1c-1.4,0-1.8-1.1-1.8-2.5
		v-4.4h1.5v4.1c0,1,0.3,1.5,0.9,1.5c0.8,0,1-0.8,1-1.7v-3.9h1.5"/>
	<path class="st0" d="M201.2,26.5c0-0.4,0-0.8,0-1.1h1.4c0,0.3,0,0.7,0,1h0h0c0.2-0.4,0.6-1.1,1.6-1.1c1.4,0,1.8,1.1,1.8,2.5v4.4
		h-1.5v-4.1c0-1-0.2-1.5-0.8-1.5c-0.8,0-1,0.7-1,1.6v4h-1.5"/>
	<path class="st0" d="M212.2,22.3V31c0,0.5,0,0.9,0,1.2h-1.4c0-0.2,0-0.6,0-1.1h0c-0.2,0.6-0.7,1.2-1.6,1.2c-1.5,0-2.1-1.6-2.1-3.5
		c0-2.2,0.8-3.5,2.1-3.5c0.9,0,1.4,0.6,1.6,1.1h0v-4.1 M209.6,31.1c0.9,0,1.2-1,1.2-2.3c0-1.3-0.3-2.3-1.1-2.3
		c-0.8,0-1.1,0.9-1.1,2.2C208.5,30.3,208.7,31.1,209.6,31.1"/>
	<path class="st0" d="M213.3,22.5h1.5v1.6h-1.5 M213.4,25.4h1.5v6.8h-1.5V25.4z"/>
	<path class="st0" d="M216.5,25.8c0.4-0.2,1-0.5,1.9-0.5c1.9,0,2.3,1,2.3,2.7v3c0,0.5,0,0.9,0.1,1.2h-1.3c-0.1-0.3-0.1-0.6-0.1-0.9
		h0c-0.4,0.6-0.8,1-1.7,1c-0.9,0-1.8-0.7-1.8-2c0-1.8,1.3-2.3,3.2-2.3h0.3v-0.3c0-0.7-0.3-1.3-1.1-1.3c-0.7,0-1.4,0.4-1.7,0.7
		 M219.3,28.8h-0.1c-1.2,0-2,0.3-2,1.3c0,0.6,0.4,1,0.9,1c0.9,0,1.2-0.7,1.2-1.9V28.8z"/>
	<rect x="222.1" y="22.3" class="st0" width="1.5" height="9.9"/>
	<path class="st0" d="M233.1,22.3V31c0,0.5,0,0.9,0,1.2h-1.4c0-0.2,0-0.6,0-1.1h0c-0.2,0.6-0.7,1.2-1.6,1.2c-1.5,0-2.1-1.6-2.1-3.5
		c0-2.2,0.8-3.5,2.1-3.5c0.9,0,1.4,0.6,1.6,1.1h0v-4.1 M230.5,31.1c0.9,0,1.1-1,1.1-2.3c0-1.3-0.3-2.3-1.1-2.3
		c-0.8,0-1.1,0.9-1.1,2.2C229.4,30.3,229.6,31.1,230.5,31.1"/>
	<path class="st0" d="M234.6,25.8c0.4-0.2,1-0.5,1.9-0.5c1.9,0,2.3,1,2.3,2.7v3c0,0.5,0,0.9,0.1,1.2h-1.3c-0.1-0.3-0.1-0.6-0.1-0.9
		h0c-0.4,0.6-0.8,1-1.7,1c-0.9,0-1.8-0.7-1.8-2c0-1.8,1.3-2.3,3.2-2.3h0.3v-0.3c0-0.7-0.3-1.3-1.1-1.3c-0.7,0-1.4,0.4-1.7,0.7
		 M237.5,28.8h-0.1c-1.2,0-2,0.3-2,1.3c0,0.6,0.4,1,0.9,1c0.9,0,1.2-0.7,1.2-1.9V28.8z"/>
	<path class="st0" d="M243.1,30.4c0.3,0.2,0.9,0.6,1.7,0.6c0.7,0,1.2-0.4,1.2-1.3c0-0.7-0.3-0.9-1.1-1.4l-0.8-0.5
		c-0.8-0.5-1.3-1.2-1.3-2.4c0-1.6,1.2-2.5,2.6-2.5c0.9,0,1.5,0.3,1.7,0.3l-0.1,1.4c-0.4-0.2-0.8-0.4-1.5-0.4c-0.8,0-1.1,0.4-1.1,1.1
		c0,0.7,0.4,0.9,0.9,1.2l0.9,0.6c1,0.6,1.4,1.2,1.4,2.5c0,1.9-1.2,2.8-2.7,2.8c-0.8,0-1.5-0.1-1.9-0.4"/>
	<path class="st0" d="M249,25.8c0.4-0.2,1-0.5,1.9-0.5c1.9,0,2.3,1,2.3,2.7v3c0,0.5,0,0.9,0.1,1.2H252c-0.1-0.3-0.1-0.6-0.1-0.9h0
		c-0.4,0.6-0.8,1-1.7,1c-0.9,0-1.8-0.7-1.8-2c0-1.8,1.3-2.3,3.2-2.3h0.3v-0.3c0-0.7-0.3-1.3-1.1-1.3c-0.7,0-1.4,0.4-1.7,0.7
		 M251.9,28.8h-0.1c-1.2,0-2,0.3-2,1.3c0,0.6,0.4,1,0.9,1c0.9,0,1.2-0.7,1.2-1.9V28.8z"/>
	<path class="st0" d="M259,31c0,0.4,0,0.8,0,1.1h-1.4c0-0.3,0-0.7,0-1l0,0l0,0c-0.3,0.5-0.7,1.1-1.6,1.1c-1.4,0-1.8-1.1-1.8-2.5
		v-4.4h1.5v4.1c0,1,0.3,1.5,0.9,1.5c0.8,0,1-0.8,1-1.7v-3.9h1.5 M256.7,22.7h1.4l-1.2,1.9H256L256.7,22.7z"/>
	<path class="st0" d="M265.3,22.3V31c0,0.5,0,0.9,0,1.2h-1.4c0-0.2,0-0.6,0-1.1h0c-0.2,0.6-0.7,1.2-1.6,1.2c-1.5,0-2.1-1.6-2.1-3.5
		c0-2.2,0.8-3.5,2.1-3.5c0.9,0,1.4,0.6,1.6,1.1h0v-4.1 M262.6,31.1c0.9,0,1.2-1,1.2-2.3c0-1.3-0.3-2.3-1.1-2.3
		c-0.8,0-1.1,0.9-1.1,2.2C261.6,30.3,261.8,31.1,262.6,31.1"/>
	<path class="st0" d="M270.9,31.8c-0.3,0.1-0.9,0.4-1.8,0.4c-2,0-2.8-1.6-2.8-3.4c0-2,1-3.6,2.5-3.6c1.3,0,2.4,0.9,2.4,3.6v0.3h-3.5
		c0,1.2,0.4,1.9,1.5,1.9c0.9,0,1.3-0.3,1.6-0.5 M269.8,28.2c0-1.2-0.4-1.8-1-1.8c-0.8,0-1.1,0.9-1.1,1.8H269.8z"/>
	<polygon class="st0" points="142.1,43.4 143.6,43.4 143.6,43.9 142.6,43.9 142.6,44.9 143.5,44.9 143.5,45.4 142.6,45.4 
		142.6,46.4 143.6,46.4 143.6,46.9 142.1,46.9 	"/>
	<path class="st0" d="M144,46.2c0.1,0.1,0.3,0.2,0.6,0.2c0.2,0,0.4-0.2,0.4-0.5c0-0.3-0.1-0.4-0.4-0.5l-0.3-0.2
		c-0.3-0.2-0.5-0.5-0.5-0.9c0-0.6,0.4-0.9,0.9-0.9c0.3,0,0.5,0.1,0.6,0.1l0,0.5c-0.1-0.1-0.3-0.1-0.5-0.1c-0.3,0-0.4,0.2-0.4,0.4
		c0,0.3,0.1,0.4,0.3,0.5l0.3,0.2c0.3,0.2,0.5,0.5,0.5,0.9c0,0.7-0.4,1.1-1,1.1c-0.3,0-0.5-0.1-0.7-0.2L144,46.2z"/>
	<path class="st0" d="M147.9,46.8c-0.1,0.1-0.4,0.1-0.6,0.1c-0.9,0-1.3-0.8-1.3-1.8c0-1,0.5-1.8,1.3-1.8c0.3,0,0.5,0.1,0.6,0.1
		l0,0.6c-0.1-0.1-0.3-0.2-0.5-0.2c-0.4,0-0.8,0.4-0.8,1.3c0,0.9,0.4,1.3,0.8,1.3c0.3,0,0.4-0.1,0.5-0.2L147.9,46.8z"/>
	<path class="st0" d="M148.2,43.4h0.9c0.5,0,0.9,0.3,0.9,0.9c0,0.5-0.2,0.8-0.6,0.8v0c0.1,0,0.2,0.1,0.3,0.4l0.4,1.3h-0.6l-0.3-1.1
		c-0.1-0.3-0.2-0.4-0.4-0.4h-0.1v1.5h-0.5V43.4z M148.9,44.9c0.3,0,0.5-0.2,0.5-0.5c0-0.4-0.2-0.5-0.5-0.5h-0.2v1H148.9z"/>
	<rect x="150.4" y="43.4" class="st0" width="0.5" height="3.5"/>
	<polygon class="st0" points="151.9,43.9 151.3,43.9 151.3,43.4 153.1,43.4 153.1,43.9 152.5,43.9 152.5,46.9 151.9,46.9 	"/>
	<path class="st0" d="M154.3,43.4c0.6,0,1.2,0.5,1.2,1.8s-0.6,1.8-1.2,1.8s-1.2-0.5-1.2-1.8C153.1,43.9,153.6,43.4,154.3,43.4
		 M154.3,46.5c0.3,0,0.6-0.3,0.6-1.3s-0.3-1.3-0.6-1.3c-0.3,0-0.6,0.3-0.6,1.3C153.6,46.1,153.9,46.5,154.3,46.5"/>
	<path class="st0" d="M155.8,43.4h0.9c0.5,0,0.9,0.3,0.9,0.9c0,0.5-0.2,0.8-0.6,0.8v0c0.1,0,0.2,0.1,0.3,0.4l0.4,1.3h-0.6l-0.3-1.1
		c-0.1-0.3-0.2-0.4-0.4-0.4h-0.1v1.5h-0.5V43.4z M156.5,44.9c0.3,0,0.5-0.2,0.5-0.5c0-0.4-0.2-0.5-0.5-0.5h-0.2v1H156.5z"/>
	<rect x="158" y="43.4" class="st0" width="0.5" height="3.5"/>
	<path class="st0" d="M160.1,43.4c0.6,0,1.2,0.5,1.2,1.8s-0.6,1.8-1.2,1.8s-1.2-0.5-1.2-1.8S159.5,43.4,160.1,43.4 M160.1,46.5
		c0.3,0,0.6-0.3,0.6-1.3s-0.3-1.3-0.6-1.3c-0.3,0-0.6,0.3-0.6,1.3C159.5,46.1,159.8,46.5,160.1,46.5"/>
	<path class="st0" d="M162.6,43.4h0.9c0.5,0,0.9,0.3,0.9,0.9c0,0.5-0.2,0.8-0.6,0.8v0c0.1,0,0.2,0.1,0.3,0.4l0.4,1.3H164l-0.3-1.1
		c-0.1-0.3-0.2-0.4-0.4-0.4h-0.1v1.5h-0.5V43.4z M163.4,44.9c0.3,0,0.5-0.2,0.5-0.5c0-0.4-0.2-0.5-0.5-0.5h-0.2v1H163.4z"/>
	<polygon class="st0" points="164.8,43.4 166.4,43.4 166.4,43.9 165.4,43.9 165.4,44.9 166.3,44.9 166.3,45.4 165.4,45.4 
		165.4,46.4 166.4,46.4 166.4,46.9 164.8,46.9 	"/>
	<path class="st0" d="M168,45h0.9v1.8c-0.1,0.1-0.4,0.2-0.8,0.2c-0.9,0-1.4-0.8-1.4-1.8s0.5-1.8,1.4-1.8c0.3,0,0.6,0.1,0.7,0.1
		l0,0.6c-0.2-0.1-0.4-0.2-0.7-0.2c-0.6,0-0.9,0.6-0.9,1.3c0,0.8,0.3,1.3,0.8,1.3c0.1,0,0.2,0,0.3-0.1v-0.9H168V45z"/>
	<rect x="169.4" y="43.4" class="st0" width="0.5" height="3.5"/>
	<path class="st0" d="M171.5,43.4c0.6,0,1.2,0.5,1.2,1.8s-0.6,1.8-1.2,1.8s-1.2-0.5-1.2-1.8C170.4,43.9,170.9,43.4,171.5,43.4
		 M171.5,46.5c0.3,0,0.6-0.3,0.6-1.3s-0.3-1.3-0.6-1.3c-0.3,0-0.6,0.3-0.6,1.3S171.2,46.5,171.5,46.5"/>
	<polygon class="st0" points="173.1,43.4 173.7,43.4 174.7,46.2 174.7,46.2 174.7,43.4 175.1,43.4 175.1,46.9 174.5,46.9 
		173.5,44.2 173.5,44.2 173.5,46.9 173.1,46.9 	"/>
	<path class="st0" d="M177.1,46.1h-1l-0.2,0.8h-0.5l1-3.5h0.6l0.9,3.5h-0.5L177.1,46.1z M177,45.6l-0.4-1.6h0l-0.4,1.6H177z"/>
	<polygon class="st0" points="178.1,43.4 178.6,43.4 178.6,46.4 179.6,46.4 179.6,46.9 178.1,46.9 	"/>
	<path class="st0" d="M180.8,43.4h0.8c0.6,0,0.9,0.4,0.9,1.1c0,0.7-0.3,1.1-0.9,1.1h-0.3v1.4h-0.5V43.4z M181.5,45.1
		c0.3,0,0.5-0.2,0.5-0.6c0-0.4-0.1-0.6-0.5-0.6h-0.2v1.1C181.3,45.1,181.5,45.1,181.5,45.1z"/>
	<path class="st0" d="M184,46.1h-1l-0.2,0.8h-0.5l1-3.5h0.6l0.9,3.5h-0.5L184,46.1z M183.9,45.6l-0.4-1.6h0l-0.4,1.6H183.9z"/>
	<path class="st0" d="M185,43.4h0.9c0.5,0,0.9,0.3,0.9,0.9c0,0.5-0.2,0.8-0.6,0.8v0c0.1,0,0.2,0.1,0.3,0.4l0.4,1.3h-0.6l-0.3-1.1
		c-0.1-0.3-0.2-0.4-0.4-0.4h-0.1v1.5H185L185,43.4L185,43.4z M185.7,44.9c0.3,0,0.5-0.2,0.5-0.5c0-0.4-0.2-0.5-0.5-0.5h-0.2v1H185.7
		z"/>
	<path class="st0" d="M188.7,46.1h-1l-0.2,0.8h-0.5l1-3.5h0.6l0.9,3.5h-0.5L188.7,46.1z M188.6,45.6l-0.4-1.6h0l-0.4,1.6H188.6z"/>
	<path class="st0" d="M191.9,46.1h-1l-0.2,0.8h-0.5l1-3.5h0.6l0.9,3.5h-0.5L191.9,46.1z M191.8,45.6l-0.4-1.6h0l-0.4,1.6H191.8z"/>
	<path class="st0" d="M192.8,46.2c0.1,0.1,0.3,0.2,0.6,0.2c0.2,0,0.4-0.2,0.4-0.5c0-0.3-0.1-0.4-0.4-0.5l-0.3-0.2
		c-0.3-0.2-0.5-0.5-0.5-0.9c0-0.6,0.4-0.9,0.9-0.9c0.3,0,0.5,0.1,0.6,0.1l0,0.5c-0.1-0.1-0.3-0.1-0.5-0.1c-0.3,0-0.4,0.2-0.4,0.4
		c0,0.3,0.1,0.4,0.3,0.5l0.3,0.2c0.3,0.2,0.5,0.5,0.5,0.9c0,0.7-0.4,1.1-1,1.1c-0.3,0-0.5-0.1-0.7-0.2L192.8,46.2z"/>
	<polyline class="st0" points="213.2,40.5 214.1,38.4 215.5,38.4 214.1,40.5 	"/>
	<polyline class="st0" points="154,43.1 154.5,42.1 155.1,42.1 154.5,43.1 	"/>
	<path class="st0" d="M54.2,8.8c2.1,0,3.9,1.6,3.9,5.4c0,3.8-1.9,5.4-3.9,5.4s-3.9-1.6-3.9-5.4C50.2,10.4,52.1,8.8,54.2,8.8
		 M54.2,18.2c1.1,0,2.1-1,2.1-3.9c0-2.9-0.9-3.9-2.1-3.9s-2.1,1-2.1,3.9C52.1,17.1,53,18.2,54.2,18.2"/>
	<path class="st0" d="M59.4,13c0-0.5,0-0.9-0.1-1.3h1.6c0,0.5,0.1,1,0.1,1.4h0c0.2-0.6,0.8-1.5,1.9-1.5c0.1,0,0.2,0,0.3,0v1.8
		c-0.2,0-0.3-0.1-0.5-0.1c-0.7,0-1.5,0.5-1.5,1.9v4.3h-1.8"/>
	<path class="st0" d="M64.2,20.7c0.4,0.2,1.2,0.7,2.1,0.7c1.7,0,1.9-1.2,1.9-2.4v-0.7h0c-0.3,0.6-0.8,1.3-1.9,1.3
		c-1,0-2.5-0.7-2.5-3.9c0-2.1,0.7-4,2.6-4c1.1,0,1.6,0.6,1.9,1.3h0.1c0-0.4,0-0.8,0.1-1.2H70c0,0.4-0.1,0.8-0.1,1.2v5.7
		c0,2.4-0.7,4.2-3.4,4.2c-1.2,0-2.1-0.3-2.5-0.5 M66.7,18.1c1.1,0,1.5-0.8,1.5-2.6c0-1.6-0.6-2.5-1.4-2.5c-0.9,0-1.3,0.9-1.3,2.5
		C65.6,17.3,66.1,18.1,66.7,18.1"/>
	<path class="st0" d="M71.7,12.2c0.5-0.2,1.2-0.6,2.3-0.6c2.3,0,2.8,1.2,2.8,3.1v3.4c0,0.6,0.1,1.1,0.1,1.4h-1.6
		c-0.1-0.3-0.1-0.7-0.1-1.1h0c-0.4,0.6-1,1.2-2,1.2c-1.1,0-2.2-0.8-2.2-2.3c0-2.1,1.6-2.6,3.8-2.6h0.4v-0.3c0-0.8-0.4-1.5-1.4-1.5
		c-0.9,0-1.7,0.5-2,0.8 M75.1,15.7H75c-1.5,0-2.4,0.3-2.4,1.5c0,0.7,0.4,1.2,1.1,1.2c1,0,1.4-0.8,1.4-2.2L75.1,15.7L75.1,15.7z"/>
	<path class="st0" d="M78.2,13c0-0.5,0-0.9-0.1-1.3h1.6c0,0.4,0.1,0.8,0.1,1.2h0h0c0.3-0.5,0.8-1.3,1.9-1.3c1.7,0,2.2,1.3,2.2,2.9v5
		h-1.8v-4.7c0-1.2-0.3-1.7-1-1.7C80.3,13.1,80,14,80,15v4.5h-1.8"/>
	<path class="st0" d="M85.5,8.4h1.8v1.8h-1.8 M85.5,11.7h1.8v7.8h-1.8V11.7z"/>
	<polyline class="st0" points="88.4,17.9 91.5,13.1 88.5,13.1 88.5,11.7 93.3,11.7 93.3,13.3 90.2,18.1 93.4,18.1 93.4,19.5 
		88.4,19.5 	"/>
	<path class="st0" d="M94.7,12.2c0.5-0.2,1.2-0.6,2.3-0.6c2.3,0,2.8,1.2,2.8,3.1v3.4c0,0.6,0.1,1.1,0.1,1.4h-1.6
		c-0.1-0.3-0.1-0.7-0.1-1.1h0c-0.4,0.6-1,1.2-2,1.2c-1.1,0-2.2-0.8-2.2-2.3c0-2.1,1.6-2.6,3.8-2.6h0.4v-0.3c0-0.8-0.4-1.5-1.4-1.5
		c-0.9,0-1.7,0.5-2,0.8 M98.1,15.7H98c-1.5,0-2.4,0.3-2.4,1.5c0,0.7,0.4,1.2,1.1,1.2c1,0,1.4-0.8,1.4-2.2L98.1,15.7L98.1,15.7z"/>
	<path class="st0" d="M106.1,19.3c-0.4,0.2-1,0.3-1.7,0.3h-0.1l-0.3,0.8c0.1,0,0.3-0.1,0.6-0.1c0.8,0,1.2,0.5,1.2,1.1
		c0,1-0.9,1.4-1.6,1.4c-0.6,0-1.2-0.2-1.5-0.3l0.2-0.6c0.3,0.1,0.6,0.2,1,0.2c0.5,0,0.7-0.3,0.7-0.6c0-0.3-0.3-0.6-0.6-0.6
		c-0.3,0-0.4,0-0.6,0.1l-0.3-0.3l0.4-1.3c-1.9-0.3-2.7-2-2.7-3.9c0-2.2,1.1-4,3.5-4c0.6,0,1.2,0.2,1.5,0.3l-0.1,1.5
		c-0.3-0.2-0.8-0.4-1.2-0.4c-1.3,0-1.9,0.9-1.9,2.6c0,1.4,0.6,2.6,2,2.6c0.4,0,1-0.2,1.2-0.4"/>
	<path class="st0" d="M107.4,12.2c0.5-0.2,1.2-0.6,2.3-0.6c2.3,0,2.8,1.2,2.8,3.1v3.4c0,0.6,0.1,1.1,0.1,1.4H111
		c-0.1-0.3-0.1-0.7-0.1-1.1h0c-0.4,0.6-1,1.2-2,1.2c-1.1,0-2.2-0.8-2.2-2.3c0-2.1,1.6-2.6,3.8-2.6h0.4v-0.3c0-0.8-0.4-1.5-1.4-1.5
		c-0.9,0-1.7,0.5-2,0.8 M107.6,10.7c0-0.5,0.3-1.7,1.3-1.8c0.7,0,1.2,0.5,1.6,0.5c0.3,0,0.4-0.3,0.4-0.6h0.9c0,0.4-0.3,1.8-1.3,1.8
		c-0.5,0-1.1-0.5-1.6-0.5c-0.4,0-0.5,0.3-0.5,0.6H107.6z M110.8,15.7h-0.2c-1.5,0-2.4,0.3-2.4,1.5c0,0.7,0.4,1.2,1.1,1.2
		c1,0,1.4-0.8,1.4-2.2L110.8,15.7L110.8,15.7z"/>
	<path class="st0" d="M116.9,11.6c1.5,0,3.2,0.8,3.2,4c0,3.3-1.7,4-3.2,4c-1.5,0-3.2-0.8-3.2-4C113.7,12.4,115.4,11.6,116.9,11.6
		 M116.9,18.3c1.1,0,1.4-1.4,1.4-2.7c0-1.3-0.3-2.7-1.4-2.7c-1.1,0-1.4,1.4-1.4,2.7C115.5,16.9,115.7,18.3,116.9,18.3"/>
	<path class="st0" d="M50.6,22.2h2.8c2,0,3.1,1.2,3.1,3.2c0,2-1.1,3.2-3.1,3.2h-1v4.1h-1.8 M53,27.1c1.1,0,1.6-0.6,1.6-1.7
		c0-1.1-0.5-1.7-1.6-1.7h-0.7v3.5C52.4,27.1,53,27.1,53,27.1z"/>
	<path class="st0" d="M57.1,25.4c0.5-0.2,1.2-0.6,2.3-0.6c2.3,0,2.8,1.2,2.8,3.1v3.4c0,0.6,0.1,1.1,0.1,1.4h-1.6
		c-0.1-0.3-0.1-0.7-0.1-1.1h0c-0.4,0.6-1,1.2-2,1.2c-1.1,0-2.2-0.8-2.2-2.3c0-2.1,1.6-2.6,3.8-2.6h0.4v-0.3c0-0.8-0.4-1.5-1.4-1.5
		c-0.9,0-1.7,0.5-2,0.8 M60.5,28.9h-0.2c-1.5,0-2.4,0.3-2.4,1.5c0,0.7,0.4,1.2,1.1,1.2c1,0,1.4-0.8,1.4-2.2V28.9z"/>
	<path class="st0" d="M63.6,26.2c0-0.5,0-0.9-0.1-1.3h1.6c0,0.4,0.1,0.8,0.1,1.2h0h0c0.3-0.5,0.8-1.3,1.9-1.3c1.7,0,2.2,1.3,2.2,2.9
		v5h-1.8V28c0-1.2-0.3-1.7-1-1.7c-0.9,0-1.2,0.8-1.2,1.8v4.5h-1.8"/>
	<rect x="70.5" y="27.7" class="st0" width="3.3" height="1.5"/>
	<path class="st0" d="M80.2,30.2h-3.4l-0.7,2.5h-1.8l3.3-10.5h2l3.2,10.5h-1.9 M79.8,28.7l-1.2-4.9h0l-1.4,4.9H79.8z"/>
	<path class="st0" d="M83.3,26.2c0-0.6,0-1-0.1-1.3H85c0,0.4,0.1,0.8,0.1,1.2h0c0.3-0.6,0.8-1.3,1.8-1.3c1.2,0,1.6,0.8,1.8,1.2
		c0.4-0.5,0.9-1.2,2-1.2c1.6,0,2.1,1.2,2.1,3.1v4.8h-1.8v-4.9c0-1-0.3-1.4-0.9-1.4c-0.8,0-1.2,0.8-1.2,1.6v4.7h-1.8v-4.9
		c0-1-0.3-1.4-0.9-1.4c-0.8,0-1.2,0.8-1.2,1.6v4.7h-1.8"/>
	<path class="st0" d="M99.5,32.3c-0.4,0.2-1.1,0.5-2.2,0.5C95,32.8,94,31,94,28.9c0-2.3,1.1-4.1,3-4.1c1.6,0,2.9,1,2.9,4.1v0.4h-4.2
		c0,1.3,0.5,2.1,1.9,2.1c1.1,0,1.6-0.3,1.9-0.6 M98.2,28.2c0-1.4-0.4-2.1-1.2-2.1c-0.9,0-1.3,1-1.3,2.1H98.2z"/>
	<path class="st0" d="M101.1,26.2c0-0.5,0-0.9-0.1-1.3h1.6c0,0.5,0.1,0.9,0.1,1.4h0c0.2-0.6,0.8-1.5,1.9-1.5c0.1,0,0.2,0,0.3,0v1.7
		c-0.2,0-0.3-0.1-0.5-0.1c-0.7,0-1.5,0.5-1.5,1.9v4.3h-1.8"/>
	<path class="st0" d="M105.9,21.6h1.8v1.8h-1.8 M106,24.9h1.8v7.8H106V24.9z"/>
	<path class="st0" d="M114.2,32.5c-0.4,0.2-1,0.3-1.7,0.3c-2.4,0-3.4-1.8-3.4-4c0-2.2,1.1-4,3.5-4c0.5,0,1.2,0.2,1.5,0.3l-0.1,1.5
		c-0.3-0.2-0.8-0.4-1.2-0.4c-1.3,0-1.9,1-1.9,2.6c0,1.4,0.6,2.6,2,2.6c0.4,0,1-0.2,1.2-0.4"/>
	<path class="st0" d="M115.4,25.4c0.5-0.2,1.2-0.6,2.3-0.6c2.3,0,2.8,1.2,2.8,3.1v3.4c0,0.6,0.1,1.1,0.1,1.4H119
		c-0.1-0.3-0.1-0.7-0.1-1.1h0c-0.4,0.6-1,1.2-2,1.2c-1.1,0-2.2-0.8-2.2-2.3c0-2.1,1.6-2.6,3.8-2.6h0.4v-0.3c0-0.8-0.4-1.5-1.4-1.5
		c-0.9,0-1.7,0.5-2,0.8 M118.9,28.9h-0.2c-1.5,0-2.4,0.3-2.4,1.5c0,0.7,0.4,1.2,1.1,1.2c1,0,1.4-0.8,1.4-2.2L118.9,28.9L118.9,28.9z
		"/>
	<path class="st0" d="M121.9,26.2c0-0.5,0-0.9-0.1-1.3h1.6c0,0.4,0.1,0.8,0.1,1.2h0h0c0.3-0.5,0.7-1.3,1.9-1.3
		c1.7,0,2.2,1.3,2.2,2.9v5h-1.8V28c0-1.2-0.3-1.7-1-1.7c-0.9,0-1.2,0.8-1.2,1.8v4.5h-1.8"/>
	<path class="st0" d="M129.4,25.4c0.5-0.2,1.2-0.6,2.3-0.6c2.3,0,2.8,1.2,2.8,3.1v3.4c0,0.6,0.1,1.1,0.1,1.4H133
		c-0.1-0.3-0.1-0.7-0.1-1.1h0c-0.4,0.6-1,1.2-2,1.2c-1.1,0-2.2-0.8-2.2-2.3c0-2.1,1.6-2.6,3.8-2.6h0.4v-0.3c0-0.8-0.4-1.5-1.4-1.5
		c-0.9,0-1.7,0.5-2,0.8 M132.9,28.9h-0.2c-1.5,0-2.4,0.3-2.4,1.5c0,0.7,0.4,1.2,1.1,1.2c1,0,1.4-0.8,1.4-2.2L132.9,28.9L132.9,28.9z
		"/>
	<path class="st0" d="M56.4,34.6v10c0,0.6,0,1,0.1,1.3h-1.6c0-0.2-0.1-0.7-0.1-1.2h0c-0.3,0.7-0.8,1.3-1.9,1.3c-1.8,0-2.6-1.8-2.6-4
		c0-2.5,0.9-4,2.5-4c1,0,1.6,0.6,1.9,1.2h0v-4.7 M53.2,44.7c1,0,1.4-1.2,1.4-2.7c0-1.5-0.4-2.6-1.4-2.6c-1,0-1.3,1-1.3,2.6
		C51.9,43.8,52.2,44.7,53.2,44.7"/>
	<path class="st0" d="M58.1,38.6c0.5-0.2,1.2-0.6,2.3-0.6c2.3,0,2.8,1.2,2.8,3.1v3.4c0,0.6,0.1,1.1,0.1,1.4h-1.6
		c-0.1-0.3-0.1-0.7-0.1-1.1h0c-0.4,0.6-1,1.2-2,1.2c-1.1,0-2.2-0.8-2.2-2.3c0-2.1,1.6-2.6,3.8-2.6h0.4v-0.3c0-0.8-0.4-1.5-1.4-1.5
		c-0.9,0-1.7,0.5-2,0.8 M61.6,42.1h-0.2c-1.5,0-2.4,0.3-2.4,1.5c0,0.7,0.4,1.2,1.1,1.2c1,0,1.4-0.8,1.4-2.2V42.1z"/>
	<path class="st0" d="M68.2,43.9c0.4,0.2,1.1,0.7,2.1,0.7c0.8,0,1.5-0.5,1.5-1.5c0-0.8-0.4-1.1-1.3-1.6l-0.9-0.5
		c-1-0.6-1.6-1.4-1.6-2.8c0-1.9,1.5-2.9,3.1-2.9c1,0,1.8,0.3,2.1,0.4l-0.1,1.6c-0.4-0.2-1-0.5-1.9-0.5c-0.9,0-1.4,0.5-1.4,1.2
		c0,0.8,0.5,1.1,1,1.4l1.1,0.6c1.2,0.7,1.7,1.4,1.7,2.8c0,2.1-1.4,3.2-3.3,3.2c-1,0-1.8-0.2-2.2-0.5"/>
	<path class="st0" d="M75.3,38.6c0.5-0.2,1.2-0.6,2.3-0.6c2.3,0,2.8,1.2,2.8,3.1v3.4c0,0.6,0.1,1.1,0.1,1.4h-1.6
		c-0.1-0.3-0.1-0.7-0.1-1.1h0c-0.4,0.6-1,1.2-2,1.2c-1.1,0-2.2-0.8-2.2-2.3c0-2.1,1.6-2.6,3.8-2.6h0.4v-0.3c0-0.8-0.4-1.5-1.4-1.5
		c-0.9,0-1.7,0.5-2,0.8 M78.7,42.1h-0.2c-1.5,0-2.4,0.3-2.4,1.5c0,0.7,0.4,1.2,1.1,1.2c1,0,1.4-0.8,1.4-2.2V42.1z"/>
	<path class="st0" d="M87.6,44.7c0,0.5,0,0.9,0.1,1.3H86c0-0.4-0.1-0.8-0.1-1.2l0,0l0,0c-0.3,0.6-0.8,1.3-1.9,1.3
		c-1.7,0-2.1-1.3-2.1-2.9v-5h1.8v4.7c0,1.2,0.3,1.7,1,1.7c0.9,0,1.2-0.9,1.2-1.9v-4.4h1.8 M84.8,35.1h1.6L85,37.3h-1.1L84.8,35.1z"
		/>
	<path class="st0" d="M94.9,34.6v10c0,0.6,0,1,0.1,1.3h-1.6c0-0.2-0.1-0.7-0.1-1.2h0c-0.3,0.7-0.8,1.3-1.9,1.3c-1.8,0-2.6-1.8-2.6-4
		c0-2.5,0.9-4,2.5-4c1,0,1.6,0.6,1.9,1.2h0v-4.7 M91.8,44.7c1,0,1.4-1.2,1.4-2.7c0-1.5-0.4-2.6-1.4-2.6c-1,0-1.3,1-1.3,2.6
		C90.5,43.8,90.8,44.7,91.8,44.7"/>
	<path class="st0" d="M101.7,45.6c-0.4,0.2-1.1,0.5-2.2,0.5c-2.3,0-3.4-1.8-3.4-3.9c0-2.3,1.1-4.1,3-4.1c1.6,0,2.9,1,2.9,4.1v0.4
		h-4.2c0,1.3,0.5,2.1,1.9,2.1c1.1,0,1.6-0.3,1.9-0.6 M100.3,41.4c0-1.4-0.4-2.1-1.2-2.1c-0.9,0-1.3,1-1.3,2.1H100.3z"/>
	<path class="st0" d="M25.2,48.4c-11.8,0-21.4-9.4-21.4-21c0-11.6,9.6-21,21.4-21c11.8,0,21.4,9.4,21.4,21
		C46.6,38.9,37,48.4,25.2,48.4 M25.2,7.3c-11.2,0-20.4,9-20.4,20c0,11,9.1,20,20.4,20s20.4-9,20.4-20C45.6,16.3,36.4,7.3,25.2,7.3"
		/>
	<path class="st0" d="M25.2,42.6c-8.8,0-15.9-6.8-15.9-15.2c0-8.4,7.1-15.2,15.9-15.2S41.1,19,41.1,27.4
		C41.1,35.8,34,42.6,25.2,42.6 M25.2,13.2c-8.2,0-14.8,6.3-14.8,14.2c0,7.8,6.6,14.2,14.8,14.2S40,35.2,40,27.4
		C40,19.6,33.4,13.2,25.2,13.2"/>
	<polyline class="st0" points="8.3,20.1 8.6,21.1 9.6,21.1 8.9,21.7 9.2,22.6 8.3,21.9 7.4,22.6 7.8,21.7 6.9,21.1 7.9,21.1 	"/>
	<path class="st0" d="M9.3,22.7l-1-0.8l-0.8,0.7l-0.1-0.1l0.3-0.9l-1-0.7l1.2,0l0.5-1.2L8.6,21h1.1l-0.8,0.7 M7.1,21.2l0.8,0.5
		l-0.3,0.8l0.7-0.7l0.8,0.6l-0.2-0.8l0.6-0.5H8.6l-0.2-0.9l-0.4,0.9L7.1,21.2z"/>
	<polyline class="st0" points="40.9,34.6 41.2,35.7 42.2,35.7 41.5,36.2 41.8,37.1 40.9,36.4 40,37.2 40.4,36.2 39.5,35.7 
		40.5,35.7 	"/>
	<path class="st0" d="M41.9,37.3l-1-0.8L40,37.2L40,37.2l0.3-0.9l-1-0.7l1.2,0l0.5-1.2l0.3,1.1h1.1l-0.8,0.7 M39.7,35.7l0.8,0.5
		L40.1,37l0.7-0.7l0.8,0.6l-0.2-0.8l0.6-0.5h-0.9l-0.2-0.9l-0.4,0.9L39.7,35.7z"/>
	<polyline class="st0" points="9.4,34.4 9.7,35.4 10.7,35.4 10,36 10.3,36.9 9.4,36.2 8.5,37 8.9,36 8,35.4 9,35.5 	"/>
	<path class="st0" d="M10.4,37.1l-1-0.8L8.5,37L8.5,37L8.8,36l-1-0.7l1.2,0l0.5-1.2l0.3,1.1h1.1L10,36 M8.2,35.5L8.9,36l-0.3,0.8
		l0.7-0.7l0.8,0.6L9.9,36l0.6-0.5H9.7l-0.2-0.9L9,35.5L8.2,35.5z"/>
	<polyline class="st0" points="42.2,19.3 42.6,20.4 43.5,20.4 42.7,20.9 43,21.8 42.2,21.1 41.3,21.9 41.6,20.9 40.7,20.4 
		41.8,20.4 	"/>
	<path class="st0" d="M43.1,22l-0.9-0.9l-0.9,0.8l-0.1-0.1l0.3-0.9l-1-0.7l1.2,0l0.5-1.2l0.4,1.1h1L42.8,21 M40.9,20.4l0.8,0.5
		l-0.3,0.8l0.8-0.7l0.7,0.7l-0.2-0.7l0.6-0.5h-0.8l-0.3-0.9l-0.4,1L40.9,20.4z"/>
	<path class="st0" d="M26.5,27.4c0.1,0,0.2,0,0.3,0"/>
	<polyline class="st0" points="14.4,39.3 14.8,39.7 12.7,42 12.2,41.5 12.8,39.1 12.8,39.1 11.3,40.7 10.8,40.3 13,38 13.5,38.5 
		12.9,40.9 12.9,40.9 	"/>
	<path class="st0" d="M26,11.3l-0.7-0.1l1.4-2.9l0.8,0.1l0.8,3.1l-0.7-0.1l-0.1-0.6l-1.2-0.1 M26.5,10.2l0.8,0.1L27,9h0L26.5,10.2z"
		/>
	<polyline class="st0" points="30.3,11.4 31.8,11.9 31.6,12.4 29.4,11.8 30.5,8.9 31.1,9.1 	"/>
	<path class="st0" d="M35.1,13.3C34.6,14,34,14,33.4,13.6c-0.2-0.1-0.6-0.4-0.6-0.8c0-0.2,0-0.5,0.2-0.7l1.1-1.7l0.6,0.3l-1.1,1.7
		c-0.2,0.4-0.1,0.6,0.1,0.8c0.4,0.2,0.7,0.2,0.9-0.2l1.1-1.7l0.6,0.4"/>
	<polyline class="st0" points="36.5,15.7 36,15.3 37.7,13.4 36.9,12.8 37.3,12.4 39.3,14 38.9,14.4 38.2,13.8 	"/>
	<path class="st0" d="M22.5,10.6c0,0.2,0.2,0.5,0.7,0.4c0.3,0,0.6-0.2,0.6-0.5c0-0.2-0.3-0.3-0.6-0.3l-0.3,0c-0.5,0-1-0.1-1.1-0.7
		c-0.1-0.3,0-1,1-1.1c1-0.1,1.3,0.4,1.4,0.8l-0.6,0.1c0-0.1-0.1-0.4-0.7-0.4c-0.3,0-0.5,0.2-0.5,0.4c0,0.2,0.2,0.3,0.4,0.3l0.8,0.1
		c0.4,0,0.9,0.2,1,0.7c0.2,0.9-0.8,1.1-1.1,1.2c-1.1,0.2-1.4-0.4-1.5-0.8"/>
	<path class="st0" d="M15.3,10.7c0.4-0.2,1.4-0.5,2.1,0.7c0.7,1.3-0.2,1.9-0.6,2.1c-0.4,0.2-1.4,0.5-2.1-0.7
		C14.1,11.5,15,10.9,15.3,10.7 M16.6,13c0.3-0.2,0.7-0.6,0.3-1.3c-0.4-0.8-1-0.7-1.3-0.6c-0.3,0.2-0.7,0.6-0.2,1.3
		C15.8,13.2,16.3,13.2,16.6,13"/>
	<path class="st0" d="M10.8,14.4l1.1-1.1c0.6-0.6,1.1-0.3,1.3-0.1c0.2,0.2,0.3,0.5,0.2,0.8c0.3-0.1,0.4-0.1,0.8,0.2
		c0.3,0.3,0.4,0.4,0.5,0.3l0.1,0.1l-0.5,0.5c-0.1-0.1-0.3-0.2-0.5-0.4c-0.3-0.3-0.4-0.4-0.8,0l-0.5,0.5l0.9,0.8L13,16.4 M12.8,14.3
		c0.2-0.2,0.3-0.4,0-0.6c-0.1-0.1-0.3-0.2-0.6,0.1l-0.6,0.6l0.6,0.6L12.8,14.3z"/>
	<polyline class="st0" points="33.8,41.1 34.3,40.8 35.8,43.4 35.3,43.8 33.1,42.5 33,42.5 34.1,44.4 33.6,44.7 32.1,42 32.7,41.7 
		34.8,42.9 34.8,42.9 	"/>
	<path class="st0" d="M34.9,40.3l1.1-0.8c0.8-0.6,1.6-0.1,1.9,0.4c0.4,0.5,0.8,1.4,0,2l-1.1,0.8 M37,41.9l0.5-0.4
		c0.4-0.3,0.2-0.8-0.1-1.2c-0.6-0.7-1-0.5-1.2-0.3l-0.5,0.4L37,41.9z"/>
	<polyline class="st0" points="40.2,39.8 39.7,40.3 37.4,38.3 37.8,37.8 	"/>
	<polyline class="st0" points="41.2,17.2 40.2,15.9 39.7,16.3 40.6,17.5 40.1,17.8 39.2,16.7 38.6,17.1 39.6,18.5 39.2,18.8 
		37.7,17 40.2,15.1 41.6,16.9 	"/>
	<path class="st0" d="M16.5,40.9c0.3,0.2,1.1,1,0.3,2.2s-1.8,0.7-2.2,0.5c-0.3-0.2-1.1-1-0.3-2.1C15.1,40.2,16.1,40.6,16.5,40.9
		 M14.9,43.1c0.3,0.2,0.8,0.3,1.3-0.4c0.5-0.7,0.2-1.1-0.1-1.3c-0.3-0.2-0.8-0.3-1.3,0.4C14.3,42.4,14.6,42.9,14.9,43.1"/>
	<polyline class="st0" points="19.8,42.5 20.4,42.8 18.3,45.2 17.7,45 17.9,41.8 18.5,42 18.3,44.4 18.3,44.4 	"/>
	<polyline class="st0" points="20.9,46 20.2,45.8 21.1,42.9 21.7,43.1 	"/>
	<polyline class="st0" points="28.3,46.2 27.7,46.2 27.6,43.7 27.5,43.7 27.1,46.3 26.5,46.3 25.7,43.8 25.7,43.8 25.9,46.4 
		25.3,46.4 25.1,43.4 26,43.3 26.8,45.7 26.8,45.7 27.2,43.2 28.1,43.2 	"/>
	<path class="st0" d="M32,44.3c0.2,0.8-0.2,1.2-1,1.4c-0.3,0.1-0.7,0.1-1.1-0.1c-0.2-0.1-0.3-0.4-0.4-0.7L29,43l0.7-0.2l0.5,1.9
		c0.1,0.4,0.4,0.5,0.7,0.5c0.4-0.1,0.6-0.4,0.5-0.7l-0.5-2l0.7-0.2"/>
	<path class="st0" d="M11.1,18.8l-0.4,0.5l-2.6-1.7l0.8-1.2c0.3-0.5,0.9-0.6,1.4-0.2c0.2,0.2,0.7,0.7,0.3,1.4l-0.4,0.6 M10.1,17.4
		c0.3-0.4,0-0.6-0.1-0.7c-0.3-0.2-0.5-0.1-0.7,0.2L9,17.4l0.8,0.5L10.1,17.4z"/>
	<path class="st0" d="M28.3,39.3c0.2,0.5-0.4,0.4-0.6,0.6h-0.2C27.6,39.6,27.9,39.1,28.3,39.3"/>
	<path class="st0" d="M24.9,30.1v0.2h-0.8C24,29.8,24.7,29.7,24.9,30.1"/>
	<polyline class="st0" points="26.3,24.8 26.7,24.3 27.8,24.2 28.2,24.1 28,24.5 27.5,24.8 27.5,24.5 26.9,24.5 26.5,24.8 	"/>
	<polyline class="st0" points="28.9,24.2 29.2,24.1 29.6,24.3 29.4,24.5 29,24.6 28.8,24.8 28.6,24.7 28.3,24.8 28.2,24.6 
		28.5,24.5 28.4,24.3 28.5,24.2 	"/>
	<polyline class="st0" points="30,24.6 30.2,24.4 30.6,24.4 30.5,24.6 29.9,24.8 	"/>
	<polyline class="st0" points="26.9,25 27.3,25 27.2,25.3 26.8,25.3 	"/>
	<polyline class="st0" points="29.8,25 30.1,24.8 30.2,24.9 30.1,25.1 	"/>
	<polyline class="st0" points="29.6,25.4 29.8,25.7 30,25.6 29.9,25.1 	"/>
	<polyline class="st0" points="30.4,25.6 30.5,25.4 30.1,25.2 	"/>
	<line class="st1" x1="30.4" y1="25.6" x2="30.5" y2="25.4"/>
	<polyline class="st0" points="30.8,25.4 31,25.4 30.9,26.1 30.7,25.5 	"/>
	<path class="st0" d="M23.9,15.8c0.2-0.2,0-0.9-0.2-1c-0.3,0.4,0.6,0.7,0,1 M25.3,18.1c0-0.3-0.1-1.1,0.2-1.5l0.2-0.2
		c-0.1,0.1-0.1,0.1-0.2,0.2l-0.4-0.4l0.2-0.2c-0.3,0.1-0.4-0.2-0.6-0.4c-0.3,0.7,1.5,1.7-0.2,1.7c-0.1-0.1-0.3-0.2-0.2-0.4h-0.2v0.2
		h0.2c-0.1,0.1-0.2,0.2-0.4,0.2c0,0.2,0,0.5-0.2,0.6h0.4c0.1,0.1,0.3,0.2,0.2,0.4c0.3,0.1,0.7-0.2,0.8,0.2
		C25.1,18.3,25.2,18.2,25.3,18.1 M27.4,27.4c0.4-0.3,0.7-0.4,1.3-0.6c-0.1,0.2,0.1,0.3,0.2,0.4c0.4-0.5,0.7-0.1,1,0.2
		c0.2,0.1,0.3,0.2,0.6,0.2c0-0.1,0-0.1,0.1-0.2h0.2c0.3,0.7,1.4,1.1,1.5,1.9c0.7,0.3,1.7,0.1,2.2,0.8c1.4,1.5-1.7,2.1-1.2,3.7
		c-0.3,1-1,1.2-2,1.3c-0.3,0.8-0.9,1.1-1.6,1.5c-1,0-1.1,0.7-2,1c-0.3,1-1.2,1.3-1.4,2.3c0.2,0.3,0.7,0.1,0.6,0.6
		c-0.7,0-1.6-0.4-1.6-1.2c0.3-2.2,1.9-3.8,2-6c-1.1-0.8-1.3-2.3-1.2-3.7c0.7-0.4,0.5-1,0.8-1.5l-0.4-0.4c-0.4,0.6-0.7-0.3-1.2,0
		c0-0.1-0.1-0.3-0.2-0.4c-0.2-0.3-0.6-0.5-0.8-0.8c-0.8-0.2-1.7-0.3-2.4-0.8c-0.9-0.1-0.4-1.1-1.2-1.4c-0.1,0.1-0.3,0.2-0.2,0.4
		c-1.3-0.3-0.8-1.7-1.4-2.5c0.1-0.5,0.2-1.1,0-1.5c-0.1-0.3-0.2-0.7-0.4-1c-1.3-1.4-2.7,1-4.2,0.2c0.6,0,1-0.3,1.4-0.8
		c-0.1-0.2-0.5-0.3-0.4-0.6l0.2-0.2l-0.2-0.2l0.2-0.2c-0.1-0.1-0.3-0.2-0.2-0.4c0.8-0.6,1.8-1.4,3-1.4c0.9-0.3,2.2,0.7,3-0.4
		c-0.4,0-0.9-0.6-0.4-0.9c0.3,0,0.6-0.5,0.8,0c0.2-0.1,0.2-0.4,0.2-0.6c0.7-0.4,1.4,0.7,1.6-0.2h0.4c-0.1,0.2,0.1,0.3,0.2,0.4
		l0.2-0.2l0.2,0.2c0.5-0.5,0.9,0.5,1.6,0.2c0.5,0.3,0.9,1.1,1,1.7c-0.2,0-0.5-0.1-0.6,0.2l0.8,0.8c0.3-0.1,0.2-0.4,0.2-0.6
		c1,0.5,1.5,1.5,2,2.3c-1,0.2-2,0.6-2.6,1.5c0.6,1.6-2,1.5-0.8,3.1l-0.4,0.4c0-0.4-0.2-0.7-0.4-1c-1,0.7-2.9-0.7-2.6,1.4
		c0.3,0.2,0.3,0.6,0.6,0.8c0.5,0.2,0.7-0.4,1-0.6v-0.2h0.8c0.4,0.7-0.9,1.5,0.4,1.7c0,0.2,0.1,0.5-0.2,0.6c0.1,0.3,0.3,0.4,0.5,0.4
		c0.1,0,0.3,0,0.5,0h0.3c0.2,0,0.3,0.1,0.4,0.2C27.2,27.5,27.3,27.4,27.4,27.4"/>
	<path class="st0" d="M42.2,23.5c0.2,0,0.4,0,0.7,0c0.3,0,0.5,0,0.7,0.2c0.1,0.1,0.2,0.3,0.2,0.5c0,0.2-0.1,0.4-0.2,0.5
		c-0.2,0.1-0.4,0.2-0.7,0.2c-0.1,0-0.1,0-0.1,0v0.7h-0.5 M42.8,24.4c0,0,0.1,0,0.1,0c0.2,0,0.4-0.1,0.4-0.3c0-0.2-0.1-0.3-0.3-0.3
		c-0.1,0-0.1,0-0.2,0L42.8,24.4L42.8,24.4z"/>
	<path class="st0" d="M43.1,27.9L43,28.4h-0.6l0.6-2h0.7l0.6,2h-0.6l-0.1-0.5 M43.6,27.5l-0.1-0.4c0-0.1-0.1-0.3-0.1-0.4h0
		c0,0.1-0.1,0.3-0.1,0.4l-0.1,0.4C43.2,27.5,43.6,27.5,43.6,27.5z"/>
	<polyline class="st0" points="42.7,29.2 42.7,30 43.3,30 43.3,29.2 43.9,29.2 43.9,31.3 43.3,31.3 43.3,30.5 42.7,30.5 42.7,31.3 
		42.1,31.3 42.1,29.2 	"/>
	<path class="st0" d="M43.4,33.1c0,0.7-0.4,1.1-1,1.1c-0.6,0-1-0.5-1-1c0-0.6,0.4-1.1,1-1.1C43.1,32.1,43.4,32.6,43.4,33.1 M42,33.2
		c0,0.4,0.2,0.6,0.4,0.6c0.3,0,0.4-0.3,0.4-0.6c0-0.3-0.2-0.6-0.4-0.6C42.1,32.5,42,32.8,42,33.2"/>
	<path class="st0" d="M8.5,25.6c0,0.7-0.4,1.1-1,1.1c-0.6,0-1-0.5-1-1c0-0.6,0.4-1.1,1-1.1C8.1,24.6,8.5,25.1,8.5,25.6 M7,25.6
		c0,0.4,0.2,0.6,0.4,0.6c0.3,0,0.4-0.3,0.4-0.6c0-0.3-0.2-0.6-0.4-0.6C7.2,25,7,25.3,7,25.6"/>
	<path class="st0" d="M6.4,27.9c0.1,0,0.4,0,0.7,0c0.3,0,0.5,0,0.7,0.2C7.9,28.1,8,28.3,8,28.5c0,0.2-0.1,0.4-0.2,0.5
		c-0.2,0.1-0.4,0.2-0.7,0.2c-0.1,0-0.1,0-0.1,0v0.7H6.4 M7,28.8c0,0,0.1,0,0.1,0c0.2,0,0.4-0.1,0.4-0.3c0-0.2-0.1-0.3-0.3-0.3
		c-0.1,0-0.1,0-0.2,0V28.8z"/>
	<path class="st0" d="M7.3,32.2c0.1,0.1,0.3,0.1,0.5,0.1c0.2,0,0.3-0.1,0.3-0.2c0-0.1-0.1-0.2-0.3-0.2c-0.4-0.1-0.6-0.3-0.6-0.6
		c0-0.4,0.3-0.6,0.8-0.6c0.2,0,0.4,0,0.6,0.1l-0.1,0.4c-0.1,0-0.2-0.1-0.5-0.1c-0.2,0-0.3,0.1-0.3,0.2c0,0.1,0.1,0.1,0.4,0.2
		c0.4,0.1,0.5,0.3,0.5,0.6c0,0.3-0.3,0.7-0.9,0.7c-0.2,0-0.5-0.1-0.6-0.1"/>
	<path class="st0" d="M200.9,45.2h-2.2l-0.5,1.8h-1.6l2.3-7.9h1.8L203,47h-1.7 M199.8,40.6L199.8,40.6l-0.9,3.3h1.6L199.8,40.6z"/>
</g>
<g>
</g>
<g>
</g>
<g>
</g>
<g>
</g>
<g>
</g>
<g>
</g>
<g>
</g>
<g>
</g>
<g>
</g>
<g>
</g>
<g>
</g>
<g>
</g>
<g>
</g>
<g>
</g>
<g>
</g>
</svg>
